<?xml version="1.0" encoding="UTF-8" standalone="no"?>
<svg
   xmlns:dc="http://purl.org/dc/elements/1.1/"
   xmlns:cc="http://creativecommons.org/ns#"
   xmlns:rdf="http://www.w3.org/1999/02/22-rdf-syntax-ns#"
   xmlns:svg="http://www.w3.org/2000/svg"
   xmlns="http://www.w3.org/2000/svg"
   xmlns:sodipodi="http://sodipodi.sourceforge.net/DTD/sodipodi-0.dtd"
   xmlns:inkscape="http://www.inkscape.org/namespaces/inkscape"
   sodipodi:docname="Engalabi.svg"
   inkscape:version="1.0rc1 (09960d6, 2020-04-09)"
   id="svg13505"
   version="1.1"
   viewBox="0 0 60.552902 184.46837"
   height="184.46837mm"
   width="60.552902mm">
  <defs
     id="defs13499" />
  <sodipodi:namedview
     inkscape:window-maximized="0"
     inkscape:window-y="23"
     inkscape:window-x="0"
     inkscape:window-height="755"
     inkscape:window-width="1248"
     fit-margin-bottom="0"
     fit-margin-right="0"
     fit-margin-left="0"
     fit-margin-top="0"
     guidetolerance="1"
     objecttolerance="1"
     showgrid="false"
     inkscape:document-rotation="0"
     inkscape:current-layer="layer1"
     inkscape:document-units="mm"
     inkscape:cy="280.19093"
     inkscape:cx="26.039235"
     inkscape:zoom="0.43669954"
     inkscape:pageshadow="2"
     inkscape:pageopacity="0.0"
     borderopacity="1.0"
     bordercolor="#666666"
     pagecolor="#ffffff"
     id="base" />
  <metadata
     id="metadata13502">
    <rdf:RDF>
      <cc:Work
         rdf:about="">
        <dc:format>image/svg+xml</dc:format>
        <dc:type
           rdf:resource="http://purl.org/dc/dcmitype/StillImage" />
        <dc:title></dc:title>
      </cc:Work>
    </rdf:RDF>
  </metadata>
  <g
     transform="translate(-72.293749,-85.934469)"
     id="layer1"
     inkscape:groupmode="layer"
     inkscape:label="Ebene 1">
    <path
       d="m 124.61106,137.539 a 5.5662003,7.1821938 0 0 1 -5.52858,7.18203 5.5662003,7.1821938 0 0 1 -5.60331,-7.08495 5.5662003,7.1821938 0 0 1 5.45284,-7.2778 5.5662003,7.1821938 0 0 1 5.67702,6.98657"
       sodipodi:arc-type="arc"
       sodipodi:open="true"
       sodipodi:end="6.2561502"
       sodipodi:start="0"
       sodipodi:ry="7.1821938"
       sodipodi:rx="5.5662003"
       sodipodi:cy="137.539"
       sodipodi:cx="119.04486"
       sodipodi:type="arc"
       id="path14085"
       style="opacity:1;fill:#000000;fill-opacity:1;stroke:#000000;stroke-width:2;stroke-linecap:round;stroke-linejoin:round;stroke-miterlimit:4;stroke-dasharray:none;stroke-opacity:1" />
    <path
       d="m 124.20574,254.78268 a 24.042017,14.620146 0 0 1 -23.87952,14.61982 24.042017,14.620146 0 0 1 -24.202314,-14.42219 24.042017,14.620146 0 0 1 23.55237,-14.81477 24.042017,14.620146 0 0 1 24.520684,14.22194"
       sodipodi:arc-type="arc"
       sodipodi:open="true"
       sodipodi:end="6.2561502"
       sodipodi:start="0"
       sodipodi:ry="14.620146"
       sodipodi:rx="24.042017"
       sodipodi:cy="254.78268"
       sodipodi:cx="100.16373"
       sodipodi:type="arc"
       id="path14079"
       style="opacity:1;fill:#ffffff;fill-opacity:1;stroke:#000000;stroke-width:2;stroke-linecap:round;stroke-linejoin:round;stroke-miterlimit:4;stroke-dasharray:none;stroke-opacity:1" />
    <path
       d="m 121.2687,250.26167 a 21.541248,10.11757 0 0 1 -21.395653,10.11734 21.541248,10.11757 0 0 1 -21.684872,-9.98058 21.541248,10.11757 0 0 1 21.102533,-10.25225 21.541248,10.11757 0 0 1 21.970122,9.842"
       sodipodi:arc-type="arc"
       sodipodi:open="true"
       sodipodi:end="6.2561502"
       sodipodi:start="0"
       sodipodi:ry="10.11757"
       sodipodi:rx="21.541248"
       sodipodi:cy="250.26167"
       sodipodi:cx="99.727455"
       sodipodi:type="arc"
       id="path14081"
       style="opacity:1;fill:#000000;fill-opacity:1;stroke:#000000;stroke-width:1;stroke-linecap:round;stroke-linejoin:round;stroke-miterlimit:4;stroke-dasharray:none;stroke-opacity:1" />
    <path
       sodipodi:nodetypes="ccssccssc"
       inkscape:connector-curvature="0"
       d="m 73.293718,115.12511 h 53.360672 c -1.6299,6.03775 -6.24265,9.39646 -6.87029,15.37489 -3.33489,31.76587 -3.80829,63.1756 -6.57335,91.36937 -0.74094,7.55499 2.65178,14.97475 3.4436,22.17763 -7.19998,10.38343 -26.017698,10.4781 -33.361,0 0.443081,-7.16054 3.552439,-14.37281 2.885302,-21.56307 C 83.337911,191.86702 83.168194,160.9031 80.171769,130.5 c -0.542532,-5.50477 -5.396843,-9.96456 -6.878051,-15.37489 z"
       style="opacity:1;fill:#00000f;fill-opacity:1;stroke:#000000;stroke-width:2;stroke-linecap:round;stroke-linejoin:round;stroke-miterlimit:4;stroke-dasharray:none;stroke-opacity:1"
       id="rect14074" />
    <path
       style="fill:#ffffff;fill-opacity:1;stroke:#000000;stroke-width:2;stroke-linecap:butt;stroke-linejoin:miter;stroke-miterlimit:4;stroke-dasharray:none;stroke-opacity:1"
       d="m 77.148338,104.68508 -3.48,10.44003 c 14.2153,14.60983 41.120612,12.71245 52.986052,0 l -3.48,-10.44003 z"
       id="path14072"
       inkscape:connector-curvature="0"
       sodipodi:nodetypes="ccccc" />
    <path
       sodipodi:nodetypes="ccccc"
       inkscape:connector-curvature="0"
       id="path14070"
       d="m 80.32237,95 -3,9 c 12.254569,12.59468 35.4488,10.95901 45.67763,0 l -3,-9 z"
       style="fill:#000000;fill-opacity:1;stroke:#000000;stroke-width:1;stroke-linecap:butt;stroke-linejoin:miter;stroke-miterlimit:4;stroke-dasharray:none;stroke-opacity:1" />
    <path
       d="m 119.44048,95.25 a 19.276785,8.3154764 0 0 1 -19.1465,8.31529 19.276785,8.3154764 0 0 1 -19.405307,-8.202889 19.276785,8.3154764 0 0 1 18.884188,-8.426168 19.276785,8.3154764 0 0 1 19.660579,8.088985"
       sodipodi:arc-type="arc"
       sodipodi:open="true"
       sodipodi:end="6.2561502"
       sodipodi:start="0"
       sodipodi:ry="8.3154764"
       sodipodi:rx="19.276785"
       sodipodi:cy="95.25"
       sodipodi:cx="100.1637"
       sodipodi:type="arc"
       id="path14068"
       style="opacity:1;fill:#ffffff;fill-opacity:1;stroke:#000000;stroke-width:2;stroke-linecap:round;stroke-linejoin:round;stroke-miterlimit:4;stroke-dasharray:none;stroke-opacity:1" />
    <path
       sodipodi:nodetypes="cc"
       inkscape:connector-curvature="0"
       id="path14083"
       d="m 84.96252,231.97953 c 5.254311,7.99565 25.17853,7.79357 29.99341,-0.20079"
       style="fill:none;stroke:#ffffff;stroke-width:2;stroke-linecap:butt;stroke-linejoin:miter;stroke-miterlimit:4;stroke-dasharray:none;stroke-opacity:1" />
    <path
       sodipodi:nodetypes="csssc"
       inkscape:connector-curvature="0"
       id="path14087"
       d="m 122.81551,142.56654 c 12.90022,19.34255 7.06566,42.3079 1.93542,56.98716 -1.40962,4.03339 -10.53097,9.79482 -7.3999,15.54392 7.25963,13.32974 7.75882,20.97736 6.40922,24.09444 -2.21214,5.10924 -3.09536,0.84005 -3.45851,7.8754"
       style="fill:none;stroke:#000000;stroke-width:3;stroke-linecap:butt;stroke-linejoin:miter;stroke-miterlimit:4;stroke-dasharray:none;stroke-opacity:1" />
    <path
       d="m 129.59183,151.69458 a 2.0939436,1.6286228 0 0 1 -2.07979,1.62859 2.0939436,1.6286228 0 0 1 -2.10791,-1.60658 2.0939436,1.6286228 0 0 1 2.0513,-1.6503 2.0939436,1.6286228 0 0 1 2.13564,1.58427"
       sodipodi:arc-type="arc"
       sodipodi:open="true"
       sodipodi:end="6.2561502"
       sodipodi:start="0"
       sodipodi:ry="1.6286228"
       sodipodi:rx="2.0939436"
       sodipodi:cy="151.69458"
       sodipodi:cx="127.49789"
       sodipodi:type="arc"
       id="path14089"
       style="opacity:1;fill:#000000;fill-opacity:1;stroke:#000000;stroke-width:2;stroke-linecap:round;stroke-linejoin:round;stroke-miterlimit:4;stroke-dasharray:none;stroke-opacity:1" />
    <rect
       ry="0"
       transform="rotate(51.694275)"
       y="9.676837"
       x="220.30214"
       height="3.2572455"
       width="4.6532078"
       id="rect14091"
       style="opacity:1;fill:#000000;fill-opacity:1;stroke:#000000;stroke-width:2;stroke-linecap:round;stroke-linejoin:round;stroke-miterlimit:4;stroke-dasharray:none;stroke-opacity:1" />
  </g>
</svg>
