<?xml version="1.0" encoding="UTF-8" standalone="no"?>
<svg
   xmlns:dc="http://purl.org/dc/elements/1.1/"
   xmlns:cc="http://creativecommons.org/ns#"
   xmlns:rdf="http://www.w3.org/1999/02/22-rdf-syntax-ns#"
   xmlns:svg="http://www.w3.org/2000/svg"
   xmlns="http://www.w3.org/2000/svg"
   xmlns:sodipodi="http://sodipodi.sourceforge.net/DTD/sodipodi-0.dtd"
   xmlns:inkscape="http://www.inkscape.org/namespaces/inkscape"
   sodipodi:docname="Jango.svg"
   inkscape:version="1.0rc1 (09960d6, 2020-04-09)"
   id="svg8181"
   version="1.1"
   viewBox="0 0 110.20319 74.672882"
   height="74.672882mm"
   width="110.20319mm">
  <defs
     id="defs8175" />
  <sodipodi:namedview
     inkscape:window-maximized="0"
     inkscape:window-y="23"
     inkscape:window-x="0"
     inkscape:window-height="755"
     inkscape:window-width="1248"
     fit-margin-bottom="0"
     fit-margin-right="0"
     fit-margin-left="0"
     fit-margin-top="0"
     guidetolerance="1"
     objecttolerance="1"
     showgrid="false"
     inkscape:document-rotation="0"
     inkscape:current-layer="layer1"
     inkscape:document-units="mm"
     inkscape:cy="196.15122"
     inkscape:cx="123.65218"
     inkscape:zoom="0.40936887"
     inkscape:pageshadow="2"
     inkscape:pageopacity="0.0"
     borderopacity="1.0"
     bordercolor="#666666"
     pagecolor="#ffffff"
     id="base" />
  <metadata
     id="metadata8178">
    <rdf:RDF>
      <cc:Work
         rdf:about="">
        <dc:format>image/svg+xml</dc:format>
        <dc:type
           rdf:resource="http://purl.org/dc/dcmitype/StillImage" />
        <dc:title></dc:title>
      </cc:Work>
    </rdf:RDF>
  </metadata>
  <g
     transform="translate(-68.896361,-57.980068)"
     id="layer1"
     inkscape:groupmode="layer"
     inkscape:label="Ebene 1">
    <g
       id="g8982">
      <path
         d="m 92.963104,78.441322 a 2.5564492,1.544552 0 0 1 -2.539171,1.544517 2.5564492,1.544552 0 0 1 -2.573494,-1.523639 2.5564492,1.544552 0 0 1 2.504384,-1.565112 2.5564492,1.544552 0 0 1 2.607346,1.502482"
         style="fill:#ffffff;fill-opacity:1;stroke:#000000;stroke-width:1.5;stroke-linecap:round;stroke-linejoin:bevel;stroke-miterlimit:4;stroke-dasharray:none;stroke-opacity:1"
         id="path8850"
         sodipodi:type="arc"
         sodipodi:cx="90.406654"
         sodipodi:cy="78.441322"
         sodipodi:rx="2.5564492"
         sodipodi:ry="1.544552"
         sodipodi:start="0"
         sodipodi:end="6.2561502"
         sodipodi:open="true"
         sodipodi:arc-type="arc"
         transform="rotate(-1.1880875)" />
      <g
         id="g8836">
        <path
           d="m 158.80633,113.59884 a 10.157754,20.87818 0 0 1 -10.0891,20.8777 10.157754,20.87818 0 0 1 -10.22548,-20.59549 10.157754,20.87818 0 0 1 9.95088,-21.156099 10.157754,20.87818 0 0 1 10.35999,20.309509"
           style="fill:#ffffff;fill-opacity:1;stroke:#000000;stroke-width:2.78007;stroke-linecap:round;stroke-miterlimit:4;stroke-dasharray:none;stroke-opacity:1"
           id="path8821"
           sodipodi:type="arc"
           sodipodi:cx="148.64857"
           sodipodi:cy="113.59884"
           sodipodi:rx="10.157754"
           sodipodi:ry="20.87818"
           sodipodi:start="0"
           sodipodi:end="6.2561502"
           sodipodi:open="true"
           sodipodi:arc-type="arc"
           transform="matrix(0.98412826,-0.17745866,0.18235766,0.98323226,0,0)" />
        <path
           d="m -125.69923,-112.34957 a 14.232686,27.707293 0 0 1 -14.13649,27.706658 14.232686,27.707293 0 0 1 -14.32758,-27.332138 14.232686,27.707293 0 0 1 13.94282,-28.07612 14.232686,27.707293 0 0 1 14.51605,26.95262"
           transform="matrix(-0.98583225,0.16773422,-0.19286929,-0.98122446,0,0)"
           sodipodi:arc-type="arc"
           sodipodi:open="true"
           sodipodi:end="6.2561502"
           sodipodi:start="0"
           sodipodi:ry="27.707293"
           sodipodi:rx="14.232686"
           sodipodi:cy="-112.34957"
           sodipodi:cx="-139.93192"
           sodipodi:type="arc"
           id="path8778"
           style="fill:#ffffff;fill-opacity:1;stroke:#000000;stroke-width:3.00049;stroke-linecap:round;stroke-miterlimit:4;stroke-dasharray:none;stroke-opacity:1" />
        <path
           d="m -128.59154,-111.98893 a 10.548277,23.482624 0 0 1 -10.47698,23.482088 10.548277,23.482624 0 0 1 -10.61861,-23.164668 10.548277,23.482624 0 0 1 10.33345,-23.79522 10.548277,23.482624 0 0 1 10.75829,22.84302"
           style="fill:#ffffff;fill-opacity:1;stroke:#000000;stroke-width:3.00049;stroke-linecap:round;stroke-miterlimit:4;stroke-dasharray:none;stroke-opacity:1"
           id="path8776"
           sodipodi:type="arc"
           sodipodi:cx="-139.13982"
           sodipodi:cy="-111.98893"
           sodipodi:rx="10.548277"
           sodipodi:ry="23.482624"
           sodipodi:start="0"
           sodipodi:end="6.2561502"
           sodipodi:open="true"
           sodipodi:arc-type="arc"
           transform="matrix(-0.98583225,0.16773422,-0.19286929,-0.98122446,0,0)" />
        <path
           sodipodi:nodetypes="sssssssss"
           inkscape:connector-curvature="0"
           d="m -131.54602,-131.76729 h 3.85421 c 10.3675,0 18.7139,8.3464 18.7139,18.7139 v 1.17355 c 0,10.36751 -8.3464,18.713904 -18.7139,18.713904 h -3.85421 c -10.3675,0 -18.7139,-1.879636 -18.7139,-18.713904 v -1.17355 c 0,-19.04437 8.3464,-18.7139 18.7139,-18.7139 z"
           transform="rotate(169.83532)"
           style="fill:#000000;fill-opacity:1;stroke:#000000;stroke-width:3;stroke-linecap:round;stroke-miterlimit:4;stroke-dasharray:none;stroke-opacity:1"
           id="rect8774" />
      </g>
      <path
         style="color:#000000;font-style:normal;font-variant:normal;font-weight:normal;font-stretch:normal;font-size:medium;line-height:normal;font-family:sans-serif;font-variant-ligatures:normal;font-variant-position:normal;font-variant-caps:normal;font-variant-numeric:normal;font-variant-alternates:normal;font-variant-east-asian:normal;font-feature-settings:normal;font-variation-settings:normal;text-indent:0;text-align:start;text-decoration:none;text-decoration-line:none;text-decoration-style:solid;text-decoration-color:#000000;letter-spacing:normal;word-spacing:normal;text-transform:none;writing-mode:lr-tb;direction:ltr;text-orientation:mixed;dominant-baseline:auto;baseline-shift:baseline;text-anchor:start;white-space:normal;shape-padding:0;shape-margin:0;inline-size:0;clip-rule:nonzero;display:inline;overflow:visible;visibility:visible;isolation:auto;mix-blend-mode:normal;color-interpolation:sRGB;color-interpolation-filters:linearRGB;solid-color:#000000;solid-opacity:1;vector-effect:none;fill:#ffffff;fill-opacity:1;fill-rule:nonzero;stroke:#000000;stroke-width:0.5;stroke-linecap:butt;stroke-linejoin:miter;stroke-miterlimit:4;stroke-dasharray:none;stroke-dashoffset:0;stroke-opacity:1;color-rendering:auto;image-rendering:auto;shape-rendering:auto;text-rendering:auto;enable-background:accumulate;stop-color:#000000"
         d="m 164.24085,110.85556 -18.47938,1.94841 -42.88842,12.22923 0.36523,1.45508 42.75366,-12.07567 18.20741,-1.64395 z"
         id="path8880"
         inkscape:connector-curvature="0"
         sodipodi:nodetypes="ccccccc" />
      <path
         d="m 139.90678,100.7976 a 2.5564492,1.544552 0 0 1 -2.53918,1.54452 2.5564492,1.544552 0 0 1 -2.57349,-1.52364 2.5564492,1.544552 0 0 1 2.50438,-1.565115 2.5564492,1.544552 0 0 1 2.60735,1.502485"
         transform="rotate(-14.796265)"
         sodipodi:arc-type="arc"
         sodipodi:open="true"
         sodipodi:end="6.2561502"
         sodipodi:start="0"
         sodipodi:ry="1.544552"
         sodipodi:rx="2.5564492"
         sodipodi:cy="100.7976"
         sodipodi:cx="137.35033"
         sodipodi:type="arc"
         id="path8852"
         style="fill:#ffffff;fill-opacity:1;stroke:#000000;stroke-width:1.5;stroke-linecap:round;stroke-linejoin:bevel;stroke-miterlimit:4;stroke-dasharray:none;stroke-opacity:1" />
      <path
         d="m 104.40874,120.48788 a 2.1788545,8.8321667 0 0 1 -2.16413,8.83196 2.1788545,8.8321667 0 0 1 -2.19338,-8.71258 2.1788545,8.8321667 0 0 1 2.13448,-8.94973 2.1788545,8.8321667 0 0 1 2.22223,8.5916"
         transform="rotate(-13.54834)"
         sodipodi:arc-type="arc"
         sodipodi:open="true"
         sodipodi:end="6.2561502"
         sodipodi:start="0"
         sodipodi:ry="8.8321667"
         sodipodi:rx="2.1788545"
         sodipodi:cy="120.48788"
         sodipodi:cx="102.22988"
         sodipodi:type="arc"
         id="path8794"
         style="fill:#000000;fill-opacity:1;stroke:#ffffff;stroke-width:1;stroke-linecap:round;stroke-miterlimit:4;stroke-dasharray:none;stroke-opacity:1" />
      <g
         id="g8826"
         transform="matrix(0.88361785,-0.23765966,0.21292651,0.98625728,11.733565,-1.5604212)"
         style="stroke:#000000;stroke-width:0.5;stroke-miterlimit:4;stroke-dasharray:none;stroke-opacity:1">
        <path
           style="color:#000000;font-style:normal;font-variant:normal;font-weight:normal;font-stretch:normal;font-size:medium;line-height:normal;font-family:sans-serif;font-variant-ligatures:normal;font-variant-position:normal;font-variant-caps:normal;font-variant-numeric:normal;font-variant-alternates:normal;font-variant-east-asian:normal;font-feature-settings:normal;font-variation-settings:normal;text-indent:0;text-align:start;text-decoration:none;text-decoration-line:none;text-decoration-style:solid;text-decoration-color:#000000;letter-spacing:normal;word-spacing:normal;text-transform:none;writing-mode:lr-tb;direction:ltr;text-orientation:mixed;dominant-baseline:auto;baseline-shift:baseline;text-anchor:start;white-space:normal;shape-padding:0;shape-margin:0;inline-size:0;clip-rule:nonzero;display:inline;overflow:visible;visibility:visible;isolation:auto;mix-blend-mode:normal;color-interpolation:sRGB;color-interpolation-filters:linearRGB;solid-color:#000000;solid-opacity:1;vector-effect:none;fill:#000000;fill-opacity:1;fill-rule:nonzero;stroke:#000000;stroke-width:0.5;stroke-linecap:round;stroke-linejoin:miter;stroke-miterlimit:4;stroke-dasharray:none;stroke-dashoffset:0;stroke-opacity:1;color-rendering:auto;image-rendering:auto;shape-rendering:auto;text-rendering:auto;enable-background:accumulate;stop-color:#000000;stop-opacity:1"
           d="m 102.73853,121.07082 c 0,7.6406 -0.96656,13.84897 -2.16413,13.9006 -1.197573,0.0516 -2.17719,-6.07281 -2.193378,-13.7127 -0.01619,-7.63989 0.937124,-13.93103 2.134478,-14.08595 1.19736,-0.15493 2.18987,5.88447 2.22224,13.52229"
           id="path8828"
           inkscape:connector-curvature="0" />
        <path
           style="color:#000000;font-style:normal;font-variant:normal;font-weight:normal;font-stretch:normal;font-size:medium;line-height:normal;font-family:sans-serif;font-variant-ligatures:normal;font-variant-position:normal;font-variant-caps:normal;font-variant-numeric:normal;font-variant-alternates:normal;font-variant-east-asian:normal;font-feature-settings:normal;font-variation-settings:normal;text-indent:0;text-align:start;text-decoration:none;text-decoration-line:none;text-decoration-style:solid;text-decoration-color:#000000;letter-spacing:normal;word-spacing:normal;text-transform:none;writing-mode:lr-tb;direction:ltr;text-orientation:mixed;dominant-baseline:auto;baseline-shift:baseline;text-anchor:start;white-space:normal;shape-padding:0;shape-margin:0;inline-size:0;clip-rule:nonzero;display:inline;overflow:visible;visibility:visible;isolation:auto;mix-blend-mode:normal;color-interpolation:sRGB;color-interpolation-filters:linearRGB;solid-color:#000000;solid-opacity:1;vector-effect:none;fill:#ffffff;fill-opacity:1;fill-rule:nonzero;stroke:#000000;stroke-width:0.5;stroke-linecap:round;stroke-linejoin:miter;stroke-miterlimit:4;stroke-dasharray:none;stroke-dashoffset:0;stroke-opacity:1;color-rendering:auto;image-rendering:auto;shape-rendering:auto;text-rendering:auto;enable-background:accumulate;stop-color:#000000;stop-opacity:1"
           d="m 100.45117,106.67773 c -0.35902,0.0465 -0.598955,0.28337 -0.781248,0.54493 -0.182293,0.26155 -0.328927,0.58519 -0.466797,0.97656 -0.275741,0.78274 -0.509279,1.84264 -0.705078,3.13476 -0.391599,2.58426 -0.625326,6.08475 -0.617188,9.92579 0.0081,3.84103 0.257291,7.2997 0.660157,9.81835 0.201432,1.25933 0.438484,2.27995 0.720703,3.02344 0.141109,0.37175 0.289589,0.67553 0.484375,0.91992 0.194785,0.24439 0.485956,0.4649 0.849606,0.44922 0.36366,-0.0157 0.62827,-0.24705 0.81641,-0.5 0.18814,-0.25295 0.33516,-0.56572 0.47461,-0.94726 0.27891,-0.76308 0.51426,-1.80425 0.71289,-3.08008 0.39726,-2.55167 0.63867,-6.03166 0.63867,-9.87305 a 0.5,0.5 0 0 0 -0.0371,-0.1875 0.5,0.5 0 0 0 0.0371,-0.18945 c -0.0163,-3.84001 -0.27322,-7.27842 -0.68164,-9.76367 -0.20421,-1.24263 -0.44281,-2.24281 -0.72852,-2.9668 -0.14285,-0.36199 -0.29374,-0.65679 -0.49609,-0.89258 -0.20234,-0.23579 -0.52183,-0.43903 -0.88086,-0.39258 z m 0.12891,0.99024 c -0.0597,0.008 -0.0871,-0.0419 -0.006,0.0527 0.0812,0.0947 0.20514,0.30763 0.32422,0.60938 0.23816,0.6035 0.47424,1.55913 0.67187,2.76172 0.39527,2.40517 0.65187,5.80765 0.66797,9.60547 a 0.5,0.5 0 0 0 0.0371,0.1875 0.5,0.5 0 0 0 -0.0371,0.18554 c 0,3.79922 -0.24154,7.24513 -0.62695,9.72071 -0.19271,1.23778 -0.42492,2.23439 -0.66406,2.88867 -0.11957,0.32714 -0.24396,0.56901 -0.33789,0.69531 -0.0939,0.1263 -0.12091,0.10043 -0.0567,0.0977 0.0643,-0.003 0.0627,0.0363 -0.0254,-0.0742 -0.0881,-0.1105 -0.21264,-0.33586 -0.33203,-0.65039 -0.238781,-0.62907 -0.470821,-1.60782 -0.666013,-2.82813 -0.390384,-2.44062 -0.640388,-5.86325 -0.648438,-9.66211 -0.008,-3.79886 0.227073,-7.26342 0.607422,-9.77343 0.190175,-1.25501 0.418948,-2.27396 0.658199,-2.95313 0.11963,-0.33958 0.2448,-0.59434 0.34375,-0.73633 0.099,-0.14199 0.14953,-0.13467 0.0898,-0.12695 z"
           id="path8830"
           inkscape:connector-curvature="0" />
      </g>
      <path
         d="m 102.73853,121.07082 a 2.1788545,13.900913 0 0 1 -2.16413,13.9006 2.1788545,13.900913 0 0 1 -2.193378,-13.7127 2.1788545,13.900913 0 0 1 2.134478,-14.08595 2.1788545,13.900913 0 0 1 2.22224,13.52229"
         style="fill:#000000;fill-opacity:1;stroke:#ffffff;stroke-width:1;stroke-linecap:round;stroke-miterlimit:4;stroke-dasharray:none;stroke-opacity:1"
         id="path8790"
         sodipodi:type="arc"
         sodipodi:cx="100.55968"
         sodipodi:cy="121.07082"
         sodipodi:rx="2.1788545"
         sodipodi:ry="13.900913"
         sodipodi:start="0"
         sodipodi:end="6.2561502"
         sodipodi:open="true"
         sodipodi:arc-type="arc"
         transform="rotate(-13.54834)" />
      <path
         d="m 100.78136,120.57545 a 2.1788545,8.8321667 0 0 1 -2.164125,8.83196 2.1788545,8.8321667 0 0 1 -2.193382,-8.71258 2.1788545,8.8321667 0 0 1 2.134479,-8.94973 2.1788545,8.8321667 0 0 1 2.222238,8.5916"
         style="fill:#000000;fill-opacity:1;stroke:#ffffff;stroke-width:1;stroke-linecap:round;stroke-miterlimit:4;stroke-dasharray:none;stroke-opacity:1"
         id="path8808"
         sodipodi:type="arc"
         sodipodi:cx="98.602509"
         sodipodi:cy="120.57545"
         sodipodi:rx="2.1788545"
         sodipodi:ry="8.8321667"
         sodipodi:start="0"
         sodipodi:end="6.2561502"
         sodipodi:open="true"
         sodipodi:arc-type="arc"
         transform="rotate(-13.54834)" />
      <rect
         style="fill:#000000;fill-opacity:1;stroke:#000000;stroke-width:3;stroke-linecap:round;stroke-miterlimit:4;stroke-dasharray:none;stroke-opacity:1"
         id="rect8750"
         width="41.282005"
         height="38.601353"
         x="62.730446"
         y="97.404938"
         transform="rotate(-10.164679)"
         ry="18.7139" />
      <path
         style="fill:none;stroke:#ffffff;stroke-width:1.5;stroke-linecap:butt;stroke-linejoin:miter;stroke-miterlimit:4;stroke-dasharray:none;stroke-opacity:1"
         d="m 149.00532,91.221916 -45.87864,8.680532"
         id="path8840"
         inkscape:connector-curvature="0"
         sodipodi:nodetypes="cc" />
      <path
         inkscape:connector-curvature="0"
         id="path8842"
         d="M 147.40587,86.349062 101.82251,96.986844"
         style="fill:none;stroke:#ffffff;stroke-width:1.5;stroke-linecap:butt;stroke-linejoin:miter;stroke-miterlimit:4;stroke-dasharray:none;stroke-opacity:1"
         sodipodi:nodetypes="cc" />
      <path
         inkscape:connector-curvature="0"
         style="color:#000000;font-style:normal;font-variant:normal;font-weight:normal;font-stretch:normal;font-size:medium;line-height:normal;font-family:sans-serif;font-variant-ligatures:normal;font-variant-position:normal;font-variant-caps:normal;font-variant-numeric:normal;font-variant-alternates:normal;font-variant-east-asian:normal;font-feature-settings:normal;font-variation-settings:normal;text-indent:0;text-align:start;text-decoration:none;text-decoration-line:none;text-decoration-style:solid;text-decoration-color:#000000;letter-spacing:normal;word-spacing:normal;text-transform:none;writing-mode:lr-tb;direction:ltr;text-orientation:mixed;dominant-baseline:auto;baseline-shift:baseline;text-anchor:start;white-space:normal;shape-padding:0;shape-margin:0;inline-size:0;clip-rule:nonzero;display:inline;overflow:visible;visibility:visible;isolation:auto;mix-blend-mode:screen;color-interpolation:sRGB;color-interpolation-filters:linearRGB;solid-color:#000000;solid-opacity:1;vector-effect:none;fill:#ffffff;fill-opacity:1;fill-rule:nonzero;stroke:#000000;stroke-width:0.5;stroke-linecap:butt;stroke-linejoin:miter;stroke-miterlimit:4;stroke-dasharray:none;stroke-dashoffset:0;stroke-opacity:1;color-rendering:auto;image-rendering:auto;shape-rendering:auto;text-rendering:auto;enable-background:accumulate;stop-color:#000000"
         d="m 168.96094,96.429688 -26.42383,15.601562 -40.21289,12.93164 0.45898,1.42773 40.37305,-12.98242 26.56641,-15.687497 z"
         id="path8876" />
      <path
         d="m -63.361184,-148.20636 a 2.5564492,1.544552 0 0 1 -2.539171,1.54452 2.5564492,1.544552 0 0 1 -2.573494,-1.52364 2.5564492,1.544552 0 0 1 2.504384,-1.56511 2.5564492,1.544552 0 0 1 2.607347,1.50248"
         style="fill:#ffffff;fill-opacity:1;stroke:#000000;stroke-width:1.5;stroke-linecap:round;stroke-linejoin:bevel;stroke-miterlimit:4;stroke-dasharray:none;stroke-opacity:1"
         id="path8866"
         sodipodi:type="arc"
         sodipodi:cx="-65.917633"
         sodipodi:cy="-148.20636"
         sodipodi:rx="2.5564492"
         sodipodi:ry="1.544552"
         sodipodi:start="0"
         sodipodi:end="6.2561502"
         sodipodi:open="true"
         sodipodi:arc-type="arc"
         transform="rotate(165.20374)" />
      <g
         id="g8888"
         transform="matrix(0.97577953,-0.21475919,-0.296632,0.71795357,40.4457,60.599625)">
        <path
           sodipodi:nodetypes="ccccc"
           inkscape:connector-curvature="0"
           id="path8884"
           d="m 141.70501,110.88719 c 1.19223,2.5226 2.59234,5.40446 2.49105,7.80255 2.60466,-1.00443 5.72569,0.88034 9.29522,1.14504 -3.18296,-2.51023 -4.74104,-9.35187 -4.39872,-12.76717 -2.54012,1.95608 -4.45436,3.13512 -7.38755,3.81958 z"
           style="fill:#000000;fill-opacity:1;stroke:#00000f;stroke-width:1.78287;stroke-linecap:butt;stroke-linejoin:bevel;stroke-miterlimit:4;stroke-dasharray:none;stroke-opacity:1" />
        <path
           style="fill:#000000;fill-opacity:1;stroke:#ffffff;stroke-width:1.5;stroke-linecap:butt;stroke-linejoin:bevel;stroke-miterlimit:4;stroke-dasharray:none;stroke-opacity:1"
           d="m 142.68377,111.69811 c 0.96408,2.20704 1.84108,4.06714 1.75916,6.16525 2.10621,-0.87879 4.88795,1.04339 7.77439,1.27497 -2.57384,-2.19622 -3.76937,-8.11021 -3.49256,-11.09828 -2.054,1.71138 -3.66912,3.05922 -6.04099,3.65806 z"
           id="path8882"
           inkscape:connector-curvature="0"
           sodipodi:nodetypes="ccccc" />
      </g>
      <path
         d="M 82.682149,116.47409 A 14.232686,27.707293 0 0 1 68.545658,144.18075 14.232686,27.707293 0 0 1 54.218077,116.84861 14.232686,27.707293 0 0 1 68.160896,88.772493 14.232686,27.707293 0 0 1 82.676948,115.72511"
         style="fill:#ffffff;fill-opacity:1;stroke:#000000;stroke-width:3.00049;stroke-linecap:round;stroke-miterlimit:4;stroke-dasharray:none;stroke-opacity:1"
         id="path8748"
         sodipodi:type="arc"
         sodipodi:cx="68.449463"
         sodipodi:cy="116.47409"
         sodipodi:rx="14.232686"
         sodipodi:ry="27.707293"
         sodipodi:start="0"
         sodipodi:end="6.2561502"
         sodipodi:open="true"
         sodipodi:arc-type="arc"
         transform="matrix(0.98583225,-0.16773422,0.19286929,0.98122446,0,0)" />
      <path
         d="M 78.322743,116.80746 A 14.232686,27.707293 0 0 1 64.186252,144.51412 14.232686,27.707293 0 0 1 49.858672,117.18198 14.232686,27.707293 0 0 1 63.801491,89.10586 14.232686,27.707293 0 0 1 78.317542,116.05848"
         transform="matrix(0.98583225,-0.16773422,0.19286929,0.98122446,0,0)"
         sodipodi:arc-type="arc"
         sodipodi:open="true"
         sodipodi:end="6.2561502"
         sodipodi:start="0"
         sodipodi:ry="27.707293"
         sodipodi:rx="14.232686"
         sodipodi:cy="116.80746"
         sodipodi:cx="64.090057"
         sodipodi:type="arc"
         id="path8746"
         style="fill:#ffffff;fill-opacity:1;stroke:#000000;stroke-width:3.00049;stroke-linecap:round;stroke-miterlimit:4;stroke-dasharray:none;stroke-opacity:1" />
      <path
         d="m 70.623418,117.81763 a 10.157754,20.87818 0 0 1 -10.089101,20.8777 10.157754,20.87818 0 0 1 -10.225479,-20.59549 10.157754,20.87818 0 0 1 9.950878,-21.156101 10.157754,20.87818 0 0 1 10.35999,20.309511"
         style="fill:#ffffff;fill-opacity:1;stroke:#000000;stroke-width:2.78007;stroke-linecap:round;stroke-miterlimit:4;stroke-dasharray:none;stroke-opacity:1"
         id="path8744"
         sodipodi:type="arc"
         sodipodi:cx="60.465664"
         sodipodi:cy="117.81763"
         sodipodi:rx="10.157754"
         sodipodi:ry="20.87818"
         sodipodi:start="0"
         sodipodi:end="6.2561502"
         sodipodi:open="true"
         sodipodi:arc-type="arc"
         transform="matrix(0.98412826,-0.17745866,0.18235766,0.98323226,0,0)" />
      <path
         style="fill:none;stroke:#ffffff;stroke-width:1.5;stroke-linecap:butt;stroke-linejoin:miter;stroke-miterlimit:4;stroke-dasharray:none;stroke-opacity:1"
         d="M 153.55342,83.113741 166.30346,73.31272"
         id="path8844"
         inkscape:connector-curvature="0"
         sodipodi:nodetypes="cc" />
      <path
         style="fill:none;stroke:#ffffff;stroke-width:1.5;stroke-linecap:butt;stroke-linejoin:miter;stroke-miterlimit:4;stroke-dasharray:none;stroke-opacity:1"
         d="m 155.23149,90.283086 13.99984,4.768451"
         id="path8846"
         inkscape:connector-curvature="0"
         sodipodi:nodetypes="cc" />
      <path
         style="fill:none;stroke:#ffffff;stroke-width:1.5;stroke-linecap:butt;stroke-linejoin:bevel;stroke-miterlimit:4;stroke-dasharray:none;stroke-opacity:1"
         d="m 147.30264,85.524496 c 0.96408,2.207047 1.61599,4.381579 1.53407,6.47968 2.10621,-0.878786 4.57924,-0.832285 7.46568,-0.600701 -2.57384,-2.19622 -3.23557,-6.548966 -2.95876,-9.537033 -2.054,1.711382 -3.66912,3.059216 -6.04099,3.658054 z"
         id="path8848"
         inkscape:connector-curvature="0"
         sodipodi:nodetypes="ccccc" />
      <path
         style="mix-blend-mode:normal;fill:none;stroke:#000000;stroke-width:1.5;stroke-linecap:butt;stroke-linejoin:miter;stroke-miterlimit:4;stroke-dasharray:none;stroke-opacity:1"
         d="m 94.278451,75.615167 41.234339,-6.548564 21.55099,-5.991791"
         id="path8854"
         inkscape:connector-curvature="0"
         sodipodi:nodetypes="ccc" />
      <path
         sodipodi:nodetypes="ccc"
         inkscape:connector-curvature="0"
         id="path8856"
         d="m 94.278451,75.615167 39.298029,-4.223734 23.9887,-8.233053"
         style="mix-blend-mode:screen;fill:none;stroke:#000000;stroke-width:1.5;stroke-linecap:butt;stroke-linejoin:miter;stroke-miterlimit:4;stroke-dasharray:none;stroke-opacity:1" />
    </g>
  </g>
</svg>
