<?xml version="1.0" encoding="UTF-8" standalone="no"?>
<svg
   xmlns:dc="http://purl.org/dc/elements/1.1/"
   xmlns:cc="http://creativecommons.org/ns#"
   xmlns:rdf="http://www.w3.org/1999/02/22-rdf-syntax-ns#"
   xmlns:svg="http://www.w3.org/2000/svg"
   xmlns="http://www.w3.org/2000/svg"
   xmlns:sodipodi="http://sodipodi.sourceforge.net/DTD/sodipodi-0.dtd"
   xmlns:inkscape="http://www.inkscape.org/namespaces/inkscape"
   sodipodi:docname="Kazoo.svg"
   inkscape:version="1.0rc1 (09960d6, 2020-04-09)"
   id="svg16170"
   version="1.1"
   viewBox="0 0 113.43127 23.869726"
   height="23.869726mm"
   width="113.43127mm">
  <defs
     id="defs16164" />
  <sodipodi:namedview
     inkscape:window-maximized="0"
     inkscape:window-y="126"
     inkscape:window-x="127"
     inkscape:window-height="755"
     inkscape:window-width="1248"
     fit-margin-bottom="0"
     fit-margin-right="0"
     fit-margin-left="0"
     fit-margin-top="0"
     guidetolerance="12.4"
     objecttolerance="11.8"
     showgrid="false"
     inkscape:document-rotation="0"
     inkscape:current-layer="layer1"
     inkscape:document-units="mm"
     inkscape:cy="71.366794"
     inkscape:cx="-37.958415"
     inkscape:zoom="0.35809496"
     inkscape:pageshadow="2"
     inkscape:pageopacity="0.0"
     borderopacity="1.0"
     bordercolor="#666666"
     pagecolor="#ffffff"
     id="base" />
  <metadata
     id="metadata16167">
    <rdf:RDF>
      <cc:Work
         rdf:about="">
        <dc:format>image/svg+xml</dc:format>
        <dc:type
           rdf:resource="http://purl.org/dc/dcmitype/StillImage" />
        <dc:title></dc:title>
      </cc:Work>
    </rdf:RDF>
  </metadata>
  <g
     transform="translate(-37.381647,-112.29022)"
     id="layer1"
     inkscape:groupmode="layer"
     inkscape:label="Ebene 1">
    <g
       id="g16892">
      <path
         id="rect16733"
         style="fill:#ffffff;fill-opacity:1;stroke:#000000;stroke-width:2;stroke-linecap:round;stroke-linejoin:round;stroke-miterlimit:4;stroke-dasharray:none;stroke-opacity:1"
         d="m 52.725007,118.49707 46.695927,-0.95491 c 1.180206,0.0781 0.566291,1.00586 -1.004475,2.34022 l -5.479483,4.65484 c -1.570796,1.33437 -4.546576,2.34597 -6.607596,2.34597 H 40.85322 c -2.06102,0 -2.552134,-1.20928 -0.832904,-2.34597 l 5.6061,-3.70653 c 1.719229,-1.13669 5.038011,-2.29148 7.098591,-2.33362 z"
         inkscape:connector-curvature="0"
         sodipodi:nodetypes="scsssssss" />
      <path
         style="fill:#000000;fill-opacity:1;stroke:#000000;stroke-width:2;stroke-linecap:butt;stroke-linejoin:bevel;stroke-miterlimit:4;stroke-dasharray:none;stroke-opacity:1"
         d="m 38.500098,126.09819 6e-6,8.06584 2.32221,0.332 50.59446,0.664 v -9.9947 z"
         id="path16744"
         inkscape:connector-curvature="0"
         sodipodi:nodetypes="cccccc" />
      <path
         style="fill:#000000;fill-opacity:1;stroke:#000000;stroke-width:2;stroke-linecap:butt;stroke-linejoin:bevel;stroke-miterlimit:4;stroke-dasharray:none;stroke-opacity:1"
         d="m 91.416774,125.16533 v 9.9947 l 51.441376,-4.4161 5.47384,-0.89735 -0.0897,-3.94834 z"
         id="path16746"
         inkscape:connector-curvature="0" />
      <path
         style="fill:#ffffff;fill-opacity:1;stroke:#000000;stroke-width:2;stroke-linecap:butt;stroke-linejoin:bevel;stroke-miterlimit:4;stroke-dasharray:none;stroke-opacity:1"
         d="m 91.416774,125.16533 9.184356,-7.54509 46.83351,4.50912 2.51258,1.07682 -1.70493,2.69206 z"
         id="path16748"
         inkscape:connector-curvature="0"
         sodipodi:nodetypes="cccccc" />
      <path
         style="fill:#ffffff;fill-opacity:1;stroke:#000000;stroke-width:1.5;stroke-linecap:butt;stroke-linejoin:bevel;stroke-miterlimit:4;stroke-dasharray:none;stroke-opacity:1"
         d="m 147.89413,125.86923 2.05309,-2.66305 0.11605,3.81881 -2.02141,3.43086 z"
         id="path16750"
         inkscape:connector-curvature="0"
         sodipodi:nodetypes="ccccc" />
      <path
         d="m 76.054335,123.1265 a 6.2135906,2.1111476 0 0 1 -6.125616,2.11094 6.2135906,2.1111476 0 0 1 -6.299074,-2.05116 6.2135906,2.1111476 0 0 1 5.947244,-2.16902 6.2135906,2.1111476 0 0 1 6.467483,1.98974"
         style="fill:#ffffff;fill-opacity:1;stroke:#000000;stroke-width:1.60056;stroke-linecap:round;stroke-linejoin:bevel;stroke-miterlimit:4;stroke-dasharray:none;stroke-opacity:1"
         id="path16753"
         sodipodi:type="arc"
         sodipodi:cx="69.840744"
         sodipodi:cy="123.1265"
         sodipodi:rx="6.2135906"
         sodipodi:ry="2.1111476"
         sodipodi:start="0"
         sodipodi:end="6.2265494"
         sodipodi:open="true"
         sodipodi:arc-type="arc"
         transform="matrix(0.99930277,-0.03733586,0,1,0,0)" />
      <path
         d="m 76.054335,120.48067 a 6.2135906,2.1111476 0 0 1 -6.125616,2.11093 6.2135906,2.1111476 0 0 1 -6.299074,-2.05116 6.2135906,2.1111476 0 0 1 5.947244,-2.16902 6.2135906,2.1111476 0 0 1 6.467483,1.98974"
         transform="matrix(0.99930277,-0.03733586,0,1,0,0)"
         sodipodi:arc-type="arc"
         sodipodi:open="true"
         sodipodi:end="6.2265494"
         sodipodi:start="0"
         sodipodi:ry="2.1111476"
         sodipodi:rx="6.2135906"
         sodipodi:cy="120.48067"
         sodipodi:cx="69.840744"
         sodipodi:type="arc"
         id="path16755"
         style="fill:#ffffff;fill-opacity:1;stroke:#000000;stroke-width:1.60056;stroke-linecap:round;stroke-linejoin:bevel;stroke-miterlimit:4;stroke-dasharray:none;stroke-opacity:1" />
      <path
         d="m 78.443239,117.83485 a 8.6024952,2.1111476 0 0 1 -8.480697,2.11093 8.6024952,2.1111476 0 0 1 -8.720844,-2.05116 8.6024952,2.1111476 0 0 1 8.233748,-2.16902 8.6024952,2.1111476 0 0 1 8.954,1.98974"
         style="fill:#ffffff;fill-opacity:1;stroke:#000000;stroke-width:1.60056;stroke-linecap:round;stroke-linejoin:bevel;stroke-miterlimit:4;stroke-dasharray:none;stroke-opacity:1"
         id="path16757"
         sodipodi:type="arc"
         sodipodi:cx="69.840744"
         sodipodi:cy="117.83485"
         sodipodi:rx="8.6024952"
         sodipodi:ry="2.1111476"
         sodipodi:start="0"
         sodipodi:end="6.2265494"
         sodipodi:open="true"
         sodipodi:arc-type="arc"
         transform="matrix(0.99930277,-0.03733586,0,1,0,0)" />
      <path
         style="fill:none;stroke:#000000;stroke-width:1.2;stroke-linecap:round;stroke-linejoin:round;stroke-miterlimit:4;stroke-dasharray:none;stroke-opacity:1"
         d="m 62.702124,115.88914 c 4.757554,-1.57064 9.515108,-1.51592 14.272662,-0.48795"
         id="path16759"
         inkscape:connector-curvature="0"
         sodipodi:nodetypes="cc" />
    </g>
  </g>
</svg>
