<?xml version="1.0" encoding="UTF-8" standalone="no"?>
<svg
   xmlns:dc="http://purl.org/dc/elements/1.1/"
   xmlns:cc="http://creativecommons.org/ns#"
   xmlns:rdf="http://www.w3.org/1999/02/22-rdf-syntax-ns#"
   xmlns:svg="http://www.w3.org/2000/svg"
   xmlns="http://www.w3.org/2000/svg"
   xmlns:sodipodi="http://sodipodi.sourceforge.net/DTD/sodipodi-0.dtd"
   xmlns:inkscape="http://www.inkscape.org/namespaces/inkscape"
   sodipodi:docname="Rahmentrommel.svg"
   inkscape:version="1.0rc1 (09960d6, 2020-04-09)"
   id="svg15230"
   version="1.1"
   viewBox="0 0 72.01503 39.414524"
   height="39.414524mm"
   width="72.01503mm">
  <defs
     id="defs15224" />
  <sodipodi:namedview
     inkscape:window-maximized="0"
     inkscape:window-y="32"
     inkscape:window-x="15"
     inkscape:window-height="755"
     inkscape:window-width="1248"
     fit-margin-bottom="0"
     fit-margin-right="0"
     fit-margin-left="0"
     fit-margin-top="0"
     guidetolerance="1"
     objecttolerance="1"
     showgrid="false"
     inkscape:document-rotation="0"
     inkscape:current-layer="layer1"
     inkscape:document-units="mm"
     inkscape:cy="-200.37972"
     inkscape:cx="470.68175"
     inkscape:zoom="0.39072153"
     inkscape:pageshadow="2"
     inkscape:pageopacity="0.0"
     borderopacity="1.0"
     bordercolor="#666666"
     pagecolor="#ffffff"
     id="base" />
  <metadata
     id="metadata15227">
    <rdf:RDF>
      <cc:Work
         rdf:about="">
        <dc:format>image/svg+xml</dc:format>
        <dc:type
           rdf:resource="http://purl.org/dc/dcmitype/StillImage" />
        <dc:title></dc:title>
      </cc:Work>
    </rdf:RDF>
  </metadata>
  <g
     transform="translate(-63.43312,-121.56403)"
     id="layer1"
     inkscape:groupmode="layer"
     inkscape:label="Ebene 1">
    <g
       id="g15823">
      <path
         style="fill:#ffffff;stroke:#000000;stroke-width:1;stroke-linecap:round;stroke-linejoin:round;stroke-opacity:1"
         id="path15793"
         sodipodi:type="arc"
         sodipodi:cx="99.535583"
         sodipodi:cy="131.69008"
         sodipodi:rx="33.997749"
         sodipodi:ry="9.6258688"
         sodipodi:start="0"
         sodipodi:end="6.2265494"
         sodipodi:open="true"
         sodipodi:arc-type="arc"
         d="m 133.53333,131.69008 a 33.997749,9.6258688 0 0 1 -33.51639,9.6249 33.997749,9.6258688 0 0 1 -34.465475,-9.35235 33.997749,9.6258688 0 0 1 32.540433,-9.88974 33.997749,9.6258688 0 0 1 35.386922,9.07231" />
      <path
         d="m 133.53333,150.85266 a 33.997749,9.6258688 0 0 1 -33.51639,9.62491 33.997749,9.6258688 0 0 1 -34.465475,-9.35236 33.997749,9.6258688 0 0 1 32.540433,-9.88974 33.997749,9.6258688 0 0 1 35.386922,9.07231"
         sodipodi:arc-type="arc"
         sodipodi:open="true"
         sodipodi:end="6.2265494"
         sodipodi:start="0"
         sodipodi:ry="9.6258688"
         sodipodi:rx="33.997749"
         sodipodi:cy="150.85266"
         sodipodi:cx="99.535583"
         sodipodi:type="arc"
         id="path15795"
         style="fill:#ffffff;stroke:#000000;stroke-width:1;stroke-linecap:round;stroke-linejoin:round;stroke-opacity:1" />
      <path
         style="opacity:1;fill:#000000;fill-opacity:1;stroke:#000000;stroke-width:0.264583px;stroke-linecap:butt;stroke-linejoin:miter;stroke-opacity:1"
         d="m 133.78057,130.967 c -0.79754,14.44559 -68.440058,14.46219 -68.50057,3.9e-4 v 20 c 1.893652,12.76802 64.92093,13.2437 68.6,0 z"
         id="path15797"
         inkscape:connector-curvature="0"
         sodipodi:nodetypes="ccccc" />
      <path
         sodipodi:nodetypes="cccssssssssssccc"
         inkscape:connector-curvature="0"
         id="path15799"
         d="m 133.5229,131.29829 c -0.79754,14.44559 -67.851098,13.98366 -67.91161,-0.47814 -0.521295,3.01087 0.853835,7.97597 -1.678173,10.39852 0.283561,1.91192 3.438092,2.15073 5.905419,3.68541 1.266394,0.7877 2.697966,1.17393 4.263264,0.69828 2.413312,-0.73333 5.069842,1.77451 8.074765,1.51394 3.206385,-0.27804 6.755021,1.79559 10.252805,1.05248 3.898103,-0.82817 8.1291,0.42031 11.85802,0.0496 1.20746,-0.12005 2.51584,-0.94537 3.6843,-1.05728 1.60816,-0.15401 3.41105,1.00985 4.92504,0.87466 1.6363,-0.14611 3.20705,-1.61744 4.70138,-1.81268 1.36367,-0.17817 3.3746,0.48087 4.60276,0.305 1.98078,-0.28364 3.71427,-1.59993 5.20103,-2.06826 3.61633,-1.13915 6.84111,-1.57423 7.54626,-4.11259 -1.17997,-0.76745 -1.07816,-5.72266 -1.53566,-9.38021 z"
         style="opacity:1;fill:#ffffff;fill-opacity:1;stroke:#000000;stroke-width:1;stroke-linecap:butt;stroke-linejoin:round;stroke-miterlimit:4;stroke-dasharray:none;stroke-opacity:1" />
      <path
         style="opacity:1;fill:#000000;fill-opacity:1;stroke:none;stroke-width:1;stroke-linecap:round;stroke-linejoin:round;stroke-miterlimit:4;stroke-dasharray:none;stroke-opacity:1"
         id="path15801"
         sodipodi:type="arc"
         sodipodi:cx="68.65416"
         sodipodi:cy="141.12773"
         sodipodi:rx="0.97442418"
         sodipodi:ry="1.0239713"
         sodipodi:start="0"
         sodipodi:end="6.2265494"
         sodipodi:open="true"
         sodipodi:arc-type="arc"
         d="m 69.628584,141.12773 a 0.97442418,1.0239713 0 0 1 -0.960628,1.02387 0.97442418,1.0239713 0 0 1 -0.98783,-0.99488 0.97442418,1.0239713 0 0 1 0.932655,-1.05204 0.97442418,1.0239713 0 0 1 1.01424,0.96509" />
      <path
         d="m 81.123861,144.57269 a 0.97442418,1.0239713 0 0 1 -0.960628,1.02387 0.97442418,1.0239713 0 0 1 -0.98783,-0.99487 0.97442418,1.0239713 0 0 1 0.932656,-1.05204 0.97442418,1.0239713 0 0 1 1.01424,0.96508"
         sodipodi:arc-type="arc"
         sodipodi:open="true"
         sodipodi:end="6.2265494"
         sodipodi:start="0"
         sodipodi:ry="1.0239713"
         sodipodi:rx="0.97442418"
         sodipodi:cy="144.57269"
         sodipodi:cx="80.149437"
         sodipodi:type="arc"
         id="path15803"
         style="opacity:1;fill:#000000;fill-opacity:1;stroke:none;stroke-width:1;stroke-linecap:round;stroke-linejoin:round;stroke-miterlimit:4;stroke-dasharray:none;stroke-opacity:1" />
      <path
         style="opacity:1;fill:#000000;fill-opacity:1;stroke:none;stroke-width:1;stroke-linecap:round;stroke-linejoin:round;stroke-miterlimit:4;stroke-dasharray:none;stroke-opacity:1"
         id="path15805"
         sodipodi:type="arc"
         sodipodi:cx="91.933388"
         sodipodi:cy="145.83978"
         sodipodi:rx="0.97442418"
         sodipodi:ry="1.0239713"
         sodipodi:start="0"
         sodipodi:end="6.2265494"
         sodipodi:open="true"
         sodipodi:arc-type="arc"
         d="m 92.907812,145.83978 a 0.97442418,1.0239713 0 0 1 -0.960628,1.02387 0.97442418,1.0239713 0 0 1 -0.98783,-0.99487 0.97442418,1.0239713 0 0 1 0.932656,-1.05204 0.97442418,1.0239713 0 0 1 1.01424,0.96508" />
      <path
         d="m 105.83215,145.83978 a 0.97442418,1.0239713 0 0 1 -0.96063,1.02387 0.97442418,1.0239713 0 0 1 -0.98783,-0.99487 0.97442418,1.0239713 0 0 1 0.93266,-1.05204 0.97442418,1.0239713 0 0 1 1.01424,0.96508"
         sodipodi:arc-type="arc"
         sodipodi:open="true"
         sodipodi:end="6.2265494"
         sodipodi:start="0"
         sodipodi:ry="1.0239713"
         sodipodi:rx="0.97442418"
         sodipodi:cy="145.83978"
         sodipodi:cx="104.85773"
         sodipodi:type="arc"
         id="path15807"
         style="opacity:1;fill:#000000;fill-opacity:1;stroke:none;stroke-width:1;stroke-linecap:round;stroke-linejoin:round;stroke-miterlimit:4;stroke-dasharray:none;stroke-opacity:1" />
      <path
         style="opacity:1;fill:#000000;fill-opacity:1;stroke:none;stroke-width:1;stroke-linecap:round;stroke-linejoin:round;stroke-miterlimit:4;stroke-dasharray:none;stroke-opacity:1"
         id="path15809"
         sodipodi:type="arc"
         sodipodi:cx="116.64168"
         sodipodi:cy="144.44598"
         sodipodi:rx="0.97442418"
         sodipodi:ry="1.0239713"
         sodipodi:start="0"
         sodipodi:end="6.2265494"
         sodipodi:open="true"
         sodipodi:arc-type="arc"
         d="m 117.6161,144.44598 a 0.97442418,1.0239713 0 0 1 -0.96063,1.02387 0.97442418,1.0239713 0 0 1 -0.98783,-0.99487 0.97442418,1.0239713 0 0 1 0.93266,-1.05204 0.97442418,1.0239713 0 0 1 1.01424,0.96508" />
      <path
         d="m 129.01993,141.40497 a 0.97442418,1.0239713 0 0 1 -0.96063,1.02387 0.97442418,1.0239713 0 0 1 -0.98783,-0.99488 0.97442418,1.0239713 0 0 1 0.93265,-1.05204 0.97442418,1.0239713 0 0 1 1.01424,0.96509"
         sodipodi:arc-type="arc"
         sodipodi:open="true"
         sodipodi:end="6.2265494"
         sodipodi:start="0"
         sodipodi:ry="1.0239713"
         sodipodi:rx="0.97442418"
         sodipodi:cy="141.40497"
         sodipodi:cx="128.0455"
         sodipodi:type="arc"
         id="path15811"
         style="opacity:1;fill:#000000;fill-opacity:1;stroke:none;stroke-width:1;stroke-linecap:round;stroke-linejoin:round;stroke-miterlimit:4;stroke-dasharray:none;stroke-opacity:1" />
    </g>
  </g>
</svg>
