<?xml version="1.0" encoding="UTF-8" standalone="no"?>
<svg
   xmlns:dc="http://purl.org/dc/elements/1.1/"
   xmlns:cc="http://creativecommons.org/ns#"
   xmlns:rdf="http://www.w3.org/1999/02/22-rdf-syntax-ns#"
   xmlns:svg="http://www.w3.org/2000/svg"
   xmlns="http://www.w3.org/2000/svg"
   xmlns:sodipodi="http://sodipodi.sourceforge.net/DTD/sodipodi-0.dtd"
   xmlns:inkscape="http://www.inkscape.org/namespaces/inkscape"
   inkscape:version="1.0beta2 (2b71d25, 2019-12-03)"
   sodipodi:docname="Lithophon2.svg"
   id="svg8"
   version="1.1"
   viewBox="0 0 150 135.5"
   height="135.5mm"
   width="150mm">
  <defs
     id="defs2">
    <inkscape:perspective
       sodipodi:type="inkscape:persp3d"
       inkscape:vp_x="29.082306 : 72.186118 : 1"
       inkscape:vp_y="0 : 916.91456 : 0"
       inkscape:vp_z="88.66844 : 72.186118 : 1"
       inkscape:persp3d-origin="58.875373 : 51.479128 : 1"
       id="perspective5842" />
    <filter
       inkscape:label="Torn Edges"
       inkscape:menu="Distort"
       inkscape:menu-tooltip="Displace the outside of shapes and pictures without altering their content"
       height="1.4"
       y="-0.2"
       width="1.4"
       x="-0.2"
       style="color-interpolation-filters:sRGB;"
       id="filter4956">
      <feTurbulence
         baseFrequency="0.05"
         numOctaves="5"
         type="fractalNoise"
         result="result91"
         id="feTurbulence4950" />
      <feDisplacementMap
         scale="25"
         result="result5"
         xChannelSelector="R"
         in="SourceGraphic"
         in2="result91"
         id="feDisplacementMap4952" />
      <feComposite
         in="SourceGraphic"
         operator="atop"
         in2="result5"
         id="feComposite4954" />
    </filter>
    <filter
       inkscape:label="Torn Edges"
       inkscape:menu="Distort"
       inkscape:menu-tooltip="Displace the outside of shapes and pictures without altering their content"
       height="1.4"
       y="-0.2"
       width="1.4"
       x="-0.2"
       style="color-interpolation-filters:sRGB;"
       id="filter5794">
      <feTurbulence
         baseFrequency="0.05"
         numOctaves="5"
         type="fractalNoise"
         result="result91"
         id="feTurbulence5788" />
      <feDisplacementMap
         scale="25"
         result="result5"
         xChannelSelector="R"
         in="SourceGraphic"
         in2="result91"
         id="feDisplacementMap5790" />
      <feComposite
         in="SourceGraphic"
         operator="atop"
         in2="result5"
         id="feComposite5792" />
    </filter>
    <filter
       inkscape:label="Torn Edges"
       inkscape:menu="Distort"
       inkscape:menu-tooltip="Displace the outside of shapes and pictures without altering their content"
       height="1.4"
       y="-0.2"
       width="1.4"
       x="-0.2"
       style="color-interpolation-filters:sRGB;"
       id="filter5802">
      <feTurbulence
         baseFrequency="0.05"
         numOctaves="5"
         type="fractalNoise"
         result="result91"
         id="feTurbulence5796" />
      <feDisplacementMap
         scale="25"
         result="result5"
         xChannelSelector="R"
         in="SourceGraphic"
         in2="result91"
         id="feDisplacementMap5798" />
      <feComposite
         in="SourceGraphic"
         operator="atop"
         in2="result5"
         id="feComposite5800" />
    </filter>
    <filter
       inkscape:label="Lightness-Contrast"
       inkscape:menu="Textures"
       inkscape:menu-tooltip="Crumpled glossy paper effect which can be used for pictures as for objects"
       style="color-interpolation-filters:sRGB;"
       id="filter5952">
      <feTurbulence
         type="fractalNoise"
         numOctaves="7"
         baseFrequency="0.02"
         seed="55"
         result="result0"
         id="feTurbulence5934" />
      <feDiffuseLighting
         surfaceScale="4"
         diffuseConstant="1"
         kernelUnitLength="1"
         result="result1"
         in="result0"
         id="feDiffuseLighting5938">
        <feDistantLight
           azimuth="235"
           elevation="60"
           id="feDistantLight5936" />
      </feDiffuseLighting>
      <feSpecularLighting
         in="result0"
         surfaceScale="3"
         specularConstant="1"
         specularExponent="25"
         kernelUnitLength="1"
         result="result3"
         id="feSpecularLighting5942">
        <feDistantLight
           azimuth="235"
           elevation="55"
           id="feDistantLight5940" />
      </feSpecularLighting>
      <feComposite
         in="result1"
         in2="SourceGraphic"
         operator="arithmetic"
         k1="1"
         result="result2"
         id="feComposite5944" />
      <feComposite
         in="result2"
         in2="result3"
         operator="arithmetic"
         k2="1"
         k3="1"
         result="result4"
         id="feComposite5946" />
      <feComposite
         in2="SourceAlpha"
         operator="in"
         in="result4"
         result="fbSourceGraphic"
         id="feComposite5948" />
      <feDisplacementMap
         scale="7"
         yChannelSelector="G"
         xChannelSelector="R"
         in2="result0"
         id="feDisplacementMap5950"
         result="fbSourceGraphic" />
      <feColorMatrix
         result="fbSourceGraphicAlpha"
         in="fbSourceGraphic"
         values="0 0 0 -1 0 0 0 0 -1 0 0 0 0 -1 0 0 0 0 1 0"
         id="feColorMatrix6158" />
      <feColorMatrix
         id="feColorMatrix6160"
         type="luminanceToAlpha"
         result="colormatrix1"
         in="fbSourceGraphic" />
      <feFlood
         id="feFlood6162"
         flood-opacity="1"
         flood-color="rgb(255,255,255)"
         result="flood1" />
      <feComposite
         in2="colormatrix1"
         id="feComposite6164"
         operator="out"
         result="composite1" />
      <feFlood
         id="feFlood6166"
         flood-opacity="1"
         flood-color="rgb(0,0,0)"
         result="flood2" />
      <feComposite
         in2="colormatrix1"
         id="feComposite6168"
         result="composite2"
         operator="in" />
      <feComposite
         in2="composite1"
         id="feComposite6170"
         in="composite2"
         k2="1"
         k3="1"
         operator="arithmetic"
         result="composite3" />
      <feColorMatrix
         id="feColorMatrix6172"
         in="composite3"
         type="matrix"
         values="2 -1 0 0 0 0 2 -1 0 0 -1 0 2 0 0 0 0 0 1 0 "
         result="colormatrix2" />
      <feComposite
         in2="composite3"
         id="feComposite6174"
         in="colormatrix2"
         operator="arithmetic"
         k2="0"
         result="composite4" />
      <feBlend
         in2="composite3"
         id="feBlend6176"
         in="composite4"
         mode="normal"
         result="blend" />
      <feComposite
         in2="fbSourceGraphic"
         id="feComposite6178"
         operator="in"
         result="fbSourceGraphic" />
      <feColorMatrix
         result="fbSourceGraphicAlpha"
         in="fbSourceGraphic"
         values="0 0 0 -1 0 0 0 0 -1 0 0 0 0 -1 0 0 0 0 1 0"
         id="feColorMatrix6232" />
      <feColorMatrix
         id="feColorMatrix6234"
         values="11 0 0 0.650155 -5 0 11 0 0.650155 -5 0 0 11 0.650155 -5 0 0 0 1 0"
         in="fbSourceGraphic" />
    </filter>
  </defs>
  <sodipodi:namedview
     fit-margin-bottom="0"
     fit-margin-right="0"
     fit-margin-left="0"
     fit-margin-top="0"
     inkscape:window-maximized="0"
     inkscape:window-y="23"
     inkscape:window-x="0"
     inkscape:window-height="755"
     inkscape:window-width="1280"
     guidetolerance="1"
     objecttolerance="1"
     showgrid="false"
     inkscape:document-rotation="0"
     inkscape:current-layer="layer1"
     inkscape:document-units="mm"
     inkscape:cy="604.4159"
     inkscape:cx="-280.84606"
     inkscape:zoom="0.22819321"
     inkscape:pageshadow="2"
     inkscape:pageopacity="0.0"
     borderopacity="1.0"
     bordercolor="#666666"
     pagecolor="#ffffff"
     id="base"
     showguides="false" />
  <metadata
     id="metadata5">
    <rdf:RDF>
      <cc:Work
         rdf:about="">
        <dc:format>image/svg+xml</dc:format>
        <dc:type
           rdf:resource="http://purl.org/dc/dcmitype/StillImage" />
        <dc:title></dc:title>
      </cc:Work>
    </rdf:RDF>
  </metadata>
  <g
     transform="translate(-25,-25)"
     id="layer1"
     inkscape:groupmode="layer"
     inkscape:label="Ebene 1">
    <ellipse
       ry="2.3820705"
       rx="1.84732"
       cy="34.758781"
       cx="64.157196"
       id="path852"
       style="fill:#ffffff;fill-opacity:1;stroke:#000000;stroke-width:1.5;stroke-miterlimit:4;stroke-dasharray:none;stroke-opacity:1" />
    <ellipse
       style="fill:#ffffff;fill-opacity:1;stroke:#000000;stroke-width:1.5;stroke-miterlimit:4;stroke-dasharray:none;stroke-opacity:1"
       id="ellipse1661"
       cx="64.157196"
       cy="92.759071"
       rx="1.84732"
       ry="2.3820705" />
    <ellipse
       ry="2.3820705"
       rx="1.84732"
       cy="92.759071"
       cx="46.302681"
       id="ellipse1663"
       style="fill:#ffffff;fill-opacity:1;stroke:#000000;stroke-width:1.5;stroke-miterlimit:4;stroke-dasharray:none;stroke-opacity:1" />
    <ellipse
       ry="2.3820705"
       rx="1.84732"
       cy="92.759071"
       cx="99.866211"
       id="ellipse1665"
       style="fill:#ffffff;fill-opacity:1;stroke:#000000;stroke-width:1.5;stroke-miterlimit:4;stroke-dasharray:none;stroke-opacity:1" />
    <ellipse
       ry="2.3820705"
       rx="1.84732"
       cy="34.758781"
       cx="82.011703"
       id="ellipse883"
       style="fill:#ffffff;fill-opacity:1;stroke:#000000;stroke-width:1.5;stroke-miterlimit:4;stroke-dasharray:none;stroke-opacity:1" />
    <ellipse
       style="fill:#ffffff;fill-opacity:1;stroke:#000000;stroke-width:1.5;stroke-miterlimit:4;stroke-dasharray:none;stroke-opacity:1"
       id="ellipse1667"
       cx="82.011703"
       cy="92.759071"
       rx="1.84732"
       ry="2.3820705" />
    <ellipse
       style="fill:#ffffff;fill-opacity:1;stroke:#000000;stroke-width:1.5;stroke-miterlimit:4;stroke-dasharray:none;stroke-opacity:1"
       id="ellipse1669"
       cx="135.57524"
       cy="92.759071"
       rx="1.84732"
       ry="2.3820705" />
    <ellipse
       ry="2.3820705"
       rx="1.84732"
       cy="92.759071"
       cx="117.72073"
       id="ellipse1671"
       style="fill:#ffffff;fill-opacity:1;stroke:#000000;stroke-width:1.5;stroke-miterlimit:4;stroke-dasharray:none;stroke-opacity:1" />
    <ellipse
       style="fill:#ffffff;fill-opacity:1;stroke:#000000;stroke-width:1.5;stroke-miterlimit:4;stroke-dasharray:none;stroke-opacity:1"
       id="ellipse1673"
       cx="153.42975"
       cy="92.759071"
       rx="1.84732"
       ry="2.3820705" />
    <ellipse
       style="fill:#ffffff;fill-opacity:1;stroke:#000000;stroke-width:1.5;stroke-miterlimit:4;stroke-dasharray:none;stroke-opacity:1"
       id="ellipse854"
       cx="46.302681"
       cy="34.758781"
       rx="1.84732"
       ry="2.3820705" />
    <ellipse
       style="fill:#ffffff;fill-opacity:1;stroke:#000000;stroke-width:1.5;stroke-miterlimit:4;stroke-dasharray:none;stroke-opacity:1"
       id="ellipse881"
       cx="99.866211"
       cy="34.758781"
       rx="1.84732"
       ry="2.3820705" />
    <ellipse
       ry="2.3820705"
       rx="1.84732"
       cy="34.758781"
       cx="135.57524"
       id="ellipse900"
       style="fill:#ffffff;fill-opacity:1;stroke:#000000;stroke-width:1.5;stroke-miterlimit:4;stroke-dasharray:none;stroke-opacity:1" />
    <ellipse
       style="fill:#ffffff;fill-opacity:1;stroke:#000000;stroke-width:1.5;stroke-miterlimit:4;stroke-dasharray:none;stroke-opacity:1"
       id="ellipse902"
       cx="117.72073"
       cy="34.758781"
       rx="1.84732"
       ry="2.3820705" />
    <ellipse
       ry="2.3820705"
       rx="1.84732"
       cy="34.758781"
       cx="153.42975"
       id="ellipse920"
       style="fill:#ffffff;fill-opacity:1;stroke:#000000;stroke-width:1.5;stroke-miterlimit:4;stroke-dasharray:none;stroke-opacity:1" />
    <ellipse
       style="fill:#ffffff;fill-opacity:1;stroke:#000000;stroke-width:1.5;stroke-miterlimit:4;stroke-dasharray:none;stroke-opacity:1"
       id="ellipse1683"
       cx="82.011703"
       cy="34.758781"
       rx="1.84732"
       ry="2.3820705" />
    <path
       sodipodi:nodetypes="ccccc"
       inkscape:connector-curvature="0"
       d="m 25,25 h 150 l -2.5,10 H 27 Z"
       style="stroke-width:0.270622"
       id="rect10" />
    <rect
       id="rect16"
       width="5"
       height="130"
       x="30"
       y="30"
       style="stroke-width:0.336127" />
    <rect
       style="stroke-width:0.336127"
       y="30"
       x="165"
       height="130"
       width="5"
       id="rect18" />
    <rect
       transform="rotate(90)"
       style="stroke-width:0.348816"
       y="-170"
       x="92.5"
       height="140"
       width="5"
       id="rect21" />
    <path
       sodipodi:nodetypes="ccccc"
       inkscape:connector-curvature="0"
       d="m 170.5,155.5 1,5 h -143 l 1,-5 z"
       style="stroke-width:0.352534"
       id="rect1049" />
    <path
       style="fill:none;stroke:#000000;stroke-width:1;stroke-linecap:butt;stroke-linejoin:miter;stroke-miterlimit:4;stroke-dasharray:none;stroke-opacity:1"
       d="m 81.933267,35.51041 0.156872,56.473848"
       id="path1681"
       inkscape:connector-curvature="0"
       sodipodi:nodetypes="cc" />
    <path
       sodipodi:nodetypes="cc"
       inkscape:connector-curvature="0"
       id="path1685"
       d="m 81.933267,35.51041 0.156872,56.473848"
       style="fill:none;stroke:#000000;stroke-width:1;stroke-linecap:butt;stroke-linejoin:miter;stroke-miterlimit:4;stroke-dasharray:none;stroke-opacity:1" />
    <g
       id="g6280"
       transform="matrix(0.57306831,0,0,-0.5262541,177.76899,134.61745)">
      <path
         id="path6270"
         style="opacity:1;fill:#000000;fill-opacity:1;stroke:none;stroke-width:0.264583px;stroke-linecap:butt;stroke-linejoin:miter;stroke-opacity:1"
         d="m -170.64406,128.16967 c 1.3404,-1.20268 2.57187,-3.13376 4.6218,-2.92789 2.23356,-0.0487 3.48683,2.42594 3.41635,4.39707 -0.32124,2.11313 0.70534,4.1681 0.37999,6.28619 0.001,1.91597 0.57233,3.81496 0.24701,5.73239 -0.0949,2.06583 0.36857,4.10539 0.45715,6.1531 -0.16181,1.60488 0.10893,3.18763 0.46359,4.74467 0.13697,1.57123 -0.0551,3.07628 0.26869,4.62768 -0.10088,2.22794 0.0104,4.45564 0.13957,6.68014 0.27255,1.66788 0.88824,3.27402 0.9422,4.98364 0.0504,1.37959 0.23132,3.08205 -1.03893,4.00577 -1.63834,1.25697 -3.79229,1.39186 -5.73175,1.86135 -2.01595,0.30049 -4.06004,0.17304 -6.087,0.0901 -1.936,-0.81185 -0.63207,-3.20998 -0.78632,-4.75111 0.90256,-13.96103 1.80497,-27.92206 2.70765,-41.88308 z"
         inkscape:connector-curvature="0" />
      <path
         id="path6262"
         style="opacity:1;fill:#ffffff;fill-opacity:1;stroke:none;stroke-width:0.264583px;stroke-linecap:butt;stroke-linejoin:miter;stroke-opacity:1"
         d="m -174.24917,138.64774 c 0.24578,-2.28656 -0.0433,-4.79422 1.32355,-6.79507 0.87538,-1.80645 1.90678,-3.68698 3.67665,-4.7581 1.02032,-1.62291 3.87062,-1.12923 4.29777,0.73557 1.12613,2.65623 0.1324,5.52905 0.32661,8.27865 0.18499,2.05705 0.70299,4.06656 0.82954,6.12839 0.22577,1.89172 0.17249,3.81679 0.031,5.71462 -1.6e-4,1.15059 0.66806,2.31118 0.50532,3.54349 -0.0549,1.40114 0.23404,2.77356 0.0961,4.1688 0.0515,2.04272 0.34973,4.07248 0.2631,6.1196 0.0649,2.27774 0.31897,4.54828 0.29808,6.82872 0.77883,1.67773 0.79393,4.14148 -1.15173,5.01329 -1.22943,1.03722 -2.86402,1.1511 -4.39642,0.99105 -1.68214,-0.42753 -3.75057,0.90451 -5.08268,-0.57634 -0.94717,-1.42796 0.10272,-3.14199 -0.13881,-4.73681 0.38889,-9.55934 0.79333,-19.11803 1.18644,-28.67719 -0.68812,-0.65957 -1.37671,-1.31897 -2.06451,-1.97867 z"
         inkscape:connector-curvature="0" />
      <path
         id="path6260"
         style="fill:#000000;fill-opacity:1;stroke:none;stroke-width:0.264583px;stroke-linecap:butt;stroke-linejoin:miter;stroke-opacity:1"
         d="m -168.48506,130.56077 c -1.39041,0.76586 -3.5828,0.64144 -3.76699,2.68631 -1.03809,2.01447 -1.85807,4.2731 -1.59238,6.57406 1.43683,0.96893 -0.96346,2.22006 -0.43436,3.49599 -0.30574,1.76887 0.54748,3.51238 0.20075,5.29536 0.0128,2.82815 -0.22341,5.64725 -0.13686,8.47207 0.98679,1.9573 0.0907,3.93462 -0.0259,6.01455 0.24516,1.64687 0.0574,3.30029 -0.10208,4.94609 0.0379,1.4385 0.0905,2.85416 -0.17218,4.28139 -0.14546,2.22071 1.9904,0.99246 3.30806,1.14477 1.17377,-0.0358 2.47406,0.23852 3.52422,-0.39173 1.08615,-0.40898 3.71551,1.09544 3.63923,-0.73807 -0.7221,-1.75561 -0.26958,-3.7015 -0.53234,-5.53741 -0.0801,-1.94538 0.66995,-4.058 -0.38618,-5.84553 -1.29367,-0.95403 0.96691,-2.66006 0.41522,-4.16497 -0.35666,-1.66291 -0.54438,-3.3586 -0.57737,-5.06189 -0.81456,-2.00475 0.0402,-4.14871 -0.31747,-6.19835 -0.0186,-1.65553 0.42158,-3.30263 0.13261,-4.95697 0.21513,-1.67988 -0.68806,-3.1336 -0.64066,-4.77003 -0.52175,-1.48307 0.8137,-3.82148 -0.6738,-4.73811 -0.63019,-0.0986 -1.41703,0.0801 -1.86148,-0.50753 z"
         inkscape:connector-curvature="0" />
      <path
         id="path6264"
         style="fill:#000000;fill-opacity:1;stroke:none;stroke-width:0.264583px;stroke-linecap:butt;stroke-linejoin:miter;stroke-opacity:1"
         d="m -173.3996,134.69384 c 1.05841,-1.36116 0.75896,-3.75891 2.65233,-4.40835 1.28029,-1.1855 2.981,-0.25941 4.33854,0.22951 0.79045,0.43515 1.55614,0.10215 0.93097,-0.77802 0.23818,-1.02829 -0.10143,-2.04014 -1.28231,-1.74995 -0.68848,-0.26899 -0.6084,1.62758 -1.14559,0.46611 -0.14895,-1.41149 -2.05404,-0.0674 -2.73574,0.40336 -1.55358,1.59335 -2.12038,3.77729 -2.7582,5.83734 z"
         inkscape:connector-curvature="0" />
      <path
         id="path6266"
         style="fill:#000000;fill-opacity:1;stroke:none;stroke-width:0.264583px;stroke-linecap:butt;stroke-linejoin:miter;stroke-opacity:1"
         d="m -168.17919,126.9242 c 1.61921,-0.2345 -0.31132,1.24971 0,0 z"
         inkscape:connector-curvature="0" />
      <path
         id="path6272"
         style="fill:#ffffff;fill-opacity:1;stroke:none;stroke-width:0.264583px;stroke-linecap:butt;stroke-linejoin:miter;stroke-opacity:1"
         d="m -163.10754,173.65405 c 0.91318,-0.40377 3.84835,-1.11737 2.5272,-2.30487 -1.31525,-0.0248 -1.93615,1.36131 -2.5272,2.30487 z"
         inkscape:connector-curvature="0" />
    </g>
    <path
       style="fill:#000000;fill-opacity:1;stroke-width:0.347644"
       d=""
       id="path945"
       inkscape:connector-curvature="0"
       transform="matrix(0.26458333,0,0,0.26458333,25,25)" />
    <path
       style="fill:none;stroke:#000000;stroke-width:1;stroke-linecap:butt;stroke-linejoin:miter;stroke-miterlimit:4;stroke-dasharray:none;stroke-opacity:1"
       d="m 46.224245,35.51041 0.156872,56.473848"
       id="path1677"
       inkscape:connector-curvature="0"
       sodipodi:nodetypes="cc" />
    <g
       transform="matrix(0.5774054,0.0578696,-0.03790908,0.71045746,91.265257,-38.687982)"
       id="g1045">
      <path
         style="opacity:1;fill:#000000;fill-opacity:1;stroke:none;stroke-width:0.264583px;stroke-linecap:butt;stroke-linejoin:miter;stroke-opacity:1"
         d="m -74.455934,117.22803 -2.602045,3.32484 0.722789,9.9745 1.011906,8.09525 0.578234,8.09525 1.011904,9.82995 0.867349,9.25172 0.144558,7.66157 1.879256,2.45749 2.89116,0.57823 2.602045,-0.72279 h 1.879254 l 2.168371,-0.72279 0.867349,-1.0119 0.578231,-0.86735 0.144558,-4.77042 -1.011904,-8.81804 -1.011907,-8.38437 v -4.4813 l -0.867349,-6.50511 -0.867349,-5.05953 0.289118,-2.16837 -1.011907,-8.9626 -0.289116,-4.62586 v -1.44558 l -0.722791,-0.57823 -1.011907,-0.72279 -6.360554,0.14456 z"
         id="path1037"
         inkscape:connector-curvature="0" />
      <path
         style="opacity:1;fill:#ffffff;fill-opacity:1;stroke:none;stroke-width:0.264583px;stroke-linecap:butt;stroke-linejoin:miter;stroke-opacity:1"
         d="m -69.830079,175.77404 -1.44558,-1.15646 -0.433673,-1.7347 v -2.89116 l -1.590138,-22.98473 -0.722791,-3.32484 0.144558,-2.7466 -0.722789,-1.30102 v -2.89116 -2.89116 -1.59014 l -0.433676,-2.7466 -0.144558,-2.45749 -1.011904,-3.61395 -0.14456,-2.02381 v -1.59014 l 1.59014,-2.31293 2.023811,-0.86735 h 6.505112 l 1.301022,0.57823 1.734701,15.75683 -0.289118,2.16837 1.44558,9.54083 0.289116,2.7466 -0.433676,4.19219 0.722791,1.59013 1.734696,15.75683 -0.289116,4.91497 -2.457487,2.02382 -2.746602,-0.28912 -2.602045,0.43368 z"
         id="path1039"
         inkscape:connector-curvature="0" />
      <path
         style="fill:#000000;fill-opacity:1;stroke:none;stroke-width:0.264583px;stroke-linecap:butt;stroke-linejoin:miter;stroke-opacity:1"
         d="m -71.998447,118.52906 -0.722792,1.0119 0.578234,1.87926 1.44558,1.59013 -1.44558,0.14456 -0.722792,-1.0119 -0.144557,-0.86735 -0.867349,-1.15647 v 2.60205 l 0.722791,4.33674 v 5.4932 l 0.578231,2.89117 0.433676,3.46939 0.289115,1.59014 0.433674,1.59014 -1.011907,3.90306 0.289118,2.60205 v 1.15646 l 1.156464,0.57823 -1.156464,1.59014 0.578231,1.7347 -0.722789,1.7347 1.156462,11.42008 0.578234,1.15647 -0.433674,1.15646 0.144558,1.01191 v 0.28911 l -0.578233,0.57823 1.44558,3.03573 3.03572,0.57823 1.011905,-0.7228 1.301022,-0.14455 0.867349,-0.28912 2.023814,-1.15646 0.433673,-1.15647 v -1.0119 l 1.156465,-1.30102 -1.301023,-11.27553 0.144558,-2.7466 -0.722789,-1.01191 -0.433676,-1.44558 -0.144557,-1.15647 v -1.59013 -1.44558 l -0.144558,-1.87926 -0.433673,-2.89116 v -2.45749 -2.16837 l -0.867349,-4.33674 v -2.16837 l -0.144558,-3.32483 -0.289116,-4.04763 -0.289118,-4.04763 -0.289115,-2.45748 -0.289116,-1.30103 h -1.44558 l -1.590138,0.72279 -1.011907,-0.43367 -0.289115,0.43367 v 0.57824 l -1.156465,-0.57824 z"
         id="path1041"
         inkscape:connector-curvature="0" />
      <path
         style="fill:#000000;fill-opacity:1;stroke:#000000;stroke-width:0.264583px;stroke-linecap:butt;stroke-linejoin:miter;stroke-opacity:1"
         d="m -74.610054,119.38538 0.04265,0.5118 h -0.554456 l -0.04265,-0.55445 0.383852,-0.42651 v -0.2559 l 0.661083,-0.23458 0.213251,-0.57578 0.597107,-0.23458 0.767707,0.12796 -0.426506,0.3412 -0.53313,0.36253 v 0.53313 l -0.511805,-0.0853 -0.298553,0.36253 -0.277228,0.23457 z"
         id="path1043"
         inkscape:connector-curvature="0" />
    </g>
    <path
       sodipodi:nodetypes="cc"
       inkscape:connector-curvature="0"
       id="path1679"
       d="m 64.07876,35.51041 0.156872,56.473848"
       style="fill:none;stroke:#000000;stroke-width:1;stroke-linecap:butt;stroke-linejoin:miter;stroke-miterlimit:4;stroke-dasharray:none;stroke-opacity:1" />
    <g
       id="g1086"
       transform="matrix(1,0,0,-1.1840867,-26.296044,123.78202)">
      <path
         id="path1047"
         style="fill:#ffffff;fill-opacity:1;stroke:none;stroke-width:0.15875px;stroke-linecap:butt;stroke-linejoin:miter;stroke-opacity:1"
         d="m 91.135293,69.562252 c 1.242163,-0.663703 2.797916,-0.746256 3.821748,-1.796609 0.72485,-1.61087 0.0015,-3.361589 -0.0027,-5.033518 -0.05067,-1.545724 -0.213216,-3.082327 -0.379843,-4.617201 -0.234,-2.80324 -0.223389,-5.617355 -0.306711,-8.425959 0.03954,-1.173819 -0.742707,-2.052606 -1.485903,-2.851835 -0.795,-1.024097 -1.593126,-2.053656 -2.323987,-3.120584 -0.473579,-1.277845 -1.496425,-2.447338 -2.941601,-2.518596 -1.204504,-0.176598 -2.080741,0.951285 -2.027889,2.070571 -0.0084,1.305449 0.298292,2.59656 0.169617,3.906685 -0.05143,1.912632 -0.05319,3.835569 0.141689,5.736389 -0.26879,3.157312 0.788116,6.24131 0.67343,9.396969 0.06466,1.427728 -0.107081,3.055606 0.88772,4.221012 0.634641,0.849621 1.254041,1.739181 1.975426,2.505511 0.557446,0.309415 1.249863,0.196746 1.799031,0.527165 z"
         inkscape:connector-curvature="0" />
      <path
         id="path1049"
         style="opacity:0;fill:#000000;fill-opacity:1;stroke:none;stroke-width:0.15875px;stroke-linecap:butt;stroke-linejoin:miter;stroke-opacity:1"
         d="m 87.065193,41.274238 c 1.351147,0.288938 2.236735,1.463722 2.451448,2.680727 0.973077,0.886247 2.336823,1.488829 2.767777,2.834706 0.567731,1.024346 1.677392,2.020953 1.323343,3.30733 -0.470474,1.324049 -0.458358,2.758642 -0.40006,4.14547 0.536487,1.337981 -0.224963,2.695518 -0.258419,4.045791 0.529417,0.888501 0.745087,1.888226 0.345072,2.870666 -0.215853,1.172985 0.184283,2.307374 0.374604,3.449626 0.301836,1.08375 0.523518,2.392311 -0.325384,3.301531 -0.380916,0.844189 -1.263859,1.323542 -2.096224,1.051113 -0.975459,0.530649 -2.63651,-0.31527 -1.599865,-1.4111 0.656683,-0.918069 1.344553,-2.333249 -0.09398,-2.910518 -0.643559,-0.459909 -1.298186,0.107392 -1.30029,0.719538 -1.455921,0.657949 -2.044567,-1.355883 -1.742804,-2.437165 -0.0657,-1.61807 -0.183581,-3.300183 0.324023,-4.853085 -0.177706,-1.169812 -0.869756,-2.262853 -0.477142,-3.487451 0.165625,-1.145401 0.07272,-2.313114 -0.306804,-3.406143 -0.460008,-2.130117 -0.379711,-4.332641 -0.144058,-6.485663 -0.238805,-1.239924 -0.09022,-2.776787 1.158768,-3.415373 z"
         inkscape:connector-curvature="0" />
      <path
         id="path1051"
         style="fill:#000000;fill-opacity:1;stroke:none;stroke-width:0.15875px;stroke-linecap:butt;stroke-linejoin:miter;stroke-opacity:1"
         d="m 94.209903,49.18198 c -0.39927,1.345109 0.229941,2.713064 0.06729,4.073103 -0.354228,-0.732094 -0.984215,-0.244181 -0.774804,0.371687 -0.222499,0.888722 0.631799,1.752484 0.150887,2.61117 0.680652,1.048437 -0.673416,1.920148 0.05765,3.017847 0.401485,1.11124 -0.07513,2.266643 0.19674,3.413034 0.140747,1.216403 0.257253,2.441331 0.380189,3.655454 0.231146,0.8206 1.50428,0.717927 1.025856,-0.262963 -0.01825,-1.151478 -0.739106,-2.208818 -0.522192,-3.363148 -0.338091,-0.8861 0.280282,-2.022581 -0.587404,-2.591528 0.660838,-0.864898 0.157338,-2.016237 -0.05314,-2.83177 0.717876,-1.162313 -0.26878,-2.525192 0.253148,-3.731291 -0.02642,-1.453123 0.179368,-2.935587 -0.19422,-4.361595 z"
         inkscape:connector-curvature="0" />
      <path
         id="path1053"
         style="fill:#000000;fill-opacity:1;stroke:none;stroke-width:0.15875px;stroke-linecap:butt;stroke-linejoin:miter;stroke-opacity:1"
         d="m 85.918569,41.78608 c 0.918735,-1.02092 2.2833,-0.152818 3.159531,0.454287 1.074393,0.795822 0.640189,2.574017 1.894915,3.226878 1.120078,0.902754 2.029736,2.148859 2.402271,3.545073 0.116171,1.111723 -0.257708,2.207705 -0.280093,3.309685 -0.236264,1.301832 0.335093,2.60731 0.03867,3.914712 -0.153406,1.080347 -0.432363,2.147453 0.06416,3.168298 0.248453,1.088187 0.02991,2.223603 0.178256,3.310705 0.433475,1.234254 0.08915,2.63897 0.729969,3.814767 0.788728,0.344123 0.165279,2.256601 -0.303659,1.500689 -0.133643,-1.18842 -0.489904,0.757438 -1.002834,0.851894 -0.803836,0.802992 -1.909285,-0.406952 -2.370487,0.251624 -1.517618,0.552394 -1.595517,-1.66963 -0.893629,-2.493633 0.304447,-0.77585 -0.272978,-1.978973 -0.782355,-2.20623 -0.575445,0.476145 0.06252,1.936159 -1.096878,1.395143 -0.920492,0.623983 -0.98355,-0.925719 -1.055351,-1.639903 -0.0079,-1.628629 0.01683,-3.26216 -0.128153,-4.885668 -0.09451,-0.77461 -0.469648,-1.489629 -0.321928,-2.286182 0.110297,-1.346223 0.119056,-2.697067 -0.0759,-4.036087 -0.06007,-1.364362 -0.220785,-2.722883 -0.307652,-4.082617 0.145675,-1.579212 0.267297,-3.168154 0.0278,-4.745327 -0.369101,-0.870006 0.635395,-2.599386 1.309977,-1.266921 0.303015,0.802624 0.564278,2.690311 1.584036,2.456431 0.989455,0.0094 0.535215,-1.7677 -0.238067,-1.088006 -0.427578,0.942806 -0.902132,-0.267305 -0.35247,-0.690567 -0.300845,-0.233626 -0.790121,-0.818424 0.06807,-0.699302 0.0049,-1.127896 -1.54191,-0.772131 -2.248188,-1.079743 z"
         inkscape:connector-curvature="0" />
      <path
         id="path1055"
         style="fill:#ffffff;fill-opacity:1;stroke:#ffffff;stroke-width:0.22225;stroke-miterlimit:4;stroke-dasharray:none;stroke-opacity:1"
         d="m 91.542243,55.683316 c 1.343641,-0.318764 -0.01885,-1.791705 -0.331361,-2.493859 -0.689188,-0.563395 -0.937575,-1.443345 -0.46837,-2.171094 -0.755655,-1.270247 -2.062557,0.534846 -2.217993,1.420186 -0.295073,0.56928 -0.04614,1.971787 -0.292156,2.080658 -0.648571,-1.389943 0.123873,-3.115053 1.303892,-3.960978 1.08895,-0.773521 1.481649,0.581519 1.483449,1.417709 0.352755,0.352018 0.0936,0.731755 0.888183,0.71494 0.457862,0.269231 -0.104724,0.778707 0.477206,1.076105 0.60856,0.889793 0.385617,1.965788 -0.84285,1.916333 z"
         inkscape:connector-curvature="0" />
      <path
         id="path1057"
         style="fill:#ffffff;fill-opacity:1;stroke:#ffffff;stroke-width:0.22225;stroke-miterlimit:4;stroke-dasharray:none;stroke-opacity:1"
         d="m 86.857768,56.126249 c -0.186859,-0.734742 1.76306,-1.196828 0.717181,-0.353105 -0.16101,0.201257 -0.427176,0.519371 -0.717181,0.353105 z"
         inkscape:connector-curvature="0" />
      <path
         id="path1059"
         style="fill:#ffffff;fill-opacity:1;stroke:#ffffff;stroke-width:0.22225;stroke-miterlimit:4;stroke-dasharray:none;stroke-opacity:1"
         d="m 91.069766,56.91945 c -0.667742,-0.137301 -1.767304,-1.892492 -0.464591,-1.687216 0.339788,0.489044 0.478172,1.097711 0.464591,1.687216 z"
         inkscape:connector-curvature="0" />
      <path
         id="path1061"
         style="fill:#ffffff;fill-opacity:1;stroke:#ffffff;stroke-width:0.22225;stroke-miterlimit:4;stroke-dasharray:none;stroke-opacity:1"
         d="m 91.785308,56.728378 c 0.226074,-0.3441 -0.294163,-1.213371 0.284619,-0.520771 0.111798,0.214369 -0.06612,0.476354 -0.284619,0.520771 z"
         inkscape:connector-curvature="0" />
      <path
         id="path1063"
         style="fill:#ffffff;fill-opacity:1;stroke:#ffffff;stroke-width:0.22225;stroke-miterlimit:4;stroke-dasharray:none;stroke-opacity:1"
         d="m 92.451552,59.508762 c 0.730824,-0.305011 -0.81063,-2.111637 0.01795,-1.505981 0.265166,0.457685 0.232697,1.04989 -0.01795,1.505981 z"
         inkscape:connector-curvature="0" />
      <path
         id="path1065"
         style="fill:#ffffff;fill-opacity:1;stroke:#ffffff;stroke-width:0.22225;stroke-miterlimit:4;stroke-dasharray:none;stroke-opacity:1"
         d="m 90.867684,58.085802 c -0.24474,-1.056201 0.892405,0.331955 0.0011,0.175669 l -0.0219,-0.08813 z"
         inkscape:connector-curvature="0" />
      <path
         id="path1067"
         style="fill:#ffffff;fill-opacity:1;stroke:#ffffff;stroke-width:0.22225;stroke-miterlimit:4;stroke-dasharray:none;stroke-opacity:1"
         d="m 90.249164,63.0771 c 0.01803,-1.18329 1.660565,-2.096725 0.710913,-3.310731 -0.101544,-0.848642 0.638013,-0.684336 0.445064,0.05543 -0.05881,1.042545 0.07472,2.2943 -0.751767,3.078294 l -0.187275,0.108935 z"
         inkscape:connector-curvature="0" />
      <path
         id="path1069"
         style="fill:#ffffff;fill-opacity:1;stroke:#ffffff;stroke-width:0.22225;stroke-miterlimit:4;stroke-dasharray:none;stroke-opacity:1"
         d="m 91.737169,63.495146 c 0.558254,-0.577972 -0.209911,-2.568854 0.525778,-2.42704 0.114296,0.849042 -0.344257,1.623624 -0.525778,2.42704 z"
         inkscape:connector-curvature="0" />
      <path
         id="path1071"
         style="fill:#000000;fill-opacity:1;stroke:none;stroke-width:0.15875px;stroke-linecap:butt;stroke-linejoin:miter;stroke-opacity:1"
         d="m 87.673697,66.500947 c 0.793229,-0.797715 1.820326,0.547359 1.015677,1.179509 0.03173,0.888593 -1.0583,1.155515 -1.093593,0.113882 -0.251991,-0.388284 -0.439562,-1.017148 0.07792,-1.293391 z"
         inkscape:connector-curvature="0" />
    </g>
    <path
       style="fill:none;stroke:#000000;stroke-width:1;stroke-linecap:butt;stroke-linejoin:miter;stroke-miterlimit:4;stroke-dasharray:none;stroke-opacity:1"
       d="m 135.49681,35.51041 0.15687,56.473848"
       id="path1691"
       inkscape:connector-curvature="0"
       sodipodi:nodetypes="cc" />
    <g
       transform="matrix(0.4944262,0.14618944,-0.00466621,-0.24354017,218.99096,110.56374)"
       id="g1208">
      <path
         inkscape:connector-curvature="0"
         d="m -170.64406,128.16967 c 1.3404,-1.20268 2.57187,-3.13376 4.6218,-2.92789 2.23356,-0.0487 3.48683,2.42594 3.41635,4.39707 -0.32124,2.11313 0.70534,4.1681 0.37999,6.28619 0.001,1.91597 0.57233,3.81496 0.24701,5.73239 -0.0949,2.06583 0.36857,4.10539 0.45715,6.1531 -0.16181,1.60488 0.10893,3.18763 0.46359,4.74467 0.13697,1.57123 -0.0551,3.07628 0.26869,4.62768 -0.10088,2.22794 0.0104,4.45564 0.13957,6.68014 0.27255,1.66788 0.88824,3.27402 0.9422,4.98364 0.0504,1.37959 0.23132,3.08205 -1.03893,4.00577 -1.63834,1.25697 -3.79229,1.39186 -5.73175,1.86135 -2.01595,0.30049 -4.06004,0.17304 -6.087,0.0901 -1.936,-0.81185 -0.63207,-3.20998 -0.78632,-4.75111 0.90256,-13.96103 1.80497,-27.92206 2.70765,-41.88308 z"
         style="opacity:1;fill:#000000;fill-opacity:1;stroke:none;stroke-width:0.264583px;stroke-linecap:butt;stroke-linejoin:miter;stroke-opacity:1"
         id="path1196" />
      <path
         inkscape:connector-curvature="0"
         d="m -174.24917,138.64774 c 0.24578,-2.28656 -0.0433,-4.79422 1.32355,-6.79507 0.87538,-1.80645 1.90678,-3.68698 3.67665,-4.7581 1.02032,-1.62291 3.87062,-1.12923 4.29777,0.73557 1.12613,2.65623 0.1324,5.52905 0.32661,8.27865 0.18499,2.05705 0.70299,4.06656 0.82954,6.12839 0.22577,1.89172 0.17249,3.81679 0.031,5.71462 -1.6e-4,1.15059 0.66806,2.31118 0.50532,3.54349 -0.0549,1.40114 0.23404,2.77356 0.0961,4.1688 0.0515,2.04272 0.34973,4.07248 0.2631,6.1196 0.0649,2.27774 0.31897,4.54828 0.29808,6.82872 0.77883,1.67773 0.79393,4.14148 -1.15173,5.01329 -1.22943,1.03722 -2.86402,1.1511 -4.39642,0.99105 -1.68214,-0.42753 -3.75057,0.90451 -5.08268,-0.57634 -0.94717,-1.42796 0.10272,-3.14199 -0.13881,-4.73681 0.38889,-9.55934 0.79333,-19.11803 1.18644,-28.67719 -0.68812,-0.65957 -1.37671,-1.31897 -2.06451,-1.97867 z"
         style="opacity:1;fill:#ffffff;fill-opacity:1;stroke:none;stroke-width:0.264583px;stroke-linecap:butt;stroke-linejoin:miter;stroke-opacity:1"
         id="path1198" />
      <path
         inkscape:connector-curvature="0"
         d="m -168.48506,130.56077 c -1.39041,0.76586 -3.5828,0.64144 -3.76699,2.68631 -1.03809,2.01447 -1.85807,4.2731 -1.59238,6.57406 1.43683,0.96893 -0.96346,2.22006 -0.43436,3.49599 -0.30574,1.76887 0.54748,3.51238 0.20075,5.29536 0.0128,2.82815 -0.22341,5.64725 -0.13686,8.47207 0.98679,1.9573 0.0907,3.93462 -0.0259,6.01455 0.24516,1.64687 0.0574,3.30029 -0.10208,4.94609 0.0379,1.4385 0.0905,2.85416 -0.17218,4.28139 -0.14546,2.22071 1.9904,0.99246 3.30806,1.14477 1.17377,-0.0358 2.47406,0.23852 3.52422,-0.39173 1.08615,-0.40898 3.71551,1.09544 3.63923,-0.73807 -0.7221,-1.75561 -0.26958,-3.7015 -0.53234,-5.53741 -0.0801,-1.94538 0.66995,-4.058 -0.38618,-5.84553 -1.29367,-0.95403 0.96691,-2.66006 0.41522,-4.16497 -0.35666,-1.66291 -0.54438,-3.3586 -0.57737,-5.06189 -0.81456,-2.00475 0.0402,-4.14871 -0.31747,-6.19835 -0.0186,-1.65553 0.42158,-3.30263 0.13261,-4.95697 0.21513,-1.67988 -0.68806,-3.1336 -0.64066,-4.77003 -0.52175,-1.48307 0.8137,-3.82148 -0.6738,-4.73811 -0.63019,-0.0986 -1.41703,0.0801 -1.86148,-0.50753 z"
         style="fill:#000000;fill-opacity:1;stroke:none;stroke-width:0.264583px;stroke-linecap:butt;stroke-linejoin:miter;stroke-opacity:1"
         id="path1200" />
      <path
         inkscape:connector-curvature="0"
         d="m -173.3996,134.69384 c 1.05841,-1.36116 0.75896,-3.75891 2.65233,-4.40835 1.28029,-1.1855 2.981,-0.25941 4.33854,0.22951 0.79045,0.43515 1.55614,0.10215 0.93097,-0.77802 0.23818,-1.02829 -0.10143,-2.04014 -1.28231,-1.74995 -0.68848,-0.26899 -0.6084,1.62758 -1.14559,0.46611 -0.14895,-1.41149 -2.05404,-0.0674 -2.73574,0.40336 -1.55358,1.59335 -2.12038,3.77729 -2.7582,5.83734 z"
         style="fill:#000000;fill-opacity:1;stroke:none;stroke-width:0.264583px;stroke-linecap:butt;stroke-linejoin:miter;stroke-opacity:1"
         id="path1202" />
      <path
         inkscape:connector-curvature="0"
         d="m -168.17919,126.9242 c 1.61921,-0.2345 -0.31132,1.24971 0,0 z"
         style="fill:#000000;fill-opacity:1;stroke:none;stroke-width:0.264583px;stroke-linecap:butt;stroke-linejoin:miter;stroke-opacity:1"
         id="path1204" />
      <path
         inkscape:connector-curvature="0"
         d="m -163.10754,173.65405 c 0.91318,-0.40377 3.84835,-1.11737 2.5272,-2.30487 -1.31525,-0.0248 -1.93615,1.36131 -2.5272,2.30487 z"
         style="fill:#ffffff;fill-opacity:1;stroke:none;stroke-width:0.264583px;stroke-linecap:butt;stroke-linejoin:miter;stroke-opacity:1"
         id="path1206" />
    </g>
    <path
       style="fill:none;stroke:#000000;stroke-width:1;stroke-linecap:butt;stroke-linejoin:miter;stroke-miterlimit:4;stroke-dasharray:none;stroke-opacity:1"
       d="m 99.787775,35.51041 0.156872,56.473848"
       id="path1687"
       inkscape:connector-curvature="0"
       sodipodi:nodetypes="cc" />
    <g
       id="g1218"
       transform="matrix(0.6240152,0.02634143,-0.04096921,0.32339029,148.45829,8.0189736)">
      <path
         inkscape:connector-curvature="0"
         id="path1210"
         d="m -74.455934,117.22803 -2.602045,3.32484 0.722789,9.9745 1.011906,8.09525 0.578234,8.09525 1.011904,9.82995 0.867349,9.25172 0.144558,7.66157 1.879256,2.45749 2.89116,0.57823 2.602045,-0.72279 h 1.879254 l 2.168371,-0.72279 0.867349,-1.0119 0.578231,-0.86735 0.144558,-4.77042 -1.011904,-8.81804 -1.011907,-8.38437 v -4.4813 l -0.867349,-6.50511 -0.867349,-5.05953 0.289118,-2.16837 -1.011907,-8.9626 -0.289116,-4.62586 v -1.44558 l -0.722791,-0.57823 -1.011907,-0.72279 -6.360554,0.14456 z"
         style="opacity:1;fill:#000000;fill-opacity:1;stroke:none;stroke-width:0.264583px;stroke-linecap:butt;stroke-linejoin:miter;stroke-opacity:1" />
      <path
         inkscape:connector-curvature="0"
         id="path1212"
         d="m -69.830079,175.77404 -1.44558,-1.15646 -0.433673,-1.7347 v -2.89116 l -1.590138,-22.98473 -0.722791,-3.32484 0.144558,-2.7466 -0.722789,-1.30102 v -2.89116 -2.89116 -1.59014 l -0.433676,-2.7466 -0.144558,-2.45749 -1.011904,-3.61395 -0.14456,-2.02381 v -1.59014 l 1.59014,-2.31293 2.023811,-0.86735 h 6.505112 l 1.301022,0.57823 1.734701,15.75683 -0.289118,2.16837 1.44558,9.54083 0.289116,2.7466 -0.433676,4.19219 0.722791,1.59013 1.734696,15.75683 -0.289116,4.91497 -2.457487,2.02382 -2.746602,-0.28912 -2.602045,0.43368 z"
         style="opacity:1;fill:#ffffff;fill-opacity:1;stroke:none;stroke-width:0.264583px;stroke-linecap:butt;stroke-linejoin:miter;stroke-opacity:1" />
      <path
         inkscape:connector-curvature="0"
         id="path1214"
         d="m -71.998447,118.52906 -0.722792,1.0119 0.578234,1.87926 1.44558,1.59013 -1.44558,0.14456 -0.722792,-1.0119 -0.144557,-0.86735 -0.867349,-1.15647 v 2.60205 l 0.722791,4.33674 v 5.4932 l 0.578231,2.89117 0.433676,3.46939 0.289115,1.59014 0.433674,1.59014 -1.011907,3.90306 0.289118,2.60205 v 1.15646 l 1.156464,0.57823 -1.156464,1.59014 0.578231,1.7347 -0.722789,1.7347 1.156462,11.42008 0.578234,1.15647 -0.433674,1.15646 0.144558,1.01191 v 0.28911 l -0.578233,0.57823 1.44558,3.03573 3.03572,0.57823 1.011905,-0.7228 1.301022,-0.14455 0.867349,-0.28912 2.023814,-1.15646 0.433673,-1.15647 v -1.0119 l 1.156465,-1.30102 -1.301023,-11.27553 0.144558,-2.7466 -0.722789,-1.01191 -0.433676,-1.44558 -0.144557,-1.15647 v -1.59013 -1.44558 l -0.144558,-1.87926 -0.433673,-2.89116 v -2.45749 -2.16837 l -0.867349,-4.33674 v -2.16837 l -0.144558,-3.32483 -0.289116,-4.04763 -0.289118,-4.04763 -0.289115,-2.45748 -0.289116,-1.30103 h -1.44558 l -1.590138,0.72279 -1.011907,-0.43367 -0.289115,0.43367 v 0.57824 l -1.156465,-0.57824 z"
         style="fill:#000000;fill-opacity:1;stroke:none;stroke-width:0.264583px;stroke-linecap:butt;stroke-linejoin:miter;stroke-opacity:1" />
      <path
         inkscape:connector-curvature="0"
         id="path1216"
         d="m -74.610054,119.38538 0.04265,0.5118 h -0.554456 l -0.04265,-0.55445 0.383852,-0.42651 v -0.2559 l 0.661083,-0.23458 0.213251,-0.57578 0.597107,-0.23458 0.767707,0.12796 -0.426506,0.3412 -0.53313,0.36253 v 0.53313 l -0.511805,-0.0853 -0.298553,0.36253 -0.277228,0.23457 z"
         style="fill:#000000;fill-opacity:1;stroke:#000000;stroke-width:0.264583px;stroke-linecap:butt;stroke-linejoin:miter;stroke-opacity:1" />
    </g>
    <path
       sodipodi:nodetypes="cc"
       inkscape:connector-curvature="0"
       id="path1693"
       d="m 153.35131,35.51041 0.15687,56.473848"
       style="fill:none;stroke:#000000;stroke-width:1;stroke-linecap:butt;stroke-linejoin:miter;stroke-miterlimit:4;stroke-dasharray:none;stroke-opacity:1" />
    <g
       id="g1266"
       transform="matrix(-0.58949182,0.05455107,-0.06339384,0.79992041,237.96897,-2.6830053)">
      <path
         style="fill:#000000;fill-opacity:1;stroke:none;stroke-width:0.106968px;stroke-linecap:butt;stroke-linejoin:miter;stroke-opacity:1"
         d="m 132.32686,50.95626 0.72959,-2.587093 1.85701,-0.23211 1.4906,0.187063 1.50747,-0.195774 1.81844,0.03573 1.71479,-0.04144 1.44237,-0.540781 0.39136,1.44458 -0.003,2.501816 -0.2378,2.360091 -0.0731,1.658969 -0.22094,1.977253 -0.22498,0.853957 -0.18641,0.586118 -0.9072,0.543784 -1.62721,-0.124005 -1.54523,-0.161841 -0.84695,0.390948 -1.1957,-0.198175 -0.92248,-0.324286 -0.42105,0.444396 -1.65452,-0.111397 -0.86303,0.148333 -0.2732,0.126113 -0.0811,-0.587622 -0.0972,-0.830236 0.27472,-5.627586 z"
         id="path1220"
         inkscape:connector-curvature="0" />
      <path
         style="fill:#ffffff;fill-opacity:1;stroke:none;stroke-width:0.106968px;stroke-linecap:butt;stroke-linejoin:miter;stroke-opacity:1"
         d="m 143.2118,49.932333 -0.16233,-1.175241 -0.31098,-0.231503 -0.54641,0.252224 -4.28214,0.60144 -0.60027,-0.348007 -0.52471,0.367226 -0.21777,-0.524564 -0.54641,0.252224 -0.54642,0.252225 -0.30052,0.138723 -0.50222,-0.143228 -0.45884,0.08678 -0.64366,-0.578009 -0.37686,0.04894 -0.30053,0.138724 -0.49897,1.605524 -0.24265,1.862249 -0.25303,5.742588 0.0587,1.098073 2.91049,0.156737 0.42105,-0.444396 1.74693,0.44379 0.50785,0.01561 0.80917,-0.748567 0.27241,0.499343 2.91048,0.156733 0.94015,-0.684007 0.47808,-2.34598 0.0522,-2.399424 0.18318,-2.33487 z"
         id="path1222"
         inkscape:connector-curvature="0" />
      <path
         style="fill:#000000;fill-opacity:1;stroke:none;stroke-width:0.101259px;stroke-linecap:butt;stroke-linejoin:miter;stroke-opacity:1"
         d="m 132.97993,52.67436 0.19657,-0.726345 0.29812,0.346508 0.21892,1.137407 0.0749,-1.288741 -0.14619,-0.549789 -0.14185,-0.05194 -0.16563,-0.664789 0.44068,-0.227002 0.70928,0.259729 0.93033,-0.479225 0.4695,0.258226 0.57246,0.08017 0.25923,0.116501 0.25419,0.244116 0.6963,-1.233795 0.4306,0.02823 0.19586,-0.100889 0.0576,0.970459 0.30962,-1.159628 0.27363,0.359117 0.31899,-0.7894 1.8938,0.02462 0.17571,0.409564 0.21097,-0.483729 0.16634,0.03934 0.049,-0.02522 0.11809,-0.560898 0.46374,1.011294 -0.008,2.62943 -0.15768,0.956348 -0.0698,1.161127 -0.0792,0.790902 -0.2664,1.887473 -0.21097,0.483729 -0.17138,0.08828 -0.26065,1.134406 -1.86428,-0.164843 -0.47021,0.367226 -0.14618,-0.549786 -0.22971,-0.256728 -0.19082,-0.02672 -0.26931,0.138722 -0.24482,0.126113 -0.31324,0.03633 -0.47453,-0.130614 -0.4162,0.214391 -0.36724,0.189168 -0.70424,-0.387343 -0.36723,0.189169 -0.55806,0.162444 -0.67543,0.09789 -0.67543,0.09789 -0.40613,-0.04084 -0.21026,-0.141724 0.0504,-1.27613 0.17784,-1.4668 -0.0382,-0.855458 0.0835,-0.293059 0.0979,-0.05044 -0.0576,-0.97046 z"
         id="path1224"
         inkscape:connector-curvature="0" />
      <path
         style="fill:#000000;fill-opacity:1;stroke:#000000;stroke-width:0.106968px;stroke-linecap:butt;stroke-linejoin:miter;stroke-opacity:1"
         d="m 132.74059,50.631999 0.0951,-0.007 0.0215,-0.489464 -0.10311,0.01072 -0.0955,0.376066 -0.0483,0.02232 -0.0701,0.604057 -0.11711,0.238484 -0.0675,0.54758 -0.006,0.666553 0.081,-0.406277 0.0893,-0.502264 0.10077,-0.04651 0.003,-0.44437 0.0801,-0.295184 0.0551,-0.265196 z"
         id="path1226"
         inkscape:connector-curvature="0" />
    </g>
    <path
       sodipodi:nodetypes="cc"
       inkscape:connector-curvature="0"
       id="path1689"
       d="m 117.6423,35.51041 0.15687,56.473848"
       style="fill:none;stroke:#000000;stroke-width:1;stroke-linecap:butt;stroke-linejoin:miter;stroke-miterlimit:4;stroke-dasharray:none;stroke-opacity:1" />
    <g
       transform="matrix(0.88029385,-0.24168808,-0.09073291,-0.53246616,43.299134,102.60933)"
       id="g1260">
      <path
         inkscape:connector-curvature="0"
         d="m 91.135293,69.562252 c 1.242163,-0.663703 2.797916,-0.746256 3.821748,-1.796609 0.72485,-1.61087 0.0015,-3.361589 -0.0027,-5.033518 -0.05067,-1.545724 -0.213216,-3.082327 -0.379843,-4.617201 -0.234,-2.80324 -0.223389,-5.617355 -0.306711,-8.425959 0.03954,-1.173819 -0.742707,-2.052606 -1.485903,-2.851835 -0.795,-1.024097 -1.593126,-2.053656 -2.323987,-3.120584 -0.473579,-1.277845 -1.496425,-2.447338 -2.941601,-2.518596 -1.204504,-0.176598 -2.080741,0.951285 -2.027889,2.070571 -0.0084,1.305449 0.298292,2.59656 0.169617,3.906685 -0.05143,1.912632 -0.05319,3.835569 0.141689,5.736389 -0.26879,3.157312 0.788116,6.24131 0.67343,9.396969 0.06466,1.427728 -0.107081,3.055606 0.88772,4.221012 0.634641,0.849621 1.254041,1.739181 1.975426,2.505511 0.557446,0.309415 1.249863,0.196746 1.799031,0.527165 z"
         style="fill:#ffffff;fill-opacity:1;stroke:none;stroke-width:0.15875px;stroke-linecap:butt;stroke-linejoin:miter;stroke-opacity:1"
         id="path1234" />
      <path
         inkscape:connector-curvature="0"
         d="m 87.065193,41.274238 c 1.351147,0.288938 2.236735,1.463722 2.451448,2.680727 0.973077,0.886247 2.336823,1.488829 2.767777,2.834706 0.567731,1.024346 1.677392,2.020953 1.323343,3.30733 -0.470474,1.324049 -0.458358,2.758642 -0.40006,4.14547 0.536487,1.337981 -0.224963,2.695518 -0.258419,4.045791 0.529417,0.888501 0.745087,1.888226 0.345072,2.870666 -0.215853,1.172985 0.184283,2.307374 0.374604,3.449626 0.301836,1.08375 0.523518,2.392311 -0.325384,3.301531 -0.380916,0.844189 -1.263859,1.323542 -2.096224,1.051113 -0.975459,0.530649 -2.63651,-0.31527 -1.599865,-1.4111 0.656683,-0.918069 1.344553,-2.333249 -0.09398,-2.910518 -0.643559,-0.459909 -1.298186,0.107392 -1.30029,0.719538 -1.455921,0.657949 -2.044567,-1.355883 -1.742804,-2.437165 -0.0657,-1.61807 -0.183581,-3.300183 0.324023,-4.853085 -0.177706,-1.169812 -0.869756,-2.262853 -0.477142,-3.487451 0.165625,-1.145401 0.07272,-2.313114 -0.306804,-3.406143 -0.460008,-2.130117 -0.379711,-4.332641 -0.144058,-6.485663 -0.238805,-1.239924 -0.09022,-2.776787 1.158768,-3.415373 z"
         style="opacity:0;fill:#000000;fill-opacity:1;stroke:none;stroke-width:0.15875px;stroke-linecap:butt;stroke-linejoin:miter;stroke-opacity:1"
         id="path1236" />
      <path
         inkscape:connector-curvature="0"
         d="m 94.209903,49.18198 c -0.39927,1.345109 0.229941,2.713064 0.06729,4.073103 -0.354228,-0.732094 -0.984215,-0.244181 -0.774804,0.371687 -0.222499,0.888722 0.631799,1.752484 0.150887,2.61117 0.680652,1.048437 -0.673416,1.920148 0.05765,3.017847 0.401485,1.11124 -0.07513,2.266643 0.19674,3.413034 0.140747,1.216403 0.257253,2.441331 0.380189,3.655454 0.231146,0.8206 1.50428,0.717927 1.025856,-0.262963 -0.01825,-1.151478 -0.739106,-2.208818 -0.522192,-3.363148 -0.338091,-0.8861 0.280282,-2.022581 -0.587404,-2.591528 0.660838,-0.864898 0.157338,-2.016237 -0.05314,-2.83177 0.717876,-1.162313 -0.26878,-2.525192 0.253148,-3.731291 -0.02642,-1.453123 0.179368,-2.935587 -0.19422,-4.361595 z"
         style="fill:#000000;fill-opacity:1;stroke:none;stroke-width:0.15875px;stroke-linecap:butt;stroke-linejoin:miter;stroke-opacity:1"
         id="path1238" />
      <path
         inkscape:connector-curvature="0"
         d="m 85.918569,41.78608 c 0.918735,-1.02092 2.2833,-0.152818 3.159531,0.454287 1.074393,0.795822 0.640189,2.574017 1.894915,3.226878 1.120078,0.902754 2.029736,2.148859 2.402271,3.545073 0.116171,1.111723 -0.257708,2.207705 -0.280093,3.309685 -0.236264,1.301832 0.335093,2.60731 0.03867,3.914712 -0.153406,1.080347 -0.432363,2.147453 0.06416,3.168298 0.248453,1.088187 0.02991,2.223603 0.178256,3.310705 0.433475,1.234254 0.08915,2.63897 0.729969,3.814767 0.788728,0.344123 0.165279,2.256601 -0.303659,1.500689 -0.133643,-1.18842 -0.489904,0.757438 -1.002834,0.851894 -0.803836,0.802992 -1.909285,-0.406952 -2.370487,0.251624 -1.517618,0.552394 -1.595517,-1.66963 -0.893629,-2.493633 0.304447,-0.77585 -0.272978,-1.978973 -0.782355,-2.20623 -0.575445,0.476145 0.06252,1.936159 -1.096878,1.395143 -0.920492,0.623983 -0.98355,-0.925719 -1.055351,-1.639903 -0.0079,-1.628629 0.01683,-3.26216 -0.128153,-4.885668 -0.09451,-0.77461 -0.469648,-1.489629 -0.321928,-2.286182 0.110297,-1.346223 0.119056,-2.697067 -0.0759,-4.036087 -0.06007,-1.364362 -0.220785,-2.722883 -0.307652,-4.082617 0.145675,-1.579212 0.267297,-3.168154 0.0278,-4.745327 -0.369101,-0.870006 0.635395,-2.599386 1.309977,-1.266921 0.303015,0.802624 0.564278,2.690311 1.584036,2.456431 0.989455,0.0094 0.535215,-1.7677 -0.238067,-1.088006 -0.427578,0.942806 -0.902132,-0.267305 -0.35247,-0.690567 -0.300845,-0.233626 -0.790121,-0.818424 0.06807,-0.699302 0.0049,-1.127896 -1.54191,-0.772131 -2.248188,-1.079743 z"
         style="fill:#000000;fill-opacity:1;stroke:none;stroke-width:0.15875px;stroke-linecap:butt;stroke-linejoin:miter;stroke-opacity:1"
         id="path1240" />
      <path
         inkscape:connector-curvature="0"
         d="m 91.542243,55.683316 c 1.343641,-0.318764 -0.01885,-1.791705 -0.331361,-2.493859 -0.689188,-0.563395 -0.937575,-1.443345 -0.46837,-2.171094 -0.755655,-1.270247 -2.062557,0.534846 -2.217993,1.420186 -0.295073,0.56928 -0.04614,1.971787 -0.292156,2.080658 -0.648571,-1.389943 0.123873,-3.115053 1.303892,-3.960978 1.08895,-0.773521 1.481649,0.581519 1.483449,1.417709 0.352755,0.352018 0.0936,0.731755 0.888183,0.71494 0.457862,0.269231 -0.104724,0.778707 0.477206,1.076105 0.60856,0.889793 0.385617,1.965788 -0.84285,1.916333 z"
         style="fill:#ffffff;fill-opacity:1;stroke:#ffffff;stroke-width:0.22225;stroke-miterlimit:4;stroke-dasharray:none;stroke-opacity:1"
         id="path1242" />
      <path
         inkscape:connector-curvature="0"
         d="m 86.857768,56.126249 c -0.186859,-0.734742 1.76306,-1.196828 0.717181,-0.353105 -0.16101,0.201257 -0.427176,0.519371 -0.717181,0.353105 z"
         style="fill:#ffffff;fill-opacity:1;stroke:#ffffff;stroke-width:0.22225;stroke-miterlimit:4;stroke-dasharray:none;stroke-opacity:1"
         id="path1244" />
      <path
         inkscape:connector-curvature="0"
         d="m 91.069766,56.91945 c -0.667742,-0.137301 -1.767304,-1.892492 -0.464591,-1.687216 0.339788,0.489044 0.478172,1.097711 0.464591,1.687216 z"
         style="fill:#ffffff;fill-opacity:1;stroke:#ffffff;stroke-width:0.22225;stroke-miterlimit:4;stroke-dasharray:none;stroke-opacity:1"
         id="path1246" />
      <path
         inkscape:connector-curvature="0"
         d="m 91.785308,56.728378 c 0.226074,-0.3441 -0.294163,-1.213371 0.284619,-0.520771 0.111798,0.214369 -0.06612,0.476354 -0.284619,0.520771 z"
         style="fill:#ffffff;fill-opacity:1;stroke:#ffffff;stroke-width:0.22225;stroke-miterlimit:4;stroke-dasharray:none;stroke-opacity:1"
         id="path1248" />
      <path
         inkscape:connector-curvature="0"
         d="m 92.451552,59.508762 c 0.730824,-0.305011 -0.81063,-2.111637 0.01795,-1.505981 0.265166,0.457685 0.232697,1.04989 -0.01795,1.505981 z"
         style="fill:#ffffff;fill-opacity:1;stroke:#ffffff;stroke-width:0.22225;stroke-miterlimit:4;stroke-dasharray:none;stroke-opacity:1"
         id="path1250" />
      <path
         inkscape:connector-curvature="0"
         d="m 90.867684,58.085802 c -0.24474,-1.056201 0.892405,0.331955 0.0011,0.175669 l -0.0219,-0.08813 z"
         style="fill:#ffffff;fill-opacity:1;stroke:#ffffff;stroke-width:0.22225;stroke-miterlimit:4;stroke-dasharray:none;stroke-opacity:1"
         id="path1252" />
      <path
         inkscape:connector-curvature="0"
         d="m 90.249164,63.0771 c 0.01803,-1.18329 1.660565,-2.096725 0.710913,-3.310731 -0.101544,-0.848642 0.638013,-0.684336 0.445064,0.05543 -0.05881,1.042545 0.07472,2.2943 -0.751767,3.078294 l -0.187275,0.108935 z"
         style="fill:#ffffff;fill-opacity:1;stroke:#ffffff;stroke-width:0.22225;stroke-miterlimit:4;stroke-dasharray:none;stroke-opacity:1"
         id="path1254" />
      <path
         inkscape:connector-curvature="0"
         d="m 91.737169,63.495146 c 0.558254,-0.577972 -0.209911,-2.568854 0.525778,-2.42704 0.114296,0.849042 -0.344257,1.623624 -0.525778,2.42704 z"
         style="fill:#ffffff;fill-opacity:1;stroke:#ffffff;stroke-width:0.22225;stroke-miterlimit:4;stroke-dasharray:none;stroke-opacity:1"
         id="path1256" />
      <path
         inkscape:connector-curvature="0"
         d="m 87.673697,66.500947 c 0.793229,-0.797715 1.820326,0.547359 1.015677,1.179509 0.03173,0.888593 -1.0583,1.155515 -1.093593,0.113882 -0.251991,-0.388284 -0.439562,-1.017148 0.07792,-1.293391 z"
         style="fill:#000000;fill-opacity:1;stroke:none;stroke-width:0.15875px;stroke-linecap:butt;stroke-linejoin:miter;stroke-opacity:1"
         id="path1258" />
    </g>
  </g>
</svg>
