<?xml version="1.0" encoding="UTF-8" standalone="no"?>
<svg
   xmlns:dc="http://purl.org/dc/elements/1.1/"
   xmlns:cc="http://creativecommons.org/ns#"
   xmlns:rdf="http://www.w3.org/1999/02/22-rdf-syntax-ns#"
   xmlns:svg="http://www.w3.org/2000/svg"
   xmlns="http://www.w3.org/2000/svg"
   xmlns:sodipodi="http://sodipodi.sourceforge.net/DTD/sodipodi-0.dtd"
   xmlns:inkscape="http://www.inkscape.org/namespaces/inkscape"
   id="svg2886"
   version="1.1"
   viewBox="0 0 228.99396 165.89911"
   height="165.89911mm"
   width="228.99396mm"
   inkscape:version="1.0beta2 (2b71d25, 2019-12-03)"
   sodipodi:docname="Stabspiel3.svg">
  <defs
     id="defs2880" />
  <sodipodi:namedview
     fit-margin-bottom="0"
     fit-margin-right="0"
     fit-margin-left="0"
     fit-margin-top="0"
     id="base"
     pagecolor="#ffffff"
     bordercolor="#666666"
     borderopacity="1.0"
     inkscape:pageopacity="0.0"
     inkscape:pageshadow="2"
     inkscape:zoom="0.092306079"
     inkscape:cx="-884.21587"
     inkscape:cy="-1693.8378"
     inkscape:document-units="mm"
     inkscape:current-layer="g45"
     inkscape:document-rotation="0"
     showgrid="false"
     inkscape:window-width="1280"
     inkscape:window-height="755"
     inkscape:window-x="0"
     inkscape:window-y="23"
     inkscape:window-maximized="0"
     objecttolerance="1"
     guidetolerance="1" />
  <metadata
     id="metadata2883">
    <rdf:RDF>
      <cc:Work
         rdf:about="">
        <dc:format>image/svg+xml</dc:format>
        <dc:type
           rdf:resource="http://purl.org/dc/dcmitype/StillImage" />
        <dc:title></dc:title>
      </cc:Work>
    </rdf:RDF>
  </metadata>
  <g
     transform="translate(-137.42645,-241.54384)"
     inkscape:label="Ebene 1"
     inkscape:groupmode="layer"
     id="layer1">
    <g
       id="g45">
      <g
         id="g959">
        <path
           inkscape:connector-curvature="0"
           id="path4257"
           d="m 334.31254,277.35384 h 15.11145 l -4.89841,-16.78 h -14.3123 z m -18.89004,0 h 15.11218 l -4.34827,-18.714 h -14.22037 z m -37.79817,-0.295 h 15.0977 l -2.48721,-21.97 h -14.05026 z m -18.87267,0 h 15.0977 l -1.31092,-24.452 h -13.93227 z m -18.87194,0 h 15.0977 l 0.16215,-27.19 h -13.80198 z m -56.54778,-0.295 h 15.08394 l 5.86622,-31.763 h -13.56961 z m -18.85457,0 h 15.08394 l 8.60316,-35.22 h -13.40529 z m -27.05092,54.78 h 17.69421 l 13.70281,-49.999 h -15.31124 z m 207.47916,-49.999 h 15.31124 l 6.20355,19.281 h -16.23055 z m -19.13904,0 h 15.31123 l 5.37472,20.501 h -16.28846 z m -19.13978,0 h 15.31197 l 4.69789,23.193 h -16.4173 z m -19.13905,0 h 15.31124 l 3.75615,26.266 H 289.9916 Z m -19.13977,0 h 15.31196 l 2.3323,27.964 h -16.6446 z m -19.13905,0 h 15.31124 l 0.75644,31.727 h -16.82412 z m -19.13977,0 h 15.31196 l -1.28848,36.049 h -17.0297 z m -19.13905,0 h 15.31124 l -3.66494,38.449 h -17.14407 z m -19.13905,0 h 15.31124 l -6.35556,41.027 h -17.2664 z m -19.13977,0 h 15.31124 l -9.39363,43.8 h -17.3996 z m -19.13905,0 h 15.31124 l -13.70281,49.999 h -17.69421 z m 0,0 h 15.31124 l -13.70281,49.999 h -17.69421 z"
           style="color:#000000;font-style:normal;font-variant:normal;font-weight:normal;font-stretch:normal;font-size:medium;line-height:normal;font-family:sans-serif;font-variant-ligatures:normal;font-variant-position:normal;font-variant-caps:normal;font-variant-numeric:normal;font-variant-alternates:normal;font-variant-east-asian:normal;font-feature-settings:normal;font-variation-settings:normal;text-indent:0;text-align:start;text-decoration:none;text-decoration-line:none;text-decoration-style:solid;text-decoration-color:#000000;letter-spacing:normal;word-spacing:normal;text-transform:none;writing-mode:lr-tb;direction:ltr;text-orientation:mixed;dominant-baseline:auto;baseline-shift:baseline;text-anchor:start;white-space:normal;shape-padding:0;shape-margin:0;inline-size:0;clip-rule:nonzero;display:inline;overflow:visible;visibility:visible;isolation:auto;mix-blend-mode:normal;color-interpolation:sRGB;color-interpolation-filters:linearRGB;solid-color:#000000;solid-opacity:1;vector-effect:none;fill:#000000;fill-opacity:1;fill-rule:nonzero;stroke:none;stroke-width:0.829077;stroke-linecap:butt;stroke-linejoin:bevel;stroke-miterlimit:4;stroke-dasharray:none;stroke-dashoffset:0;stroke-opacity:1;color-rendering:auto;image-rendering:auto;shape-rendering:auto;text-rendering:auto;enable-background:accumulate;stop-color:#000000" />
        <path
           id="rect19"
           style="stroke-width:0.264583"
           d="m 159.16885,329.73736 h 10.78178 l 7.12843,77.70559 -11.98614,-2.7216 z"
           inkscape:connector-curvature="0"
           sodipodi:nodetypes="ccccc" />
        <path
           id="rect23"
           style="stroke-width:0.264583"
           d="m 342.27264,304.89232 h 10.78177 l -4.29756,82.37647 -10.78177,6.80141 z"
           inkscape:connector-curvature="0"
           sodipodi:nodetypes="ccccc" />
        <path
           id="rect25"
           style="stroke-width:0.264583"
           d="m 180.2198,328.28364 8.90265,-0.2743 0.77222,27.9388 -8.32862,5.15346 z"
           inkscape:connector-curvature="0"
           sodipodi:nodetypes="ccccc" />
        <path
           id="rect27"
           style="stroke-width:0.264583"
           d="m 324.56175,306.14057 8.88967,0.32228 -1.04807,36.44079 -8.66544,-3.68571 z"
           inkscape:connector-curvature="0"
           sodipodi:nodetypes="ccccc" />
      </g>
    </g>
  </g>
</svg>
