<svg xmlns="http://www.w3.org/2000/svg" viewBox="0 0 227.606 174.186" height="658.341" width="860.243">
    <defs>
    <style
       id="style833">
           @import url('https://fontlibrary.org/face/libertinus-sans');
           @import url('https://fontlibrary.org/face/libertinus-math')
       </style>
  </defs>
    <style><![CDATA[.B{stroke:#000}.C{stroke-linejoin:round}.D{fill-rule:evenodd}.E{overflow:visible}.F{fill-opacity:1}.G{stroke-width:.625}.H{stroke-opacity:1}.I{fill:none}.J{font-size:7.056px}.K{stroke-linejoin:bevel}.L{font-family:Libertinus sans}.M{fill:#000}.N{fill:#fff}.O{stroke-width:1.1}.P{fill:#a20324}.Q{stroke-width:1.5}.R{stroke-width:1.2}.S{stroke:#a20324}.T{stroke-width:.265}.U{font-family:Libertinus Math}.V{font-style:italic}]]></style><defs><marker orient="auto" refY="0" refX="0" id="A" class="E"><path d="M8.72 4.034L-2.207.016 8.72-4.002c-1.745 2.372-1.735 5.617 0 8.035z" transform="scale(.6)" class="C D F G H P S"/></marker><marker id="B" refX="0" refY="0" orient="auto" class="E"><path transform="matrix(-.3 0 0 -.3 .69 0)" d="M8.72 4.034L-2.207.016 8.72-4.002c-1.745 2.372-1.735 5.617 0 8.035z" class="B C D F G H M"/></marker><marker orient="auto" refY="0" refX="0" id="C" class="E"><path d="M8.72 4.034L-2.207.016 8.72-4.002c-1.745 2.372-1.735 5.617 0 8.035z" transform="matrix(-.3 0 0 -.3 .69 0)" class="B C D F G H M"/></marker><marker id="D" refX="0" refY="0" orient="auto" class="E"><path transform="matrix(-.3 0 0 -.3 .69 0)" d="M8.72 4.034L-2.207.016 8.72-4.002c-1.745 2.372-1.735 5.617 0 8.035z" class="B C D F G H M"/></marker><marker id="E" refX="0" refY="0" orient="auto" class="E"><path transform="matrix(-.3 0 0 -.3 .69 0)" d="M8.72 4.034L-2.207.016 8.72-4.002c-1.745 2.372-1.735 5.617 0 8.035z" class="B C D F G H M"/></marker><marker orient="auto" refY="0" refX="0" id="F" class="E"><path d="M8.72 4.034L-2.207.016 8.72-4.002c-1.745 2.372-1.735 5.617 0 8.035z" transform="matrix(-.3 0 0 -.3 .69 0)" class="B C D F G H M"/></marker><marker orient="auto" refY="0" refX="0" id="G" class="E"><path d="M8.72 4.034L-2.207.016 8.72-4.002c-1.745 2.372-1.735 5.617 0 8.035z" transform="matrix(-.3 0 0 -.3 .69 0)" class="B C D F G H M"/></marker><marker id="H" refX="0" refY="0" orient="auto" class="E"><path transform="matrix(-.3 0 0 -.3 .69 0)" d="M8.72 4.034L-2.207.016 8.72-4.002c-1.745 2.372-1.735 5.617 0 8.035z" class="B C D F G H M"/></marker><marker orient="auto" refY="0" refX="0" id="I" class="E"><path d="M8.72 4.034L-2.207.016 8.72-4.002c-1.745 2.372-1.735 5.617 0 8.035z" transform="matrix(-.3 0 0 -.3 .69 0)" class="B C D F G H M"/></marker><marker orient="auto" refY="0" refX="0" id="J" class="E"><path d="M8.72 4.034L-2.207.016 8.72-4.002c-1.745 2.372-1.735 5.617 0 8.035z" transform="matrix(-.3 0 0 -.3 .69 0)" class="B C D F G H M"/></marker><marker orient="auto" refY="0" refX="0" id="K" class="E"><path d="M8.72 4.034L-2.207.016 8.72-4.002c-1.745 2.372-1.735 5.617 0 8.035z" transform="scale(-.6)" class="C D F G H P S"/></marker><clipPath id="L"><path d="M69.124 85.644h59.07v27.527h-59.07zm32.952 10.094l.61 2.88 1.77.5 2.505-1.97z" class="D"/></clipPath></defs><g transform="translate(27.002 -28.157)"><g class="B N K"><g class="Q"><path d="M135.124 127.524l10.278 3.1-.5-10.048-6.732-1.86z"/><path d="M138.18 118.716l29.248-18.2 6.732 1.86-29.248 18.2z"/><path d="M145.402 130.624l29.248-18.2-.5-10.048-29.248 18.2.5 10.048"/></g><path d="M142.472 117.846l28.268-17.655 1.638.46-28.005 17.786z" class="R"/></g><g class="I B R"><path d="M142.472 117.846l-2.128 1.056 3.193 1.064.835-1.53"/><path d="M172.474 100.552l1.686 1.825" class="K"/></g><g class="N B K"><path d="M74.464 95.266l40.86 12.223v14.444L74.464 109.7z" stroke-width="1.738"/><g class="Q"><path clip-path="url(#L)" d="M74.464 95.266l7.65-3.903 40.738 12.186-7.65 3.903-11.835-3.54z"/><path d="M115.445 107.33l-.122 14.602 7.65-3.903.122-14.602z"/></g></g><path d="M96.876 101.25l.223 12.932 2.174.725 2.275-12.46 4.6-3.182-3.712-1.106z" class="B T"/><g stroke-width=".8" class="N B"><path d="M94.112 110.923l3.004-2.462 1.09-3.914 2.323-1.86 1.91-1.514-1.648-.687-4.39 3.242-1.355 4.207-2.662 2.166z"/><path d="M93.92 114.99l5.253-4.302 1.972-8.32-2.885 2.072-1.4 4.294-3.645 3.3s.538 3.124.706 2.957z"/></g><path d="M60.2 57.344L46.326 68.672" marker-end="url(#I)" class="B I O"/><g class="N Q B"><path d="M44.51 173.213l-46.493-14.427 4.907-7.137 3.345-2.007 5.8-.67L58.562 163.4l-5.8.67-3.345 2.007z"/><g class="K"><path d="M44.51 173.213l4.907-7.137 3.345-2.007 5.8-.67v2.9l-14.05 10.036z"/><path d="M-2.115 158.653l46.627 14.56v3.122l-46.493-14.427z"/></g><path d="M-25.806 193.898l8.555-7.67 4.427-1.94 28.908-20.78 5.173-1.433 39.966-28.156c9.636-7.338 16.852-12.04 25.214-18.553l9.417 2.797c-9.468 7.007-15.92 10.832-26.647 18.453L29.56 165.072l-5.103 1.133-29.09 20.88 1.25 1.762-9.808 8.1z" class="C"/><g class="K"><path d="M-26.252 187.015l.288 10.305 12.95 4.06-.177-10.785zm21.62-6.28v6.35l29.1-20.88 4.293-.12 67.1-47.92v-8.637L73.448 124.85l-4.242 5.416L37.3 152.603l-5.103 1.133z"/><path d="M-13.19 190.596V201.8l9.808-9.326v-9.976z"/></g><path d="M-26.252 187.015l8.792-5.68 4.636-3.396 37.604-26.9 5.173-1.433 31.27-22.037 4.36-5.417 19.8-15.424 10.472 2.797-22.405 15.324-4.242 5.416-30.95 22.337-5.103 1.133-37.787 27 1.25 1.762-9.808 8.1z" class="C"/></g><g transform="matrix(.997318 -.073192 0 1 0 0)"><ellipse ry="1.271" rx="2.25" cy="155.502" cx="27.011" fill-opacity="0"/><rect ry="1.977" y="152.961" x="24.629" height="4.66" width="3.705"/><ellipse ry=".838" rx="1.106" cy="154.21" cx="26.479" class="N"/></g><g class="B"><g class="K"><path d="M88.667 89.7l1.676.586-4.693 2.44-1.722-.628zm-4.645 2.728l.386 19.868.886.327-.175-.132.626-19.557z" stroke-width=".8" class="N"/><path d="M77.193 100.253l4.895-3.92-1.175 15.458-4.213 3.927z" transform="matrix(.994581 .546956 0 1.302386 8.878822 -79.73976)" class="T"/></g><g stroke-width="2"><path d="M9.507 67.626l47.68 13.88m1.9.553l1.825.53m1.58.46l68.037 19.808m1.612.47l1.712.498m1.644.48l41.22 12" class="I"/><path d="M7.815 63.135c.918 0 1.656.98 1.656 2.2V79.49c0 1.22-.74 2.2-1.656 2.2s-1.656-.98-1.656-2.2V65.336c0-1.22.74-2.2 1.656-2.2z" class="C N"/></g></g><text y="33.082" x="-11.027" xml:space="preserve" class="J L"><tspan y="33.082" x="-11.027">Anhängestift</tspan></text><text y="54.885" x="57.391" xml:space="preserve" class="J L"><tspan y="54.885" x="57.391">Dämpfung</tspan></text><g class="B"><path d="M40.093 70.055l6.355 1.305-6.763 3.23c-1.64.244-3.653-1.108-4.824 1.124l-10.758 4.1-6.355-1.412L30 73.647c1.488-1.21 3.083-1.242 4.694-1.094z" class="N Q"/><path d="M7.8 37.593v21.803" marker-end="url(#J)" class="I O"/><g class="N"><g class="K R"><ellipse ry="1.399" rx="1.866" cy="136.289" cx="179.062"/><ellipse cx="179.062" cy="134.702" rx="1.866" ry="1.399"/><ellipse ry="1.399" rx="1.866" cy="131.527" cx="179.062"/><ellipse ry="1.399" rx="1.866" cy="133.115" cx="179.062"/><ellipse cx="179.062" cy="131.527" rx="1.866" ry="1.399"/></g><path d="M179.076 110.04c1.22 0 2.2.98 2.2 2.2v16.33c0 1.22-.98 2.2-2.2 2.2s-2.2-.98-2.2-2.2v-16.33c0-1.22.98-2.2 2.2-2.2z" stroke-width="2" class="C"/></g><path d="M115.486 73.634v21.803" marker-end="url(#H)" class="I O"/></g><text xml:space="preserve" x="107.761" y="71.299" class="J L"><tspan x="107.761" y="71.299">Saite</tspan></text><path d="M112.517 147.256v-21.803" marker-end="url(#G)" class="B I O"/><text xml:space="preserve" x="107.676" y="154.692" class="J L"><tspan x="107.676" y="154.692">Führungsrechen</tspan></text><path d="M172.347 73.5v21.803" marker-end="url(#F)" class="B I O"/><text y="70.355" x="165.817" xml:space="preserve" class="J L"><tspan y="70.355" x="165.817">Steg</tspan></text><path d="M179.08 166.744V144.94" marker-end="url(#E)" class="B I O"/><text xml:space="preserve" x="163.546" y="177.653" class="J L"><tspan x="163.546" y="177.653">Stimmstift</tspan></text><text xml:space="preserve" x="18.969" y="114.113" class="J L"><tspan x="18.969" y="114.113">Tangente</tspan></text><path d="M48.38 112.456l25.72-2.14" marker-end="url(#D)" class="B I O"/><text y="197.401" x="29.485" xml:space="preserve" class="J L"><tspan y="197.401" x="29.485">Taste</tspan></text><g class="B I O"><path d="M26.652 195.745l-25.72-2.14" marker-end="url(#C)"/><path d="M84.018 175.745l-25.72-2.14" marker-end="url(#B)"/></g><text xml:space="preserve" x="88.816" y="178.137" class="J L"><tspan x="88.816" y="178.137">Waagebalken</tspan></text><g stroke-dasharray="3, 3" class="I S"><path d="M130.728 69.77L89.542 90.682"/><path d="M190.952 85.64l-56.8-15.33" marker-start="url(#A)" marker-end="url(#K)"/><path d="M178.286 98.368l17.352-10.926"/></g><text xml:space="preserve" x="130.32" y="64.42" class="J P U"><tspan x="130.32" y="64.42" font-weight="bold" class="V">a</tspan></text><text xml:space="preserve" x="197.013" y="82.774" class="J P U"><tspan x="197.013" y="82.774" font-weight="bold" class="V">b</tspan></text></g></svg>