<?xml version="1.0" encoding="UTF-8" standalone="no"?>
<svg
   xmlns:dc="http://purl.org/dc/elements/1.1/"
   xmlns:cc="http://creativecommons.org/ns#"
   xmlns:rdf="http://www.w3.org/1999/02/22-rdf-syntax-ns#"
   xmlns:svg="http://www.w3.org/2000/svg"
   xmlns="http://www.w3.org/2000/svg"
   xmlns:sodipodi="http://sodipodi.sourceforge.net/DTD/sodipodi-0.dtd"
   xmlns:inkscape="http://www.inkscape.org/namespaces/inkscape"
   width="205.39265mm"
   height="123.50331mm"
   viewBox="0 0 205.39265 123.50331"
   version="1.1"
   id="svg1699"
   inkscape:version="1.0beta2 (2b71d25, 2019-12-03)"
   sodipodi:docname="Maracas.svg">
  <defs
     id="defs1693" />
  <sodipodi:namedview
     fit-margin-bottom="0"
     fit-margin-right="0"
     fit-margin-left="0"
     fit-margin-top="0"
     showguides="false"
     guidetolerance="1"
     objecttolerance="1"
     id="base"
     pagecolor="#ffffff"
     bordercolor="#666666"
     borderopacity="1.0"
     inkscape:pageopacity="0.0"
     inkscape:pageshadow="2"
     inkscape:zoom="0.12577984"
     inkscape:cx="-426.06321"
     inkscape:cy="-11.98794"
     inkscape:document-units="mm"
     inkscape:current-layer="layer3"
     inkscape:document-rotation="0"
     showgrid="false"
     inkscape:window-width="1280"
     inkscape:window-height="755"
     inkscape:window-x="-21"
     inkscape:window-y="23"
     inkscape:window-maximized="0" />
  <metadata
     id="metadata1696">
    <rdf:RDF>
      <cc:Work
         rdf:about="">
        <dc:format>image/svg+xml</dc:format>
        <dc:type
           rdf:resource="http://purl.org/dc/dcmitype/StillImage" />
        <dc:title></dc:title>
      </cc:Work>
    </rdf:RDF>
  </metadata>
  <g
     transform="translate(11.015096,-153.73671)"
     inkscape:label="Ebene 1"
     inkscape:groupmode="layer"
     id="layer1" />
  <g
     transform="translate(11.015096,-153.73671)"
     inkscape:groupmode="layer"
     id="layer3"
     inkscape:label="Maracas 2">
    <g
       id="g880">
      <path
         sodipodi:nodetypes="csssc"
         inkscape:connector-curvature="0"
         d="m 189.75715,171.34008 c -6.21477,-14.8013 -29.4798,-20.2695 -51.96388,-12.21356 -22.48409,8.05594 -35.78111,26.63127 -29.4582,41.38669 6.4384,15.02492 33.89423,20.23555 55.07773,10.87904 21.84751,-9.6498 32.55911,-25.25087 26.34435,-40.05217"
         style="fill:#000000;stroke-width:0.225763;stroke-linejoin:bevel"
         id="path1715-5" />
      <path
         sodipodi:nodetypes="ccccsccccccccc"
         inkscape:connector-curvature="0"
         id="path2301"
         d="m 113.44715,176.01423 -9.15109,10.36929 -4.68536,4.31053 c -6.751511,4.01774 -12.667905,5.87703 -20.240744,7.9651 -11.949214,2.54624 -24.240664,5.08097 -37.796527,7.80128 -3.286557,0.65953 -6.7828,1.30742 -9.99412,2.3191 -14.403886,4.32594 -22.4750427,7.82248 -31.29818755,13.30641 0.0167925,3.42851 0.96008335,6.60434 2.71750725,9.55813 8.3639363,-0.15605 16.1398853,-1.56614 24.7386873,-3.09233 10.493269,-2.36259 20.039432,-5.69448 29.986287,-9.55813 8.197242,-3.56941 16.575374,-6.41525 25.113516,-8.62106 7.456687,-2.42753 15.011486,-3.24672 22.583421,-3.09234 4.23658,0.0468 8.01419,0.84383 12.25078,3.08851 z"
         style="fill:#000000;fill-opacity:1;stroke:#000000;stroke-width:0.264583px;stroke-linecap:butt;stroke-linejoin:miter;stroke-opacity:1" />
      <path
         style="fill:#ffffff;fill-opacity:1;stroke:#000000;stroke-width:1.5;stroke-linecap:butt;stroke-linejoin:miter;stroke-miterlimit:4;stroke-dasharray:none;stroke-opacity:1"
         d="m 147.96212,157.09401 14.22298,54.74958 c 8.09481,-3.06129 14.88399,-8.5174 20.30422,-13.98943 1.37549,-17.4464 -2.29945,-31.25274 -14.00583,-40.80613 -5.45012,-0.95983 -14.17042,-1.55685 -20.52137,0.046 z"
         id="path849"
         inkscape:connector-curvature="0"
         sodipodi:nodetypes="ccccc" />
      <path
         style="fill:#000000;fill-opacity:1;stroke:#000000;stroke-width:0.264583px;stroke-linecap:butt;stroke-linejoin:miter;stroke-opacity:1"
         d="m 124.14953,165.94701 15.53518,50.08621 c 7.71543,-0.10477 15.27701,-1.1326 22.50039,-4.18963 7.53528,-23.31326 -0.91784,-41.47072 -14.43276,-55.28482 -8.43668,1.87301 -16.15158,4.80525 -23.60281,9.38824 z"
         id="path847"
         inkscape:connector-curvature="0"
         sodipodi:nodetypes="ccccc" />
      <path
         style="fill:#ffffff;fill-opacity:1;stroke:#00000f;stroke-width:1.5;stroke-linecap:butt;stroke-linejoin:miter;stroke-miterlimit:4;stroke-dasharray:none;stroke-opacity:1"
         d="m 105.82166,185.50188 c 6.71727,4.38481 7.73749,12.34478 7.00111,22.84541 1.5101,0.50733 2.84237,1.12356 4.08178,1.84255 7.49627,4.34866 15.0804,5.64312 22.78016,5.84338 8.76389,-25.63716 -4.9302,-47.41845 -14.76717,-49.83029 -3.92937,2.31535 -9.99472,8.36395 -19.09588,19.29895 z"
         id="path22"
         inkscape:connector-curvature="0"
         sodipodi:nodetypes="ccsccc" />
    </g>
    <g
       style="stroke:#000000;stroke-opacity:1"
       transform="matrix(0.8226845,0.76946711,-0.80418356,0.78716935,173.65231,-20.493893)"
       id="g868">
      <path
         id="path858"
         style="opacity:1;fill:#ffffff;fill-opacity:1;stroke:#000000;stroke-width:1.33389;stroke-linejoin:bevel;stroke-miterlimit:4;stroke-dasharray:none;stroke-opacity:1"
         transform="matrix(0.94139782,-0.33729829,-0.38713869,-0.92202149,0,0)"
         d="m 108.78333,-225.62653 c 0,16.05309 -19.361581,29.0667 -43.245305,29.0667 -23.883725,0 -43.362946,-13.02032 -43.245308,-29.0667 0.119786,-16.33944 23.450768,-30.52581 46.637835,-28.86039 23.913869,1.71763 39.852768,12.8073 39.852778,28.86039"
         inkscape:connector-curvature="0"
         sodipodi:nodetypes="csssc" />
      <path
         style="opacity:1;fill:#ffffff;fill-opacity:1;stroke:#000000;stroke-width:1.33293;stroke-linecap:butt;stroke-linejoin:miter;stroke-miterlimit:4;stroke-dasharray:none;stroke-opacity:1"
         d="m 113.44715,176.01423 -9.15109,10.36929 -4.68536,4.31053 c -6.751511,4.01774 -12.667905,5.87703 -20.240744,7.9651 -11.949214,2.54624 -24.240664,5.08097 -37.796527,7.80128 -3.286557,0.65953 -6.7828,1.30742 -9.99412,2.3191 -14.403886,4.32594 -22.4750427,7.82248 -31.29818755,13.30641 0.0167925,3.42851 0.96008335,6.60434 2.71750725,9.55813 8.3639363,-0.15605 16.1398853,-1.56614 24.7386873,-3.09233 10.493269,-2.36259 20.039432,-5.69448 29.986287,-9.55813 8.197242,-3.56941 16.575374,-6.41525 25.113516,-8.62106 7.456687,-2.42753 15.011486,-3.24672 22.583421,-3.09234 4.23658,0.0468 8.01419,0.84383 12.25078,3.08851 z"
         id="path860"
         inkscape:connector-curvature="0"
         sodipodi:nodetypes="ccccsccccccccc" />
      <path
         sodipodi:nodetypes="ccccc"
         inkscape:connector-curvature="0"
         id="path862"
         d="m 147.83069,156.50256 14.35441,55.34103 c 8.09481,-3.06129 14.94971,-7.72879 20.36994,-13.20082 1.37549,-17.4464 -2.56232,-32.69852 -14.2687,-42.25191 -5.45012,-0.95983 -14.1047,-1.49113 -20.45565,0.1117 z"
         style="fill:#000000;fill-opacity:1;stroke:#000000;stroke-width:0.264583px;stroke-linecap:butt;stroke-linejoin:miter;stroke-opacity:1" />
      <path
         sodipodi:nodetypes="ccccc"
         inkscape:connector-curvature="0"
         id="path864"
         d="m 124.14953,165.94701 15.53518,50.08621 c 7.71543,-0.10477 15.27701,-1.1326 22.50039,-4.18963 7.53528,-23.31326 -0.91784,-41.47072 -14.43276,-55.28482 -8.43668,1.87301 -16.15158,4.80525 -23.60281,9.38824 z"
         style="fill:#ffffff;fill-opacity:1;stroke:#000000;stroke-width:0.264583px;stroke-linecap:butt;stroke-linejoin:miter;stroke-opacity:1" />
      <path
         sodipodi:nodetypes="ccsccc"
         inkscape:connector-curvature="0"
         id="path866"
         d="m 105.2488,185.11998 c 6.71727,4.38481 8.31035,12.72668 7.57397,23.22731 1.5101,0.50733 2.84237,1.12356 4.08178,1.84255 7.49627,4.34866 15.0804,5.64312 22.78016,5.84338 8.76389,-25.63716 -5.59853,-47.70488 -15.4355,-50.11672 -3.92937,2.31535 -9.89925,8.26848 -19.00041,19.20348 z"
         style="fill:#000000;fill-opacity:1;stroke:#000000;stroke-width:0.264583px;stroke-linecap:butt;stroke-linejoin:miter;stroke-opacity:1" />
    </g>
  </g>
  <g
     transform="translate(11.015096,-153.73671)"
     inkscape:groupmode="layer"
     id="layer2"
     inkscape:label="Maracas"
     style="display:none">
    <ellipse
       transform="matrix(0.8720211,0.48946829,-0.54374664,0.83924942,0,0)"
       ry="32.826302"
       rx="50.032143"
       cy="138.04425"
       cx="255.24982"
       id="path1715"
       style="opacity:0.294798;fill:#000000;stroke-width:0.258245;stroke-linejoin:bevel" />
  </g>
</svg>
