<?xml version="1.0" encoding="UTF-8" standalone="no"?>
<!-- Created with Inkscape (http://www.inkscape.org/) -->

<svg
   width="210mm"
   height="297mm"
   viewBox="0 0 210 297"
   version="1.1"
   id="svg1270"
   inkscape:version="1.1-dev (0486c1a, 2020-10-10)"
   sodipodi:docname="Schwingungen_konisch.svg"
   xmlns:inkscape="http://www.inkscape.org/namespaces/inkscape"
   xmlns:sodipodi="http://sodipodi.sourceforge.net/DTD/sodipodi-0.dtd"
   xmlns:xlink="http://www.w3.org/1999/xlink"
   xmlns="http://www.w3.org/2000/svg"
   xmlns:svg="http://www.w3.org/2000/svg">
  <defs
     id="defs1266">
    <linearGradient
       inkscape:collect="always"
       id="linearGradient2013">
      <stop
         style="stop-color:#00b6ff;stop-opacity:1;"
         offset="0"
         id="stop2009" />
      <stop
         style="stop-color:#00b6ff;stop-opacity:0;"
         offset="1"
         id="stop2011" />
    </linearGradient>
    <linearGradient
       inkscape:collect="always"
       id="linearGradient2003">
      <stop
         style="stop-color:#00b6ff;stop-opacity:1;"
         offset="0"
         id="stop1999" />
      <stop
         style="stop-color:#00b6ff;stop-opacity:0;"
         offset="1"
         id="stop2001" />
    </linearGradient>
    <linearGradient
       inkscape:collect="always"
       id="linearGradient1995">
      <stop
         style="stop-color:#00b6ff;stop-opacity:1;"
         offset="0"
         id="stop1991" />
      <stop
         style="stop-color:#00b6ff;stop-opacity:0;"
         offset="1"
         id="stop1993" />
    </linearGradient>
    <linearGradient
       inkscape:collect="always"
       id="linearGradient908">
      <stop
         style="stop-color:#00b6ff;stop-opacity:1"
         offset="0"
         id="stop904" />
      <stop
         style="stop-color:#a6e8ff;stop-opacity:0.44705883"
         offset="1"
         id="stop906" />
    </linearGradient>
    <linearGradient
       inkscape:collect="always"
       xlink:href="#linearGradient908"
       id="linearGradient1820"
       x1="-0.068673752"
       y1="0.1322915"
       x2="200.0002"
       y2="0.1322915"
       gradientUnits="userSpaceOnUse" />
    <linearGradient
       inkscape:collect="always"
       xlink:href="#linearGradient908"
       id="linearGradient1895"
       gradientUnits="userSpaceOnUse"
       x1="-0.068673752"
       y1="0.1322915"
       x2="200.0002"
       y2="0.1322915" />
    <linearGradient
       inkscape:collect="always"
       xlink:href="#linearGradient908"
       id="linearGradient1897"
       gradientUnits="userSpaceOnUse"
       x1="-0.068673752"
       y1="0.1322915"
       x2="200.0002"
       y2="0.1322915" />
    <linearGradient
       inkscape:collect="always"
       xlink:href="#linearGradient908"
       id="linearGradient1909"
       x1="-2.5808234"
       y1="0.060790632"
       x2="376.96994"
       y2="0.060790632"
       gradientUnits="userSpaceOnUse"
       gradientTransform="matrix(0.13274434,0,0,0.02237266,5.2864691,37.249213)" />
    <linearGradient
       inkscape:collect="always"
       xlink:href="#linearGradient908"
       id="linearGradient1952"
       x1="5.3091855"
       y1="37.252438"
       x2="54.96172"
       y2="37.252438"
       gradientUnits="userSpaceOnUse" />
    <linearGradient
       inkscape:collect="always"
       xlink:href="#linearGradient908"
       id="linearGradient1960"
       x1="55.647591"
       y1="37.24786"
       x2="95.119316"
       y2="37.24786"
       gradientUnits="userSpaceOnUse" />
    <linearGradient
       inkscape:collect="always"
       xlink:href="#linearGradient1995"
       id="linearGradient1997"
       x1="-138.36399"
       y1="458.49682"
       x2="-14.009284"
       y2="458.49682"
       gradientUnits="userSpaceOnUse"
       gradientTransform="matrix(0.26458333,0,0,0.26458333,41.979683,-61.389644)" />
    <linearGradient
       inkscape:collect="always"
       xlink:href="#linearGradient2003"
       id="linearGradient2005"
       x1="-11.627448"
       y1="458.62525"
       x2="110.86175"
       y2="458.62525"
       gradientUnits="userSpaceOnUse"
       gradientTransform="matrix(0.26458333,0,0,0.26458333,41.979683,-61.389644)" />
    <linearGradient
       inkscape:collect="always"
       xlink:href="#linearGradient2013"
       id="linearGradient2015"
       x1="116.13857"
       y1="458.57431"
       x2="207.42032"
       y2="458.57431"
       gradientUnits="userSpaceOnUse"
       gradientTransform="matrix(0.26458333,0,0,0.26458333,41.979683,-61.389644)" />
  </defs>
  <sodipodi:namedview
     id="base"
     pagecolor="#ffffff"
     bordercolor="#666666"
     borderopacity="1.0"
     inkscape:pageopacity="0.0"
     inkscape:pageshadow="2"
     inkscape:zoom="0.35"
     inkscape:cx="398.57143"
     inkscape:cy="561.42857"
     inkscape:document-units="mm"
     inkscape:current-layer="layer1"
     showgrid="false"
     inkscape:window-width="1256"
     inkscape:window-height="755"
     inkscape:window-x="109"
     inkscape:window-y="282"
     inkscape:window-maximized="0" />
  <g
     inkscape:label="Ebene 1"
     inkscape:groupmode="layer"
     id="layer1">
    <g
       id="g1833"
       transform="matrix(0.50157726,0,0,0.13413912,4.4958388,16.53374)">
      <g
         id="g1804"
         style="fill:url(#linearGradient1820);fill-opacity:1;stroke:#000000;stroke-opacity:1">
        <path
           style="fill:url(#linearGradient1895);fill-opacity:1;stroke:#000000;stroke-width:0.164773px;stroke-linecap:butt;stroke-linejoin:miter;stroke-opacity:1"
           d="M 0,0 C 0,0 6.379243,9.6254818 10,14.112 C 13.099409,17.952511 16.372013,21.684321 20,25.03 C 23.10334,27.891856 26.414469,30.572793 30,32.801 C 33.125954,34.743605 36.45811,36.41113 39.935,37.618 C 43.180422,38.744524 46.594906,39.651572 50,39.834339 C 53.088423,40.000109 56.911074,39.973317 60,39.645 C 63.628151,39.25937 66.452139,38.422892 70,37.642 C 73.438849,36.885101 76.716646,35.510072 80,34.238 C 83.390795,32.924303 86.698445,31.402146 90,29.878 C 93.367278,28.323514 96.674615,26.642193 100,25 C 103.3414,23.349899 106.65234,21.638356 110,20.001 C 113.31938,18.377479 116.63548,16.744766 120,15.217 C 123.30402,13.716704 126.62669,12.252242 130,10.915 C 133.297,9.6080098 136.62642,8.3752631 140,7.281 C 143.29801,6.2112488 146.63332,5.2476561 150,4.419 C 153.30522,3.6054727 156.64407,2.9202488 160,2.351 C 163.31529,1.7886451 166.65472,1.3632331 170,1.022 C 173.32454,0.6828824 176.66231,0.47463876 180,0.309 C 183.33054,0.14371592 186.66549,0.05845099 190,0.029 C 196.95038,0.09757053 192.9111,0.14963282 200,0.1322915"
           id="path1250"
           sodipodi:nodetypes="caaaasssaaaaaaaaaaacc" />
        <path
           style="fill:url(#linearGradient1897);fill-opacity:1;stroke:#000000;stroke-width:0.164773px;stroke-linecap:butt;stroke-linejoin:miter;stroke-opacity:1"
           d="M 0,0.2645835 C 0,0.2645835 6.379243,-9.3608985 10,-13.847416 C 13.099409,-17.687927 16.372013,-21.419737 20,-24.765416 C 23.10334,-27.627272 26.414469,-30.30821 30,-32.536417 C 33.125954,-34.479022 36.45811,-36.146547 39.935,-37.353417 C 43.180422,-38.479941 46.594906,-39.386989 50,-39.569756 C 53.088423,-39.735526 56.911074,-39.708734 60,-39.380417 C 63.628151,-38.994787 66.452139,-38.158309 70,-37.377417 C 73.438849,-36.620518 76.716646,-35.245489 80,-33.973417 C 83.390795,-32.65972 86.698445,-31.137563 90,-29.613416 C 93.367278,-28.05893 96.674615,-26.377609 100,-24.735416 C 103.3414,-23.085315 106.65234,-21.373772 110,-19.736416 C 113.31938,-18.112895 116.63548,-16.480182 120,-14.952416 C 123.30402,-13.45212 126.62669,-11.987658 130,-10.650416 C 133.297,-9.3434265 136.62642,-8.1106805 140,-7.0164165 C 143.29801,-5.9466655 146.63332,-4.9830735 150,-4.1544165 C 153.30522,-3.3408895 156.64407,-2.6556655 160,-2.0864165 C 163.31529,-1.5240625 166.65472,-1.0986505 170,-0.7574165 C 173.32454,-0.4182995 176.66231,-0.2100555 180,-0.0444165 C 183.33054,0.1208675 186.66549,0.2061325 190,0.2355835 C 196.95038,0.1670125 192.9111,0.1149505 200,0.1322915"
           id="path1800"
           sodipodi:nodetypes="caaaasssaaaaaaaaaaacc" />
      </g>
    </g>
    <path
       style="fill:none;stroke:#000000;stroke-width:0.0331207px;stroke-linecap:butt;stroke-linejoin:miter;stroke-opacity:1"
       d="M 5.2864692,37.249213 C 5.2864692,37.249213 8.3431912,38.840503 10.303579,39.607453 C 11.766701,40.179853 13.210811,40.763243 15.32069,41.275113 C 16.727962,41.616513 18.211385,41.981133 20.337798,42.191793 C 21.821031,42.338733 23.642639,42.424403 25.354907,42.396103 C 27.188191,42.365783 28.851736,42.180923 30.372016,42.005603 C 32.28989,41.784433 33.821208,41.478863 35.389126,41.189783 C 37.188443,40.858043 38.757781,40.492803 40.406236,40.139493 C 42.103451,39.775723 43.699672,39.398673 45.423345,39.038463 C 47.04827,38.698893 48.655754,38.355543 50.440454,38.039573 C 52.018848,37.760133 53.642721,37.484353 55.457561,37.249213 C 57.021625,37.046543 58.683096,36.859263 60.47467,36.720033 C 62.066805,36.596323 63.766165,36.506183 65.491785,36.453933 C 67.139915,36.404053 68.835849,36.399343 70.508889,36.411163 C 72.194979,36.423053 73.865897,36.474293 75.526002,36.525393 C 77.214476,36.577363 78.873258,36.653803 80.543107,36.720713 C 82.218074,36.787843 83.879254,36.864823 85.560216,36.927543 C 87.224878,36.989653 88.893925,37.049743 90.577331,37.095313 C 92.241029,37.140333 93.915771,37.174863 95.594436,37.199483 C 97.262684,37.223963 98.937721,37.234413 100.61155,37.242693 C 102.28325,37.250983 105.62865,37.249213 105.62865,37.249213"
       id="path1252"
       sodipodi:nodetypes="caaaaaaaaaaaaaaaaaaac" />
    <path
       style="fill:none;stroke:#000000;stroke-width:0.0331207px;stroke-linecap:butt;stroke-linejoin:miter;stroke-opacity:1"
       d="M 5.2864692,37.249213 C 5.2864692,37.249213 8.3431912,35.657913 10.303579,34.890963 C 11.766701,34.318563 13.210811,33.735163 15.32069,33.223303 C 16.727962,32.881893 18.211385,32.517283 20.337798,32.306623 C 21.821031,32.159683 23.642639,32.074013 25.354907,32.102323 C 27.188191,32.132623 28.851736,32.317493 30.372016,32.492813 C 32.28989,32.713983 33.821208,33.019553 35.389126,33.308633 C 37.188443,33.640373 38.757781,34.005613 40.406236,34.358923 C 42.103451,34.722683 43.699672,35.099743 45.423345,35.459953 C 47.04827,35.799513 48.655754,36.142873 50.440454,36.458843 C 52.018848,36.738273 53.642721,37.014063 55.457561,37.249213 C 57.021625,37.451873 58.683096,37.639153 60.47467,37.778363 C 62.066805,37.902093 63.766165,37.992233 65.491785,38.044483 C 67.139915,38.094363 68.835849,38.099073 70.508889,38.087253 C 72.194979,38.075363 73.865897,38.024123 75.526002,37.973023 C 77.214476,37.921053 78.873258,37.844613 80.543107,37.777693 C 82.218074,37.710563 83.879254,37.633593 85.560216,37.570873 C 87.224878,37.508763 88.893925,37.448673 90.577331,37.403093 C 92.241029,37.358083 93.915771,37.323543 95.594436,37.298933 C 97.262684,37.274453 98.937721,37.264003 100.61155,37.255713 C 102.28325,37.247443 105.62865,37.249213 105.62865,37.249213"
       id="path1899"
       sodipodi:nodetypes="caaaaaaaaaaaaaaaaaaac" />
    <path
       style="opacity:1;fill:url(#linearGradient1909);fill-opacity:1;stroke:url(#linearGradient1952);stroke-width:0.508798;stroke-linecap:round;stroke-linejoin:round;stroke-opacity:1"
       d="M 21.447833,42.231613 C 17.133766,41.912983 12.214356,40.475013 7.3584119,38.113143 L 5.5635516,37.240153 L 7.3634882,36.376213 C 13.49957,33.431003 18.687578,32.156833 24.543482,32.156833 C 28.587424,32.156833 32.733728,32.784403 41.993829,34.798043 C 45.379291,35.534233 49.624817,36.386913 51.428331,36.692883 L 54.707447,37.249213 L 51.428331,37.805353 C 49.624817,38.111233 45.379291,38.963903 41.993829,39.700183 C 30.964717,42.098833 26.724221,42.621283 21.447833,42.231613 Z"
       id="path1901" />
    <path
       style="opacity:1;fill:url(#linearGradient1960);fill-opacity:1;stroke:none;stroke-width:0.509;stroke-linecap:round;stroke-linejoin:round;stroke-opacity:1;stroke-miterlimit:4;stroke-dasharray:none"
       d="M 64.961129,37.964243 C 62.146968,37.857573 59.701238,37.676173 57.178394,37.387043 L 55.901781,37.240733 L 58.349507,36.991323 C 64.975795,36.316163 68.568286,36.296083 82.579944,36.855893 C 86.315793,37.005163 90.848005,37.159103 92.651519,37.197993 C 95.089167,37.250563 95.449797,37.271533 94.056851,37.279733 C 92.15314,37.290933 87.771292,37.436843 78.733094,37.789973 C 72.025907,38.052033 68.465696,38.097083 64.961129,37.964243 Z"
       id="path1911" />
    <path
       style="fill:none;stroke:#000000;stroke-width:0.031129px;stroke-linecap:butt;stroke-linejoin:miter;stroke-opacity:1"
       d="M 5.1650102,59.939106 C 5.1650102,59.939106 8.0099432,62.000526 10.182053,62.999606 C 11.547617,63.627696 12.292532,64.335316 15.199096,64.833896 C 16.46801,65.051556 18.299448,65.309846 20.216139,65.269406 C 22.616153,65.218766 23.860421,64.783106 25.233181,64.485666 C 27.444023,64.006636 28.679197,63.442176 30.250225,62.910106 C 32.039418,62.304136 33.502061,61.677666 35.267268,61.070146 C 36.856812,60.523086 38.307133,59.963746 40.284311,59.445446 C 41.742517,59.063196 43.134626,58.657206 45.301354,58.358556 C 46.719596,58.163076 48.412301,57.973416 50.318397,57.925846 C 51.99889,57.883906 53.766238,57.972856 55.33544,58.071726 C 57.211587,58.189946 58.743255,58.405386 60.352486,58.591386 C 62.098074,58.793146 63.647894,59.030326 65.369526,59.236596 C 66.997251,59.431626 68.595559,59.635806 70.386568,59.795996 C 71.970391,59.937646 73.638899,60.065356 75.403608,60.146836 C 77.022186,60.221576 78.728176,60.256466 80.420655,60.269186 C 82.094028,60.281776 83.772163,60.250426 85.437695,60.223246 C 87.120762,60.195786 88.780264,60.142416 90.454742,60.105086 C 92.125081,60.067846 93.792102,60.025866 95.471783,59.999536 C 97.138956,59.973406 98.813814,59.957706 100.48883,59.947626 C 102.15992,59.937566 105.50587,59.939106 105.50587,59.939106"
       id="path1252-8"
       sodipodi:nodetypes="caaaaaaaaaaaaaaaaaaac" />
    <path
       style="fill:none;stroke:#000000;stroke-width:0.031129px;stroke-linecap:butt;stroke-linejoin:miter;stroke-opacity:1"
       d="M 5.1650102,59.939106 C 5.1650102,59.939106 8.0099432,57.877696 10.182053,56.878616 C 11.547617,56.250526 12.292532,55.542906 15.199096,55.044326 C 16.46801,54.826666 18.299448,54.568376 20.216139,54.608816 C 22.616153,54.659456 23.860421,55.095116 25.233181,55.392556 C 27.444023,55.871586 28.679197,56.436046 30.250225,56.968116 C 32.039418,57.574086 33.502061,58.200546 35.267268,58.808076 C 36.856812,59.355136 38.307133,59.914476 40.284311,60.432776 C 41.742517,60.815026 43.134626,61.221016 45.301354,61.519666 C 46.719596,61.715146 48.412301,61.904796 50.318397,61.952376 C 51.99889,61.994316 53.766238,61.905366 55.33544,61.806496 C 57.211587,61.688276 58.743255,61.472836 60.352486,61.286836 C 62.098074,61.085076 63.647894,60.847896 65.369526,60.641616 C 66.997251,60.446596 68.595559,60.242416 70.386568,60.082226 C 71.970391,59.940576 73.638899,59.812866 75.403608,59.731386 C 77.022186,59.656646 78.728176,59.621756 80.420655,59.609036 C 82.094028,59.596446 83.772163,59.627796 85.437695,59.654966 C 87.120762,59.682436 88.780264,59.735806 90.454742,59.773136 C 92.125081,59.810376 93.792102,59.852356 95.471783,59.878686 C 97.138956,59.904806 98.813814,59.920516 100.48883,59.930596 C 102.15992,59.940646 105.50587,59.939106 105.50587,59.939106"
       id="path1962"
       sodipodi:nodetypes="caaaaaaaaaaaaaaaaaaac" />
    <path
       style="opacity:1;fill:url(#linearGradient1997);fill-opacity:1;stroke:none;stroke-width:0.217033;stroke-linecap:round;stroke-linejoin:round;stroke-miterlimit:4;stroke-dasharray:none"
       d="M 17.837051,65.123119 C 17.650904,65.096975 16.919174,64.996026 16.210984,64.898789 C 14.126787,64.612621 12.926544,64.254351 11.145936,63.386881 C 10.25802,62.954308 9.0396089,62.311781 8.4383512,61.959043 C 7.2184951,61.243393 5.3708779,60.025614 5.3708779,59.937246 C 5.3708779,59.905705 6.0578342,59.429066 6.897447,58.878047 C 8.7829208,57.640655 12.097893,55.94463 13.380818,55.560987 C 15.792623,54.83977 19.751535,54.496703 22.011244,54.813105 C 24.473048,55.157805 27.102101,55.899871 31.205751,57.408316 C 32.415703,57.853075 34.500828,58.604807 35.839362,59.078829 L 38.27306,59.940683 L 35.670138,60.862279 C 34.238531,61.369155 32.102639,62.137301 30.923711,62.569268 C 27.951672,63.658245 27.172233,63.91361 25.650332,64.29696 C 22.850381,65.002236 22.221921,65.09801 20.149779,65.135208 C 19.063925,65.154702 18.023197,65.149262 17.837051,65.123119 Z"
       id="path1979" />
    <path
       style="opacity:1;fill:url(#linearGradient2005);fill-opacity:1;stroke:none;stroke-width:0.217033;stroke-linecap:round;stroke-linejoin:round;stroke-miterlimit:4;stroke-dasharray:none"
       d="M 49.312726,61.851257 C 46.050218,61.601176 43.982277,61.286287 41.584827,60.67452 C 39.090016,60.037909 38.864626,59.975425 38.907702,59.932351 C 39.009237,59.830814 42.480036,58.951416 43.728332,58.710947 C 46.331699,58.209435 48.295335,58.037135 51.399823,58.03781 C 54.886659,58.038569 56.051952,58.135248 62.873682,58.989736 C 65.802645,59.356615 68.899444,59.720205 69.755461,59.797715 L 71.311854,59.93864 L 69.732429,60.082219 C 68.863747,60.161189 65.716178,60.529415 62.737834,60.900498 C 59.759491,61.271584 56.713458,61.625843 55.968872,61.687745 C 54.459706,61.813205 50.185959,61.918194 49.312726,61.851257 Z"
       id="path1981" />
    <path
       style="opacity:1;fill:url(#linearGradient2015);fill-opacity:1;stroke:none;stroke-width:0.0791599;stroke-linecap:round;stroke-linejoin:round;stroke-miterlimit:4;stroke-dasharray:none"
       d="M 78.869018,60.216228 C 77.712585,60.198355 75.53394,60.120173 74.404442,60.056012 C 73.189954,59.987024 72.493796,59.929501 72.767144,59.920725 C 72.862416,59.917667 73.362364,59.888041 73.878143,59.854892 C 77.691686,59.609789 81.68754,59.587694 89.032616,59.771098 C 92.817902,59.865612 95.088249,59.913896 96.212971,59.923802 C 96.778759,59.928784 97.019477,59.937336 96.747898,59.942805 C 96.476322,59.948274 95.207928,59.972658 93.929249,59.996991 C 92.650569,60.021328 90.530409,60.068283 89.217782,60.10134 C 84.259745,60.2262 81.498074,60.256857 78.869018,60.216228 Z"
       id="path2007" />
  </g>
</svg>
