<?xml version="1.0" encoding="UTF-8" standalone="no"?>
<svg width="2464px" height="332px" viewBox="0 0 2464 332"
 xmlns="http://www.w3.org/2000/svg" xmlns:xlink="http://www.w3.org/1999/xlink" version="1.2" baseProfile="tiny">
<title>Obertonreihe_Ueberblasen</title>
<desc>Generated by MuseScore 3.5.2</desc>
<polyline class="" fill="none" stroke="#000000" stroke-width="5.10" stroke-linejoin="bevel" points="1978.07,178.912 2437.54,178.912"/>
<polyline class="" fill="none" stroke="#000000" stroke-width="5.10" stroke-linejoin="bevel" points="1978.07,201.079 2437.54,201.079"/>
<polyline class="" fill="none" stroke="#000000" stroke-width="5.10" stroke-linejoin="bevel" points="1978.07,223.246 2437.54,223.246"/>
<polyline class="" fill="none" stroke="#000000" stroke-width="5.10" stroke-linejoin="bevel" points="1978.07,245.413 2437.54,245.413"/>
<polyline class="" fill="none" stroke="#000000" stroke-width="5.10" stroke-linejoin="bevel" points="1978.07,267.58 2437.54,267.58"/>
<polyline class="" fill="none" stroke="#000000" stroke-width="5.10" stroke-linejoin="bevel" points="1522.6,178.912 1978.07,178.912"/>
<polyline class="" fill="none" stroke="#000000" stroke-width="5.10" stroke-linejoin="bevel" points="1522.6,201.079 1978.07,201.079"/>
<polyline class="" fill="none" stroke="#000000" stroke-width="5.10" stroke-linejoin="bevel" points="1522.6,223.246 1978.07,223.246"/>
<polyline class="" fill="none" stroke="#000000" stroke-width="5.10" stroke-linejoin="bevel" points="1522.6,245.413 1978.07,245.413"/>
<polyline class="" fill="none" stroke="#000000" stroke-width="5.10" stroke-linejoin="bevel" points="1522.6,267.58 1978.07,267.58"/>
<polyline class="" fill="none" stroke="#000000" stroke-width="5.10" stroke-linejoin="bevel" points="609.365,178.912 1065.98,178.912"/>
<polyline class="" fill="none" stroke="#000000" stroke-width="5.10" stroke-linejoin="bevel" points="609.365,201.079 1065.98,201.079"/>
<polyline class="" fill="none" stroke="#000000" stroke-width="5.10" stroke-linejoin="bevel" points="609.365,223.246 1065.98,223.246"/>
<polyline class="" fill="none" stroke="#000000" stroke-width="5.10" stroke-linejoin="bevel" points="609.365,245.413 1065.98,245.413"/>
<polyline class="" fill="none" stroke="#000000" stroke-width="5.10" stroke-linejoin="bevel" points="609.365,267.58 1065.98,267.58"/>
<polyline class="" fill="none" stroke="#000000" stroke-width="5.10" stroke-linejoin="bevel" points="1065.98,178.912 1522.6,178.912"/>
<polyline class="" fill="none" stroke="#000000" stroke-width="5.10" stroke-linejoin="bevel" points="1065.98,201.079 1522.6,201.079"/>
<polyline class="" fill="none" stroke="#000000" stroke-width="5.10" stroke-linejoin="bevel" points="1065.98,223.246 1522.6,223.246"/>
<polyline class="" fill="none" stroke="#000000" stroke-width="5.10" stroke-linejoin="bevel" points="1065.98,245.413 1522.6,245.413"/>
<polyline class="" fill="none" stroke="#000000" stroke-width="5.10" stroke-linejoin="bevel" points="1065.98,267.58 1522.6,267.58"/>
<polyline class="" fill="none" stroke="#000000" stroke-width="5.10" stroke-linejoin="bevel" points="27.2442,178.912 609.365,178.912"/>
<polyline class="" fill="none" stroke="#000000" stroke-width="5.10" stroke-linejoin="bevel" points="27.2442,201.079 609.365,201.079"/>
<polyline class="" fill="none" stroke="#000000" stroke-width="5.10" stroke-linejoin="bevel" points="27.2442,223.246 609.365,223.246"/>
<polyline class="" fill="none" stroke="#000000" stroke-width="5.10" stroke-linejoin="bevel" points="27.2442,245.413 609.365,245.413"/>
<polyline class="" fill="none" stroke="#000000" stroke-width="5.10" stroke-linejoin="bevel" points="27.2442,267.58 609.365,267.58"/>
<polyline class="" fill="none" stroke="#000000" stroke-width="3.55" stroke-linecap="square" stroke-linejoin="bevel" points="2002.01,156.745 2051.57,156.745"/>
<polyline class="" fill="none" stroke="#000000" stroke-width="3.55" stroke-linecap="square" stroke-linejoin="bevel" points="2002.01,134.578 2051.57,134.578"/>
<polyline class="" fill="none" stroke="#000000" stroke-width="3.55" stroke-linecap="square" stroke-linejoin="bevel" points="2002.01,112.412 2051.57,112.412"/>
<polyline class="" fill="none" stroke="#000000" stroke-width="3.55" stroke-linecap="square" stroke-linejoin="bevel" points="1546.54,156.745 1596.11,156.745"/>
<polyline class="" fill="none" stroke="#000000" stroke-width="3.55" stroke-linecap="square" stroke-linejoin="bevel" points="1546.54,134.578 1596.11,134.578"/>
<polyline class="" fill="none" stroke="#000000" stroke-width="3.55" stroke-linecap="square" stroke-linejoin="bevel" points="183.826,289.747 233.39,289.747"/>
<path class="" transform="matrix(0.886677,0,0,0.886677,2006.44,112.412)" d="M23.5,-13.7 C9,-13.7 0,-7.6 0,-0.2 C0,7.1 6.2,13.6 22.4,13.6 C40.2,13.6 45.9,7.4 45.9,-0.2 C45.9,-7.9 33.6,-13.7 23.5,-13.7 M20.7,-11.2 C28.1,-11.2 34.1,-3.2 34.1,3.4 C34.1,8.8 30.7,11.1 25.8,11.1 C18.6,11.1 11.7,2.8 11.7,-4.2 C11.7,-9.8 15.6,-11.2 20.7,-11.2"/>
<path class="" transform="matrix(0.886677,0,0,0.886677,1550.98,134.578)" d="M23.5,-13.7 C9,-13.7 0,-7.6 0,-0.2 C0,7.1 6.2,13.6 22.4,13.6 C40.2,13.6 45.9,7.4 45.9,-0.2 C45.9,-7.9 33.6,-13.7 23.5,-13.7 M20.7,-11.2 C28.1,-11.2 34.1,-3.2 34.1,3.4 C34.1,8.8 30.7,11.1 25.8,11.1 C18.6,11.1 11.7,2.8 11.7,-4.2 C11.7,-9.8 15.6,-11.2 20.7,-11.2"/>
<path class="" transform="matrix(0.886677,0,0,0.886677,637.295,212.163)" d="M23.5,-13.7 C9,-13.7 0,-7.6 0,-0.2 C0,7.1 6.2,13.6 22.4,13.6 C40.2,13.6 45.9,7.4 45.9,-0.2 C45.9,-7.9 33.6,-13.7 23.5,-13.7 M20.7,-11.2 C28.1,-11.2 34.1,-3.2 34.1,3.4 C34.1,8.8 30.7,11.1 25.8,11.1 C18.6,11.1 11.7,2.8 11.7,-4.2 C11.7,-9.8 15.6,-11.2 20.7,-11.2"/>
<path class="" transform="matrix(0.886677,0,0,0.886677,1093.91,167.829)" d="M23.5,-13.7 C9,-13.7 0,-7.6 0,-0.2 C0,7.1 6.2,13.6 22.4,13.6 C40.2,13.6 45.9,7.4 45.9,-0.2 C45.9,-7.9 33.6,-13.7 23.5,-13.7 M20.7,-11.2 C28.1,-11.2 34.1,-3.2 34.1,3.4 C34.1,8.8 30.7,11.1 25.8,11.1 C18.6,11.1 11.7,2.8 11.7,-4.2 C11.7,-9.8 15.6,-11.2 20.7,-11.2"/>
<path class="" transform="matrix(0.886677,0,0,0.886677,188.259,289.747)" d="M23.5,-13.7 C9,-13.7 0,-7.6 0,-0.2 C0,7.1 6.2,13.6 22.4,13.6 C40.2,13.6 45.9,7.4 45.9,-0.2 C45.9,-7.9 33.6,-13.7 23.5,-13.7 M20.7,-11.2 C28.1,-11.2 34.1,-3.2 34.1,3.4 C34.1,8.8 30.7,11.1 25.8,11.1 C18.6,11.1 11.7,2.8 11.7,-4.2 C11.7,-9.8 15.6,-11.2 20.7,-11.2"/>
<path class="" transform="matrix(0.886677,0,0,0.886677,44.9777,245.413)" d="M47,-94.3 C50.3,-94.3 53,-91.6 53,-86.1 C53,-75 43.5,-66 35.6,-59.1 C35.3,-58.9 35.1,-58.7 34.9,-58.7 C34.6,-58.7 34.4,-59.1 34.3,-59.9 C33.9,-62.5 33.7,-65.9 33.7,-69.1 C33.7,-84.7 40.9,-94.3 47,-94.3 M43,-10.3 C42.8,-11.4 42.9,-11.7 43.7,-11.7 C43.8,-11.7 44,-11.7 44.1,-11.7 C52.2,-11 58.9,-4.2 58.9,4.6 C58.9,10.9 55.1,16 49.5,18.8 C49,19 48.7,19.2 48.5,19.2 C48.1,19.2 48,18.9 47.9,18.2 L43,-10.3 M36.1,-26.2 C36.4,-24.3 36.4,-24.4 34.6,-23.8 C25.8,-20.8 20.1,-12.9 20.1,-4.4 C20.1,4.6 24.8,11 31.6,13.3 C32.4,13.6 33.6,13.9 34.3,13.9 C35.1,13.9 35.5,13.4 35.5,12.8 C35.5,12.1 34.7,11.8 34,11.5 C29.8,9.7 26.8,5.4 26.8,0.8 C26.8,-4.9 30.7,-9.2 36.8,-10.9 C37.3,-11 37.7,-11.1 38,-11.1 C38.5,-11.1 38.7,-10.8 38.8,-10.1 L43.8,19.7 C44,20.8 43.9,20.8 42.4,21.1 C40.8,21.4 38.8,21.6 36.8,21.6 C19.3,21.6 8,11.9 8,-2 C8,-19 20.5,-29.6 32.6,-39.4 C33,-39.7 33.3,-39.9 33.5,-39.9 C33.8,-39.9 33.9,-39.6 34,-39 L36.1,-26.2 M37.6,-41.5 C37.4,-42.7 37.6,-42.8 38.2,-43.4 C49,-53.5 57.2,-66.2 57.2,-81.5 C57.2,-90.2 54.8,-98.8 50.7,-104.8 C49.2,-107 46.6,-109.8 45.5,-109.8 C44.1,-109.8 41,-107.2 39,-105 C31.6,-96.8 29.2,-84.3 29.2,-73.9 C29.2,-68.1 29.9,-61.6 30.6,-57.5 C30.8,-56.3 30.9,-56.1 29.7,-55.1 C15.3,-43.2 0,-28.9 0,-8.7 C0,8.7 11.9,25.2 36.4,25.2 C38.7,25.2 41.3,25 43.3,24.6 C43.7,24.5 43.9,24.5 44.1,24.5 C44.5,24.5 44.7,24.7 44.8,25.5 C46,32.2 47.5,40.9 47.5,45.6 C47.5,60.4 37.5,62.2 31.6,62.2 C26.2,62.2 23.6,60.6 23.6,59.3 C23.6,58.6 24.5,58.3 26.8,57.6 C29.9,56.7 33.5,54 33.5,48.2 C33.5,42.7 30,38 23.9,38 C17.2,38 13.2,43.3 13.2,49.5 C13.2,56 17.1,65.8 32.2,65.8 C38.9,65.8 51.9,62.8 51.9,45.8 C51.9,40.1 50.1,30.6 49,24.4 C48.8,23.2 48.9,23.3 50.3,22.7 C60.4,18.7 67.1,10.2 67.1,-1.1 C67.1,-13.9 57.7,-25.2 43,-25.2 C40.4,-25.2 40.4,-25.2 40.1,-27 L37.6,-41.5 "/>
</svg>
