<?xml version="1.0" encoding="UTF-8" standalone="no"?>
<svg width="2464px" height="332px" viewBox="0 0 2464 332"
 xmlns="http://www.w3.org/2000/svg" xmlns:xlink="http://www.w3.org/1999/xlink" version="1.2" baseProfile="tiny">
<title>Obertonreihe_Ueberblasen</title>
<desc>Generated by MuseScore 3.5.2</desc>
<polyline class="" fill="none" stroke="#000000" stroke-width="5.10" stroke-linejoin="bevel" points="1507.48,178.912 1960.35,178.912"/>
<polyline class="" fill="none" stroke="#000000" stroke-width="5.10" stroke-linejoin="bevel" points="1507.48,201.079 1960.35,201.079"/>
<polyline class="" fill="none" stroke="#000000" stroke-width="5.10" stroke-linejoin="bevel" points="1507.48,223.246 1960.35,223.246"/>
<polyline class="" fill="none" stroke="#000000" stroke-width="5.10" stroke-linejoin="bevel" points="1507.48,245.413 1960.35,245.413"/>
<polyline class="" fill="none" stroke="#000000" stroke-width="5.10" stroke-linejoin="bevel" points="1507.48,267.58 1960.35,267.58"/>
<polyline class="" fill="none" stroke="#000000" stroke-width="5.10" stroke-linejoin="bevel" points="1960.35,178.912 2437.54,178.912"/>
<polyline class="" fill="none" stroke="#000000" stroke-width="5.10" stroke-linejoin="bevel" points="1960.35,201.079 2437.54,201.079"/>
<polyline class="" fill="none" stroke="#000000" stroke-width="5.10" stroke-linejoin="bevel" points="1960.35,223.246 2437.54,223.246"/>
<polyline class="" fill="none" stroke="#000000" stroke-width="5.10" stroke-linejoin="bevel" points="1960.35,245.413 2437.54,245.413"/>
<polyline class="" fill="none" stroke="#000000" stroke-width="5.10" stroke-linejoin="bevel" points="1960.35,267.58 2437.54,267.58"/>
<polyline class="" fill="none" stroke="#000000" stroke-width="5.10" stroke-linejoin="bevel" points="600.569,178.912 1054.6,178.912"/>
<polyline class="" fill="none" stroke="#000000" stroke-width="5.10" stroke-linejoin="bevel" points="600.569,201.079 1054.6,201.079"/>
<polyline class="" fill="none" stroke="#000000" stroke-width="5.10" stroke-linejoin="bevel" points="600.569,223.246 1054.6,223.246"/>
<polyline class="" fill="none" stroke="#000000" stroke-width="5.10" stroke-linejoin="bevel" points="600.569,245.413 1054.6,245.413"/>
<polyline class="" fill="none" stroke="#000000" stroke-width="5.10" stroke-linejoin="bevel" points="600.569,267.58 1054.6,267.58"/>
<polyline class="" fill="none" stroke="#000000" stroke-width="5.10" stroke-linejoin="bevel" points="1054.6,178.912 1507.48,178.912"/>
<polyline class="" fill="none" stroke="#000000" stroke-width="5.10" stroke-linejoin="bevel" points="1054.6,201.079 1507.48,201.079"/>
<polyline class="" fill="none" stroke="#000000" stroke-width="5.10" stroke-linejoin="bevel" points="1054.6,223.246 1507.48,223.246"/>
<polyline class="" fill="none" stroke="#000000" stroke-width="5.10" stroke-linejoin="bevel" points="1054.6,245.413 1507.48,245.413"/>
<polyline class="" fill="none" stroke="#000000" stroke-width="5.10" stroke-linejoin="bevel" points="1054.6,267.58 1507.48,267.58"/>
<polyline class="" fill="none" stroke="#000000" stroke-width="5.10" stroke-linejoin="bevel" points="27.2442,178.912 600.569,178.912"/>
<polyline class="" fill="none" stroke="#000000" stroke-width="5.10" stroke-linejoin="bevel" points="27.2442,201.079 600.569,201.079"/>
<polyline class="" fill="none" stroke="#000000" stroke-width="5.10" stroke-linejoin="bevel" points="27.2442,223.246 600.569,223.246"/>
<polyline class="" fill="none" stroke="#000000" stroke-width="5.10" stroke-linejoin="bevel" points="27.2442,245.413 600.569,245.413"/>
<polyline class="" fill="none" stroke="#000000" stroke-width="5.10" stroke-linejoin="bevel" points="27.2442,267.58 600.569,267.58"/>
<path class="" transform="matrix(0.886677,0,0,0.886677,1977.64,90.2446)" d="M0.8,20.9 C0.9,20.9 1.1,20.8 1.2,20.8 C1.2,20.8 2.6,20.2 3.5,19.9 C3.6,19.8 3.7,19.8 3.8,19.8 C4.5,19.8 5,20.9 5,21.4 L5,33.7 C5,34.3 5.6,34.8 6.3,34.8 C7.3,34.8 8,34.3 8,33.7 L8,19.8 C8,18.5 8.5,17.8 9,17.6 L15.1,15.1 C15.2,15.1 15.4,15 15.5,15 C16.3,15 16.8,16.2 16.8,16.8 L16.8,29.3 C16.8,29.9 17.4,30.4 18.1,30.4 C19.2,30.4 19.8,29.9 19.8,29.3 L19.8,15.1 C19.8,14.3 20.2,13.1 20.9,12.8 C21.6,12.5 23.7,11.7 23.7,11.7 C24.4,11.4 24.9,10.6 24.9,10 L24.9,2.9 C24.9,2.4 24.6,2.1 24.2,2.1 C24,2.1 23.9,2.1 23.7,2.2 L21.1,3.2 C20.5,3.2 19.8,2.6 19.8,1.4 L19.8,-7.9 C19.8,-8.6 20.3,-10.5 21.1,-10.8 L23.7,-11.8 C24.4,-12.1 24.9,-12.9 24.9,-13.5 L24.9,-20.6 C24.9,-21.1 24.6,-21.4 24.2,-21.4 C24,-21.4 23.9,-21.4 23.7,-21.3 C23.7,-21.3 21.7,-20.5 21.2,-20.4 C20.5,-20.4 19.8,-20.9 19.8,-21.7 L19.8,-33.9 C19.8,-34.5 19.2,-35 18.4,-35 C17.4,-35 16.8,-34.5 16.8,-33.9 L16.8,-20.9 C16.7,-19.9 16.4,-18.6 15.5,-18 C14.3,-17.3 10.9,-15.9 9.2,-15.5 C8.3,-15.5 8,-16.7 8,-17.5 L8,-29.5 C8,-30.1 7.3,-30.6 6.6,-30.6 C5.6,-30.6 5,-30.1 5,-29.5 L5,-16 C5,-14.6 4.4,-13.6 3.8,-13.3 C3.2,-13 1.2,-12.2 1.2,-12.2 C0.5,-12 0,-11.2 0,-10.6 L0,-3.5 C0,-2.9 0.3,-2.6 0.8,-2.6 C1.2,-2.6 3.1,-3.5 3.4,-3.7 C4.4,-3.7 5,-3.2 5,-2 L5,7.9 C5,9 4.5,9.9 3.9,10.2 C3.3,10.4 1.2,11.3 1.2,11.3 C0.5,11.5 0,12.3 0,12.9 L0,20 C0,20.6 0.3,20.9 0.8,20.9 M8,-4.4 C8.2,-6.1 12.8,-8.2 15.3,-8.2 C16,-8.2 16.6,-8 16.8,-7.6 C17,-7.1 17.2,-4.6 17.2,-1.9 C17.2,0.8 17,3.6 16.8,4.5 C16.2,6.5 11.5,8.5 9.2,8.5 C8.6,8.5 8.1,8.3 8,8 C7.8,7.6 7.7,5.4 7.7,3 C7.7,-0.1 7.8,-3.6 8,-4.4"/>
<polyline class="" fill="none" stroke="#000000" stroke-width="3.55" stroke-linecap="square" stroke-linejoin="bevel" points="2004.6,156.745 2054.16,156.745"/>
<polyline class="" fill="none" stroke="#000000" stroke-width="3.55" stroke-linecap="square" stroke-linejoin="bevel" points="2004.6,134.578 2054.16,134.578"/>
<polyline class="" fill="none" stroke="#000000" stroke-width="3.55" stroke-linecap="square" stroke-linejoin="bevel" points="2004.6,112.412 2054.16,112.412"/>
<polyline class="" fill="none" stroke="#000000" stroke-width="3.55" stroke-linecap="square" stroke-linejoin="bevel" points="2004.6,90.2446 2054.16,90.2446"/>
<polyline class="" fill="none" stroke="#000000" stroke-width="3.55" stroke-linecap="square" stroke-linejoin="bevel" points="1531.42,156.745 1580.98,156.745"/>
<polyline class="" fill="none" stroke="#000000" stroke-width="3.55" stroke-linecap="square" stroke-linejoin="bevel" points="1531.42,134.578 1580.98,134.578"/>
<polyline class="" fill="none" stroke="#000000" stroke-width="3.55" stroke-linecap="square" stroke-linejoin="bevel" points="1531.42,112.412 1580.98,112.412"/>
<polyline class="" fill="none" stroke="#000000" stroke-width="3.55" stroke-linecap="square" stroke-linejoin="bevel" points="1078.54,156.745 1128.1,156.745"/>
<path class="" transform="matrix(0.886677,0,0,0.886677,2009.03,90.2446)" d="M23.5,-13.7 C9,-13.7 0,-7.6 0,-0.2 C0,7.1 6.2,13.6 22.4,13.6 C40.2,13.6 45.9,7.4 45.9,-0.2 C45.9,-7.9 33.6,-13.7 23.5,-13.7 M20.7,-11.2 C28.1,-11.2 34.1,-3.2 34.1,3.4 C34.1,8.8 30.7,11.1 25.8,11.1 C18.6,11.1 11.7,2.8 11.7,-4.2 C11.7,-9.8 15.6,-11.2 20.7,-11.2"/>
<path class="" transform="matrix(0.886677,0,0,0.886677,1535.85,112.412)" d="M23.5,-13.7 C9,-13.7 0,-7.6 0,-0.2 C0,7.1 6.2,13.6 22.4,13.6 C40.2,13.6 45.9,7.4 45.9,-0.2 C45.9,-7.9 33.6,-13.7 23.5,-13.7 M20.7,-11.2 C28.1,-11.2 34.1,-3.2 34.1,3.4 C34.1,8.8 30.7,11.1 25.8,11.1 C18.6,11.1 11.7,2.8 11.7,-4.2 C11.7,-9.8 15.6,-11.2 20.7,-11.2"/>
<path class="" transform="matrix(0.886677,0,0,0.886677,628.5,189.996)" d="M23.5,-13.7 C9,-13.7 0,-7.6 0,-0.2 C0,7.1 6.2,13.6 22.4,13.6 C40.2,13.6 45.9,7.4 45.9,-0.2 C45.9,-7.9 33.6,-13.7 23.5,-13.7 M20.7,-11.2 C28.1,-11.2 34.1,-3.2 34.1,3.4 C34.1,8.8 30.7,11.1 25.8,11.1 C18.6,11.1 11.7,2.8 11.7,-4.2 C11.7,-9.8 15.6,-11.2 20.7,-11.2"/>
<path class="" transform="matrix(0.886677,0,0,0.886677,1082.97,145.662)" d="M23.5,-13.7 C9,-13.7 0,-7.6 0,-0.2 C0,7.1 6.2,13.6 22.4,13.6 C40.2,13.6 45.9,7.4 45.9,-0.2 C45.9,-7.9 33.6,-13.7 23.5,-13.7 M20.7,-11.2 C28.1,-11.2 34.1,-3.2 34.1,3.4 C34.1,8.8 30.7,11.1 25.8,11.1 C18.6,11.1 11.7,2.8 11.7,-4.2 C11.7,-9.8 15.6,-11.2 20.7,-11.2"/>
<path class="" transform="matrix(0.886677,0,0,0.886677,182.052,267.58)" d="M23.5,-13.7 C9,-13.7 0,-7.6 0,-0.2 C0,7.1 6.2,13.6 22.4,13.6 C40.2,13.6 45.9,7.4 45.9,-0.2 C45.9,-7.9 33.6,-13.7 23.5,-13.7 M20.7,-11.2 C28.1,-11.2 34.1,-3.2 34.1,3.4 C34.1,8.8 30.7,11.1 25.8,11.1 C18.6,11.1 11.7,2.8 11.7,-4.2 C11.7,-9.8 15.6,-11.2 20.7,-11.2"/>
<path class="" transform="matrix(0.886677,0,0,0.886677,44.9777,245.413)" d="M47,-94.3 C50.3,-94.3 53,-91.6 53,-86.1 C53,-75 43.5,-66 35.6,-59.1 C35.3,-58.9 35.1,-58.7 34.9,-58.7 C34.6,-58.7 34.4,-59.1 34.3,-59.9 C33.9,-62.5 33.7,-65.9 33.7,-69.1 C33.7,-84.7 40.9,-94.3 47,-94.3 M43,-10.3 C42.8,-11.4 42.9,-11.7 43.7,-11.7 C43.8,-11.7 44,-11.7 44.1,-11.7 C52.2,-11 58.9,-4.2 58.9,4.6 C58.9,10.9 55.1,16 49.5,18.8 C49,19 48.7,19.2 48.5,19.2 C48.1,19.2 48,18.9 47.9,18.2 L43,-10.3 M36.1,-26.2 C36.4,-24.3 36.4,-24.4 34.6,-23.8 C25.8,-20.8 20.1,-12.9 20.1,-4.4 C20.1,4.6 24.8,11 31.6,13.3 C32.4,13.6 33.6,13.9 34.3,13.9 C35.1,13.9 35.5,13.4 35.5,12.8 C35.5,12.1 34.7,11.8 34,11.5 C29.8,9.7 26.8,5.4 26.8,0.8 C26.8,-4.9 30.7,-9.2 36.8,-10.9 C37.3,-11 37.7,-11.1 38,-11.1 C38.5,-11.1 38.7,-10.8 38.8,-10.1 L43.8,19.7 C44,20.8 43.9,20.8 42.4,21.1 C40.8,21.4 38.8,21.6 36.8,21.6 C19.3,21.6 8,11.9 8,-2 C8,-19 20.5,-29.6 32.6,-39.4 C33,-39.7 33.3,-39.9 33.5,-39.9 C33.8,-39.9 33.9,-39.6 34,-39 L36.1,-26.2 M37.6,-41.5 C37.4,-42.7 37.6,-42.8 38.2,-43.4 C49,-53.5 57.2,-66.2 57.2,-81.5 C57.2,-90.2 54.8,-98.8 50.7,-104.8 C49.2,-107 46.6,-109.8 45.5,-109.8 C44.1,-109.8 41,-107.2 39,-105 C31.6,-96.8 29.2,-84.3 29.2,-73.9 C29.2,-68.1 29.9,-61.6 30.6,-57.5 C30.8,-56.3 30.9,-56.1 29.7,-55.1 C15.3,-43.2 0,-28.9 0,-8.7 C0,8.7 11.9,25.2 36.4,25.2 C38.7,25.2 41.3,25 43.3,24.6 C43.7,24.5 43.9,24.5 44.1,24.5 C44.5,24.5 44.7,24.7 44.8,25.5 C46,32.2 47.5,40.9 47.5,45.6 C47.5,60.4 37.5,62.2 31.6,62.2 C26.2,62.2 23.6,60.6 23.6,59.3 C23.6,58.6 24.5,58.3 26.8,57.6 C29.9,56.7 33.5,54 33.5,48.2 C33.5,42.7 30,38 23.9,38 C17.2,38 13.2,43.3 13.2,49.5 C13.2,56 17.1,65.8 32.2,65.8 C38.9,65.8 51.9,62.8 51.9,45.8 C51.9,40.1 50.1,30.6 49,24.4 C48.8,23.2 48.9,23.3 50.3,22.7 C60.4,18.7 67.1,10.2 67.1,-1.1 C67.1,-13.9 57.7,-25.2 43,-25.2 C40.4,-25.2 40.4,-25.2 40.1,-27 L37.6,-41.5 "/>
</svg>
