<?xml version="1.0" encoding="UTF-8"?>
<svg width="55.04mm" height="23.347mm" version="1.2" viewBox="0 0 31.321 13.286" xmlns="http://www.w3.org/2000/svg" xmlns:xlink="http://www.w3.org/1999/xlink">
 <style type="text/css"><![CDATA[
tspan { white-space: pre; }
]]></style>
 <g transform="translate(0 9.2358)">
  <line x1=".05" x2="31.271" stroke="currentColor" stroke-linecap="round" stroke-linejoin="round" stroke-width=".1"/>
 </g>
 <g transform="translate(0 8.2358)">
  <line x1=".05" x2="31.271" stroke="currentColor" stroke-linecap="round" stroke-linejoin="round" stroke-width=".1"/>
 </g>
 <g transform="translate(0 7.2358)">
  <line x1=".05" x2="31.271" stroke="currentColor" stroke-linecap="round" stroke-linejoin="round" stroke-width=".1"/>
 </g>
 <g transform="translate(0 6.2358)">
  <line x1=".05" x2="31.271" stroke="currentColor" stroke-linecap="round" stroke-linejoin="round" stroke-width=".1"/>
 </g>
 <g transform="translate(0 5.2358)">
  <line x1=".05" x2="31.271" stroke="currentColor" stroke-linecap="round" stroke-linejoin="round" stroke-width=".1"/>
 </g>
 <g transform="translate(31.131 7.2358)">
  <rect y="-2" width=".19" height="4" ry="0" fill="currentColor"/>
 </g>
 <g transform="translate(15.58 7.2358)">
  <rect y="-2" width=".19" height="4" ry="0" fill="currentColor"/>
 </g>
 <a transform="translate(-4.5524 -1)" color="inherit" xlink:href="textedit:///home/atwestbrooke/reveal.js/Instrumentenkunde/Instrumente/Holzblaeser/Holzblaeser_Bilder/Querfl._Bilder/Flatterzunge.ly:18:84:85">
  <g transform="translate(25.416 9.1358)">
   <polygon points="0.04 0.2 0.04 -0.2 1.46 -0.8 1.46 -0.4" fill="currentColor" stroke="currentColor" stroke-linecap="round" stroke-linejoin="round" stroke-width=".08"/>
  </g>
  <g transform="translate(25.416 9.9458)">
   <polygon points="0.04 0.2 0.04 -0.2 1.46 -0.8 1.46 -0.4" fill="currentColor" stroke="currentColor" stroke-linecap="round" stroke-linejoin="round" stroke-width=".08"/>
  </g>
  <g transform="translate(25.416 10.756)">
   <polygon points="0.04 0.2 0.04 -0.2 1.46 -0.8 1.46 -0.4" fill="currentColor" stroke="currentColor" stroke-linecap="round" stroke-linejoin="round" stroke-width=".08"/>
  </g>
 </a>
 <a transform="translate(-4.5524 -1)" color="inherit" xlink:href="textedit:///home/atwestbrooke/reveal.js/Instrumentenkunde/Instrumente/Holzblaeser/Holzblaeser_Bilder/Querfl._Bilder/Flatterzunge.ly:18:95:96">
  <g transform="translate(30.932 9.2358)">
   <path transform="scale(.004 -.004)" d="m218 136c66 0 108-36 108-89 0-89-113-183-218-183-66 0-108 36-108 89 0 89 113 183 218 183z" fill="currentColor"/>
  </g>
 </a>
 <g transform="translate(21.679 11.036)">
  <path transform="scale(.004 -.004)" d="m0 0h-16v250h16zm0 0v250c97 59 224 148 224 259 0 57-15 112-40 163-3 16 10 27 23 27 7 0 15-3 20-11 25-56 40-117 40-179 0-203-267-306-267-509z" fill="currentColor"/>
 </g>
 <g transform="translate(20.399 6.2358)">
  <path transform="scale(.004 -.004)" d="m27 41-1-66v-11c0-22 1-44 4-66 45 38 93 80 93 139 0 33-14 67-43 67-31 0-52-30-53-63zm-42-179-12 595c8 5 18 8 27 8s19-3 27-8l-7-345c25 21 58 34 91 34 52 0 89-48 89-102 0-80-86-117-147-169-15-13-24-38-45-38-13 0-23 11-23 25z" fill="currentColor"/>
 </g>
 <a transform="translate(-4.5524 -1)" color="inherit" xlink:href="textedit:///home/atwestbrooke/reveal.js/Instrumentenkunde/Instrumente/Holzblaeser/Holzblaeser_Bilder/Querfl._Bilder/Flatterzunge.ly:18:89:90">
  <g transform="translate(28.182 7.2358)">
   <path transform="scale(.004 -.004)" d="m218 136c66 0 108-36 108-89 0-89-113-183-218-183-66 0-108 36-108 89 0 89 113 183 218 183z" fill="currentColor"/>
  </g>
 </a>
 <g transform="translate(23.695 7.2358)">
  <rect x="-.065" y="-.8139" width=".13" height="5.6465" ry=".04" fill="currentColor"/>
 </g>
 <a transform="translate(-4.5524 -1)" color="inherit" xlink:href="textedit:///home/atwestbrooke/reveal.js/Instrumentenkunde/Instrumente/Holzblaeser/Holzblaeser_Bilder/Querfl._Bilder/Flatterzunge.ly:18:93:94">
  <g transform="translate(27.777 10.468)">
   <polygon points="0.8339 0.516 -0.0308 0.2016 0.1059 -0.1743 0.9706 0.1401" fill="currentColor" stroke="currentColor" stroke-linecap="round" stroke-linejoin="round" stroke-width=".08"/>
  </g>
  <g transform="translate(27.777 11.278)">
   <polygon points="0.8339 0.516 -0.0308 0.2016 0.1059 -0.1743 0.9706 0.1401" fill="currentColor" stroke="currentColor" stroke-linecap="round" stroke-linejoin="round" stroke-width=".08"/>
  </g>
  <g transform="translate(27.777 12.088)">
   <polygon points="0.8339 0.516 -0.0308 0.2016 0.1059 -0.1743 0.9706 0.1401" fill="currentColor" stroke="currentColor" stroke-linecap="round" stroke-linejoin="round" stroke-width=".08"/>
  </g>
 </a>
 <g transform="translate(21.614 7.2358)">
  <rect x="-.065" y="-.8139" width=".13" height="4.6539" ry=".04" fill="currentColor"/>
 </g>
 <a transform="translate(-4.5524 -1)" color="inherit" xlink:href="textedit:///home/atwestbrooke/reveal.js/Instrumentenkunde/Instrumente/Holzblaeser/Holzblaeser_Bilder/Querfl._Bilder/Flatterzunge.ly:18:80:81">
  <g transform="translate(26.101 7.2358)">
   <path transform="scale(.004 -.004)" d="m218 136c66 0 108-36 108-89 0-89-113-183-218-183-66 0-108 36-108 89 0 89 113 183 218 183z" fill="currentColor"/>
  </g>
 </a>
 <g transform="translate(16.49 7.7358)">
  <path transform="scale(.004 -.004)" d="m27 41-1-66v-11c0-22 1-44 4-66 45 38 93 80 93 139 0 33-14 67-43 67-31 0-52-30-53-63zm-42-179-12 595c8 5 18 8 27 8s19-3 27-8l-7-345c25 21 58 34 91 34 52 0 89-48 89-102 0-80-86-117-147-169-15-13-24-38-45-38-13 0-23 11-23 25z" fill="currentColor"/>
 </g>
 <g transform="translate(23.63 12.046)">
  <polygon points="0.04 0.2 0.04 -0.2 2.8402 0.8 2.8402 1.2" fill="currentColor" stroke="currentColor" stroke-linecap="round" stroke-linejoin="round" stroke-width=".08"/>
 </g>
 <a transform="translate(-4.5524 -1)" color="inherit" xlink:href="textedit:///home/atwestbrooke/reveal.js/Instrumentenkunde/Instrumente/Holzblaeser/Holzblaeser_Bilder/Querfl._Bilder/Flatterzunge.ly:18:99:100">
  <g transform="translate(30.932 8.2358)">
   <path d="m0.8521 2c0.4266 0.5191 1.2542 0.5191 1.6808 0v0c-0.4266 0.3991-1.2542 0.3991-1.6808 0z" fill="currentColor" stroke="currentColor" stroke-linecap="round" stroke-linejoin="round" stroke-width=".08"/>
  </g>
 </a>
 <a transform="translate(-4.5524 -1)" color="inherit" xlink:href="textedit:///home/atwestbrooke/reveal.js/Instrumentenkunde/Instrumente/Holzblaeser/Holzblaeser_Bilder/Querfl._Bilder/Flatterzunge.ly:18:87:88">
  <g transform="translate(26.101 8.2358)">
   <path d="m0.8521-2c0.4266-0.5191 1.2542-0.5191 1.6808 0v0c-0.4266-0.3991-1.2542-0.3991-1.6808 0z" fill="currentColor" stroke="currentColor" stroke-linecap="round" stroke-linejoin="round" stroke-width=".08"/>
  </g>
 </a>
 <a transform="translate(-4.5524 -1)" color="inherit" xlink:href="textedit:///home/atwestbrooke/reveal.js/Instrumentenkunde/Instrumente/Holzblaeser/Holzblaeser_Bilder/Querfl._Bilder/Flatterzunge.ly:18:58:59">
  <g transform="translate(18.042 8.2358)">
   <path d="m1.6042-2.695c2.1058-1.7058 12.374-2.0576 14.592-0.5v0c-2.2135-1.4377-12.482-1.0859-14.592 0.5z" fill="currentColor" stroke="currentColor" stroke-linecap="round" stroke-linejoin="round" stroke-width=".08"/>
  </g>
 </a>
 <a transform="translate(-4.5524 -1)" color="inherit" xlink:href="textedit:///home/atwestbrooke/reveal.js/Instrumentenkunde/Instrumente/Holzblaeser/Holzblaeser_Bilder/Querfl._Bilder/Flatterzunge.ly:18:44:45">
  <g transform="translate(14.265 3.0458)">
   <polygon points="0.04 0.2 0.04 -0.2 5.0408 0.8 5.0408 1.2" fill="currentColor" stroke="currentColor" stroke-linecap="round" stroke-linejoin="round" stroke-width=".08"/>
  </g>
  <g transform="translate(18.181 4.6265)">
   <polygon points="0.04 0.2 0.04 -0.2 1.125 0.0293 1.125 0.4293" fill="currentColor" stroke="currentColor" stroke-linecap="round" stroke-linejoin="round" stroke-width=".08"/>
  </g>
 </a>
 <a transform="translate(-4.5524 -1)" color="inherit" xlink:href="textedit:///home/atwestbrooke/reveal.js/Instrumentenkunde/Instrumente/Holzblaeser/Holzblaeser_Bilder/Querfl._Bilder/Flatterzunge.ly:18:35:36">
  <g transform="translate(10.352 8.2358)">
   <path d="m0.7453-1.195c0.9083-0.5391 2.2804-0.2281 2.8674 0.65v0c-0.6136-0.7611-1.9856-1.0721-2.8674-0.65z" fill="currentColor" stroke="currentColor" stroke-linecap="round" stroke-linejoin="round" stroke-width=".08"/>
  </g>
 </a>
 <g transform="translate(26.445 7.2358)">
  <rect x="-.065" y="1.1861" width=".13" height="4.6013" ry=".04" fill="currentColor"/>
 </g>
 <a transform="translate(-4.5524 -1)" color="inherit" xlink:href="textedit:///home/atwestbrooke/reveal.js/Instrumentenkunde/Instrumente/Holzblaeser/Holzblaeser_Bilder/Querfl._Bilder/Flatterzunge.ly:18:103:104">
  <g transform="translate(33.502 8.2283)">
   <polygon points="0.04 0.2 0.04 -0.2 1.46 -0.575 1.46 -0.175" fill="currentColor" stroke="currentColor" stroke-linecap="round" stroke-linejoin="round" stroke-width=".08"/>
  </g>
  <g transform="translate(33.502 7.4183)">
   <polygon points="0.04 0.2 0.04 -0.2 1.46 -0.575 1.46 -0.175" fill="currentColor" stroke="currentColor" stroke-linecap="round" stroke-linejoin="round" stroke-width=".08"/>
  </g>
  <g transform="translate(33.502 6.6083)">
   <polygon points="0.04 0.2 0.04 -0.2 1.46 -0.575 1.46 -0.175" fill="currentColor" stroke="currentColor" stroke-linecap="round" stroke-linejoin="round" stroke-width=".08"/>
  </g>
 </a>
 <g transform="translate(29.7 7.2358)">
  <rect x="-.065" y="-2.625" width=".13" height="3.4389" ry=".04" fill="currentColor"/>
 </g>
 <a transform="translate(-4.5524 -1)" color="inherit" xlink:href="textedit:///home/atwestbrooke/reveal.js/Instrumentenkunde/Instrumente/Holzblaeser/Holzblaeser_Bilder/Querfl._Bilder/Flatterzunge.ly:18:101:102">
  <g transform="translate(33.013 9.2358)">
   <path transform="scale(.004 -.004)" d="m218 136c66 0 108-36 108-89 0-89-113-183-218-183-66 0-108 36-108 89 0 89 113 183 218 183z" fill="currentColor"/>
  </g>
 </a>
 <g transform="translate(25.334 8.2358)">
  <path transform="scale(.004 -.004)" d="m-7 375c8 4 17 7 25 7s16-3 24-7l-2-183 106 20h3c10 0 18-7 18-17l7-570c-8-4-17-7-25-7s-16 3-24 7l2 183-106-20h-3c-10 0-18 7-18 17zm138-263-92-17-3-207 92 17z" fill="currentColor"/>
 </g>
 <a transform="translate(-4.5524 -1)" color="inherit" xlink:href="textedit:///home/atwestbrooke/reveal.js/Instrumentenkunde/Instrumente/Holzblaeser/Holzblaeser_Bilder/Querfl._Bilder/Flatterzunge.ly:18:98:99">
  <g transform="translate(30.528 11.422)">
   <polygon points="0.8339 0.516 -0.0308 0.2016 0.1059 -0.1743 0.9706 0.1401" fill="currentColor" stroke="currentColor" stroke-linecap="round" stroke-linejoin="round" stroke-width=".08"/>
  </g>
  <g transform="translate(30.528 12.232)">
   <polygon points="0.8339 0.516 -0.0308 0.2016 0.1059 -0.1743 0.9706 0.1401" fill="currentColor" stroke="currentColor" stroke-linecap="round" stroke-linejoin="round" stroke-width=".08"/>
  </g>
  <g transform="translate(30.528 13.042)">
   <polygon points="0.8339 0.516 -0.0308 0.2016 0.1059 -0.1743 0.9706 0.1401" fill="currentColor" stroke="currentColor" stroke-linecap="round" stroke-linejoin="round" stroke-width=".08"/>
  </g>
 </a>
 <a transform="translate(-4.5524 -1)" color="inherit" xlink:href="textedit:///home/atwestbrooke/reveal.js/Instrumentenkunde/Instrumente/Holzblaeser/Holzblaeser_Bilder/Querfl._Bilder/Flatterzunge.ly:18:76:77">
  <g transform="translate(22.681 7.7283)">
   <polygon points="0.04 0.2 0.04 -0.2 1.46 -0.575 1.46 -0.175" fill="currentColor" stroke="currentColor" stroke-linecap="round" stroke-linejoin="round" stroke-width=".08"/>
  </g>
  <g transform="translate(22.681 6.9183)">
   <polygon points="0.04 0.2 0.04 -0.2 1.46 -0.575 1.46 -0.175" fill="currentColor" stroke="currentColor" stroke-linecap="round" stroke-linejoin="round" stroke-width=".08"/>
  </g>
  <g transform="translate(22.681 6.1083)">
   <polygon points="0.04 0.2 0.04 -0.2 1.46 -0.575 1.46 -0.175" fill="currentColor" stroke="currentColor" stroke-linecap="round" stroke-linejoin="round" stroke-width=".08"/>
  </g>
 </a>
 <a transform="translate(-4.5524 -1)" color="inherit" xlink:href="textedit:///home/atwestbrooke/reveal.js/Instrumentenkunde/Instrumente/Holzblaeser/Holzblaeser_Bilder/Querfl._Bilder/Flatterzunge.ly:18:39:40">
  <g transform="translate(13.84,5.3896)">
   <polygon points="0.9014 0.3861 -4e-4 0.204 0.0788 -0.1881 0.9806 -6e-3" fill="currentColor" stroke="currentColor" stroke-linecap="round" stroke-linejoin="round" stroke-width=".08"/>
  </g>
  <g transform="translate(13.84,4.5796)">
   <polygon points="0.9014 0.3861 -4e-4 0.204 0.0788 -0.1881 0.9806 -6e-3" fill="currentColor" stroke="currentColor" stroke-linecap="round" stroke-linejoin="round" stroke-width=".08"/>
  </g>
  <g transform="translate(13.84,3.7696)">
   <polygon points="0.9014 0.3861 -4e-4 0.204 0.0788 -0.1881 0.9806 -6e-3" fill="currentColor" stroke="currentColor" stroke-linecap="round" stroke-linejoin="round" stroke-width=".08"/>
  </g>
 </a>
 <g transform="translate(9.7777 7.2358)">
  <rect x="-.065" y="-5.1772" width=".13" height="5.4911" ry=".04" fill="currentColor"/>
 </g>
 <a transform="translate(-4.5524 -1)" color="inherit" xlink:href="textedit:///home/atwestbrooke/reveal.js/Instrumentenkunde/Instrumente/Holzblaeser/Holzblaeser_Bilder/Querfl._Bilder/Flatterzunge.ly:18:42:43">
  <g transform="translate(13.743,9.7358)">
   <path transform="scale(.004 -.004)" d="m-50 0c0 28 22 50 50 50s50-22 50-50-22-50-50-50-50 22-50 50z" fill="currentColor"/>
  </g>
 </a>
 <a transform="translate(-4.5524 -1)" color="inherit" xlink:href="textedit:///home/atwestbrooke/reveal.js/Instrumentenkunde/Instrumente/Holzblaeser/Holzblaeser_Bilder/Querfl._Bilder/Flatterzunge.ly:18:37:38">
  <g transform="translate(13.091 8.7358)">
   <path transform="scale(.004 -.004)" d="m218 136c66 0 108-36 108-89 0-89-113-183-218-183-66 0-108 36-108 89 0 89 113 183 218 183z" fill="currentColor"/>
  </g>
 </a>
 <g transform="translate(4.65 7.2358)">
  <path transform="scale(.004 -.004)" d="m27 41-1-66v-11c0-22 1-44 4-66 45 38 93 80 93 139 0 33-14 67-43 67-31 0-52-30-53-63zm-42-179-12 595c8 5 18 8 27 8s19-3 27-8l-7-345c25 21 58 34 91 34 52 0 89-48 89-102 0-80-86-117-147-169-15-13-24-38-45-38-13 0-23 11-23 25z" fill="currentColor"/>
 </g>
 <a transform="translate(-4.5524 -1)" color="inherit" xlink:href="textedit:///home/atwestbrooke/reveal.js/Instrumentenkunde/Instrumente/Holzblaeser/Holzblaeser_Bilder/Querfl._Bilder/Flatterzunge.ly:18:14:15">
  <g transform="translate(9.6674,9.6183)">
   <polygon points="0.04 0.2 0.04 -0.2 1.46 -0.575 1.46 -0.175" fill="currentColor" stroke="currentColor" stroke-linecap="round" stroke-linejoin="round" stroke-width=".08"/>
  </g>
  <g transform="translate(9.6674 10.428)">
   <polygon points="0.04 0.2 0.04 -0.2 1.46 -0.575 1.46 -0.175" fill="currentColor" stroke="currentColor" stroke-linecap="round" stroke-linejoin="round" stroke-width=".08"/>
  </g>
  <g transform="translate(9.6674 11.238)">
   <polygon points="0.04 0.2 0.04 -0.2 1.46 -0.575 1.46 -0.175" fill="currentColor" stroke="currentColor" stroke-linecap="round" stroke-linejoin="round" stroke-width=".08"/>
  </g>
 </a>
 <g transform="translate(5.865 7.2358)">
  <rect x="-.065" y=".1861" width=".13" height="3.4389" ry=".04" fill="currentColor"/>
 </g>
 <g transform="translate(.8 8.2358)">
  <path transform="scale(.004 -.004)" d="m266-635h-6c-108 0-195 88-195 197 0 58 53 103 112 103 54 0 95-47 95-103 0-52-43-95-95-95-11 0-21 2-31 6 26-39 68-65 117-65h4zm195 432c68 24 113 90 113 164 0 90-66 179-173 190 19-89 48-242 60-354zm-387 231c0-145 141-247 264-247 1 0 47 0 82 6-7 64-29 203-63 364-79-8-124-61-124-119 0-44 25-91 81-123 5-5 7-10 7-15 0-11-10-22-22-22-15 0-126 62-126 187 0 88 58 174 160 197-14 58-29 117-46 175-107-121-213-243-213-403zm176 525c-29 96-52 170-52 346 0 115 55 224 149 292 6 5 14 5 20 0 68-80 133-245 133-358 0-143-86-255-180-364 21-68 39-138 56-207 2 0 7 1 13 1 155 0 256-128 256-261 0-113-74-212-180-246 3-35 5-70 5-105 0-19-1-39-2-58-7-119-88-225-202-228l1 43c93 2 153 92 159 191 1 18 2 37 2 55 0 31-1 61-4 92-5-1-44-8-89-8-193 0-333 180-333 374 0 177 131 306 248 441zm178 363c0 34 1 66-20 129-99-48-162-149-162-259 0-52 12-115 36-194 80 97 146 198 146 324z" fill="currentColor"/>
 </g>
 <a transform="translate(-4.5524 -1)" color="inherit" xlink:href="textedit:///home/atwestbrooke/reveal.js/Instrumentenkunde/Instrumente/Holzblaeser/Holzblaeser_Bilder/Querfl._Bilder/Flatterzunge.ly:18:24:25">
  <g transform="translate(11.004 5.4898)">
   <path transform="scale(.004 -.004)" d="m-44 88-248-65-142-23 142-23 248-65c8-2 14-9 14-18 0-13-12-21-23-18l-403 105c-13 0-19 6-19 19s6 19 19 19l403 105c11 3 23-5 23-18 0-9-6-16-14-18zm88 0c-8 2-14 9-14 18 0 13 12 21 23 18l403-105c13 0 19-6 19-19s-6-19-19-19l-403-105c-11-3-23 5-23 18 0 9 6 16 14 18l248 65 142 23-142 23z" fill="currentColor"/>
  </g>
 </a>
 <a transform="translate(-4.5524 -1)" color="inherit" xlink:href="textedit:///home/atwestbrooke/reveal.js/Instrumentenkunde/Instrumente/Holzblaeser/Holzblaeser_Bilder/Querfl._Bilder/Flatterzunge.ly:18:17:18">
  <g transform="translate(10.352 2.6721)">
   <text fill="currentColor" font-family="serif" font-size="2.2001px"><tspan>Flz.</tspan></text>
  </g>
 </a>
 <a transform="translate(-4.5524 -1)" color="inherit" xlink:href="textedit:///home/atwestbrooke/reveal.js/Instrumentenkunde/Instrumente/Holzblaeser/Holzblaeser_Bilder/Querfl._Bilder/Flatterzunge.ly:18:13:14">
  <g transform="translate(10.352 8.2358)">
   <path transform="scale(.004 -.004)" d="m218 136c66 0 108-36 108-89 0-89-113-183-218-183-66 0-108 36-108 89 0 89 113 183 218 183z" fill="currentColor"/>
  </g>
 </a>
 <a transform="translate(-4.5524 -1)" color="inherit" xlink:href="textedit:///home/atwestbrooke/reveal.js/Instrumentenkunde/Instrumente/Holzblaeser/Holzblaeser_Bilder/Querfl._Bilder/Flatterzunge.ly:18:53:54">
  <g transform="translate(18.791 7.174)">
   <polygon points="0.9014 0.3861 -4e-4 0.204 0.0788 -0.1881 0.9806 -6e-3" fill="currentColor" stroke="currentColor" stroke-linecap="round" stroke-linejoin="round" stroke-width=".08"/>
  </g>
  <g transform="translate(18.791 6.364)">
   <polygon points="0.9014 0.3861 -4e-4 0.204 0.0788 -0.1881 0.9806 -6e-3" fill="currentColor" stroke="currentColor" stroke-linecap="round" stroke-linejoin="round" stroke-width=".08"/>
  </g>
  <g transform="translate(18.791 5.554)">
   <polygon points="0.9014 0.3861 -4e-4 0.204 0.0788 -0.1881 0.9806 -6e-3" fill="currentColor" stroke="currentColor" stroke-linecap="round" stroke-linejoin="round" stroke-width=".08"/>
  </g>
 </a>
 <g transform="translate(18.879 7.2358)">
  <rect x="-.065" y="-3.125" width=".13" height="3.4389" ry=".04" fill="currentColor"/>
 </g>
 <g transform="translate(19.394 7.7358)">
  <path transform="scale(.004 -.004)" d="m0 0c0 31 25 56 56 56s56-25 56-56-25-56-56-56-56 25-56 56z" fill="currentColor"/>
 </g>
 <a transform="translate(-4.5524 -1)" color="inherit" xlink:href="textedit:///home/atwestbrooke/reveal.js/Instrumentenkunde/Instrumente/Holzblaeser/Holzblaeser_Bilder/Querfl._Bilder/Flatterzunge.ly:18:72:73">
  <g transform="translate(22.192 8.7358)">
   <path transform="scale(.004 -.004)" d="m218 136c66 0 108-36 108-89 0-89-113-183-218-183-66 0-108 36-108 89 0 89 113 183 218 183z" fill="currentColor"/>
  </g>
 </a>
 <g transform="translate(12.339 9.2358)">
  <path transform="scale(.004 -.004)" d="m27 41-1-66v-11c0-22 1-44 4-66 45 38 93 80 93 139 0 33-14 67-43 67-31 0-52-30-53-63zm-42-179-12 595c8 5 18 8 27 8s19-3 27-8l-7-345c25 21 58 34 91 34 52 0 89-48 89-102 0-80-86-117-147-169-15-13-24-38-45-38-13 0-23 11-23 25z" fill="currentColor"/>
 </g>
 <g transform="translate(7.5043 7.7358)">
  <path transform="scale(.004 -.004)" d="m-7 375c8 4 17 7 25 7s16-3 24-7l-2-183 106 20h3c10 0 18-7 18-17l7-570c-8-4-17-7-25-7s-16 3-24 7l2 183-106-20h-3c-10 0-18 7-18 17zm138-263-92-17-3-207 92 17z" fill="currentColor"/>
 </g>
 <a transform="translate(-4.5524 -1)" color="inherit" xlink:href="textedit:///home/atwestbrooke/reveal.js/Instrumentenkunde/Instrumente/Holzblaeser/Holzblaeser_Bilder/Querfl._Bilder/Flatterzunge.ly:18:51:52">
  <g transform="translate(18.042 10.236)">
   <path transform="scale(.004 -.004)" d="m218 136c66 0 108-36 108-89 0-89-113-183-218-183-66 0-108 36-108 89 0 89 113 183 218 183z" fill="currentColor"/>
  </g>
 </a>
 <g transform="translate(14.728 7.2358)">
  <rect x="-.065" y="-4.2028" width=".13" height="6.0167" ry=".04" fill="currentColor"/>
 </g>
 <a transform="translate(-4.5524 -1)" color="inherit" xlink:href="textedit:///home/atwestbrooke/reveal.js/Instrumentenkunde/Instrumente/Holzblaeser/Holzblaeser_Bilder/Querfl._Bilder/Flatterzunge.ly:18:47:48">
  <g transform="translate(15.172 8.2358)">
   <path transform="scale(.004 -.004)" d="m125 205c79 0 45-98 90-98 15 0 50 49 57 63 6 12 23 12 28 0l-179-670c-8-7-17-10-27-10s-20 3-28 10l101 327c-34-12-70-23-106-23-47 0-87 34-87 79 0 40 32 72 72 72 79 0 46-98 91-98 16 0 55 51 60 68l46 151c-34-12-68-22-104-22-47 0-87 34-87 79 0 40 33 72 73 72z" fill="currentColor"/>
  </g>
 </a>
</svg>
