<svg xmlns="http://www.w3.org/2000/svg" xmlns:xlink="http://www.w3.org/1999/xlink" version="1.2" width="210.00mm" height="297.00mm" viewBox="0.0000 -0.0000 119.5016 169.0094">
<style type="text/css">
<![CDATA[
tspan { white-space: pre; }
]]>
</style>
<g transform="translate(14.2264, 17.5669)">
<line stroke-linejoin="round" stroke-linecap="round" stroke-width="0.1000" stroke="currentColor" x1="0.0500" y1="0" x2="56.5231" y2="0"/>
</g>
<g transform="translate(14.2264, 16.5669)">
<line stroke-linejoin="round" stroke-linecap="round" stroke-width="0.1000" stroke="currentColor" x1="0.0500" y1="0" x2="56.5231" y2="0"/>
</g>
<g transform="translate(14.2264, 15.5669)">
<line stroke-linejoin="round" stroke-linecap="round" stroke-width="0.1000" stroke="currentColor" x1="0.0500" y1="0" x2="56.5231" y2="0"/>
</g>
<g transform="translate(14.2264, 14.5669)">
<line stroke-linejoin="round" stroke-linecap="round" stroke-width="0.1000" stroke="currentColor" x1="0.0500" y1="0" x2="56.5231" y2="0"/>
</g>
<g transform="translate(14.2264, 13.5669)">
<line stroke-linejoin="round" stroke-linecap="round" stroke-width="0.1000" stroke="currentColor" x1="0.0500" y1="0" x2="56.5231" y2="0"/>
</g>
<g transform="translate(42.7092, 15.5669)">
<rect x="0.0000" y="-2.0000" width="0.1900" height="4.0500" ry="0.0000" fill="currentColor"/>
</g>
<g transform="translate(42.2192, 15.5669)">
<rect x="0.0000" y="-2.0000" width="0.1900" height="4.0500" ry="0.0000" fill="currentColor"/>
</g>
<g transform="translate(42.7092, 27.1619)">
<rect x="0.0000" y="-2.0500" width="0.1900" height="4.1000" ry="0.0000" fill="currentColor"/>
</g>
<g transform="translate(42.2192, 27.1619)">
<rect x="0.0000" y="-2.0500" width="0.1900" height="4.1000" ry="0.0000" fill="currentColor"/>
</g>
<g transform="translate(42.7092, 38.2569)">
<rect x="0.0000" y="-2.0500" width="0.1900" height="4.1000" ry="0.0000" fill="currentColor"/>
</g>
<g transform="translate(42.2192, 38.2569)">
<rect x="0.0000" y="-2.0500" width="0.1900" height="4.1000" ry="0.0000" fill="currentColor"/>
</g>
<g transform="translate(42.7092, 48.3519)">
<rect x="0.0000" y="-2.0500" width="0.1900" height="4.1000" ry="0.0000" fill="currentColor"/>
</g>
<g transform="translate(42.2192, 48.3519)">
<rect x="0.0000" y="-2.0500" width="0.1900" height="4.1000" ry="0.0000" fill="currentColor"/>
</g>
<g transform="translate(42.7092, 58.4469)">
<rect x="0.0000" y="-2.0500" width="0.1900" height="4.0500" ry="0.0000" fill="currentColor"/>
</g>
<g transform="translate(42.2192, 58.4469)">
<rect x="0.0000" y="-2.0500" width="0.1900" height="4.0500" ry="0.0000" fill="currentColor"/>
</g>
<g transform="translate(14.2264, 60.4469)">
<line stroke-linejoin="round" stroke-linecap="round" stroke-width="0.1000" stroke="currentColor" x1="0.0500" y1="0" x2="56.5231" y2="0"/>
</g>
<g transform="translate(14.2264, 59.4469)">
<line stroke-linejoin="round" stroke-linecap="round" stroke-width="0.1000" stroke="currentColor" x1="0.0500" y1="0" x2="56.5231" y2="0"/>
</g>
<g transform="translate(14.2264, 58.4469)">
<line stroke-linejoin="round" stroke-linecap="round" stroke-width="0.1000" stroke="currentColor" x1="0.0500" y1="0" x2="56.5231" y2="0"/>
</g>
<g transform="translate(14.2264, 57.4469)">
<line stroke-linejoin="round" stroke-linecap="round" stroke-width="0.1000" stroke="currentColor" x1="0.0500" y1="0" x2="56.5231" y2="0"/>
</g>
<g transform="translate(14.2264, 56.4469)">
<line stroke-linejoin="round" stroke-linecap="round" stroke-width="0.1000" stroke="currentColor" x1="0.0500" y1="0" x2="56.5231" y2="0"/>
</g>
<g transform="translate(5.6906, 53.4469)">
<rect x="57.8564" y="-0.1000" width="2.9430" height="0.2000" ry="0.1000" fill="currentColor"/>
</g>
<g transform="translate(5.6906, 54.4469)">
<rect x="57.8564" y="-0.1000" width="2.9430" height="0.2000" ry="0.1000" fill="currentColor"/>
</g>
<g transform="translate(5.6906, 55.4469)">
<rect x="57.8564" y="-0.1000" width="2.9430" height="0.2000" ry="0.1000" fill="currentColor"/>
</g>
<g transform="translate(5.6906, 61.4469)">
<rect x="45.4648" y="-0.1000" width="2.9430" height="0.2000" ry="0.1000" fill="currentColor"/>
</g>
<g transform="translate(5.6906, 62.4469)">
<rect x="45.4648" y="-0.1000" width="2.9430" height="0.2000" ry="0.1000" fill="currentColor"/>
</g>
<g transform="translate(5.6906, 52.4469)">
<rect x="28.0761" y="-0.1000" width="2.9430" height="0.2000" ry="0.1000" fill="currentColor"/>
</g>
<g transform="translate(5.6906, 53.4469)">
<rect x="28.0761" y="-0.1000" width="2.9430" height="0.2000" ry="0.1000" fill="currentColor"/>
</g>
<g transform="translate(5.6906, 54.4469)">
<rect x="28.0761" y="-0.1000" width="2.9430" height="0.2000" ry="0.1000" fill="currentColor"/>
</g>
<g transform="translate(5.6906, 55.4469)">
<rect x="28.0761" y="-0.1000" width="2.9430" height="0.2000" ry="0.1000" fill="currentColor"/>
</g>
<g transform="translate(5.6906, 61.4469)">
<rect x="16.7453" y="-0.1000" width="2.9430" height="0.2000" ry="0.1000" fill="currentColor"/>
</g>
<g transform="translate(5.6906, 19.1619)">
<rect x="57.8564" y="-0.1000" width="2.9430" height="0.2000" ry="0.1000" fill="currentColor"/>
</g>
<g transform="translate(5.6906, 20.1619)">
<rect x="57.8564" y="-0.1000" width="2.9430" height="0.2000" ry="0.1000" fill="currentColor"/>
</g>
<g transform="translate(5.6906, 21.1619)">
<rect x="57.8564" y="-0.1000" width="2.9430" height="0.2000" ry="0.1000" fill="currentColor"/>
</g>
<g transform="translate(5.6906, 22.1619)">
<rect x="57.8564" y="-0.1000" width="2.9430" height="0.2000" ry="0.1000" fill="currentColor"/>
</g>
<g transform="translate(5.6906, 23.1619)">
<rect x="57.8564" y="-0.1000" width="2.9430" height="0.2000" ry="0.1000" fill="currentColor"/>
</g>
<g transform="translate(5.6906, 24.1619)">
<rect x="57.8564" y="-0.1000" width="2.9430" height="0.2000" ry="0.1000" fill="currentColor"/>
</g>
<g transform="translate(5.6906, 30.1619)">
<rect x="45.4648" y="-0.1000" width="2.9430" height="0.2000" ry="0.1000" fill="currentColor"/>
</g>
<g transform="translate(5.6906, 19.1619)">
<rect x="28.0761" y="-0.1000" width="2.9430" height="0.2000" ry="0.1000" fill="currentColor"/>
</g>
<g transform="translate(5.6906, 20.1619)">
<rect x="28.0761" y="-0.1000" width="2.9430" height="0.2000" ry="0.1000" fill="currentColor"/>
</g>
<g transform="translate(5.6906, 21.1619)">
<rect x="28.0761" y="-0.1000" width="2.9430" height="0.2000" ry="0.1000" fill="currentColor"/>
</g>
<g transform="translate(5.6906, 22.1619)">
<rect x="28.0761" y="-0.1000" width="2.9430" height="0.2000" ry="0.1000" fill="currentColor"/>
</g>
<g transform="translate(5.6906, 23.1619)">
<rect x="28.0761" y="-0.1000" width="2.9430" height="0.2000" ry="0.1000" fill="currentColor"/>
</g>
<g transform="translate(5.6906, 24.1619)">
<rect x="28.0761" y="-0.1000" width="2.9430" height="0.2000" ry="0.1000" fill="currentColor"/>
</g>
<g transform="translate(5.6906, 30.1619)">
<rect x="16.7453" y="-0.1000" width="2.9430" height="0.2000" ry="0.1000" fill="currentColor"/>
</g>
<g transform="translate(42.7092, 3.8453)">
<rect x="0.0000" y="46.5566" width="0.1900" height="6.0450" ry="0.0000" fill="currentColor"/>
</g>
<g transform="translate(42.2192, 3.8453)">
<rect x="0.0000" y="46.5566" width="0.1900" height="6.0450" ry="0.0000" fill="currentColor"/>
</g>
<g transform="translate(42.7092, 3.8453)">
<rect x="0.0000" y="36.4616" width="0.1900" height="6.0450" ry="0.0000" fill="currentColor"/>
</g>
<g transform="translate(42.2192, 3.8453)">
<rect x="0.0000" y="36.4616" width="0.1900" height="6.0450" ry="0.0000" fill="currentColor"/>
</g>
<g transform="translate(42.7092, 3.8453)">
<rect x="0.0000" y="25.3666" width="0.1900" height="7.0450" ry="0.0000" fill="currentColor"/>
</g>
<g transform="translate(42.2192, 3.8453)">
<rect x="0.0000" y="25.3666" width="0.1900" height="7.0450" ry="0.0000" fill="currentColor"/>
</g>
<g transform="translate(42.7092, 3.8453)">
<rect x="0.0000" y="13.7716" width="0.1900" height="7.5450" ry="0.0000" fill="currentColor"/>
</g>
<g transform="translate(42.2192, 3.8453)">
<rect x="0.0000" y="13.7716" width="0.1900" height="7.5450" ry="0.0000" fill="currentColor"/>
</g>
<g transform="translate(5.6906, 32.2569)">
<rect x="57.8564" y="-0.1000" width="2.9430" height="0.2000" ry="0.1000" fill="currentColor"/>
</g>
<g transform="translate(5.6906, 33.2569)">
<rect x="57.8564" y="-0.1000" width="2.9430" height="0.2000" ry="0.1000" fill="currentColor"/>
</g>
<g transform="translate(5.6906, 34.2569)">
<rect x="57.8564" y="-0.1000" width="2.9430" height="0.2000" ry="0.1000" fill="currentColor"/>
</g>
<g transform="translate(5.6906, 35.2569)">
<rect x="57.8564" y="-0.1000" width="2.9430" height="0.2000" ry="0.1000" fill="currentColor"/>
</g>
<g transform="translate(5.6906, 41.2569)">
<rect x="45.4648" y="-0.1000" width="2.9430" height="0.2000" ry="0.1000" fill="currentColor"/>
</g>
<g transform="translate(5.6906, 42.2569)">
<rect x="45.4648" y="-0.1000" width="2.9430" height="0.2000" ry="0.1000" fill="currentColor"/>
</g>
<g transform="translate(5.6906, 31.2569)">
<rect x="28.0761" y="-0.1000" width="2.9430" height="0.2000" ry="0.1000" fill="currentColor"/>
</g>
<g transform="translate(5.6906, 32.2569)">
<rect x="28.0761" y="-0.1000" width="2.9430" height="0.2000" ry="0.1000" fill="currentColor"/>
</g>
<g transform="translate(5.6906, 33.2569)">
<rect x="28.0761" y="-0.1000" width="2.9430" height="0.2000" ry="0.1000" fill="currentColor"/>
</g>
<g transform="translate(5.6906, 34.2569)">
<rect x="28.0761" y="-0.1000" width="2.9430" height="0.2000" ry="0.1000" fill="currentColor"/>
</g>
<g transform="translate(5.6906, 35.2569)">
<rect x="28.0761" y="-0.1000" width="2.9430" height="0.2000" ry="0.1000" fill="currentColor"/>
</g>
<g transform="translate(5.6906, 41.2569)">
<rect x="16.7453" y="-0.1000" width="2.9430" height="0.2000" ry="0.1000" fill="currentColor"/>
</g>
<g transform="translate(14.2264, 40.2569)">
<line stroke-linejoin="round" stroke-linecap="round" stroke-width="0.1000" stroke="currentColor" x1="0.0500" y1="0" x2="56.5231" y2="0"/>
</g>
<g transform="translate(14.2264, 39.2569)">
<line stroke-linejoin="round" stroke-linecap="round" stroke-width="0.1000" stroke="currentColor" x1="0.0500" y1="0" x2="56.5231" y2="0"/>
</g>
<g transform="translate(14.2264, 38.2569)">
<line stroke-linejoin="round" stroke-linecap="round" stroke-width="0.1000" stroke="currentColor" x1="0.0500" y1="0" x2="56.5231" y2="0"/>
</g>
<g transform="translate(14.2264, 37.2569)">
<line stroke-linejoin="round" stroke-linecap="round" stroke-width="0.1000" stroke="currentColor" x1="0.0500" y1="0" x2="56.5231" y2="0"/>
</g>
<g transform="translate(14.2264, 36.2569)">
<line stroke-linejoin="round" stroke-linecap="round" stroke-width="0.1000" stroke="currentColor" x1="0.0500" y1="0" x2="56.5231" y2="0"/>
</g>
<g transform="translate(14.2264, 29.1619)">
<line stroke-linejoin="round" stroke-linecap="round" stroke-width="0.1000" stroke="currentColor" x1="0.0500" y1="0" x2="56.5231" y2="0"/>
</g>
<g transform="translate(14.2264, 28.1619)">
<line stroke-linejoin="round" stroke-linecap="round" stroke-width="0.1000" stroke="currentColor" x1="0.0500" y1="0" x2="56.5231" y2="0"/>
</g>
<g transform="translate(14.2264, 27.1619)">
<line stroke-linejoin="round" stroke-linecap="round" stroke-width="0.1000" stroke="currentColor" x1="0.0500" y1="0" x2="56.5231" y2="0"/>
</g>
<g transform="translate(14.2264, 26.1619)">
<line stroke-linejoin="round" stroke-linecap="round" stroke-width="0.1000" stroke="currentColor" x1="0.0500" y1="0" x2="56.5231" y2="0"/>
</g>
<g transform="translate(14.2264, 25.1619)">
<line stroke-linejoin="round" stroke-linecap="round" stroke-width="0.1000" stroke="currentColor" x1="0.0500" y1="0" x2="56.5231" y2="0"/>
</g>
<g transform="translate(5.6906, 45.3519)">
<rect x="57.8564" y="-0.1000" width="2.9430" height="0.2000" ry="0.1000" fill="currentColor"/>
</g>
<g transform="translate(5.6906, 42.3519)">
<rect x="28.0761" y="-0.1000" width="2.9430" height="0.2000" ry="0.1000" fill="currentColor"/>
</g>
<g transform="translate(5.6906, 43.3519)">
<rect x="28.0761" y="-0.1000" width="2.9430" height="0.2000" ry="0.1000" fill="currentColor"/>
</g>
<g transform="translate(5.6906, 44.3519)">
<rect x="28.0761" y="-0.1000" width="2.9430" height="0.2000" ry="0.1000" fill="currentColor"/>
</g>
<g transform="translate(5.6906, 45.3519)">
<rect x="28.0761" y="-0.1000" width="2.9430" height="0.2000" ry="0.1000" fill="currentColor"/>
</g>
<g transform="translate(5.6906, 51.3519)">
<rect x="16.7453" y="-0.1000" width="2.9430" height="0.2000" ry="0.1000" fill="currentColor"/>
</g>
<g transform="translate(14.2264, 50.3519)">
<line stroke-linejoin="round" stroke-linecap="round" stroke-width="0.1000" stroke="currentColor" x1="0.0500" y1="0" x2="56.5231" y2="0"/>
</g>
<g transform="translate(14.2264, 49.3519)">
<line stroke-linejoin="round" stroke-linecap="round" stroke-width="0.1000" stroke="currentColor" x1="0.0500" y1="0" x2="56.5231" y2="0"/>
</g>
<g transform="translate(14.2264, 48.3519)">
<line stroke-linejoin="round" stroke-linecap="round" stroke-width="0.1000" stroke="currentColor" x1="0.0500" y1="0" x2="56.5231" y2="0"/>
</g>
<g transform="translate(14.2264, 47.3519)">
<line stroke-linejoin="round" stroke-linecap="round" stroke-width="0.1000" stroke="currentColor" x1="0.0500" y1="0" x2="56.5231" y2="0"/>
</g>
<g transform="translate(14.2264, 46.3519)">
<line stroke-linejoin="round" stroke-linecap="round" stroke-width="0.1000" stroke="currentColor" x1="0.0500" y1="0" x2="56.5231" y2="0"/>
</g>
<g transform="translate(5.6906, 9.5669)">
<rect x="57.8564" y="-0.1000" width="2.9430" height="0.2000" ry="0.1000" fill="currentColor"/>
</g>
<g transform="translate(5.6906, 10.5669)">
<rect x="57.8564" y="-0.1000" width="2.9430" height="0.2000" ry="0.1000" fill="currentColor"/>
</g>
<g transform="translate(5.6906, 11.5669)">
<rect x="57.8564" y="-0.1000" width="2.9430" height="0.2000" ry="0.1000" fill="currentColor"/>
</g>
<g transform="translate(5.6906, 12.5669)">
<rect x="57.8564" y="-0.1000" width="2.9430" height="0.2000" ry="0.1000" fill="currentColor"/>
</g>
<g transform="translate(5.6906, 9.5669)">
<rect x="28.0761" y="-0.1000" width="2.9430" height="0.2000" ry="0.1000" fill="currentColor"/>
</g>
<g transform="translate(5.6906, 10.5669)">
<rect x="28.0761" y="-0.1000" width="2.9430" height="0.2000" ry="0.1000" fill="currentColor"/>
</g>
<g transform="translate(5.6906, 11.5669)">
<rect x="28.0761" y="-0.1000" width="2.9430" height="0.2000" ry="0.1000" fill="currentColor"/>
</g>
<g transform="translate(5.6906, 12.5669)">
<rect x="28.0761" y="-0.1000" width="2.9430" height="0.2000" ry="0.1000" fill="currentColor"/>
</g>
<a style="color:inherit;" xlink:href="textedit:///home/atwestbrooke/reveal.js-master/Instrumentenkunde/Instrumente/Holzblaeser/Holzblaeser_Bilder/Querfl_Bilder/Floetenumfaenge.ly:21:115:116">
<g transform="translate(63.2375, 8.0271)">
<text font-family="serif" font-weight="bold" font-style="italic" font-size="2.2001" text-anchor="start" fill="currentColor">
<tspan>8</tspan>
</text>
</g>
<g transform="translate(65.0739, 7.2263)">
<line stroke-linejoin="round" stroke-linecap="round" stroke-width="0.1000" stroke="currentColor" x1="1.5256" y1="-0.0000" x2="1.5256" y2="0.8000"/>
</g>
<g transform="translate(65.0739, 7.2263)">
<line stroke-linejoin="round" stroke-linecap="round" stroke-width="0.1000" stroke="currentColor" x1="0.0000" y1="-0.0000" x2="0.0000" y2="-0.0000"/>
</g>
<g transform="translate(65.0739, 7.2263)">
<line stroke-linejoin="round" stroke-linecap="round" stroke-width="0.1000" stroke="currentColor" x1="0" y1="0" x2="1.5256" y2="-0.0000" stroke-dasharray="0.35205073410054505,0.821451712901272"/>
</g>
</a>
<a style="color:inherit;" xlink:href="textedit:///home/atwestbrooke/reveal.js-master/Instrumentenkunde/Instrumente/Holzblaeser/Holzblaeser_Bilder/Querfl_Bilder/Floetenumfaenge.ly:21:126:127">
<g transform="translate(64.0375, 9.0669)">
<path transform="scale(0.0040, -0.0040)" d="M213 112c-45 0 -69 -34 -69 -88c0 -102 89 -136 134 -136s69 34 69 88c0 102 -89 136 -134 136zM245 136c144 0 246 -65 246 -136s-102 -136 -246 -136s-245 65 -245 136s101 136 245 136z" fill="currentColor"/>
</g>
</a>
<a style="color:inherit;" xlink:href="textedit:///home/atwestbrooke/reveal.js-master/Instrumentenkunde/Instrumente/Holzblaeser/Holzblaeser_Bilder/Querfl_Bilder/Floetenumfaenge.ly:25:68:69">
<g transform="translate(64.0375, 19.1619)">
<path transform="scale(0.0040, -0.0040)" d="M213 112c-45 0 -69 -34 -69 -88c0 -102 89 -136 134 -136s69 34 69 88c0 102 -89 136 -134 136zM245 136c144 0 246 -65 246 -136s-102 -136 -246 -136s-245 65 -245 136s101 136 245 136z" fill="currentColor"/>
</g>
</a>
<a style="color:inherit;" xlink:href="textedit:///home/atwestbrooke/reveal.js-master/Instrumentenkunde/Instrumente/Holzblaeser/Holzblaeser_Bilder/Querfl_Bilder/Floetenumfaenge.ly:29:87:88">
<g transform="translate(64.0375, 32.2569)">
<path transform="scale(0.0040, -0.0040)" d="M213 112c-45 0 -69 -34 -69 -88c0 -102 89 -136 134 -136s69 34 69 88c0 102 -89 136 -134 136zM245 136c144 0 246 -65 246 -136s-102 -136 -246 -136s-245 65 -245 136s101 136 245 136z" fill="currentColor"/>
</g>
</a>
<a style="color:inherit;" xlink:href="textedit:///home/atwestbrooke/reveal.js-master/Instrumentenkunde/Instrumente/Holzblaeser/Holzblaeser_Bilder/Querfl_Bilder/Floetenumfaenge.ly:33:115:116">
<g transform="translate(64.0375, 45.3519)">
<path transform="scale(0.0040, -0.0040)" d="M213 112c-45 0 -69 -34 -69 -88c0 -102 89 -136 134 -136s69 34 69 88c0 102 -89 136 -134 136zM245 136c144 0 246 -65 246 -136s-102 -136 -246 -136s-245 65 -245 136s101 136 245 136z" fill="currentColor"/>
</g>
</a>
<g transform="translate(60.9854, 49.3519)">
<path transform="scale(0.0040, -0.0040)" d="M210 -512h-4c-87 0 -159 72 -159 160c0 46 42 83 90 83c43 0 76 -38 76 -83c0 -42 -34 -76 -76 -76c-4 0 -6 0 -10 1c19 -26 47 -42 81 -42h3zM373 -155c45 18 81 66 81 125c0 68 -48 136 -127 147c3 -12 33 -157 46 -272zM63 19c0 -115 115 -188 208 -188c1 0 34 0 60 4
c-6 51 -22 159 -48 283c-59 -7 -93 -48 -93 -92c0 -34 21 -70 64 -95c5 -5 6 -10 6 -15c0 -11 -9 -22 -21 -22c-15 0 -104 51 -104 152c0 71 46 141 128 161c-11 48 -24 95 -38 143c-82 -101 -162 -202 -162 -331zM193 457c-29 94 -42 142 -42 288c0 93 42 181 115 239
c6 5 14 4 20 -1c55 -66 107 -201 107 -295c0 -115 -63 -207 -135 -297c17 -59 33 -119 47 -179h1c2 0 4 1 6 1c126 0 206 -105 206 -212c0 -92 -59 -170 -141 -197c2 -27 3 -54 3 -81c0 -16 0 -33 -1 -49c-6 -98 -75 -184 -169 -186l1 43c38 1 127 22 127 194
c0 23 -1 46 -3 69c-4 -1 -34 -6 -67 -6c-155 0 -266 144 -266 302c0 144 101 254 191 367zM319 860c-76 -44 -123 -124 -123 -211c0 -36 10 -86 29 -151c59 79 107 162 107 261c0 25 1 50 -13 101z" fill="currentColor"/>
</g>
<a style="color:inherit;" xlink:href="textedit:///home/atwestbrooke/reveal.js-master/Instrumentenkunde/Instrumente/Holzblaeser/Holzblaeser_Bilder/Querfl_Bilder/Floetenumfaenge.ly:37:101:102">
<g transform="translate(64.0375, 52.9469)">
<path transform="scale(0.0040, -0.0040)" d="M213 112c-45 0 -69 -34 -69 -88c0 -102 89 -136 134 -136s69 34 69 88c0 102 -89 136 -134 136zM245 136c144 0 246 -65 246 -136s-102 -136 -246 -136s-245 65 -245 136s101 136 245 136z" fill="currentColor"/>
</g>
</a>
<a style="color:inherit;" xlink:href="textedit:///home/atwestbrooke/reveal.js-master/Instrumentenkunde/Instrumente/Holzblaeser/Holzblaeser_Bilder/Querfl_Bilder/Floetenumfaenge.ly:21:82:83">
<g transform="translate(51.6459, 5.5169)">
<text font-family="serif" font-weight="bold" font-size="2.2001" text-anchor="start" fill="currentColor">
<tspan>Klang</tspan>
</text>
</g>
</a>
<a style="color:inherit;" xlink:href="textedit:///home/atwestbrooke/reveal.js-master/Instrumentenkunde/Instrumente/Holzblaeser/Holzblaeser_Bilder/Querfl_Bilder/Floetenumfaenge.ly:25:48:49">
<g transform="translate(51.6459, 30.6619)">
<path transform="scale(0.0040, -0.0040)" d="M213 112c-45 0 -69 -34 -69 -88c0 -102 89 -136 134 -136s69 34 69 88c0 102 -89 136 -134 136zM245 136c144 0 246 -65 246 -136s-102 -136 -246 -136s-245 65 -245 136s101 136 245 136z" fill="currentColor"/>
</g>
</a>
<a style="color:inherit;" xlink:href="textedit:///home/atwestbrooke/reveal.js-master/Instrumentenkunde/Instrumente/Holzblaeser/Holzblaeser_Bilder/Querfl_Bilder/Floetenumfaenge.ly:29:66:67">
<g transform="translate(51.6459, 42.7569)">
<path transform="scale(0.0040, -0.0040)" d="M213 112c-45 0 -69 -34 -69 -88c0 -102 89 -136 134 -136s69 34 69 88c0 102 -89 136 -134 136zM245 136c144 0 246 -65 246 -136s-102 -136 -246 -136s-245 65 -245 136s101 136 245 136z" fill="currentColor"/>
</g>
</a>
<a style="color:inherit;" xlink:href="textedit:///home/atwestbrooke/reveal.js-master/Instrumentenkunde/Instrumente/Holzblaeser/Holzblaeser_Bilder/Querfl_Bilder/Floetenumfaenge.ly:33:79:80">
<g transform="translate(51.6459, 48.8519)">
<path transform="scale(0.0040, -0.0040)" d="M213 112c-45 0 -69 -34 -69 -88c0 -102 89 -136 134 -136s69 34 69 88c0 102 -89 136 -134 136zM245 136c144 0 246 -65 246 -136s-102 -136 -246 -136s-245 65 -245 136s101 136 245 136z" fill="currentColor"/>
</g>
</a>
<g transform="translate(48.4992, 47.3519)">
<path transform="scale(0.0040, -0.0040)" d="M446 -100c0 23 18 41 41 41s41 -18 41 -41s-18 -41 -41 -41s-41 18 -41 41zM446 100c0 23 18 41 41 41s41 -18 41 -41s-18 -41 -41 -41s-41 18 -41 41zM179 213c140 0 241 -69 241 -201c0 -211 -210 -333 -411 -421c-3 -3 -6 -4 -9 -4c-7 0 -13 6 -13 13c0 3 1 6 4 9
c150 98 307 217 307 393c0 92 -38 185 -119 185c-52 0 -87 -38 -104 -90c5 1 10 2 15 2c44 0 80 -36 80 -80c0 -46 -35 -85 -80 -85c-48 0 -90 38 -90 85c0 104 77 194 179 194z" fill="currentColor"/>
</g>
<a style="color:inherit;" xlink:href="textedit:///home/atwestbrooke/reveal.js-master/Instrumentenkunde/Instrumente/Holzblaeser/Holzblaeser_Bilder/Querfl_Bilder/Floetenumfaenge.ly:37:80:81">
<g transform="translate(51.6459, 62.4469)">
<path transform="scale(0.0040, -0.0040)" d="M213 112c-45 0 -69 -34 -69 -88c0 -102 89 -136 134 -136s69 34 69 88c0 102 -89 136 -134 136zM245 136c144 0 246 -65 246 -136s-102 -136 -246 -136s-245 65 -245 136s101 136 245 136z" fill="currentColor"/>
</g>
</a>
<g transform="translate(48.4992, 57.4469)">
<path transform="scale(0.0040, -0.0040)" d="M446 -100c0 23 18 41 41 41s41 -18 41 -41s-18 -41 -41 -41s-41 18 -41 41zM446 100c0 23 18 41 41 41s41 -18 41 -41s-18 -41 -41 -41s-41 18 -41 41zM179 213c140 0 241 -69 241 -201c0 -211 -210 -333 -411 -421c-3 -3 -6 -4 -9 -4c-7 0 -13 6 -13 13c0 3 1 6 4 9
c150 98 307 217 307 393c0 92 -38 185 -119 185c-52 0 -87 -38 -104 -90c5 1 10 2 15 2c44 0 80 -36 80 -80c0 -46 -35 -85 -80 -85c-48 0 -90 38 -90 85c0 104 77 194 179 194z" fill="currentColor"/>
</g>
<a style="color:inherit;" xlink:href="textedit:///home/atwestbrooke/reveal.js-master/Instrumentenkunde/Instrumente/Holzblaeser/Holzblaeser_Bilder/Querfl_Bilder/Floetenumfaenge.ly:21:72:73">
<g transform="translate(51.6459, 14.5669)">
<path transform="scale(0.0040, -0.0040)" d="M213 112c-45 0 -69 -34 -69 -88c0 -102 89 -136 134 -136s69 34 69 88c0 102 -89 136 -134 136zM245 136c144 0 246 -65 246 -136s-102 -136 -246 -136s-245 65 -245 136s101 136 245 136z" fill="currentColor"/>
</g>
</a>
<a style="color:inherit;" xlink:href="textedit:///home/atwestbrooke/reveal.js-master/Instrumentenkunde/Instrumente/Holzblaeser/Holzblaeser_Bilder/Querfl_Bilder/Floetenumfaenge.ly:21:36:37">
<g transform="translate(5.6906, 15.5669)">
<line stroke-linejoin="round" stroke-linecap="round" stroke-width="0.1000" stroke="currentColor" x1="19.5584" y1="2.1536" x2="28.2061" y2="-6.1536"/>
</g>
</a>
<a style="color:inherit;" xlink:href="textedit:///home/atwestbrooke/reveal.js-master/Instrumentenkunde/Instrumente/Holzblaeser/Holzblaeser_Bilder/Querfl_Bilder/Floetenumfaenge.ly:25:12:13">
<g transform="translate(5.6906, 27.1619)">
<line stroke-linejoin="round" stroke-linecap="round" stroke-width="0.1000" stroke="currentColor" x1="19.5136" y1="3.1124" x2="28.2508" y2="-7.6124"/>
</g>
</a>
<a style="color:inherit;" xlink:href="textedit:///home/atwestbrooke/reveal.js-master/Instrumentenkunde/Instrumente/Holzblaeser/Holzblaeser_Bilder/Querfl_Bilder/Floetenumfaenge.ly:29:12:13">
<g transform="translate(5.6906, 38.2569)">
<line stroke-linejoin="round" stroke-linecap="round" stroke-width="0.1000" stroke="currentColor" x1="19.5307" y1="2.6269" x2="28.2338" y2="-7.1269"/>
</g>
</a>
<a style="color:inherit;" xlink:href="textedit:///home/atwestbrooke/reveal.js-master/Instrumentenkunde/Instrumente/Holzblaeser/Holzblaeser_Bilder/Querfl_Bilder/Floetenumfaenge.ly:33:12:13">
<g transform="translate(5.6906, 48.3519)">
<line stroke-linejoin="round" stroke-linecap="round" stroke-width="0.1000" stroke="currentColor" x1="19.5489" y1="2.6440" x2="28.2156" y2="-6.1440"/>
</g>
</a>
<a style="color:inherit;" xlink:href="textedit:///home/atwestbrooke/reveal.js-master/Instrumentenkunde/Instrumente/Holzblaeser/Holzblaeser_Bilder/Querfl_Bilder/Floetenumfaenge.ly:37:12:13">
<g transform="translate(5.6906, 58.4469)">
<line stroke-linejoin="round" stroke-linecap="round" stroke-width="0.1000" stroke="currentColor" x1="19.5489" y1="2.6440" x2="28.2156" y2="-6.1440"/>
</g>
</a>
<a style="color:inherit;" xlink:href="textedit:///home/atwestbrooke/reveal.js-master/Instrumentenkunde/Instrumente/Holzblaeser/Holzblaeser_Bilder/Querfl_Bilder/Floetenumfaenge.ly:21:104:105">
<g transform="translate(5.6906, 15.5669)">
<line stroke-linejoin="round" stroke-linecap="round" stroke-width="0.1000" stroke="currentColor" x1="48.3596" y1="-1.2332" x2="57.9046" y2="-6.2668"/>
</g>
</a>
<a style="color:inherit;" xlink:href="textedit:///home/atwestbrooke/reveal.js-master/Instrumentenkunde/Instrumente/Holzblaeser/Holzblaeser_Bilder/Querfl_Bilder/Floetenumfaenge.ly:25:57:58">
<g transform="translate(5.6906, 27.1619)">
<line stroke-linejoin="round" stroke-linecap="round" stroke-width="0.1000" stroke="currentColor" x1="48.2532" y1="3.1296" x2="58.0110" y2="-7.6296"/>
</g>
</a>
<a style="color:inherit;" xlink:href="textedit:///home/atwestbrooke/reveal.js-master/Instrumentenkunde/Instrumente/Holzblaeser/Holzblaeser_Bilder/Querfl_Bilder/Floetenumfaenge.ly:29:76:77">
<g transform="translate(5.6906, 38.2569)">
<line stroke-linejoin="round" stroke-linecap="round" stroke-width="0.1000" stroke="currentColor" x1="48.2697" y1="4.1453" x2="57.9945" y2="-5.6453"/>
</g>
</a>
<a style="color:inherit;" xlink:href="textedit:///home/atwestbrooke/reveal.js-master/Instrumentenkunde/Instrumente/Holzblaeser/Holzblaeser_Bilder/Querfl_Bilder/Floetenumfaenge.ly:33:89:90">
<g transform="translate(5.6906, 48.3519)">
<line stroke-linejoin="round" stroke-linecap="round" stroke-width="0.1000" stroke="currentColor" x1="48.3914" y1="0.3409" x2="57.8729" y2="-2.8409"/>
</g>
</a>
<a style="color:inherit;" xlink:href="textedit:///home/atwestbrooke/reveal.js-master/Instrumentenkunde/Instrumente/Holzblaeser/Holzblaeser_Bilder/Querfl_Bilder/Floetenumfaenge.ly:37:90:91">
<g transform="translate(5.6906, 58.4469)">
<line stroke-linejoin="round" stroke-linecap="round" stroke-width="0.1000" stroke="currentColor" x1="48.2870" y1="3.6633" x2="57.9773" y2="-5.1633"/>
</g>
</a>
<a style="color:inherit;" xlink:href="textedit:///home/atwestbrooke/reveal.js-master/Instrumentenkunde/Instrumente/Holzblaeser/Holzblaeser_Bilder/Querfl_Bilder/Floetenumfaenge.ly:37:4:5">
<g transform="translate(22.9264, 61.4469)">
<path transform="scale(0.0040, -0.0040)" d="M213 112c-45 0 -69 -34 -69 -88c0 -102 89 -136 134 -136s69 34 69 88c0 102 -89 136 -134 136zM245 136c144 0 246 -65 246 -136s-102 -136 -246 -136s-245 65 -245 136s101 136 245 136z" fill="currentColor"/>
</g>
</a>
<g transform="translate(15.0264, 59.4469)">
<path transform="scale(0.0040, -0.0040)" d="M266 -635h-6c-108 0 -195 88 -195 197c0 58 53 103 112 103c54 0 95 -47 95 -103c0 -52 -43 -95 -95 -95c-11 0 -21 2 -31 6c26 -39 68 -65 117 -65h4zM461 -203c68 24 113 90 113 164c0 90 -66 179 -173 190c19 -89 48 -242 60 -354zM74 28c0 -145 141 -247 264 -247
c1 0 47 0 82 6c-7 64 -29 203 -63 364c-79 -8 -124 -61 -124 -119c0 -44 25 -91 81 -123c5 -5 7 -10 7 -15c0 -11 -10 -22 -22 -22c-15 0 -126 62 -126 187c0 88 58 174 160 197c-14 58 -29 117 -46 175c-107 -121 -213 -243 -213 -403zM250 553c-29 96 -52 170 -52 346
c0 115 55 224 149 292c6 5 14 5 20 0c68 -80 133 -245 133 -358c0 -143 -86 -255 -180 -364c21 -68 39 -138 56 -207c2 0 7 1 13 1c155 0 256 -128 256 -261c0 -113 -74 -212 -180 -246c3 -35 5 -70 5 -105c0 -19 -1 -39 -2 -58c-7 -119 -88 -225 -202 -228l1 43
c93 2 153 92 159 191c1 18 2 37 2 55c0 31 -1 61 -4 92c-5 -1 -44 -8 -89 -8c-193 0 -333 180 -333 374c0 177 131 306 248 441zM428 916c0 34 1 66 -20 129c-99 -48 -162 -149 -162 -259c0 -52 12 -115 36 -194c80 97 146 198 146 324z" fill="currentColor"/>
</g>
<g transform="translate(15.0264, 49.3519)">
<path transform="scale(0.0040, -0.0040)" d="M266 -635h-6c-108 0 -195 88 -195 197c0 58 53 103 112 103c54 0 95 -47 95 -103c0 -52 -43 -95 -95 -95c-11 0 -21 2 -31 6c26 -39 68 -65 117 -65h4zM461 -203c68 24 113 90 113 164c0 90 -66 179 -173 190c19 -89 48 -242 60 -354zM74 28c0 -145 141 -247 264 -247
c1 0 47 0 82 6c-7 64 -29 203 -63 364c-79 -8 -124 -61 -124 -119c0 -44 25 -91 81 -123c5 -5 7 -10 7 -15c0 -11 -10 -22 -22 -22c-15 0 -126 62 -126 187c0 88 58 174 160 197c-14 58 -29 117 -46 175c-107 -121 -213 -243 -213 -403zM250 553c-29 96 -52 170 -52 346
c0 115 55 224 149 292c6 5 14 5 20 0c68 -80 133 -245 133 -358c0 -143 -86 -255 -180 -364c21 -68 39 -138 56 -207c2 0 7 1 13 1c155 0 256 -128 256 -261c0 -113 -74 -212 -180 -246c3 -35 5 -70 5 -105c0 -19 -1 -39 -2 -58c-7 -119 -88 -225 -202 -228l1 43
c93 2 153 92 159 191c1 18 2 37 2 55c0 31 -1 61 -4 92c-5 -1 -44 -8 -89 -8c-193 0 -333 180 -333 374c0 177 131 306 248 441zM428 916c0 34 1 66 -20 129c-99 -48 -162 -149 -162 -259c0 -52 12 -115 36 -194c80 97 146 198 146 324z" fill="currentColor"/>
</g>
<g transform="translate(2.4417, 16.3871)">
<text font-family="serif" font-size="2.2001" text-anchor="start" fill="currentColor">
<tspan>Piccolofl.</tspan>
</text>
</g>
<g transform="translate(5.0878, 27.7532)">
<text font-family="serif" font-size="2.2001" text-anchor="start" fill="currentColor">
<tspan>gr. Fl.</tspan>
</text>
</g>
<g transform="translate(5.6682, 39.0771)">
<text font-family="serif" font-size="2.2001" text-anchor="start" fill="currentColor">
<tspan>Altfl.</tspan>
</text>
</g>
<g transform="translate(5.0878, 49.1721)">
<text font-family="serif" font-size="2.2001" text-anchor="start" fill="currentColor">
<tspan>Baßfl.</tspan>
</text>
</g>
<g transform="translate(4.9853, 59.2671)">
<text font-family="serif" font-size="2.2001" text-anchor="start" fill="currentColor">
<tspan>Kb-Fl.</tspan>
</text>
</g>
<g transform="translate(12.9164, 13.2919)">
<path transform="scale(0.0040, -0.0040)" d="M0 -56v87c0 14 11 25 25 25h50c159 0 271 136 362 270c12 17 38 -1 26 -18c-99 -144 -215 -364 -388 -364h-75z" fill="currentColor"/>
</g>
<g transform="translate(12.9164, 60.7219)">
<path transform="scale(0.0040, -0.0040)" d="M0 56h75c173 0 289 -220 388 -364c12 -17 -14 -35 -26 -18c-91 134 -203 270 -362 270h-50c-14 0 -25 11 -25 25v87z" fill="currentColor"/>
</g>
<g transform="translate(12.9164, 37.0069)">
<rect x="0.0000" y="-23.5350" width="0.4500" height="47.0700" ry="0.0000" fill="currentColor"/>
</g>
<g transform="translate(14.1664, 37.0069)">
<rect x="0.0000" y="-23.4900" width="0.1600" height="46.9800" ry="0.0500" fill="currentColor"/>
</g>
<a style="color:inherit;" xlink:href="textedit:///home/atwestbrooke/reveal.js-master/Instrumentenkunde/Instrumente/Holzblaeser/Holzblaeser_Bilder/Querfl_Bilder/Floetenumfaenge.ly:21:4:5">
<g transform="translate(22.9264, 18.0669)">
<path transform="scale(0.0040, -0.0040)" d="M213 112c-45 0 -69 -34 -69 -88c0 -102 89 -136 134 -136s69 34 69 88c0 102 -89 136 -134 136zM245 136c144 0 246 -65 246 -136s-102 -136 -246 -136s-245 65 -245 136s101 136 245 136z" fill="currentColor"/>
</g>
</a>
<a style="color:inherit;" xlink:href="textedit:///home/atwestbrooke/reveal.js-master/Instrumentenkunde/Instrumente/Holzblaeser/Holzblaeser_Bilder/Querfl_Bilder/Floetenumfaenge.ly:21:11:12">
<g transform="translate(22.9264, 5.5169)">
<text font-family="serif" font-weight="bold" font-size="2.2001" text-anchor="start" fill="currentColor">
<tspan>Notation</tspan>
</text>
</g>
</a>
<g transform="translate(15.0264, 16.5669)">
<path transform="scale(0.0040, -0.0040)" d="M266 -635h-6c-108 0 -195 88 -195 197c0 58 53 103 112 103c54 0 95 -47 95 -103c0 -52 -43 -95 -95 -95c-11 0 -21 2 -31 6c26 -39 68 -65 117 -65h4zM461 -203c68 24 113 90 113 164c0 90 -66 179 -173 190c19 -89 48 -242 60 -354zM74 28c0 -145 141 -247 264 -247
c1 0 47 0 82 6c-7 64 -29 203 -63 364c-79 -8 -124 -61 -124 -119c0 -44 25 -91 81 -123c5 -5 7 -10 7 -15c0 -11 -10 -22 -22 -22c-15 0 -126 62 -126 187c0 88 58 174 160 197c-14 58 -29 117 -46 175c-107 -121 -213 -243 -213 -403zM250 553c-29 96 -52 170 -52 346
c0 115 55 224 149 292c6 5 14 5 20 0c68 -80 133 -245 133 -358c0 -143 -86 -255 -180 -364c21 -68 39 -138 56 -207c2 0 7 1 13 1c155 0 256 -128 256 -261c0 -113 -74 -212 -180 -246c3 -35 5 -70 5 -105c0 -19 -1 -39 -2 -58c-7 -119 -88 -225 -202 -228l1 43
c93 2 153 92 159 191c1 18 2 37 2 55c0 31 -1 61 -4 92c-5 -1 -44 -8 -89 -8c-193 0 -333 180 -333 374c0 177 131 306 248 441zM428 916c0 34 1 66 -20 129c-99 -48 -162 -149 -162 -259c0 -52 12 -115 36 -194c80 97 146 198 146 324z" fill="currentColor"/>
</g>
<a style="color:inherit;" xlink:href="textedit:///home/atwestbrooke/reveal.js-master/Instrumentenkunde/Instrumente/Holzblaeser/Holzblaeser_Bilder/Querfl_Bilder/Floetenumfaenge.ly:25:4:5">
<g transform="translate(22.9264, 30.6619)">
<path transform="scale(0.0040, -0.0040)" d="M213 112c-45 0 -69 -34 -69 -88c0 -102 89 -136 134 -136s69 34 69 88c0 102 -89 136 -134 136zM245 136c144 0 246 -65 246 -136s-102 -136 -246 -136s-245 65 -245 136s101 136 245 136z" fill="currentColor"/>
</g>
</a>
<g transform="translate(15.0264, 28.1619)">
<path transform="scale(0.0040, -0.0040)" d="M266 -635h-6c-108 0 -195 88 -195 197c0 58 53 103 112 103c54 0 95 -47 95 -103c0 -52 -43 -95 -95 -95c-11 0 -21 2 -31 6c26 -39 68 -65 117 -65h4zM461 -203c68 24 113 90 113 164c0 90 -66 179 -173 190c19 -89 48 -242 60 -354zM74 28c0 -145 141 -247 264 -247
c1 0 47 0 82 6c-7 64 -29 203 -63 364c-79 -8 -124 -61 -124 -119c0 -44 25 -91 81 -123c5 -5 7 -10 7 -15c0 -11 -10 -22 -22 -22c-15 0 -126 62 -126 187c0 88 58 174 160 197c-14 58 -29 117 -46 175c-107 -121 -213 -243 -213 -403zM250 553c-29 96 -52 170 -52 346
c0 115 55 224 149 292c6 5 14 5 20 0c68 -80 133 -245 133 -358c0 -143 -86 -255 -180 -364c21 -68 39 -138 56 -207c2 0 7 1 13 1c155 0 256 -128 256 -261c0 -113 -74 -212 -180 -246c3 -35 5 -70 5 -105c0 -19 -1 -39 -2 -58c-7 -119 -88 -225 -202 -228l1 43
c93 2 153 92 159 191c1 18 2 37 2 55c0 31 -1 61 -4 92c-5 -1 -44 -8 -89 -8c-193 0 -333 180 -333 374c0 177 131 306 248 441zM428 916c0 34 1 66 -20 129c-99 -48 -162 -149 -162 -259c0 -52 12 -115 36 -194c80 97 146 198 146 324z" fill="currentColor"/>
</g>
<a style="color:inherit;" xlink:href="textedit:///home/atwestbrooke/reveal.js-master/Instrumentenkunde/Instrumente/Holzblaeser/Holzblaeser_Bilder/Querfl_Bilder/Floetenumfaenge.ly:29:4:5">
<g transform="translate(22.9264, 41.2569)">
<path transform="scale(0.0040, -0.0040)" d="M213 112c-45 0 -69 -34 -69 -88c0 -102 89 -136 134 -136s69 34 69 88c0 102 -89 136 -134 136zM245 136c144 0 246 -65 246 -136s-102 -136 -246 -136s-245 65 -245 136s101 136 245 136z" fill="currentColor"/>
</g>
</a>
<g transform="translate(15.0264, 39.2569)">
<path transform="scale(0.0040, -0.0040)" d="M266 -635h-6c-108 0 -195 88 -195 197c0 58 53 103 112 103c54 0 95 -47 95 -103c0 -52 -43 -95 -95 -95c-11 0 -21 2 -31 6c26 -39 68 -65 117 -65h4zM461 -203c68 24 113 90 113 164c0 90 -66 179 -173 190c19 -89 48 -242 60 -354zM74 28c0 -145 141 -247 264 -247
c1 0 47 0 82 6c-7 64 -29 203 -63 364c-79 -8 -124 -61 -124 -119c0 -44 25 -91 81 -123c5 -5 7 -10 7 -15c0 -11 -10 -22 -22 -22c-15 0 -126 62 -126 187c0 88 58 174 160 197c-14 58 -29 117 -46 175c-107 -121 -213 -243 -213 -403zM250 553c-29 96 -52 170 -52 346
c0 115 55 224 149 292c6 5 14 5 20 0c68 -80 133 -245 133 -358c0 -143 -86 -255 -180 -364c21 -68 39 -138 56 -207c2 0 7 1 13 1c155 0 256 -128 256 -261c0 -113 -74 -212 -180 -246c3 -35 5 -70 5 -105c0 -19 -1 -39 -2 -58c-7 -119 -88 -225 -202 -228l1 43
c93 2 153 92 159 191c1 18 2 37 2 55c0 31 -1 61 -4 92c-5 -1 -44 -8 -89 -8c-193 0 -333 180 -333 374c0 177 131 306 248 441zM428 916c0 34 1 66 -20 129c-99 -48 -162 -149 -162 -259c0 -52 12 -115 36 -194c80 97 146 198 146 324z" fill="currentColor"/>
</g>
<a style="color:inherit;" xlink:href="textedit:///home/atwestbrooke/reveal.js-master/Instrumentenkunde/Instrumente/Holzblaeser/Holzblaeser_Bilder/Querfl_Bilder/Floetenumfaenge.ly:33:4:5">
<g transform="translate(22.9264, 51.3519)">
<path transform="scale(0.0040, -0.0040)" d="M213 112c-45 0 -69 -34 -69 -88c0 -102 89 -136 134 -136s69 34 69 88c0 102 -89 136 -134 136zM245 136c144 0 246 -65 246 -136s-102 -136 -246 -136s-245 65 -245 136s101 136 245 136z" fill="currentColor"/>
</g>
</a>
<a style="color:inherit;" xlink:href="textedit:///home/atwestbrooke/reveal.js-master/Instrumentenkunde/Instrumente/Holzblaeser/Holzblaeser_Bilder/Querfl_Bilder/Floetenumfaenge.ly:21:47:48">
<g transform="translate(34.2572, 9.0669)">
<path transform="scale(0.0040, -0.0040)" d="M213 112c-45 0 -69 -34 -69 -88c0 -102 89 -136 134 -136s69 34 69 88c0 102 -89 136 -134 136zM245 136c144 0 246 -65 246 -136s-102 -136 -246 -136s-245 65 -245 136s101 136 245 136z" fill="currentColor"/>
</g>
</a>
<a style="color:inherit;" xlink:href="textedit:///home/atwestbrooke/reveal.js-master/Instrumentenkunde/Instrumente/Holzblaeser/Holzblaeser_Bilder/Querfl_Bilder/Floetenumfaenge.ly:25:23:24">
<g transform="translate(34.2572, 19.1619)">
<path transform="scale(0.0040, -0.0040)" d="M213 112c-45 0 -69 -34 -69 -88c0 -102 89 -136 134 -136s69 34 69 88c0 102 -89 136 -134 136zM245 136c144 0 246 -65 246 -136s-102 -136 -246 -136s-245 65 -245 136s101 136 245 136z" fill="currentColor"/>
</g>
</a>
<a style="color:inherit;" xlink:href="textedit:///home/atwestbrooke/reveal.js-master/Instrumentenkunde/Instrumente/Holzblaeser/Holzblaeser_Bilder/Querfl_Bilder/Floetenumfaenge.ly:29:23:24">
<g transform="translate(34.2572, 30.7569)">
<path transform="scale(0.0040, -0.0040)" d="M213 112c-45 0 -69 -34 -69 -88c0 -102 89 -136 134 -136s69 34 69 88c0 102 -89 136 -134 136zM245 136c144 0 246 -65 246 -136s-102 -136 -246 -136s-245 65 -245 136s101 136 245 136z" fill="currentColor"/>
</g>
</a>
<a style="color:inherit;" xlink:href="textedit:///home/atwestbrooke/reveal.js-master/Instrumentenkunde/Instrumente/Holzblaeser/Holzblaeser_Bilder/Querfl_Bilder/Floetenumfaenge.ly:33:23:24">
<g transform="translate(34.2572, 41.8519)">
<path transform="scale(0.0040, -0.0040)" d="M213 112c-45 0 -69 -34 -69 -88c0 -102 89 -136 134 -136s69 34 69 88c0 102 -89 136 -134 136zM245 136c144 0 246 -65 246 -136s-102 -136 -246 -136s-245 65 -245 136s101 136 245 136z" fill="currentColor"/>
</g>
</a>
<a style="color:inherit;" xlink:href="textedit:///home/atwestbrooke/reveal.js-master/Instrumentenkunde/Instrumente/Holzblaeser/Holzblaeser_Bilder/Querfl_Bilder/Floetenumfaenge.ly:37:23:24">
<g transform="translate(34.2572, 51.9469)">
<path transform="scale(0.0040, -0.0040)" d="M213 112c-45 0 -69 -34 -69 -88c0 -102 89 -136 134 -136s69 34 69 88c0 102 -89 136 -134 136zM245 136c144 0 246 -65 246 -136s-102 -136 -246 -136s-245 65 -245 136s101 136 245 136z" fill="currentColor"/>
</g>
</a>
</svg>
