<?xml version="1.0" encoding="UTF-8"?>
<svg width="56.67mm" height="22.676mm" version="1.2" viewBox="0 0 32.249 12.904" xmlns="http://www.w3.org/2000/svg" xmlns:xlink="http://www.w3.org/1999/xlink">
 <style type="text/css"><![CDATA[
tspan { white-space: pre; }
]]></style>
 <g transform="translate(0,9.86)">
  <line x1=".05" x2="32.199" stroke="currentColor" stroke-linecap="round" stroke-linejoin="round" stroke-width=".1"/>
 </g>
 <g transform="translate(0,8.86)">
  <line x1=".05" x2="32.199" stroke="currentColor" stroke-linecap="round" stroke-linejoin="round" stroke-width=".1"/>
 </g>
 <g transform="translate(0,7.86)">
  <line x1=".05" x2="32.199" stroke="currentColor" stroke-linecap="round" stroke-linejoin="round" stroke-width=".1"/>
 </g>
 <g transform="translate(0,6.86)">
  <line x1=".05" x2="32.199" stroke="currentColor" stroke-linecap="round" stroke-linejoin="round" stroke-width=".1"/>
 </g>
 <g transform="translate(0,5.86)">
  <line x1=".05" x2="32.199" stroke="currentColor" stroke-linecap="round" stroke-linejoin="round" stroke-width=".1"/>
 </g>
 <g transform="translate(-8.5358,1.86)">
  <rect x="35.705" y="-.1" width="1.8053" height=".2" ry=".1" fill="currentColor"/>
 </g>
 <g transform="translate(-8.5358,2.86)">
  <rect x="35.554" y="-.1" width="1.9563" height=".2" ry=".1" fill="currentColor"/>
 </g>
 <g transform="translate(-8.5358,3.86)">
  <rect x="35.554" y="-.1" width="1.9563" height=".2" ry=".1" fill="currentColor"/>
 </g>
 <g transform="translate(-8.5358,4.86)">
  <rect x="35.554" y="-.1" width="1.9563" height=".2" ry=".1" fill="currentColor"/>
 </g>
 <g transform="translate(-8.5358,3.86)">
  <rect x="31.708" y="-.1" width="2.943" height=".2" ry=".1" fill="currentColor"/>
 </g>
 <g transform="translate(-8.5358,4.86)">
  <rect x="31.708" y="-.1" width="2.943" height=".2" ry=".1" fill="currentColor"/>
 </g>
 <g transform="translate(-8.5358,10.86)">
  <rect x="19.748" y="-.1" width="2.943" height=".2" ry=".1" fill="currentColor"/>
 </g>
 <g transform="translate(-8.5358,11.86)">
  <rect x="19.748" y="-.1" width="2.943" height=".2" ry=".1" fill="currentColor"/>
 </g>
 <g transform="translate(-8.5358,10.86)">
  <rect x="16.91" y="-.1" width="1.9563" height=".2" ry=".1" fill="currentColor"/>
 </g>
 <g transform="translate(-8.5358,11.86)">
  <rect x="16.91" y="-.1" width="1.9563" height=".2" ry=".1" fill="currentColor"/>
 </g>
 <a transform="translate(-14.226 -3.8453)" color="inherit" xlink:href="textedit:///home/atwestbrooke/reveal.js-4.2/Instrumentenkunde/Instrumente/Blechblaeser/Blechblaeser_Bilder/Tuba_Bilder/Umfang_Bassophikleide.ly:10:52:53">
  <g transform="translate(37.889 7.2053)">
   <path transform="scale(.004 -.004)" d="m213 112c-45 0-69-34-69-88 0-102 89-136 134-136s69 34 69 88c0 102-89 136-134 136zm32 24c144 0 246-65 246-136s-102-136-246-136-245 65-245 136 101 136 245 136z" fill="currentColor"/>
  </g>
 </a>
 <a transform="translate(-14.226 -3.8453)" color="inherit" xlink:href="textedit:///home/atwestbrooke/reveal.js-4.2/Instrumentenkunde/Instrumente/Blechblaeser/Blechblaeser_Bilder/Tuba_Bilder/Umfang_Bassophikleide.ly:10:61:62">
  <g transform="translate(41.571 5.7053)">
   <path transform="scale(.004 -.004)" d="m218 136c66 0 108-36 108-89 0-89-113-183-218-183-66 0-108 36-108 89 0 89 113 183 218 183z" fill="currentColor"/>
  </g>
 </a>
 <a transform="translate(-14.226 -3.8453)" color="inherit" xlink:href="textedit:///home/atwestbrooke/reveal.js-4.2/Instrumentenkunde/Instrumente/Blechblaeser/Blechblaeser_Bilder/Tuba_Bilder/Umfang_Bassophikleide.ly:10:22:23">
  <g transform="translate(5.6906 11.705)">
   <line x1="22.581" x2="31.817" y1="3.6761" y2="-4.1761" stroke="currentColor" stroke-linecap="round" stroke-linejoin="round" stroke-width=".1"/>
  </g>
 </a>
 <g transform="translate(26.194 1.86)">
  <path transform="scale(.004 -.004)" d="m27 41-1-66v-11c0-22 1-44 4-66 45 38 93 80 93 139 0 33-14 67-43 67-31 0-52-30-53-63zm-42-179-12 595c8 5 18 8 27 8s19-3 27-8l-7-345c25 21 58 34 91 34 52 0 89-48 89-102 0-80-86-117-147-169-15-13-24-38-45-38-13 0-23 11-23 25z" fill="currentColor"/>
 </g>
 <g transform="translate(.8 6.86)">
  <path transform="scale(.004 -.004)" d="m557-125c0 28 23 51 51 51s51-23 51-51-23-51-51-51-51 23-51 51zm0 250c0 28 23 51 51 51s51-23 51-51-23-51-51-51-51 23-51 51zm-325 138c172 0 293-88 293-251 0-263-263-414-516-521-3-3-6-4-9-4-7 0-13 6-13 13 0 3 1 6 4 9 202 118 412 265 412 493 0 120-63 235-171 235-74 0-129-54-154-126 11 5 22 8 34 8 55 0 100-45 100-100 0-58-44-106-100-106-60 0-112 47-112 106 0 133 102 244 232 244z" fill="currentColor"/>
 </g>
 <a transform="translate(-14.226 -3.8453)" color="inherit" xlink:href="textedit:///home/atwestbrooke/reveal.js-4.2/Instrumentenkunde/Instrumente/Blechblaeser/Blechblaeser_Bilder/Tuba_Bilder/Umfang_Bassophikleide.ly:10:13:14">
  <g transform="translate(22.926 16.205)">
   <path transform="scale(.004 -.004)" d="m218 136c66 0 108-36 108-89 0-89-113-183-218-183-66 0-108 36-108 89 0 89 113 183 218 183z" fill="currentColor"/>
  </g>
 </a>
 <a transform="translate(-14.226 -3.8453)" color="inherit" xlink:href="textedit:///home/atwestbrooke/reveal.js-4.2/Instrumentenkunde/Instrumente/Blechblaeser/Blechblaeser_Bilder/Tuba_Bilder/Umfang_Bassophikleide.ly:10:16:17">
  <g transform="translate(25.929 15.705)">
   <path transform="scale(.004 -.004)" d="m213 112c-45 0-69-34-69-88 0-102 89-136 134-136s69 34 69 88c0 102-89 136-134 136zm32 24c144 0 246-65 246-136s-102-136-246-136-245 65-245 136 101 136 245 136z" fill="currentColor"/>
  </g>
 </a>
</svg>
