<?xml version="1.0" encoding="UTF-8" standalone="no"?>
<svg
   version="1.2"
   width="53.988258mm"
   height="26.174486mm"
   viewBox="0 0 30.722301 14.894728"
   id="svg711"
   sodipodi:docname="Umfang_Tuba.svg"
   inkscape:version="1.2.2 (b0a8486541, 2022-12-01)"
   xmlns:inkscape="http://www.inkscape.org/namespaces/inkscape"
   xmlns:sodipodi="http://sodipodi.sourceforge.net/DTD/sodipodi-0.dtd"
   xmlns:xlink="http://www.w3.org/1999/xlink"
   xmlns="http://www.w3.org/2000/svg"
   xmlns:svg="http://www.w3.org/2000/svg">
  <defs
     id="defs715" />
  <sodipodi:namedview
     id="namedview713"
     pagecolor="#ffffff"
     bordercolor="#000000"
     borderopacity="0.25"
     inkscape:showpageshadow="2"
     inkscape:pageopacity="0.0"
     inkscape:pagecheckerboard="0"
     inkscape:deskcolor="#d1d1d1"
     inkscape:document-units="mm"
     showgrid="false"
     inkscape:zoom="0.42091887"
     inkscape:cx="363.49048"
     inkscape:cy="-68.896888"
     inkscape:window-width="1574"
     inkscape:window-height="539"
     inkscape:window-x="26"
     inkscape:window-y="23"
     inkscape:window-maximized="0"
     inkscape:current-layer="svg711" />
  <style
     type="text/css"
     id="style599"><![CDATA[
tspan { white-space: pre; }
]]></style>
  <g
     transform="translate(0,7.044)"
     id="g603">
    <line
       stroke-linejoin="round"
       stroke-linecap="round"
       stroke-width="0.1"
       stroke="currentColor"
       x1="0.050000001"
       y1="0"
       x2="30.6723"
       y2="0"
       id="line601" />
  </g>
  <g
     transform="translate(0,6.044)"
     id="g607">
    <line
       stroke-linejoin="round"
       stroke-linecap="round"
       stroke-width="0.1"
       stroke="currentColor"
       x1="0.050000001"
       y1="0"
       x2="30.6723"
       y2="0"
       id="line605" />
  </g>
  <g
     transform="translate(0,5.044)"
     id="g611">
    <line
       stroke-linejoin="round"
       stroke-linecap="round"
       stroke-width="0.1"
       stroke="currentColor"
       x1="0.050000001"
       y1="0"
       x2="30.6723"
       y2="0"
       id="line609" />
  </g>
  <g
     transform="translate(0,4.044)"
     id="g615">
    <line
       stroke-linejoin="round"
       stroke-linecap="round"
       stroke-width="0.1"
       stroke="currentColor"
       x1="0.050000001"
       y1="0"
       x2="30.6723"
       y2="0"
       id="line613" />
  </g>
  <g
     transform="translate(0,3.044)"
     id="g619">
    <line
       stroke-linejoin="round"
       stroke-linecap="round"
       stroke-width="0.1"
       stroke="currentColor"
       x1="0.050000001"
       y1="0"
       x2="30.6723"
       y2="0"
       id="line617" />
  </g>
  <g
     transform="translate(-8.5358,1.044)"
     id="g623">
    <rect
       x="32.7076"
       y="-0.1"
       width="2.9430001"
       height="0.2"
       ry="0.1"
       fill="currentColor"
       id="rect621" />
  </g>
  <g
     transform="translate(-8.5358,2.044)"
     id="g627">
    <rect
       x="32.7076"
       y="-0.1"
       width="2.9430001"
       height="0.2"
       ry="0.1"
       fill="currentColor"
       id="rect625" />
  </g>
  <g
     transform="translate(-8.5358,8.044)"
     id="g631">
    <rect
       x="19.747601"
       y="-0.1"
       width="2.9430001"
       height="0.2"
       ry="0.1"
       fill="currentColor"
       id="rect629" />
  </g>
  <g
     transform="translate(-8.5358,9.044)"
     id="g635">
    <rect
       x="19.747601"
       y="-0.1"
       width="2.9430001"
       height="0.2"
       ry="0.1"
       fill="currentColor"
       id="rect633" />
  </g>
  <g
     transform="translate(-8.5358,10.044)"
     id="g639">
    <rect
       x="19.747601"
       y="-0.1"
       width="2.9430001"
       height="0.2"
       ry="0.1"
       fill="currentColor"
       id="rect637" />
  </g>
  <g
     transform="translate(-8.5358,11.044)"
     id="g643">
    <rect
       x="19.747601"
       y="-0.1"
       width="2.9430001"
       height="0.2"
       ry="0.1"
       fill="currentColor"
       id="rect641" />
  </g>
  <g
     transform="translate(-8.5358,12.044)"
     id="g647">
    <rect
       x="19.747601"
       y="-0.1"
       width="2.9430001"
       height="0.2"
       ry="0.1"
       fill="currentColor"
       id="rect645" />
  </g>
  <g
     transform="translate(-8.5358,13.044)"
     id="g651">
    <rect
       x="19.747601"
       y="-0.1"
       width="2.9430001"
       height="0.2"
       ry="0.1"
       fill="currentColor"
       id="rect649" />
  </g>
  <g
     transform="translate(-9.7403004,8.044)"
     id="g655">
    <rect
       x="16.9098"
       y="-0.1"
       width="1.9563"
       height="0.2"
       ry="0.1"
       fill="currentColor"
       id="rect653" />
  </g>
  <g
     transform="translate(-9.7403004,9.044)"
     id="g659">
    <rect
       x="16.9098"
       y="-0.1"
       width="1.9563"
       height="0.2"
       ry="0.1"
       fill="currentColor"
       id="rect657" />
  </g>
  <g
     transform="translate(-9.7403004,10.044)"
     id="g663">
    <rect
       x="16.9098"
       y="-0.1"
       width="1.9563"
       height="0.2"
       ry="0.1"
       fill="currentColor"
       id="rect661" />
  </g>
  <g
     transform="translate(-9.7403004,11.044)"
     id="g667">
    <rect
       x="16.9098"
       y="-0.1"
       width="1.9563"
       height="0.2"
       ry="0.1"
       fill="currentColor"
       id="rect665" />
  </g>
  <a
     style="color:inherit"
     xlink:href="textedit:///home/atwestbrooke/reveal.js-4.2/Instrumentenkunde/Instrumente/Blechblaeser/Blechblaeser_Bilder/Tuba_Bilder/Umfang_Tuba.ly:11:50:51"
     id="a673"
     transform="translate(-14.2264,-3.8463)">
    <g
       transform="translate(5.6906,8.8903)"
       id="g671">
      <line
         stroke-linejoin="round"
         stroke-linecap="round"
         stroke-width="0.1"
         stroke="currentColor"
         x1="22.530399"
         y1="7.6245999"
         x2="32.867802"
         y2="-4.1245999"
         id="line669" />
    </g>
  </a>
  <a
     style="color:inherit"
     xlink:href="textedit:///home/atwestbrooke/reveal.js-4.2/Instrumentenkunde/Instrumente/Blechblaeser/Blechblaeser_Bilder/Tuba_Bilder/Umfang_Tuba.ly:11:80:81"
     id="a679"
     transform="translate(-14.2264,-3.8463)">
    <g
       transform="translate(38.8887,4.3903)"
       id="g677">
      <path
         transform="scale(0.004,-0.004)"
         d="m 213,112 c -45,0 -69,-34 -69,-88 0,-102 89,-136 134,-136 45,0 69,34 69,88 0,102 -89,136 -134,136 z m 32,24 C 389,136 491,71 491,0 491,-71 389,-136 245,-136 101,-136 0,-71 0,0 0,71 101,136 245,136 Z"
         fill="currentColor"
         id="path675" />
    </g>
  </a>
  <a
     style="color:inherit"
     xlink:href="textedit:///home/atwestbrooke/reveal.js-4.2/Instrumentenkunde/Instrumente/Blechblaeser/Blechblaeser_Bilder/Tuba_Bilder/Umfang_Tuba.ly:11:15:16"
     id="a693"
     transform="translate(-14.873661,-2.1649105)">
    <g
       transform="translate(22.1264,16.4853)"
       id="g683">
      <line
         stroke-linejoin="round"
         stroke-linecap="round"
         stroke-width="0.1"
         stroke="currentColor"
         x1="2.7042"
         y1="0"
         x2="2.7042"
         y2="-0.80000001"
         id="line681" />
    </g>
    <g
       transform="translate(22.1264,16.4853)"
       id="g687">
      <line
         stroke-linejoin="round"
         stroke-linecap="round"
         stroke-width="0.1"
         stroke="currentColor"
         x1="0"
         y1="0"
         x2="0"
         y2="0"
         id="line685" />
    </g>
    <g
       transform="translate(22.1264,16.4853)"
       id="g691">
      <line
         stroke-linejoin="round"
         stroke-linecap="round"
         stroke-width="0.1"
         stroke="currentColor"
         x1="0"
         y1="0"
         x2="2.7042"
         y2="0"
         stroke-dasharray="0.352723, 0.823021"
         id="line689" />
    </g>
  </a>
  <a
     style="color:inherit"
     xlink:href="textedit:///home/atwestbrooke/reveal.js-4.2/Instrumentenkunde/Instrumente/Blechblaeser/Blechblaeser_Bilder/Tuba_Bilder/Umfang_Tuba.ly:11:27:28"
     id="a699"
     transform="translate(-15.4309,-3.8463)">
    <g
       transform="translate(22.9264,15.3903)"
       id="g697">
      <path
         transform="scale(0.004,-0.004)"
         d="m 218,136 c 66,0 108,-36 108,-89 0,-89 -113,-183 -218,-183 -66,0 -108,36 -108,89 0,89 113,183 218,183 z"
         fill="currentColor"
         id="path695" />
    </g>
  </a>
  <g
     transform="translate(0.8,4.044)"
     id="g703">
    <path
       transform="scale(0.004,-0.004)"
       d="m 557,-125 c 0,28 23,51 51,51 28,0 51,-23 51,-51 0,-28 -23,-51 -51,-51 -28,0 -51,23 -51,51 z m 0,250 c 0,28 23,51 51,51 28,0 51,-23 51,-51 0,-28 -23,-51 -51,-51 -28,0 -51,23 -51,51 z M 232,263 c 172,0 293,-88 293,-251 0,-263 -263,-414 -516,-521 -3,-3 -6,-4 -9,-4 -7,0 -13,6 -13,13 0,3 1,6 4,9 202,118 412,265 412,493 0,120 -63,235 -171,235 -74,0 -129,-54 -154,-126 11,5 22,8 34,8 C 167,119 212,74 212,19 212,-39 168,-87 112,-87 52,-87 0,-40 0,19 0,152 102,263 232,263 Z"
       fill="currentColor"
       id="path701" />
  </g>
  <a
     style="color:inherit"
     xlink:href="textedit:///home/atwestbrooke/reveal.js-4.2/Instrumentenkunde/Instrumente/Blechblaeser/Blechblaeser_Bilder/Tuba_Bilder/Umfang_Tuba.ly:11:43:44"
     id="a709"
     transform="translate(-14.2264,-3.8463)">
    <g
       transform="translate(25.9286,16.8903)"
       id="g707">
      <path
         transform="scale(0.004,-0.004)"
         d="m 213,112 c -45,0 -69,-34 -69,-88 0,-102 89,-136 134,-136 45,0 69,34 69,88 0,102 -89,136 -134,136 z m 32,24 C 389,136 491,71 491,0 491,-71 389,-136 245,-136 101,-136 0,-71 0,0 0,71 101,136 245,136 Z"
         fill="currentColor"
         id="path705" />
    </g>
  </a>
  <text
     xml:space="preserve"
     style="font-weight:bold;font-size:2.409px;font-family:FreeSerif;-inkscape-font-specification:'FreeSerif Bold';text-align:justify;fill:#000000;fill-opacity:0.998715;stroke-width:0.199169;stroke-linejoin:round"
     x="2.3070493"
     y="14.858593"
     id="text771"><tspan
       sodipodi:role="line"
       id="tspan769"
       style="font-style:italic;font-variant:normal;font-weight:bold;font-stretch:normal;font-size:2.409px;font-family:Edwin;-inkscape-font-specification:'Edwin Bold Italic';stroke-width:0.199169"
       x="2.3070493"
       y="14.858593">8vb</tspan></text>
</svg>
