<svg width="63.172mm" height="17.561mm" version="1.2" viewBox="0 0 35.949 9.9931" xmlns="http://www.w3.org/2000/svg">
 <style type="text/css"><![CDATA[
tspan { white-space: pre; }
]]></style>
 <g transform="translate(0 4.9491)">
  <line x1=".05" x2="35.899" stroke="currentColor" stroke-linecap="round" stroke-linejoin="round" stroke-width=".1"/>
 </g>
 <g transform="translate(0 3.9491)">
  <line x1=".05" x2="35.899" stroke="currentColor" stroke-linecap="round" stroke-linejoin="round" stroke-width=".1"/>
 </g>
 <g transform="translate(0 2.9491)">
  <line x1=".05" x2="35.899" stroke="currentColor" stroke-linecap="round" stroke-linejoin="round" stroke-width=".1"/>
 </g>
 <g transform="translate(0 1.9491)">
  <line x1=".05" x2="35.899" stroke="currentColor" stroke-linecap="round" stroke-linejoin="round" stroke-width=".1"/>
 </g>
 <g transform="translate(0 .94915)">
  <line x1=".05" x2="35.899" stroke="currentColor" stroke-linecap="round" stroke-linejoin="round" stroke-width=".1"/>
 </g>
 <g transform="translate(-8.5358 5.9491)">
  <rect x="19.748" y="-.1" width="2.943" height=".2" ry=".1" fill="currentColor"/>
 </g>
 <g transform="translate(-8.5358 6.9491)">
  <rect x="19.748" y="-.1" width="2.943" height=".2" ry=".1" fill="currentColor"/>
 </g>
 <g transform="translate(-8.5358 5.9491)">
  <rect x="16.91" y="-.1" width="1.9563" height=".2" ry=".1" fill="currentColor"/>
 </g>
 <g transform="translate(-8.5358 6.9491)">
  <rect x="16.91" y="-.1" width="1.9563" height=".2" ry=".1" fill="currentColor"/>
 </g>
 <g transform="translate(-8.5358 7.9491)">
  <rect x="16.91" y="-.1" width="1.9563" height=".2" ry=".1" fill="currentColor"/>
 </g>
 <g transform="translate(-8.5358 8.9491)">
  <rect x="16.91" y="-.1" width="1.9563" height=".2" ry=".1" fill="currentColor"/>
 </g>
 <g transform="translate(-8.5358 2.9491)">
  <line x1="22.67" x2="34.192" y1="4.3302" y2=".1698" stroke="currentColor" stroke-linecap="round" stroke-linejoin="round" stroke-width=".1"/>
 </g>
 <g transform="translate(22.762 3.9491)">
  <path transform="scale(.004 -.004)" d="m210-512h-4c-87 0-159 72-159 160 0 46 42 83 90 83 43 0 76-38 76-83 0-42-34-76-76-76-4 0-6 0-10 1 19-26 47-42 81-42h3zm163 357c45 18 81 66 81 125 0 68-48 136-127 147 3-12 33-157 46-272zm-310 174c0-115 115-188 208-188 1 0 34 0 60 4-6 51-22 159-48 283-59-7-93-48-93-92 0-34 21-70 64-95 5-5 6-10 6-15 0-11-9-22-21-22-15 0-104 51-104 152 0 71 46 141 128 161-11 48-24 95-38 143-82-101-162-202-162-331zm130 438c-29 94-42 142-42 288 0 93 42 181 115 239 6 5 14 4 20-1 55-66 107-201 107-295 0-115-63-207-135-297 17-59 33-119 47-179h1c2 0 4 1 6 1 126 0 206-105 206-212 0-92-59-170-141-197 2-27 3-54 3-81 0-16 0-33-1-49-6-98-75-184-169-186l1 43c38 1 127 22 127 194 0 23-1 46-3 69-4-1-34-6-67-6-155 0-266 144-266 302 0 144 101 254 191 367zm126 403c-76-44-123-124-123-211 0-36 10-86 29-151 59 79 107 162 107 261 0 25 1 50-13 101z" fill="currentColor"/>
 </g>
 <g transform="translate(26.234 2.9491)">
  <path transform="scale(.004 -.004)" d="m27 41-1-66v-11c0-22 1-44 4-66 45 38 93 80 93 139 0 33-14 67-43 67-31 0-52-30-53-63zm-42-179-12 595c8 5 18 8 27 8s19-3 27-8l-7-345c25 21 58 34 91 34 52 0 89-48 89-102 0-80-86-117-147-169-15-13-24-38-45-38-13 0-23 11-23 25z" fill="currentColor"/>
 </g>
 <g transform="translate(27.384 2.9491)">
  <path transform="scale(.004 -.004)" d="m213 112c-45 0-69-34-69-88 0-102 89-136 134-136s69 34 69 88c0 102-89 136-134 136zm32 24c144 0 246-65 246-136s-102-136-246-136-245 65-245 136 101 136 245 136z" fill="currentColor"/>
 </g>
 <g transform="translate(31.044 1.4491)">
  <path transform="scale(.004 -.004)" d="m218 136c66 0 108-36 108-89 0-89-113-183-218-183-66 0-108 36-108 89 0 89 113 183 218 183z" fill="currentColor"/>
 </g>
 <g transform="translate(8.7 9.4491)">
  <path transform="scale(.004 -.004)" d="m218 136c66 0 108-36 108-89 0-89-113-183-218-183-66 0-108 36-108 89 0 89 113 183 218 183z" fill="currentColor"/>
 </g>
 <g transform="translate(.8 1.9491)">
  <path transform="scale(.004 -.004)" d="m557-125c0 28 23 51 51 51s51-23 51-51-23-51-51-51-51 23-51 51zm0 250c0 28 23 51 51 51s51-23 51-51-23-51-51-51-51 23-51 51zm-325 138c172 0 293-88 293-251 0-263-263-414-516-521-3-3-6-4-9-4-7 0-13 6-13 13 0 3 1 6 4 9 202 118 412 265 412 493 0 120-63 235-171 235-74 0-129-54-154-126 11 5 22 8 34 8 55 0 100-45 100-100 0-58-44-106-100-106-60 0-112 47-112 106 0 133 102 244 232 244z" fill="currentColor"/>
 </g>
 <g transform="translate(11.702 7.4491)">
  <path transform="scale(.004 -.004)" d="m213 112c-45 0-69-34-69-88 0-102 89-136 134-136s69 34 69 88c0 102-89 136-134 136zm32 24c144 0 246-65 246-136s-102-136-246-136-245 65-245 136 101 136 245 136z" fill="currentColor"/>
 </g>
</svg>
