<?xml version="1.0" encoding="UTF-8" standalone="no"?>
<!-- Created with Inkscape (http://www.inkscape.org/) -->

<svg
   version="1.1"
   id="svg1111"
   width="3054.2173"
   height="774.41919"
   xmlns:inkscape="http://www.inkscape.org/namespaces/inkscape"
   xmlns:sodipodi="http://sodipodi.sourceforge.net/DTD/sodipodi-0.dtd"
   xmlns:xlink="http://www.w3.org/1999/xlink"
   xmlns="http://www.w3.org/2000/svg"
   xmlns:svg="http://www.w3.org/2000/svg">
  <defs
     id="defs1115">
    <linearGradient
       inkscape:collect="always"
       xlink:href="#linearGradient984"
       id="linearGradient986"
       x1="-164.26361"
       y1="209.42953"
       x2="643.83136"
       y2="209.42953"
       gradientUnits="userSpaceOnUse"
       gradientTransform="matrix(3.7795276,0,0,3.7795276,620.83885,-404.33509)" />
    <linearGradient
       inkscape:collect="always"
       id="linearGradient984">
      <stop
         style="stop-color:#00a9ff;stop-opacity:1"
         offset="0"
         id="stop980" />
      <stop
         style="stop-color:#49c0ff;stop-opacity:0.99293292"
         offset="1"
         id="stop982" />
    </linearGradient>
  </defs>
  <sodipodi:namedview
     pagecolor="#ffffff"
     bordercolor="#666666"
     borderopacity="1"
     objecttolerance="10"
     gridtolerance="10"
     guidetolerance="10"
     inkscape:pageopacity="0"
     inkscape:pageshadow="2"
     inkscape:window-width="640"
     inkscape:window-height="480"
     id="namedview1113"
     inkscape:snap-global="false" />
  <inkscape:clipboard
     style="font-variation-settings:normal;opacity:1;vector-effect:none;fill:url(#linearGradient986);fill-opacity:1;stroke:#000000;stroke-width:18.8976378;stroke-linecap:butt;stroke-linejoin:miter;stroke-miterlimit:4;stroke-dasharray:none;stroke-dashoffset:0;stroke-opacity:1;stop-color:#000000;stop-opacity:1"
     min="-537.5432,1224.7971"
     max="2516.6741,1999.2163"
     geom-min="-522.24223,1234.2459"
     geom-max="2501.3797,1989.7675" />
  <path
     id="path976"
     style="fill:url(#linearGradient986);fill-opacity:1;stroke:#000000;stroke-width:18.8976;stroke-linecap:butt;stroke-linejoin:miter;stroke-miterlimit:4;stroke-dasharray:none;stroke-opacity:1"
     d="M 2313.2536,764.41401 C 2323.3529,764.0421 2333.4322,763.17228 2343.4899,762.18409 C 2353.5958,761.19113 2363.6796,759.94604 2373.7261,758.46881 C 2383.843,756.98123 2393.9258,755.24499 2403.9623,753.28708 C 2414.089,751.31156 2424.1712,749.0957 2434.1985,746.66535 C 2444.3343,744.20869 2454.415,741.51619 2464.4347,738.62251 C 2474.5777,735.69323 2484.6573,732.53751 2494.6709,729.19259 C 2504.8198,725.80251 2514.8982,722.19646 2524.9071,718.41338 C 2535.0603,714.5758 2545.1374,710.53302 2555.1434,706.32645 C 2565.2992,702.05687 2575.3756,697.59502 2585.3796,692.98094 C 2595.537,688.29614 2605.6117,683.42973 2615.6158,678.42598 C 2625.7726,673.34584 2635.8474,668.09947 2645.852,662.72582 C 2656.008,657.2709 2666.0818,651.66152 2676.0883,645.93716 C 2686.242,640.12859 2696.3144,634.17682 2706.3245,628.12424 C 2716.4741,621.98735 2726.5606,615.74395 2736.5607,609.36645 C 2746.7209,602.88698 2756.7522,596.2073 2766.797,589.55038 C 2776.9102,582.84811 2787.0514,576.18492 2797.0331,569.28834 C 2807.2128,562.25498 2817.1811,554.92027 2827.2694,547.75637 C 2837.3386,540.60596 2847.4994,533.58371 2857.5056,526.34534 C 2867.659,519.00051 2877.6996,511.50076 2887.7418,504.00456 C 2897.8576,496.45336 2907.9289,488.84238 2917.978,481.20267 C 2928.0867,473.51775 2938.1579,465.78367 2948.2142,458.03038 C 2958.3156,450.24233 2968.3866,442.41492 2978.4505,434.57841 C 2988.5442,426.71858 2998.6156,418.83007 3008.6867,410.94125 C 3018.7731,403.04045 3038.9229,387.20959 3038.9229,387.20959 C 3038.9229,387.20959 3018.7731,371.37874 3008.6867,363.47794 C 2998.6156,355.58912 2988.5442,347.7006 2978.4505,339.84077 C 2968.3866,332.00426 2958.3156,324.17686 2948.2142,316.38881 C 2938.1579,308.63552 2928.0867,300.90144 2917.978,293.21652 C 2907.9289,285.57681 2897.8576,277.96583 2887.7418,270.41463 C 2877.6996,262.91843 2867.659,255.41868 2857.5056,248.07384 C 2847.4994,240.83548 2837.3386,233.81323 2827.2694,226.66282 C 2817.1811,219.49892 2807.2128,212.16421 2797.0331,205.13085 C 2787.0514,198.23427 2776.9102,191.57108 2766.797,184.8688 C 2756.7522,178.21189 2746.7209,171.53221 2736.5607,165.05274 C 2726.5606,158.67524 2716.4741,152.43184 2706.3245,146.29495 C 2696.3144,140.24237 2686.242,134.2906 2676.0883,128.48203 C 2666.0818,122.75767 2656.008,117.14829 2645.852,111.69337 C 2635.8474,106.31971 2625.7726,101.07335 2615.6158,95.993213 C 2605.6117,90.989459 2595.537,86.123053 2585.3796,81.438252 C 2575.3756,76.824167 2565.2992,72.362322 2555.1434,68.092741 C 2545.1374,63.886164 2535.0603,59.843392 2524.9071,56.005811 C 2514.8982,52.222731 2504.8198,48.616684 2494.6709,45.226599 C 2484.6573,41.881679 2474.5777,38.725962 2464.4347,35.796677 C 2454.415,32.902995 2444.3343,30.210498 2434.1985,27.753842 C 2424.1712,25.323493 2414.089,23.107631 2403.9623,21.13211 C 2393.9258,19.174201 2383.843,17.437962 2373.7261,15.950378 C 2363.6796,14.473149 2353.5958,13.22806 2343.4899,12.235102 C 2333.4322,11.246907 2323.3529,10.377086 2313.2536,10.005181 C 2293.1098,9.263373 2272.925,9.263373 2252.7812,10.005181 C 2242.6819,10.377086 2232.6026,11.246907 2222.545,12.235102 C 2212.4391,13.22806 2202.3553,14.473149 2192.3088,15.950378 C 2182.1919,17.437962 2172.109,19.174201 2162.0725,21.13211 C 2151.9458,23.107631 2141.8636,25.323493 2131.8363,27.753842 C 2121.7006,30.210498 2111.6198,32.902995 2101.6001,35.796677 C 2091.4571,38.725962 2081.3775,41.881679 2071.3639,45.226599 C 2061.2151,48.616684 2051.1367,52.222731 2041.1277,56.005811 C 2030.9745,59.843392 2020.8974,63.886164 2010.8915,68.092741 C 2000.7357,72.362322 1990.6593,76.824167 1980.6552,81.438252 C 1970.4979,86.123053 1960.4231,90.989459 1950.419,95.993213 C 1940.2622,101.07335 1930.1875,106.31971 1920.1828,111.69337 C 1910.0269,117.14829 1899.9531,122.75767 1889.9465,128.48203 C 1879.7928,134.2906 1869.7205,140.24237 1859.7103,146.29495 C 1849.5607,152.43184 1839.4743,158.67524 1829.4741,165.05274 C 1819.314,171.53221 1809.2827,178.21189 1799.2379,184.8688 C 1789.1247,191.57108 1778.9834,198.23427 1769.0017,205.13085 C 1758.822,212.16421 1748.8538,219.49892 1738.7655,226.66282 C 1728.6963,233.81323 1718.5354,240.83548 1708.5293,248.07384 C 1698.3759,255.41868 1688.3352,262.91843 1678.293,270.41463 C 1668.1772,277.96583 1658.106,285.57681 1648.0568,293.21652 C 1637.9482,300.90144 1627.8769,308.63552 1617.8206,316.38881 C 1607.7192,324.17686 1597.6482,332.00426 1587.5844,339.84077 C 1577.4906,347.7006 1567.4193,355.58912 1557.3482,363.47794 C 1547.2618,371.37874 1527.1119,387.20959 1527.1119,387.20959 C 1517.0317,395.11829 1506.9621,403.04045 1496.8757,410.94125 C 1486.8046,418.83007 1476.7333,426.71858 1466.6395,434.57841 C 1456.5757,442.41492 1446.5047,450.24233 1436.4033,458.03038 C 1426.347,465.78367 1416.2757,473.51775 1406.1671,481.20267 C 1396.1179,488.84238 1386.0467,496.45336 1375.9308,504.00456 C 1365.8887,511.50076 1355.848,519.00051 1345.6946,526.34534 C 1335.6884,533.58371 1325.5276,540.60596 1315.4584,547.75637 C 1305.3701,554.92027 1295.4019,562.25498 1285.2222,569.28834 C 1275.2404,576.18492 1265.0992,582.84811 1254.986,589.55038 C 1244.9412,596.2073 1234.9099,602.88698 1224.7498,609.36645 C 1214.7496,615.74395 1204.6632,621.98735 1194.5135,628.12424 C 1184.5034,634.17682 1174.431,640.12859 1164.2773,645.93716 C 1154.2708,651.66152 1144.197,657.2709 1134.0411,662.72582 C 1124.0364,668.09947 1113.9617,673.34584 1103.8048,678.42598 C 1093.8007,683.42973 1083.726,688.29614 1073.5686,692.98094 C 1063.5646,697.59502 1053.4882,702.05687 1043.3324,706.32645 C 1033.3265,710.53302 1023.2494,714.5758 1013.0962,718.41338 C 1003.0872,722.19646 993.00875,725.80251 982.85996,729.19259 C 972.84633,732.53751 962.76678,735.69323 952.62378,738.62251 C 942.60403,741.51619 932.52331,744.20869 922.38756,746.66535 C 912.36027,749.0957 902.27803,751.31156 892.15133,753.28708 C 882.11485,755.24499 872.03199,756.98123 861.91511,758.46881 C 851.86859,759.94604 841.78476,761.19113 831.67889,762.18409 C 821.6212,763.17228 811.54193,764.0421 801.44266,764.41401 C 781.29884,765.15582 761.11405,765.15582 740.97022,764.41401 C 730.87097,764.0421 720.79171,763.17228 710.73404,762.18409 C 700.62816,761.19113 690.54433,759.94604 680.49782,758.46881 C 670.38093,756.98123 660.29808,755.24499 650.2616,753.28708 C 640.13489,751.31156 630.05266,749.0957 620.02538,746.66535 C 609.88963,744.20869 599.80889,741.51619 589.78916,738.62251 C 579.64616,735.69323 569.56659,732.53751 559.55297,729.19259 C 549.40416,725.80251 539.32572,722.19646 529.31675,718.41338 C 519.1636,714.5758 509.08645,710.53302 499.08053,706.32645 C 488.92471,702.05687 478.84833,697.59502 468.84431,692.98094 C 458.68694,688.29614 448.61219,683.42973 438.60809,678.42598 C 428.45125,673.34584 418.37653,668.09947 408.37187,662.72582 C 398.21594,657.2709 388.14214,651.66152 378.13561,645.93716 C 367.98193,640.12859 357.90954,634.17682 347.89939,628.12424 C 337.74978,621.98735 327.66336,615.74395 317.66317,609.36645 C 307.50305,602.88698 297.47171,596.2073 287.42695,589.55038 C 277.31373,582.84811 267.17246,576.18492 257.19073,569.28834 C 247.01101,562.25498 237.04278,554.92027 226.95451,547.75637 C 216.88528,540.60596 206.72447,533.58371 196.71829,526.34534 C 186.56489,519.00051 176.52423,511.50076 166.48207,504.00456 C 156.36625,496.45336 146.29502,488.84238 136.24586,481.20267 C 126.13721,473.51775 116.06594,465.78367 106.00964,458.03038 C 95.908243,450.24233 85.837238,442.41492 75.773415,434.57841 C 65.679657,426.71858 55.608312,418.83007 45.537194,410.94125 C 35.450806,403.04045 15.300973,387.20959 15.300973,387.20959 C 25.3812,379.3009 35.450806,371.37874 45.537194,363.47794 C 55.608312,355.58912 65.679657,347.7006 75.773415,339.84077 C 85.837238,332.00426 95.908243,324.17686 106.00964,316.38881 C 116.06594,308.63552 126.13721,300.90144 136.24586,293.21652 C 146.29502,285.57681 156.36625,277.96583 166.48207,270.41463 C 176.52423,262.91843 186.56489,255.41868 196.71829,248.07384 C 206.72447,240.83548 216.88528,233.81323 226.95451,226.66282 C 237.04278,219.49892 247.01101,212.16421 257.19073,205.13085 C 267.17246,198.23427 277.31373,191.57108 287.42695,184.8688 C 297.47171,178.21189 307.50305,171.53221 317.66317,165.05274 C 327.66336,158.67524 337.74978,152.43184 347.89939,146.29495 C 357.90954,140.24237 367.98193,134.2906 378.13561,128.48203 C 388.14214,122.75767 398.21594,117.14829 408.37187,111.69337 C 418.37653,106.31971 428.45125,101.07335 438.60809,95.993213 C 448.61219,90.989459 458.68694,86.123053 468.84431,81.438252 C 478.84833,76.824167 488.92471,72.362322 499.08053,68.092741 C 509.08645,63.886164 519.1636,59.843392 529.31675,56.005811 C 539.32572,52.222731 549.40416,48.616684 559.55297,45.226599 C 569.56659,41.881679 579.64616,38.725962 589.78916,35.796677 C 599.80889,32.902995 609.88963,30.210498 620.02538,27.753842 C 630.05266,25.323493 640.13489,23.107631 650.2616,21.13211 C 660.29808,19.174201 670.38093,17.437962 680.49782,15.950378 C 690.54433,14.473149 700.62816,13.22806 710.73404,12.235102 C 720.79171,11.246907 730.87097,10.377086 740.97022,10.005181 C 761.11405,9.263373 781.29884,9.263373 801.44266,10.005181 C 811.54193,10.377086 821.6212,11.246907 831.67889,12.235102 C 841.78476,13.22806 851.86859,14.473149 861.91511,15.950378 C 872.03199,17.437962 882.11485,19.174201 892.15133,21.13211 C 902.27803,23.107631 912.36027,25.323493 922.38756,27.753842 C 932.52331,30.210498 942.60403,32.902995 952.62378,35.796677 C 962.76678,38.725962 972.84633,41.881679 982.85996,45.226599 C 993.00875,48.616684 1003.0872,52.222731 1013.0962,56.005811 C 1023.2494,59.843392 1033.3265,63.886164 1043.3324,68.092741 C 1053.4882,72.362322 1063.5646,76.824167 1073.5686,81.438252 C 1083.726,86.123053 1093.8007,90.989459 1103.8048,95.993213 C 1113.9617,101.07335 1124.0364,106.31971 1134.0411,111.69337 C 1144.197,117.14829 1154.2708,122.75767 1164.2773,128.48203 C 1174.431,134.2906 1184.5034,140.24237 1194.5135,146.29495 C 1204.6632,152.43184 1214.7496,158.67524 1224.7498,165.05274 C 1234.9099,171.53221 1244.9412,178.21189 1254.986,184.8688 C 1265.0992,191.57108 1275.2404,198.23427 1285.2222,205.13085 C 1295.4019,212.16421 1305.3701,219.49892 1315.4584,226.66282 C 1325.5276,233.81323 1335.6884,240.83548 1345.6946,248.07384 C 1355.848,255.41868 1365.8887,262.91843 1375.9308,270.41463 C 1386.0467,277.96583 1396.1179,285.57681 1406.1671,293.21652 C 1416.2757,300.90144 1426.347,308.63552 1436.4033,316.38881 C 1446.5047,324.17686 1456.5757,332.00426 1466.6395,339.84077 C 1476.7333,347.7006 1486.8046,355.58912 1496.8757,363.47794 C 1517.0485,379.2795 1537.1754,395.13969 1557.3482,410.94125 C 1567.4193,418.83007 1577.4906,426.71858 1587.5844,434.57841 C 1597.6482,442.41492 1607.7192,450.24233 1617.8206,458.03038 C 1627.8769,465.78367 1637.9482,473.51775 1648.0568,481.20267 C 1658.106,488.84238 1668.1772,496.45336 1678.293,504.00456 C 1688.3352,511.50076 1698.3759,519.00051 1708.5293,526.34534 C 1718.5354,533.58371 1728.6963,540.60596 1738.7655,547.75637 C 1748.8538,554.92027 1758.822,562.25498 1769.0017,569.28834 C 1778.9834,576.18492 1789.1247,582.84811 1799.2379,589.55038 C 1809.2827,596.2073 1819.314,602.88698 1829.4741,609.36645 C 1839.4743,615.74395 1849.5607,621.98735 1859.7103,628.12424 C 1869.7205,634.17682 1879.7928,640.12859 1889.9465,645.93716 C 1899.9531,651.66152 1910.0269,657.2709 1920.1828,662.72582 C 1930.1875,668.09947 1940.2622,673.34584 1950.419,678.42598 C 1960.4231,683.42973 1970.4979,688.29614 1980.6552,692.98094 C 1990.6593,697.59502 2000.7357,702.05687 2010.8915,706.32645 C 2020.8974,710.53302 2030.9745,714.5758 2041.1277,718.41338 C 2051.1367,722.19646 2061.2151,725.80251 2071.3639,729.19259 C 2081.3775,732.53751 2091.4571,735.69323 2101.6001,738.62251 C 2111.6198,741.51619 2121.7006,744.20869 2131.8363,746.66535 C 2141.8636,749.0957 2151.9458,751.31156 2162.0725,753.28708 C 2172.109,755.24499 2182.1919,756.98123 2192.3088,758.46881 C 2202.3553,759.94604 2212.4391,761.19113 2222.545,762.18409 C 2232.6026,763.17228 2242.6819,764.0421 2252.7812,764.41401 C 2272.925,765.15582 2293.1098,765.15582 2313.2536,764.41401 Z"
     sodipodi:nodetypes="aaaaaaaaaaaaaaaaaaaaaaaacaaaaaaaaaaaaaaaaaaaaaaaaaaaaaaaaaaaaaaaaaaaaaaaacaaaaaaaaaaaaaaaaaaaaaaaaaaaaaaaaaaaaaaaaaaaaaaaacaaaaaaaaaaaaaaaaaaaaaaaaaaaaaaaaaaaaaaaaaaaaaaaaaaaaaaaaaaaaaaaaaaaaaaaaa" />
</svg>
