<?xml version="1.0" encoding="UTF-8" standalone="no"?>
<svg
   width="210mm"
   height="297mm"
   viewBox="0 0 210 297"
   version="1.1"
   id="svg75"
   inkscape:version="1.1-dev (0486c1a, 2020-10-10)"
   sodipodi:docname="Sinuskurve0-1.svg"
   xmlns:inkscape="http://www.inkscape.org/namespaces/inkscape"
   xmlns:sodipodi="http://sodipodi.sourceforge.net/DTD/sodipodi-0.dtd"
   xmlns:xlink="http://www.w3.org/1999/xlink"
   xmlns="http://www.w3.org/2000/svg"
   xmlns:svg="http://www.w3.org/2000/svg">
  <defs
     id="defs71">
    <marker
       style="overflow:visible"
       id="marker5212"
       refX="0"
       refY="0"
       orient="auto-start-reverse"
       inkscape:stockid="Arrow2"
       markerWidth="7.6999998"
       markerHeight="5.5999999"
       viewBox="0 0 7.7 5.6"
       inkscape:isstock="true"
       inkscape:collect="always"
       preserveAspectRatio="xMidYMid">
      <path
         transform="scale(0.7)"
         d="M -2,-4 L 9,0 L -2,4 C 0,1.67 0,-1.66 -2,-4 Z"
         style="fill:context-stroke;fill-rule:evenodd;stroke:none"
         id="path5210" />
    </marker>
    <marker
       style="overflow:visible"
       id="Arrow2"
       refX="0"
       refY="0"
       orient="auto-start-reverse"
       inkscape:stockid="Arrow2"
       markerWidth="7.6999998"
       markerHeight="5.5999999"
       viewBox="0 0 7.7 5.6"
       inkscape:isstock="true"
       inkscape:collect="always"
       preserveAspectRatio="xMidYMid">
      <path
         transform="scale(0.7)"
         d="M -2,-4 L 9,0 L -2,4 C 0,1.67 0,-1.66 -2,-4 Z"
         style="fill:context-stroke;fill-rule:evenodd;stroke:none"
         id="arrow2L" />
    </marker>
    <marker
       style="overflow:visible"
       id="EmptyTriangleIn"
       refX="0"
       refY="0"
       orient="auto-start-reverse"
       inkscape:stockid="EmptyTriangleIn"
       markerWidth="5.8241119"
       markerHeight="6.7330775"
       viewBox="0 0 5.8241121 6.7330776"
       inkscape:isstock="true"
       inkscape:collect="always"
       preserveAspectRatio="xMidYMid">
      <path
         transform="scale(0.5)"
         style="fill:context-fill;fill-rule:evenodd;stroke:context-stroke;stroke-width:2"
         d="M 5.77,0 L -2.88,5 V -5 Z"
         id="path153" />
    </marker>
    <linearGradient
       inkscape:collect="always"
       xlink:href="#linearGradient984"
       id="linearGradient986"
       x1="-164.26361"
       y1="209.42953"
       x2="643.83136"
       y2="209.42953"
       gradientUnits="userSpaceOnUse"
       gradientTransform="matrix(0.25,0,0,0.25,44.377135,105.96891)" />
    <linearGradient
       inkscape:collect="always"
       id="linearGradient984">
      <stop
         style="stop-color:#00a9ff;stop-opacity:1"
         offset="0"
         id="stop980" />
      <stop
         style="stop-color:#49c0ff;stop-opacity:0.99293292"
         offset="1"
         id="stop982" />
    </linearGradient>
  </defs>
  <sodipodi:namedview
     id="base"
     pagecolor="#ffffff"
     bordercolor="#666666"
     borderopacity="1.0"
     inkscape:pageopacity="0.0"
     inkscape:pageshadow="2"
     inkscape:zoom="0.373826"
     inkscape:cx="426.66909"
     inkscape:cy="579.14644"
     inkscape:document-units="mm"
     inkscape:current-layer="layer1"
     showgrid="false"
     inkscape:window-width="1112"
     inkscape:window-height="755"
     inkscape:window-x="168"
     inkscape:window-y="23"
     inkscape:window-maximized="0"
     inkscape:pagecheckerboard="0"
     inkscape:blackoutopacity="0.0" />
  <g
     inkscape:label="Ebene 1"
     inkscape:groupmode="layer"
     id="layer1">
    <path
       style="fill:none;stroke:#000000;stroke-width:0.219903px;stroke-linecap:butt;stroke-linejoin:miter;stroke-opacity:1"
       d="M 0,0 C 0,0 5.3313078,4.1885832 8,6.279 C 10.664647,8.3662479 13.329364,10.453421 16,12.533 C 18.662719,14.606414 21.327345,16.677411 24,18.738 C 26.660727,20.789393 29.325421,22.8357 32,24.869 C 34.658841,26.890336 37.323519,28.904081 40,30.902 C 42.656987,32.885367 45.313584,34.86968 48,36.813 C 50.647473,38.72815 53.335846,40.586123 56,42.478 C 58.669189,44.373453 61.306615,46.31409 64,48.175 C 66.641001,49.999717 69.324211,51.762688 72,53.536 C 74.657676,55.297308 77.311801,57.064638 80,58.779 C 82.645883,60.466375 85.314581,62.118283 88,63.742 C 90.648519,65.343406 93.313505,66.918153 96,68.455 C 98.647557,69.969572 101.31291,71.453725 104,72.897 C 106.64707,74.318779 109.31267,75.70688 112,77.051 C 114.64692,78.374907 117.31253,79.662477 120,80.902 C 122.6469,82.12281 125.31294,83.303338 128,84.433 C 130.6474,85.545987 133.31364,86.615637 136,87.631 C 138.64821,88.631943 141.31479,89.586039 144,90.483 C 146.64944,91.368013 149.31633,92.202963 152,92.978 C 154.65106,93.743618 157.31825,94.456015 160,95.106 C 162.65305,95.749029 165.32064,96.335308 168,96.858 C 170.65548,97.376035 173.32324,97.835408 176,98.229 C 178.65814,98.619854 181.32615,98.949284 184,99.212 C 186.66109,99.473463 189.32932,99.670548 192,99.802 C 194.66426,99.933136 200,100 200,100"
       id="path81"
       sodipodi:nodetypes="caaaaaaaaaaaaaaaaaaaaaaaac" />
    <path
       id="path976"
       style="fill:url(#linearGradient986);fill-opacity:1;stroke:#000000;stroke-width:1.24999;stroke-linecap:butt;stroke-linejoin:miter;stroke-miterlimit:4;stroke-dasharray:none;stroke-opacity:1"
       d="M 156.32332,183.2768 C 156.99134,183.2522 157.65805,183.19466 158.32332,183.1293 C 158.99179,183.06362 159.65879,182.98126 160.32332,182.88355 C 160.99251,182.78515 161.65945,182.6703 162.32332,182.5408 C 162.99316,182.41012 163.66006,182.26355 164.32332,182.1028 C 164.99376,181.9403 165.66056,181.7622 166.32332,181.5708 C 166.99424,181.37704 167.66096,181.1683 168.32332,180.94705 C 168.99462,180.72281 169.66127,180.48428 170.32332,180.23405 C 170.99491,179.98021 171.66147,179.71279 172.32332,179.43455 C 172.99508,179.15213 173.6616,178.857 174.32332,178.5518 C 174.99519,178.24192 175.66159,177.92002 176.32332,177.58905 C 176.99515,177.25302 177.66155,176.90599 178.32332,176.55055 C 178.99509,176.18973 179.66143,175.81869 180.32332,175.44005 C 180.99495,175.05583 181.66119,174.66215 182.32332,174.2618 C 182.99467,173.85587 183.66185,173.44289 184.32332,173.02105 C 184.99537,172.59246 185.6589,172.15062 186.32332,171.71029 C 186.99227,171.26697 187.66307,170.82623 188.32332,170.37005 C 188.99666,169.90482 189.65602,169.41966 190.32332,168.9458 C 190.98936,168.47283 191.66145,168.00833 192.32332,167.52954 C 192.99493,167.04371 193.65907,166.54764 194.32332,166.0518 C 194.99244,165.55231 195.65861,165.04888 196.32332,164.54355 C 196.99197,164.03522 197.65813,163.52364 198.32332,163.01079 C 198.99148,162.49565 199.65764,161.9779 200.32332,161.45954 C 200.99098,160.93965 201.65716,160.41786 202.32332,159.89605 C 202.99049,159.37344 204.32332,158.32629 204.32332,158.32629 C 204.32332,158.32629 202.99049,157.27915 202.32332,156.75654 C 201.65716,156.23473 200.99098,155.71294 200.32332,155.19304 C 199.65764,154.67469 198.99148,154.15694 198.32332,153.6418 C 197.65813,153.12895 196.99197,152.61737 196.32332,152.10904 C 195.65861,151.60371 194.99244,151.10028 194.32332,150.60079 C 193.65907,150.10495 192.99493,149.60888 192.32332,149.12304 C 191.66145,148.64426 190.98936,148.17976 190.32332,147.70679 C 189.65602,147.23293 188.99666,146.74777 188.32332,146.28254 C 187.66307,145.82636 186.99227,145.38562 186.32332,144.94229 C 185.6589,144.50197 184.99537,144.06013 184.32332,143.63154 C 183.66185,143.2097 182.99467,142.79672 182.32332,142.3908 C 181.66119,141.99044 180.99495,141.59676 180.32332,141.21254 C 179.66143,140.8339 178.99509,140.46287 178.32332,140.10204 C 177.66155,139.7466 176.99515,139.39957 176.32332,139.06354 C 175.66159,138.73257 174.99519,138.41067 174.32332,138.10079 C 173.6616,137.79559 172.99508,137.50046 172.32332,137.21804 C 171.66147,136.9398 170.99491,136.67238 170.32332,136.41854 C 169.66127,136.16831 168.99462,135.92978 168.32332,135.70554 C 167.66096,135.48429 166.99424,135.27555 166.32332,135.08179 C 165.66056,134.89039 164.99376,134.71229 164.32332,134.54979 C 163.66006,134.38904 162.99316,134.24247 162.32332,134.11179 C 161.65945,133.98229 160.99251,133.86744 160.32332,133.76904 C 159.65879,133.67133 158.99179,133.58897 158.32332,133.52329 C 157.65805,133.45793 156.99134,133.40039 156.32332,133.37579 C 154.99089,133.32673 153.65575,133.32673 152.32332,133.37579 C 151.65529,133.40039 150.98859,133.45793 150.32332,133.52329 C 149.65486,133.58897 148.98786,133.67133 148.32332,133.76904 C 147.65413,133.86744 146.98719,133.98229 146.32332,134.11179 C 145.65348,134.24247 144.98658,134.38904 144.32332,134.54979 C 143.65289,134.71229 142.98608,134.89039 142.32332,135.08179 C 141.6524,135.27555 140.98568,135.48429 140.32332,135.70554 C 139.65202,135.92978 138.98538,136.16831 138.32332,136.41854 C 137.65173,136.67238 136.98517,136.9398 136.32333,137.21804 C 135.65156,137.50046 134.98505,137.79559 134.32332,138.10079 C 133.65146,138.41067 132.98505,138.73257 132.32332,139.06354 C 131.65149,139.39957 130.98509,139.7466 130.32332,140.10204 C 129.65155,140.46287 128.98521,140.8339 128.32332,141.21254 C 127.65169,141.59676 126.98545,141.99044 126.32332,142.3908 C 125.65197,142.79672 124.98479,143.2097 124.32332,143.63154 C 123.65127,144.06013 122.98774,144.50197 122.32332,144.94229 C 121.65438,145.38562 120.98357,145.82636 120.32332,146.28254 C 119.64998,146.74777 118.99062,147.23293 118.32332,147.70679 C 117.65729,148.17976 116.98519,148.64426 116.32333,149.12304 C 115.65172,149.60888 114.98757,150.10495 114.32332,150.60079 C 113.6542,151.10028 112.98803,151.60371 112.32332,152.10904 C 111.65468,152.61737 110.98851,153.12895 110.32332,153.6418 C 109.65516,154.15694 108.989,154.67469 108.32332,155.19304 C 107.65566,155.71294 106.98949,156.23473 106.32333,156.75654 C 105.65615,157.27915 104.32332,158.32629 104.32332,158.32629 C 103.65656,158.84942 102.9905,159.37344 102.32332,159.89605 C 101.65716,160.41786 100.99099,160.93965 100.32332,161.45954 C 99.657641,161.9779 98.991491,162.49565 98.323321,163.01079 C 97.658141,163.52364 96.991971,164.03522 96.323331,164.54355 C 95.658611,165.04888 94.992451,165.55231 94.323321,166.0518 C 93.659081,166.54764 92.994931,167.04371 92.323321,167.52954 C 91.661451,168.00833 90.989361,168.47283 90.323321,168.9458 C 89.656021,169.41966 88.996671,169.90482 88.323321,170.37005 C 87.663071,170.82623 86.992271,171.26697 86.323331,171.71029 C 85.658901,172.15062 84.995381,172.59246 84.323331,173.02105 C 83.661861,173.44289 82.994681,173.85587 82.323321,174.2618 C 81.661201,174.66215 80.994951,175.05583 80.323321,175.44005 C 79.661441,175.81869 78.995101,176.18973 78.323321,176.55055 C 77.661561,176.90599 76.995161,177.25302 76.323321,177.58905 C 75.661591,177.92002 74.995191,178.24192 74.323321,178.5518 C 73.661601,178.857 72.995091,179.15213 72.323321,179.43455 C 71.661471,179.71279 70.994921,179.98021 70.323321,180.23405 C 69.661271,180.48428 68.994621,180.72281 68.323321,180.94705 C 67.660961,181.1683 66.994241,181.37704 66.323331,181.5708 C 65.660561,181.7622 64.993761,181.9403 64.323331,182.1028 C 63.660061,182.26355 62.993161,182.41012 62.323321,182.5408 C 61.659451,182.6703 60.992511,182.78515 60.323321,182.88355 C 59.658791,182.98126 58.991791,183.06362 58.323321,183.1293 C 57.658053,183.19466 56.99135,183.2522 56.323325,183.2768 C 54.990895,183.32586 53.655755,183.32586 52.323325,183.2768 C 51.655303,183.2522 50.9886,183.19466 50.323328,183.1293 C 49.654865,183.06362 48.987863,182.98126 48.323328,182.88355 C 47.654138,182.78515 46.9872,182.6703 46.323328,182.5408 C 45.653488,182.41012 44.98659,182.26355 44.323328,182.1028 C 43.65289,181.9403 42.986093,181.7622 42.323328,181.5708 C 41.652411,181.37704 40.985691,181.1683 40.323331,180.94705 C 39.652028,180.72281 38.985383,180.48428 38.323331,180.23405 C 37.651743,179.98021 36.985181,179.71279 36.323331,179.43455 C 35.651566,179.15213 34.985056,178.857 34.323331,178.5518 C 33.651463,178.24192 32.985061,177.92002 32.323331,177.58905 C 31.651498,177.25302 30.985098,176.90599 30.323331,176.55055 C 29.651558,176.18973 28.985218,175.81869 28.323328,175.44005 C 27.651706,175.05583 26.985458,174.66215 26.323328,174.2618 C 25.651973,173.85587 24.984798,173.44289 24.323328,173.02105 C 23.651278,172.59246 22.987748,172.15062 22.323328,171.71029 C 21.654381,171.26697 20.983578,170.82623 20.323328,170.37005 C 19.649983,169.90482 18.990626,169.41966 18.323328,168.9458 C 17.657291,168.47283 16.985196,168.00833 16.323328,167.52954 C 15.651723,167.04371 14.987576,166.54764 14.323328,166.0518 C 13.654208,165.55231 12.988038,165.04888 12.323328,164.54355 C 11.654683,164.03522 10.988511,163.52364 10.323328,163.01079 C 9.655163,162.49565 8.989008,161.9779 8.323328,161.45954 C 7.655668,160.93965 6.989491,160.41786 6.323328,159.89605 C 5.6561559,159.37344 4.3233279,158.32629 4.3233279,158.32629 C 4.9900929,157.80317 5.6561559,157.27915 6.323328,156.75654 C 6.989491,156.23473 7.655668,155.71294 8.323328,155.19304 C 8.989008,154.67469 9.655163,154.15694 10.323328,153.6418 C 10.988511,153.12895 11.654683,152.61737 12.323328,152.10904 C 12.988038,151.60371 13.654208,151.10028 14.323328,150.60079 C 14.987576,150.10495 15.651723,149.60888 16.323328,149.12304 C 16.985196,148.64426 17.657291,148.17976 18.323328,147.70679 C 18.990626,147.23293 19.649983,146.74777 20.323328,146.28254 C 20.983578,145.82636 21.654381,145.38562 22.323328,144.94229 C 22.987748,144.50197 23.651278,144.06013 24.323328,143.63154 C 24.984798,143.2097 25.651973,142.79672 26.323328,142.3908 C 26.985458,141.99044 27.651706,141.59676 28.323328,141.21254 C 28.985218,140.8339 29.651558,140.46287 30.323331,140.10204 C 30.985098,139.7466 31.651498,139.39957 32.323331,139.06354 C 32.985061,138.73257 33.651463,138.41067 34.323331,138.10079 C 34.985056,137.79559 35.651566,137.50046 36.323331,137.21804 C 36.985181,136.9398 37.651743,136.67238 38.323331,136.41854 C 38.985383,136.16831 39.652028,135.92978 40.323331,135.70554 C 40.985691,135.48429 41.652411,135.27555 42.323328,135.08179 C 42.986093,134.89039 43.65289,134.71229 44.323328,134.54979 C 44.98659,134.38904 45.653488,134.24247 46.323328,134.11179 C 46.9872,133.98229 47.654138,133.86744 48.323328,133.76904 C 48.987863,133.67133 49.654865,133.58897 50.323328,133.52329 C 50.9886,133.45793 51.655303,133.40039 52.323325,133.37579 C 53.655755,133.32673 54.990895,133.32673 56.323325,133.37579 C 56.99135,133.40039 57.658053,133.45793 58.323321,133.52329 C 58.991791,133.58897 59.658791,133.67133 60.323321,133.76904 C 60.992511,133.86744 61.659451,133.98229 62.323321,134.11179 C 62.993161,134.24247 63.660061,134.38904 64.323331,134.54979 C 64.993761,134.71229 65.660561,134.89039 66.323331,135.08179 C 66.994241,135.27555 67.660961,135.48429 68.323321,135.70554 C 68.994621,135.92978 69.661271,136.16831 70.323321,136.41854 C 70.994921,136.67238 71.661471,136.9398 72.323321,137.21804 C 72.995091,137.50046 73.661601,137.79559 74.323321,138.10079 C 74.995191,138.41067 75.661591,138.73257 76.323321,139.06354 C 76.995161,139.39957 77.661561,139.7466 78.323321,140.10204 C 78.995101,140.46287 79.661441,140.8339 80.323321,141.21254 C 80.994951,141.59676 81.661201,141.99044 82.323321,142.3908 C 82.994681,142.79672 83.661861,143.2097 84.323331,143.63154 C 84.995381,144.06013 85.658901,144.50197 86.323331,144.94229 C 86.992271,145.38562 87.663071,145.82636 88.323321,146.28254 C 88.996671,146.74777 89.656021,147.23293 90.323321,147.70679 C 90.989361,148.17976 91.661451,148.64426 92.323321,149.12304 C 92.994931,149.60888 93.659081,150.10495 94.323321,150.60079 C 94.992451,151.10028 95.658611,151.60371 96.323331,152.10904 C 96.991971,152.61737 97.658141,153.12895 98.323321,153.6418 C 98.991491,154.15694 99.657641,154.67469 100.32332,155.19304 C 100.99099,155.71294 101.65716,156.23473 102.32332,156.75654 C 103.65767,157.80175 104.98898,158.85084 106.32333,159.89605 C 106.98949,160.41786 107.65566,160.93965 108.32332,161.45954 C 108.989,161.9779 109.65516,162.49565 110.32332,163.01079 C 110.98851,163.52364 111.65468,164.03522 112.32332,164.54355 C 112.98803,165.04888 113.6542,165.55231 114.32332,166.0518 C 114.98757,166.54764 115.65172,167.04371 116.32333,167.52954 C 116.98519,168.00833 117.65729,168.47283 118.32332,168.9458 C 118.99062,169.41966 119.64998,169.90482 120.32332,170.37005 C 120.98357,170.82623 121.65438,171.26697 122.32332,171.71029 C 122.98774,172.15062 123.65127,172.59246 124.32332,173.02105 C 124.98479,173.44289 125.65197,173.85587 126.32332,174.2618 C 126.98545,174.66215 127.65169,175.05583 128.32332,175.44005 C 128.98521,175.81869 129.65155,176.18973 130.32332,176.55055 C 130.98509,176.90599 131.65149,177.25302 132.32332,177.58905 C 132.98505,177.92002 133.65146,178.24192 134.32332,178.5518 C 134.98505,178.857 135.65156,179.15213 136.32333,179.43455 C 136.98517,179.71279 137.65173,179.98021 138.32332,180.23405 C 138.98538,180.48428 139.65202,180.72281 140.32332,180.94705 C 140.98568,181.1683 141.6524,181.37704 142.32332,181.5708 C 142.98608,181.7622 143.65289,181.9403 144.32332,182.1028 C 144.98658,182.26355 145.65348,182.41012 146.32332,182.5408 C 146.98719,182.6703 147.65413,182.78515 148.32332,182.88355 C 148.98786,182.98126 149.65486,183.06362 150.32332,183.1293 C 150.98859,183.19466 151.65529,183.2522 152.32332,183.2768 C 153.65575,183.32586 154.99089,183.32586 156.32332,183.2768 Z"
       sodipodi:nodetypes="aaaaaaaaaaaaaaaaaaaaaaaacaaaaaaaaaaaaaaaaaaaaaaaaaaaaaaaaaaaaaaaaaaaaaaaacaaaaaaaaaaaaaaaaaaaaaaaaaaaaaaaaaaaaaaaaaaaaaaaacaaaaaaaaaaaaaaaaaaaaaaaaaaaaaaaaaaaaaaaaaaaaaaaaaaaaaaaaaaaaaaaaaaaaaaaaa" />
    <path
       style="fill:none;stroke:#000000;stroke-width:1;stroke-linecap:butt;stroke-linejoin:miter;stroke-opacity:1;stroke-miterlimit:4;stroke-dasharray:none;marker-end:url(#EmptyTriangleIn)"
       d="M 3.8939583,199.67353 H 202.05317"
       id="path761" />
    <path
       style="fill:none;stroke:#000000;stroke-width:1;stroke-linecap:butt;stroke-linejoin:miter;stroke-miterlimit:4;stroke-dasharray:none;stroke-opacity:1;marker-end:url(#EmptyTriangleIn)"
       d="M 3.7982342,199.57781 V 128.8192"
       id="path2190"
       sodipodi:nodetypes="cc" />
    <path
       style="fill:#ff0000;stroke:#ff0000;stroke-width:1;stroke-linecap:butt;stroke-linejoin:miter;stroke-opacity:1;stroke-miterlimit:4;stroke-dasharray:none;marker-end:url(#Arrow2);marker-start:url(#marker5212)"
       d="M 52.323325,133.37579 V 183.2768"
       id="path5017" />
  </g>
</svg>
