<?xml version="1.0" encoding="UTF-8" standalone="no"?>
<svg
   sodipodi:docname="Harfe_Pikto.svg"
   inkscape:version="1.0rc1 (09960d6, 2020-04-09)"
   id="svg10308"
   version="1.1"
   viewBox="0 0 93.517967 168.45796"
   height="168.45796mm"
   width="93.517967mm"
   xmlns:inkscape="http://www.inkscape.org/namespaces/inkscape"
   xmlns:sodipodi="http://sodipodi.sourceforge.net/DTD/sodipodi-0.dtd"
   xmlns="http://www.w3.org/2000/svg"
   xmlns:svg="http://www.w3.org/2000/svg"
   xmlns:rdf="http://www.w3.org/1999/02/22-rdf-syntax-ns#"
   xmlns:cc="http://creativecommons.org/ns#"
   xmlns:dc="http://purl.org/dc/elements/1.1/">
  <defs
     id="defs10302" />
  <sodipodi:namedview
     inkscape:window-maximized="0"
     inkscape:window-y="23"
     inkscape:window-x="0"
     inkscape:window-height="755"
     inkscape:window-width="1248"
     fit-margin-bottom="0"
     fit-margin-right="0"
     fit-margin-left="0"
     fit-margin-top="0"
     guidetolerance="1"
     objecttolerance="1"
     showgrid="true"
     inkscape:document-rotation="0"
     inkscape:current-layer="layer1"
     inkscape:document-units="mm"
     inkscape:cy="1055.1933"
     inkscape:cx="-1058.6943"
     inkscape:zoom="0.17232093"
     inkscape:pageshadow="2"
     inkscape:pageopacity="0.0"
     borderopacity="1.0"
     bordercolor="#666666"
     pagecolor="#ffffff"
     id="base"
     inkscape:pagecheckerboard="0"
     inkscape:snap-global="false">
    <inkscape:grid
       type="xygrid"
       id="grid58901" />
  </sodipodi:namedview>
  <metadata
     id="metadata10305">
    <rdf:RDF>
      <cc:Work
         rdf:about="">
        <dc:format>image/svg+xml</dc:format>
        <dc:type
           rdf:resource="http://purl.org/dc/dcmitype/StillImage" />
      </cc:Work>
    </rdf:RDF>
  </metadata>
  <g
     transform="translate(-44.490452,-99.514156)"
     id="layer1"
     inkscape:groupmode="layer"
     inkscape:label="Ebene 1">
    <path
       id="path67069"
       style="fill:#ffffcc;fill-opacity:1;stroke:#000000;stroke-width:1;stroke-linecap:round;stroke-miterlimit:4;stroke-dasharray:none"
       d="M 34.610633,264.17423 C 52.205854,272.12597 64.730846,268.19457 76.930831,264.17423 V 253.42801 C 64.423274,248.63048 50.904346,246.86707 34.610633,253.42801 Z"
       inkscape:connector-curvature="0"
       sodipodi:nodetypes="ccccc" />
    <path
       id="rect10879"
       style="fill:#ffffcc;fill-opacity:1;stroke:#000000;stroke-width:1;stroke-linecap:round;stroke-miterlimit:4;stroke-dasharray:none"
       d="M 34.610633,258.28154 C 48.379132,265.38446 62.626774,262.42535 76.930831,258.28154 V 271.69798 C 64.423274,276.49551 50.904346,278.25892 34.610633,271.69798 Z"
       inkscape:connector-curvature="0"
       sodipodi:nodetypes="ccccc" />
    <path
       style="fill:none;stroke:#000000;stroke-width:1;stroke-linecap:butt;stroke-linejoin:miter;stroke-miterlimit:4;stroke-dasharray:none;stroke-opacity:1"
       d="M 84.192424,250.60681 L 94.402996,247.56155"
       id="path10882"
       inkscape:connector-curvature="0" />
    <rect
       style="fill:none;fill-opacity:1;stroke:#000000;stroke-width:1;stroke-linecap:round;stroke-miterlimit:4;stroke-dasharray:none"
       id="rect10886"
       width="7.5235801"
       height="6.6279206"
       x="68.036148"
       y="252.19858"
       ry="2.1495938"
       transform="rotate(-5.596414)" />
    <path
       inkscape:connector-curvature="0"
       id="path10888"
       d="M 84.046847,257.29946 L 94.654209,256.29286"
       style="fill:none;stroke:#000000;stroke-width:1;stroke-linecap:butt;stroke-linejoin:miter;stroke-miterlimit:4;stroke-dasharray:none;stroke-opacity:1" />
    <rect
       transform="rotate(5.5896336)"
       ry="2.1495938"
       y="242.46539"
       x="117.39326"
       height="6.6279206"
       width="7.5235801"
       id="rect10890"
       style="fill:none;fill-opacity:1;stroke:#000000;stroke-width:1;stroke-linecap:round;stroke-miterlimit:4;stroke-dasharray:none" />
    <path
       style="fill:none;stroke:#000000;stroke-width:1;stroke-linecap:butt;stroke-linejoin:miter;stroke-miterlimit:4;stroke-dasharray:none;stroke-opacity:1"
       d="M 65.78474,124.7169 V 230.58922"
       id="path10892"
       inkscape:connector-curvature="0" />
    <path
       inkscape:connector-curvature="0"
       id="path10894"
       d="M 69.78474,124.7169 V 230.58922"
       style="fill:none;stroke:#000000;stroke-width:1;stroke-linecap:butt;stroke-linejoin:miter;stroke-miterlimit:4;stroke-dasharray:none;stroke-opacity:1" />
    <path
       style="fill:none;stroke:#000000;stroke-width:1;stroke-linecap:butt;stroke-linejoin:miter;stroke-miterlimit:4;stroke-dasharray:none;stroke-opacity:1"
       d="M 73.78474,124.7169 V 230.58922"
       id="path10896"
       inkscape:connector-curvature="0" />
    <path
       inkscape:connector-curvature="0"
       id="path10898"
       d="M 77.78474,124.7169 V 230.58922"
       style="fill:none;stroke:#000000;stroke-width:1;stroke-linecap:butt;stroke-linejoin:miter;stroke-miterlimit:4;stroke-dasharray:none;stroke-opacity:1" />
    <path
       style="fill:none;stroke:#000000;stroke-width:1;stroke-linecap:butt;stroke-linejoin:miter;stroke-miterlimit:4;stroke-dasharray:none;stroke-opacity:1"
       d="M 81.78474,124.7169 V 230.58922"
       id="path10900"
       inkscape:connector-curvature="0" />
    <path
       inkscape:connector-curvature="0"
       id="path10902"
       d="M 85.78474,135.33839 V 204.2068"
       style="fill:none;stroke:#000000;stroke-width:1;stroke-linecap:butt;stroke-linejoin:miter;stroke-miterlimit:4;stroke-dasharray:none;stroke-opacity:1"
       sodipodi:nodetypes="cc" />
    <path
       sodipodi:nodetypes="cc"
       style="fill:none;stroke:#000000;stroke-width:1;stroke-linecap:butt;stroke-linejoin:miter;stroke-miterlimit:4;stroke-dasharray:none;stroke-opacity:1"
       d="M 89.78474,135.33839 V 204.2068"
       id="path10904"
       inkscape:connector-curvature="0" />
    <path
       inkscape:connector-curvature="0"
       id="path10906"
       d="M 93.78474,135.33839 V 204.2068"
       style="fill:none;stroke:#000000;stroke-width:1;stroke-linecap:butt;stroke-linejoin:miter;stroke-miterlimit:4;stroke-dasharray:none;stroke-opacity:1"
       sodipodi:nodetypes="cc" />
    <path
       sodipodi:nodetypes="cc"
       style="fill:none;stroke:#000000;stroke-width:1;stroke-linecap:butt;stroke-linejoin:miter;stroke-miterlimit:4;stroke-dasharray:none;stroke-opacity:1"
       d="M 97.78474,141.50571 V 183.30644"
       id="path10908"
       inkscape:connector-curvature="0" />
    <path
       inkscape:connector-curvature="0"
       id="path10910"
       d="M 101.78474,141.50571 V 183.30644"
       style="fill:none;stroke:#000000;stroke-width:1;stroke-linecap:butt;stroke-linejoin:miter;stroke-miterlimit:4;stroke-dasharray:none;stroke-opacity:1"
       sodipodi:nodetypes="cc" />
    <path
       sodipodi:nodetypes="cc"
       style="fill:none;stroke:#000000;stroke-width:1;stroke-linecap:butt;stroke-linejoin:miter;stroke-miterlimit:4;stroke-dasharray:none;stroke-opacity:1"
       d="M 105.78474,141.50571 V 183.30644"
       id="path10912"
       inkscape:connector-curvature="0" />
    <path
       inkscape:connector-curvature="0"
       id="path10914"
       d="M 109.78474,141.50571 V 183.30644"
       style="fill:none;stroke:#000000;stroke-width:1;stroke-linecap:butt;stroke-linejoin:miter;stroke-miterlimit:4;stroke-dasharray:none;stroke-opacity:1"
       sodipodi:nodetypes="cc" />
    <path
       sodipodi:nodetypes="cc"
       style="fill:none;stroke:#000000;stroke-width:1;stroke-linecap:butt;stroke-linejoin:miter;stroke-miterlimit:4;stroke-dasharray:none;stroke-opacity:1"
       d="M 113.78474,141.50571 V 161.37819"
       id="path10916"
       inkscape:connector-curvature="0" />
    <path
       inkscape:connector-curvature="0"
       id="path10918"
       d="M 117.78474,141.50571 V 161.37819"
       style="fill:none;stroke:#000000;stroke-width:1;stroke-linecap:butt;stroke-linejoin:miter;stroke-miterlimit:4;stroke-dasharray:none;stroke-opacity:1"
       sodipodi:nodetypes="cc" />
    <path
       sodipodi:nodetypes="cc"
       style="fill:none;stroke:#000000;stroke-width:1;stroke-linecap:butt;stroke-linejoin:miter;stroke-miterlimit:4;stroke-dasharray:none;stroke-opacity:1"
       d="M 121.78474,138.85986 V 158.73234"
       id="path10920"
       inkscape:connector-curvature="0" />
    <path
       style="color:#000000;font-style:normal;font-variant:normal;font-weight:normal;font-stretch:normal;font-size:medium;line-height:normal;font-family:sans-serif;font-variant-ligatures:normal;font-variant-position:normal;font-variant-caps:normal;font-variant-numeric:normal;font-variant-alternates:normal;font-variant-east-asian:normal;font-feature-settings:normal;font-variation-settings:normal;text-indent:0;text-align:start;text-decoration:none;text-decoration-line:none;text-decoration-style:solid;text-decoration-color:#000000;letter-spacing:normal;word-spacing:normal;text-transform:none;writing-mode:lr-tb;direction:ltr;text-orientation:mixed;dominant-baseline:auto;baseline-shift:baseline;text-anchor:start;white-space:normal;shape-padding:0;shape-margin:0;inline-size:0;clip-rule:nonzero;display:inline;overflow:visible;visibility:visible;isolation:auto;mix-blend-mode:normal;color-interpolation:sRGB;color-interpolation-filters:linearRGB;solid-color:#000000;solid-opacity:1;fill:#ffffcc;fill-opacity:1;fill-rule:nonzero;stroke:#000000;stroke-width:1;stroke-linecap:round;stroke-linejoin:miter;stroke-miterlimit:4;stroke-dasharray:none;stroke-dashoffset:0;stroke-opacity:1;color-rendering:auto;image-rendering:auto;shape-rendering:auto;text-rendering:auto;enable-background:accumulate;stop-color:#000000"
       d="M 54.333984,99.595703 C 52.795968,99.724827 51.201674,100.00831 49.5625,100.4707 C 47.435492,101.07049 47.514744,103.18022 48.115653,105.30691 C 50.391095,110.50093 48.741369,125.88114 50.161707,125.88511 C 53.430586,125.56174 68.367002,123.84954 71.516897,126.94328 C 88.952428,144.06798 100.30338,144.75191 111.79416,144.43876 C 118.53983,144.25492 122.22411,139.42364 127.62109,137.42969 L 48.25,252.5957 C 46.996981,254.41444 47.455132,256.90455 49.273438,258.1582 C 51.092549,259.41255 60.144626,256.57667 61.398381,254.75715 C 75.040662,248.93751 108.99051,202.21425 126.22686,165.32991 C 135.38438,145.73359 140.51019,129.80632 136.78125,126.10547 C 133.38116,121.5984 118.13787,133.39849 109.39648,133.63672 C 100.65509,133.87495 90.714676,130.02715 76.693359,111.70703 C 74.084011,108.29768 70.899524,104.58231 66.421875,102.09375 C 63.063638,100.22733 58.948033,99.208331 54.333984,99.595703 Z"
       id="path10875"
       inkscape:connector-curvature="0"
       sodipodi:nodetypes="scccssccccscssss" />
    <g
       id="g62263"
       transform="translate(63.069182,-5.2816556)">
      <g
         id="g63847"
         transform="translate(-2.2191046,-1.1095523)">
        <path
           style="fill:#ffffcc;fill-rule:evenodd;stroke:none;stroke-width:1.17424;stroke-linecap:round;stroke-linejoin:bevel;stroke-miterlimit:4;stroke-dasharray:none;stop-color:#000000;fill-opacity:1"
           d="M -12.369682,265.12933 C -12.786633,264.46341 -13.606974,263.37791 -14.270996,262.80223 L -15.414221,261.68591 L -14.824481,258.90946 C -14.250737,256.20831 -13.420647,251.20344 -12.960076,247.21099 C -12.449584,242.78581 -11.276551,131.49907 -11.725625,125.40013 C -12.058614,120.87779 -12.636018,113.9385 -13.091758,112.75085 C -13.266468,112.29557 -12.705247,112.24584 -7.3920087,112.24584 H -1.4984679 L -2.1985036,116.67954 C -2.5728788,119.05066 -2.7959513,123.10786 -2.7574492,170.14984 C -2.7145152,222.60484 -2.4815575,245.76842 -1.6793409,250.54829 C -1.0966623,254.02008 -0.18189979,257.19162 0.78546448,259.73366 L 1.5226281,261.54557 L 0.01853002,262.89789 C -0.80872151,263.64166 -1.6568566,264.72389 -1.8662081,265.30284 C -2.2159397,266.27001 -2.3243342,266.3381 -3.200994,266.14136 C -4.4061631,265.87089 -9.44388,265.86804 -10.679534,266.13712 C -11.516123,266.3193 -11.689242,266.21608 -12.369682,265.12933 Z"
           id="path62043"
           sodipodi:nodetypes="sscssssscsssscsssss" />
        <path
           style="fill:#ffffcc;fill-opacity:1;fill-rule:evenodd;stroke:none;stroke-width:1.17424;stroke-linecap:round;stroke-linejoin:bevel;stroke-miterlimit:4;stroke-dasharray:none;stop-color:#000000"
           d="M -12.626921,112.66556 C -12.019144,112.05769 -13.281552,109.91768 -13.170573,108.76426 L -14.499108,102.5983 L -7.6061623,102.06362 L -0.59886205,102.78517 L -0.53609822,108.20417 C -0.51863022,109.71235 -1.4065052,111.38832 -1.3189625,111.8513 L -1.1597918,112.69307 L -9.0721757,114.60742 L -12.834976,112.87364 Z"
           id="path62119"
           sodipodi:nodetypes="sccccsscccs" />
        <path
           style="color:#000000;fill:#000000;fill-rule:evenodd;stroke-linecap:round;stroke-linejoin:bevel;-inkscape-stroke:none"
           d="M -13.769941,101.83499 L -14.266035,102.28225 L -15.681503,102.37033 L -14.975398,104.38707 L -14.586726,104.81871 C -12.883184,110.51714 -12.418137,122.27453 -12.658992,127.14526 C -12.612511,159.87784 -12.87351,197.77967 -13.026179,230.56511 C -13.268425,238.47331 -13.77666,253.67224 -16.469539,261.0501 C -16.677104,260.89194 -16.573119,261.31828 -16.747048,261.51282 C -16.926685,261.72261 -17.300471,261.64005 -17.090633,261.81963 C -14.916485,263.68073 -13.117039,265.53826 -12.451961,267.25322 L -11.873836,267.55986 C -8.1994781,266.72153 -5.2626531,266.56185 -1.9246171,267.64189 L -1.2722731,267.2083 C -1.1721491,266.06218 -0.62872407,265.14812 0.18280493,264.28838 C 0.99433388,263.42864 2.0699379,262.64932 3.1417899,261.83916 C 3.3608039,261.67221 3.0849739,261.75787 2.9188749,261.53821 C 2.7626799,261.34875 2.8106469,260.90248 2.5988209,261.02666 C -0.89706007,253.37333 -1.2624401,238.31761 -1.4285231,230.56706 V 230.5573 L -1.6570391,127.44799 C -2.3228491,121.96696 -1.5550241,109.38543 -0.26836707,104.74254 L 0.05389893,104.3734 L -0.22158171,101.89786 L -0.68683771,102.79574 L -0.27259747,101.6794 L -7.721251,101.07343 Z M -13.318769,102.83499 L -7.6343911,102.07343 L -0.71009847,102.6794 L -0.30123969,101.81235 L -1.0359451,103.76402 L -9.1433004,105.24703 L -13.805122,103.84161 L -14.646602,102.58918 Z M -13.541804,104.9398 L -9.142314,106.37318 L -1.3347731,104.9398 C -2.5163131,109.22221 -3.5506051,120.35046 -2.6023511,126.81518 C -2.6402811,159.68707 -2.5054361,197.66596 -2.4285231,230.56902 V 230.57878 C -2.2606091,238.4208 -1.9132371,253.73253 1.7785079,261.67314 C 0.97076788,262.28384 0.13814793,262.88041 -0.54375707,263.60283 C -1.3289491,264.43467 -1.8846621,265.44181 -2.1179761,266.61064 C -5.3345531,265.67716 -8.3258091,265.79293 -11.748836,266.54033 C -12.495286,264.90113 -13.939082,263.34472 -15.657039,261.80791 C -12.762949,254.12648 -12.273258,238.65765 -12.026179,230.58269 V 230.56902 L -11.565242,126.72729 C -11.895604,121.15382 -12.2784,109.41219 -13.541804,104.9398 Z"
           id="path61357"
           sodipodi:nodetypes="ccccccccccccccscccccccccccccccccccccccccccccsccccccc" />
        <path
           style="fill:none;stroke:#000000;stroke-width:0.7;stroke-linecap:butt;stroke-linejoin:miter;stroke-miterlimit:4;stroke-dasharray:none;stroke-opacity:1"
           d="M -9.2136296,105.5292 L -7.6847773,126.16472 L -8.1037754,250.18818 C -8.0768071,256.59032 -9.5218018,262.20742 -12.065548,267.23851"
           id="path62644"
           sodipodi:nodetypes="cccc" />
        <path
           style="fill:none;stroke:#000000;stroke-width:0.7;stroke-linecap:butt;stroke-linejoin:miter;stroke-miterlimit:4;stroke-dasharray:none;stroke-opacity:1"
           d="M -8.047707,250.42223 C -7.134906,257.14957 -4.6061507,262.09936 -2.0138083,266.9792"
           id="path62646"
           sodipodi:nodetypes="cc" />
        <path
           style="fill:none;stroke:#000000;stroke-width:0.7;stroke-linecap:butt;stroke-linejoin:miter;stroke-miterlimit:4;stroke-dasharray:none;stroke-opacity:1"
           d="M -0.78808931,249.71307 L 64.245972,156.74184 L 67.384275,143.38335"
           id="path65673"
           sodipodi:nodetypes="ccc" />
      </g>
    </g>
    <rect
       style="fill:#000000;fill-opacity:1;fill-rule:evenodd;stroke:none;stroke-width:0.7;stroke-linecap:round;stroke-linejoin:bevel;stroke-miterlimit:4;stroke-dasharray:none;stop-color:#000000"
       id="rect69798"
       width="2.7522707"
       height="4.6576891"
       x="70.107742"
       y="262.2157"
       transform="matrix(0.26458333,0,0,0.26458333,44.490452,99.514156)" />
  </g>
</svg>
