<?xml version="1.0" encoding="UTF-8" standalone="no"?>
<svg
   xmlns:dc="http://purl.org/dc/elements/1.1/"
   xmlns:cc="http://creativecommons.org/ns#"
   xmlns:rdf="http://www.w3.org/1999/02/22-rdf-syntax-ns#"
   xmlns:svg="http://www.w3.org/2000/svg"
   xmlns="http://www.w3.org/2000/svg"
   xmlns:sodipodi="http://sodipodi.sourceforge.net/DTD/sodipodi-0.dtd"
   xmlns:inkscape="http://www.inkscape.org/namespaces/inkscape"
   width="171.41791mm"
   height="176.62138mm"
   viewBox="0 0 171.4179 176.62138"
   version="1.1"
   id="svg8"
   inkscape:version="1.0rc1 (09960d6, 2020-04-09)"
   sodipodi:docname="Lyra.svg">
  <defs
     id="defs2">
    <clipPath
       id="clipPath2200"
       clipPathUnits="userSpaceOnUse">
      <rect
         y="-404.75174"
         x="201.70341"
         height="93.652847"
         width="35.974598"
         id="rect2202"
         style="opacity:1;fill:#ffffff;fill-opacity:1;stroke:#ffffff;stroke-width:0.7;stroke-linecap:round;stroke-miterlimit:4;stroke-dasharray:none;stroke-opacity:1" />
    </clipPath>
  </defs>
  <sodipodi:namedview
     guidetolerance="1"
     objecttolerance="1"
     inkscape:window-maximized="0"
     inkscape:window-y="23"
     inkscape:window-x="0"
     inkscape:window-height="755"
     inkscape:window-width="1248"
     fit-margin-bottom="0"
     fit-margin-right="0"
     fit-margin-left="0"
     fit-margin-top="0"
     showgrid="false"
     inkscape:document-rotation="0"
     inkscape:current-layer="layer1"
     inkscape:document-units="mm"
     inkscape:cy="-225.25041"
     inkscape:cx="857.12618"
     inkscape:zoom="0.29844186"
     inkscape:pageshadow="2"
     inkscape:pageopacity="0.0"
     borderopacity="1.0"
     bordercolor="#666666"
     pagecolor="#ffffff"
     id="base" />
  <metadata
     id="metadata5">
    <rdf:RDF>
      <cc:Work
         rdf:about="">
        <dc:format>image/svg+xml</dc:format>
        <dc:type
           rdf:resource="http://purl.org/dc/dcmitype/StillImage" />
        <dc:title />
      </cc:Work>
    </rdf:RDF>
  </metadata>
  <g
     transform="translate(-112.429, 462.307)"
     id="layer1"
     inkscape:groupmode="layer"
     inkscape:label="Ebene 1">
    <rect
       y="-313.4567"
       x="165.22772"
       height="0"
       width="76.60611"
       id="rect949"
       style="fill:#ffffff;fill-opacity:1;stroke:none;stroke-width:1;stroke-linecap:round;stroke-miterlimit:4;stroke-dasharray:none;stroke-opacity:1" />
    <path
       sodipodi:nodetypes="cc"
       inkscape:connector-curvature="0"
       id="path2589"
       d="m 130.85582,-423.72199 c -1.44953,-5.75982 5.73846,-10.70576 10.3725,-3.99192"
       style="fill:none;stroke:#000000;stroke-width:0.264583px;stroke-linecap:butt;stroke-linejoin:miter;stroke-opacity:1" />
    <path
       sodipodi:nodetypes="ccsccscccscccccccscccsccccc"
       inkscape:connector-curvature="0"
       id="path2617"
       d="m 127.20698,-412.93674 c -4.38645,-0.41 -8.55571,-2.72699 -11.20084,-6.22465 -1.20881,-1.59843 -2.56264,-4.40439 -3.10484,-6.43516 -0.6235,-2.33526 -0.63143,-6.51178 -0.017,-8.95913 1.6978,-6.76272 6.63205,-12.01107 13.36916,-14.22021 10.5552,-3.46112 22.43033,1.7688 27.32723,12.03516 1.68022,3.52259 1.76996,5.64362 1.87164,9.93479 0.0494,2.08626 -0.58386,3.4891 -0.67896,2.66724 -0.30487,-2.63589 -0.71916,-5.05192 -2.84011,-5.99011 -1.23229,-0.54511 -3.35633,-0.44696 -4.7195,0.21807 -1.18646,0.57882 -2.74591,2.10875 -3.50602,3.43964 l -0.56961,0.99736 -0.0958,-1.55938 c -0.25223,-4.1068 -2.85464,-7.82146 -6.50306,-9.28244 -0.97604,-0.39085 -1.50885,-0.45845 -3.64003,-0.46186 -2.41798,-0.004 -2.53865,0.0166 -3.83101,0.64876 -2.26051,1.10578 -3.69379,3.10694 -3.90667,5.45452 -0.27292,3.00986 1.37726,5.37719 3.74826,5.37719 0.88941,0 1.44268,-0.22181 2.14192,-0.8587 0.5311,-0.48373 0.57145,-1.12214 0.12543,-1.98464 -0.7107,-1.37435 0.11695,-4.19688 1.61682,-5.51378 0.99177,-0.87079 1.95127,-1.2299 3.2861,-1.2299 2.89266,0 5.49822,2.69412 6.30973,6.52421 0.54903,2.59125 0.43686,3.41224 -0.93693,6.85767 -1.33018,3.33603 -1.74417,3.97899 -3.51028,5.45181 -2.78084,2.31903 -6.7915,3.4822 -10.73566,3.11354 z"
       style="opacity:1;fill:#000000;fill-opacity:1;stroke:none;stroke-width:0.754883;stroke-linecap:round;stroke-miterlimit:4;stroke-dasharray:none;stroke-opacity:1" />
    <path
       sodipodi:nodetypes="sssscccscscssssscssscsssss"
       inkscape:connector-curvature="0"
       id="path2619"
       d="m 188.13624,-286.44938 c -12.75866,-1.82432 -23.8846,-6.22667 -32.74696,-12.95744 -18.59059,-14.11912 -28.11747,-36.7164 -27.24759,-64.62988 0.40236,-12.911 2.66549,-25.6915 7.20726,-40.70133 1.89437,-6.26061 4.66373,-13.82506 6.04948,-16.52404 0.63853,-1.24365 1.27731,-2.80909 1.4195,-3.47874 0.61529,-2.89759 3.01739,-6.13112 5.15268,-6.93616 3.13967,-1.1837 6.19224,0.71332 7.19201,4.46946 0.52458,1.97085 0.34599,2.86643 -1.92977,9.67736 -9.84861,29.47509 -8.90935,53.71273 2.73916,70.68434 2.30687,3.36106 7.32588,8.43176 10.67421,10.78416 13.16746,9.25089 30.86443,11.43086 47.81866,5.89048 17.50065,-5.71895 31.44337,-19.77775 37.38093,-37.69216 2.56034,-7.72488 3.50842,-14.02142 3.50842,-23.3006 0,-13.34235 -2.30177,-24.90084 -8.07207,-40.53438 -1.45238,-3.93496 -1.76393,-5.20655 -1.92175,-7.84374 l -0.18836,-3.14745 1.11722,-0.94008 c 1.44923,-1.21945 3.6593,-1.26362 6.11056,-0.12212 2.00379,0.93311 4.28027,2.22527 4.28027,3.38455 0,0.43674 0.51351,3.36192 1.4861,5.5345 6.67329,14.90697 12.05046,31.7762 14.19464,44.53142 2.40665,14.31652 2.63144,26.30414 0.71693,38.23241 -3.60532,22.46274 -15.07845,41.0591 -32.68214,52.97322 -8.94446,6.05359 -19.24483,10.17615 -30.26509,12.11313 -5.60016,0.98432 -16.91981,1.25868 -21.9943,0.53309 z"
       style="opacity:1;fill:#000000;fill-opacity:1;stroke:none;stroke-width:1.3148;stroke-linecap:round;stroke-miterlimit:4;stroke-dasharray:none;stroke-opacity:1" />
    <path
       sodipodi:nodetypes="sssssssssscsscscssssss"
       inkscape:connector-curvature="0"
       id="path2621"
       d="m 266.46164,-427.63006 c -7.82371,-2.21555 -11.71349,-11.31216 -7.60642,-17.78833 0.73497,-1.15894 1.48599,-1.83104 2.59341,-2.3209 1.54294,-0.68252 1.96941,-0.96496 3.46787,-0.30214 1.16312,0.5145 1.91284,1.02734 2.48697,2.21335 0.78762,1.62699 0.36413,3.85339 -0.2215,4.21533 -1.1243,0.69485 0.48655,2.60906 2.19558,2.60906 3.55816,0 4.62089,-5.81363 1.67606,-9.16873 -1.60637,-1.83016 -5.8998,-2.57869 -8.51745,-1.48496 -3.13113,1.30826 -5.43756,4.77179 -5.70457,8.56644 l -0.32903,2.26118 -1.31541,-1.43094 c -2.40439,-2.61556 -7.06116,-3.37738 -9.02873,-1.8297 l -0.94065,0.73992 -0.0191,-1.68708 c -0.13725,-12.10658 10.22386,-19.2859 20.57795,-19.2696 4.99601,0.008 8.98609,1.66895 12.6173,5.25261 2.5962,2.56221 4.46283,5.92692 5.16532,9.3108 0.58662,2.82575 0.23602,8.10413 -0.70126,10.55762 -1.60423,4.1993 -5.69562,8.26609 -9.37726,9.32087 -2.11192,0.60506 -5.33192,0.71295 -7.01905,0.23518 z"
       style="opacity:1;fill:#000000;fill-opacity:1;stroke:none;stroke-width:1.3148;stroke-linecap:round;stroke-miterlimit:4;stroke-dasharray:none;stroke-opacity:1" />
    <path
       inkscape:connector-curvature="0"
       id="path2623"
       d="m 151.53531,-424.56293 94.71747,-14.85764"
       style="fill:none;stroke:#000000;stroke-width:6;stroke-linecap:butt;stroke-linejoin:miter;stroke-miterlimit:4;stroke-dasharray:none;stroke-opacity:1" />
    <path
       inkscape:connector-curvature="0"
       id="path2625"
       d="m 180.01246,-426.42013 v 101.52722"
       style="fill:none;stroke:#000000;stroke-width:2.4;stroke-linecap:butt;stroke-linejoin:miter;stroke-miterlimit:4;stroke-dasharray:none;stroke-opacity:1" />
    <path
       sodipodi:nodetypes="cc"
       style="fill:none;stroke:#000000;stroke-width:2.4;stroke-linecap:butt;stroke-linejoin:miter;stroke-miterlimit:4;stroke-dasharray:none;stroke-opacity:1"
       d="m 186.58929,-428.98057 v 104.08766"
       id="path2627"
       inkscape:connector-curvature="0" />
    <path
       sodipodi:nodetypes="cc"
       inkscape:connector-curvature="0"
       id="path2629"
       d="m 193.16611,-429.74871 v 104.8558"
       style="fill:none;stroke:#000000;stroke-width:2.4;stroke-linecap:butt;stroke-linejoin:miter;stroke-miterlimit:4;stroke-dasharray:none;stroke-opacity:1" />
    <path
       sodipodi:nodetypes="cc"
       style="fill:none;stroke:#000000;stroke-width:2.4;stroke-linecap:butt;stroke-linejoin:miter;stroke-miterlimit:4;stroke-dasharray:none;stroke-opacity:1"
       d="m 199.74294,-431.79706 v 106.90415"
       id="path2633"
       inkscape:connector-curvature="0" />
    <path
       sodipodi:nodetypes="cc"
       inkscape:connector-curvature="0"
       id="path2635"
       d="m 206.31977,-431.02893 v 106.13602"
       style="fill:none;stroke:#000000;stroke-width:2.4;stroke-linecap:butt;stroke-linejoin:miter;stroke-miterlimit:4;stroke-dasharray:none;stroke-opacity:1" />
    <path
       sodipodi:nodetypes="cc"
       style="fill:none;stroke:#000000;stroke-width:2.4;stroke-linecap:butt;stroke-linejoin:miter;stroke-miterlimit:4;stroke-dasharray:none;stroke-opacity:1"
       d="m 212.8966,-431.79706 v 106.90415"
       id="path2637"
       inkscape:connector-curvature="0" />
    <path
       sodipodi:nodetypes="cc"
       inkscape:connector-curvature="0"
       id="path2639"
       d="m 219.47342,-432.82124 v 107.92833"
       style="fill:none;stroke:#000000;stroke-width:2.4;stroke-linecap:butt;stroke-linejoin:miter;stroke-miterlimit:4;stroke-dasharray:none;stroke-opacity:1" />
    <path
       sodipodi:nodetypes="cc"
       style="fill:none;stroke:#000000;stroke-width:2.4;stroke-linecap:butt;stroke-linejoin:miter;stroke-miterlimit:4;stroke-dasharray:none;stroke-opacity:1"
       d="m 226.05025,-435.63773 v 110.74482"
       id="path2641"
       inkscape:connector-curvature="0" />
    <rect
       y="-309.81906"
       x="135.55173"
       height="13.398708"
       width="131.86472"
       id="rect2643"
       style="opacity:1;fill:#000000;fill-opacity:1;stroke:none;stroke-width:2.4;stroke-linecap:round;stroke-miterlimit:4;stroke-dasharray:none;stroke-opacity:1" />
    <rect
       style="opacity:1;fill:#000000;fill-opacity:1;stroke:none;stroke-width:2.4;stroke-linecap:round;stroke-miterlimit:4;stroke-dasharray:none;stroke-opacity:1"
       id="rect2645"
       width="140.36743"
       height="14.07893"
       x="131.81053"
       y="-299.76474" />
    <path
       style="opacity:1;fill:#000000;fill-opacity:1;stroke:none;stroke-width:1.3148;stroke-linecap:round;stroke-miterlimit:4;stroke-dasharray:none;stroke-opacity:1"
       d="m 188.13624,-286.44938 c -12.75866,-1.82432 -23.8846,-6.22667 -32.74696,-12.95744 -18.59059,-14.11912 -28.11747,-36.7164 -27.24759,-64.62988 0.40236,-12.911 2.66549,-25.6915 7.20726,-40.70133 1.89437,-6.26061 4.66373,-13.82506 6.04948,-16.52404 0.63853,-1.24365 1.27731,-2.80909 1.4195,-3.47874 0.61529,-2.89759 3.01739,-6.13112 5.15268,-6.93616 3.13967,-1.1837 6.19224,0.71332 7.19201,4.46946 0.52458,1.97085 0.34599,2.86643 -1.92977,9.67736 -9.84861,29.47509 -8.90935,53.71273 2.73916,70.68434 2.30687,3.36106 7.32588,8.43176 10.67421,10.78416 13.16746,9.25089 30.86443,11.43086 47.81866,5.89048 17.50065,-5.71895 31.44337,-19.77775 37.38093,-37.69216 2.56034,-7.72488 3.50842,-14.02142 3.50842,-23.3006 0,-13.34235 -2.30177,-24.90084 -8.07207,-40.53438 -1.45238,-3.93496 -1.76393,-5.20655 -1.92175,-7.84374 l -0.18836,-3.14745 1.11722,-0.94008 c 1.44923,-1.21945 3.6593,-1.26362 6.11056,-0.12212 2.00379,0.93311 4.28027,2.22527 4.28027,3.38455 0,0.43674 0.51351,3.36192 1.4861,5.5345 6.67329,14.90697 12.05046,31.7762 14.19464,44.53142 2.40665,14.31652 2.63144,26.30414 0.71693,38.23241 -3.60532,22.46274 -15.07845,41.0591 -32.68214,52.97322 -8.94446,6.05359 -19.24483,10.17615 -30.26509,12.11313 -5.60016,0.98432 -16.91981,1.25868 -21.9943,0.53309 z"
       id="path2691"
       inkscape:connector-curvature="0"
       sodipodi:nodetypes="sssscccscscssssscssscsssss" />
    <rect
       style="fill:#ffffff;fill-opacity:1;stroke:none;stroke-width:1;stroke-linecap:round;stroke-miterlimit:4;stroke-dasharray:none;stroke-opacity:1"
       id="rect2693"
       width="76.60611"
       height="0"
       x="239.00085"
       y="-568.10919" />
  </g>
</svg>
