<?xml version="1.0" encoding="UTF-8" standalone="no"?>
<svg
   xmlns:dc="http://purl.org/dc/elements/1.1/"
   xmlns:cc="http://creativecommons.org/ns#"
   xmlns:rdf="http://www.w3.org/1999/02/22-rdf-syntax-ns#"
   xmlns:svg="http://www.w3.org/2000/svg"
   xmlns="http://www.w3.org/2000/svg"
   xmlns:sodipodi="http://sodipodi.sourceforge.net/DTD/sodipodi-0.dtd"
   xmlns:inkscape="http://www.inkscape.org/namespaces/inkscape"
   width="6.9239345mm"
   height="5.2215214mm"
   viewBox="0 0 6.9239344 5.2215214"
   version="1.1"
   id="svg8"
   sodipodi:docname="Steg_Pikto_Q+D.svg"
   inkscape:version="1.0.2 (e86c8708, 2021-01-15)">
  <defs
     id="defs2">
    <inkscape:path-effect
       is_visible="true"
       id="path-effect877"
       effect="spiro" />
    <inkscape:path-effect
       effect="spiro"
       id="path-effect873"
       is_visible="true" />
    <inkscape:path-effect
       effect="spiro"
       id="path-effect868"
       is_visible="true" />
    <inkscape:path-effect
       effect="spiro"
       id="path-effect864"
       is_visible="true" />
    <inkscape:path-effect
       effect="spiro"
       id="path-effect860"
       is_visible="true" />
    <inkscape:path-effect
       effect="spiro"
       id="path-effect856"
       is_visible="true" />
    <inkscape:path-effect
       effect="spiro"
       id="path-effect852"
       is_visible="true" />
    <inkscape:path-effect
       effect="spiro"
       id="path-effect844"
       is_visible="true" />
    <inkscape:path-effect
       effect="spiro"
       id="path-effect827"
       is_visible="true" />
    <inkscape:path-effect
       is_visible="true"
       id="path-effect823"
       effect="spiro" />
    <inkscape:path-effect
       effect="spiro"
       id="path-effect819"
       is_visible="true" />
  </defs>
  <sodipodi:namedview
     id="base"
     pagecolor="#ffffff"
     bordercolor="#666666"
     borderopacity="1.0"
     inkscape:pageopacity="0.0"
     inkscape:pageshadow="2"
     inkscape:zoom="12.183403"
     inkscape:cx="21.631033"
     inkscape:cy="-2.6365456"
     inkscape:document-units="mm"
     inkscape:current-layer="g22636"
     showgrid="false"
     showguides="false"
     gridtolerance="4"
     guidetolerance="2"
     objecttolerance="1"
     fit-margin-top="0"
     fit-margin-left="0"
     fit-margin-right="0"
     fit-margin-bottom="0"
     inkscape:window-width="1280"
     inkscape:window-height="755"
     inkscape:window-x="13"
     inkscape:window-y="27"
     inkscape:window-maximized="0"
     inkscape:document-rotation="0">
    <inkscape:grid
       type="xygrid"
       id="grid836"
       originx="-82.252898"
       originy="-152.3179" />
  </sodipodi:namedview>
  <metadata
     id="metadata5">
    <rdf:RDF>
      <cc:Work
         rdf:about="">
        <dc:format>image/svg+xml</dc:format>
        <dc:type
           rdf:resource="http://purl.org/dc/dcmitype/StillImage" />
        <dc:title></dc:title>
      </cc:Work>
    </rdf:RDF>
  </metadata>
  <g
     inkscape:label="Ebene 1"
     inkscape:groupmode="layer"
     id="layer1"
     transform="translate(-82.252901,-139.46057)">
    <g
       id="g22636">
      <path
         style="opacity:1;fill:#ffffff;fill-opacity:1;stroke:#000000;stroke-width:0.40000001;stroke-linecap:butt;stroke-linejoin:miter;stroke-miterlimit:4;stroke-dasharray:none;stroke-dashoffset:0;stroke-opacity:1"
         d="M 88.980368,140.5836 L 88.292895,144.19284 L 85.714868,144.15844"
         id="path817"
         inkscape:connector-curvature="0"
         inkscape:path-effect="#path-effect819"
         inkscape:original-d="m 88.980368,140.5836 -0.687473,3.60924 -2.578027,-0.0344" />
      <path
         inkscape:original-d="M 82.449369,140.5836 L 83.136842,144.19284 L 84.838661,144.17013 L 85.714868,144.15844"
         inkscape:path-effect="#path-effect823"
         inkscape:connector-curvature="0"
         id="path821"
         d="M 82.449369,140.5836 L 83.136842,144.19284 C 83.704115,144.18527 84.271388,144.1777 84.838661,144.17013 C 85.13073,144.16623 85.422799,144.16234 85.714868,144.15844"
         style="opacity:1;fill:#ffffff;fill-opacity:1;stroke:#000000;stroke-width:0.4;stroke-linecap:butt;stroke-linejoin:miter;stroke-miterlimit:4;stroke-dasharray:none;stroke-dashoffset:0;stroke-opacity:1"
         sodipodi:nodetypes="cccc" />
      <path
         style="opacity:1;fill:#ffffff;fill-opacity:1;stroke:#000000;stroke-width:0.4;stroke-linecap:butt;stroke-linejoin:miter;stroke-miterlimit:4;stroke-dasharray:none;stroke-dashoffset:0;stroke-opacity:1"
         d="M 82.3665,140.81563 C 84.383639,139.73657 86.697231,139.4114 89.07981,140.79906"
         id="path825"
         inkscape:connector-curvature="0"
         sodipodi:nodetypes="cc" />
      <rect
         style="opacity:1;fill:#ffffff;fill-opacity:1;stroke:none;stroke-width:0.4;stroke-linecap:butt;stroke-linejoin:miter;stroke-miterlimit:4;stroke-dasharray:none;stroke-dashoffset:0;stroke-opacity:1"
         id="rect832"
         width="1.2"
         height="1.2"
         x="82.591606"
         y="141.68356"
         ry="0.48123145" />
      <rect
         ry="0.48123145"
         y="141.66637"
         x="87.919533"
         height="0.9624629"
         width="0.9624629"
         id="rect834"
         style="opacity:1;fill:#ffffff;fill-opacity:1;stroke:none;stroke-width:0.40000001;stroke-linecap:butt;stroke-linejoin:miter;stroke-miterlimit:4;stroke-dasharray:none;stroke-dashoffset:0;stroke-opacity:1" />
      <rect
         ry="0.48123145"
         y="140.99132"
         x="84.647583"
         height="0.9624629"
         width="0.9624629"
         id="rect838"
         style="opacity:1;fill:#ffffff;fill-opacity:1;stroke:none;stroke-width:0.40000001;stroke-linecap:butt;stroke-linejoin:miter;stroke-miterlimit:4;stroke-dasharray:none;stroke-dashoffset:0;stroke-opacity:1" />
      <rect
         style="opacity:1;fill:#ffffff;fill-opacity:1;stroke:none;stroke-width:0.40000001;stroke-linecap:butt;stroke-linejoin:miter;stroke-miterlimit:4;stroke-dasharray:none;stroke-dashoffset:0;stroke-opacity:1"
         id="rect840"
         width="0.9624629"
         height="0.9624629"
         x="85.970505"
         y="140.99132"
         ry="0.48123145" />
      <path
         style="opacity:1;fill:#000000;fill-opacity:1;stroke:none;stroke-width:0.02;stroke-linecap:butt;stroke-linejoin:miter;stroke-miterlimit:4;stroke-dasharray:none;stroke-dashoffset:0;stroke-opacity:1"
         d="M 86.139215,141.95378 H 85.345465"
         id="path842"
         inkscape:connector-curvature="0"
         inkscape:path-effect="#path-effect844"
         inkscape:original-d="m 86.139215,141.95378 h -0.79375" />
      <path
         style="opacity:1;fill:#000000;fill-opacity:1;stroke:none;stroke-width:0.02;stroke-linecap:butt;stroke-linejoin:miter;stroke-miterlimit:4;stroke-dasharray:none;stroke-dashoffset:0;stroke-opacity:1"
         d="M 84.551715,142.21836 H 86.932965"
         id="path850"
         inkscape:connector-curvature="0"
         inkscape:path-effect="#path-effect852"
         inkscape:original-d="m 84.551715,142.21836 h 2.38125" />
      <path
         style="opacity:1;fill:#000000;fill-opacity:1;stroke:none;stroke-width:0.02;stroke-linecap:butt;stroke-linejoin:miter;stroke-miterlimit:4;stroke-dasharray:none;stroke-dashoffset:0;stroke-opacity:1"
         d="M 86.139215,142.21836 L 84.482162,142.23356 Z"
         id="path854"
         inkscape:connector-curvature="0"
         inkscape:path-effect="#path-effect856"
         inkscape:original-d="m 86.139215,142.21836 -1.657053,0.0152 z" />
      <path
         style="opacity:1;fill:#000000;fill-opacity:1;stroke:none;stroke-width:0.02;stroke-linecap:butt;stroke-linejoin:miter;stroke-miterlimit:4;stroke-dasharray:none;stroke-dashoffset:0;stroke-opacity:1"
         d="M 86.668382,143.01211 L 84.287132,143.2767"
         id="path858"
         inkscape:connector-curvature="0"
         inkscape:path-effect="#path-effect860"
         inkscape:original-d="m 86.668382,143.01211 -2.38125,0.26459" />
      <path
         style="opacity:1;fill:#000000;fill-opacity:1;stroke:none;stroke-width:0.02;stroke-linecap:butt;stroke-linejoin:miter;stroke-miterlimit:4;stroke-dasharray:none;stroke-dashoffset:0;stroke-opacity:1"
         d="M 84.287132,141.95378 L 86.668382,143.2767"
         id="path862"
         inkscape:connector-curvature="0"
         inkscape:path-effect="#path-effect864"
         inkscape:original-d="m 84.287132,141.95378 2.38125,1.32292" />
      <path
         style="opacity:1;fill:#000000;fill-opacity:1;stroke:#ffffff;stroke-width:0.40000001;stroke-linecap:butt;stroke-linejoin:miter;stroke-miterlimit:4;stroke-dasharray:none;stroke-dashoffset:0;stroke-opacity:1"
         d="m 85.115593,141.76481 c 0.452116,0.18943 0.895074,0.2232 1.322917,0"
         id="path866"
         inkscape:connector-curvature="0"
         sodipodi:nodetypes="cc" />
      <path
         style="opacity:1;fill:#000000;fill-opacity:1;stroke:#000000;stroke-width:0.40000001;stroke-linecap:butt;stroke-linejoin:miter;stroke-miterlimit:4;stroke-dasharray:none;stroke-dashoffset:0;stroke-opacity:1"
         d="M 84.264999,144.19597 L 84.287129,143.2767"
         id="path871"
         inkscape:connector-curvature="0"
         inkscape:path-effect="#path-effect873"
         inkscape:original-d="m 84.264999,144.19597 0.02213,-0.91927" />
      <path
         inkscape:original-d="m 87.230314,144.19597 0.02213,-0.91927"
         inkscape:path-effect="#path-effect877"
         inkscape:connector-curvature="0"
         id="path875"
         d="M 87.230314,144.19597 L 87.252444,143.2767"
         style="opacity:1;fill:#000000;fill-opacity:1;stroke:#000000;stroke-width:0.40000001;stroke-linecap:butt;stroke-linejoin:miter;stroke-miterlimit:4;stroke-dasharray:none;stroke-dashoffset:0;stroke-opacity:1" />
      <rect
         style="opacity:1;fill:#ffffff;fill-opacity:1;stroke:none;stroke-width:0.424535;stroke-linecap:butt;stroke-linejoin:miter;stroke-miterlimit:4;stroke-dasharray:none;stroke-dashoffset:0;stroke-opacity:1"
         id="rect882"
         width="2.6968729"
         height="0.90705603"
         x="84.407509"
         y="143.75847"
         ry="0.45352802" />
      <path
         sodipodi:nodetypes="cc"
         inkscape:connector-curvature="0"
         id="path884"
         d="m 84.214214,143.44684 c 1.358943,-0.4405 1.777656,-0.47048 3.060573,0.0233"
         style="opacity:1;fill:none;fill-opacity:1;stroke:#000000;stroke-width:0.40000001;stroke-linecap:butt;stroke-linejoin:miter;stroke-miterlimit:4;stroke-dasharray:none;stroke-dashoffset:0;stroke-opacity:1" />
      <path
         style="fill:#000000;fill-rule:evenodd;stroke:#ffffff;stroke-width:0.0179237;stroke-linejoin:round;stop-color:#000000"
         d="M 82.437535,138.468 C 82.437535,138.45429 82.206021,137.03425 82.194833,136.97934 C 82.187552,136.94361 82.195909,136.93718 82.263823,136.92634 C 82.436957,136.89867 82.559221,136.7979 82.635458,136.62002 C 82.756476,136.33769 82.664925,135.99514 82.431533,135.85702 C 82.332865,135.79864 82.156337,135.77554 82.071667,135.80996 C 82.042049,135.82199 82.015215,135.82881 82.012035,135.8251 C 82.008856,135.82139 81.970433,135.60002 81.926652,135.33317 L 81.847051,134.84798 L 82.071855,134.7285 C 82.850137,134.31489 83.566439,134.07584 84.335228,133.97311 C 84.577304,133.94076 85.330096,133.94061 85.553398,133.97286 C 86.31248,134.08248 86.920809,134.28919 87.59317,134.66597 L 87.851264,134.81059 L 87.771478,135.29697 C 87.727596,135.56449 87.691629,135.78336 87.691551,135.78336 C 87.392358,135.78336 87.383647,135.78435 87.316571,135.82606 C 87.211836,135.89116 87.155638,135.9543 87.104032,136.06485 C 87.042578,136.19648 87.028443,136.38177 87.068996,136.52412 C 87.121441,136.70821 87.280572,136.86697 87.448333,136.90259 C 87.48676,136.91075 87.509122,136.92516 87.504917,136.93906 C 87.501093,136.9517 87.44272,137.30349 87.375198,137.72083 L 87.252432,138.47962 L 86.920844,138.4744 L 86.589257,138.46919 L 86.589681,138.05859 L 86.54556,137.89298 H 86.484977 C 86.451656,137.89298 86.313488,137.84617 86.177938,137.78895 C 85.653869,137.56772 85.349297,137.48944 84.953632,137.47433 C 84.643955,137.46251 84.448979,137.48549 84.112536,137.5735 C 83.902182,137.62852 83.338047,137.82252 83.264708,137.86507 C 83.238239,137.88042 83.207556,137.89298 83.196522,137.89298 C 83.167019,137.89298 83.199927,137.78744 83.199927,138.14099 V 138.4547 L 83.148134,138.46678 C 83.083792,138.48177 82.437535,138.48289 82.437535,138.468 Z M 85.221923,136.13477 C 85.29029,136.12047 85.431996,136.07255 85.536825,136.0283 C 85.888008,135.88001 85.949198,135.92144 86.030426,135.71542 C 86.065607,135.6262 86.070221,135.74403 86.063868,135.61609 C 86.050962,135.35618 85.92686,135.16878 85.721555,135.0992 C 85.356666,134.97553 85.014296,135.20976 85.111956,135.63534 C 85.125366,135.69378 85.133809,135.74454 85.130719,135.74815 C 85.115912,135.7654 84.91513,135.77408 84.816199,135.76172 C 84.711923,135.74871 84.705764,135.74526 84.716631,135.7061 C 84.739954,135.62205 84.744841,135.55297 84.725177,135.47109 C 84.69379,135.34039 84.597531,135.20805 84.485091,135.14101 C 84.40175,135.09132 84.368745,135.08269 84.261819,135.08269 C 84.157827,135.08269 84.1201,135.092 84.041471,135.13701 C 83.867754,135.23647 83.772958,135.42534 83.775991,135.66595 C 83.77864,135.87612 83.88387,135.82496 84.039951,135.90587 C 84.478851,136.13342 84.868091,136.2088 85.221923,136.13477 Z"
         id="path22658"
         sodipodi:nodetypes="sccccccccccccccsccsssscccccsccccssccscccscsccccsscscc" />
    </g>
  </g>
</svg>
