<?xml version="1.0" encoding="UTF-8" standalone="no"?>
<svg
   xmlns:dc="http://purl.org/dc/elements/1.1/"
   xmlns:cc="http://creativecommons.org/ns#"
   xmlns:rdf="http://www.w3.org/1999/02/22-rdf-syntax-ns#"
   xmlns:svg="http://www.w3.org/2000/svg"
   xmlns="http://www.w3.org/2000/svg"
   xmlns:sodipodi="http://sodipodi.sourceforge.net/DTD/sodipodi-0.dtd"
   xmlns:inkscape="http://www.inkscape.org/namespaces/inkscape"
   sodipodi:docname="Violine_Pikto.svg"
   inkscape:version="1.0rc1 (09960d6, 2020-04-09)"
   id="svg11224"
   version="1.1"
   viewBox="0 0 109.30386 310.34393"
   height="310.34393mm"
   width="109.30386mm">
  <defs
     id="defs11218" />
  <sodipodi:namedview
     fit-margin-bottom="0"
     fit-margin-right="0"
     fit-margin-left="0"
     fit-margin-top="0"
     inkscape:window-maximized="0"
     inkscape:window-y="23"
     inkscape:window-x="0"
     inkscape:window-height="755"
     inkscape:window-width="1248"
     guidetolerance="1"
     objecttolerance="1"
     showgrid="false"
     inkscape:document-rotation="0"
     inkscape:current-layer="layer1"
     inkscape:document-units="mm"
     inkscape:cy="1998.6039"
     inkscape:cx="-2005.812"
     inkscape:zoom="0.061758073"
     inkscape:pageshadow="2"
     inkscape:pageopacity="0.0"
     borderopacity="1.0"
     bordercolor="#666666"
     pagecolor="#ffffff"
     id="base" />
  <metadata
     id="metadata11221">
    <rdf:RDF>
      <cc:Work
         rdf:about="">
        <dc:format>image/svg+xml</dc:format>
        <dc:type
           rdf:resource="http://purl.org/dc/dcmitype/StillImage" />
        <dc:title></dc:title>
      </cc:Work>
    </rdf:RDF>
  </metadata>
  <g
     transform="translate(-350.05445,-7.4705786)"
     id="layer1"
     inkscape:groupmode="layer"
     inkscape:label="Ebene 1">
    <g
       id="g11969">
      <path
         style="fill:#000000;fill-opacity:1;stroke:#000000;stroke-width:0.264583px;stroke-linecap:butt;stroke-linejoin:miter;stroke-opacity:1"
         d="m 400.2719,59.791039 0.61839,57.280361 11.5179,-0.82271 -4.11353,-56.149707 z"
         id="path11901"
         inkscape:connector-curvature="0"
         sodipodi:nodetypes="ccccc" />
      <path
         sodipodi:nodetypes="ccccscccscccccccc"
         inkscape:connector-curvature="0"
         id="path11803"
         d="m 395.55,123.04913 c -30.95467,5.40123 -41.45257,21.52559 -29.84481,55.11016 0.71824,4.40982 -1.26396,6.88331 -3.09957,9.25003 l 4.28522,1.85456 c 12.25265,-8.60721 11.4107,16.91871 6.71422,32.78917 -2.15433,7.27995 -9.53424,12.70688 -16.34071,10.32641 l -0.70668,2.13438 c 1.13347,1.1616 1.15088,2.64276 2.11544,5.6624 -33.50202,74.32885 45.08458,76.15905 78.09172,49.10513 15.67241,-12.84571 16.76939,-36.89745 6.00902,-57.56623 0.11755,-2.7846 1.23016,-4.17613 2.2638,-5.67822 l -0.95538,-2.29286 c -18.28059,11.0393 -22.98417,-45.32519 -6.28419,-37.36743 l 1.12524,-1.03804 c -1.71475,-1.77435 -3.40791,-6.42575 -2.62849,-9.38323 8.47051,-25.86578 0.81067,-42.86669 -23.93051,-51.37765 z"
         style="opacity:1;fill:#ffffff;fill-opacity:1;stroke:#000000;stroke-width:0.95;stroke-linecap:butt;stroke-linejoin:miter;stroke-miterlimit:4;stroke-dasharray:none;stroke-opacity:1" />
      <path
         style="opacity:1;fill:#000000;fill-opacity:1;stroke:#ffffff;stroke-width:1;stroke-linecap:butt;stroke-linejoin:miter;stroke-miterlimit:4;stroke-dasharray:none;stroke-opacity:1"
         d="m 401.68941,121.37895 c -32.58386,5.68551 -43.63429,22.65852 -31.41559,58.0107 0.75604,4.64191 -1.24626,7.07715 -3.17849,9.56844 l 1.4079,3.21805 c 14.21817,-8.81838 15.0299,16.71172 10.08624,33.41746 -2.26771,7.66311 -10.03604,12.382 -17.20075,9.87625 l -1.93627,3.77033 c 1.19313,1.22274 2.40385,2.2519 3.41918,5.43047 -35.26528,78.24089 47.45745,80.16742 82.20181,51.68961 16.49727,-13.5218 17.65199,-38.83942 6.32528,-60.59603 0.12374,-2.93116 1.29491,-4.39593 2.38295,-5.97708 l -1.00566,-2.41354 c -19.24273,11.62032 -24.19386,-47.71072 -6.61494,-39.33413 l 1.18447,-1.09268 c -1.80501,-1.86773 -3.58728,-6.76394 -2.76684,-9.87708 8.91633,-27.22714 0.85334,-45.12283 -25.19001,-54.08174 z"
         id="path11801"
         inkscape:connector-curvature="0"
         sodipodi:nodetypes="ccccscccscccccccc" />
      <path
         style="opacity:1;fill:#00000f;fill-opacity:1;stroke:#000000;stroke-width:1;stroke-linecap:butt;stroke-linejoin:miter;stroke-miterlimit:4;stroke-dasharray:none;stroke-opacity:1"
         d="m 363.21716,187.732 4.05557,1.5567 1.59119,1.52944 -3.86157,-1.88163 z"
         id="path11805"
         inkscape:connector-curvature="0"
         sodipodi:nodetypes="ccccc" />
      <path
         style="opacity:1;fill:#00000f;fill-opacity:1;stroke:#000000;stroke-width:0.264583px;stroke-linecap:butt;stroke-linejoin:miter;stroke-opacity:1"
         d="m 357.11584,232.24656 4.60062,4.09119 -1.56716,2.55922 -3.8534,-4.39988 z"
         id="path11807"
         inkscape:connector-curvature="0"
         sodipodi:nodetypes="ccccc" />
      <ellipse
         style="opacity:0.381503;fill:#ffffff;fill-opacity:1;stroke:none;stroke-width:1.18597;stroke-linecap:round;stroke-miterlimit:4;stroke-dasharray:none;stroke-opacity:1"
         id="path11815"
         cx="399.60098"
         cy="210.9225"
         rx="1.8675468"
         ry="1.933427" />
      <path
         style="fill:#ffffff;fill-opacity:1;stroke:#000000;stroke-width:0.264583px;stroke-linecap:butt;stroke-linejoin:miter;stroke-opacity:1"
         d="m 399.22418,209.23111 c -3.38328,2.23047 0.24572,5.13855 2.16513,3.08367 0.78733,-2.30458 1.79988,-6.5057 -5.24881,-6.10174 -8.54008,0.27439 -6.32885,12.38354 -7.8076,18.37082 l -0.85293,0.98415 1.11538,0.85294 c -0.33689,5.96432 2.46645,13.1386 -3.67595,18.93023 -0.94647,0.55024 -4.56979,-0.97667 -3.60677,-1.93723 3.872,-5.20527 -2.79968,-7.96582 -4.59271,-4.13343 -0.87114,9.01348 10.31217,10.8438 14.76227,0.19831 1.0586,-2.78848 1.1037,-7.77263 1.18098,-11.94251 l 0.85293,-0.91854 -0.91854,-0.85294 c -2.0493,-9.89489 0.38319,-21.28564 6.83265,-17.85972 0.47002,0.24967 0.43462,1.31306 -0.20603,1.32599 z"
         id="path11817"
         inkscape:connector-curvature="0"
         sodipodi:nodetypes="cccccccccccccsc" />
      <ellipse
         style="opacity:1;fill:#ffffff;fill-opacity:1;stroke:none;stroke-width:1.04881;stroke-linecap:round;stroke-miterlimit:4;stroke-dasharray:none;stroke-opacity:1"
         id="path11825"
         cx="423.16187"
         cy="208.94975"
         rx="1.6517072"
         ry="2.0187533" />
      <ellipse
         style="opacity:1;fill:#ffffff;fill-opacity:1;stroke:none;stroke-width:1.13228;stroke-linecap:round;stroke-miterlimit:4;stroke-dasharray:none;stroke-opacity:1"
         id="path11827"
         cx="439.00604"
         cy="234.09241"
         rx="2.324625"
         ry="3.058717" />
      <path
         style="fill:#ffffff;fill-opacity:1;stroke:#ffffff;stroke-width:0.264583px;stroke-linecap:butt;stroke-linejoin:miter;stroke-opacity:1"
         d="m 421.8082,208.52364 1.62645,-0.0886 c 0.33718,-1.14619 0.74602,-2.28214 1.95757,-3.30342 3.58379,2.00687 3.4632,9.77649 3.77008,17.6818 0.01,0.25322 -0.44949,0.54159 -0.43629,0.79514 0.0108,0.20751 0.49359,0.38018 0.50649,0.58766 0.22855,3.66882 0.77842,7.31414 1.29831,10.29909 5.27393,12.33481 11.79266,1.85348 10.7644,-0.84786 l -2.51518,1.77722 c -0.82118,1.20577 -1.34171,4.73063 -2.09846,4.14266 -5.35072,-2.72373 -3.86095,-10.82102 -4.92727,-17.18454 l 0.45731,-1.20301 -0.57929,-0.16669 c -0.34463,-5.14674 -0.76043,-10.20556 -2.31923,-13.85245 -3.34043,-4.95715 -6.58667,-2.32712 -7.50489,1.36299 z"
         id="path11829"
         inkscape:connector-curvature="0"
         sodipodi:nodetypes="cccsssccccccccc" />
      <path
         style="fill:#000000;fill-opacity:1;stroke:#ffffff;stroke-width:1;stroke-linecap:butt;stroke-linejoin:round;stroke-miterlimit:4;stroke-dasharray:none;stroke-opacity:1"
         d="m 401.05961,50.54984 12.02509,2.275017 13.32511,144.626073 -21.45017,0.65001 z"
         id="path11831"
         inkscape:connector-curvature="0" />
      <path
         style="fill:#00000f;fill-opacity:1;stroke:#ffffff;stroke-width:1;stroke-linecap:butt;stroke-linejoin:miter;stroke-miterlimit:4;stroke-dasharray:none;stroke-opacity:1"
         d="m 406.12996,28.704532 c 2.8666,-10.688745 1.62495,-16.33554 -1.69022,-19.4375595 -0.55741,0.5848051 -1.31206,-0.1125018 -2.00714,-0.4225557 l -0.73947,19.0150042 c 1.9904,1.475095 3.28248,1.320795 4.43683,0.845111 z"
         id="path11839"
         inkscape:connector-curvature="0"
         sodipodi:nodetypes="ccccc" />
      <path
         style="fill:#00000f;fill-opacity:1;stroke:#ffffff;stroke-width:1;stroke-linecap:butt;stroke-linejoin:bevel;stroke-miterlimit:4;stroke-dasharray:none;stroke-opacity:1"
         d="m 399.26343,7.8936668 c 1.07321,0.6758836 2.24451,1.596975 2.74662,0.8451112 2.63217,2.635772 3.33359,7.992137 -0.21128,19.331921 -2.35927,0.883273 -4.71854,-0.106874 -7.07781,-0.845112 7.42973,-11.007413 6.87774,-15.857505 4.54247,-19.3319202 z"
         id="path11837"
         inkscape:connector-curvature="0"
         sodipodi:nodetypes="ccccc" />
      <rect
         style="opacity:1;fill:#000000;fill-opacity:1;stroke:none;stroke-width:0.799999;stroke-linecap:round;stroke-linejoin:round;stroke-miterlimit:4;stroke-dasharray:none;stroke-opacity:1"
         id="rect11863"
         width="4.5081162"
         height="4.9589281"
         x="410.16541"
         y="43.544392"
         ry="0.095895894" />
      <rect
         ry="0.095895894"
         y="34.878792"
         x="405.75748"
         height="4.9589281"
         width="4.5081162"
         id="rect11865"
         style="opacity:1;fill:#000000;fill-opacity:1;stroke:none;stroke-width:0.799999;stroke-linecap:round;stroke-linejoin:round;stroke-miterlimit:4;stroke-dasharray:none;stroke-opacity:1" />
      <path
         style="fill:#000000;fill-opacity:1;stroke:#000000;stroke-width:0.264583px;stroke-linecap:butt;stroke-linejoin:miter;stroke-opacity:1"
         d="m 410.20487,34.996809 0.92012,-1.564222 c 4.93369,1.128754 9.06255,2.636251 7.82111,6.67095 l -1.05815,2.346333 c -3.45987,-0.41702 -8.7706,3.422961 -7.68308,-7.453061 z"
         id="path11877"
         inkscape:connector-curvature="0"
         sodipodi:nodetypes="ccccc" />
      <path
         style="fill:#00000f;fill-opacity:1;stroke:#ffffff;stroke-width:2.8;stroke-linecap:butt;stroke-linejoin:miter;stroke-miterlimit:4;stroke-dasharray:none;stroke-opacity:1"
         d="m 396.76257,29.0415 5.04755,0.572599 c 5.27341,4.746415 9.55188,14.385108 9.84758,22.216082 l -9.68303,-1.721471 c -0.89194,-5.865917 -1.61541,-13.897541 -5.2121,-21.06721 z"
         id="path11841"
         inkscape:connector-curvature="0"
         sodipodi:nodetypes="ccccc" />
      <path
         style="opacity:1;fill:#00000f;fill-opacity:1;stroke:#000000;stroke-width:0.264583px;stroke-linecap:butt;stroke-linejoin:bevel;stroke-opacity:1"
         d="m 398.67542,8.1129079 c -9.41767,12.5029731 -5.94949,14.9062311 -4.32314,18.7530881 4.44247,-7.029175 8.15651,-13.869499 4.32314,-18.7530881 z"
         id="path11843"
         inkscape:connector-curvature="0"
         sodipodi:nodetypes="ccc" />
      <path
         style="fill:#ffffff;fill-opacity:1;stroke:#ffffff;stroke-width:0.264583px;stroke-linecap:butt;stroke-linejoin:miter;stroke-opacity:1"
         d="m 396.22174,12.552891 2.33684,0.292105 c 0.62188,2.938387 -0.11739,6.144656 -3.21315,9.8147 L 392.01545,21.5497 c 2.03467,-2.590254 4.63027,-4.381786 4.20629,-8.996809 z"
         id="path11845"
         inkscape:connector-curvature="0"
         sodipodi:nodetypes="ccccc" />
      <path
         style="opacity:1;fill:#000000;fill-opacity:1;stroke:#000000;stroke-width:0.264583px;stroke-linecap:butt;stroke-linejoin:bevel;stroke-opacity:1"
         d="m 395.98806,12.377629 c 0.50995,3.758706 -1.57704,6.608485 -4.14788,9.288913 -0.28949,-2.64612 0.41159,-5.558931 4.14788,-9.288913 z"
         id="path11849"
         inkscape:connector-curvature="0"
         sodipodi:nodetypes="ccc" />
      <path
         style="fill:#ffffff;fill-opacity:1;stroke:#ffffff;stroke-width:0.264583px;stroke-linecap:butt;stroke-linejoin:miter;stroke-opacity:1"
         d="m 392.30755,15.006566 -0.87632,6.543134 c 1.76254,-1.973015 3.47821,-3.950291 3.56367,-6.075767 z"
         id="path11851"
         inkscape:connector-curvature="0"
         sodipodi:nodetypes="cccc" />
      <path
         style="fill:#000000;fill-opacity:1;stroke:#000000;stroke-width:0.265;stroke-linecap:butt;stroke-linejoin:bevel;stroke-miterlimit:4;stroke-dasharray:none;stroke-opacity:1"
         d="m 392.17152,14.879254 c 0.23321,2.039802 0.34324,4.641417 -0.64572,6.528448 -0.33262,-2.162093 0.0471,-4.676774 0.64572,-6.528448 z"
         id="path11847"
         inkscape:connector-curvature="0"
         sodipodi:nodetypes="ccc" />
      <path
         style="fill:#00000f;fill-opacity:1;stroke:#000000;stroke-width:0.264583px;stroke-linecap:butt;stroke-linejoin:miter;stroke-opacity:1"
         d="m 407.86921,14.742661 c 0.41263,3.225524 0.81876,6.451454 -0.24868,9.769483 l 2.30915,0.39078 c 0.71674,-3.08599 -0.12657,-6.506278 -2.06047,-10.160263 z"
         id="path11853"
         inkscape:connector-curvature="0"
         sodipodi:nodetypes="cccc" />
      <path
         style="fill:#ffffff;fill-opacity:1;stroke:#000000;stroke-width:0.8;stroke-linecap:butt;stroke-linejoin:round;stroke-miterlimit:4;stroke-dasharray:none;stroke-opacity:1"
         d="m 409.53891,18.153099 0.56841,0.07105 c 1.10662,0.665086 1.02797,2.445721 0.53287,4.618302 l -0.39076,0.03552 z"
         id="path11855"
         inkscape:connector-curvature="0"
         sodipodi:nodetypes="ccccc" />
      <path
         style="fill:#000000;fill-opacity:1;stroke:#000000;stroke-width:0.264583px;stroke-linecap:butt;stroke-linejoin:miter;stroke-opacity:1"
         d="m 392.69053,23.450402 c -0.53084,3.984208 -1.65092,9.452256 -0.48956,13.830244 3.46453,7.76017 3.44038,12.752874 4.03891,20.194601 1.63189,5.232491 3.26377,5.247927 4.89566,6.119577 -0.0161,-14.420494 -2.39435,-29.085287 -8.44501,-40.144422 z"
         id="path11857"
         inkscape:connector-curvature="0"
         sodipodi:nodetypes="ccccc" />
      <rect
         style="opacity:1;fill:#000000;fill-opacity:1;stroke:none;stroke-width:0.799999;stroke-linecap:round;stroke-linejoin:round;stroke-miterlimit:4;stroke-dasharray:none;stroke-opacity:1"
         id="rect11859"
         width="4.5081162"
         height="4.9589281"
         x="391.43167"
         y="46.299351"
         ry="0.095895894" />
      <rect
         ry="0.095895894"
         y="34.828701"
         x="388.52646"
         height="4.9589281"
         width="4.5081162"
         id="rect11861"
         style="opacity:1;fill:#000000;fill-opacity:1;stroke:none;stroke-width:0.799999;stroke-linecap:round;stroke-linejoin:round;stroke-miterlimit:4;stroke-dasharray:none;stroke-opacity:1" />
      <path
         style="fill:#000000;fill-opacity:1;stroke:#000000;stroke-width:0.265;stroke-linecap:butt;stroke-linejoin:bevel;stroke-miterlimit:4;stroke-dasharray:none;stroke-opacity:1"
         d="m 381.67858,45.031582 8.10958,-0.143468 c 0.70891,0.128138 1.2812,0.546615 1.64353,1.411237 l 0.0251,4.782407 c -0.42583,0.330301 -0.6961,0.990529 -0.77661,1.664155 -3.27475,-2.435888 -6.90836,-1.049381 -9.75165,-4.103985 l 0.11005,-2.551703 c 0.0937,-0.621991 0.37985,-0.811047 0.63996,-1.058643 z"
         id="path11867"
         inkscape:connector-curvature="0"
         sodipodi:nodetypes="cccccccc" />
      <g
         id="g11875"
         style="fill:#000000;fill-opacity:1"
         transform="translate(142.03267,4.7244993)">
        <path
           sodipodi:nodetypes="ccsscc"
           inkscape:connector-curvature="0"
           id="path11869"
           d="m 246.50662,34.586521 0.31066,-4.711637 c -0.71759,-0.310809 -0.23554,-1.394061 -0.73095,-1.852938 -3.7997,-3.519553 -12.907,-0.788264 -5.82107,5.318562 0.83792,0.722134 1.63137,1.133328 3.18656,1.453118 z"
           style="fill:#000000;fill-opacity:1;stroke:#000000;stroke-width:0.264583px;stroke-linecap:butt;stroke-linejoin:miter;stroke-opacity:1" />
        <path
           sodipodi:nodetypes="cccc"
           inkscape:connector-curvature="0"
           id="path11871"
           d="m 237.93816,27.856584 c -3.67906,7.215008 5.51529,10.131695 7.05477,9.759564 l 1.64519,-2.509602 z"
           style="fill:#000000;fill-opacity:1;stroke:#000000;stroke-width:0.264583px;stroke-linecap:butt;stroke-linejoin:miter;stroke-opacity:1" />
      </g>
      <path
         style="fill:#000000;fill-opacity:1;stroke:#000000;stroke-width:0.264583px;stroke-linecap:butt;stroke-linejoin:miter;stroke-opacity:1"
         d="m 417.09071,40.948658 c 7.82647,0.137641 9.19271,7.83618 3.561,11.419819 -5.14776,0.795075 -6.11077,-0.452112 -6.4384,-2.446667 -0.59375,-3.614691 0.79442,-9.045636 2.8774,-8.973152 z"
         id="path11879"
         inkscape:connector-curvature="0"
         sodipodi:nodetypes="ccsc" />
      <path
         style="fill:#000000;fill-opacity:1;stroke:#000000;stroke-width:0.264583px;stroke-linecap:butt;stroke-linejoin:miter;stroke-opacity:1"
         d="m 397.63143,121.50669 1.39551,-2.64413 c 2.68852,-1.8362 2.20612,-3.67239 3.15826,-5.50859 l 0.22035,7.71203 c -1.65363,-0.6377 -4.69047,0.55788 -4.77412,0.44069 z"
         id="path11899"
         inkscape:connector-curvature="0"
         sodipodi:nodetypes="ccccc" />
      <path
         style="fill:#000000;fill-opacity:1;stroke:#ffffff;stroke-width:1.5;stroke-linecap:butt;stroke-linejoin:miter;stroke-miterlimit:4;stroke-dasharray:none;stroke-opacity:1"
         d="m 405.19355,254.3286 c 6.89342,1.5584 13.41377,0.50529 19.67061,-2.39237 -0.54816,10.46028 -4.86257,18.73109 -8.24039,31.89828 -1.98033,10.00736 -0.96508,14.94479 1.26808,21.8999 0.44783,5.27197 -6.7574,6.54473 -7.26385,1.26807 0.47206,-9.05328 4.22683,-8.03206 0.63868,-23.0656 -4.16223,-9.7467 -7.54138,-19.86158 -6.07313,-29.60828 z"
         id="path11905"
         inkscape:connector-curvature="0"
         sodipodi:nodetypes="ccccccc" />
      <path
         style="fill:#ffffff;fill-opacity:1;stroke:#ffffff;stroke-width:0.264583px;stroke-linecap:butt;stroke-linejoin:miter;stroke-opacity:1"
         d="m 402.11394,224.82944 20.85038,-1.88124 7.83851,3.76248 c -7.66975,3.35493 -17.32777,2.22735 -26.18057,2.82185 l -2.82186,-1.88124 z"
         id="path11907"
         inkscape:connector-curvature="0"
         sodipodi:nodetypes="cccccc" />
      <path
         style="fill:none;fill-opacity:1;stroke:#ffffff;stroke-width:1;stroke-linecap:butt;stroke-linejoin:miter;stroke-miterlimit:4;stroke-dasharray:none;stroke-opacity:1"
         d="m 403.33524,50.836714 7.173,178.642146 -1.70786,29.03362"
         id="path11909"
         inkscape:connector-curvature="0" />
      <path
         style="fill:none;stroke:#ffffff;stroke-width:1;stroke-linecap:butt;stroke-linejoin:miter;stroke-miterlimit:4;stroke-dasharray:none;stroke-opacity:1"
         d="M 414.26554,258.1709 417.33968,228.45414 405.72624,50.495144"
         id="path11911"
         inkscape:connector-curvature="0"
         sodipodi:nodetypes="ccc" />
      <path
         style="fill:none;stroke:#ffffff;stroke-width:1;stroke-linecap:butt;stroke-linejoin:miter;stroke-miterlimit:4;stroke-dasharray:none;stroke-opacity:1"
         d="m 419.38911,257.82933 4.44045,-29.37519 -15.7123,-176.251136"
         id="path11913"
         inkscape:connector-curvature="0" />
      <path
         style="fill:none;stroke:#ffffff;stroke-width:1;stroke-linecap:butt;stroke-linejoin:miter;stroke-miterlimit:4;stroke-dasharray:none;stroke-opacity:1"
         d="M 422.1217,257.48776 427.58686,227.42943 410.84982,52.886147"
         id="path11915"
         inkscape:connector-curvature="0" />
      <path
         style="fill:#ffffff;fill-opacity:1;stroke:#000000;stroke-width:2;stroke-linecap:butt;stroke-linejoin:miter;stroke-miterlimit:4;stroke-dasharray:none;stroke-opacity:1"
         d="m 361.56304,297.84743 c 36.35166,-32.80988 54.64473,-5.38861 50.07145,12.8297 -0.0999,1.37186 0.21106,3.17841 -0.84658,3.65303 -15.25971,6.84797 -46.36409,-1.17517 -49.22487,-16.48273 z"
         id="path11903"
         inkscape:connector-curvature="0"
         sodipodi:nodetypes="ccsc" />
      <circle
         style="opacity:1;fill:#ffffff;fill-opacity:1;stroke:#ffffff;stroke-width:1.5;stroke-linecap:round;stroke-linejoin:bevel;stroke-miterlimit:4;stroke-dasharray:none;stroke-opacity:1"
         id="path11917"
         cx="408.87674"
         cy="258.71536"
         r="1.2573806" />
      <circle
         r="1.1698699"
         cy="259.2742"
         cx="414.46509"
         id="circle11919"
         style="opacity:1;fill:#ffffff;fill-opacity:1;stroke:#ffffff;stroke-width:1.3956;stroke-linecap:round;stroke-linejoin:bevel;stroke-miterlimit:4;stroke-dasharray:none;stroke-opacity:1" />
      <circle
         style="opacity:1;fill:#ffffff;fill-opacity:1;stroke:#ffffff;stroke-width:1.34341;stroke-linecap:round;stroke-linejoin:bevel;stroke-miterlimit:4;stroke-dasharray:none;stroke-opacity:1"
         id="circle11921"
         cx="419.28503"
         cy="259.06464"
         r="1.1261145" />
      <circle
         r="0.99484843"
         cy="257.31827"
         cx="422.56821"
         id="circle11923"
         style="opacity:1;fill:#ffffff;fill-opacity:1;stroke:#ffffff;stroke-width:1.18681;stroke-linecap:round;stroke-linejoin:bevel;stroke-miterlimit:4;stroke-dasharray:none;stroke-opacity:1" />
    </g>
  </g>
</svg>
