<?xml version="1.0" encoding="UTF-8" standalone="no"?>
<svg
   xmlns:dc="http://purl.org/dc/elements/1.1/"
   xmlns:cc="http://creativecommons.org/ns#"
   xmlns:rdf="http://www.w3.org/1999/02/22-rdf-syntax-ns#"
   xmlns:svg="http://www.w3.org/2000/svg"
   xmlns="http://www.w3.org/2000/svg"
   xmlns:sodipodi="http://sodipodi.sourceforge.net/DTD/sodipodi-0.dtd"
   xmlns:inkscape="http://www.inkscape.org/namespaces/inkscape"
   sodipodi:docname="Bünde.svg"
   inkscape:version="1.0rc1 (09960d6, 2020-04-09)"
   id="svg8"
   version="1.1"
   viewBox="0 0 6.4837183 17.575787"
   height="17.575787mm"
   width="6.4837184mm">
  <defs
     id="defs2" />
  <sodipodi:namedview
     fit-margin-bottom="0"
     fit-margin-right="0"
     fit-margin-left="0"
     fit-margin-top="0"
     inkscape:pagecheckerboard="true"
     inkscape:window-maximized="0"
     inkscape:window-y="23"
     inkscape:window-x="0"
     inkscape:window-height="755"
     inkscape:window-width="1248"
     guidetolerance="1"
     objecttolerance="1"
     showgrid="false"
     inkscape:document-rotation="0"
     inkscape:current-layer="g3262"
     inkscape:document-units="mm"
     inkscape:cy="54.611159"
     inkscape:cx="-3.7087382"
     inkscape:zoom="9.9377351"
     inkscape:pageshadow="2"
     inkscape:pageopacity="0"
     borderopacity="1.0"
     bordercolor="#666666"
     pagecolor="#7d7a7a"
     id="base" />
  <metadata
     id="metadata5">
    <rdf:RDF>
      <cc:Work
         rdf:about="">
        <dc:format>image/svg+xml</dc:format>
        <dc:type
           rdf:resource="http://purl.org/dc/dcmitype/StillImage" />
        <dc:title></dc:title>
      </cc:Work>
    </rdf:RDF>
  </metadata>
  <g
     transform="translate(-102.58482,-123.80942)"
     id="layer1"
     inkscape:groupmode="layer"
     inkscape:label="Ebene 1">
    <g
       id="g3375">
      <g
         id="g3318">
        <g
           id="g3262">
          <g
             id="g3207">
            <path
               style="fill:#ffffff;fill-opacity:0.992157;stroke:#000000;stroke-width:0.18;stroke-linecap:butt;stroke-linejoin:miter;stroke-miterlimit:4;stroke-dasharray:none;stroke-opacity:1"
               d="m 107.36752,147.08083 c 0.33518,0.30905 0.55124,0.63808 0.95397,0.92878 3.63911,2.66683 6.75563,3.75506 5.70847,8.96955 -3.09724,0.18266 -1.50947,6.51879 0.90804,6.44552 3.45774,15.65176 -22.132827,18.2976 -15.065226,-1.09294 3.151436,0.38884 3.397116,-6.36453 1.047246,-6.36104 -0.0284,-2.46716 -0.13798,-4.95031 2.44358,-6.90404 2.9244,-1.66009 1.81238,-2.02119 1.97747,-2.94314 0.7681,0.71847 1.41074,0.74677 2.02645,0.95731 z"
               id="path849"
               inkscape:connector-curvature="0"
               sodipodi:nodetypes="ccccccccc" />
          </g>
          <path
             style="opacity:1;fill:#000000;fill-opacity:0.992157;stroke:#ffffff;stroke-width:0.05;stroke-linecap:butt;stroke-linejoin:miter;stroke-miterlimit:4;stroke-dasharray:none;stroke-opacity:1"
             d="m 105.42736,145.89359 c -0.0555,0.79221 0.35385,1.52233 0.80965,2.27193 3.41861,2.93143 5.81793,4.32706 4.77077,9.54155 -2.98741,0.32662 -2.03479,6.75552 0.77574,6.71012 4.58307,16.38904 -19.448634,15.64811 -14.932916,-1.35754 3.151426,0.38884 3.397106,-6.36453 1.047244,-6.36104 -0.02837,-2.46716 -0.137979,-4.95031 2.443572,-6.90404 2.9244,-1.66009 3.44208,-2.95673 3.60717,-3.87868 z"
             id="path847"
             inkscape:connector-curvature="0"
             sodipodi:nodetypes="ccccccccc" />
          <g
             id="g878">
            <path
               sodipodi:nodetypes="ccc"
               inkscape:connector-curvature="0"
               id="path851"
               d="m 100.06189,158.79242 c -0.0341,0.65322 0.50188,0.55423 0.46664,0.12 -0.10854,-0.27503 -0.26603,-0.30532 -0.46664,-0.12 z"
               style="fill:#ffffff;fill-opacity:1;stroke:none;stroke-width:0.265;stroke-linecap:butt;stroke-linejoin:round;stroke-miterlimit:4;stroke-dasharray:none;stroke-opacity:1" />
            <path
               sodipodi:nodetypes="ccc"
               inkscape:connector-curvature="0"
               id="path853"
               d="m 98.897534,163.24321 c -0.06447,0.47975 0.116983,0.56134 0.469839,0.36542 0.245832,-0.38847 -0.08058,-0.80326 -0.469839,-0.36542 z"
               style="fill:#ffffff;fill-opacity:1;stroke:none;stroke-width:0.264583px;stroke-linecap:butt;stroke-linejoin:miter;stroke-opacity:1" />
            <path
               sodipodi:nodetypes="cccscccc"
               inkscape:connector-curvature="0"
               id="path855"
               d="m 98.897534,163.24321 c 0.06845,0.0106 -0.293851,0.54189 0.604081,0.64882 2.048455,-0.24207 1.746645,-4.68273 1.342395,-4.92213 -0.0611,-0.0787 -0.10881,-0.15734 -0.17549,-0.19418 -0.36022,-0.19902 -0.4642,-0.049 -0.60663,0.0167 l 0.4689,0.0954 c 0.4148,-0.2102 0.0214,4.76204 -1.16342,4.72077 z"
               style="fill:#ffffff;fill-opacity:1;stroke:none;stroke-width:0.264583px;stroke-linecap:butt;stroke-linejoin:miter;stroke-opacity:1" />
          </g>
          <g
             id="g873"
             transform="matrix(1.05,0,0,1.05,3.2972396,-7.2593053)"
             style="fill:#ffffff;fill-opacity:1">
            <path
               style="fill:#ffffff;fill-opacity:1;stroke:none;stroke-width:0.265;stroke-linecap:butt;stroke-linejoin:round;stroke-miterlimit:4;stroke-dasharray:none;stroke-opacity:1"
               d="m 99.956291,158.79242 c 0.0341,0.65322 -0.50188,0.55423 -0.46664,0.12 0.10854,-0.27503 0.26603,-0.30532 0.46664,-0.12 z"
               id="path864"
               inkscape:connector-curvature="0"
               sodipodi:nodetypes="ccc" />
            <path
               style="fill:#ffffff;fill-opacity:1;stroke:none;stroke-width:0.264583px;stroke-linecap:butt;stroke-linejoin:miter;stroke-opacity:1"
               d="m 101.12065,163.24321 c 0.0645,0.47975 -0.11699,0.56134 -0.46984,0.36542 -0.24583,-0.38847 0.0806,-0.80326 0.46984,-0.36542 z"
               id="path866"
               inkscape:connector-curvature="0"
               sodipodi:nodetypes="ccc" />
            <path
               style="fill:#ffffff;fill-opacity:1;stroke:none;stroke-width:0.264583px;stroke-linecap:butt;stroke-linejoin:miter;stroke-opacity:1"
               d="m 101.12065,163.24321 c -0.0684,0.0106 0.29385,0.54189 -0.60408,0.64882 -2.048459,-0.24207 -1.746649,-4.68273 -1.342399,-4.92213 0.0611,-0.0787 0.10881,-0.15734 0.17549,-0.19418 0.36022,-0.19902 0.4642,-0.049 0.60663,0.0167 l -0.4689,0.0954 c -0.4148,-0.2102 -0.0214,4.76204 1.163419,4.72077 z"
               id="path868"
               inkscape:connector-curvature="0"
               sodipodi:nodetypes="cccscccc" />
          </g>
          <path
             style="fill:#000000;fill-opacity:1;stroke:none;stroke-width:0.264583px;stroke-linecap:butt;stroke-linejoin:miter;stroke-opacity:1"
             d="m 105.93242,134.27536 c 0.11663,-0.33921 0.18819,-0.72349 0.44152,-0.92601 l -0.45715,-0.008 z"
             id="path924"
             inkscape:connector-curvature="0"
             sodipodi:nodetypes="cccc" />
          <path
             style="fill:#ffffff;fill-opacity:1;stroke:none;stroke-width:0;stroke-linecap:butt;stroke-linejoin:miter;stroke-miterlimit:4;stroke-dasharray:none;stroke-opacity:1"
             d="m 106.40684,133.37118 0.28512,-0.4254 0.18894,-0.22827 c 0.0344,-0.0329 0.0354,-0.0659 0.0383,-0.0988 -0.0107,-0.63014 -0.0134,-1.46096 0.0904,-2.43263 0.11932,-1.11737 0.32563,-2.25571 0.20022,-3.70489 l -1.70955,0.0518 c 0.023,0.12592 0.0663,0.2914 0.0437,0.44922 -0.18878,1.31737 -1.83004,3.41229 -1.54602,6.33719 z"
             id="path900"
             inkscape:connector-curvature="0"
             sodipodi:nodetypes="ccccsccscc" />
          <path
             style="fill:#000000;fill-opacity:1;stroke:none;stroke-width:0.264583px;stroke-linecap:butt;stroke-linejoin:miter;stroke-opacity:1"
             d="m 106.32063,133.06504 -2.22839,-0.0105 c -0.15646,-0.23658 0.26589,-0.94225 0.4598,-1.57699 0.13807,-1.6511 1.14902,-3.30445 1.45223,-4.56937 l 0.65705,-0.0243 c -0.20792,1.35103 -0.35985,2.78604 -0.43804,4.33167 z"
             id="path904"
             inkscape:connector-curvature="0"
             sodipodi:nodetypes="ccccccc" />
          <path
             style="fill:#000000;fill-opacity:1;stroke:none;stroke-width:0.264583px;stroke-linecap:butt;stroke-linejoin:miter;stroke-opacity:1"
             d="m 105.07425,125.84428 1.83616,0.6359 0.46897,-0.0159 -0.0397,-1.43078 c -0.22864,-0.60794 -0.63265,-0.96478 -0.97296,-1.04155 -0.75549,-0.17044 -1.42438,0.31023 -1.44346,1.19258 z"
             id="path922"
             inkscape:connector-curvature="0"
             sodipodi:nodetypes="ccccscc" />
          <path
             style="fill:#000000;fill-opacity:1;stroke:none;stroke-width:0.264583px;stroke-linecap:butt;stroke-linejoin:miter;stroke-opacity:1"
             d="m 107.20836,126.48582 -0.0902,-0.007 c 0,0 -0.15753,-0.0541 -0.16934,0.0162 -0.0201,0.11957 0.0785,0.46107 0.0587,0.58071 -0.32128,1.9425 -0.59194,3.89677 -0.5184,5.93109 0.0375,-0.0545 -0.0281,0.29477 0.007,0.24017 0.10634,-0.16383 0.23077,-0.36697 0.38469,-0.52923 0.041,-0.0216 0.0445,-0.0583 0.0383,-0.0988 -0.0795,-2.00923 0.47464,-4.0704 0.28916,-6.13289 z"
             id="path906"
             inkscape:connector-curvature="0"
             sodipodi:nodetypes="ccsscscccc" />
          <path
             style="fill:#000000;fill-opacity:1;stroke:#000000;stroke-width:0.1;stroke-linecap:butt;stroke-linejoin:miter;stroke-miterlimit:4;stroke-dasharray:none;stroke-opacity:1"
             d="m 104.05745,133.08934 c 0.0679,-0.32293 0.10843,-0.7782 0.2438,-1.33393 0.0421,-0.26558 0.0946,-0.49749 0.14847,-0.74406 0.31803,-1.29767 0.90527,-2.76281 1.39824,-4.06048 0.0323,-0.085 0.0982,0.008 0.15342,0.009"
             id="path908"
             inkscape:connector-curvature="0"
             sodipodi:nodetypes="cccsc" />
          <path
             sodipodi:nodetypes="ccccc"
             style="fill:#000000;fill-opacity:0.993007;stroke:#ffffff;stroke-width:0.16;stroke-linecap:butt;stroke-linejoin:miter;stroke-miterlimit:4;stroke-dasharray:none;stroke-opacity:1"
             d="m 101.96857,153.43981 c 1.2735,-0.22265 2.33384,-0.0774 3.16521,0.19478 l 0.87652,-20.40911 -1.85043,-0.0337 z"
             id="path880"
             inkscape:connector-curvature="0" />
          <path
             style="fill:none;stroke:#57ff3b;stroke-width:0.15;stroke-linecap:butt;stroke-linejoin:miter;stroke-miterlimit:4;stroke-dasharray:none;stroke-opacity:1"
             d="m 103.98454,135.01645 c 0.89015,-0.14691 1.36779,-0.0188 1.94725,0.0414"
             id="path999"
             inkscape:connector-curvature="0"
             sodipodi:nodetypes="cc" />
          <path
             style="fill:none;stroke:#ffffff;stroke-width:0.36;stroke-linecap:round;stroke-linejoin:miter;stroke-miterlimit:4;stroke-dasharray:none;stroke-opacity:1"
             d="m 103.96329,133.24143 c 0.80734,-0.23285 1.61469,-0.0797 2.42203,0.0173"
             id="path910"
             inkscape:connector-curvature="0"
             sodipodi:nodetypes="cc" />
          <ellipse
             transform="matrix(0.90872815,-0.41738848,0.42435166,0.90549747,0,0)"
             ry="1.1124843"
             rx="0.97560638"
             cy="158.39574"
             cx="42.714649"
             id="ellipse914"
             style="fill:#ffffff;fill-opacity:1;stroke:#ffffff;stroke-width:0;stroke-linecap:round;stroke-linejoin:round;stroke-miterlimit:4;stroke-dasharray:none;stroke-opacity:1" />
          <ellipse
             style="fill:#000000;fill-opacity:1;stroke:#ffffff;stroke-width:0;stroke-linecap:round;stroke-linejoin:round;stroke-miterlimit:4;stroke-dasharray:none;stroke-opacity:1"
             id="path912"
             cx="43.162888"
             cy="158.87743"
             rx="0.90386784"
             ry="1.0373937"
             transform="rotate(-24.889013)" />
          <ellipse
             style="fill:#ffffff;fill-opacity:1;stroke:#ffffff;stroke-width:0;stroke-linecap:round;stroke-linejoin:round;stroke-miterlimit:4;stroke-dasharray:none;stroke-opacity:1"
             id="path916"
             cx="106.45336"
             cy="124.52877"
             rx="0.27423111"
             ry="0.29807732" />
          <ellipse
             ry="0.34179527"
             rx="0.31000033"
             cy="124.40556"
             cx="105.4081"
             id="ellipse918"
             style="fill:#ffffff;fill-opacity:1;stroke:#ffffff;stroke-width:0;stroke-linecap:round;stroke-linejoin:round;stroke-miterlimit:4;stroke-dasharray:none;stroke-opacity:1" />
          <ellipse
             style="fill:#ffffff;fill-opacity:1;stroke:#ffffff;stroke-width:0;stroke-linecap:round;stroke-linejoin:round;stroke-miterlimit:4;stroke-dasharray:none;stroke-opacity:1"
             id="path920"
             cx="105.85322"
             cy="124.2466"
             rx="0.42923135"
             ry="0.43718004" />
          <path
             style="fill:#000000;fill-opacity:1;stroke:none;stroke-width:0.264583px;stroke-linecap:butt;stroke-linejoin:miter;stroke-opacity:1"
             d="m 104.04414,131.52111 -0.0295,0.53038 -0.41253,-0.0147 c -0.47709,0.55169 -0.97838,0.27564 -1.01514,-0.13388 -0.0159,-0.17739 0.0572,-0.377 0.19182,-0.49072 0.24181,-0.20432 0.76313,-0.40376 0.88222,0.0942 z"
             id="path926"
             inkscape:connector-curvature="0"
             sodipodi:nodetypes="cccsscc" />
          <path
             style="fill:#000000;fill-opacity:1;stroke:none;stroke-width:0.264583px;stroke-linecap:butt;stroke-linejoin:miter;stroke-opacity:1"
             d="m 104.32483,130.32593 -0.40131,-0.01 c -0.12845,0.32639 -0.98385,0.18269 -1.05859,-0.0147 -0.0529,-0.13968 -0.0897,-0.40726 0.37505,-0.51118 0.14485,-0.0324 0.83064,-0.21251 0.76311,0.0783 l 0.46791,0.002 z"
             id="path928"
             inkscape:connector-curvature="0"
             sodipodi:nodetypes="ccssccc" />
          <path
             style="fill:#000000;fill-opacity:1;stroke:none;stroke-width:0.264583px;stroke-linecap:butt;stroke-linejoin:miter;stroke-opacity:1"
             d="m 105.00687,128.49928 -0.44776,-0.007 c -0.0269,-0.0283 0.0219,-0.0772 -0.003,-0.10188 -0.25604,-0.25397 -0.44813,-0.26041 -0.62884,-0.25241 -0.58331,0.0258 -0.41334,0.68432 -0.22104,0.98184 0.15838,0.24506 0.76862,0.26852 0.9425,-0.14248 h 0.16417 z"
             id="path930"
             inkscape:connector-curvature="0"
             sodipodi:nodetypes="ccsssccc" />
          <path
             style="fill:#000000;fill-opacity:1;stroke:none;stroke-width:0.264583px;stroke-linecap:butt;stroke-linejoin:miter;stroke-opacity:1"
             d="m 105.44491,127.36869 -0.59924,0.0413 c 0.0192,0.0611 -0.002,0.0769 -0.0536,0.11731 -0.78586,0.61148 -1.94543,-0.60501 -0.321,-0.7871 0.10215,-0.0114 0.22701,-0.0214 0.3951,0.0736 0.0748,0.0423 0.0319,0.0311 0.0462,0.12171 l 0.63037,0.0242 z"
             id="path932"
             inkscape:connector-curvature="0"
             sodipodi:nodetypes="ccsssccc" />
          <path
             style="fill:#000000;fill-opacity:1;stroke:none;stroke-width:0.264583px;stroke-linecap:butt;stroke-linejoin:miter;stroke-opacity:1"
             d="m 107.25008,127.8252 0.58809,-0.0241 c -0.008,-0.0676 -0.014,-0.16313 0.0189,-0.20061 0.24395,-0.27775 0.74499,-0.27385 1.00566,0.0267 0.66284,0.76424 -0.43733,1.67889 -1.01658,0.60897 l -0.62837,0.0161 z"
             id="path934"
             inkscape:connector-curvature="0"
             sodipodi:nodetypes="ccssccc" />
          <path
             style="fill:#000000;fill-opacity:1;stroke:none;stroke-width:0.264583px;stroke-linecap:butt;stroke-linejoin:miter;stroke-opacity:1"
             d="m 107.12835,129.23937 -0.0532,0.43916 0.59221,0.0133 c -0.004,0.18582 0.12338,0.26907 0.18615,0.28162 0.23311,0.0466 0.48111,6.4e-4 0.60881,-0.0625 0.75431,-0.37321 0.3414,-1.0653 -0.25425,-0.94179 -0.15337,0.0318 -0.3352,0.0699 -0.48751,0.25028 z"
             id="path936"
             inkscape:connector-curvature="0"
             sodipodi:nodetypes="cccssscc" />
          <path
             style="fill:#000000;fill-opacity:1;stroke:none;stroke-width:0.264583px;stroke-linecap:butt;stroke-linejoin:miter;stroke-opacity:1"
             d="m 106.9846,130.66896 -0.044,0.47545 0.54588,-0.0176 c 0.18423,0.22081 0.30153,0.25121 0.37395,0.25718 0.18932,0.0156 0.35135,0.0605 0.45995,0.0151 1.1255,-0.47066 -0.67155,-1.6831 -0.84661,-0.72878 z"
             id="path938"
             inkscape:connector-curvature="0"
             sodipodi:nodetypes="cccsscc" />
          <path
             style="fill:#ffffff;fill-opacity:1;stroke:#000000;stroke-width:0.13;stroke-linecap:butt;stroke-linejoin:bevel;stroke-miterlimit:4;stroke-dasharray:none;stroke-opacity:1"
             d="m 105.39142,161.77997 -0.45968,1.13391 c -0.46451,0.24007 -3.00334,0.30123 -3.95333,-0.36776 l 1.44036,-0.91938 c -0.62506,0.98405 2.95694,0.77677 2.97265,0.15323 z"
             id="path940"
             inkscape:connector-curvature="0"
             sodipodi:nodetypes="ccccc" />
          <path
             style="fill:#000000;fill-opacity:0.993007;stroke:#ffffff;stroke-width:0.264583px;stroke-linecap:butt;stroke-linejoin:miter;stroke-opacity:1"
             d="m 101.25528,166.37282 c 1.17643,0.29911 2.32471,0.3447 3.58557,0.16411 l -0.25513,9.72779 c -0.54286,0.17748 -1.12326,0.24232 -1.8889,-0.24854 z"
             id="path942"
             inkscape:connector-curvature="0"
             sodipodi:nodetypes="ccccc" />
          <path
             style="fill:none;stroke:#ffffff;stroke-width:0.12;stroke-linecap:round;stroke-linejoin:miter;stroke-miterlimit:4;stroke-dasharray:none;stroke-opacity:1"
             d="m 101.52285,166.92369 -0.42517,-4.3547 3.11242,-29.2338 1.79917,-6.2497"
             id="path944"
             inkscape:connector-curvature="0"
             sodipodi:nodetypes="cccc" />
          <path
             sodipodi:nodetypes="cc"
             inkscape:connector-curvature="0"
             id="path1001"
             d="m 103.83538,136.71645 c 0.89015,-0.14691 1.36779,-0.0188 1.94725,0.0414"
             style="fill:none;stroke:#57ff3b;stroke-width:0.15;stroke-linecap:butt;stroke-linejoin:miter;stroke-miterlimit:4;stroke-dasharray:none;stroke-opacity:1" />
          <path
             style="fill:none;stroke:#57ff3b;stroke-width:0.15;stroke-linecap:butt;stroke-linejoin:miter;stroke-miterlimit:4;stroke-dasharray:none;stroke-opacity:1"
             d="m 103.70753,138.32245 c 0.89015,-0.14691 1.36779,-0.0188 1.94725,0.0414"
             id="path1003"
             inkscape:connector-curvature="0"
             sodipodi:nodetypes="cc" />
          <path
             sodipodi:nodetypes="cc"
             inkscape:connector-curvature="0"
             id="path1005"
             d="m 103.55837,139.83845 c 0.89015,-0.14691 1.36779,-0.0188 1.94725,0.0414"
             style="fill:none;stroke:#57ff3b;stroke-width:0.15;stroke-linecap:butt;stroke-linejoin:miter;stroke-miterlimit:4;stroke-dasharray:none;stroke-opacity:1" />
          <path
             style="fill:none;stroke:#57ff3b;stroke-width:0.15;stroke-linecap:butt;stroke-linejoin:miter;stroke-miterlimit:4;stroke-dasharray:none;stroke-opacity:1"
             d="m 103.33187,141.28857 c 0.36467,-0.12879 1.51275,-0.11846 2.17375,0.0233"
             id="path1007"
             inkscape:connector-curvature="0"
             sodipodi:nodetypes="cc" />
          <path
             sodipodi:nodetypes="cc"
             inkscape:connector-curvature="0"
             id="path1009"
             d="m 103.22309,142.66876 c 0.36467,-0.12879 1.62153,-0.14565 2.28253,-0.004"
             style="fill:none;stroke:#57ff3b;stroke-width:0.15;stroke-linecap:butt;stroke-linejoin:miter;stroke-miterlimit:4;stroke-dasharray:none;stroke-opacity:1" />
          <path
             style="fill:none;stroke:#57ff3b;stroke-width:0.15;stroke-linecap:butt;stroke-linejoin:miter;stroke-miterlimit:4;stroke-dasharray:none;stroke-opacity:1"
             d="m 103.03274,143.98656 c 0.24229,-0.22397 1.81188,-0.18645 2.47288,-0.0447"
             id="path1011"
             inkscape:connector-curvature="0"
             sodipodi:nodetypes="cc" />
          <path
             style="fill:none;stroke:#ffffff;stroke-width:0.12;stroke-linecap:round;stroke-linejoin:miter;stroke-miterlimit:4;stroke-dasharray:none;stroke-opacity:1"
             d="m 101.89936,167.04873 -0.43707,-4.30309 3.06396,-29.60804 1.23749,-4.57705"
             id="path946"
             inkscape:connector-curvature="0"
             sodipodi:nodetypes="cccc" />
          <path
             style="fill:none;stroke:#ffffff;stroke-width:0.12;stroke-linecap:round;stroke-linejoin:miter;stroke-miterlimit:4;stroke-dasharray:none;stroke-opacity:1"
             d="m 102.37358,167.15077 -0.49074,-4.24931 2.88052,-29.64531 1.66134,-6.18037"
             id="path948"
             inkscape:connector-curvature="0"
             sodipodi:nodetypes="cccc" />
          <path
             style="fill:none;stroke:#ffffff;stroke-width:0.12;stroke-linecap:round;stroke-linejoin:miter;stroke-miterlimit:4;stroke-dasharray:none;stroke-opacity:1"
             d="m 102.96635,167.19245 -0.45554,-4.21628 2.52918,-29.72002 0.94057,-3.96685"
             id="path950"
             inkscape:connector-curvature="0"
             sodipodi:nodetypes="cccc" />
          <path
             style="fill:none;stroke:#ffffff;stroke-width:0.12;stroke-linecap:round;stroke-linejoin:miter;stroke-miterlimit:4;stroke-dasharray:none;stroke-opacity:1"
             d="m 103.51961,167.18597 -0.33698,-4.1056 2.13399,-29.7847 1.10169,-5.48811"
             id="path952"
             inkscape:connector-curvature="0"
             sodipodi:nodetypes="cccc" />
          <path
             style="fill:none;stroke:#ffffff;stroke-width:0.12;stroke-linecap:round;stroke-linejoin:miter;stroke-miterlimit:4;stroke-dasharray:none;stroke-opacity:1"
             d="m 104.05419,167.14429 -0.26227,-4.00572 1.88037,-29.96146 0.63229,-3.8728"
             id="path954"
             inkscape:connector-curvature="0"
             sodipodi:nodetypes="cccc" />
          <path
             style="fill:none;stroke:#ffffff;stroke-width:0.12;stroke-linecap:round;stroke-linejoin:miter;stroke-miterlimit:4;stroke-dasharray:none;stroke-opacity:1"
             d="m 104.52841,167.0738 -0.12286,-4.03511 1.50387,-29.82206 0.31398,-1.59509"
             id="path956"
             inkscape:connector-curvature="0"
             sodipodi:nodetypes="cccc" />
          <path
             sodipodi:nodetypes="cc"
             inkscape:connector-curvature="0"
             id="path1013"
             d="m 102.9247,145.21957 c 0.13425,-0.305 1.91992,-0.21346 2.58092,-0.0717"
             style="fill:none;stroke:#ffffff;stroke-width:0.15;stroke-linecap:butt;stroke-linejoin:miter;stroke-miterlimit:4;stroke-dasharray:none;stroke-opacity:1" />
          <path
             style="fill:none;stroke:#ffffff;stroke-width:0.15;stroke-linecap:butt;stroke-linejoin:miter;stroke-miterlimit:4;stroke-dasharray:none;stroke-opacity:1"
             d="m 102.8002,146.33782 c 0.13425,-0.305 2.04442,-0.19271 2.70542,-0.051"
             id="path1015"
             inkscape:connector-curvature="0"
             sodipodi:nodetypes="cc" />
          <path
             sodipodi:nodetypes="cc"
             inkscape:connector-curvature="0"
             id="path1017"
             d="m 102.8002,146.33782 c 0.13425,-0.305 2.04442,-0.19271 2.70542,-0.051"
             style="fill:none;stroke:#ffffff;stroke-width:0.15;stroke-linecap:butt;stroke-linejoin:miter;stroke-miterlimit:4;stroke-dasharray:none;stroke-opacity:1" />
          <path
             style="fill:none;stroke:#ffffff;stroke-width:0.15;stroke-linecap:butt;stroke-linejoin:miter;stroke-miterlimit:4;stroke-dasharray:none;stroke-opacity:1"
             d="m 102.63563,147.40207 c 0.13425,-0.305 2.04442,-0.19271 2.70542,-0.051"
             id="path1019"
             inkscape:connector-curvature="0"
             sodipodi:nodetypes="cc" />
          <path
             inkscape:connector-curvature="0"
             id="path3202"
             d="m 110.87559,157.59026 3.07098,-0.67562"
             style="fill:none;stroke:#000000;stroke-width:0.264583px;stroke-linecap:butt;stroke-linejoin:miter;stroke-opacity:1" />
          <path
             sodipodi:nodetypes="cc"
             inkscape:connector-curvature="0"
             id="path3204"
             d="m 111.75199,164.57483 3.18601,-1.15015"
             style="fill:none;stroke:#000000;stroke-width:0.264583px;stroke-linecap:butt;stroke-linejoin:miter;stroke-opacity:1" />
        </g>
      </g>
    </g>
  </g>
</svg>
