<?xml version="1.0" encoding="UTF-8" standalone="no"?>
<svg
   width="124.3625mm"
   height="80.170959mm"
   viewBox="0 0 124.3625 80.170959"
   version="1.1"
   id="svg1484"
   inkscape:version="1.1-dev (0486c1a, 2020-10-10)"
   sodipodi:docname="Blockflötendogcakes.svg"
   xmlns:inkscape="http://www.inkscape.org/namespaces/inkscape"
   xmlns:sodipodi="http://sodipodi.sourceforge.net/DTD/sodipodi-0.dtd"
   xmlns:xlink="http://www.w3.org/1999/xlink"
   xmlns="http://www.w3.org/2000/svg"
   xmlns:svg="http://www.w3.org/2000/svg">
  <defs
     id="defs1480">
    <linearGradient
       inkscape:collect="always"
       id="linearGradient8250">
      <stop
         style="stop-color:#0000ff;stop-opacity:1"
         offset="0"
         id="stop8246" />
      <stop
         style="stop-color:#0000ff;stop-opacity:0.42285714"
         offset="1"
         id="stop8248" />
    </linearGradient>
    <linearGradient
       inkscape:collect="always"
       id="linearGradient8051">
      <stop
         style="stop-color:#000000;stop-opacity:1;"
         offset="0"
         id="stop8047" />
      <stop
         style="stop-color:#000000;stop-opacity:0;"
         offset="1"
         id="stop8049" />
    </linearGradient>
    <linearGradient
       inkscape:collect="always"
       id="linearGradient8009">
      <stop
         style="stop-color:#000000;stop-opacity:1;"
         offset="0"
         id="stop8005" />
      <stop
         style="stop-color:#000000;stop-opacity:0;"
         offset="1"
         id="stop8007" />
    </linearGradient>
    <linearGradient
       inkscape:collect="always"
       id="linearGradient7999">
      <stop
         style="stop-color:#999999;stop-opacity:1"
         offset="0"
         id="stop7995" />
      <stop
         style="stop-color:#d4d4d4;stop-opacity:0"
         offset="1"
         id="stop7997" />
    </linearGradient>
    <linearGradient
       inkscape:collect="always"
       id="linearGradient7809">
      <stop
         style="stop-color:#226aff;stop-opacity:0.81568629"
         offset="0"
         id="stop7805" />
      <stop
         style="stop-color:#0008ff;stop-opacity:0.98"
         offset="1"
         id="stop7807" />
    </linearGradient>
    <filter
       inkscape:collect="always"
       style="color-interpolation-filters:sRGB"
       id="filter1927"
       x="-0.59826967"
       width="2.1965393"
       y="-0.55988114"
       height="2.1197623">
      <feGaussianBlur
         inkscape:collect="always"
         stdDeviation="1.4637919"
         id="feGaussianBlur1929" />
    </filter>
    <linearGradient
       inkscape:collect="always"
       xlink:href="#linearGradient7809"
       id="linearGradient7811"
       x1="89.664808"
       y1="81.369844"
       x2="99.17545"
       y2="81.369844"
       gradientUnits="userSpaceOnUse" />
    <filter
       inkscape:collect="always"
       style="color-interpolation-filters:sRGB"
       id="filter7877"
       x="-0.15852344"
       width="1.3170469"
       y="-0.14796289"
       height="1.2959258">
      <feGaussianBlur
         inkscape:collect="always"
         stdDeviation="0.62819155"
         id="feGaussianBlur7879" />
    </filter>
    <filter
       inkscape:collect="always"
       style="color-interpolation-filters:sRGB"
       id="filter7955"
       x="-0.051084166"
       width="1.1021683"
       y="-0.1612948"
       height="1.3225896">
      <feGaussianBlur
         inkscape:collect="always"
         stdDeviation="0.82900743"
         id="feGaussianBlur7957" />
    </filter>
    <linearGradient
       inkscape:collect="always"
       xlink:href="#linearGradient7999"
       id="linearGradient8003"
       gradientUnits="userSpaceOnUse"
       x1="60.895733"
       y1="97.771599"
       x2="48.110291"
       y2="99.071007" />
    <linearGradient
       inkscape:collect="always"
       xlink:href="#linearGradient8009"
       id="linearGradient8011"
       x1="57.319485"
       y1="98.903076"
       x2="48.110291"
       y2="99.071007"
       gradientUnits="userSpaceOnUse" />
    <linearGradient
       inkscape:collect="always"
       xlink:href="#linearGradient7999"
       id="linearGradient8035"
       gradientUnits="userSpaceOnUse"
       x1="58.201893"
       y1="79.454979"
       x2="43.21912"
       y2="79.454979" />
    <linearGradient
       inkscape:collect="always"
       xlink:href="#linearGradient8051"
       id="linearGradient8053"
       x1="62.531998"
       y1="79.418762"
       x2="46.330212"
       y2="78.820854"
       gradientUnits="userSpaceOnUse" />
    <filter
       inkscape:collect="always"
       style="color-interpolation-filters:sRGB"
       id="filter8207"
       x="-0.0590658"
       width="1.1181316"
       y="-0.17568288"
       height="1.3513658">
      <feGaussianBlur
         inkscape:collect="always"
         stdDeviation="0.25648173"
         id="feGaussianBlur8209" />
    </filter>
    <linearGradient
       inkscape:collect="always"
       xlink:href="#linearGradient8250"
       id="linearGradient8252"
       x1="110.74322"
       y1="82.430634"
       x2="146.63016"
       y2="81.807251"
       gradientUnits="userSpaceOnUse" />
  </defs>
  <sodipodi:namedview
     id="base"
     pagecolor="#ffffff"
     bordercolor="#666666"
     borderopacity="1.0"
     inkscape:pageopacity="0.0"
     inkscape:pageshadow="2"
     inkscape:zoom="1.6854802"
     inkscape:cx="446.4603"
     inkscape:cy="175.91426"
     inkscape:document-units="mm"
     inkscape:current-layer="layer1"
     showgrid="false"
     inkscape:snap-global="false"
     inkscape:window-width="1256"
     inkscape:window-height="755"
     inkscape:window-x="0"
     inkscape:window-y="23"
     inkscape:window-maximized="0"
     lock-margins="true"
     fit-margin-top="30"
     fit-margin-left="30"
     fit-margin-right="30"
     fit-margin-bottom="30" />
  <g
     inkscape:label="Ebene 1"
     inkscape:groupmode="layer"
     id="layer1"
     transform="translate(-20.648808,-49.374992)">
    <rect
       style="opacity:0.53714286;fill:url(#linearGradient8252);fill-opacity:1;stroke:none;stroke-width:0.264999;stroke-linecap:round;stroke-linejoin:round;stroke-miterlimit:4;stroke-dasharray:none;stroke-opacity:1"
       id="Windkanalstrom"
       width="45.642059"
       height="3.0130455"
       x="98.095238"
       y="80.621391"
       transform="matrix(1,0.02135645,0,1,0,-2.5823428)" />
    <rect
       style="opacity:0.662857;fill:#dedede;fill-opacity:1;stroke:none;stroke-width:0.605103;stroke-linecap:round;stroke-miterlimit:4;stroke-dasharray:none;stroke-opacity:1;filter:url(#filter7955)"
       id="floetenwand"
       width="38.947838"
       height="12.335288"
       x="47.854603"
       y="81.761787"
       transform="matrix(1.3260119,0,0,1.3280579,-15.23654,-27.055211)" />
    <path
       style="color:#000000;fill:#0000ff;stroke-linecap:round"
       d="M 94.051336,78.54375 C 93.263906,78.307908 92.420416,78.761057 92.184586,79.548438 C 91.948746,80.335868 92.403776,81.179921 93.191146,81.415746 L 97.374726,82.668763 C 98.162096,82.904588 99.006186,82.449634 99.242026,81.662204 C 99.477856,80.874823 99.022336,80.032609 98.234906,79.796767 Z"
       id="path1646"
       sodipodi:nodetypes="sssssss" />
    <path
       style="color:#000000;fill:#0000ff;stroke-linecap:round"
       d="M 88.124069,75.292373 C 87.400112,74.903073 86.482779,75.177391 86.093479,75.901347 C 85.704204,76.625258 85.981142,77.541842 86.705099,77.931141 L 90.549726,79.998547 C 91.273686,80.387847 92.191036,80.113484 92.580316,79.389574 C 92.969616,78.665617 92.692656,77.749079 91.968696,77.359779 Z"
       id="path1652"
       sodipodi:nodetypes="sssssss" />
    <path
       style="color:#000000;fill:#0000ff;stroke-linecap:round"
       d="M 82.800009,70.962572 C 82.152912,70.455703 81.202237,70.569855 80.695384,71.216932 C 80.188528,71.864013 80.305389,72.814354 80.952486,73.321223 L 84.388987,76.013022 C 85.036077,76.519885 85.986756,76.405743 86.493612,75.758662 C 87.000465,75.111585 86.883608,74.16124 86.23651,73.654371 Z"
       id="path1658"
       sodipodi:nodetypes="sssssss" />
    <path
       style="color:#000000;fill:#0000ff;stroke-linecap:round;filter:url(#filter1927)"
       d="M 78.27621,65.894476 C 77.73405,65.276635 76.778661,65.212956 76.160858,65.755082 C 75.543016,66.297244 75.482099,67.252818 76.02422,67.870614 L 78.904694,71.153176 C 79.446815,71.770973 80.402204,71.834731 81.020046,71.29257 C 81.637849,70.750443 81.698844,69.79488 81.156683,69.177038 Z"
       id="path1664"
       sodipodi:nodetypes="sssssss" />
    <path
       style="color:#000000;fill:#0000ff;stroke-linecap:round"
       d="M 94.051336,78.54375 C 93.263906,78.307908 92.420416,78.761057 92.184586,79.548438 C 91.948746,80.335868 92.403776,81.179921 93.191146,81.415746 L 97.374726,82.668763 C 98.162096,82.904588 99.006186,82.449634 99.242026,81.662204 C 99.477856,80.874823 99.022336,80.032609 98.234906,79.796767 Z"
       id="path1699"
       sodipodi:nodetypes="sssssss" />
    <path
       style="color:#000000;fill:#0000ff;stroke-linecap:round"
       d="M 88.124069,75.292373 C 87.400112,74.903073 86.482779,75.177391 86.093479,75.901347 C 85.704204,76.625258 85.981142,77.541842 86.705099,77.931141 L 90.549726,79.998547 C 91.273686,80.387847 92.191036,80.113484 92.580316,79.389574 C 92.969616,78.665617 92.692656,77.749079 91.968696,77.359779 Z"
       id="path1701"
       sodipodi:nodetypes="sssssss" />
    <path
       style="color:#000000;fill:#0000ff;stroke-linecap:round"
       d="M 82.800009,70.962572 C 82.152912,70.455703 81.202237,70.569855 80.695384,71.216932 C 80.188528,71.864013 80.305389,72.814354 80.952486,73.321223 L 84.388987,76.013022 C 85.036077,76.519885 85.986756,76.405743 86.493612,75.758662 C 87.000465,75.111585 86.883608,74.16124 86.23651,73.654371 Z"
       id="path1703"
       sodipodi:nodetypes="sssssss" />
    <path
       style="color:#000000;fill:#0000ff;stroke-linecap:round"
       d="M 93.916473,84.274102 C 93.129043,84.509944 92.285553,84.056795 92.049723,83.269414 C 91.81388,82.481984 92.268913,81.637931 93.056283,81.402106 L 97.239863,80.149089 C 98.027233,79.913264 98.871323,80.368218 99.107163,81.155648 C 99.342993,81.943029 98.887473,82.785243 98.100043,83.021085 Z"
       id="path1761" />
    <path
       style="color:#000000;fill:#0000ff;stroke-linecap:round"
       d="M 87.989203,87.525479 C 87.265246,87.914779 86.347913,87.640461 85.958613,86.916505 C 85.569338,86.192594 85.846276,85.27601 86.570233,84.886711 L 90.41486,82.819305 C 91.13882,82.430005 92.056173,82.704368 92.445453,83.428278 C 92.834753,84.152235 92.557793,85.068773 91.83383,85.458073 Z"
       id="path1749" />
    <path
       style="color:#000000;fill:#0000ff;stroke-linecap:round"
       d="M 82.665143,91.85528 C 82.018046,92.362149 81.067371,92.247997 80.560518,91.60092 C 80.053662,90.953839 80.170523,90.003498 80.81762,89.496629 L 84.254121,86.80483 C 84.901211,86.297967 85.85189,86.412109 86.358746,87.05919 C 86.865599,87.706267 86.748742,88.656612 86.101644,89.163481 Z"
       id="path1753" />
    <path
       style="color:#000000;fill:#0000ff;stroke-linecap:round"
       d="M 78.141344,96.923376 C 77.599184,97.541216 76.643795,97.604896 76.025992,97.062766 C 75.40815,96.520606 75.347233,95.565036 75.889354,94.947236 L 78.769828,91.664676 C 79.311949,91.046879 80.267338,90.983121 80.88518,91.525282 C 81.502983,92.067409 81.563978,93.022972 81.021817,93.640814 Z"
       id="path1757" />
    <path
       style="fill:url(#linearGradient7811);fill-opacity:1;stroke:none;stroke-width:0.265;stroke-linecap:butt;stroke-linejoin:round;stroke-miterlimit:4;stroke-dasharray:none;stroke-opacity:1;filter:url(#filter7877);opacity:0.45428571"
       d="M 89.665303,76.275121 L 99.17545,80.3509 V 82.252929 L 89.664808,86.464566 Z"
       id="marshallflatus"
       sodipodi:nodetypes="ccccc"
       transform="matrix(1.0629067,0,0,0.99204935,-6.2793108,0.64694342)" />
    <rect
       style="opacity:0.422857;fill:#ffffff;fill-opacity:1;stroke:none;stroke-width:0.264999;stroke-linecap:round;stroke-linejoin:round;stroke-miterlimit:4;stroke-dasharray:none;stroke-opacity:1;filter:url(#filter8207)"
       id="Luftpuste"
       width="10.421533"
       height="3.5037913"
       x="133.30917"
       y="80.549751"
       rx="3"
       ry="3"
       transform="matrix(1,0,0,-1,0,164.60329)" />
    <path
       style="fill:#999999;fill-opacity:1;stroke:#000000;stroke-width:0.264583px;stroke-linecap:butt;stroke-linejoin:miter;stroke-opacity:1"
       d="M 96.648808,81.426082 L 143.78387,81.262556 C 136.32173,74.826767 126.25634,73.243911 115.56088,76.513836 C 113.75945,77.064587 111.40128,76.267116 109.3739,76.374275 C 109.13592,76.386854 108.9025,76.411897 108.67507,76.45305 C 107.93758,75.046369 107.35523,76.346715 107.12941,76.43739 C 103.48447,75.863587 103.96983,71.666159 100.76598,76.132544 C 100.60043,76.36333 96.86567,76.431198 96.648808,76.683831 Z"
       id="Schnabel"
       sodipodi:nodetypes="ccssccscc" />
    <path
       style="fill:#bababa;fill-opacity:1;stroke:#000000;stroke-width:0.264583px;stroke-linecap:butt;stroke-linejoin:miter;stroke-opacity:1"
       d="M 96.648808,83.143016 V 97.047495 L 127.06065,97.33126 C 128.45482,90.412864 134.0849,85.804969 143.80278,83.426779 Z"
       id="Block"
       sodipodi:nodetypes="ccccc" />
    <path
       style="fill:url(#linearGradient8035);stroke:url(#linearGradient8053);stroke-width:0.264583px;stroke-linecap:butt;stroke-linejoin:miter;stroke-opacity:1;fill-opacity:1"
       d="M 91.959228,81.391916 L 83.747096,76.714118 L 47.376161,77.772805 V 81.948954 Z"
       id="Blockfl_obereWand" />
    <path
       style="fill:url(#linearGradient8003);stroke:url(#linearGradient8011);stroke-width:0.264583px;stroke-linecap:butt;stroke-linejoin:miter;stroke-opacity:1;fill-opacity:1"
       d="M 126.95537,97.767838 L 47.85346,96.868798 V 100.32587 L 99.204145,101.41845 C 100.13969,101.28086 100.69195,101.78206 101.11777,102.49401 C 102.0145,104.53032 102.16816,104.52318 102.40685,104.7499 C 103.0872,105.44992 104.07549,105.03718 104.37398,104.62672 L 104.98501,103.46082 C 105.55875,102.82234 105.6614,102.89708 105.84096,102.80396 C 106.17029,102.63877 106.959,102.70707 107.13348,102.92371 C 107.58947,103.69844 108.01413,103.80342 108.52998,103.7831 C 109.10786,103.64828 109.41149,103.31233 109.49679,102.81628 L 125.71772,103.3534 Z"
       id="Blockfl_untereWand"
       sodipodi:nodetypes="cccccccccccccc" />
  </g>
</svg>
