<svg width="261.659" height="742.699" viewBox="0 0 69.231 196.506" xmlns="http://www.w3.org/2000/svg"><text xml:space="preserve" style="font-size:4.23333px;line-height:120%;font-family:'Libertinus Sans';-inkscape-font-specification:'Libertinus Sans';letter-spacing:0;word-spacing:0;stroke-width:.264583" x="70.071" y="-193.379" transform="translate(-70.385 196.334)"><tspan style="stroke-width:.264583" x="70.071" y="-193.379">Der Kiel reißt die Saite nach oben an.</tspan><tspan style="stroke-width:.264583" x="70.071" y="-188.299">Die Zunge ist daran verhindert, im</tspan><tspan style="stroke-width:.264583" x="70.071" y="-183.219">unteren Teil von der Saite wegzudrehen.</tspan></text><text xml:space="preserve" style="font-size:4.23333px;line-height:120%;font-family:'Libertinus Sans';-inkscape-font-specification:'Libertinus Sans';letter-spacing:0;word-spacing:0;stroke-width:.264583" x="72.102" y="-99.724" transform="translate(-70.385 196.334)"><tspan style="stroke-width:.264583" x="72.102" y="-99.724">Der Kiel fällt wieder in die Ausgangs-</tspan><tspan style="stroke-width:.264583" x="72.102" y="-94.644">position zurück. Oben ist die Zunge</tspan><tspan style="stroke-width:.264583" x="72.102" y="-89.564">nach hinten beweglich. Beim Kontakt</tspan><tspan style="stroke-width:.264583" x="72.102" y="-84.484">des Kiels mit der Saite, wird sie nach</tspan><tspan style="stroke-width:.264583" x="72.102" y="-79.404">hinten gekippt. Der Kiel Streift an der</tspan><tspan style="stroke-width:.264583" x="72.102" y="-74.324">Saite vorbei, ohne nochmal die Saite</tspan><tspan style="stroke-width:.264583" x="72.102" y="-69.244">anzureißen.</tspan></text><path style="fill:none;stroke:#000;stroke-width:.7;stroke-linecap:butt;stroke-linejoin:bevel;stroke-miterlimit:4;stroke-dasharray:none;stroke-opacity:1" d="M42.412 82.862v-48.5l7.854-7.46v58.12"/><path style="fill:none;fill-opacity:.385892;fill-rule:evenodd;stroke:#000;stroke-width:.7;stroke-linecap:round;stroke-linejoin:round;stroke-miterlimit:4;stroke-dasharray:none;stroke-opacity:1;stop-color:#000" d="m28.454 23.698 21.812 3.203-7.854 7.462L20.6 31.16z"/><path style="fill:none;stroke:#000;stroke-width:.264583px;stroke-linecap:butt;stroke-linejoin:bevel;stroke-opacity:1" d="M33.543 48.898c-2.426 1.438-4.272 3.733-7.182 3.964l-4.842-.81"/><path style="fill:none;stroke:#000;stroke-width:.7;stroke-linecap:butt;stroke-linejoin:miter;stroke-miterlimit:4;stroke-dasharray:none;stroke-opacity:1" d="m30.897 23.874-7.854 7.462v19.62m0 1.213v14.199l15.435 2.573V33.909l7.854-7.462M19.294 78.851V45.788"/><path style="fill:none;fill-opacity:.385892;fill-rule:evenodd;stroke:#000;stroke-width:.705556;stroke-linecap:round;stroke-linejoin:round;stroke-opacity:1;stop-color:#000" d="m18.318 29.621 2.292 1.544v14.736l-2.427-.336z"/><path style="fill:none;fill-opacity:.385892;fill-rule:evenodd;stroke:#000;stroke-width:.7;stroke-linecap:round;stroke-linejoin:round;stroke-miterlimit:4;stroke-dasharray:none;stroke-opacity:.692946;stop-color:#000" d="m26.037 22.104 2.292 1.543"/><path style="fill:none;fill-opacity:.385892;fill-rule:evenodd;stroke:#000;stroke-width:.7;stroke-linecap:round;stroke-linejoin:bevel;stroke-miterlimit:4;stroke-dasharray:none;stroke-opacity:1;stop-color:#000" d="M25.104 21.95h1.141l-7.853 7.182H17.25z"/><path style="fill:none;fill-opacity:.385892;fill-rule:evenodd;stroke:#000;stroke-width:.7;stroke-linecap:round;stroke-linejoin:bevel;stroke-miterlimit:4;stroke-dasharray:none;stroke-opacity:.965726;stop-color:#000" d="M16.982 29.132h1.141v16.445l-1.208-1.946z"/><path style="fill:none;stroke:#000;stroke-width:.264583px;stroke-linecap:butt;stroke-linejoin:bevel;stroke-opacity:1" d="m27.445 47.877 6.042.545c-2.427 1.439-4.294 3.788-7.204 4.019l-4.723-.792c1.931-1.22 4.243-1.684 5.885-3.772z"/><path style="fill:none;stroke:#000;stroke-width:1.2;stroke-linecap:butt;stroke-linejoin:miter;stroke-miterlimit:4;stroke-dasharray:none;stroke-opacity:1" d="m6.495 46.907 56.167 7.577"/><path style="fill:none;stroke:#000;stroke-width:.312885px;stroke-linecap:round;stroke-linejoin:round;stroke-opacity:1" d="m33.487 48.422.056.476"/><ellipse style="fill:#000;fill-opacity:.961693;fill-rule:evenodd;stroke:none;stroke-width:1.8;stroke-linecap:round;stroke-linejoin:round;stroke-miterlimit:4;stroke-dasharray:none;stroke-opacity:.692946;stop-color:#000" cx="46.122" cy="42.928" rx=".508" ry=".599"/><path style="fill:none;stroke:#000;stroke-width:.264583px;stroke-linecap:butt;stroke-linejoin:miter;stroke-opacity:1" d="m21.526 51.864 4.81.81"/><path style="fill:none;stroke:#000;stroke-width:.39687724;stroke-linecap:butt;stroke-linejoin:miter;stroke-opacity:1;stroke-miterlimit:4;stroke-dasharray:none" d="m39.267 167.765-1.047-.075"/><g transform="translate(-144.485 184.934)"><path style="opacity:1;fill:#fff;fill-opacity:.828629;fill-rule:evenodd;stroke:#000;stroke-width:.7;stroke-linecap:round;stroke-linejoin:round;stroke-miterlimit:4;stroke-dasharray:none;stroke-opacity:1;stop-color:#000" d="m183.607-19.793-3.654 11.059"/><path style="opacity:1;fill:none;fill-opacity:.385892;fill-rule:evenodd;stroke:#000;stroke-width:.7;stroke-linecap:round;stroke-linejoin:round;stroke-miterlimit:4;stroke-dasharray:none;stroke-opacity:1;stop-color:#000" d="m168.256-44.132-2.443-.176 7.853-7.461 2.444.176m15.435 2.572 3.934.454-7.854 7.462-3.934-.454"/><path style="fill:none;stroke:#000;stroke-width:.7;stroke-linecap:butt;stroke-linejoin:miter;stroke-miterlimit:4;stroke-dasharray:none;stroke-opacity:1" d="M164.507 3.383v-15.505m0-13.147v-4.411"/><path style="opacity:1;fill:none;fill-opacity:.385892;fill-rule:evenodd;stroke:#000;stroke-width:.705556;stroke-linecap:round;stroke-linejoin:round;stroke-opacity:1;stop-color:#000" d="m163.53-45.847 2.293 1.544v14.736l-2.427-.336z"/><path style="opacity:1;fill:none;fill-opacity:.385892;fill-rule:evenodd;stroke:#000;stroke-width:.7;stroke-linecap:round;stroke-linejoin:round;stroke-miterlimit:4;stroke-dasharray:none;stroke-opacity:.99193549;stop-color:#000" d="m171.25-53.365 2.292 1.544"/><path style="opacity:1;fill:none;fill-opacity:.385892;fill-rule:evenodd;stroke:#000;stroke-width:.7;stroke-linecap:round;stroke-linejoin:bevel;stroke-miterlimit:4;stroke-dasharray:none;stroke-opacity:1;stop-color:#000" d="M170.317-53.518h1.14l-7.853 7.182h-1.14zm-8.122 7.182h1.14v16.446l-1.207-1.947z"/><path style="opacity:1;fill:none;fill-opacity:1;fill-rule:evenodd;stroke:#000;stroke-width:.7;stroke-linecap:round;stroke-linejoin:round;stroke-miterlimit:4;stroke-dasharray:none;stroke-opacity:1;stop-color:#000" d="m188.445-48.096-1.63 3.326m-3.092 9.352-9.483 23.252-13.813-2.433 14.206-35.929 13.812 2.432"/><path style="fill:none;stroke:#000;stroke-width:.7;stroke-linecap:butt;stroke-linejoin:bevel;stroke-miterlimit:4;stroke-dasharray:none;stroke-opacity:1" d="m168.256-44.132.092 9.485m-.092 24.074V-9.1l15.562 2.258-.128-34.717 7.855-7.462m-23.288 4.888 7.853-7.461v1.51"/><path style="fill:none;stroke:#000;stroke-width:.7;stroke-linecap:butt;stroke-linejoin:bevel;stroke-miterlimit:4;stroke-dasharray:none;stroke-opacity:1" d="M187.625 7.394v-48.5l7.854-7.46v58.12"/><ellipse style="fill:#000;fill-opacity:.961693;fill-rule:evenodd;stroke:none;stroke-width:1.8;stroke-linecap:round;stroke-linejoin:round;stroke-miterlimit:4;stroke-dasharray:none;stroke-opacity:.692946;stop-color:#000" cx="191.354" cy="-33.508" rx=".508" ry=".599"/><path style="fill:none;stroke:#000;stroke-width:.7;stroke-linecap:butt;stroke-linejoin:miter;stroke-miterlimit:4;stroke-dasharray:none;stroke-opacity:1" d="m183.69-41.56 3.935.455m.82-6.991 1.264.709M174.24-12.166l5.713 3.432"/><path style="fill:none;stroke:#000;stroke-width:1.2;stroke-linecap:butt;stroke-linejoin:miter;stroke-miterlimit:4;stroke-dasharray:none;stroke-opacity:1" d="m151.707-28.561 56.167 7.577"/><path style="fill:none;stroke:#000;stroke-width:.7;stroke-linecap:butt;stroke-linejoin:miter;stroke-miterlimit:4;stroke-dasharray:none;stroke-opacity:1" d="m179.953-8.734-12.97-2.064-6.556-3.8"/><path style="fill:none;stroke:#000;stroke-width:1.3;stroke-linecap:round;stroke-linejoin:miter;stroke-miterlimit:4;stroke-dasharray:none;stroke-opacity:1" d="m168.298-24.544 6.539.884"/></g></svg>