<?xml version="1.0" encoding="UTF-8" standalone="no"?>
<!-- Created with Inkscape (http://www.inkscape.org/) -->

<svg
   width="32"
   height="32"
   viewBox="0 0 8.4666665 8.4666665"
   version="1.1"
   id="svg1"
   sodipodi:docname="home.svg"
   inkscape:version="1.3-beta (12614ed929, 2023-05-28)"
   inkscape:export-filename="Pfeilweiter.png"
   inkscape:export-xdpi="96"
   inkscape:export-ydpi="96"
   xmlns:inkscape="http://www.inkscape.org/namespaces/inkscape"
   xmlns:sodipodi="http://sodipodi.sourceforge.net/DTD/sodipodi-0.dtd"
   xmlns:xlink="http://www.w3.org/1999/xlink"
   xmlns="http://www.w3.org/2000/svg"
   xmlns:svg="http://www.w3.org/2000/svg">
  <sodipodi:namedview
     id="namedview1"
     pagecolor="#ffffff"
     bordercolor="#000000"
     borderopacity="0.25"
     inkscape:showpageshadow="2"
     inkscape:pageopacity="0.0"
     inkscape:pagecheckerboard="0"
     inkscape:deskcolor="#d1d1d1"
     inkscape:zoom="3.4523375"
     inkscape:cx="-5.9380058"
     inkscape:cy="-12.600159"
     inkscape:window-width="1280"
     inkscape:window-height="731"
     inkscape:window-x="0"
     inkscape:window-y="0"
     inkscape:window-maximized="1"
     inkscape:current-layer="g10" />
  <defs
     id="defs1">
    <inkscape:path-effect
       effect="powerclip"
       id="path-effect15"
       is_visible="true"
       lpeversion="1"
       inverse="true"
       flatten="false"
       hide_clip="false"
       message="Füllregel Gerade-Ungerade im &lt;b&gt;Füllung und Kontur&lt;/b&gt;-Dialog verwenden, wenn das Anwenden des Ausschnitts mit nachfolgendem Umwandeln in Pfade kein Ergebnis bringt" />
    <linearGradient
       id="linearGradient1">
      <stop
         style="stop-color:#b5c5e3;stop-opacity:1;"
         offset="0"
         id="stop1" />
      <stop
         style="stop-color:#ffffff;stop-opacity:1;"
         offset="1"
         id="stop2" />
    </linearGradient>
    <linearGradient
       xlink:href="#linearGradient1"
       id="linearGradient2"
       x1="-0.37691307"
       y1="2.8556242"
       x2="8.8438902"
       y2="2.8556242"
       gradientUnits="userSpaceOnUse"
       gradientTransform="translate(-4.233333,-4.2333329)" />
    <clipPath
       clipPathUnits="userSpaceOnUse"
       id="clipPath15">
      <path
         id="path15"
         style="display:none;fill:#ffffff;stroke-width:0.499999;stroke-linecap:round;stroke-linejoin:round"
         d="m -0.24984447,-0.81293341 h 0.50000004 c 0.0554,0 0.10000007,0.0446 0.10000007,0.0999998 v 1.00000009 c 0,0.0554 -0.0446,0.10000007 -0.10000007,0.10000007 h -0.50000004 c -0.0554001,0 -0.10000007,-0.0446 -0.10000007,-0.10000007 v -1.00000009 c 0,-0.0553998 0.0446,-0.0999998 0.10000007,-0.0999998 z M 0.81397471,-1.9792323 H 1.2139747 c 0.0554,0 0.1000001,0.0446 0.1000001,0.1 v 0.6999999 c 0,0.0554 -0.0446,0.1000001 -0.1000001,0.1000001 H 0.81397471 c -0.0554001,0 -0.10000006,-0.0446 -0.10000006,-0.1000001 v -0.6999999 c 0,-0.0554 0.0446,-0.1 0.10000006,-0.1 z m -2.02763831,0 h 0.39999999 c 0.0554001,0 0.10000006,0.0446 0.10000006,0.1 v 0.6999999 c 0,0.0554 -0.0446,0.1000001 -0.10000006,0.1000001 H -1.2136636 c -0.0554,0 -0.1,-0.0446 -0.1,-0.1000001 v -0.6999999 c 0,-0.0554 0.0446,-0.1 0.1,-0.1 z" />
      <path
         id="lpe_path-effect15"
         style="fill:#ffffff;stroke-width:0.499999;stroke-linecap:round;stroke-linejoin:round"
         class="powerclip"
         d="M -6.9498444,-7.8434227 H 6.9501555 V 6.0565772 H -6.9498444 Z m 6.69999993,7.03048929 c -0.0554001,0 -0.10000007,0.0446 -0.10000007,0.0999998 v 1.00000009 c 0,0.0554001 0.0446,0.10000007 0.10000007,0.10000007 h 0.50000004 c 0.0554001,0 0.10000007,-0.0446001 0.10000007,-0.10000007 v -1.00000009 c 0,-0.0553998 -0.0446001,-0.0999998 -0.10000007,-0.0999998 z M 0.81397471,-1.9792323 c -0.0554001,0 -0.10000006,0.0446 -0.10000006,0.1 v 0.6999999 c 0,0.0554 0.0446,0.1000001 0.10000006,0.1000001 H 1.2139747 c 0.0554,0 0.1000001,-0.0446 0.1000001,-0.1000001 v -0.6999999 c 0,-0.0554 -0.0446,-0.1 -0.1000001,-0.1 z m -2.02763831,0 c -0.0554,0 -0.1,0.0446 -0.1,0.1 v 0.6999999 c 0,0.0554 0.0446,0.1000001 0.1,0.1000001 h 0.39999999 c 0.0554001,0 0.10000006,-0.0446 0.10000006,-0.1000001 v -0.6999999 c 0,-0.0554 -0.0446,-0.1 -0.10000006,-0.1 z" />
    </clipPath>
  </defs>
  <g
     id="layer1"
     transform="translate(4.2331777,5.611042)">
    <g
       id="g10">
      <circle
         style="fill:url(#linearGradient2);stroke-width:0.264583"
         id="path1"
         cx="0.00015555001"
         cy="-1.3777088"
         r="4.2333331" />
      <circle
         style="fill:none;stroke:#000000;stroke-width:0.0261937;stroke-dasharray:none"
         id="circle9"
         cx="0.0001554108"
         cy="-1.3777089"
         r="4.1490898" />
      <g
         id="g14"
         transform="translate(-0.02784522)" />
      <g
         id="g16"
         transform="translate(0,0.42319463)">
        <path
           style="fill:#000000;fill-opacity:1;stroke:#000000;stroke-width:0.5;stroke-linecap:round;stroke-linejoin:round;stroke-dasharray:none"
           id="rect4"
           width="3.3999999"
           height="3.3999999"
           x="-1.6998444"
           y="-2.5934227"
           rx="0.1"
           ry="0.1"
           clip-path="url(#clipPath15)"
           inkscape:path-effect="#path-effect15"
           sodipodi:type="rect"
           d="m -1.5998444,-2.5934227 h 3.1999999 c 0.0554,0 0.1,0.0446 0.1,0.1000001 v 3.1999998 c 0,0.0554 -0.0446,0.10000001 -0.1,0.10000001 h -3.1999999 c -0.0554,0 -0.1,-0.0446 -0.1,-0.10000001 v -3.1999998 c 0,-0.0554 0.0446,-0.1000001 0.1,-0.1000001 z" />
        <path
           style="fill:#020202;fill-opacity:1;stroke:#000000;stroke-width:0.4;stroke-linecap:round;stroke-linejoin:round;stroke-dasharray:none"
           d="M -2.5927611,-2.2589088 0.13244721,-4.4444722 2.5930722,-2.2589088"
           id="path4"
           sodipodi:nodetypes="ccc" />
        <rect
           style="fill:#000000;fill-opacity:1;stroke:none;stroke-width:0.499999;stroke-linecap:round;stroke-linejoin:round;stroke-dasharray:none"
           id="rect8"
           width="0.58250099"
           height="1.5542787"
           x="1.0821823"
           y="-4.6921206"
           rx="0.1"
           ry="0.1" />
      </g>
    </g>
  </g>
</svg>
