<?xml version="1.0" encoding="UTF-8" standalone="no"?>
<svg
   xmlns:dc="http://purl.org/dc/elements/1.1/"
   xmlns:cc="http://creativecommons.org/ns#"
   xmlns:rdf="http://www.w3.org/1999/02/22-rdf-syntax-ns#"
   xmlns:svg="http://www.w3.org/2000/svg"
   xmlns="http://www.w3.org/2000/svg"
   xmlns:sodipodi="http://sodipodi.sourceforge.net/DTD/sodipodi-0.dtd"
   xmlns:inkscape="http://www.inkscape.org/namespaces/inkscape"
   inkscape:version="1.0beta2 (2b71d25, 2019-12-03)"
   id="svg7846"
   version="1.1"
   viewBox="0 0 244.88606 86.431557"
   height="86.431557mm"
   sodipodi:docname="Maultrommel2.svg"
   width="244.88606mm">
  <defs
     id="defs7840" />
  <sodipodi:namedview
     fit-margin-bottom="0"
     fit-margin-right="0"
     fit-margin-left="0"
     fit-margin-top="0"
     inkscape:window-maximized="0"
     inkscape:window-y="23"
     inkscape:window-x="0"
     inkscape:window-height="755"
     inkscape:window-width="1280"
     guidetolerance="1"
     objecttolerance="1"
     showgrid="false"
     inkscape:document-rotation="0"
     inkscape:current-layer="layer1"
     inkscape:document-units="mm"
     inkscape:cy="1.1733585"
     inkscape:cx="-264.60034"
     inkscape:zoom="0.24945495"
     inkscape:pageshadow="2"
     inkscape:pageopacity="0.0"
     borderopacity="1.0"
     bordercolor="#666666"
     pagecolor="#ffffff"
     id="base" />
  <metadata
     id="metadata7843">
    <rdf:RDF>
      <cc:Work
         rdf:about="">
        <dc:format>image/svg+xml</dc:format>
        <dc:type
           rdf:resource="http://purl.org/dc/dcmitype/StillImage" />
        <dc:title></dc:title>
      </cc:Work>
    </rdf:RDF>
  </metadata>
  <g
     transform="translate(3.0741848,-114.49892)"
     id="layer1"
     inkscape:groupmode="layer"
     inkscape:label="Ebene 1">
    <g
       id="g8729">
      <path
         style="fill:#000000;fill-opacity:1;stroke:#000000;stroke-width:0.264583px;stroke-linecap:butt;stroke-linejoin:miter;stroke-opacity:1"
         d="M 91.628708,134.05811 H 211.62871 c 6.02416,4.58454 3.93917,11.65422 0,15 H 91.628708 c -17.07934,-19.7777 -25.43094,-17.52063 -40,-20 -15.574538,-2.48911 -56.4602126,14.54686 0,25 H 211.62871 v 8 l -160.000002,-0.0679 c -54.1725876,3.19667 -23.316361,24.32482 0,25.0679 29.31894,-4.0024 30.61037,-12.67605 40,-20 H 211.62871 c 4.00285,2.98505 5.12871,9.84819 0,15 H 91.628708 c -126.390362,80.67462 -125.79756,-130.317803 0,-48 z"
         id="path8573"
         inkscape:connector-curvature="0"
         sodipodi:nodetypes="ccccccccccccccc" />
      <path
         style="fill:#000000;fill-opacity:1;stroke:#000000;stroke-width:0.264583px;stroke-linecap:butt;stroke-linejoin:miter;stroke-opacity:1"
         d="m 211.62871,154.05811 9.56955,-1.1e-4 c 4.66745,-1.25999 7.16477,-6.3177 10.05446,-10.68876 h 10.42686 v 8.56492 H 231.253 c -2.09794,5.56863 -6.1482,7.72071 -10.055,10.12384 l -9.56929,1.1e-4 z"
         id="path8689"
         inkscape:connector-curvature="0"
         sodipodi:nodetypes="ccccccccc" />
    </g>
  </g>
</svg>
