<?xml version="1.0" encoding="UTF-8" standalone="no"?>
<svg
   xmlns:dc="http://purl.org/dc/elements/1.1/"
   xmlns:cc="http://creativecommons.org/ns#"
   xmlns:rdf="http://www.w3.org/1999/02/22-rdf-syntax-ns#"
   xmlns:svg="http://www.w3.org/2000/svg"
   xmlns="http://www.w3.org/2000/svg"
   xmlns:sodipodi="http://sodipodi.sourceforge.net/DTD/sodipodi-0.dtd"
   xmlns:inkscape="http://www.inkscape.org/namespaces/inkscape"
   inkscape:version="1.0 (4035a4f, 2020-05-01)"
   sodipodi:docname="Kb_gewölbt_Strichzeichnung_seitlich.svg"
   viewBox="0 0 166.99921 641.58887"
   height="169.75372mm"
   width="44.185207mm"
   id="svg24"
   version="1.1">
  <metadata
     id="metadata30">
    <rdf:RDF>
      <cc:Work
         rdf:about="">
        <dc:format>image/svg+xml</dc:format>
        <dc:type
           rdf:resource="http://purl.org/dc/dcmitype/StillImage" />
        <dc:title></dc:title>
      </cc:Work>
    </rdf:RDF>
  </metadata>
  <defs
     id="defs28" />
  <sodipodi:namedview
     inkscape:current-layer="g32"
     inkscape:window-maximized="0"
     inkscape:window-y="23"
     inkscape:window-x="0"
     inkscape:cy="324.44373"
     inkscape:cx="29.440503"
     inkscape:zoom="0.53807843"
     units="mm"
     fit-margin-bottom="0"
     fit-margin-right="0"
     fit-margin-left="0"
     fit-margin-top="0"
     inkscape:snap-global="false"
     showgrid="false"
     id="namedview26"
     inkscape:window-height="645"
     inkscape:window-width="1177"
     inkscape:pageshadow="2"
     inkscape:pageopacity="0"
     guidetolerance="10"
     gridtolerance="10"
     objecttolerance="10"
     borderopacity="1"
     bordercolor="#666666"
     pagecolor="#ffffff" />
  <g
     transform="translate(-232.91207,57.9714)"
     id="g32"
     inkscape:label="Image"
     inkscape:groupmode="layer">
    <g
       transform="matrix(1.36,0,0,1.36,-113.9082,-94.616296)"
       id="g1069">
      <path
         style="fill:none;stroke:#000000;stroke-width:1px;stroke-linecap:butt;stroke-linejoin:round;stroke-opacity:1"
         d="M 297.89091,104.93884 C 311.4932,141.80849 310.23192,155.14413 316.40242,180.24678 C 316.421,183.50554 315.20858,186.31666 311.68828,188.28856 C 302.4666,193.92161 292.16539,195.23654 282.01688,197.16225 L 278.93475,232.4433 C 274.76933,257.06024 270.17385,281.39048 267.87444,307.25143 C 265.66273,331.1017 266.45665,355.70835 266.11522,380.18205 C 269.11078,425.03346 270.33688,438.89612 272.03398,444.79359 L 272.86589,466.1459 L 322.78038,466.4232 C 327.69552,441.74326 330.7321,417.06331 333.04059,392.38337 C 335.32381,363.26658 334.64775,328.74877 333.19959,300.36849 C 330.43013,276.4332 328.78672,251.09035 323.61229,230.16127 C 321.22734,220.19213 321.83455,212.4671 321.94848,204.37212 C 324.62841,203.73766 326.99928,201.86699 330.15633,203.14102 L 354.9475,298.65505 L 359.93895,296.43662 L 306.69683,95.392141 L 303.09189,91.2326 C 296.03235,72.167776 285.04773,60.953131 271.75668,54.351336 L 268.70635,51.301006 V 47.141465 C 275.89707,57.551166 285.90284,53.105865 288.03179,47.141465 C 292.29773,25.15948 270.41497,25.067709 263.81268,30.327785 C 256.87893,34.252495 252.51954,47.475656 257.9773,57.222142 C 264.00179,67.078442 270.44299,72.372382 277.58004,78.199372 C 284.62071,84.981932 285.49809,87.142024 287.84024,90.400692 C 287.8615,95.870675 288.02639,101.32629 285.62182,107.03886 C 288.56976,105.03399 291.52532,103.03782 297.89091,104.93884 Z"
         id="path36"
         sodipodi:nodetypes="ccccccccccccccccccccccccccccc" />
      <path
         style="fill:none;stroke:#000000;stroke-width:1px;stroke-linecap:butt;stroke-linejoin:miter;stroke-opacity:1"
         d="M 294.9798,470.79516 V 472.00592 L 301.7983,471.94219 V 470.66771 Z"
         id="path863" />
      <path
         style="fill:none;stroke:#000000;stroke-width:1px;stroke-linecap:butt;stroke-linejoin:miter;stroke-opacity:1"
         d="M 295.87194,471.55985 L 295.99939,475.8931 L 300.71499,475.76565 V 470.98633 Z"
         id="path865" />
      <path
         style="fill:none;stroke:#000000;stroke-width:1px;stroke-linecap:butt;stroke-linejoin:miter;stroke-opacity:1"
         d="M 297.25629,476.49044 L 297.48603,498.20131 H 299.43886 L 299.78348,476.37557 Z"
         id="path867" />
      <path
         style="fill:none;stroke:#000000;stroke-width:1px;stroke-linecap:butt;stroke-linejoin:miter;stroke-opacity:1"
         d="M 323.63344,460.72816 L 326.52302,458.80177 C 334.46483,435.47105 347.72001,404.32031 349.31863,388.80962 L 357.02419,390.09388 V 396.51518 L 354.13461,397.47837 C 347.14893,419.1129 339.20723,440.11008 330.69687,460.72816 C 328.45571,461.3325 326.06067,462.86015 323.31237,466.50733 Z"
         id="path869"
         sodipodi:nodetypes="ccccccccc" />
      <path
         style="fill:none;stroke:#000000;stroke-width:1px;stroke-linecap:butt;stroke-linejoin:miter;stroke-opacity:1"
         d="M 327.97516,341.04459 L 327.86249,347.46664 C 330.09133,346.10001 331.62442,347.51638 333.49587,347.57931 V 340.48126 C 331.65563,340.7273 329.8154,341.49593 327.97516,341.04459 Z"
         id="path871"
         sodipodi:nodetypes="ccccc" />
      <path
         style="fill:none;stroke:#000000;stroke-width:1px;stroke-linecap:butt;stroke-linejoin:miter;stroke-opacity:1"
         d="M 334.05921,341.48631 C 340.03059,342.25661 346.00196,342.28644 351.97334,341.48631 L 351.74801,346.44368 C 345.85174,345.66122 339.95548,345.54378 334.05921,346.33102 Z"
         id="path873"
         sodipodi:nodetypes="ccccc" />
      <path
         style="fill:none;stroke:#000000;stroke-width:1px;stroke-linecap:butt;stroke-linejoin:miter;stroke-opacity:1"
         d="M 352.08601,342.0586 H 353.10002 L 352.98735,345.8893 H 351.97334 Z"
         id="path875" />
      <path
         style="fill:none;stroke:#000000;stroke-width:1px;stroke-linecap:butt;stroke-linejoin:miter;stroke-opacity:1"
         d="M 353.43802,342.0586 C 367.54125,341.79957 372.31267,343.5692 377.66154,345.21329 L 353.32535,345.66396 Z"
         id="path877"
         sodipodi:nodetypes="cccc" />
      <path
         style="fill:none;stroke:#000000;stroke-width:1px;stroke-linecap:butt;stroke-linejoin:miter;stroke-opacity:1"
         d="M 357.28738,391.22738 L 377.00927,345.36251 L 307.29466,97.004211"
         id="path879" />
      <path
         style="fill:none;stroke:#000000;stroke-width:1px;stroke-linecap:butt;stroke-linejoin:miter;stroke-opacity:1"
         d="M 307.06534,96.086913 L 374.94535,345.13318 L 355.68211,389.16346 L 372.42278,344.90386 Z"
         id="path881" />
      <path
         style="fill:none;stroke:#000000;stroke-width:1px;stroke-linecap:butt;stroke-linejoin:miter;stroke-opacity:1"
         d="M 321.01391,204.50308 L 321.59968,232.35577 C 324.55989,254.59975 323.65582,276.84373 324.41368,299.08771 C 324.07723,299.76803 324.18468,301.12804 323.94018,303.33033 C 322.79992,313.60101 323.14658,339.32996 322.7433,356.07212 C 322.68912,358.32153 322.73673,358.44199 322.80568,360.19165 C 322.64005,392.88762 321.55461,425.58358 324.41368,458.27955"
         id="path887"
         sodipodi:nodetypes="cccsscc" />
      <path
         style="fill:none;stroke:#000000;stroke-width:1px;stroke-linecap:butt;stroke-linejoin:round;stroke-opacity:1"
         d="M 279.84458,227.80032 L 274.15668,298.33025 C 275.06885,302.02555 273.13555,330.53431 273.19197,347.20641 C 273.21885,355.15155 272.05247,357.70242 271.31273,358.90636 C 271.50233,387.59942 271.69192,415.8808 271.88152,445.07802"
         id="path889"
         sodipodi:nodetypes="ccscc" />
      <path
         style="fill:none;stroke:#000000;stroke-width:1px;stroke-linecap:butt;stroke-linejoin:miter;stroke-opacity:1"
         d="M 324.21295,298.61719 L 315.46773,297.9773 L 279.63367,297.764 L 273.44803,298.40389"
         id="path893" />
      <path
         style="fill:none;stroke:#000000;stroke-width:1px;stroke-linecap:butt;stroke-linejoin:miter;stroke-opacity:1"
         d="M 270.88845,358.98052 L 277.07409,360.47361 L 316.32092,361.1135 L 321.65337,358.76722"
         id="path895" />
      <path
         style="fill:none;stroke:#000000;stroke-width:1px;stroke-linecap:butt;stroke-linejoin:miter;stroke-opacity:1"
         d="M 306.72187,96.089938 L 303.5885,102.35667 C 301.66948,102.36684 299.84527,102.80369 298.36622,104.79374"
         id="path897"
         sodipodi:nodetypes="ccc" />
      <path
         style="fill:none;stroke:#000000;stroke-width:1px;stroke-linecap:butt;stroke-linejoin:miter;stroke-opacity:1"
         d="M 303.6894,102.42139 L 330.20922,202.84756"
         id="path899" />
      <path
         style="fill:none;stroke:#000000;stroke-width:1px;stroke-linecap:butt;stroke-linejoin:miter;stroke-opacity:1"
         d="M 316.57521,181.48206 C 318.80783,181.03124 325.48515,184.05528 325.88624,188.1328"
         id="path901"
         sodipodi:nodetypes="cc" />
      <path
         style="fill:#ffffff;fill-opacity:1;stroke:#000000;stroke-width:1px;stroke-linecap:butt;stroke-linejoin:miter;stroke-opacity:1"
         d="M 294.88894,464.25496 L 294.64663,470.31999 C 296.17957,471.42174 301.47302,471.5927 302.40049,470.07768 V 464.01998 C 300.26722,464.62871 296.24669,464.49046 294.88894,464.25496 Z"
         id="path861"
         sodipodi:nodetypes="ccccc" />
      <path
         sodipodi:nodetypes="ccccc"
         id="path1010"
         d="M 289.00415,43.754405 C 284.61374,54.030178 268.82507,52.80796 267.25044,45.380024 C 264.84717,29.490043 279.53181,31.777071 281.59771,35.808683 C 286.06195,43.852217 279.90128,47.77462 274.37532,45.739518 C 269.9522,44.115633 270.76282,38.562263 273.07613,37.168644"
         style="fill:none;stroke:#000000;stroke-width:1;stroke-linecap:butt;stroke-linejoin:miter;stroke-miterlimit:4;stroke-dasharray:none;stroke-opacity:1" />
      <ellipse
         ry="2.9196005"
         rx="3.2504959"
         cy="39.392796"
         cx="274.9245"
         id="path1640"
         style="opacity:1;fill:none;fill-opacity:1;stroke:#000000;stroke-width:0.51397;stroke-linecap:round;stroke-linejoin:round;stroke-miterlimit:4;stroke-dasharray:none;stroke-opacity:1" />
      <rect
         style="opacity:1;fill:#000000;fill-opacity:1;stroke-width:1;stroke-linecap:round;stroke-linejoin:round;stroke-miterlimit:4;stroke-dasharray:none"
         id="rect1020"
         width="2.9245594"
         height="9.3585901"
         x="243.76569"
         y="-127.41213"
         ry="1.4622797"
         transform="rotate(41.038472)" />
      <rect
         style="opacity:1;fill:#000000;fill-opacity:1;stroke-width:1;stroke-linecap:round;stroke-linejoin:round;stroke-miterlimit:4;stroke-dasharray:none"
         id="rect1024"
         width="8.7736816"
         height="9.9100151"
         x="267.81195"
         y="-11.310287"
         ry="3.2170157"
         transform="rotate(16.992115)" />
      <rect
         transform="rotate(41.038472)"
         ry="1.4622797"
         y="-127.59713"
         x="258.32697"
         height="9.3585901"
         width="2.9245594"
         id="rect1020-3"
         style="opacity:1;fill:#000000;fill-opacity:1;stroke-width:1;stroke-linecap:round;stroke-linejoin:round;stroke-miterlimit:4;stroke-dasharray:none" />
      <rect
         transform="rotate(16.992115)"
         ry="3.2170157"
         y="-5.5458722"
         x="281.18494"
         height="9.9100151"
         width="8.7736816"
         id="rect1024-6"
         style="opacity:1;fill:#000000;fill-opacity:1;stroke-width:1;stroke-linecap:round;stroke-linejoin:round;stroke-miterlimit:4;stroke-dasharray:none" />
    </g>
  </g>
</svg>
