<?xml version="1.0" encoding="UTF-8" standalone="no"?>
<svg
   xmlns:dc="http://purl.org/dc/elements/1.1/"
   xmlns:cc="http://creativecommons.org/ns#"
   xmlns:rdf="http://www.w3.org/1999/02/22-rdf-syntax-ns#"
   xmlns:svg="http://www.w3.org/2000/svg"
   xmlns="http://www.w3.org/2000/svg"
   xmlns:sodipodi="http://sodipodi.sourceforge.net/DTD/sodipodi-0.dtd"
   xmlns:inkscape="http://www.inkscape.org/namespaces/inkscape"
   inkscape:version="1.0 (4035a4f, 2020-05-01)"
   sodipodi:docname="Kb_gambenaehnlich_Strichzeichnung_seitlich.svg"
   id="svg1977"
   version="1.1"
   viewBox="0 0 36.857482 169.94928"
   height="169.94928mm"
   width="36.857483mm">
  <defs
     id="defs1971" />
  <sodipodi:namedview
     inkscape:window-maximized="0"
     inkscape:window-y="23"
     inkscape:window-x="0"
     inkscape:window-height="755"
     inkscape:window-width="1248"
     fit-margin-bottom="0"
     fit-margin-right="0"
     fit-margin-left="0"
     fit-margin-top="0"
     showgrid="false"
     inkscape:document-rotation="0"
     inkscape:current-layer="layer1"
     inkscape:document-units="mm"
     inkscape:cy="349.68869"
     inkscape:cx="-661.15719"
     inkscape:zoom="0.36629374"
     inkscape:pageshadow="2"
     inkscape:pageopacity="0.0"
     borderopacity="1.0"
     bordercolor="#666666"
     pagecolor="#ffffff"
     id="base" />
  <metadata
     id="metadata1974">
    <rdf:RDF>
      <cc:Work
         rdf:about="">
        <dc:format>image/svg+xml</dc:format>
        <dc:type
           rdf:resource="http://purl.org/dc/dcmitype/StillImage" />
        <dc:title></dc:title>
      </cc:Work>
    </rdf:RDF>
  </metadata>
  <g
     transform="translate(-192.48197,-143.32298)"
     id="layer1"
     inkscape:groupmode="layer"
     inkscape:label="Ebene 1">
    <g
       transform="matrix(1.76,0,0,1.76,-70.02754,18.760997)"
       id="g1929">
      <path
         sodipodi:nodetypes="cscccccccccccccccccccccccc"
         id="path1129"
         d="M 153.87927,86.18539 C 153.81319,86.285914 153.93281,86.513727 154.10434,86.465893 C 154.91185,86.240694 156.02891,85.887584 156.66582,86.589342 L 159.65877,102.37977 C 159.81183,102.999 159.64662,103.61824 159.24595,104.23747 C 157.35453,105.1326 155.7301,106.29472 153.56965,106.92081 C 153.3801,108.20934 153.62709,108.16641 150.78311,117.55097 C 150.1344,132.33532 150.96767,147.25373 151.1966,162.28884 L 161.00044,162.34211 C 161.46728,155.42735 161.89642,148.51259 162.44532,141.59783 C 162.85261,135.41121 162.52804,129.32914 162.34211,123.22726 C 161.88611,120.07854 161.4301,116.0447 160.9741,115.18161 L 160.79403,107.84966 L 161.82609,107.43683 L 166.05751,128.07792 L 166.77995,128.59394 L 167.19277,128.49074 L 168.22482,127.7683 L 158.28824,83.606379 C 157.71429,83.482328 157.57317,83.268995 157.10637,82.151507 C 155.45592,77.761521 153.6812,77.352026 150.97499,75.12895 L 151.25079,74.522181 C 152.81875,76.909382 154.85855,75.627168 155.05688,74.246377 C 155.65188,71.688983 153.12856,70.724909 152.18852,70.93673 C 149.09149,72.088539 148.99747,74.321428 149.54081,76.78377 C 152.23581,80.839402 155.20756,81.689425 153.87927,86.18539 Z"
         style="fill:none;stroke:#000000;stroke-width:0.265;stroke-linecap:butt;stroke-linejoin:round;stroke-miterlimit:4;stroke-dasharray:none;stroke-opacity:1" />
      <path
         id="path1694"
         d="M 162.2222,136.71833 H 162.76484 V 137.36432 L 162.19636,137.39016 Z"
         style="fill:none;stroke:#000000;stroke-width:0.264583px;stroke-linecap:butt;stroke-linejoin:miter;stroke-opacity:1" />
      <path
         id="path1696"
         d="M 162.91988,136.89921 L 165.21962,136.95089 L 165.19378,137.36432 L 162.84236,137.33848 Z"
         style="fill:none;stroke:#000000;stroke-width:0.264583px;stroke-linecap:butt;stroke-linejoin:miter;stroke-opacity:1" />
      <path
         sodipodi:nodetypes="ccccc"
         id="path1702"
         d="M 165.2713,136.97673 L 166.11274,136.92769 L 166.05047,137.33978 L 165.21962,137.36432 Z"
         style="fill:none;stroke:#000000;stroke-width:0.264583px;stroke-linecap:butt;stroke-linejoin:round;stroke-opacity:1" />
      <path
         sodipodi:nodetypes="ccccc"
         id="path1704"
         d="M 166.22008,136.95684 L 167.26096,136.89921 L 167.22055,137.41266 L 166.18696,137.33515 Z"
         style="fill:none;stroke:#000000;stroke-width:0.264583px;stroke-linecap:butt;stroke-linejoin:miter;stroke-opacity:1" />
      <path
         sodipodi:nodetypes="cc"
         id="path1706"
         d="M 167.3749,136.92849 C 172.08777,136.61633 168.19039,136.1998 165.86561,136.04649"
         style="fill:none;stroke:#000000;stroke-width:0.264583px;stroke-linecap:butt;stroke-linejoin:miter;stroke-opacity:1" />
      <path
         sodipodi:nodetypes="cccc"
         id="path1708"
         d="M 167.26535,137.42708 C 167.93261,137.33033 173.36396,136.61274 165.94313,136.07947 V 136.07233 L 162.68732,135.81394"
         style="fill:none;stroke:#000000;stroke-width:0.264583px;stroke-linecap:butt;stroke-linejoin:miter;stroke-opacity:1" />
      <path
         sodipodi:nodetypes="ccccc"
         id="path1710"
         d="M 162.68109,136.15608 L 165.19735,136.29417 C 165.88716,136.52317 165.99231,136.53114 165.2713,136.58913 L 162.68732,136.53745 Z"
         style="fill:none;stroke:#000000;stroke-width:0.264583px;stroke-linecap:butt;stroke-linejoin:miter;stroke-opacity:1" />
      <path
         id="path1712"
         d="M 155.01342,161.82658 L 155.18234,162.95272 H 156.92786 L 157.04047,161.88288 Z"
         style="fill:none;stroke:#000000;stroke-width:0.264583px;stroke-linecap:butt;stroke-linejoin:miter;stroke-opacity:1" />
      <path
         id="path1718"
         d="M 155.5238,162.82059 H 156.59466 V 165.16154 H 155.64832 Z"
         style="fill:none;stroke:#000000;stroke-width:0.264583px;stroke-linecap:butt;stroke-linejoin:miter;stroke-opacity:1" />
      <path
         id="path1720"
         d="M 155.32457,164.47669 H 156.88105 V 165.5351 H 155.36192 V 164.42688"
         style="fill:none;stroke:#000000;stroke-width:0.264583px;stroke-linecap:butt;stroke-linejoin:miter;stroke-opacity:1" />
      <path
         id="path1722"
         d="M 155.61096,165.67207 V 166.74293 H 156.48259 L 156.51995,165.65962 Z"
         style="fill:none;stroke:#000000;stroke-width:0.264583px;stroke-linecap:butt;stroke-linejoin:miter;stroke-opacity:1" />
      <path
         id="path1724"
         d="M 155.05063,166.81764 H 157.13009 V 167.20365 H 155.03818 Z"
         style="fill:none;stroke:#000000;stroke-width:0.264583px;stroke-linecap:butt;stroke-linejoin:miter;stroke-opacity:1" />
      <path
         id="path1726"
         d="M 161.39516,160.08832 L 162.29362,160.9051 L 162.3753,159.31238 L 165.8466,147.46911 L 167.23512,144.52872 L 166.33667,143.95697 L 165.92828,144.44704 V 144.16117 H 165.35653 L 164.04969,148.44925 L 161.47684,158.08722 Z"
         style="fill:none;stroke:#000000;stroke-width:0.264583px;stroke-linecap:butt;stroke-linejoin:miter;stroke-opacity:1" />
      <path
         sodipodi:nodetypes="cccccc"
         id="path1730"
         d="M 151.26713,162.25278 C 151.29102,155.30062 151.7266,148.18378 151.26713,141.42496 L 151.48659,139.99529 C 151.7814,136.5344 151.61701,133.05357 151.68159,129.58147 L 151.43048,128.31569 C 151.46622,124.04519 151.89696,119.11636 151.34881,115.819"
         style="fill:none;stroke:#000000;stroke-width:0.264583px;stroke-linecap:butt;stroke-linejoin:miter;stroke-opacity:1" />
      <path
         sodipodi:nodetypes="cccccc"
         id="path1732"
         d="M 160.82342,115.98235 C 160.62292,117.63992 161.16498,124.12411 161.35433,128.31569 L 161.02839,129.58063 L 161.04448,139.99377 L 161.19097,141.38412 L 160.9051,162.29362"
         style="fill:none;stroke:#000000;stroke-width:0.264583px;stroke-linecap:butt;stroke-linejoin:miter;stroke-opacity:1" />
      <path
         id="path1734"
         d="M 151.24263,141.37425 L 161.24142,141.33078"
         style="fill:none;stroke:#000000;stroke-width:0.264583px;stroke-linecap:butt;stroke-linejoin:miter;stroke-opacity:1" />
      <path
         id="path1736"
         d="M 151.41652,128.20193 L 161.45879,128.11498"
         style="fill:none;stroke:#000000;stroke-width:0.264583px;stroke-linecap:butt;stroke-linejoin:miter;stroke-opacity:1" />
      <ellipse
         ry="0.12719026"
         rx="0.4041824"
         cy="136.54865"
         cx="167.81483"
         id="path1738"
         style="fill:#000000;stroke-width:0.264999;stroke-linecap:round;stroke-linejoin:round;stroke-miterlimit:4;stroke-dasharray:none" />
      <ellipse
         transform="rotate(-5.9758743)"
         ry="0.88551378"
         rx="0.32328278"
         cy="149.13153"
         cx="147.19547"
         id="path1740"
         style="fill:#000000;stroke-width:0.264999;stroke-linecap:round;stroke-linejoin:round;stroke-miterlimit:4;stroke-dasharray:none" />
      <path
         sodipodi:nodetypes="ccc"
         id="path1744"
         d="M 161.71519,132.82443 C 161.68443,131.10241 162.0443,135.22399 161.80122,140.13682 C 161.92176,137.87519 161.89534,136.20783 161.71519,132.82443 Z"
         style="fill:none;stroke:#000000;stroke-width:0.264583px;stroke-linecap:butt;stroke-linejoin:miter;stroke-opacity:1" />
      <ellipse
         style="fill:#000000;stroke-width:0.264999;stroke-linecap:round;stroke-linejoin:round;stroke-miterlimit:4;stroke-dasharray:none"
         id="ellipse1746"
         cx="146.16286"
         cy="155.4783"
         rx="0.32328278"
         ry="0.88551378"
         transform="rotate(-5.9758743)" />
      <path
         id="path1748"
         d="M 167.23674,144.43548 L 169.95805,136.68387 L 168.14384,127.61285"
         style="fill:none;stroke:#000000;stroke-width:0.264583px;stroke-linecap:butt;stroke-linejoin:miter;stroke-opacity:1" />
      <path
         id="path1750"
         d="M 166.82442,144.14685 L 169.46326,136.68387 L 167.73152,127.90147"
         style="fill:none;stroke:#000000;stroke-width:0.264583px;stroke-linecap:butt;stroke-linejoin:miter;stroke-opacity:1" />
      <path
         id="path1752"
         d="M 166.37087,143.89946 L 169.09218,136.35402 L 167.4429,128.0664"
         style="fill:none;stroke:#000000;stroke-width:0.264583px;stroke-linecap:butt;stroke-linejoin:miter;stroke-opacity:1" />
      <path
         id="path1754"
         d="M 153.42766,108.41298 L 160.91962,106.39834 L 161.04553,107.72045"
         style="fill:none;stroke:#000000;stroke-width:0.264583px;stroke-linecap:butt;stroke-linejoin:miter;stroke-opacity:1" />
      <path
         sodipodi:nodetypes="cc"
         id="path1756"
         d="M 159.66046,103.69116 C 160.56806,104.0977 161.15938,104.02983 161.73806,103.94299"
         style="fill:none;stroke:#000000;stroke-width:0.264583px;stroke-linecap:butt;stroke-linejoin:miter;stroke-opacity:1" />
      <path
         sodipodi:nodetypes="cc"
         id="path1758"
         d="M 158.11536,85.829579 C 157.74537,85.384201 156.37194,85.941833 156.28935,86.160357"
         style="fill:none;stroke:#000000;stroke-width:0.264583px;stroke-linecap:butt;stroke-linejoin:miter;stroke-opacity:1" />
      <path
         sodipodi:nodetypes="cc"
         id="path1760"
         d="M 157.63482,83.430614 L 166.75747,128.40048"
         style="fill:none;stroke:#000000;stroke-width:0.264583px;stroke-linecap:butt;stroke-linejoin:miter;stroke-opacity:1" />
      <path
         style="fill:none;stroke:#000000;stroke-width:0.265;stroke-linecap:butt;stroke-linejoin:miter;stroke-miterlimit:4;stroke-dasharray:none;stroke-opacity:1"
         d="M 154.98687,74.013722 C 154.23872,76.086902 151.54818,75.840314 151.27985,74.341697 C 150.87031,71.135826 153.3727,71.597243 153.72475,72.410638 C 154.48549,74.033456 153.43566,74.824816 152.49399,74.414226 C 151.74025,74.086601 151.87839,72.966185 152.2726,72.685016"
         id="path1010"
         sodipodi:nodetypes="ccccc" />
      <ellipse
         style="fill:none;fill-opacity:1;stroke:#000000;stroke-width:0.265;stroke-linecap:round;stroke-linejoin:round;stroke-miterlimit:4;stroke-dasharray:none;stroke-opacity:1"
         id="path1640"
         cx="152.58757"
         cy="73.133751"
         rx="0.55391288"
         ry="0.58904177" />
    </g>
  </g>
</svg>
