<?xml version="1.0" encoding="UTF-8" standalone="no"?>
<svg
   xmlns:dc="http://purl.org/dc/elements/1.1/"
   xmlns:cc="http://creativecommons.org/ns#"
   xmlns:rdf="http://www.w3.org/1999/02/22-rdf-syntax-ns#"
   xmlns:svg="http://www.w3.org/2000/svg"
   xmlns="http://www.w3.org/2000/svg"
   xmlns:sodipodi="http://sodipodi.sourceforge.net/DTD/sodipodi-0.dtd"
   xmlns:inkscape="http://www.inkscape.org/namespaces/inkscape"
   inkscape:version="1.0rc1 (09960d6, 2020-04-09)"
   sodipodi:docname="Stegvibration1.svg"
   id="svg5579"
   version="1.1"
   viewBox="0 0 12.671057 8.3590383"
   height="8.3590384mm"
   width="12.671057mm">
  <defs
     id="defs5573">
    <inkscape:path-effect
       message="Füllregel Gerade-Ungerade im &lt;b&gt;Füllung und Kontur&lt;/b&gt;-Dialog verwenden, wenn das Anwenden des Ausschnitts mit nachfolgendem Umwandeln in Pfade kein Ergebnis bringt"
       hide_clip="false"
       flatten="false"
       inverse="true"
       lpeversion="1"
       is_visible="true"
       id="path-effect1098"
       effect="powerclip" />
    <inkscape:path-effect
       message="Füllregel Gerade-Ungerade im &lt;b&gt;Füllung und Kontur&lt;/b&gt;-Dialog verwenden, wenn das Anwenden des Ausschnitts mit nachfolgendem Umwandeln in Pfade kein Ergebnis bringt"
       hide_clip="false"
       flatten="false"
       inverse="true"
       lpeversion="1"
       is_visible="true"
       id="path-effect1085"
       effect="powerclip" />
    <inkscape:path-effect
       message="Füllregel Gerade-Ungerade im &lt;b&gt;Füllung und Kontur&lt;/b&gt;-Dialog verwenden, wenn das Anwenden des Ausschnitts mit nachfolgendem Umwandeln in Pfade kein Ergebnis bringt"
       hide_clip="false"
       flatten="false"
       inverse="true"
       lpeversion="1"
       is_visible="true"
       id="path-effect1072"
       effect="powerclip" />
    <inkscape:path-effect
       message="Füllregel Gerade-Ungerade im &lt;b&gt;Füllung und Kontur&lt;/b&gt;-Dialog verwenden, wenn das Anwenden des Ausschnitts mit nachfolgendem Umwandeln in Pfade kein Ergebnis bringt"
       hide_clip="false"
       flatten="false"
       inverse="true"
       lpeversion="1"
       is_visible="true"
       id="path-effect1059"
       effect="powerclip" />
    <inkscape:path-effect
       message="Füllregel Gerade-Ungerade im &lt;b&gt;Füllung und Kontur&lt;/b&gt;-Dialog verwenden, wenn das Anwenden des Ausschnitts mit nachfolgendem Umwandeln in Pfade kein Ergebnis bringt"
       hide_clip="false"
       flatten="false"
       inverse="true"
       lpeversion="1"
       is_visible="true"
       id="path-effect1051"
       effect="powerclip" />
    <inkscape:path-effect
       effect="powerclip"
       id="path-effect931"
       is_visible="true"
       lpeversion="1"
       inverse="true"
       flatten="false"
       hide_clip="false"
       message="Füllregel Gerade-Ungerade im &lt;b&gt;Füllung und Kontur&lt;/b&gt;-Dialog verwenden, wenn das Anwenden des Ausschnitts mit nachfolgendem Umwandeln in Pfade kein Ergebnis bringt" />
    <inkscape:path-effect
       message="Füllregel Gerade-Ungerade im &lt;b&gt;Füllung und Kontur&lt;/b&gt;-Dialog verwenden, wenn das Anwenden des Ausschnitts mit nachfolgendem Umwandeln in Pfade kein Ergebnis bringt"
       hide_clip="false"
       flatten="false"
       inverse="true"
       lpeversion="1"
       is_visible="true"
       id="path-effect906"
       effect="powerclip" />
    <inkscape:path-effect
       effect="powerclip"
       id="path-effect892"
       is_visible="true"
       lpeversion="1"
       inverse="true"
       flatten="false"
       hide_clip="false"
       message="Füllregel Gerade-Ungerade im &lt;b&gt;Füllung und Kontur&lt;/b&gt;-Dialog verwenden, wenn das Anwenden des Ausschnitts mit nachfolgendem Umwandeln in Pfade kein Ergebnis bringt" />
    <inkscape:path-effect
       effect="powerclip"
       id="path-effect888"
       is_visible="true"
       lpeversion="1"
       inverse="true"
       flatten="false"
       hide_clip="false"
       message="Füllregel Gerade-Ungerade im &lt;b&gt;Füllung und Kontur&lt;/b&gt;-Dialog verwenden, wenn das Anwenden des Ausschnitts mit nachfolgendem Umwandeln in Pfade kein Ergebnis bringt" />
    <inkscape:path-effect
       message="Füllregel Gerade-Ungerade im &lt;b&gt;Füllung und Kontur&lt;/b&gt;-Dialog verwenden, wenn das Anwenden des Ausschnitts mit nachfolgendem Umwandeln in Pfade kein Ergebnis bringt"
       hide_clip="false"
       flatten="false"
       inverse="true"
       lpeversion="1"
       is_visible="true"
       id="path-effect882"
       effect="powerclip" />
    <inkscape:path-effect
       message="Füllregel Gerade-Ungerade im &lt;b&gt;Füllung und Kontur&lt;/b&gt;-Dialog verwenden, wenn das Anwenden des Ausschnitts mit nachfolgendem Umwandeln in Pfade kein Ergebnis bringt"
       hide_clip="false"
       flatten="false"
       inverse="true"
       lpeversion="1"
       is_visible="true"
       id="path-effect878"
       effect="powerclip" />
    <inkscape:perspective
       sodipodi:type="inkscape:persp3d"
       inkscape:vp_x="0 : -14.834109 : 1"
       inkscape:vp_y="0 : 1000 : 0"
       inkscape:vp_z="72.056583 : -14.834109 : 1"
       inkscape:persp3d-origin="36.028291 : -22.565158 : 1"
       id="perspective1464" />
    <clipPath
       id="clipPath870"
       clipPathUnits="userSpaceOnUse">
      <rect
         y="131.27286"
         x="79.485077"
         height="0.98145866"
         width="3.1580248"
         id="rect872"
         style="display:block;opacity:1;fill:#000000;fill-opacity:1;stroke:none;stroke-width:2.0476;stroke-linejoin:bevel;stroke-miterlimit:4;stroke-dasharray:none;stroke-opacity:0.491166" />
    </clipPath>
    <clipPath
       id="clipPath874"
       clipPathUnits="userSpaceOnUse">
      <rect
         y="131.27286"
         x="79.485077"
         height="0.98145866"
         width="3.1580248"
         id="rect876"
         style="display:block;opacity:1;fill:#000000;fill-opacity:1;stroke:none;stroke-width:2.0476;stroke-linejoin:bevel;stroke-miterlimit:4;stroke-dasharray:none;stroke-opacity:0.491166" />
    </clipPath>
    <clipPath
       clipPathUnits="userSpaceOnUse"
       id="clipath_lpe_path-effect892">
      <rect
         style="display:block;opacity:1;fill:#000000;fill-opacity:1;stroke:none;stroke-width:2.0476;stroke-linejoin:bevel;stroke-miterlimit:4;stroke-dasharray:none;stroke-opacity:0.491166"
         id="rect894"
         width="3.1580248"
         height="0.98145866"
         x="79.485077"
         y="131.27286" />
    </clipPath>
    <clipPath
       clipPathUnits="userSpaceOnUse"
       id="clipath_lpe_path-effect888">
      <rect
         style="display:block;opacity:1;fill:#000000;fill-opacity:1;stroke:none;stroke-width:2.0476;stroke-linejoin:bevel;stroke-miterlimit:4;stroke-dasharray:none;stroke-opacity:0.491166"
         id="rect899"
         width="3.1580248"
         height="0.98145866"
         x="79.485077"
         y="131.27286" />
    </clipPath>
    <clipPath
       id="clipath_lpe_path-effect906"
       clipPathUnits="userSpaceOnUse">
      <rect
         y="131.27286"
         x="79.485077"
         height="0.98145866"
         width="3.1580248"
         id="rect908"
         style="display:block;opacity:1;fill:#000000;fill-opacity:1;stroke:none;stroke-width:2.0476;stroke-linejoin:bevel;stroke-miterlimit:4;stroke-dasharray:none;stroke-opacity:0.491166" />
    </clipPath>
    <clipPath
       clipPathUnits="userSpaceOnUse"
       id="clipath_lpe_path-effect931">
      <rect
         style="display:block;opacity:1;fill:#000000;fill-opacity:1;stroke:none;stroke-width:2.0476;stroke-linejoin:bevel;stroke-miterlimit:4;stroke-dasharray:none;stroke-opacity:0.491166"
         id="rect933"
         width="3.1580248"
         height="0.98145866"
         x="79.485077"
         y="131.27286" />
    </clipPath>
    <clipPath
       clipPathUnits="userSpaceOnUse"
       id="clipath_lpe_path-effect1059">
      <rect
         style="display:none;opacity:1;fill:#000000;fill-opacity:0.936396;stroke:none;stroke-width:1.01164;stroke-linejoin:bevel;stroke-miterlimit:4;stroke-dasharray:none;stroke-opacity:1"
         id="rect1063"
         width="3.3299165"
         height="1.2509834"
         x="46.773796"
         y="131.36899"
         transform="matrix(1,0,0.08400303,0.9964655,0,0)" />
    </clipPath>
    <clipPath
       clipPathUnits="userSpaceOnUse"
       id="clipath_lpe_path-effect1072">
      <rect
         style="display:none;opacity:1;fill:#000000;fill-opacity:0.936396;stroke:none;stroke-width:1.01164;stroke-linejoin:bevel;stroke-miterlimit:4;stroke-dasharray:none;stroke-opacity:1"
         id="rect1076"
         width="3.3299165"
         height="1.2509834"
         x="46.773796"
         y="131.36899"
         transform="matrix(1,0,0.08400303,0.9964655,0,0)" />
    </clipPath>
    <clipPath
       clipPathUnits="userSpaceOnUse"
       id="clipath_lpe_path-effect1085">
      <rect
         style="display:none;opacity:1;fill:#000000;fill-opacity:0.936396;stroke:none;stroke-width:1.01164;stroke-linejoin:bevel;stroke-miterlimit:4;stroke-dasharray:none;stroke-opacity:1"
         id="rect1089"
         width="3.3299165"
         height="1.2509834"
         x="46.773796"
         y="131.36899"
         transform="matrix(1,0,0.08400303,0.9964655,0,0)" />
    </clipPath>
    <clipPath
       id="clipPath1094"
       clipPathUnits="userSpaceOnUse">
      <rect
         d="M 46.773796,131.36899 H 50.103713 V 132.61997 H 46.773796 Z"
         transform="matrix(1,0,0.08400303,0.9964655,0,0)"
         y="131.36899"
         x="46.773796"
         height="1.2509834"
         width="3.3299165"
         id="rect1096"
         style="display:none;opacity:1;fill:#000000;fill-opacity:0.936396;stroke:none;stroke-width:1.01164;stroke-linejoin:bevel;stroke-miterlimit:4;stroke-dasharray:none;stroke-opacity:1" />
      <path
         inkscape:connector-curvature="0"
         d="M 45.639886,118.78789 H 67.251993 V 137.14693 H 45.639886 Z M 46.773796,131.36899 V 132.61997 H 50.103713 V 131.36899 Z"
         class="powerclip"
         style="fill-rule:evenodd"
         id="lpe_path-effect1098" />
    </clipPath>
  </defs>
  <sodipodi:namedview
     inkscape:window-maximized="0"
     inkscape:window-y="23"
     inkscape:window-x="0"
     inkscape:window-height="755"
     inkscape:window-width="1248"
     inkscape:snap-global="false"
     showgrid="false"
     inkscape:document-rotation="0"
     inkscape:current-layer="g911"
     inkscape:document-units="mm"
     inkscape:cy="12.201276"
     inkscape:cx="23.111885"
     inkscape:zoom="4.8391352"
     inkscape:pageshadow="2"
     inkscape:pageopacity="0.0"
     borderopacity="1.0"
     bordercolor="#666666"
     pagecolor="#ffffff"
     id="base"
     fit-margin-top="0"
     fit-margin-left="0"
     fit-margin-right="0"
     fit-margin-bottom="0" />
  <metadata
     id="metadata5576">
    <rdf:RDF>
      <cc:Work
         rdf:about="">
        <dc:format>image/svg+xml</dc:format>
        <dc:type
           rdf:resource="http://purl.org/dc/dcmitype/StillImage" />
        <dc:title></dc:title>
      </cc:Work>
    </rdf:RDF>
  </metadata>
  <g
     id="layer1"
     inkscape:groupmode="layer"
     inkscape:label="Ebene 1"
     transform="translate(-71.521468,-123.90342)">
    <g
       style="opacity:0.66184971"
       inkscape:transform-center-y="-4.1485765"
       inkscape:transform-center-x="2.7401132"
       transform="matrix(1,0,0.04598236,1,14.986997,-8.8715703)"
       id="g999">
      <g
         id="g915">
        <g
           transform="translate(-0.41380532,8.9992188)"
           id="g919">
          <path
             style="fill:#b5b5b5;fill-opacity:0.662745;stroke:#000000;stroke-width:0.1;stroke-linecap:butt;stroke-linejoin:miter;stroke-miterlimit:4;stroke-dasharray:none;stroke-opacity:1"
             d="M 50.695279,125.28443 C 54.735536,122.51701 60.25412,124.41603 62.195279,125.28443 L 61.095279,130.89693 H 60.395279 V 131.54693 C 60.240355,131.01164 59.879339,130.10857 59.495279,131.54693 V 130.89693 H 53.393219 L 53.395279,131.54693 H 53.995279 V 132.09693 H 51.795279 V 131.54693 H 52.495279 V 130.89693 H 51.795279 Z"
             id="path989"
             inkscape:connector-curvature="0"
             sodipodi:nodetypes="ccccccccccccccccc" />
          <path
             inkscape:connector-curvature="0"
             d="M 54.40988,127.8156 A 0.54236878,1.317398 76.436031 0 1 53.123161,128.62619 A 0.54236878,1.317398 76.436031 0 1 51.835968,128.32649 A 0.54236878,1.317398 76.436031 0 1 53.122686,127.51589 A 0.54236878,1.317398 76.436031 0 1 54.40988,127.8156 M 51.362775,128.98053 L 51.246773,128.60874 L 53.011741,128.25841 L 52.997497,128.65605 Z"
             style="fill:#000000;fill-opacity:1;stroke:none;stroke-width:0.128149;stroke-linejoin:bevel;stroke-miterlimit:4;stroke-dasharray:none;stroke-opacity:0.491166"
             id="path995" />
        </g>
      </g>
    </g>
    <g
       style="opacity:0.4017341"
       inkscape:transform-center-y="-4.1485765"
       inkscape:transform-center-x="3.2113098"
       id="g1023"
       transform="matrix(1,0,0.1149559,1,5.938314,-17.360195)">
      <g
         transform="translate(-2.0103308,17.487843)"
         id="g923">
        <path
           style="fill:#b4b4b4;fill-opacity:0.4;stroke:#000000;stroke-width:0.1;stroke-linecap:butt;stroke-linejoin:miter;stroke-miterlimit:4;stroke-dasharray:none;stroke-opacity:1"
           d="M 50.695279,125.28443 C 54.735536,122.51701 60.25412,124.41603 62.195279,125.28443 L 61.095279,130.89693 H 60.395279 V 131.54693 H 61.095279 V 132.09693 H 58.895279 V 131.54693 H 59.495279 V 130.89693 H 53.393219 L 53.395279,131.54693 H 53.995279 V 132.09693 H 51.795279 V 131.54693 H 52.495279 V 130.89693 H 51.795279 Z"
           id="path1013"
           inkscape:connector-curvature="0"
           sodipodi:nodetypes="ccccccccccccccccccccc" />
        <path
           inkscape:connector-curvature="0"
           d="M 54.460241,127.56539 A 0.52819206,1.3527571 74.384902 0 1 53.151464,128.4177 A 0.52819206,1.3527571 74.384902 0 1 51.839115,128.18046 A 0.52819206,1.3527571 74.384902 0 1 53.147893,127.32815 A 0.52819206,1.3527571 74.384902 0 1 54.460241,127.56539 M 51.358801,128.84319 L 51.239573,128.48346 L 53.036916,128.0617 L 53.023509,128.45255 Z"
           style="fill:#000000;fill-opacity:1;stroke:none;stroke-width:0.128149;stroke-linejoin:bevel;stroke-miterlimit:4;stroke-dasharray:none;stroke-opacity:0.491166"
           id="path1019" />
      </g>
    </g>
    <g
       style="opacity:0.66185"
       inkscape:transform-center-y="-4.1485765"
       inkscape:transform-center-x="1.8500745"
       id="g1011"
       transform="matrix(1,0,-0.08430099,1,31.891032,8.3865283)">
      <g
         transform="translate(-0.33347447,-8.2458806)"
         id="g907">
        <path
           style="fill:#b5b5b5;fill-opacity:1;stroke:#000000;stroke-width:0.1;stroke-linecap:butt;stroke-linejoin:miter;stroke-miterlimit:4;stroke-dasharray:none;stroke-opacity:1"
           d="M 50.695279,125.28443 C 54.735536,122.51701 60.25412,124.41603 62.195279,125.28443 L 61.095279,130.89693 H 60.395279 V 131.54693 C 60.172547,131.45214 59.757375,131.37984 59.495279,131.54693 V 130.89693 H 53.393219 L 53.395279,131.54693 H 53.995279 V 132.09693 H 51.795279 V 131.54693 H 52.495279 V 130.89693 H 51.795279 Z"
           id="path1001"
           inkscape:connector-curvature="0"
           sodipodi:nodetypes="ccccccccccccccccc"
           inkscape:original-d="M 50.695279,125.28443 C 54.735536,122.51701 60.25412,124.41603 62.195279,125.28443 L 61.095279,130.89693 H 60.395279 V 131.54693 C 60.172547,131.45214 59.757375,131.37984 59.495279,131.54693 V 130.89693 H 53.393219 L 53.395279,131.54693 H 53.995279 V 132.09693 H 51.795279 V 131.54693 H 52.495279 V 130.89693 H 51.795279 Z"
           clip-path="url(#clipPath1094)"
           inkscape:path-effect="#path-effect1098" />
        <path
           inkscape:connector-curvature="0"
           id="path1009"
           style="fill:#000000;fill-opacity:1;stroke:none;stroke-width:0.128149;stroke-linejoin:bevel;stroke-miterlimit:4;stroke-dasharray:none;stroke-opacity:0.491166"
           d="M 58.390575,127.77315 A 1.3262355,0.53875466 13.297623 0 0 59.686395,128.57793 A 1.3262355,0.53875466 13.297623 0 0 60.9838,128.2809 A 1.3262355,0.53875466 13.297623 0 0 59.68798,127.47612 A 1.3262355,0.53875466 13.297623 0 0 58.390575,127.77315 M 61.459984,128.93008 L 61.57725,128.56117 L 59.79904,128.21299 L 59.812997,128.6076 Z" />
      </g>
    </g>
    <g
       style="opacity:0.401734"
       inkscape:transform-center-y="-4.1485765"
       inkscape:transform-center-x="1.5997674"
       id="g1035"
       transform="matrix(1,0,-0.13028335,1,38.284098,7.9646626)">
      <g
         transform="translate(-0.93636879,-7.8225423)"
         id="g911">
        <path
           style="fill:#b5b5b5;fill-opacity:1;stroke:#000000;stroke-width:0.1;stroke-linecap:butt;stroke-linejoin:miter;stroke-miterlimit:4;stroke-dasharray:none;stroke-opacity:1"
           d="M 50.695279,125.28443 C 54.735536,122.51701 60.25412,124.41603 62.195279,125.28443 L 61.095279,130.89693 H 60.395279 V 131.54693 C 60.395279,131.54693 59.721863,130.89594 59.495279,131.54693 V 130.89693 H 53.393219 L 53.395279,131.54693 H 53.995279 V 132.09693 H 51.795279 V 131.54693 H 52.495279 V 130.89693 H 51.795279 Z"
           id="path1025"
           inkscape:connector-curvature="0"
           sodipodi:nodetypes="ccccccccccccccccc" />
        <path
           inkscape:connector-curvature="0"
           id="path1033"
           style="fill:#000000;fill-opacity:1;stroke:none;stroke-width:0.128149;stroke-linejoin:bevel;stroke-miterlimit:4;stroke-dasharray:none;stroke-opacity:0.491166"
           d="M 58.361614,127.90385 A 1.3375285,0.53420587 13.095347 0 0 59.668071,128.704 A 1.3375285,0.53420587 13.095347 0 0 60.978323,128.41266 A 1.3375285,0.53420587 13.095347 0 0 59.671866,127.61251 A 1.3375285,0.53420587 13.095347 0 0 58.361614,127.90385 M 61.457713,129.05682 L 61.576821,128.69163 L 59.782507,128.34273 L 59.79581,128.73367 Z" />
      </g>
    </g>
    <g
       transform="translate(21.125826,0.12764849)"
       id="g975">
      <path
         style="fill:#ffffff;stroke:#000000;stroke-width:0.1;stroke-linecap:butt;stroke-linejoin:miter;stroke-miterlimit:4;stroke-dasharray:none;stroke-opacity:1;fill-opacity:1"
         d="M 50.695279,125.28443 C 54.735536,122.51701 60.25412,124.41603 62.195279,125.28443 L 61.095279,130.89693 H 60.395279 V 131.54693 H 61.095279 V 132.09693 H 58.895279 V 131.54693 H 59.495279 V 130.89693 H 53.393219 L 53.395279,131.54693 H 53.995279 V 132.09693 H 51.795279 V 131.54693 H 52.495279 V 130.89693 H 51.795279 Z"
         id="path1503"
         inkscape:connector-curvature="0"
         sodipodi:nodetypes="ccccccccccccccccccccc" />
      <g
         transform="translate(-26.155356,-0.20648966)"
         id="g1507">
        <path
           inkscape:connector-curvature="0"
           id="path1505"
           style="opacity:1;fill:#000000;fill-opacity:1;stroke:none;stroke-width:0.1;stroke-linejoin:bevel;stroke-miterlimit:4;stroke-dasharray:none;stroke-opacity:0.491166"
           d="M 84.192362,127.46653 A 1.4507656,0.23685968 0 0 1 82.741597,127.70339 A 1.4507656,0.23685968 0 0 1 81.290831,127.46653 A 1.4507656,0.23685968 0 0 1 82.741597,127.22967 A 1.4507656,0.23685968 0 0 1 84.192362,127.46653 Z M 84.511886,127.12604 A 0.75870019,0.49743354 0 0 1 83.753186,127.62348 A 0.75870019,0.49743354 0 0 1 82.994486,127.12604 A 0.75870019,0.49743354 0 0 1 83.753186,126.62861 A 0.75870019,0.49743354 0 0 1 84.511886,127.12604 M 82.384811,127.12604 A 0.75870019,0.49743354 0 0 1 81.626111,127.62348 A 0.75870019,0.49743354 0 0 1 80.86741,127.12604 A 0.75870019,0.49743354 0 0 1 81.626111,126.62861 A 0.75870019,0.49743354 0 0 1 82.384811,127.12604" />
      </g>
      <path
         inkscape:connector-curvature="0"
         d="M 54.395481,128.12873 A 1.2752097,0.56031221 0 0 1 53.120271,128.68904 A 1.2752097,0.56031221 0 0 1 51.845061,128.12873 A 1.2752097,0.56031221 0 0 1 53.120271,127.56842 A 1.2752097,0.56031221 0 0 1 54.395481,128.12873 M 51.37595,128.694 L 51.261174,128.29555 H 53.010033 L 52.995752,128.694 Z"
         style="fill:#000000;fill-opacity:1;stroke:none;stroke-width:0.128149;stroke-linejoin:bevel;stroke-miterlimit:4;stroke-dasharray:none;stroke-opacity:0.491166"
         id="path1509" />
      <path
         inkscape:connector-curvature="0"
         id="path1511"
         style="fill:#000000;fill-opacity:1;stroke:none;stroke-width:0.128149;stroke-linejoin:bevel;stroke-miterlimit:4;stroke-dasharray:none;stroke-opacity:0.491166"
         d="M 58.495672,128.12873 A 1.2752097,0.56031221 0 0 0 59.770882,128.68904 A 1.2752097,0.56031221 0 0 0 61.046092,128.12873 A 1.2752097,0.56031221 0 0 0 59.770882,127.56842 A 1.2752097,0.56031221 0 0 0 58.495672,128.12873 M 61.515203,128.694 L 61.629979,128.29555 H 59.88112 L 59.895401,128.694 Z" />
    </g>
  </g>
</svg>
