<?xml version="1.0" encoding="UTF-8" standalone="no"?>
<svg width="352px" height="121px" viewBox="0 0 352 121"
 xmlns="http://www.w3.org/2000/svg" xmlns:xlink="http://www.w3.org/1999/xlink" version="1.2" baseProfile="tiny">
<title>Teiltöne über kontra-G</title>
<desc>Generated by MuseScore 2.2.1</desc>
<polyline class="" fill="none" stroke="#000000" stroke-width="0.40" stroke-linejoin="bevel" points="16.5867,14.7125 76.1536,14.7125"/>
<polyline class="" fill="none" stroke="#000000" stroke-width="0.40" stroke-linejoin="bevel" points="16.5867,19.7128 76.1536,19.7128"/>
<polyline class="" fill="none" stroke="#000000" stroke-width="0.40" stroke-linejoin="bevel" points="16.5867,24.7131 76.1536,24.7131"/>
<polyline class="" fill="none" stroke="#000000" stroke-width="0.40" stroke-linejoin="bevel" points="16.5867,29.7134 76.1536,29.7134"/>
<polyline class="" fill="none" stroke="#000000" stroke-width="0.40" stroke-linejoin="bevel" points="16.5867,34.7137 76.1536,34.7137"/>
<polyline class="" fill="none" stroke="#000000" stroke-width="0.40" stroke-linejoin="bevel" points="76.1536,14.7125 106.382,14.7125"/>
<polyline class="" fill="none" stroke="#000000" stroke-width="0.40" stroke-linejoin="bevel" points="76.1536,19.7128 106.382,19.7128"/>
<polyline class="" fill="none" stroke="#000000" stroke-width="0.40" stroke-linejoin="bevel" points="76.1536,24.7131 106.382,24.7131"/>
<polyline class="" fill="none" stroke="#000000" stroke-width="0.40" stroke-linejoin="bevel" points="76.1536,29.7134 106.382,29.7134"/>
<polyline class="" fill="none" stroke="#000000" stroke-width="0.40" stroke-linejoin="bevel" points="76.1536,34.7137 106.382,34.7137"/>
<polyline class="" fill="none" stroke="#000000" stroke-width="0.40" stroke-linejoin="bevel" points="106.382,14.7125 136.61,14.7125"/>
<polyline class="" fill="none" stroke="#000000" stroke-width="0.40" stroke-linejoin="bevel" points="106.382,19.7128 136.61,19.7128"/>
<polyline class="" fill="none" stroke="#000000" stroke-width="0.40" stroke-linejoin="bevel" points="106.382,24.7131 136.61,24.7131"/>
<polyline class="" fill="none" stroke="#000000" stroke-width="0.40" stroke-linejoin="bevel" points="106.382,29.7134 136.61,29.7134"/>
<polyline class="" fill="none" stroke="#000000" stroke-width="0.40" stroke-linejoin="bevel" points="106.382,34.7137 136.61,34.7137"/>
<polyline class="" fill="none" stroke="#000000" stroke-width="0.40" stroke-linejoin="bevel" points="166.839,14.7125 197.067,14.7125"/>
<polyline class="" fill="none" stroke="#000000" stroke-width="0.40" stroke-linejoin="bevel" points="166.839,19.7128 197.067,19.7128"/>
<polyline class="" fill="none" stroke="#000000" stroke-width="0.40" stroke-linejoin="bevel" points="166.839,24.7131 197.067,24.7131"/>
<polyline class="" fill="none" stroke="#000000" stroke-width="0.40" stroke-linejoin="bevel" points="166.839,29.7134 197.067,29.7134"/>
<polyline class="" fill="none" stroke="#000000" stroke-width="0.40" stroke-linejoin="bevel" points="166.839,34.7137 197.067,34.7137"/>
<polyline class="" fill="none" stroke="#000000" stroke-width="0.40" stroke-linejoin="bevel" points="136.61,14.7125 166.839,14.7125"/>
<polyline class="" fill="none" stroke="#000000" stroke-width="0.40" stroke-linejoin="bevel" points="136.61,19.7128 166.839,19.7128"/>
<polyline class="" fill="none" stroke="#000000" stroke-width="0.40" stroke-linejoin="bevel" points="136.61,24.7131 166.839,24.7131"/>
<polyline class="" fill="none" stroke="#000000" stroke-width="0.40" stroke-linejoin="bevel" points="136.61,29.7134 166.839,29.7134"/>
<polyline class="" fill="none" stroke="#000000" stroke-width="0.40" stroke-linejoin="bevel" points="136.61,34.7137 166.839,34.7137"/>
<polyline class="" fill="none" stroke="#000000" stroke-width="0.40" stroke-linejoin="bevel" points="227.296,14.7125 258.119,14.7125"/>
<polyline class="" fill="none" stroke="#000000" stroke-width="0.40" stroke-linejoin="bevel" points="227.296,19.7128 258.119,19.7128"/>
<polyline class="" fill="none" stroke="#000000" stroke-width="0.40" stroke-linejoin="bevel" points="227.296,24.7131 258.119,24.7131"/>
<polyline class="" fill="none" stroke="#000000" stroke-width="0.40" stroke-linejoin="bevel" points="227.296,29.7134 258.119,29.7134"/>
<polyline class="" fill="none" stroke="#000000" stroke-width="0.40" stroke-linejoin="bevel" points="227.296,34.7137 258.119,34.7137"/>
<polyline class="" fill="none" stroke="#000000" stroke-width="0.40" stroke-linejoin="bevel" points="197.067,14.7125 227.296,14.7125"/>
<polyline class="" fill="none" stroke="#000000" stroke-width="0.40" stroke-linejoin="bevel" points="197.067,19.7128 227.296,19.7128"/>
<polyline class="" fill="none" stroke="#000000" stroke-width="0.40" stroke-linejoin="bevel" points="197.067,24.7131 227.296,24.7131"/>
<polyline class="" fill="none" stroke="#000000" stroke-width="0.40" stroke-linejoin="bevel" points="197.067,29.7134 227.296,29.7134"/>
<polyline class="" fill="none" stroke="#000000" stroke-width="0.40" stroke-linejoin="bevel" points="197.067,34.7137 227.296,34.7137"/>
<polyline class="" fill="none" stroke="#000000" stroke-width="0.40" stroke-linejoin="bevel" points="288.347,14.7125 318.575,14.7125"/>
<polyline class="" fill="none" stroke="#000000" stroke-width="0.40" stroke-linejoin="bevel" points="288.347,19.7128 318.575,19.7128"/>
<polyline class="" fill="none" stroke="#000000" stroke-width="0.40" stroke-linejoin="bevel" points="288.347,24.7131 318.575,24.7131"/>
<polyline class="" fill="none" stroke="#000000" stroke-width="0.40" stroke-linejoin="bevel" points="288.347,29.7134 318.575,29.7134"/>
<polyline class="" fill="none" stroke="#000000" stroke-width="0.40" stroke-linejoin="bevel" points="288.347,34.7137 318.575,34.7137"/>
<polyline class="" fill="none" stroke="#000000" stroke-width="0.40" stroke-linejoin="bevel" points="258.119,14.7125 288.347,14.7125"/>
<polyline class="" fill="none" stroke="#000000" stroke-width="0.40" stroke-linejoin="bevel" points="258.119,19.7128 288.347,19.7128"/>
<polyline class="" fill="none" stroke="#000000" stroke-width="0.40" stroke-linejoin="bevel" points="258.119,24.7131 288.347,24.7131"/>
<polyline class="" fill="none" stroke="#000000" stroke-width="0.40" stroke-linejoin="bevel" points="258.119,29.7134 288.347,29.7134"/>
<polyline class="" fill="none" stroke="#000000" stroke-width="0.40" stroke-linejoin="bevel" points="258.119,34.7137 288.347,34.7137"/>
<polyline class="" fill="none" stroke="#000000" stroke-width="0.40" stroke-linejoin="bevel" points="318.575,14.7125 348.804,14.7125"/>
<polyline class="" fill="none" stroke="#000000" stroke-width="0.40" stroke-linejoin="bevel" points="318.575,19.7128 348.804,19.7128"/>
<polyline class="" fill="none" stroke="#000000" stroke-width="0.40" stroke-linejoin="bevel" points="318.575,24.7131 348.804,24.7131"/>
<polyline class="" fill="none" stroke="#000000" stroke-width="0.40" stroke-linejoin="bevel" points="318.575,29.7134 348.804,29.7134"/>
<polyline class="" fill="none" stroke="#000000" stroke-width="0.40" stroke-linejoin="bevel" points="318.575,34.7137 348.804,34.7137"/>
<polyline class="" fill="none" stroke="#000000" stroke-width="0.40" stroke-linejoin="bevel" points="348.804,14.7125 378.289,14.7125"/>
<polyline class="" fill="none" stroke="#000000" stroke-width="0.40" stroke-linejoin="bevel" points="348.804,19.7128 378.289,19.7128"/>
<polyline class="" fill="none" stroke="#000000" stroke-width="0.40" stroke-linejoin="bevel" points="348.804,24.7131 378.289,24.7131"/>
<polyline class="" fill="none" stroke="#000000" stroke-width="0.40" stroke-linejoin="bevel" points="348.804,29.7134 378.289,29.7134"/>
<polyline class="" fill="none" stroke="#000000" stroke-width="0.40" stroke-linejoin="bevel" points="348.804,34.7137 378.289,34.7137"/>
<polyline class="" fill="none" stroke="#000000" stroke-width="0.40" stroke-linejoin="bevel" points="16.5867,67.2158 76.1536,67.2158"/>
<polyline class="" fill="none" stroke="#000000" stroke-width="0.40" stroke-linejoin="bevel" points="16.5867,72.2161 76.1536,72.2161"/>
<polyline class="" fill="none" stroke="#000000" stroke-width="0.40" stroke-linejoin="bevel" points="16.5867,77.2164 76.1536,77.2164"/>
<polyline class="" fill="none" stroke="#000000" stroke-width="0.40" stroke-linejoin="bevel" points="16.5867,82.2167 76.1536,82.2167"/>
<polyline class="" fill="none" stroke="#000000" stroke-width="0.40" stroke-linejoin="bevel" points="16.5867,87.217 76.1536,87.217"/>
<polyline class="" fill="none" stroke="#000000" stroke-width="0.40" stroke-linejoin="bevel" points="76.1536,67.2158 106.382,67.2158"/>
<polyline class="" fill="none" stroke="#000000" stroke-width="0.40" stroke-linejoin="bevel" points="76.1536,72.2161 106.382,72.2161"/>
<polyline class="" fill="none" stroke="#000000" stroke-width="0.40" stroke-linejoin="bevel" points="76.1536,77.2164 106.382,77.2164"/>
<polyline class="" fill="none" stroke="#000000" stroke-width="0.40" stroke-linejoin="bevel" points="76.1536,82.2167 106.382,82.2167"/>
<polyline class="" fill="none" stroke="#000000" stroke-width="0.40" stroke-linejoin="bevel" points="76.1536,87.217 106.382,87.217"/>
<polyline class="" fill="none" stroke="#000000" stroke-width="0.40" stroke-linejoin="bevel" points="106.382,67.2158 136.61,67.2158"/>
<polyline class="" fill="none" stroke="#000000" stroke-width="0.40" stroke-linejoin="bevel" points="106.382,72.2161 136.61,72.2161"/>
<polyline class="" fill="none" stroke="#000000" stroke-width="0.40" stroke-linejoin="bevel" points="106.382,77.2164 136.61,77.2164"/>
<polyline class="" fill="none" stroke="#000000" stroke-width="0.40" stroke-linejoin="bevel" points="106.382,82.2167 136.61,82.2167"/>
<polyline class="" fill="none" stroke="#000000" stroke-width="0.40" stroke-linejoin="bevel" points="106.382,87.217 136.61,87.217"/>
<polyline class="" fill="none" stroke="#000000" stroke-width="0.40" stroke-linejoin="bevel" points="166.839,67.2158 197.067,67.2158"/>
<polyline class="" fill="none" stroke="#000000" stroke-width="0.40" stroke-linejoin="bevel" points="166.839,72.2161 197.067,72.2161"/>
<polyline class="" fill="none" stroke="#000000" stroke-width="0.40" stroke-linejoin="bevel" points="166.839,77.2164 197.067,77.2164"/>
<polyline class="" fill="none" stroke="#000000" stroke-width="0.40" stroke-linejoin="bevel" points="166.839,82.2167 197.067,82.2167"/>
<polyline class="" fill="none" stroke="#000000" stroke-width="0.40" stroke-linejoin="bevel" points="166.839,87.217 197.067,87.217"/>
<polyline class="" fill="none" stroke="#000000" stroke-width="0.40" stroke-linejoin="bevel" points="136.61,67.2158 166.839,67.2158"/>
<polyline class="" fill="none" stroke="#000000" stroke-width="0.40" stroke-linejoin="bevel" points="136.61,72.2161 166.839,72.2161"/>
<polyline class="" fill="none" stroke="#000000" stroke-width="0.40" stroke-linejoin="bevel" points="136.61,77.2164 166.839,77.2164"/>
<polyline class="" fill="none" stroke="#000000" stroke-width="0.40" stroke-linejoin="bevel" points="136.61,82.2167 166.839,82.2167"/>
<polyline class="" fill="none" stroke="#000000" stroke-width="0.40" stroke-linejoin="bevel" points="136.61,87.217 166.839,87.217"/>
<polyline class="" fill="none" stroke="#000000" stroke-width="0.40" stroke-linejoin="bevel" points="227.296,67.2158 258.119,67.2158"/>
<polyline class="" fill="none" stroke="#000000" stroke-width="0.40" stroke-linejoin="bevel" points="227.296,72.2161 258.119,72.2161"/>
<polyline class="" fill="none" stroke="#000000" stroke-width="0.40" stroke-linejoin="bevel" points="227.296,77.2164 258.119,77.2164"/>
<polyline class="" fill="none" stroke="#000000" stroke-width="0.40" stroke-linejoin="bevel" points="227.296,82.2167 258.119,82.2167"/>
<polyline class="" fill="none" stroke="#000000" stroke-width="0.40" stroke-linejoin="bevel" points="227.296,87.217 258.119,87.217"/>
<polyline class="" fill="none" stroke="#000000" stroke-width="0.40" stroke-linejoin="bevel" points="197.067,67.2158 227.296,67.2158"/>
<polyline class="" fill="none" stroke="#000000" stroke-width="0.40" stroke-linejoin="bevel" points="197.067,72.2161 227.296,72.2161"/>
<polyline class="" fill="none" stroke="#000000" stroke-width="0.40" stroke-linejoin="bevel" points="197.067,77.2164 227.296,77.2164"/>
<polyline class="" fill="none" stroke="#000000" stroke-width="0.40" stroke-linejoin="bevel" points="197.067,82.2167 227.296,82.2167"/>
<polyline class="" fill="none" stroke="#000000" stroke-width="0.40" stroke-linejoin="bevel" points="197.067,87.217 227.296,87.217"/>
<polyline class="" fill="none" stroke="#000000" stroke-width="0.40" stroke-linejoin="bevel" points="288.347,67.2158 318.575,67.2158"/>
<polyline class="" fill="none" stroke="#000000" stroke-width="0.40" stroke-linejoin="bevel" points="288.347,72.2161 318.575,72.2161"/>
<polyline class="" fill="none" stroke="#000000" stroke-width="0.40" stroke-linejoin="bevel" points="288.347,77.2164 318.575,77.2164"/>
<polyline class="" fill="none" stroke="#000000" stroke-width="0.40" stroke-linejoin="bevel" points="288.347,82.2167 318.575,82.2167"/>
<polyline class="" fill="none" stroke="#000000" stroke-width="0.40" stroke-linejoin="bevel" points="288.347,87.217 318.575,87.217"/>
<polyline class="" fill="none" stroke="#000000" stroke-width="0.40" stroke-linejoin="bevel" points="258.119,67.2158 288.347,67.2158"/>
<polyline class="" fill="none" stroke="#000000" stroke-width="0.40" stroke-linejoin="bevel" points="258.119,72.2161 288.347,72.2161"/>
<polyline class="" fill="none" stroke="#000000" stroke-width="0.40" stroke-linejoin="bevel" points="258.119,77.2164 288.347,77.2164"/>
<polyline class="" fill="none" stroke="#000000" stroke-width="0.40" stroke-linejoin="bevel" points="258.119,82.2167 288.347,82.2167"/>
<polyline class="" fill="none" stroke="#000000" stroke-width="0.40" stroke-linejoin="bevel" points="258.119,87.217 288.347,87.217"/>
<polyline class="" fill="none" stroke="#000000" stroke-width="0.40" stroke-linejoin="bevel" points="318.575,67.2158 348.804,67.2158"/>
<polyline class="" fill="none" stroke="#000000" stroke-width="0.40" stroke-linejoin="bevel" points="318.575,72.2161 348.804,72.2161"/>
<polyline class="" fill="none" stroke="#000000" stroke-width="0.40" stroke-linejoin="bevel" points="318.575,77.2164 348.804,77.2164"/>
<polyline class="" fill="none" stroke="#000000" stroke-width="0.40" stroke-linejoin="bevel" points="318.575,82.2167 348.804,82.2167"/>
<polyline class="" fill="none" stroke="#000000" stroke-width="0.40" stroke-linejoin="bevel" points="318.575,87.217 348.804,87.217"/>
<polyline class="" fill="none" stroke="#000000" stroke-width="0.40" stroke-linejoin="bevel" points="348.804,67.2158 378.289,67.2158"/>
<polyline class="" fill="none" stroke="#000000" stroke-width="0.40" stroke-linejoin="bevel" points="348.804,72.2161 378.289,72.2161"/>
<polyline class="" fill="none" stroke="#000000" stroke-width="0.40" stroke-linejoin="bevel" points="348.804,77.2164 378.289,77.2164"/>
<polyline class="" fill="none" stroke="#000000" stroke-width="0.40" stroke-linejoin="bevel" points="348.804,82.2167 378.289,82.2167"/>
<polyline class="" fill="none" stroke="#000000" stroke-width="0.40" stroke-linejoin="bevel" points="348.804,87.217 378.289,87.217"/>
<path class="" d="M230.814,41.3939 L230.814,42.9368 C230.814,43.4837 230.84,43.9199 230.892,44.2454 C231.322,43.8809 231.628,43.6074 231.81,43.4251 C232.018,43.2168 232.227,42.9303 232.435,42.5658 C232.643,42.2012 232.747,41.8366 232.747,41.472 C232.747,41.1074 232.669,40.7949 232.513,40.5345 C232.357,40.2741 232.148,40.1439 231.888,40.1439 C231.575,40.1439 231.315,40.2611 231.107,40.4954 C230.911,40.7559 230.814,41.0553 230.814,41.3939 M229.993,44.9681 L229.74,33.0736 C229.922,32.9694 230.104,32.9173 230.286,32.9173 C230.469,32.9173 230.651,32.9694 230.833,33.0736 L230.677,39.9681 C231.211,39.5124 231.823,39.2845 232.513,39.2845 C233.021,39.2845 233.444,39.4928 233.782,39.9095 C234.121,40.3262 234.29,40.8014 234.29,41.3353 C234.29,41.6738 234.18,42.0319 233.958,42.4095 C233.75,42.7611 233.529,43.0345 233.294,43.2298 C233.164,43.334 232.832,43.5944 232.298,44.0111 C232.142,44.1283 231.956,44.265 231.741,44.4212 C231.527,44.5775 231.393,44.6751 231.341,44.7142 C231.25,44.7663 231.165,44.8704 231.087,45.0267 C230.996,45.1569 230.892,45.2676 230.775,45.3587 C230.684,45.4368 230.573,45.4759 230.443,45.4759 C230.312,45.4759 230.208,45.4303 230.13,45.3392 C230.039,45.248 229.993,45.1243 229.993,44.9681"/>
<polyline class="" fill="none" stroke="#000000" stroke-width="0.80" stroke-linecap="square" stroke-linejoin="bevel" points="234.93,39.714 247.834,39.714"/>
<polyline class="" fill="none" stroke="#000000" stroke-width="0.80" stroke-linecap="square" stroke-linejoin="bevel" points="262.619,39.714 275.523,39.714"/>
<polyline class="" fill="none" stroke="#000000" stroke-width="0.80" stroke-linecap="square" stroke-linejoin="bevel" points="80.6539,92.2173 93.5579,92.2173"/>
<polyline class="" fill="none" stroke="#000000" stroke-width="0.80" stroke-linecap="square" stroke-linejoin="bevel" points="80.6539,97.2177 93.5579,97.2177"/>
<polyline class="" fill="none" stroke="#000000" stroke-width="0.80" stroke-linecap="square" stroke-linejoin="bevel" points="53.7656,92.2173 66.6695,92.2173"/>
<polyline class="" fill="none" stroke="#000000" stroke-width="0.80" stroke-linecap="square" stroke-linejoin="bevel" points="53.7656,97.2177 66.6695,97.2177"/>
<polyline class="" fill="none" stroke="#000000" stroke-width="0.80" stroke-linecap="square" stroke-linejoin="bevel" points="53.7656,102.218 66.6695,102.218"/>
<polyline class="" fill="none" stroke="#000000" stroke-width="0.80" stroke-linecap="square" stroke-linejoin="bevel" points="53.7656,107.218 66.6695,107.218"/>
<polyline class="" fill="none" stroke="#000000" stroke-width="0.80" stroke-linecap="square" stroke-linejoin="bevel" points="53.7656,112.219 66.6695,112.219"/>
<path class="" d="M240.727,39.9681 C240.259,39.9681 239.92,40.1309 239.712,40.4564 C239.477,40.7689 239.36,41.1921 239.36,41.7259 C239.36,42.3379 239.523,42.8652 239.849,43.3079 C240.174,43.7376 240.532,44.0371 240.923,44.2064 C241.274,44.3757 241.645,44.4603 242.036,44.4603 C242.492,44.4603 242.837,44.2975 243.071,43.972 C243.293,43.6465 243.403,43.2233 243.403,42.7025 C243.403,42.0905 243.24,41.5632 242.915,41.1204 C242.589,40.7038 242.238,40.4043 241.86,40.222 C241.483,40.0527 241.105,39.9681 240.727,39.9681 M241.391,39.4603 C242.798,39.4603 243.97,39.7337 244.907,40.2806 C245.858,40.8275 246.333,41.472 246.333,42.2142 C246.333,43.0085 245.845,43.6595 244.868,44.1673 C243.891,44.7012 242.733,44.9681 241.391,44.9681 C240.011,44.9681 238.839,44.6947 237.876,44.1478 C236.912,43.6009 236.431,42.9564 236.431,42.2142 C236.431,41.4199 236.925,40.7689 237.915,40.2611 C238.891,39.7272 240.05,39.4603 241.391,39.4603"/>
<path class="" d="M268.416,37.4679 C267.947,37.4679 267.609,37.6307 267.4,37.9562 C267.166,38.2687 267.049,38.6919 267.049,39.2258 C267.049,39.8377 267.211,40.3651 267.537,40.8078 C267.862,41.2375 268.221,41.537 268.611,41.7062 C268.963,41.8755 269.334,41.9601 269.724,41.9601 C270.18,41.9601 270.525,41.7974 270.76,41.4718 C270.981,41.1463 271.092,40.7231 271.092,40.2023 C271.092,39.5903 270.929,39.063 270.603,38.6203 C270.278,38.2036 269.926,37.9041 269.549,37.7218 C269.171,37.5526 268.793,37.4679 268.416,37.4679 M269.08,36.9601 C270.486,36.9601 271.658,37.2336 272.596,37.7804 C273.546,38.3273 274.021,38.9718 274.021,39.714 C274.021,40.5083 273.533,41.1593 272.556,41.6672 C271.58,42.201 270.421,42.4679 269.08,42.4679 C267.7,42.4679 266.528,42.1945 265.564,41.6476 C264.601,41.1008 264.119,40.4562 264.119,39.714 C264.119,38.9198 264.614,38.2687 265.603,37.7609 C266.58,37.2271 267.739,36.9601 269.08,36.9601"/>
<path class="" d="M328.873,32.4676 C328.404,32.4676 328.065,32.6304 327.857,32.9559 C327.623,33.2684 327.505,33.6916 327.505,34.2254 C327.505,34.8374 327.668,35.3648 327.994,35.8075 C328.319,36.2372 328.677,36.5366 329.068,36.7059 C329.419,36.8752 329.791,36.9598 330.181,36.9598 C330.637,36.9598 330.982,36.7971 331.216,36.4715 C331.438,36.146 331.548,35.7228 331.548,35.202 C331.548,34.59 331.386,34.0627 331.06,33.62 C330.735,33.2033 330.383,32.9038 330.005,32.7215 C329.628,32.5523 329.25,32.4676 328.873,32.4676 M329.537,31.9598 C330.943,31.9598 332.115,32.2333 333.052,32.7801 C334.003,33.327 334.478,33.9715 334.478,34.7137 C334.478,35.508 333.99,36.159 333.013,36.6668 C332.037,37.2007 330.878,37.4676 329.537,37.4676 C328.156,37.4676 326.985,37.1942 326.021,36.6473 C325.058,36.1004 324.576,35.4559 324.576,34.7137 C324.576,33.9194 325.071,33.2684 326.06,32.7606 C327.037,32.2267 328.196,31.9598 329.537,31.9598"/>
<path class="" d="M298.644,34.9678 C298.175,34.9678 297.837,35.1305 297.629,35.4561 C297.394,35.7686 297.277,36.1917 297.277,36.7256 C297.277,37.3376 297.44,37.8649 297.765,38.3076 C298.091,38.7373 298.449,39.0368 298.84,39.2061 C299.191,39.3753 299.562,39.46 299.953,39.46 C300.409,39.46 300.754,39.2972 300.988,38.9717 C301.209,38.6462 301.32,38.223 301.32,37.7022 C301.32,37.0902 301.157,36.5628 300.832,36.1201 C300.506,35.7035 300.155,35.404 299.777,35.2217 C299.399,35.0524 299.022,34.9678 298.644,34.9678 M299.308,34.46 C300.715,34.46 301.886,34.7334 302.824,35.2803 C303.774,35.8272 304.25,36.4717 304.25,37.2139 C304.25,38.0081 303.761,38.6592 302.785,39.167 C301.808,39.7009 300.649,39.9678 299.308,39.9678 C297.928,39.9678 296.756,39.6943 295.793,39.1475 C294.829,38.6006 294.347,37.9561 294.347,37.2139 C294.347,36.4196 294.842,35.7686 295.832,35.2608 C296.808,34.7269 297.967,34.46 299.308,34.46"/>
<path class="" d="M86.4509,94.9716 C85.9821,94.9716 85.6436,95.1343 85.4353,95.4598 C85.2009,95.7723 85.0837,96.1955 85.0837,96.7294 C85.0837,97.3414 85.2465,97.8687 85.572,98.3114 C85.8975,98.7411 86.2556,99.0406 86.6462,99.2098 C86.9978,99.3791 87.3689,99.4638 87.7595,99.4638 C88.2152,99.4638 88.5603,99.301 88.7946,98.9755 C89.016,98.6499 89.1267,98.2268 89.1267,97.7059 C89.1267,97.094 88.9639,96.5666 88.6384,96.1239 C88.3129,95.7072 87.9613,95.4078 87.5837,95.2255 C87.2061,95.0562 86.8285,94.9716 86.4509,94.9716 M87.115,94.4638 C88.5212,94.4638 89.6931,94.7372 90.6306,95.2841 C91.5811,95.8309 92.0564,96.4755 92.0564,97.2177 C92.0564,98.0119 91.5681,98.663 90.5915,99.1708 C89.615,99.7046 88.4561,99.9716 87.115,99.9716 C85.7347,99.9716 84.5629,99.6981 83.5993,99.1513 C82.6358,98.6044 82.154,97.9598 82.154,97.2177 C82.154,96.4234 82.6488,95.7723 83.6384,95.2645 C84.615,94.7307 85.7738,94.4638 87.115,94.4638"/>
<path class="" d="M59.5625,112.473 C59.0938,112.473 58.7553,112.635 58.5469,112.961 C58.3125,113.273 58.1954,113.697 58.1954,114.23 C58.1954,114.842 58.3581,115.37 58.6836,115.813 C59.0092,116.242 59.3672,116.542 59.7579,116.711 C60.1094,116.88 60.4805,116.965 60.8711,116.965 C61.3269,116.965 61.6719,116.802 61.9063,116.477 C62.1277,116.151 62.2383,115.728 62.2383,115.207 C62.2383,114.595 62.0756,114.068 61.75,113.625 C61.4245,113.208 61.073,112.909 60.6954,112.727 C60.3178,112.557 59.9402,112.473 59.5625,112.473 M60.2266,111.965 C61.6329,111.965 62.8047,112.238 63.7422,112.785 C64.6928,113.332 65.168,113.977 65.168,114.719 C65.168,115.513 64.6797,116.164 63.7032,116.672 C62.7266,117.206 61.5678,117.473 60.2266,117.473 C58.8464,117.473 57.6745,117.199 56.711,116.652 C55.7474,116.105 55.2657,115.461 55.2657,114.719 C55.2657,113.924 55.7605,113.273 56.75,112.766 C57.7266,112.232 58.8855,111.965 60.2266,111.965"/>
<path class="" d="M116.679,84.9709 C116.211,84.9709 115.872,85.1337 115.664,85.4592 C115.429,85.7717 115.312,86.1949 115.312,86.7287 C115.312,87.3407 115.475,87.8681 115.8,88.3108 C116.126,88.7405 116.484,89.0399 116.875,89.2092 C117.226,89.3785 117.597,89.4631 117.988,89.4631 C118.444,89.4631 118.789,89.3004 119.023,88.9748 C119.244,88.6493 119.355,88.2261 119.355,87.7053 C119.355,87.0933 119.192,86.566 118.867,86.1233 C118.541,85.7066 118.19,85.4071 117.812,85.2248 C117.434,85.0556 117.057,84.9709 116.679,84.9709 M117.343,84.4631 C118.75,84.4631 119.921,84.7366 120.859,85.2834 C121.809,85.8303 122.285,86.4748 122.285,87.217 C122.285,88.0113 121.796,88.6623 120.82,89.1702 C119.843,89.704 118.684,89.9709 117.343,89.9709 C115.963,89.9709 114.791,89.6975 113.828,89.1506 C112.864,88.6037 112.382,87.9592 112.382,87.217 C112.382,86.4228 112.877,85.7717 113.867,85.2639 C114.843,84.73 116.002,84.4631 117.343,84.4631"/>
<path class="" d="M177.136,72.4701 C176.667,72.4701 176.329,72.6329 176.12,72.9584 C175.886,73.2709 175.769,73.6941 175.769,74.228 C175.769,74.8399 175.932,75.3673 176.257,75.81 C176.583,76.2397 176.941,76.5392 177.331,76.7084 C177.683,76.8777 178.054,76.9623 178.445,76.9623 C178.9,76.9623 179.245,76.7996 179.48,76.4741 C179.701,76.1485 179.812,75.7254 179.812,75.2045 C179.812,74.5925 179.649,74.0652 179.324,73.6225 C178.998,73.2058 178.646,72.9063 178.269,72.7241 C177.891,72.5548 177.514,72.4701 177.136,72.4701 M177.8,71.9623 C179.206,71.9623 180.378,72.2358 181.316,72.7826 C182.266,73.3295 182.742,73.9741 182.742,74.7162 C182.742,75.5105 182.253,76.1616 181.277,76.6694 C180.3,77.2032 179.141,77.4701 177.8,77.4701 C176.42,77.4701 175.248,77.1967 174.285,76.6498 C173.321,76.103 172.839,75.4584 172.839,74.7162 C172.839,73.922 173.334,73.2709 174.324,72.7631 C175.3,72.2293 176.459,71.9623 177.8,71.9623"/>
<path class="" d="M146.908,77.4705 C146.439,77.4705 146.1,77.6332 145.892,77.9587 C145.658,78.2712 145.54,78.6944 145.54,79.2283 C145.54,79.8403 145.703,80.3676 146.029,80.8103 C146.354,81.24 146.712,81.5395 147.103,81.7087 C147.455,81.878 147.826,81.9626 148.216,81.9626 C148.672,81.9626 149.017,81.7999 149.251,81.4744 C149.473,81.1488 149.583,80.7257 149.583,80.2048 C149.583,79.5929 149.421,79.0655 149.095,78.6228 C148.77,78.2061 148.418,77.9067 148.04,77.7244 C147.663,77.5551 147.285,77.4705 146.908,77.4705 M147.572,76.9626 C148.978,76.9626 150.15,77.2361 151.087,77.783 C152.038,78.3298 152.513,78.9744 152.513,79.7166 C152.513,80.5108 152.025,81.1619 151.048,81.6697 C150.072,82.2035 148.913,82.4705 147.572,82.4705 C146.192,82.4705 145.02,82.197 144.056,81.6501 C143.093,81.1033 142.611,80.4587 142.611,79.7166 C142.611,78.9223 143.106,78.2712 144.095,77.7634 C145.072,77.2296 146.231,76.9626 147.572,76.9626"/>
<path class="" d="M207.364,67.4698 C206.896,67.4698 206.557,67.6326 206.349,67.9581 C206.114,68.2706 205.997,68.6938 205.997,69.2276 C205.997,69.8396 206.16,70.367 206.486,70.8097 C206.811,71.2394 207.169,71.5388 207.56,71.7081 C207.911,71.8774 208.282,71.962 208.673,71.962 C209.129,71.962 209.474,71.7993 209.708,71.4737 C209.93,71.1482 210.04,70.725 210.04,70.2042 C210.04,69.5922 209.877,69.0649 209.552,68.6222 C209.226,68.2055 208.875,67.906 208.497,67.7237 C208.12,67.5545 207.742,67.4698 207.364,67.4698 M208.029,66.962 C209.435,66.962 210.607,67.2355 211.544,67.7823 C212.495,68.3292 212.97,68.9737 212.97,69.7159 C212.97,70.5102 212.482,71.1612 211.505,71.669 C210.529,72.2029 209.37,72.4698 208.029,72.4698 C206.648,72.4698 205.476,72.1964 204.513,71.6495 C203.549,71.1026 203.068,70.4581 203.068,69.7159 C203.068,68.9217 203.562,68.2706 204.552,67.7628 C205.529,67.2289 206.687,66.962 208.029,66.962"/>
<path class="" d="M27.9307,24.5962 C27.9307,24.5962 27.9697,24.5962 28.0479,24.5962 C28.0999,24.5832 28.1455,24.5767 28.1846,24.5767 C29.6429,24.5767 30.8408,25.091 31.7783,26.1197 C32.7158,27.1353 33.1846,28.3202 33.1846,29.6743 C33.1846,31.354 32.488,32.7212 31.0947,33.7759 C30.7302,34.0624 30.2549,34.2967 29.669,34.479 C29.7341,35.3254 29.7666,36.009 29.7666,36.5298 C29.7666,36.634 29.7536,37.0116 29.7276,37.6626 C29.6755,38.8736 29.2588,39.9217 28.4776,40.8072 C27.7223,41.6796 26.7848,42.1157 25.6651,42.1157 C24.6104,42.1157 23.7119,41.7447 22.9697,41.0025 C22.2276,40.2473 21.8565,39.3358 21.8565,38.2681 C21.8565,37.7082 22.0713,37.2329 22.501,36.8423 C22.9437,36.4517 23.458,36.2564 24.044,36.2564 C24.5648,36.2564 25.001,36.4582 25.3526,36.8618 C25.7171,37.2394 25.8994,37.7082 25.8994,38.2681 C25.8994,38.7759 25.7171,39.2121 25.3526,39.5767 C24.988,39.9413 24.5518,40.1236 24.044,40.1236 C23.8356,40.1236 23.6338,40.0845 23.4385,40.0064 C24.0114,40.8527 24.7731,41.2759 25.7236,41.2759 C26.6221,41.2759 27.3578,40.9113 27.9307,40.1822 C28.5296,39.4269 28.8552,38.548 28.9072,37.5454 C28.9333,36.9204 28.9463,36.5624 28.9463,36.4712 C28.9463,35.7421 28.9203,35.1431 28.8682,34.6743 C28.2171,34.7785 27.6377,34.8306 27.1299,34.8306 C25.32,34.8306 23.777,34.1144 22.501,32.6822 C21.251,31.2368 20.626,29.5181 20.626,27.5259 C20.626,27.1092 20.6651,26.6861 20.7432,26.2564 C20.8213,25.9048 20.919,25.5207 21.0361,25.104 C21.1012,24.8697 21.277,24.4921 21.5635,23.9712 C21.6677,23.815 21.7848,23.6197 21.9151,23.3853 C22.0453,23.1509 22.1364,22.9947 22.1885,22.9165 C22.3187,22.6561 22.5726,22.3046 22.9502,21.8618 C23.0544,21.7447 23.1618,21.6144 23.2725,21.4712 C23.3831,21.328 23.4776,21.2108 23.5557,21.1197 C23.6338,21.0285 23.6924,20.9569 23.7315,20.9048 C23.7705,20.8527 24.0635,20.5077 24.6104,19.8697 C24.7406,19.7394 24.8675,19.5995 24.9912,19.4497 C25.1149,19.3 25.2158,19.1828 25.294,19.0982 C25.3721,19.0135 25.4307,18.9517 25.4697,18.9126 C25.001,17.3631 24.708,16.1262 24.5908,15.2017 C24.4997,14.4595 24.4541,13.4439 24.4541,12.1548 C24.4541,11.022 24.7145,9.9608 25.2354,8.97122 C25.7432,7.94257 26.4528,7.10273 27.3643,6.45169 C27.4294,6.41262 27.4945,6.39309 27.5596,6.39309 C27.6507,6.39309 27.7158,6.41262 27.7549,6.45169 C28.458,7.29804 29.0635,8.3983 29.5713,9.75247 C30.0921,11.1066 30.3526,12.3371 30.3526,13.4439 C30.3526,14.6939 30.0531,15.8657 29.4541,16.9595 C28.777,18.1184 27.9046,19.3163 26.8369,20.5532 C27.1104,21.4126 27.4749,22.7603 27.9307,24.5962 M29.5908,33.6782 C30.2679,33.4309 30.7953,33.0077 31.1729,32.4087 C31.5895,31.8358 31.7979,31.1913 31.7979,30.4751 C31.7979,29.5506 31.4854,28.7303 30.8604,28.0142 C30.2223,27.272 29.4085,26.8553 28.419,26.7642 C28.9789,29.5116 29.3695,31.8163 29.5908,33.6782 M22.0322,29.1665 C22.0322,30.4556 22.5531,31.5884 23.5947,32.565 C24.6624,33.5155 25.8604,33.9907 27.1885,33.9907 C27.7354,33.9907 28.2692,33.9517 28.7901,33.8736 C28.5817,31.8944 28.1716,29.5246 27.5596,26.7642 C26.8174,26.8423 26.2249,27.1027 25.7822,27.5454 C25.3526,28.0012 25.1377,28.5155 25.1377,29.0884 C25.1377,30.078 25.6651,30.8788 26.7197,31.4907 C26.8109,31.5819 26.8565,31.6796 26.8565,31.7837 C26.8565,31.8879 26.8109,31.9855 26.7197,32.0767 C26.6416,32.1678 26.544,32.2134 26.4268,32.2134 C26.4137,32.2134 26.3552,32.2004 26.251,32.1743 C25.5088,31.7707 24.9359,31.2499 24.5322,30.6118 C24.1546,29.9348 23.9658,29.2512 23.9658,28.5611 C23.9658,27.6626 24.2458,26.8488 24.8057,26.1197 C25.3916,25.3905 26.1533,24.9217 27.0908,24.7134 C26.7262,23.2551 26.4268,22.1157 26.1924,21.2954 C25.9841,21.5298 25.7334,21.813 25.4404,22.145 C25.1475,22.4771 24.9749,22.6756 24.9229,22.7407 C24.4541,23.3527 24.096,23.828 23.8486,24.1665 C23.4059,24.7785 23.0804,25.3059 22.8721,25.7486 C22.6507,26.2434 22.4554,26.7837 22.2861,27.3697 C22.1169,27.9296 22.0322,28.5285 22.0322,29.1665 M28.5557,9.30325 C27.5791,9.78502 26.8109,10.4751 26.251,11.3736 C25.6781,12.298 25.3916,13.2941 25.3916,14.3618 C25.3916,15.2993 25.626,16.5624 26.0947,18.1509 C27.0322,17.0181 27.7354,15.9699 28.2041,15.0064 C28.6989,13.9907 28.9463,12.9296 28.9463,11.8228 C28.9463,10.9894 28.8161,10.1496 28.5557,9.30325"/>
<path class="" d="M32.0127,70.4387 C31.8174,70.2434 31.7197,70.0025 31.7197,69.7161 C31.7197,69.4296 31.8174,69.1887 32.0127,68.9934 C32.208,68.7981 32.4489,68.7005 32.7354,68.7005 C33.0218,68.7005 33.2627,68.7981 33.458,68.9934 C33.6533,69.1887 33.751,69.4296 33.751,69.7161 C33.751,70.0025 33.6533,70.2434 33.458,70.4387 C33.2627,70.6341 33.0218,70.7317 32.7354,70.7317 C32.4489,70.7317 32.208,70.6341 32.0127,70.4387 M32.0127,75.4387 C31.8174,75.2434 31.7197,75.0025 31.7197,74.7161 C31.7197,74.4296 31.8174,74.1887 32.0127,73.9934 C32.208,73.7981 32.4489,73.7005 32.7354,73.7005 C33.0218,73.7005 33.2627,73.7981 33.458,73.9934 C33.6533,74.1887 33.751,74.4296 33.751,74.7161 C33.751,75.0025 33.6533,75.2434 33.458,75.4387 C33.2627,75.6341 33.0218,75.7317 32.7354,75.7317 C32.4489,75.7317 32.208,75.6341 32.0127,75.4387 M25.2354,66.9622 C26.9671,66.9622 28.3864,67.3984 29.4932,68.2708 C30.5609,69.1822 31.0947,70.4192 31.0947,71.9817 C31.0947,73.0364 30.8864,73.9999 30.4697,74.8723 C30.0791,75.7838 29.5648,76.5911 28.9268,77.2942 C28.2757,78.0104 27.488,78.6874 26.5635,79.3255 C25.6651,79.9505 24.7406,80.5104 23.7901,81.0051 C21.863,81.9817 20.7953,82.47 20.5869,82.47 C20.4177,82.47 20.333,82.3854 20.333,82.2161 C20.333,82.151 20.3591,82.0924 20.4111,82.0403 C21.0752,81.6497 21.889,81.1484 22.8526,80.5364 C23.4776,80.1327 24.2067,79.5729 25.0401,78.8567 C25.8473,78.1796 26.4723,77.5416 26.9151,76.9426 C27.3708,76.3567 27.7874,75.6275 28.1651,74.7551 C28.4906,73.8827 28.6533,73.0234 28.6533,72.177 C28.6533,70.914 28.3408,69.8137 27.7158,68.8762 C27.0908,67.9387 26.264,67.47 25.2354,67.47 C24.5062,67.47 23.8812,67.7044 23.3604,68.1731 C22.8005,68.6549 22.3968,69.2604 22.1494,69.9895 C22.3968,69.8854 22.6247,69.8333 22.833,69.8333 C23.3799,69.8333 23.8486,70.0286 24.2393,70.4192 C24.6299,70.8359 24.8252,71.3111 24.8252,71.845 C24.8252,72.4049 24.6364,72.9062 24.2588,73.3489 C23.8552,73.7525 23.3799,73.9544 22.833,73.9544 C22.2471,73.9544 21.7197,73.7525 21.251,73.3489 C20.8083,72.9062 20.5869,72.4049 20.5869,71.845 C20.5869,70.5038 21.0427,69.358 21.9541,68.4075 C22.8526,67.4439 23.9463,66.9622 25.2354,66.9622"/>
<path class="" fill-rule="evenodd" d="M14.4951,40.5077 C14.4951,34.6665 10.472,28.9887 10.472,23.3926 C10.472,20.5741 11.5692,17.8373 14.9523,15.3864 C14.998,15.3558 15.0209,15.3048 15.0209,15.2741 C15.0209,15.1822 14.7694,15.1005 14.5865,15.1005 C14.4951,15.1005 14.3351,15.1107 14.2208,15.1822 C9.83196,18.3275 8.36901,21.9629 8.36901,25.6392 C8.36901,31.5621 12.6664,37.2808 12.6664,42.9586 C12.6664,45.7771 11.5692,48.4322 8.18614,50.883 L8.18614,50.9647 L8.18614,51.0464 C11.5692,53.4973 12.6664,56.1524 12.6664,58.9709 C12.6664,64.6487 8.36901,70.3674 8.36901,76.2903 C8.36901,79.9666 9.83196,83.602 14.2208,86.7473 C14.3351,86.8188 14.4951,86.829 14.5865,86.829 C14.7694,86.829 15.0209,86.7473 15.0209,86.6554 C15.0209,86.6247 14.998,86.5737 14.9523,86.543 C11.5692,84.0922 10.472,81.3554 10.472,78.5369 C10.472,72.9408 14.4951,67.263 14.4951,61.4217 C14.4951,57.7046 13.0322,54.1509 8.73475,50.9647 C13.0322,47.7786 14.4951,44.2249 14.4951,40.5077"/>
</svg>
