<?xml version="1.0" encoding="UTF-8" standalone="no"?>
<svg width="352px" height="113px" viewBox="0 0 352 113"
 xmlns="http://www.w3.org/2000/svg" xmlns:xlink="http://www.w3.org/1999/xlink" version="1.2" baseProfile="tiny">
<title>Teiltöne über kontra-G</title>
<desc>Generated by MuseScore 2.2.1</desc>
<polyline class="" fill="none" stroke="#000000" stroke-width="0.40" stroke-linejoin="bevel" points="16.5867,14.7125 76.1774,14.7125"/>
<polyline class="" fill="none" stroke="#000000" stroke-width="0.40" stroke-linejoin="bevel" points="16.5867,19.7128 76.1774,19.7128"/>
<polyline class="" fill="none" stroke="#000000" stroke-width="0.40" stroke-linejoin="bevel" points="16.5867,24.7131 76.1774,24.7131"/>
<polyline class="" fill="none" stroke="#000000" stroke-width="0.40" stroke-linejoin="bevel" points="16.5867,29.7134 76.1774,29.7134"/>
<polyline class="" fill="none" stroke="#000000" stroke-width="0.40" stroke-linejoin="bevel" points="16.5867,34.7137 76.1774,34.7137"/>
<polyline class="" fill="none" stroke="#000000" stroke-width="0.40" stroke-linejoin="bevel" points="76.1774,14.7125 106.43,14.7125"/>
<polyline class="" fill="none" stroke="#000000" stroke-width="0.40" stroke-linejoin="bevel" points="76.1774,19.7128 106.43,19.7128"/>
<polyline class="" fill="none" stroke="#000000" stroke-width="0.40" stroke-linejoin="bevel" points="76.1774,24.7131 106.43,24.7131"/>
<polyline class="" fill="none" stroke="#000000" stroke-width="0.40" stroke-linejoin="bevel" points="76.1774,29.7134 106.43,29.7134"/>
<polyline class="" fill="none" stroke="#000000" stroke-width="0.40" stroke-linejoin="bevel" points="76.1774,34.7137 106.43,34.7137"/>
<polyline class="" fill="none" stroke="#000000" stroke-width="0.40" stroke-linejoin="bevel" points="106.43,14.7125 136.682,14.7125"/>
<polyline class="" fill="none" stroke="#000000" stroke-width="0.40" stroke-linejoin="bevel" points="106.43,19.7128 136.682,19.7128"/>
<polyline class="" fill="none" stroke="#000000" stroke-width="0.40" stroke-linejoin="bevel" points="106.43,24.7131 136.682,24.7131"/>
<polyline class="" fill="none" stroke="#000000" stroke-width="0.40" stroke-linejoin="bevel" points="106.43,29.7134 136.682,29.7134"/>
<polyline class="" fill="none" stroke="#000000" stroke-width="0.40" stroke-linejoin="bevel" points="106.43,34.7137 136.682,34.7137"/>
<polyline class="" fill="none" stroke="#000000" stroke-width="0.40" stroke-linejoin="bevel" points="166.934,14.7125 197.186,14.7125"/>
<polyline class="" fill="none" stroke="#000000" stroke-width="0.40" stroke-linejoin="bevel" points="166.934,19.7128 197.186,19.7128"/>
<polyline class="" fill="none" stroke="#000000" stroke-width="0.40" stroke-linejoin="bevel" points="166.934,24.7131 197.186,24.7131"/>
<polyline class="" fill="none" stroke="#000000" stroke-width="0.40" stroke-linejoin="bevel" points="166.934,29.7134 197.186,29.7134"/>
<polyline class="" fill="none" stroke="#000000" stroke-width="0.40" stroke-linejoin="bevel" points="166.934,34.7137 197.186,34.7137"/>
<polyline class="" fill="none" stroke="#000000" stroke-width="0.40" stroke-linejoin="bevel" points="136.682,14.7125 166.934,14.7125"/>
<polyline class="" fill="none" stroke="#000000" stroke-width="0.40" stroke-linejoin="bevel" points="136.682,19.7128 166.934,19.7128"/>
<polyline class="" fill="none" stroke="#000000" stroke-width="0.40" stroke-linejoin="bevel" points="136.682,24.7131 166.934,24.7131"/>
<polyline class="" fill="none" stroke="#000000" stroke-width="0.40" stroke-linejoin="bevel" points="136.682,29.7134 166.934,29.7134"/>
<polyline class="" fill="none" stroke="#000000" stroke-width="0.40" stroke-linejoin="bevel" points="136.682,34.7137 166.934,34.7137"/>
<polyline class="" fill="none" stroke="#000000" stroke-width="0.40" stroke-linejoin="bevel" points="227.438,14.7125 257.69,14.7125"/>
<polyline class="" fill="none" stroke="#000000" stroke-width="0.40" stroke-linejoin="bevel" points="227.438,19.7128 257.69,19.7128"/>
<polyline class="" fill="none" stroke="#000000" stroke-width="0.40" stroke-linejoin="bevel" points="227.438,24.7131 257.69,24.7131"/>
<polyline class="" fill="none" stroke="#000000" stroke-width="0.40" stroke-linejoin="bevel" points="227.438,29.7134 257.69,29.7134"/>
<polyline class="" fill="none" stroke="#000000" stroke-width="0.40" stroke-linejoin="bevel" points="227.438,34.7137 257.69,34.7137"/>
<polyline class="" fill="none" stroke="#000000" stroke-width="0.40" stroke-linejoin="bevel" points="197.186,14.7125 227.438,14.7125"/>
<polyline class="" fill="none" stroke="#000000" stroke-width="0.40" stroke-linejoin="bevel" points="197.186,19.7128 227.438,19.7128"/>
<polyline class="" fill="none" stroke="#000000" stroke-width="0.40" stroke-linejoin="bevel" points="197.186,24.7131 227.438,24.7131"/>
<polyline class="" fill="none" stroke="#000000" stroke-width="0.40" stroke-linejoin="bevel" points="197.186,29.7134 227.438,29.7134"/>
<polyline class="" fill="none" stroke="#000000" stroke-width="0.40" stroke-linejoin="bevel" points="197.186,34.7137 227.438,34.7137"/>
<polyline class="" fill="none" stroke="#000000" stroke-width="0.40" stroke-linejoin="bevel" points="287.943,14.7125 318.195,14.7125"/>
<polyline class="" fill="none" stroke="#000000" stroke-width="0.40" stroke-linejoin="bevel" points="287.943,19.7128 318.195,19.7128"/>
<polyline class="" fill="none" stroke="#000000" stroke-width="0.40" stroke-linejoin="bevel" points="287.943,24.7131 318.195,24.7131"/>
<polyline class="" fill="none" stroke="#000000" stroke-width="0.40" stroke-linejoin="bevel" points="287.943,29.7134 318.195,29.7134"/>
<polyline class="" fill="none" stroke="#000000" stroke-width="0.40" stroke-linejoin="bevel" points="287.943,34.7137 318.195,34.7137"/>
<polyline class="" fill="none" stroke="#000000" stroke-width="0.40" stroke-linejoin="bevel" points="257.69,14.7125 287.943,14.7125"/>
<polyline class="" fill="none" stroke="#000000" stroke-width="0.40" stroke-linejoin="bevel" points="257.69,19.7128 287.943,19.7128"/>
<polyline class="" fill="none" stroke="#000000" stroke-width="0.40" stroke-linejoin="bevel" points="257.69,24.7131 287.943,24.7131"/>
<polyline class="" fill="none" stroke="#000000" stroke-width="0.40" stroke-linejoin="bevel" points="257.69,29.7134 287.943,29.7134"/>
<polyline class="" fill="none" stroke="#000000" stroke-width="0.40" stroke-linejoin="bevel" points="257.69,34.7137 287.943,34.7137"/>
<polyline class="" fill="none" stroke="#000000" stroke-width="0.40" stroke-linejoin="bevel" points="318.195,14.7125 348.447,14.7125"/>
<polyline class="" fill="none" stroke="#000000" stroke-width="0.40" stroke-linejoin="bevel" points="318.195,19.7128 348.447,19.7128"/>
<polyline class="" fill="none" stroke="#000000" stroke-width="0.40" stroke-linejoin="bevel" points="318.195,24.7131 348.447,24.7131"/>
<polyline class="" fill="none" stroke="#000000" stroke-width="0.40" stroke-linejoin="bevel" points="318.195,29.7134 348.447,29.7134"/>
<polyline class="" fill="none" stroke="#000000" stroke-width="0.40" stroke-linejoin="bevel" points="318.195,34.7137 348.447,34.7137"/>
<polyline class="" fill="none" stroke="#000000" stroke-width="0.40" stroke-linejoin="bevel" points="348.447,14.7125 377.956,14.7125"/>
<polyline class="" fill="none" stroke="#000000" stroke-width="0.40" stroke-linejoin="bevel" points="348.447,19.7128 377.956,19.7128"/>
<polyline class="" fill="none" stroke="#000000" stroke-width="0.40" stroke-linejoin="bevel" points="348.447,24.7131 377.956,24.7131"/>
<polyline class="" fill="none" stroke="#000000" stroke-width="0.40" stroke-linejoin="bevel" points="348.447,29.7134 377.956,29.7134"/>
<polyline class="" fill="none" stroke="#000000" stroke-width="0.40" stroke-linejoin="bevel" points="348.447,34.7137 377.956,34.7137"/>
<polyline class="" fill="none" stroke="#000000" stroke-width="0.40" stroke-linejoin="bevel" points="16.5867,67.2158 76.1774,67.2158"/>
<polyline class="" fill="none" stroke="#000000" stroke-width="0.40" stroke-linejoin="bevel" points="16.5867,72.2161 76.1774,72.2161"/>
<polyline class="" fill="none" stroke="#000000" stroke-width="0.40" stroke-linejoin="bevel" points="16.5867,77.2164 76.1774,77.2164"/>
<polyline class="" fill="none" stroke="#000000" stroke-width="0.40" stroke-linejoin="bevel" points="16.5867,82.2167 76.1774,82.2167"/>
<polyline class="" fill="none" stroke="#000000" stroke-width="0.40" stroke-linejoin="bevel" points="16.5867,87.217 76.1774,87.217"/>
<polyline class="" fill="none" stroke="#000000" stroke-width="0.40" stroke-linejoin="bevel" points="76.1774,67.2158 106.43,67.2158"/>
<polyline class="" fill="none" stroke="#000000" stroke-width="0.40" stroke-linejoin="bevel" points="76.1774,72.2161 106.43,72.2161"/>
<polyline class="" fill="none" stroke="#000000" stroke-width="0.40" stroke-linejoin="bevel" points="76.1774,77.2164 106.43,77.2164"/>
<polyline class="" fill="none" stroke="#000000" stroke-width="0.40" stroke-linejoin="bevel" points="76.1774,82.2167 106.43,82.2167"/>
<polyline class="" fill="none" stroke="#000000" stroke-width="0.40" stroke-linejoin="bevel" points="76.1774,87.217 106.43,87.217"/>
<polyline class="" fill="none" stroke="#000000" stroke-width="0.40" stroke-linejoin="bevel" points="106.43,67.2158 136.682,67.2158"/>
<polyline class="" fill="none" stroke="#000000" stroke-width="0.40" stroke-linejoin="bevel" points="106.43,72.2161 136.682,72.2161"/>
<polyline class="" fill="none" stroke="#000000" stroke-width="0.40" stroke-linejoin="bevel" points="106.43,77.2164 136.682,77.2164"/>
<polyline class="" fill="none" stroke="#000000" stroke-width="0.40" stroke-linejoin="bevel" points="106.43,82.2167 136.682,82.2167"/>
<polyline class="" fill="none" stroke="#000000" stroke-width="0.40" stroke-linejoin="bevel" points="106.43,87.217 136.682,87.217"/>
<polyline class="" fill="none" stroke="#000000" stroke-width="0.40" stroke-linejoin="bevel" points="166.934,67.2158 197.186,67.2158"/>
<polyline class="" fill="none" stroke="#000000" stroke-width="0.40" stroke-linejoin="bevel" points="166.934,72.2161 197.186,72.2161"/>
<polyline class="" fill="none" stroke="#000000" stroke-width="0.40" stroke-linejoin="bevel" points="166.934,77.2164 197.186,77.2164"/>
<polyline class="" fill="none" stroke="#000000" stroke-width="0.40" stroke-linejoin="bevel" points="166.934,82.2167 197.186,82.2167"/>
<polyline class="" fill="none" stroke="#000000" stroke-width="0.40" stroke-linejoin="bevel" points="166.934,87.217 197.186,87.217"/>
<polyline class="" fill="none" stroke="#000000" stroke-width="0.40" stroke-linejoin="bevel" points="136.682,67.2158 166.934,67.2158"/>
<polyline class="" fill="none" stroke="#000000" stroke-width="0.40" stroke-linejoin="bevel" points="136.682,72.2161 166.934,72.2161"/>
<polyline class="" fill="none" stroke="#000000" stroke-width="0.40" stroke-linejoin="bevel" points="136.682,77.2164 166.934,77.2164"/>
<polyline class="" fill="none" stroke="#000000" stroke-width="0.40" stroke-linejoin="bevel" points="136.682,82.2167 166.934,82.2167"/>
<polyline class="" fill="none" stroke="#000000" stroke-width="0.40" stroke-linejoin="bevel" points="136.682,87.217 166.934,87.217"/>
<polyline class="" fill="none" stroke="#000000" stroke-width="0.40" stroke-linejoin="bevel" points="227.438,67.2158 257.69,67.2158"/>
<polyline class="" fill="none" stroke="#000000" stroke-width="0.40" stroke-linejoin="bevel" points="227.438,72.2161 257.69,72.2161"/>
<polyline class="" fill="none" stroke="#000000" stroke-width="0.40" stroke-linejoin="bevel" points="227.438,77.2164 257.69,77.2164"/>
<polyline class="" fill="none" stroke="#000000" stroke-width="0.40" stroke-linejoin="bevel" points="227.438,82.2167 257.69,82.2167"/>
<polyline class="" fill="none" stroke="#000000" stroke-width="0.40" stroke-linejoin="bevel" points="227.438,87.217 257.69,87.217"/>
<polyline class="" fill="none" stroke="#000000" stroke-width="0.40" stroke-linejoin="bevel" points="197.186,67.2158 227.438,67.2158"/>
<polyline class="" fill="none" stroke="#000000" stroke-width="0.40" stroke-linejoin="bevel" points="197.186,72.2161 227.438,72.2161"/>
<polyline class="" fill="none" stroke="#000000" stroke-width="0.40" stroke-linejoin="bevel" points="197.186,77.2164 227.438,77.2164"/>
<polyline class="" fill="none" stroke="#000000" stroke-width="0.40" stroke-linejoin="bevel" points="197.186,82.2167 227.438,82.2167"/>
<polyline class="" fill="none" stroke="#000000" stroke-width="0.40" stroke-linejoin="bevel" points="197.186,87.217 227.438,87.217"/>
<polyline class="" fill="none" stroke="#000000" stroke-width="0.40" stroke-linejoin="bevel" points="287.943,67.2158 318.195,67.2158"/>
<polyline class="" fill="none" stroke="#000000" stroke-width="0.40" stroke-linejoin="bevel" points="287.943,72.2161 318.195,72.2161"/>
<polyline class="" fill="none" stroke="#000000" stroke-width="0.40" stroke-linejoin="bevel" points="287.943,77.2164 318.195,77.2164"/>
<polyline class="" fill="none" stroke="#000000" stroke-width="0.40" stroke-linejoin="bevel" points="287.943,82.2167 318.195,82.2167"/>
<polyline class="" fill="none" stroke="#000000" stroke-width="0.40" stroke-linejoin="bevel" points="287.943,87.217 318.195,87.217"/>
<polyline class="" fill="none" stroke="#000000" stroke-width="0.40" stroke-linejoin="bevel" points="257.69,67.2158 287.943,67.2158"/>
<polyline class="" fill="none" stroke="#000000" stroke-width="0.40" stroke-linejoin="bevel" points="257.69,72.2161 287.943,72.2161"/>
<polyline class="" fill="none" stroke="#000000" stroke-width="0.40" stroke-linejoin="bevel" points="257.69,77.2164 287.943,77.2164"/>
<polyline class="" fill="none" stroke="#000000" stroke-width="0.40" stroke-linejoin="bevel" points="257.69,82.2167 287.943,82.2167"/>
<polyline class="" fill="none" stroke="#000000" stroke-width="0.40" stroke-linejoin="bevel" points="257.69,87.217 287.943,87.217"/>
<polyline class="" fill="none" stroke="#000000" stroke-width="0.40" stroke-linejoin="bevel" points="318.195,67.2158 348.447,67.2158"/>
<polyline class="" fill="none" stroke="#000000" stroke-width="0.40" stroke-linejoin="bevel" points="318.195,72.2161 348.447,72.2161"/>
<polyline class="" fill="none" stroke="#000000" stroke-width="0.40" stroke-linejoin="bevel" points="318.195,77.2164 348.447,77.2164"/>
<polyline class="" fill="none" stroke="#000000" stroke-width="0.40" stroke-linejoin="bevel" points="318.195,82.2167 348.447,82.2167"/>
<polyline class="" fill="none" stroke="#000000" stroke-width="0.40" stroke-linejoin="bevel" points="318.195,87.217 348.447,87.217"/>
<polyline class="" fill="none" stroke="#000000" stroke-width="0.40" stroke-linejoin="bevel" points="348.447,67.2158 377.956,67.2158"/>
<polyline class="" fill="none" stroke="#000000" stroke-width="0.40" stroke-linejoin="bevel" points="348.447,72.2161 377.956,72.2161"/>
<polyline class="" fill="none" stroke="#000000" stroke-width="0.40" stroke-linejoin="bevel" points="348.447,77.2164 377.956,77.2164"/>
<polyline class="" fill="none" stroke="#000000" stroke-width="0.40" stroke-linejoin="bevel" points="348.447,82.2167 377.956,82.2167"/>
<polyline class="" fill="none" stroke="#000000" stroke-width="0.40" stroke-linejoin="bevel" points="348.447,87.217 377.956,87.217"/>
<polyline class="" fill="none" stroke="#000000" stroke-width="0.80" stroke-linecap="square" stroke-linejoin="bevel" points="53.7656,92.2173 66.6695,92.2173"/>
<polyline class="" fill="none" stroke="#000000" stroke-width="0.80" stroke-linecap="square" stroke-linejoin="bevel" points="53.7656,97.2177 66.6695,97.2177"/>
<polyline class="" fill="none" stroke="#000000" stroke-width="0.80" stroke-linecap="square" stroke-linejoin="bevel" points="53.7656,102.218 66.6695,102.218"/>
<polyline class="" fill="none" stroke="#000000" stroke-width="0.80" stroke-linecap="square" stroke-linejoin="bevel" points="201.686,62.2155 214.59,62.2155"/>
<path class="" d="M237.736,29.9675 C237.267,29.9675 236.928,30.1302 236.72,30.4557 C236.486,30.7682 236.368,31.1914 236.368,31.7253 C236.368,32.3373 236.531,32.8646 236.857,33.3073 C237.182,33.737 237.54,34.0365 237.931,34.2057 C238.282,34.375 238.654,34.4597 239.044,34.4597 C239.5,34.4597 239.845,34.2969 240.079,33.9714 C240.301,33.6459 240.411,33.2227 240.411,32.7018 C240.411,32.0899 240.249,31.5625 239.923,31.1198 C239.598,30.7031 239.246,30.4037 238.868,30.2214 C238.491,30.0521 238.113,29.9675 237.736,29.9675 M238.4,29.4597 C239.806,29.4597 240.978,29.7331 241.915,30.28 C242.866,30.8268 243.341,31.4714 243.341,32.2136 C243.341,33.0078 242.853,33.6589 241.876,34.1667 C240.9,34.7005 239.741,34.9675 238.4,34.9675 C237.019,34.9675 235.848,34.694 234.884,34.1472 C233.92,33.6003 233.439,32.9557 233.439,32.2136 C233.439,31.4193 233.933,30.7682 234.923,30.2604 C235.9,29.7266 237.058,29.4597 238.4,29.4597"/>
<path class="" d="M267.988,27.4673 C267.519,27.4673 267.18,27.6301 266.972,27.9556 C266.738,28.2681 266.621,28.6913 266.621,29.2251 C266.621,29.8371 266.783,30.3644 267.109,30.8072 C267.434,31.2368 267.792,31.5363 268.183,31.7056 C268.535,31.8749 268.906,31.9595 269.296,31.9595 C269.752,31.9595 270.097,31.7967 270.331,31.4712 C270.553,31.1457 270.664,30.7225 270.664,30.2017 C270.664,29.5897 270.501,29.0624 270.175,28.6197 C269.85,28.203 269.498,27.9035 269.121,27.7212 C268.743,27.5519 268.365,27.4673 267.988,27.4673 M268.652,26.9595 C270.058,26.9595 271.23,27.2329 272.167,27.7798 C273.118,28.3267 273.593,28.9712 273.593,29.7134 C273.593,30.5077 273.105,31.1587 272.128,31.6665 C271.152,32.2004 269.993,32.4673 268.652,32.4673 C267.272,32.4673 266.1,32.1939 265.136,31.647 C264.173,31.1001 263.691,30.4556 263.691,29.7134 C263.691,28.9191 264.186,28.2681 265.175,27.7603 C266.152,27.2264 267.311,26.9595 268.652,26.9595"/>
<path class="" d="M328.492,22.467 C328.023,22.467 327.685,22.6298 327.476,22.9553 C327.242,23.2678 327.125,23.691 327.125,24.2248 C327.125,24.8368 327.288,25.3641 327.613,25.8068 C327.939,26.2365 328.297,26.536 328.687,26.7053 C329.039,26.8745 329.41,26.9592 329.801,26.9592 C330.256,26.9592 330.601,26.7964 330.836,26.4709 C331.057,26.1454 331.168,25.7222 331.168,25.2014 C331.168,24.5894 331.005,24.062 330.68,23.6193 C330.354,23.2027 330.003,22.9032 329.625,22.7209 C329.247,22.5516 328.87,22.467 328.492,22.467 M329.156,21.9592 C330.562,21.9592 331.734,22.2326 332.672,22.7795 C333.622,23.3264 334.098,23.9709 334.098,24.7131 C334.098,25.5074 333.609,26.1584 332.633,26.6662 C331.656,27.2001 330.497,27.467 329.156,27.467 C327.776,27.467 326.604,27.1936 325.641,26.6467 C324.677,26.0998 324.195,25.4553 324.195,24.7131 C324.195,23.9188 324.69,23.2678 325.68,22.76 C326.656,22.2261 327.815,21.9592 329.156,21.9592"/>
<path class="" d="M298.24,24.9672 C297.771,24.9672 297.433,25.1299 297.224,25.4554 C296.99,25.7679 296.873,26.1911 296.873,26.725 C296.873,27.3369 297.035,27.8643 297.361,28.307 C297.687,28.7367 298.045,29.0362 298.435,29.2054 C298.787,29.3747 299.158,29.4593 299.549,29.4593 C300.004,29.4593 300.349,29.2966 300.584,28.9711 C300.805,28.6455 300.916,28.2224 300.916,27.7015 C300.916,27.0895 300.753,26.5622 300.427,26.1195 C300.102,25.7028 299.75,25.4034 299.373,25.2211 C298.995,25.0518 298.618,24.9672 298.24,24.9672 M298.904,24.4593 C300.31,24.4593 301.482,24.7328 302.42,25.2797 C303.37,25.8265 303.845,26.4711 303.845,27.2132 C303.845,28.0075 303.357,28.6586 302.381,29.1664 C301.404,29.7002 300.245,29.9672 298.904,29.9672 C297.524,29.9672 296.352,29.6937 295.388,29.1468 C294.425,28.6 293.943,27.9554 293.943,27.2132 C293.943,26.419 294.438,25.7679 295.427,25.2601 C296.404,24.7263 297.563,24.4593 298.904,24.4593"/>
<path class="" d="M86.4747,84.9709 C86.0059,84.9709 85.6674,85.1337 85.459,85.4592 C85.2247,85.7717 85.1075,86.1949 85.1075,86.7287 C85.1075,87.3407 85.2702,87.8681 85.5958,88.3108 C85.9213,88.7405 86.2794,89.0399 86.67,89.2092 C87.0215,89.3785 87.3926,89.4631 87.7833,89.4631 C88.239,89.4631 88.584,89.3004 88.8184,88.9748 C89.0398,88.6493 89.1505,88.2261 89.1505,87.7053 C89.1505,87.0933 88.9877,86.566 88.6622,86.1233 C88.3366,85.7066 87.9851,85.4071 87.6075,85.2248 C87.2299,85.0556 86.8523,84.9709 86.4747,84.9709 M87.1387,84.4631 C88.545,84.4631 89.7169,84.7366 90.6544,85.2834 C91.6049,85.8303 92.0801,86.4748 92.0801,87.217 C92.0801,88.0113 91.5919,88.6623 90.6153,89.1702 C89.6387,89.704 88.4799,89.9709 87.1387,89.9709 C85.7585,89.9709 84.5866,89.6975 83.6231,89.1506 C82.6596,88.6037 82.1778,87.9592 82.1778,87.217 C82.1778,86.4228 82.6726,85.7717 83.6622,85.2639 C84.6387,84.73 85.7976,84.4631 87.1387,84.4631"/>
<path class="" d="M59.5625,102.472 C59.0938,102.472 58.7553,102.635 58.5469,102.96 C58.3125,103.273 58.1954,103.696 58.1954,104.23 C58.1954,104.842 58.3581,105.369 58.6836,105.812 C59.0092,106.242 59.3672,106.541 59.7579,106.71 C60.1094,106.88 60.4805,106.964 60.8711,106.964 C61.3269,106.964 61.6719,106.801 61.9063,106.476 C62.1277,106.15 62.2383,105.727 62.2383,105.206 C62.2383,104.594 62.0756,104.067 61.75,103.624 C61.4245,103.208 61.073,102.908 60.6954,102.726 C60.3178,102.557 59.9402,102.472 59.5625,102.472 M60.2266,101.964 C61.6329,101.964 62.8047,102.238 63.7422,102.785 C64.6928,103.331 65.168,103.976 65.168,104.718 C65.168,105.512 64.6797,106.163 63.7032,106.671 C62.7266,107.205 61.5678,107.472 60.2266,107.472 C58.8464,107.472 57.6745,107.199 56.711,106.652 C55.7474,106.105 55.2657,105.46 55.2657,104.718 C55.2657,103.924 55.7605,103.273 56.75,102.765 C57.7266,102.231 58.8855,101.964 60.2266,101.964"/>
<path class="" d="M116.727,74.9703 C116.258,74.9703 115.92,75.1331 115.711,75.4586 C115.477,75.7711 115.36,76.1943 115.36,76.7281 C115.36,77.3401 115.522,77.8674 115.848,78.3101 C116.173,78.7398 116.532,79.0393 116.922,79.2086 C117.274,79.3779 117.645,79.4625 118.035,79.4625 C118.491,79.4625 118.836,79.2997 119.071,78.9742 C119.292,78.6487 119.403,78.2255 119.403,77.7047 C119.403,77.0927 119.24,76.5654 118.914,76.1226 C118.589,75.706 118.237,75.4065 117.86,75.2242 C117.482,75.0549 117.104,74.9703 116.727,74.9703 M117.391,74.4625 C118.797,74.4625 119.969,74.7359 120.907,75.2828 C121.857,75.8297 122.332,76.4742 122.332,77.2164 C122.332,78.0107 121.844,78.6617 120.867,79.1695 C119.891,79.7034 118.732,79.9703 117.391,79.9703 C116.011,79.9703 114.839,79.6969 113.875,79.15 C112.912,78.6031 112.43,77.9586 112.43,77.2164 C112.43,76.4221 112.925,75.7711 113.914,75.2633 C114.891,74.7294 116.05,74.4625 117.391,74.4625"/>
<path class="" d="M177.231,62.4695 C176.762,62.4695 176.424,62.6323 176.216,62.9578 C175.981,63.2703 175.864,63.6935 175.864,64.2273 C175.864,64.8393 176.027,65.3667 176.352,65.8094 C176.678,66.239 177.036,66.5385 177.427,66.7078 C177.778,66.8771 178.149,66.9617 178.54,66.9617 C178.996,66.9617 179.341,66.7989 179.575,66.4734 C179.796,66.1479 179.907,65.7247 179.907,65.2039 C179.907,64.5919 179.744,64.0646 179.419,63.6219 C179.093,63.2052 178.742,62.9057 178.364,62.7234 C177.986,62.5542 177.609,62.4695 177.231,62.4695 M177.895,61.9617 C179.302,61.9617 180.473,62.2351 181.411,62.782 C182.361,63.3289 182.837,63.9734 182.837,64.7156 C182.837,65.5099 182.348,66.1609 181.372,66.6687 C180.395,67.2026 179.236,67.4695 177.895,67.4695 C176.515,67.4695 175.343,67.1961 174.38,66.6492 C173.416,66.1023 172.934,65.4578 172.934,64.7156 C172.934,63.9213 173.429,63.2703 174.419,62.7625 C175.395,62.2286 176.554,61.9617 177.895,61.9617"/>
<path class="" d="M146.979,67.4698 C146.51,67.4698 146.172,67.6326 145.963,67.9581 C145.729,68.2706 145.612,68.6938 145.612,69.2276 C145.612,69.8396 145.775,70.367 146.1,70.8097 C146.426,71.2394 146.784,71.5388 147.174,71.7081 C147.526,71.8774 147.897,71.962 148.288,71.962 C148.743,71.962 149.088,71.7993 149.323,71.4737 C149.544,71.1482 149.655,70.725 149.655,70.2042 C149.655,69.5922 149.492,69.0649 149.167,68.6222 C148.841,68.2055 148.489,67.906 148.112,67.7237 C147.734,67.5545 147.357,67.4698 146.979,67.4698 M147.643,66.962 C149.049,66.962 150.221,67.2355 151.159,67.7823 C152.109,68.3292 152.584,68.9737 152.584,69.7159 C152.584,70.5102 152.096,71.1612 151.12,71.669 C150.143,72.2029 148.984,72.4698 147.643,72.4698 C146.263,72.4698 145.091,72.1964 144.127,71.6495 C143.164,71.1026 142.682,70.4581 142.682,69.7159 C142.682,68.9217 143.177,68.2706 144.167,67.7628 C145.143,67.2289 146.302,66.962 147.643,66.962"/>
<path class="" d="M207.483,57.4692 C207.015,57.4692 206.676,57.632 206.468,57.9575 C206.233,58.27 206.116,58.6932 206.116,59.227 C206.116,59.839 206.279,60.3663 206.604,60.809 C206.93,61.2387 207.288,61.5382 207.679,61.7075 C208.03,61.8768 208.401,61.9614 208.792,61.9614 C209.248,61.9614 209.593,61.7986 209.827,61.4731 C210.048,61.1476 210.159,60.7244 210.159,60.2036 C210.159,59.5916 209.996,59.0643 209.671,58.6215 C209.345,58.2049 208.994,57.9054 208.616,57.7231 C208.239,57.5538 207.861,57.4692 207.483,57.4692 M208.147,56.9614 C209.554,56.9614 210.726,57.2348 211.663,57.7817 C212.614,58.3286 213.089,58.9731 213.089,59.7153 C213.089,60.5096 212.601,61.1606 211.624,61.6684 C210.647,62.2023 209.489,62.4692 208.147,62.4692 C206.767,62.4692 205.595,62.1958 204.632,61.6489 C203.668,61.102 203.187,60.4575 203.187,59.7153 C203.187,58.921 203.681,58.27 204.671,57.7622 C205.647,57.2283 206.806,56.9614 208.147,56.9614"/>
<path class="" d="M27.9307,24.5962 C27.9307,24.5962 27.9697,24.5962 28.0479,24.5962 C28.0999,24.5832 28.1455,24.5767 28.1846,24.5767 C29.6429,24.5767 30.8408,25.091 31.7783,26.1197 C32.7158,27.1353 33.1846,28.3202 33.1846,29.6743 C33.1846,31.354 32.488,32.7212 31.0947,33.7759 C30.7302,34.0624 30.2549,34.2967 29.669,34.479 C29.7341,35.3254 29.7666,36.009 29.7666,36.5298 C29.7666,36.634 29.7536,37.0116 29.7276,37.6626 C29.6755,38.8736 29.2588,39.9217 28.4776,40.8072 C27.7223,41.6796 26.7848,42.1157 25.6651,42.1157 C24.6104,42.1157 23.7119,41.7447 22.9697,41.0025 C22.2276,40.2473 21.8565,39.3358 21.8565,38.2681 C21.8565,37.7082 22.0713,37.2329 22.501,36.8423 C22.9437,36.4517 23.458,36.2564 24.044,36.2564 C24.5648,36.2564 25.001,36.4582 25.3526,36.8618 C25.7171,37.2394 25.8994,37.7082 25.8994,38.2681 C25.8994,38.7759 25.7171,39.2121 25.3526,39.5767 C24.988,39.9413 24.5518,40.1236 24.044,40.1236 C23.8356,40.1236 23.6338,40.0845 23.4385,40.0064 C24.0114,40.8527 24.7731,41.2759 25.7236,41.2759 C26.6221,41.2759 27.3578,40.9113 27.9307,40.1822 C28.5296,39.4269 28.8552,38.548 28.9072,37.5454 C28.9333,36.9204 28.9463,36.5624 28.9463,36.4712 C28.9463,35.7421 28.9203,35.1431 28.8682,34.6743 C28.2171,34.7785 27.6377,34.8306 27.1299,34.8306 C25.32,34.8306 23.777,34.1144 22.501,32.6822 C21.251,31.2368 20.626,29.5181 20.626,27.5259 C20.626,27.1092 20.6651,26.6861 20.7432,26.2564 C20.8213,25.9048 20.919,25.5207 21.0361,25.104 C21.1012,24.8697 21.277,24.4921 21.5635,23.9712 C21.6677,23.815 21.7848,23.6197 21.9151,23.3853 C22.0453,23.1509 22.1364,22.9947 22.1885,22.9165 C22.3187,22.6561 22.5726,22.3046 22.9502,21.8618 C23.0544,21.7447 23.1618,21.6144 23.2725,21.4712 C23.3831,21.328 23.4776,21.2108 23.5557,21.1197 C23.6338,21.0285 23.6924,20.9569 23.7315,20.9048 C23.7705,20.8527 24.0635,20.5077 24.6104,19.8697 C24.7406,19.7394 24.8675,19.5995 24.9912,19.4497 C25.1149,19.3 25.2158,19.1828 25.294,19.0982 C25.3721,19.0135 25.4307,18.9517 25.4697,18.9126 C25.001,17.3631 24.708,16.1262 24.5908,15.2017 C24.4997,14.4595 24.4541,13.4439 24.4541,12.1548 C24.4541,11.022 24.7145,9.9608 25.2354,8.97122 C25.7432,7.94257 26.4528,7.10273 27.3643,6.45169 C27.4294,6.41262 27.4945,6.39309 27.5596,6.39309 C27.6507,6.39309 27.7158,6.41262 27.7549,6.45169 C28.458,7.29804 29.0635,8.3983 29.5713,9.75247 C30.0921,11.1066 30.3526,12.3371 30.3526,13.4439 C30.3526,14.6939 30.0531,15.8657 29.4541,16.9595 C28.777,18.1184 27.9046,19.3163 26.8369,20.5532 C27.1104,21.4126 27.4749,22.7603 27.9307,24.5962 M29.5908,33.6782 C30.2679,33.4309 30.7953,33.0077 31.1729,32.4087 C31.5895,31.8358 31.7979,31.1913 31.7979,30.4751 C31.7979,29.5506 31.4854,28.7303 30.8604,28.0142 C30.2223,27.272 29.4085,26.8553 28.419,26.7642 C28.9789,29.5116 29.3695,31.8163 29.5908,33.6782 M22.0322,29.1665 C22.0322,30.4556 22.5531,31.5884 23.5947,32.565 C24.6624,33.5155 25.8604,33.9907 27.1885,33.9907 C27.7354,33.9907 28.2692,33.9517 28.7901,33.8736 C28.5817,31.8944 28.1716,29.5246 27.5596,26.7642 C26.8174,26.8423 26.2249,27.1027 25.7822,27.5454 C25.3526,28.0012 25.1377,28.5155 25.1377,29.0884 C25.1377,30.078 25.6651,30.8788 26.7197,31.4907 C26.8109,31.5819 26.8565,31.6796 26.8565,31.7837 C26.8565,31.8879 26.8109,31.9855 26.7197,32.0767 C26.6416,32.1678 26.544,32.2134 26.4268,32.2134 C26.4137,32.2134 26.3552,32.2004 26.251,32.1743 C25.5088,31.7707 24.9359,31.2499 24.5322,30.6118 C24.1546,29.9348 23.9658,29.2512 23.9658,28.5611 C23.9658,27.6626 24.2458,26.8488 24.8057,26.1197 C25.3916,25.3905 26.1533,24.9217 27.0908,24.7134 C26.7262,23.2551 26.4268,22.1157 26.1924,21.2954 C25.9841,21.5298 25.7334,21.813 25.4404,22.145 C25.1475,22.4771 24.9749,22.6756 24.9229,22.7407 C24.4541,23.3527 24.096,23.828 23.8486,24.1665 C23.4059,24.7785 23.0804,25.3059 22.8721,25.7486 C22.6507,26.2434 22.4554,26.7837 22.2861,27.3697 C22.1169,27.9296 22.0322,28.5285 22.0322,29.1665 M28.5557,9.30325 C27.5791,9.78502 26.8109,10.4751 26.251,11.3736 C25.6781,12.298 25.3916,13.2941 25.3916,14.3618 C25.3916,15.2993 25.626,16.5624 26.0947,18.1509 C27.0322,17.0181 27.7354,15.9699 28.2041,15.0064 C28.6989,13.9907 28.9463,12.9296 28.9463,11.8228 C28.9463,10.9894 28.8161,10.1496 28.5557,9.30325"/>
<path class="" d="M32.0127,70.4387 C31.8174,70.2434 31.7197,70.0025 31.7197,69.7161 C31.7197,69.4296 31.8174,69.1887 32.0127,68.9934 C32.208,68.7981 32.4489,68.7005 32.7354,68.7005 C33.0218,68.7005 33.2627,68.7981 33.458,68.9934 C33.6533,69.1887 33.751,69.4296 33.751,69.7161 C33.751,70.0025 33.6533,70.2434 33.458,70.4387 C33.2627,70.6341 33.0218,70.7317 32.7354,70.7317 C32.4489,70.7317 32.208,70.6341 32.0127,70.4387 M32.0127,75.4387 C31.8174,75.2434 31.7197,75.0025 31.7197,74.7161 C31.7197,74.4296 31.8174,74.1887 32.0127,73.9934 C32.208,73.7981 32.4489,73.7005 32.7354,73.7005 C33.0218,73.7005 33.2627,73.7981 33.458,73.9934 C33.6533,74.1887 33.751,74.4296 33.751,74.7161 C33.751,75.0025 33.6533,75.2434 33.458,75.4387 C33.2627,75.6341 33.0218,75.7317 32.7354,75.7317 C32.4489,75.7317 32.208,75.6341 32.0127,75.4387 M25.2354,66.9622 C26.9671,66.9622 28.3864,67.3984 29.4932,68.2708 C30.5609,69.1822 31.0947,70.4192 31.0947,71.9817 C31.0947,73.0364 30.8864,73.9999 30.4697,74.8723 C30.0791,75.7838 29.5648,76.5911 28.9268,77.2942 C28.2757,78.0104 27.488,78.6874 26.5635,79.3255 C25.6651,79.9505 24.7406,80.5104 23.7901,81.0051 C21.863,81.9817 20.7953,82.47 20.5869,82.47 C20.4177,82.47 20.333,82.3854 20.333,82.2161 C20.333,82.151 20.3591,82.0924 20.4111,82.0403 C21.0752,81.6497 21.889,81.1484 22.8526,80.5364 C23.4776,80.1327 24.2067,79.5729 25.0401,78.8567 C25.8473,78.1796 26.4723,77.5416 26.9151,76.9426 C27.3708,76.3567 27.7874,75.6275 28.1651,74.7551 C28.4906,73.8827 28.6533,73.0234 28.6533,72.177 C28.6533,70.914 28.3408,69.8137 27.7158,68.8762 C27.0908,67.9387 26.264,67.47 25.2354,67.47 C24.5062,67.47 23.8812,67.7044 23.3604,68.1731 C22.8005,68.6549 22.3968,69.2604 22.1494,69.9895 C22.3968,69.8854 22.6247,69.8333 22.833,69.8333 C23.3799,69.8333 23.8486,70.0286 24.2393,70.4192 C24.6299,70.8359 24.8252,71.3111 24.8252,71.845 C24.8252,72.4049 24.6364,72.9062 24.2588,73.3489 C23.8552,73.7525 23.3799,73.9544 22.833,73.9544 C22.2471,73.9544 21.7197,73.7525 21.251,73.3489 C20.8083,72.9062 20.5869,72.4049 20.5869,71.845 C20.5869,70.5038 21.0427,69.358 21.9541,68.4075 C22.8526,67.4439 23.9463,66.9622 25.2354,66.9622"/>
<path class="" fill-rule="evenodd" d="M14.4951,40.5077 C14.4951,34.6665 10.472,28.9887 10.472,23.3926 C10.472,20.5741 11.5692,17.8373 14.9523,15.3864 C14.998,15.3558 15.0209,15.3048 15.0209,15.2741 C15.0209,15.1822 14.7694,15.1005 14.5865,15.1005 C14.4951,15.1005 14.3351,15.1107 14.2208,15.1822 C9.83196,18.3275 8.36901,21.9629 8.36901,25.6392 C8.36901,31.5621 12.6664,37.2808 12.6664,42.9586 C12.6664,45.7771 11.5692,48.4322 8.18614,50.883 L8.18614,50.9647 L8.18614,51.0464 C11.5692,53.4973 12.6664,56.1524 12.6664,58.9709 C12.6664,64.6487 8.36901,70.3674 8.36901,76.2903 C8.36901,79.9666 9.83196,83.602 14.2208,86.7473 C14.3351,86.8188 14.4951,86.829 14.5865,86.829 C14.7694,86.829 15.0209,86.7473 15.0209,86.6554 C15.0209,86.6247 14.998,86.5737 14.9523,86.543 C11.5692,84.0922 10.472,81.3554 10.472,78.5369 C10.472,72.9408 14.4951,67.263 14.4951,61.4217 C14.4951,57.7046 13.0322,54.1509 8.73475,50.9647 C13.0322,47.7786 14.4951,44.2249 14.4951,40.5077"/>
</svg>
