<?xml version="1.0" encoding="UTF-8" standalone="no"?>
<svg width="41px" height="42px" viewBox="0 0 41 42"
 xmlns="http://www.w3.org/2000/svg" xmlns:xlink="http://www.w3.org/1999/xlink" version="1.2" baseProfile="tiny">
<title>LH-Techniques</title>
<desc>Generated by MuseScore 2.2.1</desc>
<polyline class="" fill="none" stroke="#000000" stroke-width="0.40" stroke-linejoin="bevel" points="3.45626,8.4866 74.2266,8.4866"/>
<polyline class="" fill="none" stroke="#000000" stroke-width="0.40" stroke-linejoin="bevel" points="3.45626,13.4866 74.2266,13.4866"/>
<polyline class="" fill="none" stroke="#000000" stroke-width="0.40" stroke-linejoin="bevel" points="3.45626,18.4866 74.2266,18.4866"/>
<polyline class="" fill="none" stroke="#000000" stroke-width="0.40" stroke-linejoin="bevel" points="3.45626,23.4866 74.2266,23.4866"/>
<polyline class="" fill="none" stroke="#000000" stroke-width="0.40" stroke-linejoin="bevel" points="3.45626,28.4866 74.2266,28.4866"/>
<polyline class="" fill="none" stroke="#000000" stroke-width="0.40" stroke-linejoin="bevel" points="-72.517,8.4866 3.45626,8.4866"/>
<polyline class="" fill="none" stroke="#000000" stroke-width="0.40" stroke-linejoin="bevel" points="-72.517,13.4866 3.45626,13.4866"/>
<polyline class="" fill="none" stroke="#000000" stroke-width="0.40" stroke-linejoin="bevel" points="-72.517,18.4866 3.45626,18.4866"/>
<polyline class="" fill="none" stroke="#000000" stroke-width="0.40" stroke-linejoin="bevel" points="-72.517,23.4866 3.45626,23.4866"/>
<polyline class="" fill="none" stroke="#000000" stroke-width="0.40" stroke-linejoin="bevel" points="-72.517,28.4866 3.45626,28.4866"/>
<polyline class="" fill="none" stroke="#000000" stroke-width="0.65" stroke-linecap="round" stroke-linejoin="bevel" points="9.78126,19.1586 9.78126,35.9866"/>
<polyline class="" fill="none" stroke="#000000" stroke-width="0.65" stroke-linecap="round" stroke-linejoin="bevel" points="27.5259,14.1586 27.5259,30.9866"/>
<path class="" d="M11.6963,21.3866 C15.5163,21.3866 16.2763,18.2866 16.2763,17.5266 C16.2763,16.3466 15.3363,15.5866 13.9963,15.5866 C10.5363,15.5866 9.45626,18.2666 9.45626,19.4666 C9.45626,20.6866 10.4363,21.3866 11.6963,21.3866 M13.4563,19.5466 C12.4163,20.2466 11.6963,20.4866 11.1963,20.4866 C10.7163,20.4866 10.4363,20.2466 10.2763,19.9666 C10.1963,19.8266 10.1363,19.6666 10.1363,19.5066 C10.1363,19.0066 10.6363,18.3666 12.2363,17.4466 C13.3763,16.7866 14.0963,16.5466 14.5763,16.5466 C15.0163,16.5466 15.2563,16.7466 15.4163,17.0266 C15.4963,17.1666 15.5563,17.3066 15.5563,17.4666 C15.5563,17.9266 15.0763,18.4866 13.4563,19.5466"/>
<path class="" d="M29.4409,16.3866 C33.2609,16.3866 34.0209,13.2866 34.0209,12.5266 C34.0209,11.3466 33.0809,10.5866 31.7409,10.5866 C28.2809,10.5866 27.2009,13.2666 27.2009,14.4666 C27.2009,15.6866 28.1809,16.3866 29.4409,16.3866 M31.2009,14.5466 C30.1609,15.2466 29.4409,15.4866 28.9409,15.4866 C28.4609,15.4866 28.1809,15.2466 28.0209,14.9666 C27.9409,14.8266 27.8809,14.6666 27.8809,14.5066 C27.8809,14.0066 28.3809,13.3666 29.9809,12.4466 C31.1209,11.7866 31.8409,11.5466 32.3209,11.5466 C32.7609,11.5466 33.0009,11.7466 33.1609,12.0266 C33.2409,12.1666 33.3009,12.3066 33.3009,12.4666 C33.3009,12.9266 32.8209,13.4866 31.2009,14.5466"/>
<path class="" fill-rule="evenodd" d="M13.3542,24.5366 L23.9529,21.4366 L23.9529,23.9366 L13.3542,27.0366 L13.3542,24.5366 M13.3542,28.5366 L23.9529,25.4366 L23.9529,27.9366 L13.3542,31.0366 L13.3542,28.5366 M13.3542,32.5366 L23.9529,29.4366 L23.9529,31.9366 L13.3542,35.0366 L13.3542,32.5366 "/>
</svg>
