<?xml version="1.0" encoding="UTF-8" standalone="no"?>
<svg width="41px" height="42px" viewBox="0 0 41 42"
 xmlns="http://www.w3.org/2000/svg" xmlns:xlink="http://www.w3.org/1999/xlink" version="1.2" baseProfile="tiny">
<title>LH-Techniques</title>
<desc>Generated by MuseScore 2.2.1</desc>
<polyline class="" fill="none" stroke="#000000" stroke-width="0.40" stroke-linejoin="bevel" points="-21.7681,16.0989 54.2052,16.0989"/>
<polyline class="" fill="none" stroke="#000000" stroke-width="0.40" stroke-linejoin="bevel" points="-21.7681,21.0989 54.2052,21.0989"/>
<polyline class="" fill="none" stroke="#000000" stroke-width="0.40" stroke-linejoin="bevel" points="-21.7681,26.0989 54.2052,26.0989"/>
<polyline class="" fill="none" stroke="#000000" stroke-width="0.40" stroke-linejoin="bevel" points="-21.7681,31.0989 54.2052,31.0989"/>
<polyline class="" fill="none" stroke="#000000" stroke-width="0.40" stroke-linejoin="bevel" points="-21.7681,36.0989 54.2052,36.0989"/>
<polyline class="" fill="none" stroke="#000000" stroke-width="0.65" stroke-linecap="round" stroke-linejoin="bevel" points="17.5257,21.7709 17.5257,37.9739"/>
<path class="" d="M19.3807,23.9189 C21.3807,23.9189 23.8407,22.0589 23.8407,20.1589 C23.8407,19.0189 22.9407,18.2789 21.6407,18.2789 C19.1807,18.2789 17.2007,20.0989 17.2007,22.0389 C17.2007,23.2189 18.1607,23.9189 19.3807,23.9189"/>
<path class="" d="M20.6371,3.29893 C20.5571,3.29893 20.4371,3.33893 20.3771,3.35893 L19.3971,3.67893 C19.2171,3.73893 19.1371,3.79893 19.0571,3.99893 L18.3371,5.75893 C18.2571,5.95893 18.2371,5.99893 18.1771,5.99893 C18.0971,5.99893 17.9771,5.89893 17.7971,5.81893 C17.5171,5.69893 17.2571,5.63893 16.9571,5.63893 C16.0171,5.63893 15.3171,6.19893 15.3171,7.03893 C15.3171,7.65893 15.7371,8.17893 16.6371,8.17893 C16.8771,8.17893 17.1371,8.13893 17.2571,8.13893 C17.2971,8.13893 17.3171,8.15893 17.3171,8.19893 C17.3171,8.23893 17.2971,8.29893 17.2571,8.39893 L17.0371,8.93893 C16.8171,9.47893 16.6571,9.87893 16.6571,10.2989 C16.6571,10.8589 17.0371,11.2989 17.7971,11.2989 C18.8371,11.2989 19.8371,10.4589 19.8371,8.97893 C19.8371,8.49893 19.7571,8.05893 19.5771,7.61893 C19.5371,7.51893 19.5171,7.47893 19.5171,7.41893 C19.5171,7.29893 19.6371,7.19893 19.9571,7.01893 L20.0771,6.95893 C20.7771,6.53893 21.2571,6.25893 21.6371,6.25893 C21.8171,6.25893 21.8971,6.31893 21.8971,6.55893 C21.8971,6.75893 21.8371,6.99893 21.7771,7.13893 L20.3171,10.7589 C20.2771,10.8589 20.2571,10.9189 20.2571,10.9789 C20.2571,11.0589 20.3171,11.0989 20.4771,11.0989 L21.4571,11.0989 C21.6371,11.0989 21.6971,11.0589 21.7771,10.8589 L23.0771,7.61893 C23.3371,6.95893 23.9771,6.21893 24.4171,6.21893 C24.5371,6.21893 24.6171,6.25893 24.6171,6.33893 C24.6171,6.51893 24.1771,6.57893 24.1771,7.13893 C24.1771,7.53893 24.4771,7.77893 24.8971,7.77893 C25.3771,7.77893 25.7371,7.37893 25.7371,6.67893 C25.7371,6.09893 25.4371,5.61893 24.6971,5.61893 C24.1771,5.61893 23.7571,5.89893 23.4571,6.23893 C23.2771,6.43893 23.2571,6.51893 23.1771,6.51893 C23.0771,6.51893 23.1571,6.37893 22.9971,6.07893 C22.8571,5.81893 22.5571,5.63893 22.1171,5.63893 C21.3171,5.63893 20.5571,6.03893 20.1371,6.25893 C19.8771,6.39893 19.7571,6.47893 19.6571,6.47893 C19.6171,6.47893 19.5971,6.45893 19.5971,6.41893 C19.5971,6.33893 19.6571,6.21893 19.6971,6.11893 L20.6971,3.63893 C20.7371,3.53893 20.7571,3.47893 20.7571,3.41893 C20.7571,3.33893 20.7171,3.29893 20.6371,3.29893 M16.9571,6.09893 C17.1971,6.09893 17.4971,6.17893 17.7171,6.29893 C17.8971,6.39893 17.9771,6.47893 17.9771,6.57893 C17.9771,6.63893 17.9371,6.73893 17.8971,6.83893 L17.8171,7.03893 C17.7171,7.29893 17.6371,7.35893 17.3771,7.41893 C17.1171,7.47893 16.8771,7.51893 16.6771,7.51893 C16.0171,7.51893 15.8571,7.19893 15.8571,6.91893 C15.8571,6.55893 16.1571,6.09893 16.9571,6.09893 M19.0971,7.75893 C19.1571,7.75893 19.1571,7.81893 19.1971,7.91893 C19.1971,8.25893 19.3771,8.63893 19.3771,8.99893 C19.3771,9.87893 18.8371,10.6789 18.2571,10.6789 C18.0971,10.6789 18.0371,10.5789 18.0371,10.4389 C18.0371,10.2789 18.1171,10.0189 18.1971,9.81893 C18.1971,9.79893 18.2171,9.79893 18.9771,7.89893 C19.0171,7.79893 19.0371,7.75893 19.0971,7.75893"/>
</svg>
