<?xml version="1.0" encoding="UTF-8" standalone="no"?>
<svg
   xmlns:dc="http://purl.org/dc/elements/1.1/"
   xmlns:cc="http://creativecommons.org/ns#"
   xmlns:rdf="http://www.w3.org/1999/02/22-rdf-syntax-ns#"
   xmlns:svg="http://www.w3.org/2000/svg"
   xmlns="http://www.w3.org/2000/svg"
   xmlns:sodipodi="http://sodipodi.sourceforge.net/DTD/sodipodi-0.dtd"
   xmlns:inkscape="http://www.inkscape.org/namespaces/inkscape"
   width="35.206078mm"
   height="169.0172mm"
   viewBox="0 0 35.206078 169.0172"
   version="1.1"
   id="svg2410"
   inkscape:version="1.0 (4035a4f, 2020-05-01)"
   sodipodi:docname="Vc_Strichzeichnung_seitlich.svg">
  <defs
     id="defs2404">
    <inkscape:path-effect
       effect="powerclip"
       id="path-effect3424"
       is_visible="true"
       lpeversion="1"
       inverse="true"
       flatten="false"
       hide_clip="false"
       message="Füllregel Gerade-Ungerade im &lt;b&gt;Füllung und Kontur&lt;/b&gt;-Dialog verwenden, wenn das Anwenden des Ausschnitts mit nachfolgendem Umwandeln in Pfade kein Ergebnis bringt" />
    <inkscape:path-effect
       message="Füllregel Gerade-Ungerade im &lt;b&gt;Füllung und Kontur&lt;/b&gt;-Dialog verwenden, wenn das Anwenden des Ausschnitts mit nachfolgendem Umwandeln in Pfade kein Ergebnis bringt"
       hide_clip="false"
       flatten="false"
       inverse="true"
       lpeversion="1"
       is_visible="true"
       id="path-effect3382"
       effect="powerclip" />
    <inkscape:path-effect
       effect="powerclip"
       id="path-effect3376"
       is_visible="true"
       lpeversion="1"
       inverse="true"
       flatten="false"
       hide_clip="false"
       message="Füllregel Gerade-Ungerade im &lt;b&gt;Füllung und Kontur&lt;/b&gt;-Dialog verwenden, wenn das Anwenden des Ausschnitts mit nachfolgendem Umwandeln in Pfade kein Ergebnis bringt" />
    <inkscape:path-effect
       effect="powerclip"
       id="path-effect3366"
       is_visible="true"
       lpeversion="1"
       inverse="true"
       flatten="false"
       hide_clip="false"
       message="Füllregel Gerade-Ungerade im &lt;b&gt;Füllung und Kontur&lt;/b&gt;-Dialog verwenden, wenn das Anwenden des Ausschnitts mit nachfolgendem Umwandeln in Pfade kein Ergebnis bringt" />
    <inkscape:path-effect
       effect="powerclip"
       id="path-effect3346"
       is_visible="true"
       lpeversion="1"
       inverse="true"
       flatten="false"
       hide_clip="false"
       message="Füllregel Gerade-Ungerade im &lt;b&gt;Füllung und Kontur&lt;/b&gt;-Dialog verwenden, wenn das Anwenden des Ausschnitts mit nachfolgendem Umwandeln in Pfade kein Ergebnis bringt" />
    <inkscape:path-effect
       effect="powerclip"
       id="path-effect3342"
       is_visible="true"
       lpeversion="1"
       inverse="true"
       flatten="false"
       hide_clip="false"
       message="Füllregel Gerade-Ungerade im &lt;b&gt;Füllung und Kontur&lt;/b&gt;-Dialog verwenden, wenn das Anwenden des Ausschnitts mit nachfolgendem Umwandeln in Pfade kein Ergebnis bringt" />
    <inkscape:path-effect
       effect="powerclip"
       id="path-effect3326"
       is_visible="true"
       lpeversion="1"
       inverse="true"
       flatten="false"
       hide_clip="false"
       message="Füllregel Gerade-Ungerade im &lt;b&gt;Füllung und Kontur&lt;/b&gt;-Dialog verwenden, wenn das Anwenden des Ausschnitts mit nachfolgendem Umwandeln in Pfade kein Ergebnis bringt" />
    <inkscape:path-effect
       effect="powerclip"
       id="path-effect3306"
       is_visible="true"
       lpeversion="1"
       inverse="true"
       flatten="false"
       hide_clip="false"
       message="Füllregel Gerade-Ungerade im &lt;b&gt;Füllung und Kontur&lt;/b&gt;-Dialog verwenden, wenn das Anwenden des Ausschnitts mit nachfolgendem Umwandeln in Pfade kein Ergebnis bringt" />
    <inkscape:path-effect
       effect="powerclip"
       id="path-effect3268"
       is_visible="true"
       lpeversion="1"
       inverse="true"
       flatten="false"
       hide_clip="false"
       message="Füllregel Gerade-Ungerade im &lt;b&gt;Füllung und Kontur&lt;/b&gt;-Dialog verwenden, wenn das Anwenden des Ausschnitts mit nachfolgendem Umwandeln in Pfade kein Ergebnis bringt" />
    <inkscape:path-effect
       effect="powerclip"
       id="path-effect3248"
       is_visible="true"
       lpeversion="1"
       inverse="true"
       flatten="false"
       hide_clip="false"
       message="Füllregel Gerade-Ungerade im &lt;b&gt;Füllung und Kontur&lt;/b&gt;-Dialog verwenden, wenn das Anwenden des Ausschnitts mit nachfolgendem Umwandeln in Pfade kein Ergebnis bringt" />
    <inkscape:path-effect
       effect="powerclip"
       id="path-effect3228"
       is_visible="true"
       lpeversion="1"
       inverse="true"
       flatten="false"
       hide_clip="false"
       message="Füllregel Gerade-Ungerade im &lt;b&gt;Füllung und Kontur&lt;/b&gt;-Dialog verwenden, wenn das Anwenden des Ausschnitts mit nachfolgendem Umwandeln in Pfade kein Ergebnis bringt" />
    <inkscape:path-effect
       effect="powerclip"
       id="path-effect3210"
       is_visible="true"
       lpeversion="1"
       inverse="true"
       flatten="false"
       hide_clip="false"
       message="Füllregel Gerade-Ungerade im &lt;b&gt;Füllung und Kontur&lt;/b&gt;-Dialog verwenden, wenn das Anwenden des Ausschnitts mit nachfolgendem Umwandeln in Pfade kein Ergebnis bringt" />
    <inkscape:path-effect
       effect="powerclip"
       id="path-effect3160"
       is_visible="true"
       lpeversion="1"
       inverse="true"
       flatten="false"
       hide_clip="false"
       message="Füllregel Gerade-Ungerade im &lt;b&gt;Füllung und Kontur&lt;/b&gt;-Dialog verwenden, wenn das Anwenden des Ausschnitts mit nachfolgendem Umwandeln in Pfade kein Ergebnis bringt" />
    <inkscape:path-effect
       effect="powerclip"
       id="path-effect2583"
       is_visible="true"
       lpeversion="1"
       inverse="true"
       flatten="false"
       hide_clip="false"
       message="Füllregel Gerade-Ungerade im &lt;b&gt;Füllung und Kontur&lt;/b&gt;-Dialog verwenden, wenn das Anwenden des Ausschnitts mit nachfolgendem Umwandeln in Pfade kein Ergebnis bringt" />
    <clipPath
       clipPathUnits="userSpaceOnUse"
       id="clipPath2575">
      <g
         id="g2581"
         style="display:none">
        <path
           sodipodi:nodetypes="sssssssss"
           d="M 138.3054,129.26523 L 138.30738,129.26525 C 138.55867,129.26837 138.75663,129.47316 138.75534,129.72446 C 138.69846,140.78829 138.54246,151.85212 138.3438,162.91595 C 138.33929,163.16721 138.13587,163.36702 137.88459,163.36391 L 137.88261,163.36388 C 137.63132,163.36077 137.42896,163.15592 137.43465,162.90468 C 137.68521,151.84084 137.8779,140.77702 137.84619,129.71319 C 137.84547,129.46188 138.05412,129.26211 138.3054,129.26523 Z"
           inkscape:transform-center-y="-30.530155"
           inkscape:transform-center-x="-1.1617435"
           style="fill:#fffdff;stroke:#000000;stroke-width:0.144467;stroke-linecap:round;stroke-linejoin:round;stroke-miterlimit:10;stroke-dasharray:none;stroke-opacity:1"
           id="path2577" />
        <path
           id="path2579"
           style="fill:#fffdff;stroke:#000000;stroke-width:0.144467;stroke-linecap:round;stroke-linejoin:round;stroke-miterlimit:10;stroke-dasharray:none;stroke-opacity:1"
           inkscape:transform-center-x="1.1960044"
           inkscape:transform-center-y="-31.237265"
           d="M 154.96758,129.41377 L 154.96956,129.41376 C 155.22085,129.41168 155.42176,129.61125 155.42803,129.86247 C 155.70364,140.92466 155.95585,152.14782 155.79109,163.21328 C 155.78735,163.46456 155.59366,163.66905 155.34238,163.67175 L 155.34039,163.67177 C 155.0891,163.67447 154.87062,163.31562 154.8756,163.06436 C 155.09499,151.9977 154.87867,140.93238 154.51887,129.87224 C 154.51069,129.62107 154.71628,129.41584 154.96758,129.41377 Z"
           sodipodi:nodetypes="sssssssss" />
      </g>
    </clipPath>
    <clipPath
       clipPathUnits="userSpaceOnUse"
       id="clipPath3156">
      <path
         id="path3158"
         style="display:none;fill:#fffdff;stroke:#000000;stroke-width:0.144467;stroke-linecap:round;stroke-linejoin:round;stroke-miterlimit:10;stroke-dasharray:none;stroke-opacity:1"
         inkscape:transform-center-x="-1.1617435"
         inkscape:transform-center-y="-30.530155"
         d="M 138.3054,129.26523 L 138.30738,129.26525 C 138.55867,129.26837 138.75663,129.47316 138.75534,129.72446 C 138.69846,140.78829 138.54246,151.85212 138.3438,162.91595 C 138.33929,163.16721 138.13587,163.36702 137.88459,163.36391 L 137.88261,163.36388 C 137.63132,163.36077 137.42896,163.15592 137.43465,162.90468 C 137.68521,151.84084 137.8779,140.77702 137.84619,129.71319 C 137.84547,129.46188 138.05412,129.26211 138.3054,129.26523 Z"
         sodipodi:nodetypes="sssssssss" />
      <path
         id="lpe_path-effect3160"
         style="fill:#fffdff;stroke:#000000;stroke-width:0.144467;stroke-linecap:round;stroke-linejoin:round;stroke-miterlimit:10;stroke-dasharray:none;stroke-opacity:1"
         class="powerclip"
         d="M 133.01427,158.06782 H 143.68649 V 193.45558 H 133.01427 Z M 137.827,187.82939 C 137.5858,187.82939 137.32828,188.10528 137.39162,188.43443 L 137.68011,189.93335 V 231.88941 C 137.68011,232.2246 137.87429,232.49444 138.11549,232.49444 C 138.35669,232.49444 138.55087,232.2246 138.55087,231.88941 V 189.93335 L 138.26239,188.43443 C 138.19904,188.10528 138.06821,187.82939 137.827,187.82939 Z M 138.3054,129.26523 C 138.05412,129.26211 137.84547,129.46188 137.84619,129.71319 C 137.8779,140.77702 137.68521,151.84084 137.43465,162.90468 C 137.42896,163.15592 137.63132,163.36077 137.88261,163.36388 L 137.88459,163.36391 C 138.13587,163.36702 138.33929,163.16721 138.3438,162.91595 C 138.54246,151.85212 138.69846,140.78829 138.75534,129.72446 C 138.75663,129.47316 138.55867,129.26837 138.30738,129.26525 Z" />
    </clipPath>
    <clipPath
       clipPathUnits="userSpaceOnUse"
       id="clipPath3202">
      <g
         id="g3208"
         style="display:none">
        <path
           sodipodi:nodetypes="sscssscss"
           d="M 137.827,187.82939 C 138.06821,187.82939 138.19904,188.10528 138.26239,188.43443 L 138.55087,189.93335 V 231.88941 C 138.55087,232.2246 138.35669,232.49444 138.11549,232.49444 C 137.87429,232.49444 137.68011,232.2246 137.68011,231.88941 V 189.93335 L 137.39162,188.43443 C 137.32828,188.10528 137.5858,187.82939 137.827,187.82939 Z"
           style="fill:#fffdff;stroke:#000000;stroke-width:0.144467;stroke-linecap:round;stroke-linejoin:round;stroke-miterlimit:10;stroke-dasharray:none;stroke-opacity:1"
           id="path3204" />
        <path
           sodipodi:nodetypes="sssssssss"
           d="M 138.3054,129.26523 L 138.30738,129.26525 C 138.55867,129.26837 138.75663,129.47316 138.75534,129.72446 C 138.69846,140.78829 138.54246,151.85212 138.3438,162.91595 C 138.33929,163.16721 138.13587,163.36702 137.88459,163.36391 L 137.88261,163.36388 C 137.63132,163.36077 137.42896,163.15592 137.43465,162.90468 C 137.68521,151.84084 137.8779,140.77702 137.84619,129.71319 C 137.84547,129.46188 138.05412,129.26211 138.3054,129.26523 Z"
           inkscape:transform-center-y="-30.530155"
           inkscape:transform-center-x="-1.1617435"
           style="fill:#fffdff;stroke:#000000;stroke-width:0.144467;stroke-linecap:round;stroke-linejoin:round;stroke-miterlimit:10;stroke-dasharray:none;stroke-opacity:1"
           id="path3206" />
      </g>
      <path
         id="lpe_path-effect3210"
         class="powerclip"
         d="M 133.01427,158.06782 H 143.68649 V 193.45558 H 133.01427 Z M 137.827,187.82939 C 137.5858,187.82939 137.32828,188.10528 137.39162,188.43443 L 137.68011,189.93335 V 231.88941 C 137.68011,232.2246 137.87429,232.49444 138.11549,232.49444 C 138.35669,232.49444 138.55087,232.2246 138.55087,231.88941 V 189.93335 L 138.26239,188.43443 C 138.19904,188.10528 138.06821,187.82939 137.827,187.82939 Z M 138.3054,129.26523 C 138.05412,129.26211 137.84547,129.46188 137.84619,129.71319 C 137.8779,140.77702 137.68521,151.84084 137.43465,162.90468 C 137.42896,163.15592 137.63132,163.36077 137.88261,163.36388 L 137.88459,163.36391 C 138.13587,163.36702 138.33929,163.16721 138.3438,162.91595 C 138.54246,151.85212 138.69846,140.78829 138.75534,129.72446 C 138.75663,129.47316 138.55867,129.26837 138.30738,129.26525 Z" />
    </clipPath>
    <clipPath
       clipPathUnits="userSpaceOnUse"
       id="clipPath3220">
      <g
         id="g3226"
         style="display:none">
        <path
           id="path3222"
           style="fill:#fffdff;stroke:#000000;stroke-width:0.144467;stroke-linecap:round;stroke-linejoin:round;stroke-miterlimit:10;stroke-dasharray:none;stroke-opacity:1"
           inkscape:transform-center-x="1.1960044"
           inkscape:transform-center-y="-31.237265"
           d="M 154.96758,129.41377 L 154.96956,129.41376 C 155.22085,129.41168 155.42176,129.61125 155.42803,129.86247 C 155.70364,140.92466 155.95585,152.14782 155.79109,163.21328 C 155.78735,163.46456 155.59366,163.66905 155.34238,163.67175 L 155.34039,163.67177 C 155.0891,163.67447 154.87062,163.31562 154.8756,163.06436 C 155.09499,151.9977 154.87867,140.93238 154.51887,129.87224 C 154.51069,129.62107 154.71628,129.41584 154.96758,129.41377 Z"
           sodipodi:nodetypes="sssssssss" />
        <path
           id="path3224"
           style="fill:#fffdff;stroke:#000000;stroke-width:0.144467;stroke-linecap:round;stroke-linejoin:round;stroke-miterlimit:10;stroke-dasharray:none;stroke-opacity:1"
           d="M 155.54026,187.7988 C 155.29905,187.7988 155.13305,188.06983 155.10487,188.40384 L 154.97583,189.93335 V 231.88941 C 154.97583,232.2246 155.17001,232.49444 155.41122,232.49444 C 155.65242,232.49444 155.8466,232.2246 155.8466,231.88941 V 189.93335 L 155.97564,188.40384 C 156.00382,188.06983 155.78146,187.7988 155.54026,187.7988 Z"
           sodipodi:nodetypes="sscssscss" />
      </g>
      <path
         id="lpe_path-effect3228"
         class="powerclip"
         d="M 149.67318,158.35631 H 160.34539 V 193.45558 H 149.67318 Z M 154.96758,129.41377 C 154.71628,129.41584 154.51069,129.62107 154.51887,129.87224 C 154.87867,140.93238 155.09499,151.9977 154.8756,163.06436 C 154.87062,163.31562 155.0891,163.67447 155.34039,163.67177 L 155.34238,163.67175 C 155.59366,163.66905 155.78735,163.46456 155.79109,163.21328 C 155.95585,152.14782 155.70364,140.92466 155.42803,129.86247 C 155.42176,129.61125 155.22085,129.41168 154.96956,129.41376 Z M 155.54026,187.7988 C 155.29905,187.7988 155.13305,188.06983 155.10487,188.40384 L 154.97583,189.93335 V 231.88941 C 154.97583,232.2246 155.17001,232.49444 155.41122,232.49444 C 155.65242,232.49444 155.8466,232.2246 155.8466,231.88941 V 189.93335 L 155.97564,188.40384 C 156.00382,188.06983 155.78146,187.7988 155.54026,187.7988 Z" />
    </clipPath>
    <clipPath
       clipPathUnits="userSpaceOnUse"
       id="clipPath3240">
      <g
         id="g3246"
         style="display:block">
        <path
           sodipodi:nodetypes="sssssssss"
           d="M 138.3054,129.26523 L 138.30738,129.26525 C 138.55867,129.26837 138.75663,129.47316 138.75534,129.72446 C 138.69846,140.78829 138.54246,151.85212 138.3438,162.91595 C 138.33929,163.16721 138.13587,163.36702 137.88459,163.36391 L 137.88261,163.36388 C 137.63132,163.36077 137.42896,163.15592 137.43465,162.90468 C 137.68521,151.84084 137.8779,140.77702 137.84619,129.71319 C 137.84547,129.46188 138.05412,129.26211 138.3054,129.26523 Z"
           inkscape:transform-center-y="-30.530155"
           inkscape:transform-center-x="-1.1617435"
           style="fill:#fffdff;stroke:#000000;stroke-width:0.144467;stroke-linecap:round;stroke-linejoin:round;stroke-miterlimit:10;stroke-dasharray:none;stroke-opacity:1"
           id="path3242" />
        <path
           id="path3244"
           style="fill:#fffdff;stroke:#000000;stroke-width:0.144467;stroke-linecap:round;stroke-linejoin:round;stroke-miterlimit:10;stroke-dasharray:none;stroke-opacity:1"
           inkscape:transform-center-x="1.1960044"
           inkscape:transform-center-y="-31.237265"
           d="M 154.96758,129.41377 L 154.96956,129.41376 C 155.22085,129.41168 155.42176,129.61125 155.42803,129.86247 C 155.70364,140.92466 155.95585,152.14782 155.79109,163.21328 C 155.78735,163.46456 155.59366,163.66905 155.34238,163.67175 L 155.34039,163.67177 C 155.0891,163.67447 154.87062,163.31562 154.8756,163.06436 C 155.09499,151.9977 154.87867,140.93238 154.51887,129.87224 C 154.51069,129.62107 154.71628,129.41584 154.96758,129.41377 Z"
           sodipodi:nodetypes="sssssssss" />
      </g>
    </clipPath>
    <clipPath
       clipPathUnits="userSpaceOnUse"
       id="clipPath3260">
      <g
         id="g3266"
         style="display:none">
        <path
           sodipodi:nodetypes="sscssscss"
           d="M 137.827,187.82939 C 138.06821,187.82939 138.19904,188.10528 138.26239,188.43443 L 138.55087,189.93335 V 231.88941 C 138.55087,232.2246 138.35669,232.49444 138.11549,232.49444 C 137.87429,232.49444 137.68011,232.2246 137.68011,231.88941 V 189.93335 L 137.39162,188.43443 C 137.32828,188.10528 137.5858,187.82939 137.827,187.82939 Z"
           style="fill:#fffdff;stroke:#000000;stroke-width:0.144467;stroke-linecap:round;stroke-linejoin:round;stroke-miterlimit:10;stroke-dasharray:none;stroke-opacity:1"
           id="path3262" />
        <path
           id="path3264"
           style="fill:#fffdff;stroke:#000000;stroke-width:0.144467;stroke-linecap:round;stroke-linejoin:round;stroke-miterlimit:10;stroke-dasharray:none;stroke-opacity:1"
           d="M 155.54026,187.7988 C 155.29905,187.7988 155.13305,188.06983 155.10487,188.40384 L 154.97583,189.93335 V 231.88941 C 154.97583,232.2246 155.17001,232.49444 155.41122,232.49444 C 155.65242,232.49444 155.8466,232.2246 155.8466,231.88941 V 189.93335 L 155.97564,188.40384 C 156.00382,188.06983 155.78146,187.7988 155.54026,187.7988 Z"
           sodipodi:nodetypes="sscssscss" />
      </g>
      <path
         id="lpe_path-effect3268"
         class="powerclip"
         d="M 132.19737,157.9079 H 161.05531 V 193.50975 H 132.19737 Z M 137.827,187.82939 C 137.5858,187.82939 137.32828,188.10528 137.39162,188.43443 L 137.68011,189.93335 V 231.88941 C 137.68011,232.2246 137.87429,232.49444 138.11549,232.49444 C 138.35669,232.49444 138.55087,232.2246 138.55087,231.88941 V 189.93335 L 138.26239,188.43443 C 138.19904,188.10528 138.06821,187.82939 137.827,187.82939 Z M 155.54026,187.7988 C 155.29905,187.7988 155.13305,188.06983 155.10487,188.40384 L 154.97583,189.93335 V 231.88941 C 154.97583,232.2246 155.17001,232.49444 155.41122,232.49444 C 155.65242,232.49444 155.8466,232.2246 155.8466,231.88941 V 189.93335 L 155.97564,188.40384 C 156.00382,188.06983 155.78146,187.7988 155.54026,187.7988 Z" />
    </clipPath>
    <clipPath
       clipPathUnits="userSpaceOnUse"
       id="clipPath3298">
      <g
         id="g3304"
         style="display:none">
        <path
           id="path3300"
           style="fill:#fffdff;stroke:#000000;stroke-width:0.144467;stroke-linecap:round;stroke-linejoin:round;stroke-miterlimit:10;stroke-dasharray:none;stroke-opacity:1"
           inkscape:transform-center-x="1.1960044"
           inkscape:transform-center-y="-31.237265"
           d="M 154.96758,129.41377 L 154.96956,129.41376 C 155.22085,129.41168 155.42176,129.61125 155.42803,129.86247 C 155.70364,140.92466 155.95585,152.14782 155.79109,163.21328 C 155.78735,163.46456 155.59366,163.66905 155.34238,163.67175 L 155.34039,163.67177 C 155.0891,163.67447 154.87062,163.31562 154.8756,163.06436 C 155.09499,151.9977 154.87867,140.93238 154.51887,129.87224 C 154.51069,129.62107 154.71628,129.41584 154.96758,129.41377 Z"
           sodipodi:nodetypes="sssssssss" />
        <path
           sodipodi:nodetypes="sssssssss"
           d="M 138.3054,129.26523 L 138.30738,129.26525 C 138.55867,129.26837 138.75663,129.47316 138.75534,129.72446 C 138.69846,140.78829 138.54246,151.85212 138.3438,162.91595 C 138.33929,163.16721 138.13587,163.36702 137.88459,163.36391 L 137.88261,163.36388 C 137.63132,163.36077 137.42896,163.15592 137.43465,162.90468 C 137.68521,151.84084 137.8779,140.77702 137.84619,129.71319 C 137.84547,129.46188 138.05412,129.26211 138.3054,129.26523 Z"
           inkscape:transform-center-y="-30.530155"
           inkscape:transform-center-x="-1.1617435"
           style="fill:#fffdff;stroke:#000000;stroke-width:0.144467;stroke-linecap:round;stroke-linejoin:round;stroke-miterlimit:10;stroke-dasharray:none;stroke-opacity:1"
           id="path3302" />
      </g>
      <path
         id="lpe_path-effect3306"
         class="powerclip"
         d="M 132.19737,157.9079 H 161.05531 V 193.50975 H 132.19737 Z M 137.827,187.82939 C 137.5858,187.82939 137.32828,188.10528 137.39162,188.43443 L 137.68011,189.93335 V 231.88941 C 137.68011,232.2246 137.87429,232.49444 138.11549,232.49444 C 138.35669,232.49444 138.55087,232.2246 138.55087,231.88941 V 189.93335 L 138.26239,188.43443 C 138.19904,188.10528 138.06821,187.82939 137.827,187.82939 Z M 155.54026,187.7988 C 155.29905,187.7988 155.13305,188.06983 155.10487,188.40384 L 154.97583,189.93335 V 231.88941 C 154.97583,232.2246 155.17001,232.49444 155.41122,232.49444 C 155.65242,232.49444 155.8466,232.2246 155.8466,231.88941 V 189.93335 L 155.97564,188.40384 C 156.00382,188.06983 155.78146,187.7988 155.54026,187.7988 Z" />
    </clipPath>
    <clipPath
       clipPathUnits="userSpaceOnUse"
       id="clipPath3318">
      <g
         id="g3324"
         style="display:none">
        <path
           sodipodi:nodetypes="sscssscss"
           d="M 137.827,187.82939 C 138.06821,187.82939 138.19904,188.10528 138.26239,188.43443 L 138.55087,189.93335 V 231.88941 C 138.55087,232.2246 138.35669,232.49444 138.11549,232.49444 C 137.87429,232.49444 137.68011,232.2246 137.68011,231.88941 V 189.93335 L 137.39162,188.43443 C 137.32828,188.10528 137.5858,187.82939 137.827,187.82939 Z"
           style="fill:#fffdff;stroke:#000000;stroke-width:0.144467;stroke-linecap:round;stroke-linejoin:round;stroke-miterlimit:10;stroke-dasharray:none;stroke-opacity:1"
           id="path3320" />
        <path
           id="path3322"
           style="fill:#fffdff;stroke:#000000;stroke-width:0.144467;stroke-linecap:round;stroke-linejoin:round;stroke-miterlimit:10;stroke-dasharray:none;stroke-opacity:1"
           d="M 155.54026,187.7988 C 155.29905,187.7988 155.13305,188.06983 155.10487,188.40384 L 154.97583,189.93335 V 231.88941 C 154.97583,232.2246 155.17001,232.49444 155.41122,232.49444 C 155.65242,232.49444 155.8466,232.2246 155.8466,231.88941 V 189.93335 L 155.97564,188.40384 C 156.00382,188.06983 155.78146,187.7988 155.54026,187.7988 Z"
           sodipodi:nodetypes="sscssscss" />
      </g>
      <path
         id="lpe_path-effect3326"
         class="powerclip"
         d="M 132.19737,157.9079 H 161.05531 V 193.50975 H 132.19737 Z M 137.827,187.82939 C 137.5858,187.82939 137.32828,188.10528 137.39162,188.43443 L 137.68011,189.93335 V 231.88941 C 137.68011,232.2246 137.87429,232.49444 138.11549,232.49444 C 138.35669,232.49444 138.55087,232.2246 138.55087,231.88941 V 189.93335 L 138.26239,188.43443 C 138.19904,188.10528 138.06821,187.82939 137.827,187.82939 Z M 155.54026,187.7988 C 155.29905,187.7988 155.13305,188.06983 155.10487,188.40384 L 154.97583,189.93335 V 231.88941 C 154.97583,232.2246 155.17001,232.49444 155.41122,232.49444 C 155.65242,232.49444 155.8466,232.2246 155.8466,231.88941 V 189.93335 L 155.97564,188.40384 C 156.00382,188.06983 155.78146,187.7988 155.54026,187.7988 Z" />
    </clipPath>
    <clipPath
       clipPathUnits="userSpaceOnUse"
       id="clipPath3334">
      <path
         sodipodi:nodetypes="sscssscss"
         d="M 155.54026,187.7988 C 155.29905,187.7988 155.13305,188.06983 155.10487,188.40384 L 154.97583,189.93335 V 231.88941 C 154.97583,232.2246 155.17001,232.49444 155.41122,232.49444 C 155.65242,232.49444 155.8466,232.2246 155.8466,231.88941 V 189.93335 L 155.97564,188.40384 C 156.00382,188.06983 155.78146,187.7988 155.54026,187.7988 Z"
         style="display:none;fill:#fffdff;stroke:#000000;stroke-width:0.144467;stroke-linecap:round;stroke-linejoin:round;stroke-miterlimit:10;stroke-dasharray:none;stroke-opacity:1"
         id="path3336" />
      <path
         id="lpe_path-effect3342"
         style="fill:#fffdff;stroke:#000000;stroke-width:0.144467;stroke-linecap:round;stroke-linejoin:round;stroke-miterlimit:10;stroke-dasharray:none;stroke-opacity:1"
         class="powerclip"
         d="M 132.18121,182.62939 H 143.75087 V 237.69444 H 132.18121 Z M 155.54026,187.7988 C 155.29905,187.7988 155.13305,188.06983 155.10487,188.40384 L 154.97583,189.93335 V 231.88941 C 154.97583,232.2246 155.17001,232.49444 155.41122,232.49444 C 155.65242,232.49444 155.8466,232.2246 155.8466,231.88941 V 189.93335 L 155.97564,188.40384 C 156.00382,188.06983 155.78146,187.7988 155.54026,187.7988 Z" />
    </clipPath>
    <clipPath
       clipPathUnits="userSpaceOnUse"
       id="clipPath3338">
      <path
         sodipodi:nodetypes="sscssscss"
         d="M 155.54026,187.7988 C 155.29905,187.7988 155.13305,188.06983 155.10487,188.40384 L 154.97583,189.93335 V 231.88941 C 154.97583,232.2246 155.17001,232.49444 155.41122,232.49444 C 155.65242,232.49444 155.8466,232.2246 155.8466,231.88941 V 189.93335 L 155.97564,188.40384 C 156.00382,188.06983 155.78146,187.7988 155.54026,187.7988 Z"
         style="display:none;fill:#fffdff;stroke:#000000;stroke-width:0.144467;stroke-linecap:round;stroke-linejoin:round;stroke-miterlimit:10;stroke-dasharray:none;stroke-opacity:1"
         id="path3340" />
    </clipPath>
    <clipPath
       clipPathUnits="userSpaceOnUse"
       id="clipPath3352">
      <path
         sodipodi:nodetypes="ccccc"
         id="path3354"
         d="M 148.67405,231.66885 L 148.24737,232.93436 C 147.45034,232.42108 146.70058,232.55258 145.84805,232.8822 L 145.32646,231.68254 C 146.92866,230.87719 147.87066,231.33058 148.67405,231.66885 Z"
         style="fill:#ffffff;fill-opacity:1;stroke:#000000;stroke-width:0.14424px;stroke-linecap:butt;stroke-linejoin:miter;stroke-opacity:1" />
    </clipPath>
    <clipPath
       clipPathUnits="userSpaceOnUse"
       id="clipPath3362">
      <path
         sodipodi:nodetypes="ccccc"
         id="path3364"
         d="M 148.67405,231.66885 L 148.24737,232.93436 C 147.45034,232.42108 146.70058,232.55258 145.84805,232.8822 L 145.32646,231.68254 C 146.92866,230.87719 147.87066,231.33058 148.67405,231.66885 Z"
         style="display:none;fill:#ffffff;fill-opacity:1;stroke:#000000;stroke-width:0.14424px;stroke-linecap:butt;stroke-linejoin:miter;stroke-opacity:1" />
      <path
         id="lpe_path-effect3366"
         style="fill:#ffffff;fill-opacity:1;stroke:#000000;stroke-width:0.14424px;stroke-linecap:butt;stroke-linejoin:miter;stroke-opacity:1"
         class="powerclip"
         d="M 129.92724,87.334702 H 163.29453 V 237.63563 H 129.92724 Z M 137.827,187.82939 C 137.5858,187.82939 137.32828,188.10528 137.39162,188.43443 L 137.68011,189.93335 V 231.88941 C 137.68011,232.2246 137.87429,232.49444 138.11549,232.49444 C 138.35669,232.49444 138.55087,232.2246 138.55087,231.88941 V 189.93335 L 138.26239,188.43443 C 138.19904,188.10528 138.06821,187.82939 137.827,187.82939 Z M 148.67405,231.66885 C 147.87066,231.33058 146.92866,230.87719 145.32646,231.68254 L 145.84805,232.8822 C 146.70058,232.55258 147.45034,232.42108 148.24737,232.93436 Z M 155.54026,187.7988 C 155.29905,187.7988 155.13305,188.06983 155.10487,188.40384 L 154.97583,189.93335 V 231.88941 C 154.97583,232.2246 155.17001,232.49444 155.41122,232.49444 C 155.65242,232.49444 155.8466,232.2246 155.8466,231.88941 V 189.93335 L 155.97564,188.40384 C 156.00382,188.06983 155.78146,187.7988 155.54026,187.7988 Z" />
    </clipPath>
    <clipPath
       clipPathUnits="userSpaceOnUse"
       id="clipPath3372">
      <path
         sodipodi:nodetypes="ccccc"
         id="path3374"
         d="M 148.67405,231.66885 L 148.24737,232.93436 C 147.45034,232.42108 146.70058,232.55258 145.84805,232.8822 L 145.32646,231.68254 C 146.92866,230.87719 147.87066,231.33058 148.67405,231.66885 Z"
         style="display:none;fill:#ffffff;fill-opacity:1;stroke:#000000;stroke-width:0.14424px;stroke-linecap:butt;stroke-linejoin:miter;stroke-opacity:1" />
      <path
         id="lpe_path-effect3376"
         style="fill:#ffffff;fill-opacity:1;stroke:#000000;stroke-width:0.14424px;stroke-linecap:butt;stroke-linejoin:miter;stroke-opacity:1"
         class="powerclip"
         d="M 129.92724,87.334702 H 163.29453 V 237.63563 H 129.92724 Z M 137.827,187.82939 C 137.5858,187.82939 137.32828,188.10528 137.39162,188.43443 L 137.68011,189.93335 V 231.88941 C 137.68011,232.2246 137.87429,232.49444 138.11549,232.49444 C 138.35669,232.49444 138.55087,232.2246 138.55087,231.88941 V 189.93335 L 138.26239,188.43443 C 138.19904,188.10528 138.06821,187.82939 137.827,187.82939 Z M 148.67405,231.66885 C 147.87066,231.33058 146.92866,230.87719 145.32646,231.68254 L 145.84805,232.8822 C 146.70058,232.55258 147.45034,232.42108 148.24737,232.93436 Z M 155.54026,187.7988 C 155.29905,187.7988 155.13305,188.06983 155.10487,188.40384 L 154.97583,189.93335 V 231.88941 C 154.97583,232.2246 155.17001,232.49444 155.41122,232.49444 C 155.65242,232.49444 155.8466,232.2246 155.8466,231.88941 V 189.93335 L 155.97564,188.40384 C 156.00382,188.06983 155.78146,187.7988 155.54026,187.7988 Z" />
    </clipPath>
    <clipPath
       id="clipath_lpe_path-effect3382"
       clipPathUnits="userSpaceOnUse">
      <path
         inkscape:original-d="M 155.54026,187.7988 C 155.29905,187.7988 155.13305,188.06983 155.10487,188.40384 L 154.97583,189.93335 V 231.88941 C 154.97583,232.2246 155.17001,232.49444 155.41122,232.49444 C 155.65242,232.49444 155.8466,232.2246 155.8466,231.88941 V 189.93335 L 155.97564,188.40384 C 156.00382,188.06983 155.78146,187.7988 155.54026,187.7988 Z"
         id="path3384"
         style="display:none;fill:#fffdff;stroke:#000000;stroke-width:0.144467;stroke-linecap:round;stroke-linejoin:round;stroke-miterlimit:10;stroke-dasharray:none;stroke-opacity:1"
         d="M 155.54026,187.7988 C 155.29905,187.7988 155.13305,188.06983 155.10487,188.40384 L 154.97583,189.93335 V 231.88941 C 154.97583,232.2246 155.17001,232.49444 155.41122,232.49444 C 155.65242,232.49444 155.8466,232.2246 155.8466,231.88941 V 189.93335 L 155.97564,188.40384 C 156.00382,188.06983 155.78146,187.7988 155.54026,187.7988 Z"
         sodipodi:nodetypes="sscssscss" />
      <path
         inkscape:original-d="M 132.30942,182.75716 H 143.6231 V 237.56667 H 132.30942 Z M 155.54026,187.7988 C 155.29905,187.7988 155.13305,188.06983 155.10487,188.40384 L 154.97583,189.93335 V 231.88941 C 154.97583,232.2246 155.17001,232.49444 155.41122,232.49444 C 155.65242,232.49444 155.8466,232.2246 155.8466,231.88941 V 189.93335 L 155.97564,188.40384 C 156.00382,188.06983 155.78146,187.7988 155.54026,187.7988 Z"
         d="M 132.30942,182.75716 H 143.6231 V 237.56667 H 132.30942 Z M 155.54026,187.7988 C 155.29905,187.7988 155.13305,188.06983 155.10487,188.40384 L 154.97583,189.93335 V 231.88941 C 154.97583,232.2246 155.17001,232.49444 155.41122,232.49444 C 155.65242,232.49444 155.8466,232.2246 155.8466,231.88941 V 189.93335 L 155.97564,188.40384 C 156.00382,188.06983 155.78146,187.7988 155.54026,187.7988 Z"
         class="powerclip"
         style="fill:#fffdff;stroke:#000000;stroke-width:0.144467;stroke-linecap:round;stroke-linejoin:round;stroke-miterlimit:10;stroke-dasharray:none;stroke-opacity:1"
         id="lpe_path-effect3382" />
    </clipPath>
    <clipPath
       clipPathUnits="userSpaceOnUse"
       id="clipPath3414">
      <g
         id="g3422"
         style="display:none">
        <path
           id="path3416"
           style="fill:none;stroke:#000000;stroke-width:0.144467;stroke-linecap:round;stroke-linejoin:round;stroke-miterlimit:10;stroke-dasharray:none;stroke-opacity:1"
           d="M 137.827,187.82939 C 138.06821,187.82939 138.19904,188.10528 138.26239,188.43443 L 138.55087,189.93335 V 231.88941 C 138.55087,232.2246 138.35669,232.49444 138.11549,232.49444 C 137.87429,232.49444 137.68011,232.2246 137.68011,231.88941 V 189.93335 L 137.39162,188.43443 C 137.32828,188.10528 137.5858,187.82939 137.827,187.82939 Z"
           sodipodi:nodetypes="sscssscss"
           clip-path="url(#clipath_lpe_path-effect3382)"
           inkscape:path-effect="#path-effect3382"
           inkscape:original-d="M 137.827,187.82939 C 138.06821,187.82939 138.19904,188.10528 138.26239,188.43443 L 138.55087,189.93335 V 231.88941 C 138.55087,232.2246 138.35669,232.49444 138.11549,232.49444 C 137.87429,232.49444 137.68011,232.2246 137.68011,231.88941 V 189.93335 L 137.39162,188.43443 C 137.32828,188.10528 137.5858,187.82939 137.827,187.82939 Z" />
        <path
           style="fill:#ffffff;fill-opacity:1;stroke:#000000;stroke-width:0.14424px;stroke-linecap:butt;stroke-linejoin:miter;stroke-opacity:1"
           d="M 148.67405,231.66885 L 148.24737,232.93436 C 147.45034,232.42108 146.70058,232.55258 145.84805,232.8822 L 145.32646,231.68254 C 146.92866,230.87719 147.87066,231.33058 148.67405,231.66885 Z"
           id="path3418"
           sodipodi:nodetypes="ccccc" />
        <path
           id="path3420"
           style="fill:#ffffff;fill-opacity:1;stroke:#000000;stroke-width:0.144467;stroke-linecap:round;stroke-linejoin:round;stroke-miterlimit:10;stroke-dasharray:none;stroke-opacity:1"
           d="M 155.54026,187.7988 C 155.29905,187.7988 155.13305,188.06983 155.10487,188.40384 L 154.97583,189.93335 V 231.88941 C 154.97583,232.2246 155.17001,232.49444 155.41122,232.49444 C 155.65242,232.49444 155.8466,232.2246 155.8466,231.88941 V 189.93335 L 155.97564,188.40384 C 156.00382,188.06983 155.78146,187.7988 155.54026,187.7988 Z"
           sodipodi:nodetypes="sscssscss" />
      </g>
      <path
         id="lpe_path-effect3424"
         class="powerclip"
         d="M 129.92724,87.334702 H 163.29453 V 237.63563 H 129.92724 Z M 137.827,187.82939 C 137.5858,187.82939 137.32828,188.10528 137.39162,188.43443 L 137.68011,189.93335 V 231.88941 C 137.68011,232.2246 137.87429,232.49444 138.11549,232.49444 C 138.35669,232.49444 138.55087,232.2246 138.55087,231.88941 V 189.93335 L 138.26239,188.43443 C 138.19904,188.10528 138.06821,187.82939 137.827,187.82939 Z M 148.67405,231.66885 C 147.87066,231.33058 146.92866,230.87719 145.32646,231.68254 L 145.84805,232.8822 C 146.70058,232.55258 147.45034,232.42108 148.24737,232.93436 Z M 155.54026,187.7988 C 155.29905,187.7988 155.13305,188.06983 155.10487,188.40384 L 154.97583,189.93335 V 231.88941 C 154.97583,232.2246 155.17001,232.49444 155.41122,232.49444 C 155.65242,232.49444 155.8466,232.2246 155.8466,231.88941 V 189.93335 L 155.97564,188.40384 C 156.00382,188.06983 155.78146,187.7988 155.54026,187.7988 Z" />
    </clipPath>
  </defs>
  <sodipodi:namedview
     id="base"
     pagecolor="#ffffff"
     bordercolor="#666666"
     borderopacity="1.0"
     inkscape:pageopacity="0.0"
     inkscape:pageshadow="2"
     inkscape:zoom="3.0037753"
     inkscape:cx="-13.376563"
     inkscape:cy="396.74282"
     inkscape:document-units="mm"
     inkscape:current-layer="layer1"
     inkscape:document-rotation="0"
     showgrid="false"
     inkscape:snap-global="false"
     fit-margin-top="0"
     fit-margin-left="0"
     fit-margin-right="0"
     fit-margin-bottom="0"
     inkscape:window-width="1248"
     inkscape:window-height="755"
     inkscape:window-x="0"
     inkscape:window-y="23"
     inkscape:window-maximized="0" />
  <metadata
     id="metadata2407">
    <rdf:RDF>
      <cc:Work
         rdf:about="">
        <dc:format>image/svg+xml</dc:format>
        <dc:type
           rdf:resource="http://purl.org/dc/dcmitype/StillImage" />
        <dc:title />
      </cc:Work>
    </rdf:RDF>
  </metadata>
  <g
     inkscape:label="Ebene 1"
     inkscape:groupmode="layer"
     id="layer1"
     transform="translate(-135.05513,-67.992456)">
    <path
       style="fill:none;stroke:#000000;stroke-width:0.4;stroke-linecap:butt;stroke-linejoin:miter;stroke-opacity:1;stroke-miterlimit:4.88235283;stroke-dasharray:none"
       d="M 146.43528,95.233514 C 147.8366,94.687442 149.83185,94.48899 150.42636,95.615606 C 152.71718,99.956764 154.14571,116.3432 154.20871,122.58472 C 154.35673,124.19969 153.54854,125.07911 152.30795,125.62592 C 147.55607,126.25368 142.80418,127.49974 138.05229,126.95645 L 137.48206,140.64189 C 136.5117,146.77191 135.69143,153.61489 135.58131,163.8311 C 135.06547,174.72876 135.07109,185.62642 135.20116,196.52408 C 135.41751,204.57421 135.78997,212.52027 137.29199,219.71328 L 137.68895,231.75694 C 137.75717,232.83412 138.59158,232.44177 138.53254,231.87325 L 155.20162,231.84357 C 155.33547,232.54008 155.82082,232.58603 155.84401,231.94761 L 156.2302,219.39659 L 157.38876,203.1768 C 157.8016,189.66032 157.50672,176.14383 157.29221,162.62735 C 156.91509,153.49918 156.45844,144.41079 155.65092,135.49782 L 155.45783,131.15324 H 158.06458 L 152.65798,92.534702 H 147.0583 C 147.13316,93.81102 146.6582,94.354239 146.43528,95.233514 Z"
       id="path2426"
       sodipodi:nodetypes="cscccccccccccccccccccc"
       clip-path="url(#clipPath3414)"
       inkscape:path-effect="#path-effect3366;#path-effect3376;#path-effect3424"
       inkscape:original-d="M 146.43528,95.233514 C 147.8366,94.687442 149.83185,94.48899 150.42636,95.615606 C 152.71718,99.956764 154.14571,116.3432 154.20871,122.58472 C 154.35673,124.19969 153.54854,125.07911 152.30795,125.62592 C 147.55607,126.25368 142.80418,127.49974 138.05229,126.95645 L 137.48206,140.64189 C 136.5117,146.77191 135.69143,153.61489 135.58131,163.8311 C 135.06547,174.72876 135.07109,185.62642 135.20116,196.52408 C 135.41751,204.57421 135.78997,212.52027 137.29199,219.71328 L 137.68895,231.75694 C 137.75717,232.83412 138.59158,232.44177 138.53254,231.87325 L 155.20162,231.84357 C 155.33547,232.54008 155.82082,232.58603 155.84401,231.94761 L 156.2302,219.39659 L 157.38876,203.1768 C 157.8016,189.66032 157.50672,176.14383 157.29221,162.62735 C 156.91509,153.49918 156.45844,144.41079 155.65092,135.49782 L 155.45783,131.15324 H 158.06458 L 152.65798,92.534702 H 147.0583 C 147.13316,93.81102 146.6582,94.354239 146.43528,95.233514 Z" />
    <path
       style="fill:none;stroke:#000000;stroke-width:0.4;stroke-linecap:butt;stroke-linejoin:miter;stroke-opacity:1;stroke-miterlimit:4.88235283;stroke-dasharray:none"
       d="M 147.0583,92.534702 C 147.83379,90.505445 147.23631,88.134669 145.55085,85.322379 C 139.86611,79.81821 138.64985,76.911242 138.96506,73.607619 C 140.01954,69.877362 141.81303,68.542809 144.3502,68.144754 C 148.50199,67.519819 149.82095,70.679754 150.17926,72.433867 C 150.63083,74.654079 149.08446,77.614689 146.65983,77.401487 C 145.08412,77.109415 143.48403,76.866113 143.0999,74.190898 C 142.58439,74.319033 142.24242,74.620712 142.52062,75.542547 C 146.29699,79.845714 149.52183,80.501846 151.65211,85.841852 C 152.89393,89.308551 152.67232,90.53221 152.65798,92.534702 Z"
       id="path2428"
       sodipodi:nodetypes="ccccccccccc" />
    <path
       transform="translate(0,0.31697196)"
       style="fill:none;stroke:#000000;stroke-width:0.4;stroke-linecap:butt;stroke-linejoin:miter;stroke-miterlimit:4.88235;stroke-dasharray:none;stroke-opacity:1"
       d="M 137.40367,188.30867 C 137.69014,179.01913 137.6453,170.88915 137.50021,163.11007 L 155.74747,163.30317 C 155.57107,171.60615 155.38518,179.90914 155.84401,188.21212 Z"
       id="path2432"
       sodipodi:nodetypes="ccccc"
       clip-path="url(#clipPath3318)"
       inkscape:path-effect="#path-effect3268;#path-effect3306;#path-effect3326"
       inkscape:original-d="M 137.40367,188.30867 C 137.69014,179.01913 137.6453,170.88915 137.50021,163.11007 L 155.74747,163.30317 C 155.57107,171.60615 155.38518,179.90914 155.84401,188.21212 Z" />
    <path
       style="fill:none;stroke:#000000;stroke-width:0.265;stroke-linecap:butt;stroke-linejoin:miter;stroke-opacity:1;stroke-miterlimit:4.88235283;stroke-dasharray:none"
       d="M 157.30806,182.96755 V 184.41348 H 157.63668 V 183.00042 Z"
       id="path2436" />
    <path
       style="fill:none;stroke:#000000;stroke-width:0.4;stroke-linecap:butt;stroke-linejoin:miter;stroke-opacity:1;stroke-miterlimit:4.88235283;stroke-dasharray:none"
       d="M 157.63668,183.00042 C 159.47695,183.27272 161.31722,183.32661 163.1575,183.06614 V 184.01914 C 161.31722,183.91511 159.47695,184.04631 157.63668,184.3149 Z"
       id="path2438"
       sodipodi:nodetypes="ccccc" />
    <path
       style="fill:none;stroke:#000000;stroke-width:0.4;stroke-linecap:butt;stroke-linejoin:miter;stroke-opacity:1;stroke-miterlimit:4.88235283;stroke-dasharray:none"
       d="M 163.1575,183.06614 V 184.01914 C 164.38435,183.66948 165.61119,183.75271 166.83804,183.98628 L 166.8709,183.06614 C 165.6331,183.20075 164.3953,183.24982 163.1575,183.06614 Z"
       id="path2440"
       sodipodi:nodetypes="ccccc" />
    <path
       style="fill:none;stroke:#000000;stroke-width:0.4;stroke-linecap:butt;stroke-linejoin:miter;stroke-opacity:1;stroke-miterlimit:4.88235283;stroke-dasharray:none"
       d="M 166.8709,183.06614 L 166.83804,183.98628 C 167.9592,183.68932 169.02139,183.74619 170.09138,183.75624 V 183.46049 C 169.01789,183.45235 167.9444,183.39083 166.8709,183.06614 Z"
       id="path2442"
       sodipodi:nodetypes="ccccc" />
    <path
       style="fill:none;stroke:#000000;stroke-width:0.4;stroke-linecap:butt;stroke-linejoin:round;stroke-miterlimit:4.88235283;stroke-dasharray:none;stroke-opacity:1"
       d="M 162.76166,196.96545 C 162.82811,198.14962 162.77094,199.63569 162.57634,201.0195 L 162.76166,203.62464 L 158.45277,224.48358 L 159.33413,226.44216 L 159.52999,227.12766 L 160.31343,226.34424 V 222.72085 L 164.52438,204.21222 C 164.74724,202.95622 165.13946,201.9712 164.9161,200.00125 C 165.15326,199.89248 165.39043,200.049 165.6276,200.11519 C 166.03997,200.13398 166.06186,199.91847 166.09125,199.70747 L 165.11196,197.84681 C 163.7915,197.26195 163.2679,197.23669 162.76166,196.96545 Z"
       id="path2444"
       sodipodi:nodetypes="cccccccccccccc" />
    <path
       style="fill:none;stroke:#000000;stroke-width:0.4;stroke-linecap:butt;stroke-linejoin:round;stroke-opacity:1;stroke-miterlimit:4.88235283;stroke-dasharray:none"
       d="M 155.84401,231.94761 L 157.11291,231.01342 L 155.91474,230.37857 Z"
       id="path2446"
       sodipodi:nodetypes="cccc" />
    <path
       style="fill:none;stroke:#000000;stroke-width:0.4;stroke-linecap:butt;stroke-linejoin:round;stroke-opacity:1;stroke-miterlimit:4.88235283;stroke-dasharray:none"
       d="M 155.91474,229.9613 L 157.3752,230.74368 L 155.91474,232.15197 Z"
       id="path2448" />
    <path
       style="fill:none;stroke:#000000;stroke-width:0.4;stroke-linecap:butt;stroke-linejoin:miter;stroke-opacity:1;stroke-miterlimit:4.88235283;stroke-dasharray:none"
       d="M 157.32304,230.848 L 158.83565,225.31914"
       id="path2450" />
    <path
       style="fill:none;fill-opacity:1;stroke:#000000;stroke-width:0.4;stroke-linecap:butt;stroke-linejoin:miter;stroke-opacity:1;stroke-miterlimit:4.88235283;stroke-dasharray:none"
       d="M 148.67405,231.66885 L 148.24737,232.93436 C 147.45034,232.42108 146.70058,232.55258 145.84805,232.8822 L 145.32646,231.68254 C 146.92866,230.87719 147.87066,231.33058 148.67405,231.66885 Z"
       id="path2452"
       sodipodi:nodetypes="ccccc" />
    <path
       style="fill:none;stroke:#000000;stroke-width:0.4;stroke-linecap:butt;stroke-linejoin:bevel;stroke-opacity:1;stroke-miterlimit:4.88235283;stroke-dasharray:none"
       d="M 145.8382,232.91546 L 145.16998,233.56026 L 148.66464,233.50811 L 148.25641,232.92452 C 147.50298,232.4592 146.66331,232.50996 145.8382,232.91546 Z"
       id="path2454"
       sodipodi:nodetypes="ccccc" />
    <path
       style="fill:none;stroke:#000000;stroke-width:0.4;stroke-linecap:butt;stroke-linejoin:miter;stroke-opacity:1;stroke-miterlimit:4.88235283;stroke-dasharray:none"
       d="M 145.14059,233.56026 V 234.06592 L 148.73864,234.028 V 233.527 Z"
       id="path2460"
       sodipodi:nodetypes="ccccc" />
    <path
       style="fill:none;stroke:#000000;stroke-width:0.4;stroke-linecap:butt;stroke-linejoin:miter;stroke-opacity:1;stroke-miterlimit:4.88235283;stroke-dasharray:none"
       d="M 145.03156,234.06592 L 145.03919,234.63363 L 145.9193,234.98859 H 148.02994 L 148.84768,234.65305 V 234.028 Z"
       id="path2462"
       sodipodi:nodetypes="ccccccc" />
    <path
       style="fill:none;stroke:#000000;stroke-width:0.4;stroke-linecap:butt;stroke-linejoin:miter;stroke-opacity:1;stroke-miterlimit:4.88235283;stroke-dasharray:none"
       d="M 146.43257,235.03193 V 235.28764 L 147.42699,235.28788 L 147.42698,235.03193 Z"
       id="path2464"
       sodipodi:nodetypes="ccccc" />
    <path
       style="fill:none;stroke:#000000;stroke-width:0.4;stroke-linecap:butt;stroke-linejoin:miter;stroke-opacity:1;stroke-miterlimit:4.88235283;stroke-dasharray:none"
       d="M 146.29916,235.35866 L 147.57768,235.37293 L 147.56347,236.04075 L 146.29916,236.04054 Z"
       id="path2466"
       sodipodi:nodetypes="ccccc" />
    <path
       style="fill:none;stroke:#000000;stroke-width:0.4;stroke-linecap:butt;stroke-linejoin:miter;stroke-opacity:1;stroke-miterlimit:4.88235283;stroke-dasharray:none"
       d="M 146.47059,236.1416 L 146.48479,236.39569 L 147.40817,236.38149 L 147.39397,236.1416 Z"
       id="path2468"
       sodipodi:nodetypes="ccccc" />
    <path
       style="fill:none;stroke:#000000;stroke-width:0.4;stroke-linecap:butt;stroke-linejoin:miter;stroke-opacity:1;stroke-miterlimit:4.88235283;stroke-dasharray:none"
       d="M 146.59121,236.38149 L 146.60542,236.63718 H 147.27325 L 147.27309,236.39238 Z"
       id="path2470"
       sodipodi:nodetypes="ccccc" />
    <path
       style="fill:none;stroke:#000000;stroke-width:0.4;stroke-linecap:butt;stroke-linejoin:miter;stroke-opacity:1;stroke-miterlimit:4.88235283;stroke-dasharray:none"
       d="M 146.77607,236.66496 V 236.93754 H 147.10316 V 236.66496 Z"
       id="path2472"
       sodipodi:nodetypes="ccccc" />
    <path
       style="fill:none;stroke:#000000;stroke-width:0.4;stroke-linecap:butt;stroke-linejoin:miter;stroke-opacity:1;stroke-miterlimit:4.88235283;stroke-dasharray:none"
       d="M 163.9216,170.71341 L 164.98774,170.58014 L 154.25971,92.285566 L 152.79377,92.418834 Z"
       id="path2474" />
    <path
       style="fill:none;stroke:#000000;stroke-width:0.4;stroke-linecap:butt;stroke-linejoin:miter;stroke-opacity:1;stroke-miterlimit:4.88235283;stroke-dasharray:none"
       d="M 165.05437,170.58014 L 166.92012,170.24697 L 154.32635,92.218933 H 153.72664 Z"
       id="path2476" />
    <path
       style="fill:none;stroke:#000000;stroke-width:0.4;stroke-linecap:butt;stroke-linejoin:miter;stroke-opacity:1;stroke-miterlimit:4.88235283;stroke-dasharray:none"
       d="M 165.81529,198.9717 L 170.18738,183.52366 L 154.66514,92.036001 L 154.28601,91.2019 L 152.46615,89.988659"
       id="path2478" />
    <path
       style="fill:none;stroke:#000000;stroke-width:0.4;stroke-linecap:butt;stroke-linejoin:miter;stroke-opacity:1;stroke-miterlimit:4.88235283;stroke-dasharray:none"
       d="M 166.25436,197.95949 L 169.35754,183.43659 L 154.58638,91.954754"
       id="path2480" />
    <path
       style="fill:none;stroke:#000000;stroke-width:0.4;stroke-linecap:butt;stroke-linejoin:miter;stroke-opacity:1;stroke-miterlimit:4.88235283;stroke-dasharray:none"
       d="M 165.185,197.81687 L 169.00601,183.43191 L 154.28389,91.559141 L 152.59815,89.367681"
       id="path2482" />
    <path
       d="M 157.18374,176.22205 A 0.19786675,0.97891974 0 0 1 157.03009,177.1762 A 0.19786675,0.97891974 0 0 1 156.80777,176.64855 A 0.19786675,0.97891974 0 0 1 156.86204,175.45854 A 0.19786675,0.97891974 0 0 1 157.10862,175.45425"
       style="fill:#000000;stroke-width:0.265;stroke-linecap:round;stroke-linejoin:bevel;stroke-miterlimit:4.88235283;stroke-dasharray:none"
       id="path2486"
       sodipodi:type="arc"
       sodipodi:cx="156.98587"
       sodipodi:cy="176.22205"
       sodipodi:rx="0.19786675"
       sodipodi:ry="0.97891974"
       sodipodi:start="0"
       sodipodi:end="5.3815763"
       sodipodi:arc-type="arc"
       sodipodi:open="true" />
    <path
       style="fill:#000000;fill-opacity:1;stroke:#000000;stroke-width:0.265;stroke-linecap:butt;stroke-linejoin:round;stroke-miterlimit:4.88235;stroke-dasharray:none;stroke-opacity:1"
       d="M 157.1299,176.42873 L 157.04659,174.73124 C 156.87738,174.29295 156.92527,174.18502 156.75605,174.27064 C 156.53448,174.8206 156.19624,175.3187 156.27772,176.00335 L 156.29384,190.31679 L 156.21433,191.73468 C 156.20123,191.58984 156.32414,191.43792 156.11301,191.37972 C 156.05824,191.30505 155.97449,191.37502 155.9725,191.53788 C 155.94671,191.79449 156.1159,192.21957 156.23384,192.08611 C 156.23384,192.08611 156.39531,192.29402 156.47733,189.87961 C 156.62551,185.19872 156.32054,180.51783 156.22026,175.83695 L 156.24595,176.04638 L 156.76326,174.25264 L 156.79804,174.9563 L 156.93652,175.47078 Z"
       id="path2488"
       sodipodi:nodetypes="cccccccccccccccc" />
    <path
       style="fill:none;stroke:#000000;stroke-width:0.4;stroke-linecap:butt;stroke-linejoin:miter;stroke-opacity:1;stroke-miterlimit:4.88235283;stroke-dasharray:none"
       d="M 150.035,72.070125 C 149.9568,74.048034 149.26029,75.635422 146.86971,76.152877 C 144.67606,75.989932 143.4821,75.07722 143.2457,73.446334 C 143.32757,72.405719 143.36839,71.35018 144.75953,70.785663 C 144.9854,70.521017 146.97496,70.222847 147.52393,71.117345 C 148.25443,72.006043 148.56298,73.618011 147.46608,74.180312 C 146.77797,74.525912 145.99671,74.528203 145.40176,73.996817 C 144.68943,73.502816 144.28572,71.98117 146.05392,71.843806"
       id="path2490"
       sodipodi:nodetypes="cccccccc" />
    <path
       d="M 147.00733,72.528862 A 0.75691479,0.77985162 0 0 1 146.26154,73.308629 A 0.75691479,0.77985162 0 0 1 145.49382,72.551799 A 0.75691479,0.77985162 0 0 1 146.21702,71.749769 A 0.75691479,0.77985162 0 0 1 147.00602,72.483008"
       style="fill:#000000;stroke-width:0.4;stroke-linecap:round;stroke-linejoin:bevel;stroke-miterlimit:4.88235283;stroke-dasharray:none"
       id="path2492"
       sodipodi:type="arc"
       sodipodi:cx="146.25041"
       sodipodi:cy="72.528862"
       sodipodi:rx="0.75691479"
       sodipodi:ry="0.77985162"
       sodipodi:start="0"
       sodipodi:end="6.2243527"
       sodipodi:open="true"
       sodipodi:arc-type="arc" />
    <path
       d="M 165.28263,31.444395 A 2.646565,0.95052677 0 0 1 162.67499,32.394819 A 2.646565,0.95052677 0 0 1 159.99064,31.472353 A 2.646565,0.95052677 0 0 1 162.51932,30.494794 A 2.646565,0.95052677 0 0 1 165.27805,31.388503"
       style="fill:#000000;fill-opacity:1;stroke-width:0.4;stroke-linecap:round;stroke-linejoin:round;stroke-miterlimit:4.88235283;stroke-dasharray:none"
       id="path3055"
       sodipodi:type="arc"
       sodipodi:cx="162.63606"
       sodipodi:cy="31.444395"
       sodipodi:rx="2.646565"
       sodipodi:ry="0.95052677"
       sodipodi:start="0"
       sodipodi:end="6.2243503"
       sodipodi:open="true"
       sodipodi:arc-type="arc"
       transform="rotate(18.255271)" />
    <path
       d="M 120.72254,-127.36176 A 2.646565,0.95052677 0 0 1 118.1149,-126.41134 A 2.646565,0.95052677 0 0 1 115.43055,-127.3338 A 2.646565,0.95052677 0 0 1 117.95923,-128.31136 A 2.646565,0.95052677 0 0 1 120.71796,-127.41765"
       transform="rotate(77.660995)"
       sodipodi:arc-type="arc"
       sodipodi:open="true"
       sodipodi:end="6.2243503"
       sodipodi:start="0"
       sodipodi:ry="0.95052677"
       sodipodi:rx="2.646565"
       sodipodi:cy="-127.36176"
       sodipodi:cx="118.07597"
       sodipodi:type="arc"
       id="path3057"
       style="fill:#000000;fill-opacity:1;stroke-width:0.4;stroke-linecap:round;stroke-linejoin:round;stroke-miterlimit:4.88235283;stroke-dasharray:none" />
    <path
       sodipodi:nodetypes="sscssscss"
       d="M 137.827,187.82939 C 138.06821,187.82939 138.19904,188.10528 138.26239,188.43443 L 138.55087,189.93335 V 231.88941 C 138.55087,232.2246 138.35669,232.49444 138.11549,232.49444 C 137.87429,232.49444 137.68011,232.2246 137.68011,231.88941 V 189.93335 L 137.39162,188.43443 C 137.32828,188.10528 137.5858,187.82939 137.827,187.82939 Z"
       style="fill:#fffdff;stroke:#000000;stroke-width:0.4;stroke-linecap:round;stroke-linejoin:round;stroke-miterlimit:4.88235283;stroke-dasharray:none;stroke-opacity:1"
       id="rect48" />
    <path
       id="path874"
       style="fill:none;stroke:#000000;stroke-width:0.4;stroke-linecap:round;stroke-linejoin:round;stroke-miterlimit:4.88235283;stroke-dasharray:none;stroke-opacity:1;fill-opacity:1"
       d="M 155.54026,187.7988 C 155.29905,187.7988 155.13305,188.06983 155.10487,188.40384 L 154.97583,189.93335 V 231.88941 C 154.97583,232.2246 155.17001,232.49444 155.41122,232.49444 C 155.65242,232.49444 155.8466,232.2246 155.8466,231.88941 V 189.93335 L 155.97564,188.40384 C 156.00382,188.06983 155.78146,187.7988 155.54026,187.7988 Z"
       sodipodi:nodetypes="sscssscss" />
    <path
       sodipodi:nodetypes="cc"
       id="path876"
       d="M 138.31765,163.07174 C 138.45202,169.92563 138.66325,178.06906 138.21408,188.44693"
       style="fill:none;stroke:#000000;stroke-width:0.4;stroke-linecap:butt;stroke-linejoin:miter;stroke-opacity:1;stroke-miterlimit:4.88235283;stroke-dasharray:none"
       clip-path="url(#clipPath3202)"
       inkscape:path-effect="#path-effect3160;#path-effect3210"
       inkscape:original-d="M 138.31765,163.07174 C 138.45202,169.92563 138.66325,178.06906 138.21408,188.44693" />
    <path
       style="fill:none;stroke:#000000;stroke-width:0.4;stroke-linecap:butt;stroke-linejoin:miter;stroke-opacity:1;stroke-miterlimit:4.88235283;stroke-dasharray:none"
       d="M 155.04201,163.36023 C 154.90764,170.21411 154.69641,178.06906 155.14558,188.44693"
       id="path878"
       sodipodi:nodetypes="cc"
       clip-path="url(#clipPath3220)"
       inkscape:path-effect="#path-effect3228"
       inkscape:original-d="M 155.04201,163.36023 C 154.90764,170.21411 154.69641,178.06906 155.14558,188.44693" />
    <path
       sodipodi:nodetypes="sssssssss"
       d="M 138.3054,129.26523 L 138.30738,129.26525 C 138.55867,129.26837 138.75663,129.47316 138.75534,129.72446 C 138.69846,140.78829 138.54246,151.85212 138.3438,162.91595 C 138.33929,163.16721 138.13587,163.36702 137.88459,163.36391 L 137.88261,163.36388 C 137.63132,163.36077 137.42896,163.15592 137.43465,162.90468 C 137.68521,151.84084 137.8779,140.77702 137.84619,129.71319 C 137.84547,129.46188 138.05412,129.26211 138.3054,129.26523 Z"
       inkscape:transform-center-y="-30.530155"
       inkscape:transform-center-x="-1.1617435"
       style="fill:none;stroke:#000000;stroke-width:0.4;stroke-linecap:round;stroke-linejoin:round;stroke-miterlimit:4.88235283;stroke-dasharray:none;stroke-opacity:1"
       id="rect880" />
    <path
       id="path883"
       style="fill:none;stroke:#000000;stroke-width:0.4;stroke-linecap:round;stroke-linejoin:round;stroke-miterlimit:4.88235283;stroke-dasharray:none;stroke-opacity:1"
       inkscape:transform-center-x="1.1960044"
       inkscape:transform-center-y="-31.237265"
       d="M 154.96758,129.41377 L 154.96956,129.41376 C 155.22085,129.41168 155.42176,129.61125 155.42803,129.86247 C 155.70364,140.92466 155.95585,152.14782 155.79109,163.21328 C 155.78735,163.46456 155.59366,163.66905 155.34238,163.67175 L 155.34039,163.67177 C 155.0891,163.67447 154.87062,163.31562 154.8756,163.06436 C 155.09499,151.9977 154.87867,140.93238 154.51887,129.87224 C 154.51069,129.62107 154.71628,129.41584 154.96758,129.41377 Z"
       sodipodi:nodetypes="sssssssss" />
    <path
       id="path3330"
       style="fill:none;stroke:#000000;stroke-width:0.4;stroke-linecap:round;stroke-linejoin:round;stroke-miterlimit:4.88235283;stroke-dasharray:none;stroke-opacity:1"
       d="M 137.827,187.82939 C 138.06821,187.82939 138.19904,188.10528 138.26239,188.43443 L 138.55087,189.93335 V 231.88941 C 138.55087,232.2246 138.35669,232.49444 138.11549,232.49444 C 137.87429,232.49444 137.68011,232.2246 137.68011,231.88941 V 189.93335 L 137.39162,188.43443 C 137.32828,188.10528 137.5858,187.82939 137.827,187.82939 Z"
       sodipodi:nodetypes="sscssscss"
       clip-path="url(#clipPath3334)"
       inkscape:path-effect="#path-effect3342"
       inkscape:original-d="M 137.827,187.82939 C 138.06821,187.82939 138.19904,188.10528 138.26239,188.43443 L 138.55087,189.93335 V 231.88941 C 138.55087,232.2246 138.35669,232.49444 138.11549,232.49444 C 137.87429,232.49444 137.68011,232.2246 137.68011,231.88941 V 189.93335 L 137.39162,188.43443 C 137.32828,188.10528 137.5858,187.82939 137.827,187.82939 Z" />
    <path
       id="path4315"
       d="M 154.41252,130.05604 H 138.70217"
       style="fill:none;stroke:#000000;stroke-width:0.4;stroke-linecap:butt;stroke-linejoin:miter;stroke-opacity:1;stroke-miterlimit:4;stroke-dasharray:none" />
  </g>
</svg>
