<?xml version="1.0" encoding="UTF-8" standalone="no"?>
<svg
   xmlns:dc="http://purl.org/dc/elements/1.1/"
   xmlns:cc="http://creativecommons.org/ns#"
   xmlns:rdf="http://www.w3.org/1999/02/22-rdf-syntax-ns#"
   xmlns:svg="http://www.w3.org/2000/svg"
   xmlns="http://www.w3.org/2000/svg"
   xmlns:sodipodi="http://sodipodi.sourceforge.net/DTD/sodipodi-0.dtd"
   xmlns:inkscape="http://www.inkscape.org/namespaces/inkscape"
   width="32.331364mm"
   height="169.81276mm"
   viewBox="0 0 32.331364 169.81276"
   version="1.1"
   id="svg932"
   inkscape:version="1.0 (4035a4f, 2020-05-01)"
   sodipodi:docname="Vn_Strichzeichnung_seitlich.svg">
  <defs
     id="defs926">
    <inkscape:path-effect
       message="F端llregel Gerade-Ungerade im &lt;b&gt;F端llung und Kontur&lt;/b&gt;-Dialog verwenden, wenn das Anwenden des Ausschnitts mit nachfolgendem Umwandeln in Pfade kein Ergebnis bringt"
       hide_clip="false"
       flatten="false"
       inverse="true"
       lpeversion="1"
       is_visible="true"
       id="path-effect4196"
       effect="powerclip" />
    <inkscape:path-effect
       message="F端llregel Gerade-Ungerade im &lt;b&gt;F端llung und Kontur&lt;/b&gt;-Dialog verwenden, wenn das Anwenden des Ausschnitts mit nachfolgendem Umwandeln in Pfade kein Ergebnis bringt"
       hide_clip="false"
       flatten="false"
       inverse="true"
       lpeversion="1"
       is_visible="true"
       id="path-effect4160"
       effect="powerclip" />
    <clipPath
       id="clipPath4152"
       clipPathUnits="userSpaceOnUse">
      <g
         style="display:none"
         id="g4158">
        <rect
           style="fill:#ffffff;fill-opacity:1;stroke:#000000;stroke-width:0.205904;stroke-linecap:round;stroke-linejoin:round;stroke-miterlimit:4;stroke-dasharray:none;stroke-opacity:1"
           id="rect4154"
           width="1.3094648"
           height="2.4630411"
           x="95.93145"
           y="186.01389"
           ry="0.41012803" />
        <rect
           style="fill:#ffffff;fill-opacity:1;stroke:#000000;stroke-width:0.205904;stroke-linecap:round;stroke-linejoin:round;stroke-miterlimit:4;stroke-dasharray:none;stroke-opacity:1"
           id="rect4156"
           width="1.0536054"
           height="1.6330884"
           x="96.155968"
           y="159.43268"
           ry="0.41012841" />
      </g>
      <path
         d="M 90.804184,120.98312 H 111.65638 V 232.61195 H 90.804184 Z M 96.341578,186.01389 C 96.114367,186.01389 95.93145,186.1968 95.93145,186.42401 V 188.0668 C 95.93145,188.29401 96.114367,188.47693 96.341578,188.47693 H 96.830787 C 97.057998,188.47693 97.240915,188.29401 97.240915,188.0668 V 186.42401 C 97.240915,186.1968 97.057998,186.01389 96.830787,186.01389 Z M 96.566096,159.43268 C 96.338885,159.43268 96.155968,159.6156 96.155968,159.84281 V 160.65564 C 96.155968,160.88285 96.338885,161.06577 96.566096,161.06577 H 96.799445 C 97.026656,161.06577 97.209573,160.88285 97.209573,160.65564 V 159.84281 C 97.209573,159.6156 97.026656,159.43268 96.799445,159.43268 Z"
         class="powerclip"
         id="lpe_path-effect4160" />
    </clipPath>
    <clipPath
       id="clipPath4188"
       clipPathUnits="userSpaceOnUse">
      <g
         style="display:none"
         id="g4194">
        <rect
           style="fill:#ffffff;fill-opacity:1;stroke:#000000;stroke-width:0.205904;stroke-linecap:round;stroke-linejoin:round;stroke-miterlimit:4;stroke-dasharray:none;stroke-opacity:1"
           id="rect4190"
           width="0.94824493"
           height="1.7911294"
           x="106.74471"
           y="159.27464"
           ry="0.41012841" />
        <rect
           style="fill:#ffffff;fill-opacity:1;stroke:#000000;stroke-width:0.205904;stroke-linecap:round;stroke-linejoin:round;stroke-miterlimit:4;stroke-dasharray:none;stroke-opacity:1"
           id="rect4192"
           width="1.1535763"
           height="2.4318633"
           x="106.53188"
           y="185.82681"
           ry="0.38971996"
           rx="0" />
      </g>
      <path
         d="M 101.21528,121.21894 H 112.90646 V 232.61195 H 101.21528 Z M 107.15484,159.27464 C 106.92763,159.27464 106.74471,159.45756 106.74471,159.68477 V 160.65564 C 106.74471,160.88286 106.92763,161.06577 107.15484,161.06577 H 107.28283 C 107.51004,161.06577 107.69296,160.88286 107.69296,160.65564 V 159.68477 C 107.69296,159.45756 107.51004,159.27464 107.28283,159.27464 Z M 106.9216,185.82681 C 106.7057,185.82681 106.53188,186.00063 106.53188,186.21653 V 187.86896 C 106.53188,188.08486 106.7057,188.25868 106.9216,188.25868 H 107.29574 C 107.51164,188.25868 107.68546,188.08486 107.68546,187.86896 V 186.21653 C 107.68546,186.00063 107.51164,185.82681 107.29574,185.82681 Z"
         class="powerclip"
         id="lpe_path-effect4196" />
    </clipPath>
  </defs>
  <sodipodi:namedview
     id="base"
     pagecolor="#ffffff"
     bordercolor="#666666"
     borderopacity="1.0"
     inkscape:pageopacity="0.0"
     inkscape:pageshadow="2"
     inkscape:zoom="0.76560087"
     inkscape:cx="-14.539742"
     inkscape:cy="348.97188"
     inkscape:document-units="mm"
     inkscape:current-layer="layer1"
     inkscape:document-rotation="0"
     showgrid="false"
     inkscape:snap-global="false"
     fit-margin-top="0"
     fit-margin-left="0"
     fit-margin-right="0"
     fit-margin-bottom="0"
     inkscape:window-width="1248"
     inkscape:window-height="755"
     inkscape:window-x="0"
     inkscape:window-y="23"
     inkscape:window-maximized="0" />
  <metadata
     id="metadata929">
    <rdf:RDF>
      <cc:Work
         rdf:about="">
        <dc:format>image/svg+xml</dc:format>
        <dc:type
           rdf:resource="http://purl.org/dc/dcmitype/StillImage" />
        <dc:title />
      </cc:Work>
    </rdf:RDF>
  </metadata>
  <g
     inkscape:label="Ebene 1"
     inkscape:groupmode="layer"
     id="layer1"
     transform="translate(-87.842357,-60.949651)">
    <path
       style="fill:none;stroke:#000000;stroke-width:0.4;stroke-linecap:butt;stroke-linejoin:miter;stroke-opacity:1;stroke-miterlimit:4;stroke-dasharray:none"
       d="M 96.637672,126.62915 L 96.148739,136.68311 C 95.325658,144.85344 94.502576,152.23126 93.679495,162.72242 C 93.334536,166.38446 93.241146,170.71294 93.118303,176.63997 C 93.398096,189.84829 94.389879,201.63263 95.699785,212.78073 L 96.61917,227.25948 L 107.16195,226.97958 L 107.7093,217.83146 C 109.23739,208.99913 110.00151,199.7848 110.29078,190.33306 C 110.58803,182.43895 110.6135,174.54486 110.29078,166.65076 C 110.41076,155.37531 108.75808,146.12576 107.37257,136.57087 L 107.26034,126.91837 Z"
       id="path962"
       sodipodi:nodetypes="ccccccccccccc" />
    <path
       style="fill:none;stroke:#000000;stroke-width:0.4;stroke-linecap:butt;stroke-linejoin:miter;stroke-opacity:1;stroke-miterlimit:4;stroke-dasharray:none"
       d="M 96.986158,92.343423 C 98.600678,91.929327 100.07983,92.32744 101.42676,93.518876 C 103.86937,102.22594 103.6734,110.933 104.4307,119.64007 C 103.94045,121.02638 103.20519,122.26569 101.68797,123.03582 L 96.855552,123.42764 L 96.637671,126.62915 L 107.26034,126.91837 V 126.91837 L 107.09792,128.3579 L 109.00638,128.97134 L 104.7805,88.961814 C 104.19666,85.094346 104.38426,81.291163 100.7591,77.170252 C 99.154818,74.953604 96.135122,72.972858 93.261577,70.967752 C 92.998554,70.315288 93.230726,69.992955 93.261577,69.536407 C 93.516788,70.583943 94.093973,71.502689 94.897399,72.330939 C 97.050895,72.99651 102.04335,72.207676 101.99847,68.02024 C 102.63078,65.046787 99.937505,61.277759 96.405236,61.052654 C 91.641657,61.361699 88.915486,63.197682 87.945149,69.059292 C 87.941697,76.118902 93.128425,78.896612 96.669542,83.031952 C 98.521115,86.911791 97.395601,89.46848 96.986158,92.343423 Z"
       id="path964"
       sodipodi:nodetypes="cccccccccccccccccccc" />
    <path
       style="fill:none;stroke:#000000;stroke-width:0.4;stroke-linecap:butt;stroke-linejoin:miter;stroke-opacity:1;stroke-miterlimit:4;stroke-dasharray:none"
       d="M 104.7805,88.961814 V 88.961814 L 106.14369,89.23445 L 106.55265,90.938435 L 115.14072,166.05 L 113.09594,166.52712 Z"
       id="path966" />
    <path
       style="fill:none;stroke:#000000;stroke-width:0.4;stroke-linecap:butt;stroke-linejoin:miter;stroke-opacity:1;stroke-miterlimit:4;stroke-dasharray:none"
       d="M 106.14369,89.23445 L 107.15216,91.293313 L 116.28274,166.16112 L 115.14072,166.05 L 106.14369,89.23445"
       id="path968" />
    <path
       style="fill:none;stroke:#000000;stroke-width:0.4;stroke-linecap:butt;stroke-linejoin:miter;stroke-opacity:1;stroke-miterlimit:4;stroke-dasharray:none"
       d="M 110.33733,181.53908 L 110.67097,181.52673 L 110.68332,180.36513 L 110.38675,180.35278 Z"
       id="path970" />
    <path
       style="fill:none;stroke:#000000;stroke-width:0.4;stroke-linecap:butt;stroke-linejoin:miter;stroke-opacity:1;stroke-miterlimit:4;stroke-dasharray:none"
       d="M 110.7204,181.35955 L 111.58541,181.45841 L 111.59777,180.48219 L 110.75747,180.55633 Z"
       id="path974" />
    <path
       style="fill:none;stroke:#000000;stroke-width:0.4;stroke-linecap:butt;stroke-linejoin:miter;stroke-opacity:1;stroke-miterlimit:4;stroke-dasharray:none"
       d="M 111.70898,180.51178 L 113.08064,180.49943 L 113.06828,181.45094 L 111.65956,181.43858 Z"
       id="path976" />
    <path
       style="fill:none;stroke:#000000;stroke-width:0.4;stroke-linecap:butt;stroke-linejoin:miter;stroke-opacity:1;stroke-miterlimit:4;stroke-dasharray:none"
       d="M 113.04357,180.29424 L 113.01885,181.55468 L 113.32779,181.56704 L 113.37721,180.29424 Z"
       id="path978" />
    <path
       style="fill:none;stroke:#000000;stroke-width:0.4;stroke-linecap:butt;stroke-linejoin:miter;stroke-opacity:1;stroke-miterlimit:4;stroke-dasharray:none"
       d="M 113.48843,180.44626 L 113.84679,180.45861 L 113.83443,181.47192 H 113.439 Z"
       id="path980" />
    <path
       style="fill:none;stroke:#000000;stroke-width:0.4;stroke-linecap:butt;stroke-linejoin:miter;stroke-opacity:1;stroke-miterlimit:4;stroke-dasharray:none"
       d="M 113.94565,180.51293 L 117.13383,180.63651 L 117.12147,181.46444 L 113.94565,181.45209 Z"
       id="path982" />
    <path
       style="fill:none;stroke:#000000;stroke-width:0.4;stroke-linecap:butt;stroke-linejoin:miter;stroke-opacity:1;stroke-miterlimit:4;stroke-dasharray:none"
       d="M 117.23269,180.62788 L 119.93893,180.89975 L 119.96364,181.1716 L 117.23269,181.46818 Z"
       id="path984" />
    <path
       style="fill:none;stroke:#000000;stroke-width:0.4;stroke-linecap:butt;stroke-linejoin:miter;stroke-opacity:1;stroke-miterlimit:4;stroke-dasharray:none"
       d="M 110.20346,226.61496 L 108.19239,224.79562 C 109.60903,213.84393 112.10512,204.69133 114.11951,194.7359 C 114.61739,194.9231 115.06449,195.21187 115.77159,194.98064 C 114.83617,201.16957 112.90623,209.01604 111.36603,216.21296 C 110.62975,219.68029 110.53277,223.14763 110.20346,226.61496 Z"
       id="path986"
       sodipodi:nodetypes="cccccc" />
    <path
       style="fill:none;stroke:#000000;stroke-width:0.4;stroke-linecap:butt;stroke-linejoin:miter;stroke-opacity:1;stroke-miterlimit:4;stroke-dasharray:none"
       d="M 100.96894,227.09469 L 104.24231,226.98246 L 104.26101,227.30045 L 100.93152,227.43138 Z"
       id="path988" />
    <path
       style="fill:none;stroke:#000000;stroke-width:0.4;stroke-linecap:butt;stroke-linejoin:miter;stroke-opacity:1;stroke-miterlimit:4;stroke-dasharray:none"
       d="M 101.24951,227.39397 L 101.23081,227.71195 L 103.98043,227.61843 L 103.96173,227.24433 Z"
       id="path992" />
    <path
       style="fill:none;stroke:#000000;stroke-width:0.4;stroke-linecap:butt;stroke-linejoin:miter;stroke-opacity:1;stroke-miterlimit:4;stroke-dasharray:none"
       d="M 101.38044,227.76807 L 100.95023,227.97382 L 100.98764,228.31051 L 101.36174,228.32922 L 103.90562,228.19828 L 104.52287,228.10476 L 104.48547,227.71195 L 103.99914,227.67454 Z"
       id="path994" />
    <path
       style="fill:none;stroke:#000000;stroke-width:0.4;stroke-linecap:butt;stroke-linejoin:miter;stroke-opacity:1;stroke-miterlimit:4;stroke-dasharray:none"
       d="M 101.39915,228.2731 V 228.6285 L 104.01785,228.47885 L 103.99914,228.04864 Z"
       id="path996" />
    <path
       style="fill:none;stroke:#000000;stroke-width:0.4;stroke-linecap:butt;stroke-linejoin:miter;stroke-opacity:1;stroke-miterlimit:4;stroke-dasharray:none"
       d="M 101.24951,228.55368 L 100.74448,228.83425 L 100.72577,229.33928 L 101.09987,229.41411 L 104.14878,229.26446 L 104.65381,229.0213 V 228.6285 L 104.33583,228.44145 Z"
       id="path998" />
    <path
       style="fill:none;stroke:#000000;stroke-width:0.4;stroke-linecap:butt;stroke-linejoin:miter;stroke-opacity:1;stroke-miterlimit:4;stroke-dasharray:none"
       d="M 101.1107,229.46902 L 101.39511,229.78898 L 103.6704,229.72974 L 104.14442,229.43348 V 229.25571 L 101.09885,229.38607 Z"
       id="path1000" />
    <path
       style="fill:none;stroke:#000000;stroke-width:0.4;stroke-linecap:butt;stroke-linejoin:miter;stroke-opacity:1;stroke-miterlimit:4;stroke-dasharray:none"
       d="M 102.3076,229.76529 L 102.34315,230.38151 L 103.26749,230.35781 L 103.27934,229.75344 Z"
       id="path1002" />
    <path
       style="fill:none;stroke:#000000;stroke-width:0.4;stroke-linecap:butt;stroke-linejoin:miter;stroke-opacity:1;stroke-miterlimit:4;stroke-dasharray:none"
       d="M 102.46165,230.40522 L 102.53276,230.65407 L 103.04233,230.61853 L 103.07788,230.36966 Z"
       id="path1004" />
    <path
       style="fill:none;stroke:#000000;stroke-width:0.4;stroke-linecap:butt;stroke-linejoin:miter;stroke-opacity:1;stroke-miterlimit:4;stroke-dasharray:none"
       d="M 104.5801,227.66611 L 106.91667,227.44475 L 108.07265,226.58391 L 108.51537,224.88682 L 109.13026,225.50171 L 108.66295,226.70688 L 106.91667,228.08423 L 104.5801,228.33018 Z"
       id="path1006" />
    <path
       style="fill:none;stroke:#000000;stroke-width:0.4;stroke-linecap:butt;stroke-linejoin:miter;stroke-opacity:1;stroke-miterlimit:4;stroke-dasharray:none"
       d="M 110.4327,211.71932 C 111.44601,205.94038 112.35139,200.16144 112.99855,194.38249 L 114.17745,194.45184 V 194.72923 Z"
       id="path1008"
       sodipodi:nodetypes="ccccc" />
    <path
       style="fill:none;stroke:#000000;stroke-width:0.4;stroke-linecap:butt;stroke-linejoin:miter;stroke-opacity:1;stroke-miterlimit:4;stroke-dasharray:none"
       d="M 101.968,68.117093 C 100.24255,72.313465 94.037545,71.814341 93.418712,68.780955 C 92.474216,62.291878 98.245334,63.225844 99.05724,64.872255 C 100.8117,68.157037 98.390538,69.758849 96.218816,68.927764 C 94.48051,68.264609 94.79909,65.99675 95.708229,65.42763"
       id="path1010"
       sodipodi:nodetypes="ccccc" />
    <path
       style="fill:none;stroke:#000000;stroke-width:0.4;stroke-linecap:butt;stroke-linejoin:miter;stroke-opacity:1;stroke-miterlimit:4;stroke-dasharray:none"
       d="M 113.04593,194.44722 L 114.23146,194.69536 C 114.77923,195.00241 115.29108,195.16586 115.6927,194.88835 C 114.59953,194.61775 114.4778,194.52376 114.14875,194.39208 Z"
       id="path1012"
       sodipodi:nodetypes="ccccc" />
    <path
       style="fill:#000000;fill-opacity:1;stroke:none;stroke-width:0.4;stroke-linecap:butt;stroke-linejoin:round;stroke-miterlimit:4;stroke-dasharray:none;stroke-opacity:1"
       d="M 109.55563,172.11369 C 109.53281,172.83212 109.74692,173.41763 109.90319,173.32135 C 110.18815,173.23932 109.97473,171.65203 110.0105,170.81737 C 109.94646,170.22818 109.74036,170.09359 109.54548,169.92308 C 109.4166,169.89143 109.29002,169.87579 109.18776,170.0304 C 108.75818,171.27152 108.81669,172.55701 108.6512,173.82215 C 108.2311,178.49763 108.73062,183.31104 108.79428,188.05909 C 108.81569,189.70467 108.65053,191.08451 108.57965,191.09964 C 108.47954,191.13493 108.1641,190.12849 108.04309,189.38262 C 108.15945,188.70154 108.12748,187.94628 108.04309,187.16481 C 107.79201,186.93797 107.65289,187.34332 107.82846,189.52571 C 108.18906,191.83754 108.52637,191.93543 108.67363,191.8204 C 108.72144,191.98682 109.07572,190.76728 109.08045,190.49153 C 109.5026,184.24285 109.15468,177.92415 109.18776,171.6401 C 109.23728,171.15875 109.22865,170.66576 109.40239,170.20925 C 109.72954,170.39597 109.71696,170.70623 109.7601,170.99622 C 109.80461,171.80541 109.84775,172.60359 109.7601,172.35553 C 109.94075,171.5858 109.58309,171.99363 109.55563,172.11369 Z"
       id="path1014"
       sodipodi:nodetypes="cccccccccccccccccc" />
    <g
       style="stroke-width:0.4;stroke-miterlimit:4;stroke-dasharray:none"
       inkscape:path-effect="#path-effect4196"
       clip-path="url(#clipPath4188)"
       id="g4182">
      <path
         inkscape:original-d="M 107.19099,187.46349 C 107.53031,187.46349 107.80677,187.74377 107.80348,188.09187 C 107.6835,200.77876 107.4787,219.20501 107.60333,226.88063 C 107.60898,227.2287 107.33016,227.509 106.99084,227.509 C 106.65153,227.509 106.38366,227.2287 106.37836,226.88063 C 106.18153,213.97451 106.52658,200.85803 106.5785,188.09187 C 106.57993,187.74375 106.85167,187.46349 107.19099,187.46349 Z"
         id="path1580"
         style="fill:none;fill-opacity:1;stroke:#000000;stroke-width:0.4;stroke-linecap:round;stroke-linejoin:round;stroke-miterlimit:4;stroke-dasharray:none;stroke-opacity:1"
         d="M 107.19099,187.46349 C 107.53031,187.46349 107.80677,187.74377 107.80348,188.09187 C 107.6835,200.77876 107.4787,219.20501 107.60333,226.88063 C 107.60898,227.2287 107.33016,227.509 106.99084,227.509 C 106.65153,227.509 106.38366,227.2287 106.37836,226.88063 C 106.18153,213.97451 106.52658,200.85803 106.5785,188.09187 C 106.57993,187.74375 106.85167,187.46349 107.19099,187.46349 Z"
         sodipodi:nodetypes="sssssss" />
      <path
         inkscape:original-d="M 107.08475,160.59603 H 107.34172 C 107.56893,160.59603 107.75407,160.77897 107.75185,161.00616 C 107.66982,169.43034 107.96759,177.85452 107.56208,186.2787 C 107.55115,186.50565 107.37916,186.68883 107.15195,186.68883 H 106.89498 C 106.66777,186.68883 106.47296,186.5056 106.48484,186.2787 C 106.9263,177.85452 106.79189,169.43034 106.67462,161.00616 C 106.67146,160.77898 106.85754,160.59603 107.08475,160.59603 Z"
         id="path1589"
         style="fill:none;fill-opacity:1;stroke:#000000;stroke-width:0.4;stroke-linecap:round;stroke-linejoin:round;stroke-miterlimit:4;stroke-dasharray:none;stroke-opacity:1"
         d="M 107.08475,160.59603 H 107.34172 C 107.56893,160.59603 107.75407,160.77897 107.75185,161.00616 C 107.66982,169.43034 107.96759,177.85452 107.56208,186.2787 C 107.55115,186.50565 107.37916,186.68883 107.15195,186.68883 H 106.89498 C 106.66777,186.68883 106.47296,186.5056 106.48484,186.2787 C 106.9263,177.85452 106.79189,169.43034 106.67462,161.00616 C 106.67146,160.77898 106.85754,160.59603 107.08475,160.59603 Z"
         sodipodi:nodetypes="sssssssss" />
      <path
         inkscape:original-d="M 106.81261,126.32381 L 106.94059,126.32194 C 107.16777,126.31861 107.363,126.49893 107.35665,126.72606 C 107.04695,137.80633 107.62411,148.61113 107.67631,159.64385 C 107.67738,159.87106 107.4994,160.05658 107.27221,160.0599 L 107.14424,160.06177 C 106.91705,160.0651 106.72916,159.88488 106.72817,159.65766 C 106.68003,148.62013 106.24352,137.77409 106.4085,126.73987 C 106.4119,126.51269 106.58543,126.32713 106.81261,126.32381 Z"
         inkscape:transform-center-y="21.936268"
         inkscape:transform-center-x="-0.69772875"
         id="path1598"
         style="fill:none;fill-opacity:1;stroke:#000000;stroke-width:0.4;stroke-linecap:round;stroke-linejoin:round;stroke-miterlimit:4;stroke-dasharray:none;stroke-opacity:1"
         d="M 106.81261,126.32381 L 106.94059,126.32194 C 107.16777,126.31861 107.363,126.49893 107.35665,126.72606 C 107.04695,137.80633 107.62411,148.61113 107.67631,159.64385 C 107.67738,159.87106 107.4994,160.05658 107.27221,160.0599 L 107.14424,160.06177 C 106.91705,160.0651 106.72916,159.88488 106.72817,159.65766 C 106.68003,148.62013 106.24352,137.77409 106.4085,126.73987 C 106.4119,126.51269 106.58543,126.32713 106.81261,126.32381 Z"
         sodipodi:nodetypes="sssssssss" />
    </g>
    <path
       style="fill:none;stroke:#000000;stroke-width:0.4;stroke-linecap:butt;stroke-linejoin:miter;stroke-opacity:1;stroke-miterlimit:4;stroke-dasharray:none"
       d="M 115.21519,194.77674 L 118.38492,180.90915 L 116.40383,166.05101"
       id="path1600" />
    <path
       style="fill:none;stroke:#000000;stroke-width:0.4;stroke-linecap:butt;stroke-linejoin:miter;stroke-opacity:1;stroke-miterlimit:4;stroke-dasharray:none"
       d="M 115.41329,196.75783 L 119.47451,180.90915 L 106.79557,90.07641 L 104.61638,87.996269"
       id="path1604" />
    <path
       style="fill:none;stroke:#000000;stroke-width:0.4;stroke-linecap:butt;stroke-linejoin:miter;stroke-opacity:1;stroke-miterlimit:4;stroke-dasharray:none"
       d="M 115.31424,197.45121 L 120.06884,180.71104 L 106.99368,90.769789 L 104.51732,86.807619"
       id="path1606" />
    <rect
       style="fill:none;fill-opacity:1;stroke:#000000;stroke-width:0.4;stroke-linecap:round;stroke-linejoin:round;stroke-miterlimit:4;stroke-dasharray:none;stroke-opacity:1"
       id="rect1582"
       width="1.3094648"
       height="2.4630411"
       x="95.93145"
       y="186.01389"
       ry="0.41012803" />
    <rect
       style="fill:none;fill-opacity:1;stroke:#000000;stroke-width:0.4;stroke-linecap:round;stroke-linejoin:round;stroke-miterlimit:4;stroke-dasharray:none;stroke-opacity:1"
       id="rect1584"
       width="1.1535763"
       height="2.4318633"
       x="106.53188"
       y="185.82681"
       ry="0.38971996"
       rx="0" />
    <rect
       style="fill:none;fill-opacity:1;stroke:#000000;stroke-width:0.4;stroke-linecap:round;stroke-linejoin:round;stroke-miterlimit:4;stroke-dasharray:none;stroke-opacity:1"
       id="rect1591"
       width="1.0536054"
       height="1.6330884"
       x="96.155968"
       y="159.43268"
       ry="0.41012841" />
    <rect
       style="fill:none;fill-opacity:1;stroke:#000000;stroke-width:0.4;stroke-linecap:round;stroke-linejoin:round;stroke-miterlimit:4;stroke-dasharray:none;stroke-opacity:1"
       id="rect1593"
       width="0.94824493"
       height="1.7911294"
       x="106.74471"
       y="159.27464"
       ry="0.41012841" />
    <g
       style="stroke-width:0.4;stroke-miterlimit:4;stroke-dasharray:none"
       inkscape:path-effect="#path-effect4160"
       clip-path="url(#clipPath4152)"
       id="g4150">
      <g
         style="stroke-width:0.4;stroke-miterlimit:4;stroke-dasharray:none"
         id="g4121">
        <path
           inkscape:original-d="M 96.614866,187.76168 C 96.954182,187.76168 97.230641,188.04196 97.227349,188.39006 C 97.107369,201.07695 96.866739,214.07649 97.735384,226.88063 C 97.758947,227.22795 97.462217,227.509 97.122902,227.509 C 96.783587,227.509 96.533839,227.22795 96.510419,226.88063 C 95.642687,214.01178 95.950455,201.15622 96.002384,188.39006 C 96.003799,188.04194 96.275551,187.76168 96.614866,187.76168 Z"
           id="rect1577"
           style="fill:none;fill-opacity:1;stroke:#000000;stroke-width:0.4;stroke-linecap:round;stroke-linejoin:round;stroke-miterlimit:4;stroke-dasharray:none;stroke-opacity:1"
           d="M 96.614866,187.76168 C 96.954182,187.76168 97.230641,188.04196 97.227349,188.39006 C 97.107369,201.07695 96.866739,214.07649 97.735384,226.88063 C 97.758947,227.22795 97.462217,227.509 97.122902,227.509 C 96.783587,227.509 96.533839,227.22795 96.510419,226.88063 C 95.642687,214.01178 95.950455,201.15622 96.002384,188.39006 C 96.003799,188.04194 96.275551,187.76168 96.614866,187.76168 Z"
           sodipodi:nodetypes="sssssss" />
        <g
           style="stroke-width:0.4;stroke-miterlimit:4;stroke-dasharray:none"
           id="g3529">
          <path
             inkscape:original-d="M 96.615873,160.59603 H 96.872842 C 97.100053,160.59603 97.272399,160.7792 97.282971,161.00616 C 97.675367,169.43034 97.688475,177.85452 97.282971,186.2787 C 97.272046,186.50565 97.100053,186.68883 96.872842,186.68883 H 96.615873 C 96.388662,186.68883 96.193854,186.5056 96.205745,186.2787 C 96.647194,177.85452 96.560236,169.43034 96.205745,161.00616 C 96.196192,160.77915 96.388662,160.59603 96.615873,160.59603 Z"
             sodipodi:nodetypes="sssssssss"
             d="M 96.615873,160.59603 H 96.872842 C 97.100053,160.59603 97.272399,160.7792 97.282971,161.00616 C 97.675367,169.43034 97.688475,177.85452 97.282971,186.2787 C 97.272046,186.50565 97.100053,186.68883 96.872842,186.68883 H 96.615873 C 96.388662,186.68883 96.193854,186.5056 96.205745,186.2787 C 96.647194,177.85452 96.560236,169.43034 96.205745,161.00616 C 96.196192,160.77915 96.388662,160.59603 96.615873,160.59603 Z"
             style="fill:none;fill-opacity:1;stroke:#000000;stroke-width:0.4;stroke-linecap:round;stroke-linejoin:round;stroke-miterlimit:4;stroke-dasharray:none;stroke-opacity:1"
             id="rect1586" />
          <path
             inkscape:original-d="M 96.934861,126.08607 H 97.06285 C 97.290061,126.08607 97.472431,126.26899 97.472977,126.4962 C 97.499704,137.6196 97.274537,148.57506 97.164407,159.60722 C 97.162139,159.83442 96.98149,160.01734 96.754279,160.01734 H 96.626291 C 96.39908,160.01734 96.213753,159.83442 96.216162,159.60722 C 96.333195,148.57022 96.635615,137.5332 96.524733,126.4962 C 96.52245,126.26899 96.70765,126.08607 96.934861,126.08607 Z"
             sodipodi:nodetypes="sssssssss"
             d="M 96.934861,126.08607 H 97.06285 C 97.290061,126.08607 97.472431,126.26899 97.472977,126.4962 C 97.499704,137.6196 97.274537,148.57506 97.164407,159.60722 C 97.162139,159.83442 96.98149,160.01734 96.754279,160.01734 H 96.626291 C 96.39908,160.01734 96.213753,159.83442 96.216162,159.60722 C 96.333195,148.57022 96.635615,137.5332 96.524733,126.4962 C 96.52245,126.26899 96.70765,126.08607 96.934861,126.08607 Z"
             style="fill:none;fill-opacity:1;stroke:#000000;stroke-width:0.4;stroke-linecap:round;stroke-linejoin:round;stroke-miterlimit:4;stroke-dasharray:none;stroke-opacity:1"
             id="rect1595" />
          <path
             inkscape:original-d="M 97.08273,160.25638 H 106.65638"
             id="path1608"
             d="M 97.08273,160.25638 H 106.65638"
             style="fill:none;stroke:#000000;stroke-width:0.4;stroke-linecap:butt;stroke-linejoin:miter;stroke-opacity:1;stroke-miterlimit:4;stroke-dasharray:none" />
        </g>
      </g>
      <path
         inkscape:original-d="M 97.08273,187.25898 H 106.4109"
         id="path1610"
         d="M 97.08273,187.25898 H 106.4109"
         style="fill:none;stroke:#000000;stroke-width:0.4;stroke-linecap:butt;stroke-linejoin:miter;stroke-opacity:1;stroke-miterlimit:4;stroke-dasharray:none" />
    </g>
    <rect
       style="fill:#000000;fill-opacity:1;stroke:#000000;stroke-width:0.4;stroke-linecap:round;stroke-linejoin:round;stroke-miterlimit:4;stroke-dasharray:none;stroke-opacity:1"
       id="rect1630"
       width="1.6391544"
       height="6.3926969"
       x="128.91557"
       y="24.182442"
       rx="0.77859843"
       ry="2.1312361"
       transform="rotate(28.266161)" />
    <rect
       transform="rotate(43.41743)"
       ry="2.1312361"
       rx="0.77859843"
       y="-14.229344"
       x="120.52874"
       height="6.3926969"
       width="1.6391544"
       id="rect1632"
       style="fill:#000000;fill-opacity:1;stroke:#000000;stroke-width:0.4;stroke-linecap:round;stroke-linejoin:round;stroke-miterlimit:4;stroke-dasharray:none;stroke-opacity:1" />
    <circle
       style="fill:#000000;fill-opacity:1;stroke:#000000;stroke-width:0.4;stroke-linecap:round;stroke-linejoin:round;stroke-miterlimit:4;stroke-dasharray:none;stroke-opacity:1"
       id="path1634"
       cx="98.830994"
       cy="80.350716"
       r="0.84685141" />
    <circle
       r="0.84685141"
       cy="72.951912"
       cx="92.412758"
       id="circle1636"
       style="fill:#000000;fill-opacity:1;stroke:#000000;stroke-width:0.4;stroke-linecap:round;stroke-linejoin:round;stroke-miterlimit:4;stroke-dasharray:none;stroke-opacity:1" />
    <path
       style="fill:none;stroke:#000000;stroke-width:0.4;stroke-linecap:butt;stroke-linejoin:miter;stroke-opacity:1;stroke-miterlimit:4;stroke-dasharray:none"
       d="M 90.073271,75.738516 C 89.889054,76.642519 94.311036,81.450387 95.583062,83.454675 C 98.116675,87.446806 97.791728,87.912632 97.373496,89.985728 V 89.985728"
       id="path1638"
       sodipodi:nodetypes="cscc" />
    <ellipse
       style="fill:none;fill-opacity:1;stroke:#000000;stroke-width:0.4;stroke-linecap:round;stroke-linejoin:round;stroke-miterlimit:4;stroke-dasharray:none;stroke-opacity:1"
       id="path1640"
       cx="96.434647"
       cy="66.335915"
       rx="1.2774568"
       ry="1.1922929" />
  </g>
</svg>
