<?xml version="1.0" encoding="UTF-8" standalone="no"?>
<svg
   xmlns:dc="http://purl.org/dc/elements/1.1/"
   xmlns:cc="http://creativecommons.org/ns#"
   xmlns:rdf="http://www.w3.org/1999/02/22-rdf-syntax-ns#"
   xmlns:svg="http://www.w3.org/2000/svg"
   xmlns="http://www.w3.org/2000/svg"
   xmlns:sodipodi="http://sodipodi.sourceforge.net/DTD/sodipodi-0.dtd"
   xmlns:inkscape="http://www.inkscape.org/namespaces/inkscape"
   inkscape:version="1.0rc1 (09960d6, 2020-04-09)"
   sodipodi:docname="Drehscheiben_Harfe_opt.svg"
   id="svg1060"
   version="1.1"
   width="746.4942"
   height="709.53577"
   viewBox="0 0 197.51 187.73121">
  <metadata
     id="metadata1064">
    <rdf:RDF>
      <cc:Work
         rdf:about="">
        <dc:format>image/svg+xml</dc:format>
        <dc:type
           rdf:resource="http://purl.org/dc/dcmitype/StillImage" />
        <dc:title></dc:title>
      </cc:Work>
    </rdf:RDF>
  </metadata>
  <sodipodi:namedview
     fit-margin-bottom="0"
     fit-margin-right="0"
     fit-margin-left="0"
     fit-margin-top="0"
     inkscape:current-layer="svg1060"
     inkscape:window-maximized="0"
     inkscape:window-y="23"
     inkscape:window-x="0"
     inkscape:cy="91.130206"
     inkscape:cx="488.04162"
     inkscape:zoom="0.53784281"
     showgrid="false"
     id="namedview1062"
     inkscape:window-height="698"
     inkscape:window-width="1124"
     inkscape:pageshadow="2"
     inkscape:pageopacity="0"
     guidetolerance="10"
     gridtolerance="10"
     objecttolerance="10"
     borderopacity="1"
     bordercolor="#666666"
     pagecolor="#ffffff" />
  <defs>
     <style type="text/css">
    @import url('https://fontlibrary.org/face/libertinus-sans');
    @font-face {
      font-family: Bravura Text;
      src: url('../../../../../../lib/font/bravura-text/BravuraText.woff2');
    }
  </style>
  </defs><style
     id="style930"><![CDATA[.B{stroke:#000}.C{fill:#fff}.D{stroke-width:1.909}.E{font-weight:400}.F{font-size:10.583px}.G{font-family:Linux Biolinum O}.H{stroke-linejoin:round}.I{stroke-width:3}.J{stroke-width:1.171}.K{font-size:14.111px}.L{font-family:Bravura Text}.M{font-family:Libertinus Sans}.N{fill-rule:evenodd}]]></style>
  <defs
     id="defs938">
    <marker
       overflow="visible"
       orient="auto"
       refY="0"
       refX="0"
       id="A">
      <path
         inkscape:connector-curvature="0"
         id="path932"
         class="B N"
         stroke-opacity="1"
         stroke-width="1pt"
         fill-opacity="1"
         fill="#000000"
         d="M 0,0 5,-5 -12.5,0 5,5 Z"
         transform="matrix(-0.2,0,0,-0.2,-1.2,0)" />
    </marker>
    <marker
       overflow="visible"
       id="B"
       refX="0"
       refY="0"
       orient="auto">
      <path
         inkscape:connector-curvature="0"
         id="path935"
         class="B N"
         stroke-opacity="1"
         stroke-width="1pt"
         fill-opacity="1"
         fill="#000000"
         transform="matrix(-0.2,0,0,-0.2,-1.2,0)"
         d="M 0,0 5,-5 -12.5,0 5,5 Z" />
    </marker>
  </defs>
  <g
     id="g948"
     transform="rotate(35.999988,-90.832292,49.380325)">
    <circle
       id="circle940"
       class="B C D"
       r="14.046"
       cy="15"
       cx="15" />
    <circle
       id="circle942"
       r="3"
       cx="15"
       cy="15" />
    <circle
       id="circle944"
       r="1.5"
       cy="5.5"
       cx="15" />
    <circle
       id="circle946"
       cx="15"
       cy="24.5"
       r="1.5" />
  </g>
  <g
     id="g958"
     transform="rotate(-35.999988,190.92637,69.276443)">
    <circle
       id="circle950"
       class="B C D"
       r="14.046"
       cx="15"
       cy="15" />
    <circle
       id="circle952"
       cy="15"
       cx="15"
       r="3" />
    <circle
       id="circle954"
       cx="15"
       cy="5.5"
       r="1.5" />
    <circle
       id="circle956"
       r="1.5"
       cy="24.5"
       cx="15" />
  </g>
  <g
     transform="translate(4.5882273e-5,-3.1126902e-4)"
     id="g964"
     class="B H">
    <path
       inkscape:connector-curvature="0"
       id="path960"
       class="I"
       fill="none"
       d="m 18.593,25.24 c 2.896,0.297 3.6,3.405 2.846,5.025 -2.177,4.74 -6.717,11.072 -7.683,14.343 L 18.47,187.48" />
    <ellipse
       id="ellipse962"
       class="C"
       cx="15.879"
       cy="44.48"
       rx="3.4230001"
       ry="3.6240001" />
  </g>
  <circle
     id="circle966"
     cy="44.479687"
     cx="15.879045"
     r="2" />
  <g
     transform="translate(4.5882273e-5,-3.1126902e-4)"
     id="g972"
     class="B C">
    <circle
       id="circle968"
       class="J"
       r="2.915"
       cy="27.273001"
       cx="18.533001" />
    <circle
       id="circle970"
       class="D"
       r="14.046"
       cx="65.896004"
       cy="83.773003" />
  </g>
  <circle
     id="circle974"
     cy="83.77269"
     cx="65.896049"
     r="3" />
  <circle
     id="circle976"
     cx="65.896049"
     cy="74.27269"
     r="1.5" />
  <circle
     id="circle978"
     r="1.5"
     cy="93.27269"
     cx="65.896049" />
  <g
     id="g988"
     transform="rotate(-35.999988,216.37639,-9.0505844)">
    <circle
       id="circle980"
       class="B C D"
       r="14.046"
       cy="15"
       cx="15" />
    <circle
       id="circle982"
       r="3"
       cx="15"
       cy="15" />
    <circle
       id="circle984"
       r="1.5"
       cy="5.5"
       cx="15" />
    <circle
       id="circle986"
       cx="15"
       cy="24.5"
       r="1.5" />
  </g>
  <circle
     id="circle990"
     class="B C D"
     r="14.046"
     cy="83.77269"
     cx="115.89805" />
  <circle
     id="circle992"
     r="3"
     cx="115.89805"
     cy="83.77269" />
  <circle
     id="circle994"
     r="1.5"
     cy="74.27269"
     cx="115.89805" />
  <circle
     id="circle996"
     cx="115.89805"
     cy="93.27269"
     r="1.5" />
  <g
     id="g1006"
     transform="rotate(-8.9999767,787.46457,-589.73379)">
    <circle
       id="circle998"
       class="B C D"
       r="14.046"
       cx="15"
       cy="15" />
    <circle
       id="circle1000"
       cy="15"
       cx="15"
       r="3" />
    <circle
       id="circle1002"
       cx="15"
       cy="5.5"
       r="1.5" />
    <circle
       id="circle1004"
       r="1.5"
       cy="24.5"
       cx="15" />
  </g>
  <g
     transform="translate(4.5882273e-5,-3.1126902e-4)"
     id="g1012"
     class="B H">
    <path
       inkscape:connector-curvature="0"
       id="path1008"
       class="I"
       fill="none"
       d="m 69.493,25.24 c 2.896,0.297 3.6,3.405 2.846,5.025 -2.177,4.74 -6.717,11.072 -7.683,14.343 l -1.686,29.842 5.78,18.494 -2.377,94.75" />
    <ellipse
       id="ellipse1010"
       class="C"
       cx="66.778999"
       cy="44.48"
       rx="3.4230001"
       ry="3.6240001" />
  </g>
  <circle
     id="circle1014"
     cy="44.479687"
     cx="66.779045"
     r="2" />
  <g
     transform="translate(4.5882273e-5,-3.1126902e-4)"
     id="g1024"
     class="B">
    <circle
       id="circle1016"
       class="C J"
       r="2.915"
       cy="27.273001"
       cx="69.432999" />
    <g
       id="g1022"
       class="H">
      <path
         inkscape:connector-curvature="0"
         id="path1018"
         class="I"
         fill="none"
         d="m 119.495,25.24 c 2.896,0.297 3.6,3.405 2.846,5.025 -2.177,4.74 -6.717,11.072 -7.683,14.343 l -1.688,29.842 5.78,18.22 1.922,26.47 -3.128,18.887 1.825,49.45" />
      <ellipse
         id="ellipse1020"
         class="C"
         ry="3.6240001"
         rx="3.4230001"
         cy="44.48"
         cx="116.781" />
    </g>
  </g>
  <circle
     id="circle1026"
     r="2"
     cx="116.78104"
     cy="44.479687" />
  <circle
     id="circle1028"
     class="B C J"
     r="2.915"
     cx="119.43504"
     cy="27.27269" />
  <text
     id="text1032"
     class="G K"
     xml:space="preserve"
     x="14.060046"
     y="-55.960312"><tspan
       id="tspan1030"
       class="L"
       font-weight="normal"
       x="14.958046"
       y="12.812689">♭</tspan></text>
  <text
     id="text1036"
     class="K"
     xml:space="preserve"
     x="66.997047"
     y="-57.582314"><tspan
       id="tspan1034"
       class="L"
       font-weight="normal"
       x="67.895042"
       y="11.190689">♮</tspan></text>
  <text
     id="text1040"
     class="F M"
     xml:space="preserve"
     x="135.48004"
     y="-38.512314"><tspan
       id="tspan1038"
       font-weight="normal"
       x="136.37805"
       y="30.260689">Stimmstift</tspan></text>
  <text
     id="text1044"
     class="F G"
     xml:space="preserve"
     x="125.16405"
     y="-21.319311"><tspan
       id="tspan1042"
       class="M"
       font-weight="normal"
       x="126.06204"
       y="47.453686">Stegstift</tspan></text>
  <text
     id="text1048"
     class="F G"
     xml:space="preserve"
     x="137.51405"
     y="38.482689"><tspan
       id="tspan1046"
       class="M"
       font-weight="normal"
       x="138.41205"
       y="107.25568">Drehscheiben</tspan></text>
  <text
     id="text1052"
     class="K"
     font-family="Bravura"
     y="-57.413311"
     x="116.25105"
     xml:space="preserve"><tspan
       id="tspan1050"
       class="L"
       font-weight="normal"
       y="11.359689"
       x="117.14905">♯</tspan></text>
  <g
     transform="translate(4.5882273e-5,-3.1126902e-4)"
     id="g1058"
     class="B"
     stroke-width="1.5"
     fill="none">
    <path
       inkscape:connector-curvature="0"
       id="path1054"
       marker-end="url(#B)"
       d="M 150.18,96.812 138.325,89.568" />
    <path
       inkscape:connector-curvature="0"
       id="path1056"
       marker-end="url(#A)"
       d="m 150.18,109.886 -11.855,7.244" />
  </g>
</svg>
