<?xml version="1.0" encoding="UTF-8" standalone="no"?>
<svg
   id="svg1060"
   version="1.1"
   width="506.88437"
   height="709.53577"
   viewBox="0 0 134.11321 187.73121"
   xmlns="http://www.w3.org/2000/svg"
   xmlns:svg="http://www.w3.org/2000/svg"
   xmlns:rdf="http://www.w3.org/1999/02/22-rdf-syntax-ns#"
   xmlns:cc="http://creativecommons.org/ns#"
   xmlns:dc="http://purl.org/dc/elements/1.1/">
  <metadata
     id="metadata1064">
    <rdf:RDF>
      <cc:Work
         rdf:about="">
        <dc:format>image/svg+xml</dc:format>
        <dc:type
           rdf:resource="http://purl.org/dc/dcmitype/StillImage" />
      </cc:Work>
    </rdf:RDF>
  </metadata>
  <defs
     id="defs6">
    <style
       type="text/css"
       id="style4">
    @import url('https://fontlibrary.org/face/libertinus-sans');
    @font-face {
      font-family: Bravura Text;
      src: url('../../../../../../lib/font/bravura-text/BravuraText.woff2');
    }
  </style>
  </defs>
  <style
     id="style930"><![CDATA[.B{stroke:#000}.C{fill:#fff}.D{stroke-width:1.909}.E{font-weight:400}.F{font-size:10.583px}.G{font-family:Linux Biolinum O}.H{stroke-linejoin:round}.I{stroke-width:3}.J{stroke-width:1.171}.K{font-size:14.111px}.L{font-family:Bravura Text}.M{font-family:Libertinus Sans}.N{fill-rule:evenodd}]]></style>
  <defs
     id="defs938">
    <marker
       overflow="visible"
       orient="auto"
       refY="0"
       refX="0"
       id="A">
      <path
         id="path932"
         class="B N"
         stroke-opacity="1"
         stroke-width="1pt"
         fill-opacity="1"
         fill="#000000"
         d="M 0,0 L 5,-5 L -12.5,0 L 5,5 Z"
         transform="matrix(-0.2,0,0,-0.2,-1.2,0)" />
    </marker>
    <marker
       overflow="visible"
       id="B"
       refX="0"
       refY="0"
       orient="auto">
      <path
         id="path935"
         class="B N"
         stroke-opacity="1"
         stroke-width="1pt"
         fill-opacity="1"
         fill="#000000"
         transform="matrix(-0.2,0,0,-0.2,-1.2,0)"
         d="M 0,0 L 5,-5 L -12.5,0 L 5,5 Z" />
    </marker>
  </defs>
  <g
     id="g948"
     transform="rotate(35.999988,-90.832297,49.380305)">
    <circle
       id="circle940"
       class="B C D"
       r="14.046"
       cy="15"
       cx="15" />
    <circle
       id="circle942"
       r="3"
       cx="15"
       cy="15" />
    <circle
       id="circle944"
       r="1.5"
       cy="5.5"
       cx="15" />
    <circle
       id="circle946"
       cx="15"
       cy="24.5"
       r="1.5" />
  </g>
  <g
     id="g958"
     transform="rotate(-35.999988,190.92636,69.276462)">
    <circle
       id="circle950"
       class="B C D"
       r="14.046"
       cx="15"
       cy="15" />
    <circle
       id="circle952"
       cy="15"
       cx="15"
       r="3" />
    <circle
       id="circle954"
       cx="15"
       cy="5.5"
       r="1.5" />
    <circle
       id="circle956"
       r="1.5"
       cy="24.5"
       cx="15" />
  </g>
  <g
     transform="translate(3.2931367e-5,-3.1219315e-4)"
     id="g964"
     class="B H">
    <path
       id="path960"
       class="I"
       fill="none"
       d="M 18.593,25.24 C 21.489,25.537 22.193,28.645 21.439,30.265 C 19.262,35.005 14.722,41.337 13.756,44.608 L 18.47,187.48" />
    <ellipse
       id="ellipse962"
       class="C"
       cx="15.879"
       cy="44.48"
       rx="3.4230001"
       ry="3.6240001" />
  </g>
  <circle
     id="circle966"
     cy="44.479687"
     cx="15.879031"
     r="2" />
  <g
     transform="translate(3.2931367e-5,-3.1219315e-4)"
     id="g972"
     class="B C">
    <circle
       id="circle968"
       class="J"
       r="2.915"
       cy="27.273001"
       cx="18.533001" />
    <circle
       id="circle970"
       class="D"
       r="14.046"
       cx="65.896004"
       cy="83.773003" />
  </g>
  <circle
     id="circle974"
     cy="83.77269"
     cx="65.896034"
     r="3" />
  <circle
     id="circle976"
     cx="65.896034"
     cy="74.27269"
     r="1.5" />
  <circle
     id="circle978"
     r="1.5"
     cy="93.27269"
     cx="65.896034" />
  <g
     id="g988"
     transform="rotate(-35.999988,216.37638,-9.0505649)">
    <circle
       id="circle980"
       class="B C D"
       r="14.046"
       cy="15"
       cx="15" />
    <circle
       id="circle982"
       r="3"
       cx="15"
       cy="15" />
    <circle
       id="circle984"
       r="1.5"
       cy="5.5"
       cx="15" />
    <circle
       id="circle986"
       cx="15"
       cy="24.5"
       r="1.5" />
  </g>
  <circle
     id="circle990"
     class="B C D"
     r="14.046"
     cy="83.77269"
     cx="115.89803" />
  <circle
     id="circle992"
     r="3"
     cx="115.89803"
     cy="83.77269" />
  <circle
     id="circle994"
     r="1.5"
     cy="74.27269"
     cx="115.89803" />
  <circle
     id="circle996"
     cx="115.89803"
     cy="93.27269"
     r="1.5" />
  <g
     id="g1006"
     transform="rotate(-8.9999767,787.46456,-589.73371)">
    <circle
       id="circle998"
       class="B C D"
       r="14.046"
       cx="15"
       cy="15" />
    <circle
       id="circle1000"
       cy="15"
       cx="15"
       r="3" />
    <circle
       id="circle1002"
       cx="15"
       cy="5.5"
       r="1.5" />
    <circle
       id="circle1004"
       r="1.5"
       cy="24.5"
       cx="15" />
  </g>
  <g
     transform="translate(3.2931367e-5,-3.1219315e-4)"
     id="g1012"
     class="B H">
    <path
       id="path1008"
       class="I"
       fill="none"
       d="M 69.493,25.24 C 72.389,25.537 73.093,28.645 72.339,30.265 C 70.162,35.005 65.622,41.337 64.656,44.608 L 62.97,74.45 L 68.75,92.944 L 66.373,187.694" />
    <ellipse
       id="ellipse1010"
       class="C"
       cx="66.778999"
       cy="44.48"
       rx="3.4230001"
       ry="3.6240001" />
  </g>
  <circle
     id="circle1014"
     cy="44.479687"
     cx="66.77903"
     r="2" />
  <g
     transform="translate(3.2931367e-5,-3.1219315e-4)"
     id="g1024"
     class="B">
    <circle
       id="circle1016"
       class="C J"
       r="2.915"
       cy="27.273001"
       cx="69.432999" />
    <g
       id="g1022"
       class="H">
      <path
         id="path1018"
         class="I"
         fill="none"
         d="M 119.495,25.24 C 122.391,25.537 123.095,28.645 122.341,30.265 C 120.164,35.005 115.624,41.337 114.658,44.608 L 112.97,74.45 L 118.75,92.67 L 120.672,119.14 L 117.544,138.027 L 119.369,187.477" />
      <ellipse
         id="ellipse1020"
         class="C"
         ry="3.6240001"
         rx="3.4230001"
         cy="44.48"
         cx="116.781" />
    </g>
  </g>
  <circle
     id="circle1026"
     r="2"
     cx="116.78102"
     cy="44.479687" />
  <circle
     id="circle1028"
     class="B C J"
     r="2.915"
     cx="119.43503"
     cy="27.27269" />
  <text
     id="text1032"
     class="G K"
     xml:space="preserve"
     x="14.060033"
     y="-55.960312"><tspan
       id="tspan1030"
       class="L"
       font-weight="normal"
       x="14.958033"
       y="12.812688">♭</tspan></text>
  <text
     id="text1036"
     class="K"
     xml:space="preserve"
     x="66.997032"
     y="-57.582314"><tspan
       id="tspan1034"
       class="L"
       font-weight="normal"
       x="67.895027"
       y="11.190688">♮</tspan></text>
  <text
     id="text1052"
     class="K"
     font-family="Bravura"
     y="-57.413311"
     x="116.25104"
     xml:space="preserve"><tspan
       id="tspan1050"
       class="L"
       font-weight="normal"
       y="11.359688"
       x="117.14903">♯</tspan></text>
</svg>
