<?xml version="1.0" encoding="UTF-8" standalone="no"?>
<svg
   inkscape:version="1.1 (c4e8f9e, 2021-05-24)"
   sodipodi:docname="Harp_exp.svg"
   id="svg8"
   version="1.1"
   viewBox="0 0 82.473419 510.2829"
   height="510.2829mm"
   width="82.473419mm"
   xmlns:inkscape="http://www.inkscape.org/namespaces/inkscape"
   xmlns:sodipodi="http://sodipodi.sourceforge.net/DTD/sodipodi-0.dtd"
   xmlns="http://www.w3.org/2000/svg"
   xmlns:svg="http://www.w3.org/2000/svg"
   xmlns:rdf="http://www.w3.org/1999/02/22-rdf-syntax-ns#"
   xmlns:cc="http://creativecommons.org/ns#"
   xmlns:dc="http://purl.org/dc/elements/1.1/">
  <defs
     id="defs2" />
  <sodipodi:namedview
     fit-margin-bottom="0"
     fit-margin-right="0"
     fit-margin-left="0"
     fit-margin-top="0"
     inkscape:window-maximized="0"
     inkscape:window-y="0"
     inkscape:window-x="81"
     inkscape:window-height="755"
     inkscape:window-width="1131"
     showgrid="false"
     inkscape:document-rotation="0"
     inkscape:current-layer="layer1"
     inkscape:document-units="mm"
     inkscape:cy="1000.6299"
     inkscape:cx="143.56864"
     inkscape:zoom="0.22985521"
     inkscape:pageshadow="2"
     inkscape:pageopacity="0.0"
     borderopacity="1.0"
     bordercolor="#666666"
     pagecolor="#ffffff"
     id="base"
     inkscape:pagecheckerboard="0" />
  <metadata
     id="metadata5">
    <rdf:RDF>
      <cc:Work
         rdf:about="">
        <dc:format>image/svg+xml</dc:format>
        <dc:type
           rdf:resource="http://purl.org/dc/dcmitype/StillImage" />
      </cc:Work>
    </rdf:RDF>
  </metadata>
  <g
     transform="translate(0.99091826,359.10725)"
     id="layer1"
     inkscape:groupmode="layer"
     inkscape:label="Ebene 1">
    <path
       sodipodi:nodetypes="cccccccccccccccccccccccccccccccccccccccccccccccccccccc"
       id="path921"
       d="M -0.07941828,150.26443 L 80.571512,-0.03311042 L 77.565561,3.8746257 L 75.979421,5.6932259 L 74.393281,7.4717469 L 72.807141,9.2051785 L 71.221001,10.890515 L 69.634861,12.521744 L 68.048721,14.092855 L 66.461579,15.597834 L 64.875439,17.030671 L 63.289299,18.382346 L 61.703159,19.645848 L 60.117018,20.812157 L 58.530878,21.869249 L 56.944738,22.807106 L 55.358598,23.613703 L 53.772458,24.27401 L 52.186318,24.775002 L 50.600178,25.097641 L 49.014038,25.223891 L 47.426582,25.135 L 45.840756,24.807 L 44.254616,24.214893 L 42.668476,23.332146 L 41.082336,22.127761 L 39.496196,20.568675 L 37.910056,18.618815 L 36.323916,16.235096 L 34.737775,13.374432 L 33.151635,9.9867257 L 31.565495,6.0168667 L 29.979355,1.4037341 L 28.392213,-3.9178009 L 26.806073,-10.023889 L 25.219933,-16.994689 L 23.633793,-24.920379 L 22.047653,-33.900157 L 20.461513,-44.044239 L 18.875373,-55.473866 L 17.289233,-68.323304 L 15.703093,-82.738842 L 14.116953,-98.883804 L 12.530813,-116.93955 L 11.002582,-136.8 L 9.4185817,-159.248 L 7.8355817,-184.262 L 6.2525817,-212.109 L 4.6695817,-243.083 L 3.0865817,-277.511 L 1.5035817,-315.751 L -0.07941828,-358.2 V -0.03311042 Z"
       style="fill:none;stroke:#0000ff;stroke-width:0.323122px;stroke-linecap:butt;stroke-linejoin:miter;stroke-opacity:1" />
    <path
       sodipodi:nodetypes="cc"
       inkscape:tile-y0="4.1422517"
       inkscape:tile-x0="3.1815098"
       inkscape:tile-h="2.1840961"
       inkscape:tile-w="0.26458299"
       inkscape:tile-cy="5.2342998"
       inkscape:tile-cx="3.3138013"
       id="path941"
       d="M 77.565561,3.8746257 L 77.565582,5.5629938"
       style="fill:none;stroke:#0000ff;stroke-width:0.264583px;stroke-linecap:butt;stroke-linejoin:miter;stroke-opacity:1" />
    <path
       sodipodi:nodetypes="cc"
       style="fill:none;stroke:#0000ff;stroke-width:0.264583px;stroke-linecap:butt;stroke-linejoin:miter;stroke-opacity:1"
       d="M 75.979421,5.6932259 L 75.979582,8.2529087"
       id="use1867"
       inkscape:tile-x0="3.1815098"
       inkscape:tile-y0="4.1422517" />
    <path
       sodipodi:nodetypes="cc"
       style="fill:none;stroke:#0000ff;stroke-width:0.264583px;stroke-linecap:butt;stroke-linejoin:miter;stroke-opacity:1"
       d="M 74.393281,7.4717469 L 74.481782,11.39929"
       id="use1869"
       inkscape:tile-x0="3.1815098"
       inkscape:tile-y0="4.1422517" />
    <path
       sodipodi:nodetypes="cc"
       style="fill:none;stroke:#0000ff;stroke-width:0.264583px;stroke-linecap:butt;stroke-linejoin:miter;stroke-opacity:1"
       d="M 72.807141,9.2051785 L 72.797582,14.472971"
       id="use1871"
       inkscape:tile-x0="3.1815098"
       inkscape:tile-y0="4.1422517" />
    <path
       sodipodi:nodetypes="cc"
       style="fill:none;stroke:#0000ff;stroke-width:0.264583px;stroke-linecap:butt;stroke-linejoin:miter;stroke-opacity:1"
       d="M 71.221001,10.890515 L 71.220582,17.438848"
       id="use1873"
       inkscape:tile-x0="3.1815098"
       inkscape:tile-y0="4.1422517" />
    <path
       sodipodi:nodetypes="cc"
       style="fill:none;stroke:#0000ff;stroke-width:0.264583px;stroke-linecap:butt;stroke-linejoin:miter;stroke-opacity:1"
       d="M 69.634861,12.521744 L 69.634582,20.284825"
       id="use1875"
       inkscape:tile-x0="3.1815098"
       inkscape:tile-y0="4.1422517" />
    <path
       sodipodi:nodetypes="cc"
       style="fill:none;stroke:#0000ff;stroke-width:0.264583px;stroke-linecap:butt;stroke-linejoin:miter;stroke-opacity:1"
       d="M 68.048721,14.092855 L 68.048582,23.265542"
       id="use1877"
       inkscape:tile-x0="3.1815098"
       inkscape:tile-y0="4.1422517" />
    <path
       sodipodi:nodetypes="cc"
       style="fill:none;stroke:#0000ff;stroke-width:0.264583px;stroke-linecap:butt;stroke-linejoin:miter;stroke-opacity:1"
       d="M 66.461579,15.597834 L 66.461582,26.095587"
       id="use1879"
       inkscape:tile-x0="3.1815098"
       inkscape:tile-y0="4.1422517" />
    <path
       sodipodi:nodetypes="cc"
       style="fill:none;stroke:#0000ff;stroke-width:0.264583px;stroke-linecap:butt;stroke-linejoin:miter;stroke-opacity:1"
       d="M 64.875439,17.030671 L 64.875582,29.28908"
       id="use1881"
       inkscape:tile-x0="3.1815098"
       inkscape:tile-y0="4.1422517" />
    <path
       sodipodi:nodetypes="cc"
       style="fill:none;stroke:#0000ff;stroke-width:0.264583px;stroke-linecap:butt;stroke-linejoin:miter;stroke-opacity:1"
       d="M 63.289299,18.382346 L 63.289582,31.950323"
       id="use1883"
       inkscape:tile-x0="3.1815098"
       inkscape:tile-y0="4.1422517" />
    <path
       sodipodi:nodetypes="cc"
       style="fill:none;stroke:#0000ff;stroke-width:0.264583px;stroke-linecap:butt;stroke-linejoin:miter;stroke-opacity:1"
       d="M 61.703159,19.645848 L 61.703582,35.06778"
       id="use1885"
       inkscape:tile-x0="3.1815098"
       inkscape:tile-y0="4.1422517" />
    <path
       sodipodi:nodetypes="cc"
       style="fill:none;stroke:#0000ff;stroke-width:0.264583px;stroke-linecap:butt;stroke-linejoin:miter;stroke-opacity:1"
       d="M 60.117018,20.812157 L 60.116582,37.957131"
       id="use1887"
       inkscape:tile-x0="3.1815098"
       inkscape:tile-y0="4.1422517" />
    <path
       sodipodi:nodetypes="cc"
       style="fill:none;stroke:#0000ff;stroke-width:0.264583px;stroke-linecap:butt;stroke-linejoin:miter;stroke-opacity:1"
       d="M 58.530878,21.869249 L 58.530582,40.922517"
       id="use1889"
       inkscape:tile-x0="3.1815098"
       inkscape:tile-y0="4.1422517" />
    <path
       sodipodi:nodetypes="cc"
       style="fill:none;stroke:#0000ff;stroke-width:0.264583px;stroke-linecap:butt;stroke-linejoin:miter;stroke-opacity:1"
       d="M 56.944738,22.807106 L 56.944582,44.039974"
       id="use1891"
       inkscape:tile-x0="3.1815098"
       inkscape:tile-y0="4.1422517" />
    <path
       sodipodi:nodetypes="cc"
       style="fill:none;stroke:#0000ff;stroke-width:0.264583px;stroke-linecap:butt;stroke-linejoin:miter;stroke-opacity:1"
       d="M 55.358598,23.613703 L 55.358582,46.777253"
       id="use1893"
       inkscape:tile-x0="3.1815098"
       inkscape:tile-y0="4.1422517" />
    <path
       sodipodi:nodetypes="cc"
       style="fill:none;stroke:#0000ff;stroke-width:0.264583px;stroke-linecap:butt;stroke-linejoin:miter;stroke-opacity:1"
       d="M 53.772458,24.27401 L 53.772582,49.89471"
       id="use1895"
       inkscape:tile-x0="3.1815098"
       inkscape:tile-y0="4.1422517" />
    <path
       sodipodi:nodetypes="cc"
       style="fill:none;stroke:#0000ff;stroke-width:0.264583px;stroke-linecap:butt;stroke-linejoin:miter;stroke-opacity:1"
       d="M 52.186318,24.775002 L 52.186582,52.631989"
       id="use1897"
       inkscape:tile-x0="3.1815098"
       inkscape:tile-y0="4.1422517" />
    <path
       sodipodi:nodetypes="cc"
       style="fill:none;stroke:#0000ff;stroke-width:0.264583px;stroke-linecap:butt;stroke-linejoin:miter;stroke-opacity:1"
       d="M 50.600178,25.097641 L 50.600582,55.673411"
       id="use1899"
       inkscape:tile-x0="3.1815098"
       inkscape:tile-y0="4.1422517" />
    <path
       sodipodi:nodetypes="cc"
       style="fill:none;stroke:#0000ff;stroke-width:0.264583px;stroke-linecap:butt;stroke-linejoin:miter;stroke-opacity:1"
       d="M 49.014038,25.223891 L 49.013582,58.486725"
       id="use1901"
       inkscape:tile-x0="3.1815098"
       inkscape:tile-y0="4.1422517" />
    <path
       sodipodi:nodetypes="cc"
       style="fill:none;stroke:#0000ff;stroke-width:0.264583px;stroke-linecap:butt;stroke-linejoin:miter;stroke-opacity:1"
       d="M 47.426896,25.134714 L 47.426582,61.452111"
       id="use1903"
       inkscape:tile-x0="3.1815098"
       inkscape:tile-y0="4.1422517" />
    <path
       sodipodi:nodetypes="cc"
       style="fill:none;stroke:#0000ff;stroke-width:0.264583px;stroke-linecap:butt;stroke-linejoin:miter;stroke-opacity:1"
       d="M 45.840756,24.807065 L 45.840582,64.569568"
       id="use1905"
       inkscape:tile-x0="3.1815098"
       inkscape:tile-y0="4.1422517" />
    <path
       sodipodi:nodetypes="cc"
       style="fill:none;stroke:#0000ff;stroke-width:0.264583px;stroke-linecap:butt;stroke-linejoin:miter;stroke-opacity:1"
       d="M 44.254616,24.214893 L 44.254582,67.534954"
       id="use1907"
       inkscape:tile-x0="3.1815098"
       inkscape:tile-y0="4.1422517" />
    <path
       sodipodi:nodetypes="cc"
       style="fill:none;stroke:#0000ff;stroke-width:0.264583px;stroke-linecap:butt;stroke-linejoin:miter;stroke-opacity:1"
       d="M 42.668476,23.332146 L 42.668582,70.834818"
       id="use1909"
       inkscape:tile-x0="3.1815098"
       inkscape:tile-y0="4.1422517" />
    <path
       sodipodi:nodetypes="cc"
       style="fill:none;stroke:#0000ff;stroke-width:0.264583px;stroke-linecap:butt;stroke-linejoin:miter;stroke-opacity:1"
       d="M 41.082336,22.127761 L 41.082582,73.484638"
       id="use1911"
       inkscape:tile-x0="3.1815098"
       inkscape:tile-y0="4.1422517" />
    <path
       sodipodi:nodetypes="cc"
       style="fill:none;stroke:#0000ff;stroke-width:0.264583px;stroke-linecap:butt;stroke-linejoin:miter;stroke-opacity:1"
       d="M 39.496196,20.568675 L 39.496582,76.511016"
       id="use1913"
       inkscape:tile-x0="3.1815098"
       inkscape:tile-y0="4.1422517" />
    <path
       sodipodi:nodetypes="cc"
       style="fill:none;stroke:#0000ff;stroke-width:0.264583px;stroke-linecap:butt;stroke-linejoin:miter;stroke-opacity:1"
       d="M 37.910056,18.618815 L 37.909582,79.403099"
       id="use1915"
       inkscape:tile-x0="3.1815098"
       inkscape:tile-y0="4.1422517" />
    <path
       sodipodi:nodetypes="cc"
       style="fill:none;stroke:#0000ff;stroke-width:0.264583px;stroke-linecap:butt;stroke-linejoin:miter;stroke-opacity:1"
       d="M 36.323916,16.235096 L 36.323582,82.398471"
       id="use1917"
       inkscape:tile-x0="3.1815098"
       inkscape:tile-y0="4.1422517" />
    <path
       sodipodi:nodetypes="cc"
       style="fill:none;stroke:#0000ff;stroke-width:0.264583px;stroke-linecap:butt;stroke-linejoin:miter;stroke-opacity:1"
       d="M 34.737582,13.374432 V 85.095257"
       id="use1919"
       inkscape:tile-x0="3.1815098"
       inkscape:tile-y0="4.1422517" />
    <path
       sodipodi:nodetypes="cc"
       style="fill:none;stroke:#0000ff;stroke-width:0.264583px;stroke-linecap:butt;stroke-linejoin:miter;stroke-opacity:1"
       d="M 33.151635,9.9867257 L 33.151582,88.373852"
       id="use1921"
       inkscape:tile-x0="3.1815098"
       inkscape:tile-y0="4.1422517" />
    <path
       sodipodi:nodetypes="cc"
       style="fill:none;stroke:#0000ff;stroke-width:0.264583px;stroke-linecap:butt;stroke-linejoin:miter;stroke-opacity:1"
       d="M 31.565495,6.0168667 L 31.565582,91.43288"
       id="use1923"
       inkscape:tile-x0="3.1815098"
       inkscape:tile-y0="4.1422517" />
    <path
       sodipodi:nodetypes="cc"
       style="fill:none;stroke:#0000ff;stroke-width:0.264583px;stroke-linecap:butt;stroke-linejoin:miter;stroke-opacity:1"
       d="M 29.979355,1.4037341 L 29.979582,94.344419"
       id="use1925"
       inkscape:tile-x0="3.1815098"
       inkscape:tile-y0="4.1422517" />
    <path
       sodipodi:nodetypes="cc"
       style="fill:none;stroke:#0000ff;stroke-width:0.264583px;stroke-linecap:butt;stroke-linejoin:miter;stroke-opacity:1"
       d="M 28.392213,-3.9178009 L 28.392582,97.030107"
       id="use1927"
       inkscape:tile-x0="3.1815098"
       inkscape:tile-y0="4.1422517" />
    <path
       sodipodi:nodetypes="cc"
       style="fill:none;stroke:#0000ff;stroke-width:0.264583px;stroke-linecap:butt;stroke-linejoin:miter;stroke-opacity:1"
       d="M 26.806073,-10.023889 L 26.805582,99.642978"
       id="use1929"
       inkscape:tile-x0="3.1815098"
       inkscape:tile-y0="4.1422517" />
    <path
       sodipodi:nodetypes="cc"
       style="fill:none;stroke:#0000ff;stroke-width:0.264583px;stroke-linecap:butt;stroke-linejoin:miter;stroke-opacity:1"
       d="M 25.219933,-16.994689 L 25.219582,102.66667"
       id="use1931"
       inkscape:tile-x0="3.1815098"
       inkscape:tile-y0="4.1422517" />
    <path
       sodipodi:nodetypes="cc"
       style="fill:none;stroke:#0000ff;stroke-width:0.264583px;stroke-linecap:butt;stroke-linejoin:miter;stroke-opacity:1"
       d="M 23.633793,-24.920379 L 23.633582,106.06093"
       id="use1933"
       inkscape:tile-x0="3.1815098"
       inkscape:tile-y0="4.1422517" />
    <path
       sodipodi:nodetypes="cc"
       style="fill:none;stroke:#0000ff;stroke-width:0.264583px;stroke-linecap:butt;stroke-linejoin:miter;stroke-opacity:1"
       d="M 22.047653,-33.900157 L 22.047582,108.94605"
       id="use1935"
       inkscape:tile-x0="3.1815098"
       inkscape:tile-y0="4.1422517" />
    <path
       sodipodi:nodetypes="cc"
       style="fill:none;stroke:#0000ff;stroke-width:0.264583px;stroke-linecap:butt;stroke-linejoin:miter;stroke-opacity:1"
       d="M 20.461513,-44.044239 L 20.461582,111.71802"
       id="use1937"
       inkscape:tile-x0="3.1815098"
       inkscape:tile-y0="4.1422517" />
    <path
       sodipodi:nodetypes="cc"
       style="fill:none;stroke:#0000ff;stroke-width:0.264583px;stroke-linecap:butt;stroke-linejoin:miter;stroke-opacity:1"
       d="M 18.875373,-55.473866 L 18.875582,114.72745"
       id="use1939"
       inkscape:tile-x0="3.1815098"
       inkscape:tile-y0="4.1422517" />
    <path
       sodipodi:nodetypes="cc"
       style="fill:none;stroke:#0000ff;stroke-width:0.263871px;stroke-linecap:butt;stroke-linejoin:miter;stroke-opacity:1"
       d="M 17.289233,-68.058721 L 17.289582,117.95344"
       id="use1941"
       inkscape:tile-x0="3.1815098"
       inkscape:tile-y0="4.1422517" />
    <path
       sodipodi:nodetypes="cc"
       style="fill:none;stroke:#0000ff;stroke-width:0.264583px;stroke-linecap:butt;stroke-linejoin:miter;stroke-opacity:1"
       d="M 15.703093,-82.738842 L 15.703582,120.46904"
       id="use1943"
       inkscape:tile-x0="3.1815098"
       inkscape:tile-y0="4.1422517" />
    <path
       sodipodi:nodetypes="cc"
       style="fill:none;stroke:#0000ff;stroke-width:0.264583px;stroke-linecap:butt;stroke-linejoin:miter;stroke-opacity:1"
       d="M 14.116953,-98.883804 L 14.116582,123.63952"
       id="use1945"
       inkscape:tile-x0="3.1815098"
       inkscape:tile-y0="4.1422517" />
    <path
       sodipodi:nodetypes="cc"
       style="fill:none;stroke:#0000ff;stroke-width:0.264583px;stroke-linecap:butt;stroke-linejoin:miter;stroke-opacity:1"
       d="M 12.530813,-116.93955 L 12.530582,126.81"
       id="use1947"
       inkscape:tile-x0="3.1815098"
       inkscape:tile-y0="4.1422517" />
    <path
       sodipodi:nodetypes="cc"
       style="fill:none;stroke:#0000ff;stroke-width:0.264583px;stroke-linecap:butt;stroke-linejoin:miter;stroke-opacity:1"
       d="M 11.002582,-136.8 V 129.60003"
       id="use1949"
       inkscape:tile-x0="3.1815098"
       inkscape:tile-y0="4.1422517" />
    <path
       sodipodi:nodetypes="cc"
       style="fill:none;stroke:#0000ff;stroke-width:0.264583px;stroke-linecap:butt;stroke-linejoin:miter;stroke-opacity:1"
       d="M 9.4185817,-159.248 V 132.26323"
       id="use1951"
       inkscape:tile-x0="3.1815098"
       inkscape:tile-y0="4.1422517" />
    <path
       sodipodi:nodetypes="cc"
       style="fill:none;stroke:#0000ff;stroke-width:0.264583px;stroke-linecap:butt;stroke-linejoin:miter;stroke-opacity:1"
       d="M 7.8355817,-184.262 V 135.38258"
       id="use1953"
       inkscape:tile-x0="3.1815098"
       inkscape:tile-y0="4.1422517" />
    <path
       sodipodi:nodetypes="cc"
       style="fill:none;stroke:#0000ff;stroke-width:0.264583px;stroke-linecap:butt;stroke-linejoin:miter;stroke-opacity:1"
       d="M -0.09368028,4.1422518 V 6.326348"
       id="use1955"
       inkscape:tile-x0="3.1815098"
       inkscape:tile-y0="4.1422517" />
    <path
       style="fill:none;stroke:#0000ff;stroke-width:0.323122px;stroke-linecap:butt;stroke-linejoin:miter;stroke-opacity:1"
       d="M -0.07941828,150.26443 L 80.571512,-0.03311042 L 77.565561,3.8746257 L 75.979421,5.6932259 L 74.393281,7.4717469 L 72.807141,9.2051785 L 71.221001,10.890515 L 69.634861,12.521744 L 68.048721,14.092855 L 66.461579,15.597834 L 64.875439,17.030671 L 63.289299,18.382346 L 61.703159,19.645848 L 60.117018,20.812157 L 58.530878,21.869249 L 56.944738,22.807106 L 55.358598,23.613703 L 53.772458,24.27401 L 52.186318,24.775002 L 50.600178,25.097641 L 49.014038,25.223891 L 47.426582,25.135 L 45.840756,24.807 L 44.254616,24.214893 L 42.668476,23.332146 L 41.082336,22.127761 L 39.496196,20.568675 L 37.910056,18.618815 L 36.323916,16.235096 L 34.737775,13.374432 L 33.151635,9.9867257 L 31.565495,6.0168667 L 29.979355,1.4037341 L 28.392213,-3.9178009 L 26.806073,-10.023889 L 25.219933,-16.994689 L 23.633793,-24.920379 L 22.047653,-33.900157 L 20.461513,-44.044239 L 18.875373,-55.473866 L 17.289233,-68.323304 L 15.703093,-82.738842 L 14.116953,-98.883804 L 12.530813,-116.93955 L 11.002582,-136.8 L 9.4185817,-159.248 L 7.8355817,-184.262 L 6.2525817,-212.109 L 4.6695817,-243.083 L 3.0865817,-277.511 L 1.5035817,-315.751 L -0.07941828,-358.2 V -0.03311042 Z"
       id="path2049"
       sodipodi:nodetypes="cccccccccccccccccccccccccccccccccccccccccccccccccccccc" />
    <path
       inkscape:tile-y0="4.1422517"
       inkscape:tile-x0="3.1815098"
       id="path2051"
       d="M 7.8355817,-184.262 V 135.38258"
       style="fill:none;stroke:#0000ff;stroke-width:0.264583px;stroke-linecap:butt;stroke-linejoin:miter;stroke-opacity:1"
       sodipodi:nodetypes="cc" />
    <path
       sodipodi:nodetypes="cccccccccccccccccccccccccccccccccccccccccccccccccccccc"
       id="path2053"
       d="M -0.07941828,150.26443 L 80.571512,-0.03311042 L 77.565561,3.8746257 L 75.979421,5.6932259 L 74.393281,7.4717469 L 72.807141,9.2051785 L 71.221001,10.890515 L 69.634861,12.521744 L 68.048721,14.092855 L 66.461579,15.597834 L 64.875439,17.030671 L 63.289299,18.382346 L 61.703159,19.645848 L 60.117018,20.812157 L 58.530878,21.869249 L 56.944738,22.807106 L 55.358598,23.613703 L 53.772458,24.27401 L 52.186318,24.775002 L 50.600178,25.097641 L 49.014038,25.223891 L 47.426582,25.135 L 45.840756,24.807 L 44.254616,24.214893 L 42.668476,23.332146 L 41.082336,22.127761 L 39.496196,20.568675 L 37.910056,18.618815 L 36.323916,16.235096 L 34.737775,13.374432 L 33.151635,9.9867257 L 31.565495,6.0168667 L 29.979355,1.4037341 L 28.392213,-3.9178009 L 26.806073,-10.023889 L 25.219933,-16.994689 L 23.633793,-24.920379 L 22.047653,-33.900157 L 20.461513,-44.044239 L 18.875373,-55.473866 L 17.289233,-68.323304 L 15.703093,-82.738842 L 14.116953,-98.883804 L 12.530813,-116.93955 L 11.002582,-136.8 L 9.4185817,-159.248 L 7.8355817,-184.262 L 6.2525817,-212.109 L 4.6695817,-243.083 L 3.0865817,-277.511 L 1.5035817,-315.751 L -0.07941828,-358.2 V -0.03311042 Z"
       style="fill:none;stroke:#0000ff;stroke-width:0.323122px;stroke-linecap:butt;stroke-linejoin:miter;stroke-opacity:1" />
    <path
       sodipodi:nodetypes="cc"
       style="fill:none;stroke:#0000ff;stroke-width:0.264583px;stroke-linecap:butt;stroke-linejoin:miter;stroke-opacity:1"
       d="M 6.2525817,-212.109 V 138.29942"
       id="path2055"
       inkscape:tile-x0="3.1815098"
       inkscape:tile-y0="4.1422517" />
    <path
       style="fill:none;stroke:#0000ff;stroke-width:0.323122px;stroke-linecap:butt;stroke-linejoin:miter;stroke-opacity:1"
       d="M -0.07941828,150.26443 L 80.571512,-0.03311042 L 77.565561,3.8746257 L 75.979421,5.6932259 L 74.393281,7.4717469 L 72.807141,9.2051785 L 71.221001,10.890515 L 69.634861,12.521744 L 68.048721,14.092855 L 66.461579,15.597834 L 64.875439,17.030671 L 63.289299,18.382346 L 61.703159,19.645848 L 60.117018,20.812157 L 58.530878,21.869249 L 56.944738,22.807106 L 55.358598,23.613703 L 53.772458,24.27401 L 52.186318,24.775002 L 50.600178,25.097641 L 49.014038,25.223891 L 47.426582,25.135 L 45.840756,24.807 L 44.254616,24.214893 L 42.668476,23.332146 L 41.082336,22.127761 L 39.496196,20.568675 L 37.910056,18.618815 L 36.323916,16.235096 L 34.737775,13.374432 L 33.151635,9.9867257 L 31.565495,6.0168667 L 29.979355,1.4037341 L 28.392213,-3.9178009 L 26.806073,-10.023889 L 25.219933,-16.994689 L 23.633793,-24.920379 L 22.047653,-33.900157 L 20.461513,-44.044239 L 18.875373,-55.473866 L 17.289233,-68.323304 L 15.703093,-82.738842 L 14.116953,-98.883804 L 12.530813,-116.93955 L 11.002582,-136.8 L 9.4185817,-159.248 L 7.8355817,-184.262 L 6.2525817,-212.109 L 4.6695817,-243.083 L 3.0865817,-277.511 L 1.5035817,-315.751 L -0.07941828,-358.2 V -0.03311042 Z"
       id="path2057"
       sodipodi:nodetypes="cccccccccccccccccccccccccccccccccccccccccccccccccccccc" />
    <path
       inkscape:tile-y0="4.1422517"
       inkscape:tile-x0="3.1815098"
       id="path2059"
       d="M 4.6695817,-243.083 V 140.96263"
       style="fill:none;stroke:#0000ff;stroke-width:0.264583px;stroke-linecap:butt;stroke-linejoin:miter;stroke-opacity:1"
       sodipodi:nodetypes="cc" />
    <path
       sodipodi:nodetypes="cccccccccccccccccccccccccccccccccccccccccccccccccccccc"
       id="path2061"
       d="M -0.07941828,150.26443 L 80.571512,-0.03311042 L 77.565561,3.8746257 L 75.979421,5.6932259 L 74.393281,7.4717469 L 72.807141,9.2051785 L 71.221001,10.890515 L 69.634861,12.521744 L 68.048721,14.092855 L 66.461579,15.597834 L 64.875439,17.030671 L 63.289299,18.382346 L 61.703159,19.645848 L 60.117018,20.812157 L 58.530878,21.869249 L 56.944738,22.807106 L 55.358598,23.613703 L 53.772458,24.27401 L 52.186318,24.775002 L 50.600178,25.097641 L 49.014038,25.223891 L 47.426582,25.135 L 45.840756,24.807 L 44.254616,24.214893 L 42.668476,23.332146 L 41.082336,22.127761 L 39.496196,20.568675 L 37.910056,18.618815 L 36.323916,16.235096 L 34.737775,13.374432 L 33.151635,9.9867257 L 31.565495,6.0168667 L 29.979355,1.4037341 L 28.392213,-3.9178009 L 26.806073,-10.023889 L 25.219933,-16.994689 L 23.633793,-24.920379 L 22.047653,-33.900157 L 20.461513,-44.044239 L 18.875373,-55.473866 L 17.289233,-68.323304 L 15.703093,-82.738842 L 14.116953,-98.883804 L 12.530813,-116.93955 L 11.002582,-136.8 L 9.4185817,-159.248 L 7.8355817,-184.262 L 6.2525817,-212.109 L 4.6695817,-243.083 L 3.0865817,-277.511 L 1.5035817,-315.751 L -0.07941828,-358.2 V -0.03311042 Z"
       style="fill:none;stroke:#0000ff;stroke-width:0.323122px;stroke-linecap:butt;stroke-linejoin:miter;stroke-opacity:1" />
    <path
       sodipodi:nodetypes="cc"
       style="fill:none;stroke:#0000ff;stroke-width:0.264583px;stroke-linecap:butt;stroke-linejoin:miter;stroke-opacity:1"
       d="M 3.0865817,-277.511 V 144.38675"
       id="path2063"
       inkscape:tile-x0="3.1815098"
       inkscape:tile-y0="4.1422517" />
    <path
       style="fill:none;stroke:#000000;stroke-width:1.823;stroke-linecap:round;stroke-linejoin:round;stroke-miterlimit:4;stroke-dasharray:none;stroke-opacity:1"
       d="M -0.07941828,150.26443 L 80.571512,-0.03311042 L 77.565561,3.8746257 L 75.979421,5.6932259 L 74.393281,7.4717469 L 72.807141,9.2051785 L 71.221001,10.890515 L 69.634861,12.521744 L 68.048721,14.092855 L 66.461579,15.597834 L 64.875439,17.030671 L 63.289299,18.382346 L 61.703159,19.645848 L 60.117018,20.812157 L 58.530878,21.869249 L 56.944738,22.807106 L 55.358598,23.613703 L 53.772458,24.27401 L 52.186318,24.775002 L 50.600178,25.097641 L 49.014038,25.223891 L 47.426582,25.135 L 45.840756,24.807 L 44.254616,24.214893 L 42.668476,23.332146 L 41.082336,22.127761 L 39.496196,20.568675 L 37.910056,18.618815 L 36.323916,16.235096 L 34.737775,13.374432 L 33.151635,9.9867257 L 31.565495,6.0168667 L 29.979355,1.4037341 L 28.392213,-3.9178009 L 26.806073,-10.023889 L 25.219933,-16.994689 L 23.633793,-24.920379 L 22.047653,-33.900157 L 20.461513,-44.044239 L 18.875373,-55.473866 L 17.289233,-68.323304 L 15.703093,-82.738842 L 14.116953,-98.883804 L 12.530813,-116.93955 L 11.002582,-136.8 L 9.4185817,-159.248 L 7.8355817,-184.262 L 6.2525817,-212.109 L 4.6695817,-243.083 L 3.0865817,-277.511 L 1.5035817,-315.751 L -0.07941828,-358.2 V -0.03311042 Z"
       id="path2065"
       sodipodi:nodetypes="cccccccccccccccccccccccccccccccccccccccccccccccccccccc" />
    <path
       inkscape:tile-y0="4.1422517"
       inkscape:tile-x0="3.1815098"
       id="path2067"
       d="M 1.5035817,-315.751 V 147.17677"
       style="fill:none;stroke:#000000;stroke-width:0.264583px;stroke-linecap:butt;stroke-linejoin:round;stroke-opacity:1"
       sodipodi:nodetypes="cc" />
  </g>
</svg>
