<?xml version="1.0" encoding="UTF-8" standalone="no"?>
<!-- Created with Inkscape (http://www.inkscape.org/) -->

<svg
   version="1.1"
   id="svg824"
   width="181.14679"
   height="202.72212"
   viewBox="0 0 181.14679 202.72213"
   sodipodi:docname="Pedalmechanik.svg"
   inkscape:version="1.1 (c4e8f9e, 2021-05-24)"
   xmlns:inkscape="http://www.inkscape.org/namespaces/inkscape"
   xmlns:sodipodi="http://sodipodi.sourceforge.net/DTD/sodipodi-0.dtd"
   xmlns="http://www.w3.org/2000/svg"
   xmlns:svg="http://www.w3.org/2000/svg">
  <defs
     id="defs828" />
  <sodipodi:namedview
     id="namedview826"
     pagecolor="#ffffff"
     bordercolor="#999999"
     borderopacity="1"
     inkscape:pageshadow="0"
     inkscape:pageopacity="0"
     inkscape:pagecheckerboard="0"
     showgrid="true"
     inkscape:snap-global="false"
     lock-margins="true"
     fit-margin-top="1"
     fit-margin-left="1"
     fit-margin-right="1"
     fit-margin-bottom="1"
     inkscape:zoom="0.71855616"
     inkscape:cx="5.5667187"
     inkscape:cy="95.330057"
     inkscape:window-width="1013"
     inkscape:window-height="480"
     inkscape:window-x="0"
     inkscape:window-y="0"
     inkscape:window-maximized="0"
     inkscape:current-layer="g830">
    <inkscape:grid
       type="xygrid"
       id="grid2116"
       originx="189.0895"
       originy="-42.653344" />
  </sodipodi:namedview>
  <g
     inkscape:groupmode="layer"
     inkscape:label="Image"
     id="g830"
     transform="translate(189.0895,-42.65334)">
    <path
       style="fill:#ffffd6;fill-opacity:1;stroke:#000000;stroke-width:1px;stroke-linecap:butt;stroke-linejoin:miter;stroke-opacity:1"
       d="M -129.98439,165.74497 V 194.55477 C -105.48105,225.35076 -69.21496,222.82747 -45.228699,194.55477 L -45.83672,162.67748"
       id="path2423"
       sodipodi:nodetypes="cccc" />
    <path
       style="fill:#ffffd6;fill-opacity:1;stroke:#000000;stroke-width:1.08243px;stroke-linecap:butt;stroke-linejoin:miter;stroke-opacity:1"
       d="M -106.14468,131.3278 C -94.463467,131.39063 -82.782253,131.45346 -71.101036,131.5163 C -61.011402,139.83758 -50.482452,149.00328 -46.111262,161.74994 C -43.825032,169.14553 -46.630532,177.5576 -52.641602,182.36165 C -58.616432,187.70376 -66.057431,191.34753 -73.821638,193.43732 C -83.474934,196.03558 -93.347725,195.40216 -102.99926,193.10013 C -109.1097,191.32047 -115.18027,187.68206 -120.48719,184.37545 C -126.34861,180.19214 -130.98818,173.08924 -130.08601,165.33004 C -128.99823,155.47658 -121.9385,147.81727 -115.66968,140.7065 C -112.62761,137.44865 -109.42097,134.34854 -106.14468,131.3278 Z"
       id="path2388"
       sodipodi:nodetypes="ccscsccccc" />
    <path
       style="fill:#ffffd6;fill-opacity:1;stroke:#000000;stroke-width:1px;stroke-linecap:butt;stroke-linejoin:miter;stroke-opacity:1"
       d="M -104.74442,133.72737 C -93.952782,133.78542 -83.161145,133.84346 -72.369507,133.90151 C -63.048242,141.5891 -53.321112,150.05678 -49.282812,161.83274 C -47.170692,168.66511 -49.762542,176.43656 -55.315842,180.87476 C -60.835662,185.81005 -67.614604,189.57405 -74.882923,191.10696 C -83.801076,192.6149 -92.922008,191.83116 -101.83853,190.79546 C -107.48363,189.15132 -113.09191,185.78999 -117.99468,182.73521 C -123.40973,178.87047 -127.69598,172.30849 -126.8625,165.1402 C -125.85757,156.03711 -119.33547,148.9611 -113.54405,142.39183 C -110.73364,139.38209 -107.7712,136.51807 -104.74442,133.72737 Z"
       id="path955"
       sodipodi:nodetypes="ccscsccccc" />
    <path
       style="fill:#ffffd6;fill-opacity:1;stroke:#000000;stroke-width:1px;stroke-linecap:butt;stroke-linejoin:miter;stroke-opacity:1"
       d="M -105.48305,156.15488 H -71.129854 C -63.451392,163.94984 -56.989472,172.11912 -56.583902,182.15189 C -69.986989,194.10511 -100.53597,197.42312 -117.55309,182.15189 C -118.85645,173.19029 -114.35263,164.55131 -105.48305,156.15488 Z"
       id="path2823"
       sodipodi:nodetypes="ccccc" />
    <path
       style="fill:#000000;fill-opacity:1;stroke:#000000;stroke-width:1px;stroke-linecap:butt;stroke-linejoin:miter;stroke-opacity:1"
       d="M -101.27247,193.24827 L -96.579818,194.3745 V 201.88274 H -94.890464 V 206.89064 H -92.637992 V 216.52381 L -99.019995,215.58528 V 207.26605 L -101.46017,206.89064 Z"
       id="path7067"
       sodipodi:nodetypes="ccccccccccc" />
    <path
       style="fill:#000000;fill-opacity:1;stroke:#000000;stroke-width:1px;stroke-linecap:butt;stroke-linejoin:miter;stroke-opacity:1"
       d="M -113.33943,189.95728 L -108.64678,191.08351 V 198.59175 H -106.95742 V 203.59965 H -104.70495 V 213.23282 L -111.08695,212.29429 V 203.97506 L -113.52713,203.59965 Z"
       id="path7620"
       sodipodi:nodetypes="ccccccccccc" />
    <path
       style="fill:#000000;fill-opacity:1;stroke:#000000;stroke-width:0.985489px;stroke-linecap:butt;stroke-linejoin:miter;stroke-opacity:1"
       d="M -123.88044,181.91152 L -119.17684,185.0328 V 192.30773 L -117.48355,193.03854 V 197.89083 L -115.22582,198.86526 V 208.1991 L -121.62271,204.52888 V 196.46815 L -124.06858,195.04878 Z"
       id="path7702"
       sodipodi:nodetypes="ccccccccccc" />
    <path
       style="fill:#000000;fill-opacity:1;stroke:#000000;stroke-width:0.870953px;stroke-linecap:butt;stroke-linejoin:miter;stroke-opacity:1"
       d="M -81.847876,195.00752 L -78.140142,194.56088 V 201.76925 L -76.805357,201.21921 V 206.02711 L -75.025644,205.29371 V 214.54215 L -80.068164,215.71902 V 207.73205 L -81.996187,208.16613 Z"
       id="path7704"
       sodipodi:nodetypes="ccccccccccc" />
    <path
       style="fill:#000000;fill-opacity:1;stroke:#000000;stroke-width:0.870953px;stroke-linecap:butt;stroke-linejoin:miter;stroke-opacity:1"
       d="M -68.464522,191.3322 L -64.756792,189.84898 V 197.05735 L -63.422002,196.13414 V 200.94204 L -61.642282,199.71108 V 208.95952 L -66.68481,211.54614 V 203.55917 L -68.612833,204.53227 Z"
       id="path7786"
       sodipodi:nodetypes="ccccccccccc" />
    <path
       style="fill:#000000;fill-opacity:1;stroke:#000000;stroke-width:0.803773px;stroke-linecap:butt;stroke-linejoin:miter;stroke-opacity:1"
       d="M -57.975562,186.08864 L -54.831312,183.55224 V 190.79169 L -53.699382,189.48765 V 194.31628 L -52.190132,192.57755 V 201.86586 L -56.466322,205.88726 V 197.86586 L -58.101332,199.38749 Z"
       id="path7788"
       sodipodi:nodetypes="ccccccccccc" />
    <path
       style="fill:#000000;fill-opacity:1;stroke:#000000;stroke-width:0.680143px;stroke-linecap:butt;stroke-linejoin:miter;stroke-opacity:1"
       d="M -49.476462,178.68572 L -47.245532,174.26239 V 181.5682 L -46.442392,179.58127 V 184.45417 L -45.371532,181.80492 V 191.17838 L -48.405612,197.77127 V 189.67633 L -49.565702,192.18102 Z"
       id="path7790"
       sodipodi:nodetypes="ccccccccccc" />
    <path
       style="fill:#e6e6e6;stroke:#000000;stroke-width:1px;stroke-linecap:butt;stroke-linejoin:miter;stroke-opacity:1"
       d="M -82.423085,188.79676 L -72.192795,225.88156 C -70.757395,231.08489 -57.489222,226.29379 -60.683722,220.44672 C -66.65139,209.52375 -78.586726,187.67782 -78.586726,187.67782"
       id="path4914"
       sodipodi:nodetypes="cssc" />
    <path
       style="fill:#e6e6e6;stroke:#000000;stroke-width:1px;stroke-linecap:butt;stroke-linejoin:miter;stroke-opacity:1"
       d="M -72.465013,184.47155 L -56.642622,219.53711 C -54.422602,224.45711 -42.051142,217.67879 -46.108442,212.39378 L -68.846884,182.77484"
       id="path5848"
       sodipodi:nodetypes="cssc"
       inkscape:transform-center-x="-13.056169"
       inkscape:transform-center-y="16.232526" />
    <path
       style="fill:#e6e6e6;stroke:#000000;stroke-width:1px;stroke-linecap:butt;stroke-linejoin:miter;stroke-opacity:1"
       d="M -63.333972,179.62284 L -41.118032,211.02974 C -38.000942,215.4364 -27.148262,206.4243 -32.138522,202.00952 L -60.105572,177.26761"
       id="path5952"
       sodipodi:nodetypes="cssc"
       inkscape:transform-center-x="-15.434255"
       inkscape:transform-center-y="14.084395" />
    <path
       style="fill:#e6e6e6;stroke:#000000;stroke-width:1px;stroke-linecap:butt;stroke-linejoin:miter;stroke-opacity:1"
       d="M -53.907062,172.06683 L -27.270182,199.82323 C -23.532792,203.71769 -14.140002,193.19276 -19.730972,189.56865 L -51.064552,169.25795"
       id="path5954"
       sodipodi:nodetypes="cssc"
       inkscape:transform-center-x="-17.022871"
       inkscape:transform-center-y="12.06845" />
    <path
       style="fill:#e6e6e6;stroke:#000000;stroke-width:1px;stroke-linecap:butt;stroke-linejoin:miter;stroke-opacity:1"
       d="M -96.549009,188.79676 L -106.7793,225.88156 C -108.2147,231.08489 -121.48287,226.29379 -118.28837,220.44672 L -100.38537,187.67782"
       id="path5956"
       sodipodi:nodetypes="cssc" />
    <path
       style="fill:#e6e6e6;stroke:#000000;stroke-width:1px;stroke-linecap:butt;stroke-linejoin:miter;stroke-opacity:1"
       d="M -105.6892,185.68012 L -122.39152,220.33519 C -124.735,225.1976 -136.93146,218.10922 -132.74207,212.92828 L -109.26336,183.89264"
       id="path6095"
       sodipodi:nodetypes="cssc"
       inkscape:transform-center-x="13.696491"
       inkscape:transform-center-y="15.906388" />
    <path
       style="fill:#e6e6e6;stroke:#000000;stroke-width:1px;stroke-linecap:butt;stroke-linejoin:miter;stroke-opacity:1"
       d="M -113.43738,181.03815 L -138.25046,210.43632 C -141.73195,214.56114 -151.77666,204.65646 -146.42813,200.68327 L -116.4532,178.41621"
       id="path6097"
       sodipodi:nodetypes="cssc"
       inkscape:transform-center-x="16.654522"
       inkscape:transform-center-y="12.829746" />
    <path
       style="fill:none;stroke:#000000;stroke-width:1px;stroke-linecap:butt;stroke-linejoin:miter;stroke-opacity:1"
       d="M -77.302846,196.87817 L -104.74442,133.72737 L -65.939563,191.49144"
       id="path947" />
    <path
       style="fill:none;stroke:#000000;stroke-width:1px;stroke-linecap:butt;stroke-linejoin:miter;stroke-opacity:1"
       d="M -56.434432,184.78193 L -104.74442,133.72737 L -47.208852,174.99724"
       id="path949" />
    <path
       style="fill:none;stroke:#000000;stroke-width:1px;stroke-linecap:butt;stroke-linejoin:miter;stroke-opacity:1"
       d="M -121.293,186.45931 L -72.369507,133.90151 L -111.5083,191.21188"
       id="path951" />
    <path
       style="fill:none;stroke:#000000;stroke-width:1px;stroke-linecap:butt;stroke-linejoin:miter;stroke-opacity:1"
       d="M -72.369507,133.90151 L -100.88491,195.68488"
       id="path953" />
    <text
       xml:space="preserve"
       style="font-size:16px;line-height:400px;font-family:'Libertinus Sans';-inkscape-font-specification:'Libertinus Sans';letter-spacing:0px;word-spacing:0px"
       x="-120.45912"
       y="244.32747"
       id="text12645"><tspan
         sodipodi:role="line"
         id="tspan12643"
         x="-120.45912"
         y="244.32747">H</tspan></text>
    <text
       xml:space="preserve"
       style="font-size:16px;line-height:400px;font-family:'Libertinus Sans';-inkscape-font-specification:'Libertinus Sans';letter-spacing:0px;word-spacing:0px"
       x="-140.34625"
       y="236.94081"
       id="text14309"><tspan
         sodipodi:role="line"
         id="tspan14307"
         x="-140.34625"
         y="236.94081">C</tspan></text>
    <text
       xml:space="preserve"
       style="font-size:16px;line-height:400px;font-family:'Libertinus Sans';-inkscape-font-specification:'Libertinus Sans';letter-spacing:0px;word-spacing:0px"
       x="-159.09695"
       y="223.87215"
       id="text16975"><tspan
         sodipodi:role="line"
         id="tspan16973"
         x="-159.09695"
         y="223.87215">D</tspan></text>
    <text
       xml:space="preserve"
       style="font-size:16px;line-height:400px;font-family:'Libertinus Sans';-inkscape-font-specification:'Libertinus Sans';letter-spacing:0px;word-spacing:0px"
       x="-69.320816"
       y="242.62285"
       id="text18209"><tspan
         sodipodi:role="line"
         id="tspan18207"
         x="-69.320816"
         y="242.62285">E</tspan></text>
    <text
       xml:space="preserve"
       style="font-size:16px;line-height:400px;font-family:'Libertinus Sans';-inkscape-font-specification:'Libertinus Sans';letter-spacing:0px;word-spacing:0px"
       x="-48.865494"
       y="235.80441"
       id="text18725"><tspan
         sodipodi:role="line"
         id="tspan18723"
         x="-48.865494"
         y="235.80441">F</tspan></text>
    <text
       xml:space="preserve"
       style="font-size:16px;line-height:400px;font-family:'Libertinus Sans';-inkscape-font-specification:'Libertinus Sans';letter-spacing:0px;word-spacing:0px"
       x="-35.228611"
       y="227.28136"
       id="text18897"><tspan
         sodipodi:role="line"
         id="tspan18895"
         x="-35.228611"
         y="227.28136">G</tspan></text>
    <text
       xml:space="preserve"
       style="font-size:16px;line-height:400px;font-family:'Libertinus Sans';-inkscape-font-specification:'Libertinus Sans';letter-spacing:0px;word-spacing:0px"
       x="-18.750713"
       y="210.80347"
       id="text19633"><tspan
         sodipodi:role="line"
         id="tspan19631"
         x="-18.750713"
         y="210.80347">A</tspan></text>
    <path
       style="fill:none;stroke:#000000;stroke-width:1px;stroke-linecap:butt;stroke-linejoin:miter;stroke-opacity:1"
       d="M -147.57072,44.15334 H -107.57072 V 78.15334 H -87.570723 V 100.15334 H -51.733379 V 80.607418 H -68.024801 V 62.315996 H -86.943473 V 44.15334 H -37.570723"
       id="path20100"
       sodipodi:nodetypes="cccccccccccc" />
    <path
       style="fill:none;stroke:#000000;stroke-width:1px;stroke-linecap:butt;stroke-linejoin:miter;stroke-opacity:1"
       d="M -147.57072,106.15334 H -37.570723"
       id="path20352" />
    <rect
       style="opacity:1;fill:none;fill-opacity:1;fill-rule:evenodd;stroke:#000000;stroke-width:1;stroke-linecap:round;stroke-linejoin:round;stroke-miterlimit:4;stroke-dasharray:none;stop-color:#000000"
       id="rect20515"
       width="13"
       height="15.858318"
       x="-104.1452"
       y="45.868778" />
    <rect
       style="opacity:1;fill:none;fill-opacity:1;fill-rule:evenodd;stroke:#000000;stroke-width:1;stroke-linecap:round;stroke-linejoin:round;stroke-miterlimit:4;stroke-dasharray:none;stop-color:#000000"
       id="rect20693"
       width="13.009453"
       height="15.573761"
       x="-84.23291"
       y="66.153343" />
    <rect
       style="opacity:1;fill:none;fill-opacity:1;fill-rule:evenodd;stroke:#000000;stroke-width:1;stroke-linecap:round;stroke-linejoin:round;stroke-miterlimit:4;stroke-dasharray:none;stop-color:#000000"
       id="rect20775"
       width="11.667757"
       height="14.025172"
       x="-66.58313"
       y="83.86644" />
    <text
       xml:space="preserve"
       style="font-size:13.3333px;line-height:333.334px;font-family:'Libertinus Sans';-inkscape-font-specification:'Libertinus Sans';letter-spacing:0px;word-spacing:0px"
       x="-101.0241"
       y="58.768627"
       id="text23295"><tspan
         sodipodi:role="line"
         id="tspan23293"
         x="-101.0241"
         y="58.768627">♭</tspan></text>
    <text
       xml:space="preserve"
       style="font-size:13.3333px;line-height:333.334px;font-family:'Libertinus Sans';-inkscape-font-specification:'Libertinus Sans';letter-spacing:0px;word-spacing:0px"
       x="-80.661125"
       y="78.699326"
       id="text26261"><tspan
         sodipodi:role="line"
         id="tspan26259"
         x="-80.661125"
         y="78.699326">♮</tspan></text>
    <text
       xml:space="preserve"
       style="font-size:13.3333px;line-height:333.334px;font-family:'Libertinus Sans';-inkscape-font-specification:'Libertinus Sans';letter-spacing:0px;word-spacing:0px"
       x="-64.082603"
       y="95.024971"
       id="text32887"><tspan
         sodipodi:role="line"
         id="tspan32885"
         x="-64.082603"
         y="95.024971">♯</tspan></text>
    <text
       xml:space="preserve"
       style="font-size:13.3333px;line-height:333.333px;font-family:'Libertinus Sans';-inkscape-font-specification:'Libertinus Sans';letter-spacing:0px;word-spacing:0px"
       x="-188.21118"
       y="94.553642"
       id="text43271"><tspan
         sodipodi:role="line"
         id="tspan43269"
         x="-188.21118"
         y="94.553642">Pedalstellungen</tspan></text>
    <text
       xml:space="preserve"
       style="font-size:13.3333px;line-height:333.333px;font-family:'Libertinus Sans';-inkscape-font-specification:'Libertinus Sans';letter-spacing:0px;word-spacing:0px"
       x="-187.95503"
       y="200.79355"
       id="text44659"><tspan
         sodipodi:role="line"
         id="tspan44657"
         x="-187.95503"
         y="200.79355">Pedale</tspan></text>
    <text
       xml:space="preserve"
       style="font-size:13.3333px;line-height:333.333px;font-family:'Libertinus Sans';-inkscape-font-specification:'Libertinus Sans';letter-spacing:0px;word-spacing:0px"
       x="-189.34283"
       y="143.61476"
       id="text48915"><tspan
         sodipodi:role="line"
         id="tspan48913"
         x="-189.34283"
         y="143.61476">Pedalkasten</tspan></text>
  </g>
</svg>
