<?xml version="1.0" encoding="UTF-8" standalone="no"?>
<svg
   width="225.52548"
   height="189.5997"
   viewBox="0 0 225.52548 189.5997"
   version="1.2"
   id="svg3807"
   sodipodi:docname="A-Dur_zum_Abziehen.svg"
   inkscape:version="1.1-dev (0486c1a, 2020-10-10)"
   xmlns:inkscape="http://www.inkscape.org/namespaces/inkscape"
   xmlns:sodipodi="http://sodipodi.sourceforge.net/DTD/sodipodi-0.dtd"
   xmlns="http://www.w3.org/2000/svg"
   xmlns:svg="http://www.w3.org/2000/svg"
   xmlns:rdf="http://www.w3.org/1999/02/22-rdf-syntax-ns#"
   xmlns:cc="http://creativecommons.org/ns#"
   xmlns:dc="http://purl.org/dc/elements/1.1/">
  <defs
     id="defs3811">
    <filter
       inkscape:collect="always"
       style="color-interpolation-filters:sRGB"
       id="filter5451"
       x="-0.33894751"
       width="1.677895"
       y="-0.12091325"
       height="1.2418265">
      <feGaussianBlur
         inkscape:collect="always"
         stdDeviation="3.5165804"
         id="feGaussianBlur5453" />
    </filter>
    <filter
       inkscape:collect="always"
       style="color-interpolation-filters:sRGB"
       id="filter5455"
       x="-0.33894751"
       width="1.677895"
       y="-0.12091394"
       height="1.2418279">
      <feGaussianBlur
         inkscape:collect="always"
         stdDeviation="3.5165804"
         id="feGaussianBlur5457" />
    </filter>
    <filter
       inkscape:collect="always"
       style="color-interpolation-filters:sRGB"
       id="filter5459"
       x="-0.33894751"
       width="1.677895"
       y="-0.12091394"
       height="1.2418279">
      <feGaussianBlur
         inkscape:collect="always"
         stdDeviation="3.5165804"
         id="feGaussianBlur5461" />
    </filter>
  </defs>
  <sodipodi:namedview
     pagecolor="#ffffff"
     bordercolor="#666666"
     borderopacity="1"
     objecttolerance="10"
     gridtolerance="10"
     guidetolerance="10"
     inkscape:pageopacity="0"
     inkscape:pageshadow="2"
     inkscape:window-width="1044"
     inkscape:window-height="480"
     id="namedview3809"
     showgrid="false"
     inkscape:zoom="0.44682018"
     inkscape:cx="350.25276"
     inkscape:cy="116.37791"
     inkscape:window-x="133"
     inkscape:window-y="74"
     inkscape:window-maximized="0"
     inkscape:current-layer="svg3807"
     lock-margins="true"
     fit-margin-top="1"
     fit-margin-left="1"
     fit-margin-right="1"
     fit-margin-bottom="1" />
  <title
     id="title3647">Unbenannt</title>
  <desc
     id="desc3649">Generated by MuseScore 3.5.2</desc>
  <g
     id="g4750"
     transform="translate(-13.7547,-60.9293)">
    <path
       id="polyline3701"
       style="stroke:#000000;stroke-width:3.25;stroke-linejoin:bevel"
       d="M 14.7547,208.729 H 238.28018 V 208.729"
       class=""
       sodipodi:nodetypes="ccc" />
    <path
       id="polyline3693"
       style="stroke:#000000;stroke-width:3.25;stroke-linejoin:bevel"
       d="M 14.7547,108.729 H 238.28018 V 108.729"
       class=""
       sodipodi:nodetypes="ccc" />
    <path
       id="polyline3695"
       style="stroke:#000000;stroke-width:3.25;stroke-linejoin:bevel"
       d="M 14.7547,133.729 H 238.28018 V 133.729"
       class=""
       sodipodi:nodetypes="ccc" />
    <path
       id="polyline3697"
       style="stroke:#000000;stroke-width:3.25;stroke-linejoin:bevel"
       d="M 14.7547,158.729 H 238.28018 V 158.729"
       class=""
       sodipodi:nodetypes="ccc" />
    <path
       id="polyline3699"
       style="stroke:#000000;stroke-width:3.25;stroke-linejoin:bevel"
       d="M 14.7547,183.729 H 238.28018 V 183.729"
       class=""
       sodipodi:nodetypes="ccc" />
  </g>
  <path
     class=""
     d="M 68,28.5 C 71.3,28.5 74,31.2 74,36.7 C 74,47.7997 64.5,56.7997 56.6,63.6997 C 56.3,63.8997 56.1,64.0997 55.9,64.0997 C 55.6,64.0997 55.4,63.6997 55.3,62.8997 C 54.9,60.2997 54.7,56.8997 54.7,53.6997 C 54.7,38.1 61.9,28.5 68,28.5 M 64,112.4997 C 63.8,111.3997 63.9,111.0997 64.7,111.0997 C 64.8,111.0997 65,111.0997 65.1,111.0997 C 73.2,111.7997 79.9,118.5997 79.9,127.3997 C 79.9,133.6997 76.1,138.7997 70.5,141.5997 C 70,141.7997 69.7,141.9997 69.5,141.9997 C 69.1,141.9997 69,141.6997 68.9,140.9997 L 64,112.4997 M 57.1,96.5997 C 57.4,98.4997 57.4,98.3997 55.6,98.9997 C 46.8,101.9997 41.1,109.8997 41.1,118.3997 C 41.1,127.3997 45.8,133.7997 52.6,136.0997 C 53.4,136.3997 54.6,136.6997 55.3,136.6997 C 56.1,136.6997 56.5,136.1997 56.5,135.5997 C 56.5,134.8997 55.7,134.5997 55,134.2997 C 50.8,132.4997 47.8,128.1997 47.8,123.5997 C 47.8,117.8997 51.7,113.5997 57.8,111.8997 C 58.3,111.7997 58.7,111.6997 59,111.6997 C 59.5,111.6997 59.7,111.9997 59.8,112.6997 L 64.8,142.4997 C 65,143.5997 64.9,143.5997 63.4,143.8997 C 61.8,144.1997 59.8,144.3997 57.8,144.3997 C 40.3,144.3997 29,134.6997 29,120.7997 C 29,103.7997 41.5,93.1997 53.6,83.3997 C 54,83.0997 54.3,82.8997 54.5,82.8997 C 54.8,82.8997 54.9,83.1997 55,83.7997 L 57.1,96.5997 M 58.6,81.2997 C 58.4,80.0997 58.6,79.9997 59.2,79.3997 C 70,69.2997 78.2,56.5997 78.2,41.2997 C 78.2,32.6 75.8,24 71.7,18 C 70.2,15.8 67.6,13 66.5,13 C 65.1,13 62,15.6 60,17.8 C 52.6,26 50.2,38.5 50.2,48.8997 C 50.2,54.6997 50.9,61.1997 51.6,65.2997 C 51.8,66.4997 51.9,66.6997 50.7,67.6997 C 36.3,79.5997 21,93.8997 21,114.0997 C 21,131.4997 32.9,147.9997 57.4,147.9997 C 59.7,147.9997 62.3,147.7997 64.3,147.3997 C 64.7,147.2997 64.9,147.2997 65.1,147.2997 C 65.5,147.2997 65.7,147.4997 65.8,148.2997 C 67,154.9997 68.5,163.6997 68.5,168.3997 C 68.5,183.1997 58.5,184.9997 52.6,184.9997 C 47.2,184.9997 44.6,183.3997 44.6,182.0997 C 44.6,181.3997 45.5,181.0997 47.8,180.3997 C 50.9,179.4997 54.5,176.7997 54.5,170.9997 C 54.5,165.4997 51,160.7997 44.9,160.7997 C 38.2,160.7997 34.2,166.0997 34.2,172.2997 C 34.2,178.7997 38.1,188.5997 53.2,188.5997 C 59.9,188.5997 72.9,185.5997 72.9,168.5997 C 72.9,162.8997 71.1,153.3997 70,147.1997 C 69.8,145.9997 69.9,146.0997 71.3,145.4997 C 81.4,141.4997 88.1003,132.9997 88.1003,121.6997 C 88.1003,108.8997 78.7,97.5997 64,97.5997 C 61.4,97.5997 61.4,97.5997 61.1,95.7997 L 58.6,81.2997"
     id="path3775" />
  <path
     class=""
     d="M 163.8941,56.9004 C 163.9941,56.9004 164.1941,56.8004 164.2941,56.8004 C 164.2941,56.8004 165.6941,56.2004 166.5941,55.9004 C 166.6941,55.8004 166.7941,55.8004 166.8941,55.8004 C 167.5941,55.8004 168.0941,56.9004 168.0941,57.4004 V 69.7004 C 168.0941,70.3004 168.6941,70.8004 169.3941,70.8004 C 170.3941,70.8004 171.0941,70.3004 171.0941,69.7004 V 55.8004 C 171.0941,54.5004 171.5941,53.8004 172.0941,53.6004 L 178.1941,51.1004 C 178.2941,51.1004 178.4941,51.0004 178.5941,51.0004 C 179.3941,51.0004 179.8941,52.2004 179.8941,52.8004 V 65.3004 C 179.8941,65.9004 180.4941,66.4004 181.1941,66.4004 C 182.2941,66.4004 182.8941,65.9004 182.8941,65.3004 V 51.1004 C 182.8941,50.3004 183.2941,49.1004 183.9941,48.8004 C 184.6941,48.5004 186.7941,47.7004 186.7941,47.7004 C 187.4941,47.4004 187.9941,46.6004 187.9941,46.0004 V 38.9004 C 187.9941,38.4004 187.6941,38.1004 187.2941,38.1004 C 187.0941,38.1004 186.9941,38.1004 186.7941,38.2004 L 184.1941,39.2004 C 183.5941,39.2004 182.8941,38.6004 182.8941,37.4004 V 28.1004 C 182.8941,27.4004 183.3941,25.5004 184.1941,25.2004 L 186.7941,24.2004 C 187.4941,23.9004 187.9941,23.1004 187.9941,22.5004 V 15.4004 C 187.9941,14.9004 187.6941,14.6004 187.2941,14.6004 C 187.0941,14.6004 186.9941,14.6004 186.7941,14.7004 C 186.7941,14.7004 184.7941,15.5004 184.2941,15.6004 C 183.5941,15.6004 182.8941,15.1004 182.8941,14.3004 V 2.1004 C 182.8941,1.5 182.2941,1 181.4941,1 C 180.4941,1 179.8941,1.5 179.8941,2.1004 V 15.1004 C 179.7941,16.1004 179.4941,17.4004 178.5941,18.0004 C 177.3941,18.7004 173.9941,20.1004 172.2941,20.5004 C 171.3941,20.5004 171.0941,19.3004 171.0941,18.5004 V 6.5004 C 171.0941,5.9004 170.3941,5.4004 169.6941,5.4004 C 168.6941,5.4004 168.0941,5.9004 168.0941,6.5004 V 20.0004 C 168.0941,21.4004 167.4941,22.4004 166.8941,22.7004 C 166.2941,23.0004 164.2941,23.8004 164.2941,23.8004 C 163.5941,24.0004 163.0941,24.8004 163.0941,25.4004 V 32.5004 C 163.0941,33.1004 163.3941,33.4004 163.8941,33.4004 C 164.2941,33.4004 166.1941,32.5004 166.4941,32.3004 C 167.4941,32.3004 168.0941,32.8004 168.0941,34.0004 V 43.9004 C 168.0941,45.0004 167.5941,45.9004 166.9941,46.2004 C 166.3941,46.4004 164.2941,47.3004 164.2941,47.3004 C 163.5941,47.5004 163.0941,48.3004 163.0941,48.9004 V 56.0004 C 163.0941,56.6004 163.3941,56.9004 163.8941,56.9004 M 171.0941,31.6004 C 171.2941,29.9004 175.8941,27.8004 178.3941,27.8004 C 179.0941,27.8004 179.6941,28.0004 179.8941,28.4004 C 180.0941,28.9004 180.2941,31.4004 180.2941,34.1004 C 180.2941,36.8004 180.0941,39.6004 179.8941,40.5004 C 179.2941,42.5004 174.5941,44.5004 172.2941,44.5004 C 171.6941,44.5004 171.1941,44.3004 171.0941,44.0004 C 170.8941,43.6004 170.7941,41.4004 170.7941,39.0004 C 170.7941,35.9004 170.8941,32.4004 171.0941,31.6004"
     id="path4389"
     style="fill:#0000ff;filter:url(#filter5451);fill-opacity:0.51236749" />
  <path
     class=""
     d="M 138.8941,106.9004 C 138.9941,106.9004 139.1941,106.8004 139.2941,106.8004 C 139.2941,106.8004 140.6941,106.2004 141.5941,105.9004 C 141.6941,105.8004 141.7941,105.8004 141.8941,105.8004 C 142.5941,105.8004 143.0941,106.9004 143.0941,107.4004 V 119.7004 C 143.0941,120.3004 143.6941,120.8004 144.3941,120.8004 C 145.3941,120.8004 146.0941,120.3004 146.0941,119.7004 V 105.8004 C 146.0941,104.5004 146.5941,103.8004 147.0941,103.6004 L 153.1941,101.1004 C 153.2941,101.1004 153.4941,101.0004 153.5941,101.0004 C 154.3941,101.0004 154.8941,102.2004 154.8941,102.8004 V 115.3004 C 154.8941,115.9004 155.4941,116.4004 156.1941,116.4004 C 157.2941,116.4004 157.8941,115.9004 157.8941,115.3004 V 101.1004 C 157.8941,100.3004 158.2941,99.1004 158.9941,98.8004 C 159.6941,98.5004 161.7941,97.7004 161.7941,97.7004 C 162.4941,97.4004 162.9941,96.6004 162.9941,96.0004 V 88.9004 C 162.9941,88.4004 162.6941,88.1004 162.2941,88.1004 C 162.0941,88.1004 161.9941,88.1004 161.7941,88.2004 L 159.1941,89.2004 C 158.5941,89.2004 157.8941,88.6004 157.8941,87.4004 V 78.1004 C 157.8941,77.4004 158.3941,75.5004 159.1941,75.2004 L 161.7941,74.2004 C 162.4941,73.9004 162.9941,73.1004 162.9941,72.5004 V 65.4004 C 162.9941,64.9004 162.6941,64.6004 162.2941,64.6004 C 162.0941,64.6004 161.9941,64.6004 161.7941,64.7004 C 161.7941,64.7004 159.7941,65.5004 159.2941,65.6004 C 158.5941,65.6004 157.8941,65.1004 157.8941,64.3004 V 52.1004 C 157.8941,51.5004 157.2941,51.0004 156.4941,51.0004 C 155.4941,51.0004 154.8941,51.5004 154.8941,52.1004 V 65.1004 C 154.7941,66.1004 154.4941,67.4004 153.5941,68.0004 C 152.3941,68.7004 148.9941,70.1004 147.2941,70.5004 C 146.3941,70.5004 146.0941,69.3004 146.0941,68.5004 V 56.5004 C 146.0941,55.9004 145.3941,55.4004 144.6941,55.4004 C 143.6941,55.4004 143.0941,55.9004 143.0941,56.5004 V 70.0004 C 143.0941,71.4004 142.4941,72.4004 141.8941,72.7004 C 141.2941,73.0004 139.2941,73.8004 139.2941,73.8004 C 138.5941,74.0004 138.0941,74.8004 138.0941,75.4004 V 82.5004 C 138.0941,83.1004 138.3941,83.4004 138.8941,83.4004 C 139.2941,83.4004 141.1941,82.5004 141.4941,82.3004 C 142.4941,82.3004 143.0941,82.8004 143.0941,84.0004 V 93.9004 C 143.0941,95.0004 142.5941,95.9004 141.9941,96.2004 C 141.3941,96.4004 139.2941,97.3004 139.2941,97.3004 C 138.5941,97.5004 138.0941,98.3004 138.0941,98.9004 V 106.0004 C 138.0941,106.6004 138.3941,106.9004 138.8941,106.9004 M 146.0941,81.6004 C 146.2941,79.9004 150.8941,77.8004 153.3941,77.8004 C 154.0941,77.8004 154.6941,78.0004 154.8941,78.4004 C 155.0941,78.9004 155.2941,81.4004 155.2941,84.1004 C 155.2941,86.8004 155.0941,89.6004 154.8941,90.5004 C 154.2941,92.5004 149.5941,94.5004 147.2941,94.5004 C 146.6941,94.5004 146.1941,94.3004 146.0941,94.0004 C 145.8941,93.6004 145.7941,91.4004 145.7941,89.0004 C 145.7941,85.9004 145.8941,82.4004 146.0941,81.6004"
     id="path4391"
     style="fill:#0000ff;filter:url(#filter5455);fill-opacity:0.51236749" />
  <path
     class=""
     d="M 113.8941,69.4004 C 113.9941,69.4004 114.1941,69.3004 114.2941,69.3004 C 114.2941,69.3004 115.6941,68.7004 116.5941,68.4004 C 116.6941,68.3004 116.7941,68.3004 116.8941,68.3004 C 117.5941,68.3004 118.0941,69.4004 118.0941,69.9004 V 82.2004 C 118.0941,82.8004 118.6941,83.3004 119.3941,83.3004 C 120.3941,83.3004 121.0941,82.8004 121.0941,82.2004 V 68.3004 C 121.0941,67.0004 121.5941,66.3004 122.0941,66.1004 L 128.1941,63.6004 C 128.2941,63.6004 128.4941,63.5004 128.5941,63.5004 C 129.3941,63.5004 129.8941,64.7004 129.8941,65.3004 V 77.8004 C 129.8941,78.4004 130.4941,78.9004 131.1941,78.9004 C 132.2941,78.9004 132.8941,78.4004 132.8941,77.8004 V 63.6004 C 132.8941,62.8004 133.2941,61.6004 133.9941,61.3004 C 134.6941,61.0004 136.7941,60.2004 136.7941,60.2004 C 137.4941,59.9004 137.9941,59.1004 137.9941,58.5004 V 51.4004 C 137.9941,50.9004 137.6941,50.6004 137.2941,50.6004 C 137.0941,50.6004 136.9941,50.6004 136.7941,50.7004 L 134.1941,51.7004 C 133.5941,51.7004 132.8941,51.1004 132.8941,49.9004 V 40.6004 C 132.8941,39.9004 133.3941,38.0004 134.1941,37.7004 L 136.7941,36.7004 C 137.4941,36.4004 137.9941,35.6004 137.9941,35.0004 V 27.9004 C 137.9941,27.4004 137.6941,27.1004 137.2941,27.1004 C 137.0941,27.1004 136.9941,27.1004 136.7941,27.2004 C 136.7941,27.2004 134.7941,28.0004 134.2941,28.1004 C 133.5941,28.1004 132.8941,27.6004 132.8941,26.8004 V 14.6004 C 132.8941,14.0004 132.2941,13.5004 131.4941,13.5004 C 130.4941,13.5004 129.8941,14.0004 129.8941,14.6004 V 27.6004 C 129.7941,28.6004 129.4941,29.9004 128.5941,30.5004 C 127.3941,31.2004 123.9941,32.6004 122.2941,33.0004 C 121.3941,33.0004 121.0941,31.8004 121.0941,31.0004 V 19.0004 C 121.0941,18.4004 120.3941,17.9004 119.6941,17.9004 C 118.6941,17.9004 118.0941,18.4004 118.0941,19.0004 V 32.5004 C 118.0941,33.9004 117.4941,34.9004 116.8941,35.2004 C 116.2941,35.5004 114.2941,36.3004 114.2941,36.3004 C 113.5941,36.5004 113.0941,37.3004 113.0941,37.9004 V 45.0004 C 113.0941,45.6004 113.3941,45.9004 113.8941,45.9004 C 114.2941,45.9004 116.1941,45.0004 116.4941,44.8004 C 117.4941,44.8004 118.0941,45.3004 118.0941,46.5004 V 56.4004 C 118.0941,57.5004 117.5941,58.4004 116.9941,58.7004 C 116.3941,58.9004 114.2941,59.8004 114.2941,59.8004 C 113.5941,60.0004 113.0941,60.8004 113.0941,61.4004 V 68.5004 C 113.0941,69.1004 113.3941,69.4004 113.8941,69.4004 M 121.0941,44.1004 C 121.2941,42.4004 125.8941,40.3004 128.3941,40.3004 C 129.0941,40.3004 129.6941,40.5004 129.8941,40.9004 C 130.0941,41.4004 130.2941,43.9004 130.2941,46.6004 C 130.2941,49.3004 130.0941,52.1004 129.8941,53.0004 C 129.2941,55.0004 124.5941,57.0004 122.2941,57.0004 C 121.6941,57.0004 121.1941,56.8004 121.0941,56.5004 C 120.8941,56.1004 120.7941,53.9004 120.7941,51.5004 C 120.7941,48.4004 120.8941,44.9004 121.0941,44.1004"
     id="path4393"
     style="fill:#0000ff;filter:url(#filter5459);fill-opacity:0.51236749" />
  <metadata
     id="metadata5236">
    <rdf:RDF>
      <cc:Work
         rdf:about="">
        <dc:title>Unbenannt</dc:title>
      </cc:Work>
    </rdf:RDF>
  </metadata>
</svg>
