<?xml version="1.0" encoding="UTF-8" standalone="no"?>
<svg
   width="252.99112"
   height="190.3004"
   viewBox="0 0 252.99112 190.3004"
   version="1.2"
   id="svg332"
   sodipodi:docname="A-Dur.svg"
   inkscape:version="1.1-dev (0486c1a, 2020-10-10)"
   xmlns:inkscape="http://www.inkscape.org/namespaces/inkscape"
   xmlns:sodipodi="http://sodipodi.sourceforge.net/DTD/sodipodi-0.dtd"
   xmlns="http://www.w3.org/2000/svg"
   xmlns:svg="http://www.w3.org/2000/svg"
   xmlns:rdf="http://www.w3.org/1999/02/22-rdf-syntax-ns#"
   xmlns:cc="http://creativecommons.org/ns#"
   xmlns:dc="http://purl.org/dc/elements/1.1/">
  <defs
     id="defs336" />
  <sodipodi:namedview
     pagecolor="#ffffff"
     bordercolor="#666666"
     borderopacity="1"
     objecttolerance="10"
     gridtolerance="10"
     guidetolerance="10"
     inkscape:pageopacity="0"
     inkscape:pageshadow="2"
     inkscape:window-width="833"
     inkscape:window-height="480"
     id="namedview334"
     showgrid="false"
     inkscape:zoom="0.41616141"
     inkscape:cx="144.17483"
     inkscape:cy="372.45164"
     inkscape:window-x="197"
     inkscape:window-y="271"
     inkscape:window-maximized="0"
     inkscape:current-layer="svg332"
     lock-margins="true"
     fit-margin-top="1"
     fit-margin-left="1"
     fit-margin-right="1"
     fit-margin-bottom="1" />
  <title
     id="title200">Unbenannt</title>
  <desc
     id="desc202">Generated by MuseScore 3.5.2</desc>
  <path
     id="polyline242"
     style="stroke:#000000;stroke-width:3.25;stroke-linejoin:bevel"
     d="M 1,48.5004 H 251.99112"
     class=""
     sodipodi:nodetypes="cc" />
  <path
     id="polyline244"
     style="stroke:#000000;stroke-width:3.25;stroke-linejoin:bevel"
     d="M 1,73.5004 H 251.99112"
     class=""
     sodipodi:nodetypes="cc" />
  <path
     id="polyline246"
     style="stroke:#000000;stroke-width:3.25;stroke-linejoin:bevel"
     d="M 1,98.5004 H 251.99112"
     class=""
     sodipodi:nodetypes="cc" />
  <path
     id="polyline248"
     style="stroke:#000000;stroke-width:3.25;stroke-linejoin:bevel"
     d="M 1,123.5004 H 251.99112"
     class=""
     sodipodi:nodetypes="cc" />
  <path
     id="polyline250"
     style="stroke:#000000;stroke-width:3.25;stroke-linejoin:bevel"
     d="M 1,148.5004 H 251.99112"
     class=""
     sodipodi:nodetypes="cc" />
  <path
     class=""
     d="M 68,29.2004 C 71.3,29.2004 74,31.9004 74,37.4004 C 74,48.5004 64.5,57.5004 56.6,64.4004 C 56.3,64.6004 56.1,64.8004 55.9,64.8004 C 55.6,64.8004 55.4,64.4004 55.3,63.6004 C 54.9,61.0004 54.7,57.6004 54.7,54.4004 C 54.7,38.8004 61.9,29.2004 68,29.2004 M 64,113.2004 C 63.8,112.1004 63.9,111.8004 64.7,111.8004 C 64.8,111.8004 65,111.8004 65.1,111.8004 C 73.2,112.5004 79.9,119.3004 79.9,128.1004 C 79.9,134.4004 76.1,139.5004 70.5,142.3004 C 70,142.5004 69.7,142.7004 69.5,142.7004 C 69.1,142.7004 69,142.4004 68.9,141.7004 L 64,113.2004 M 57.1,97.3004 C 57.4,99.2004 57.4,99.1004 55.6,99.7004 C 46.8,102.7004 41.1,110.6004 41.1,119.1004 C 41.1,128.1004 45.8,134.5004 52.6,136.8004 C 53.4,137.1004 54.6,137.4004 55.3,137.4004 C 56.1,137.4004 56.5,136.9004 56.5,136.3004 C 56.5,135.6004 55.7,135.3004 55,135.0004 C 50.8,133.2004 47.8,128.9004 47.8,124.3004 C 47.8,118.6004 51.7,114.3004 57.8,112.6004 C 58.3,112.5004 58.7,112.4004 59,112.4004 C 59.5,112.4004 59.7,112.7004 59.8,113.4004 L 64.8,143.2004 C 65,144.3004 64.9,144.3004 63.4,144.6004 C 61.8,144.9004 59.8,145.1004 57.8,145.1004 C 40.3,145.1004 29,135.4004 29,121.5004 C 29,104.5004 41.5,93.9004 53.6,84.1004 C 54,83.8004 54.3,83.6004 54.5,83.6004 C 54.8,83.6004 54.9,83.9004 55,84.5004 L 57.1,97.3004 M 58.6,82.0004 C 58.4,80.8004 58.6,80.7004 59.2,80.1004 C 70,70.0004 78.2,57.3004 78.2,42.0004 C 78.2,33.3004 75.8,24.7004 71.7,18.7004 C 70.2,16.5004 67.6,13.7004 66.5,13.7004 C 65.1,13.7004 62,16.3004 60,18.5004 C 52.6,26.7004 50.2,39.2004 50.2,49.6004 C 50.2,55.4004 50.9,61.9004 51.6,66.0004 C 51.8,67.2004 51.9,67.4004 50.7,68.4004 C 36.3,80.3004 21,94.6004 21,114.8004 C 21,132.2004 32.9,148.7004 57.4,148.7004 C 59.7,148.7004 62.3,148.5004 64.3,148.1004 C 64.7,148.0004 64.9,148.0004 65.1,148.0004 C 65.5,148.0004 65.7,148.2004 65.8,149.0004 C 67,155.7004 68.5,164.4004 68.5,169.1004 C 68.5,183.9004 58.5,185.7004 52.6,185.7004 C 47.2,185.7004 44.6,184.1004 44.6,182.8004 C 44.6,182.1004 45.5,181.8004 47.8,181.1004 C 50.9,180.2004 54.5,177.5004 54.5,171.7004 C 54.5,166.2004 51,161.5004 44.9,161.5004 C 38.2,161.5004 34.2,166.8004 34.2,173.0004 C 34.2,179.5004 38.1,189.3004 53.2,189.3004 C 59.9,189.3004 72.9,186.3004 72.9,169.3004 C 72.9,163.6004 71.1,154.1004 70,147.9004 C 69.8,146.7004 69.9,146.8004 71.3,146.2004 C 81.4001,142.2004 88.1001,133.7004 88.1001,122.4004 C 88.1001,109.6004 78.7,98.3004 64,98.3004 C 61.4,98.3004 61.4,98.3004 61.1,96.5004 L 58.6,82.0004"
     id="path310" />
  <path
     class=""
     d="M 163.8941,56.9004 C 163.9941,56.9004 164.1941,56.8004 164.2941,56.8004 C 164.2941,56.8004 165.6941,56.2004 166.5941,55.9004 C 166.6941,55.8004 166.7941,55.8004 166.8941,55.8004 C 167.5941,55.8004 168.0941,56.9004 168.0941,57.4004 V 69.7004 C 168.0941,70.3004 168.6941,70.8004 169.3941,70.8004 C 170.3941,70.8004 171.0941,70.3004 171.0941,69.7004 V 55.8004 C 171.0941,54.5004 171.5941,53.8004 172.0941,53.6004 L 178.1941,51.1004 C 178.2941,51.1004 178.4941,51.0004 178.5941,51.0004 C 179.3941,51.0004 179.8941,52.2004 179.8941,52.8004 V 65.3004 C 179.8941,65.9004 180.4941,66.4004 181.1941,66.4004 C 182.2941,66.4004 182.8941,65.9004 182.8941,65.3004 V 51.1004 C 182.8941,50.3004 183.2941,49.1004 183.9941,48.8004 C 184.6941,48.5004 186.7941,47.7004 186.7941,47.7004 C 187.4941,47.4004 187.9941,46.6004 187.9941,46.0004 V 38.9004 C 187.9941,38.4004 187.6941,38.1004 187.2941,38.1004 C 187.0941,38.1004 186.9941,38.1004 186.7941,38.2004 L 184.1941,39.2004 C 183.5941,39.2004 182.8941,38.6004 182.8941,37.4004 V 28.1004 C 182.8941,27.4004 183.3941,25.5004 184.1941,25.2004 L 186.7941,24.2004 C 187.4941,23.9004 187.9941,23.1004 187.9941,22.5004 V 15.4004 C 187.9941,14.9004 187.6941,14.6004 187.2941,14.6004 C 187.0941,14.6004 186.9941,14.6004 186.7941,14.7004 C 186.7941,14.7004 184.7941,15.5004 184.2941,15.6004 C 183.5941,15.6004 182.8941,15.1004 182.8941,14.3004 V 2.1004 C 182.8941,1.5 182.2941,1 181.4941,1 C 180.4941,1 179.8941,1.5 179.8941,2.1004 V 15.1004 C 179.7941,16.1004 179.4941,17.4004 178.5941,18.0004 C 177.3941,18.7004 173.9941,20.1004 172.2941,20.5004 C 171.3941,20.5004 171.0941,19.3004 171.0941,18.5004 V 6.5004 C 171.0941,5.9004 170.3941,5.4004 169.6941,5.4004 C 168.6941,5.4004 168.0941,5.9004 168.0941,6.5004 V 20.0004 C 168.0941,21.4004 167.4941,22.4004 166.8941,22.7004 C 166.2941,23.0004 164.2941,23.8004 164.2941,23.8004 C 163.5941,24.0004 163.0941,24.8004 163.0941,25.4004 V 32.5004 C 163.0941,33.1004 163.3941,33.4004 163.8941,33.4004 C 164.2941,33.4004 166.1941,32.5004 166.4941,32.3004 C 167.4941,32.3004 168.0941,32.8004 168.0941,34.0004 V 43.9004 C 168.0941,45.0004 167.5941,45.9004 166.9941,46.2004 C 166.3941,46.4004 164.2941,47.3004 164.2941,47.3004 C 163.5941,47.5004 163.0941,48.3004 163.0941,48.9004 V 56.0004 C 163.0941,56.6004 163.3941,56.9004 163.8941,56.9004 M 171.0941,31.6004 C 171.2941,29.9004 175.8941,27.8004 178.3941,27.8004 C 179.0941,27.8004 179.6941,28.0004 179.8941,28.4004 C 180.0941,28.9004 180.2941,31.4004 180.2941,34.1004 C 180.2941,36.8004 180.0941,39.6004 179.8941,40.5004 C 179.2941,42.5004 174.5941,44.5004 172.2941,44.5004 C 171.6941,44.5004 171.1941,44.3004 171.0941,44.0004 C 170.8941,43.6004 170.7941,41.4004 170.7941,39.0004 C 170.7941,35.9004 170.8941,32.4004 171.0941,31.6004"
     id="path314"
     style="fill:#0000ff" />
  <path
     class=""
     d="M 138.8941,106.9004 C 138.9941,106.9004 139.1941,106.8004 139.2941,106.8004 C 139.2941,106.8004 140.6941,106.2004 141.5941,105.9004 C 141.6941,105.8004 141.7941,105.8004 141.8941,105.8004 C 142.5941,105.8004 143.0941,106.9004 143.0941,107.4004 V 119.7004 C 143.0941,120.3004 143.6941,120.8004 144.3941,120.8004 C 145.3941,120.8004 146.0941,120.3004 146.0941,119.7004 V 105.8004 C 146.0941,104.5004 146.5941,103.8004 147.0941,103.6004 L 153.1941,101.1004 C 153.2941,101.1004 153.4941,101.0004 153.5941,101.0004 C 154.3941,101.0004 154.8941,102.2004 154.8941,102.8004 V 115.3004 C 154.8941,115.9004 155.4941,116.4004 156.1941,116.4004 C 157.2941,116.4004 157.8941,115.9004 157.8941,115.3004 V 101.1004 C 157.8941,100.3004 158.2941,99.1004 158.9941,98.8004 C 159.6941,98.5004 161.7941,97.7004 161.7941,97.7004 C 162.4941,97.4004 162.9941,96.6004 162.9941,96.0004 V 88.9004 C 162.9941,88.4004 162.6941,88.1004 162.2941,88.1004 C 162.0941,88.1004 161.9941,88.1004 161.7941,88.2004 L 159.1941,89.2004 C 158.5941,89.2004 157.8941,88.6004 157.8941,87.4004 V 78.1004 C 157.8941,77.4004 158.3941,75.5004 159.1941,75.2004 L 161.7941,74.2004 C 162.4941,73.9004 162.9941,73.1004 162.9941,72.5004 V 65.4004 C 162.9941,64.9004 162.6941,64.6004 162.2941,64.6004 C 162.0941,64.6004 161.9941,64.6004 161.7941,64.7004 C 161.7941,64.7004 159.7941,65.5004 159.2941,65.6004 C 158.5941,65.6004 157.8941,65.1004 157.8941,64.3004 V 52.1004 C 157.8941,51.5004 157.2941,51.0004 156.4941,51.0004 C 155.4941,51.0004 154.8941,51.5004 154.8941,52.1004 V 65.1004 C 154.7941,66.1004 154.4941,67.4004 153.5941,68.0004 C 152.3941,68.7004 148.9941,70.1004 147.2941,70.5004 C 146.3941,70.5004 146.0941,69.3004 146.0941,68.5004 V 56.5004 C 146.0941,55.9004 145.3941,55.4004 144.6941,55.4004 C 143.6941,55.4004 143.0941,55.9004 143.0941,56.5004 V 70.0004 C 143.0941,71.4004 142.4941,72.4004 141.8941,72.7004 C 141.2941,73.0004 139.2941,73.8004 139.2941,73.8004 C 138.5941,74.0004 138.0941,74.8004 138.0941,75.4004 V 82.5004 C 138.0941,83.1004 138.3941,83.4004 138.8941,83.4004 C 139.2941,83.4004 141.1941,82.5004 141.4941,82.3004 C 142.4941,82.3004 143.0941,82.8004 143.0941,84.0004 V 93.9004 C 143.0941,95.0004 142.5941,95.9004 141.9941,96.2004 C 141.3941,96.4004 139.2941,97.3004 139.2941,97.3004 C 138.5941,97.5004 138.0941,98.3004 138.0941,98.9004 V 106.0004 C 138.0941,106.6004 138.3941,106.9004 138.8941,106.9004 M 146.0941,81.6004 C 146.2941,79.9004 150.8941,77.8004 153.3941,77.8004 C 154.0941,77.8004 154.6941,78.0004 154.8941,78.4004 C 155.0941,78.9004 155.2941,81.4004 155.2941,84.1004 C 155.2941,86.8004 155.0941,89.6004 154.8941,90.5004 C 154.2941,92.5004 149.5941,94.5004 147.2941,94.5004 C 146.6941,94.5004 146.1941,94.3004 146.0941,94.0004 C 145.8941,93.6004 145.7941,91.4004 145.7941,89.0004 C 145.7941,85.9004 145.8941,82.4004 146.0941,81.6004"
     id="path316"
     style="fill:#0000ff" />
  <path
     class=""
     d="M 113.8941,69.4004 C 113.9941,69.4004 114.1941,69.3004 114.2941,69.3004 C 114.2941,69.3004 115.6941,68.7004 116.5941,68.4004 C 116.6941,68.3004 116.7941,68.3004 116.8941,68.3004 C 117.5941,68.3004 118.0941,69.4004 118.0941,69.9004 V 82.2004 C 118.0941,82.8004 118.6941,83.3004 119.3941,83.3004 C 120.3941,83.3004 121.0941,82.8004 121.0941,82.2004 V 68.3004 C 121.0941,67.0004 121.5941,66.3004 122.0941,66.1004 L 128.1941,63.6004 C 128.2941,63.6004 128.4941,63.5004 128.5941,63.5004 C 129.3941,63.5004 129.8941,64.7004 129.8941,65.3004 V 77.8004 C 129.8941,78.4004 130.4941,78.9004 131.1941,78.9004 C 132.2941,78.9004 132.8941,78.4004 132.8941,77.8004 V 63.6004 C 132.8941,62.8004 133.2941,61.6004 133.9941,61.3004 C 134.6941,61.0004 136.7941,60.2004 136.7941,60.2004 C 137.4941,59.9004 137.9941,59.1004 137.9941,58.5004 V 51.4004 C 137.9941,50.9004 137.6941,50.6004 137.2941,50.6004 C 137.0941,50.6004 136.9941,50.6004 136.7941,50.7004 L 134.1941,51.7004 C 133.5941,51.7004 132.8941,51.1004 132.8941,49.9004 V 40.6004 C 132.8941,39.9004 133.3941,38.0004 134.1941,37.7004 L 136.7941,36.7004 C 137.4941,36.4004 137.9941,35.6004 137.9941,35.0004 V 27.9004 C 137.9941,27.4004 137.6941,27.1004 137.2941,27.1004 C 137.0941,27.1004 136.9941,27.1004 136.7941,27.2004 C 136.7941,27.2004 134.7941,28.0004 134.2941,28.1004 C 133.5941,28.1004 132.8941,27.6004 132.8941,26.8004 V 14.6004 C 132.8941,14.0004 132.2941,13.5004 131.4941,13.5004 C 130.4941,13.5004 129.8941,14.0004 129.8941,14.6004 V 27.6004 C 129.7941,28.6004 129.4941,29.9004 128.5941,30.5004 C 127.3941,31.2004 123.9941,32.6004 122.2941,33.0004 C 121.3941,33.0004 121.0941,31.8004 121.0941,31.0004 V 19.0004 C 121.0941,18.4004 120.3941,17.9004 119.6941,17.9004 C 118.6941,17.9004 118.0941,18.4004 118.0941,19.0004 V 32.5004 C 118.0941,33.9004 117.4941,34.9004 116.8941,35.2004 C 116.2941,35.5004 114.2941,36.3004 114.2941,36.3004 C 113.5941,36.5004 113.0941,37.3004 113.0941,37.9004 V 45.0004 C 113.0941,45.6004 113.3941,45.9004 113.8941,45.9004 C 114.2941,45.9004 116.1941,45.0004 116.4941,44.8004 C 117.4941,44.8004 118.0941,45.3004 118.0941,46.5004 V 56.4004 C 118.0941,57.5004 117.5941,58.4004 116.9941,58.7004 C 116.3941,58.9004 114.2941,59.8004 114.2941,59.8004 C 113.5941,60.0004 113.0941,60.8004 113.0941,61.4004 V 68.5004 C 113.0941,69.1004 113.3941,69.4004 113.8941,69.4004 M 121.0941,44.1004 C 121.2941,42.4004 125.8941,40.3004 128.3941,40.3004 C 129.0941,40.3004 129.6941,40.5004 129.8941,40.9004 C 130.0941,41.4004 130.2941,43.9004 130.2941,46.6004 C 130.2941,49.3004 130.0941,52.1004 129.8941,53.0004 C 129.2941,55.0004 124.5941,57.0004 122.2941,57.0004 C 121.6941,57.0004 121.1941,56.8004 121.0941,56.5004 C 120.8941,56.1004 120.7941,53.9004 120.7941,51.5004 C 120.7941,48.4004 120.8941,44.9004 121.0941,44.1004"
     id="path318"
     style="fill:#0000ff" />
  <metadata
     id="metadata2309">
    <rdf:RDF>
      <cc:Work
         rdf:about="">
        <dc:title>Unbenannt</dc:title>
      </cc:Work>
    </rdf:RDF>
  </metadata>
</svg>
