<?xml version="1.0" encoding="UTF-8" standalone="no"?>
<svg
   width="406.25357mm"
   height="72.898224mm"
   viewBox="0 0 1535.4466 275.52085"
   version="1.2"
   id="svg3817"
   sodipodi:docname="Ausgangsbeispiel_h-moll.svg"
   inkscape:version="1.1-dev (0486c1a, 2020-10-10)"
   xmlns:inkscape="http://www.inkscape.org/namespaces/inkscape"
   xmlns:sodipodi="http://sodipodi.sourceforge.net/DTD/sodipodi-0.dtd"
   xmlns="http://www.w3.org/2000/svg"
   xmlns:svg="http://www.w3.org/2000/svg"
   xmlns:rdf="http://www.w3.org/1999/02/22-rdf-syntax-ns#"
   xmlns:cc="http://creativecommons.org/ns#"
   xmlns:dc="http://purl.org/dc/elements/1.1/">
  <defs
     id="defs3821" />
  <sodipodi:namedview
     pagecolor="#ffffff"
     bordercolor="#666666"
     borderopacity="1"
     objecttolerance="10"
     gridtolerance="10"
     guidetolerance="10"
     inkscape:pageopacity="0"
     inkscape:pageshadow="2"
     inkscape:window-width="1039"
     inkscape:window-height="480"
     id="namedview3819"
     showgrid="false"
     units="mm"
     lock-margins="true"
     fit-margin-top="1"
     fit-margin-left="1"
     fit-margin-right="1"
     fit-margin-bottom="1"
     inkscape:zoom="0.44935695"
     inkscape:cx="1017.0089"
     inkscape:cy="269.27368"
     inkscape:window-x="0"
     inkscape:window-y="23"
     inkscape:window-maximized="0"
     inkscape:current-layer="svg3817" />
  <title
     id="title3717">Unbenannt</title>
  <desc
     id="desc3719">Generated by MuseScore 3.5.2</desc>
  <circle
     style="fill:#00ff00;fill-opacity:1;stroke:none;stroke-width:1.9;stroke-linecap:round;stroke-linejoin:round"
     id="path790"
     cx="884.20856"
     cy="128.84789"
     r="56.692913" />
  <circle
     style="fill:#00ff00;fill-opacity:1;stroke:none;stroke-width:1.9;stroke-linecap:round;stroke-linejoin:round"
     id="circle1607"
     cx="1067.7306"
     cy="114.73079"
     r="56.692913" />
  <circle
     style="fill:#00ff00;fill-opacity:1;stroke:none;stroke-width:1.9;stroke-linecap:round;stroke-linejoin:round"
     id="circle1609"
     cx="1216.5713"
     cy="192.37474"
     r="56.692913" />
  <g
     id="g508">
    <path
       class=""
       stroke="#000000"
       stroke-width="2.5"
       stroke-linecap="round"
       stroke-linejoin="round"
       fill-rule="evenodd"
       d="M 1079.407,93.603028 C 1163.427,39.520828 1401.197,58.270828 1475.697,124.85293 C 1400.727,64.252328 1162.957,45.502328 1079.407,93.603028"
       id="path3721" />
    <path
       class=""
       stroke="#000000"
       stroke-width="2.5"
       stroke-linecap="round"
       stroke-linejoin="round"
       fill-rule="evenodd"
       d="M 735.55403,124.85293 C 792.33303,74.439428 908.52003,71.314428 967.92803,118.60303 C 908.68203,77.312228 792.49503,80.437228 735.55403,124.85293"
       id="path3723" />
    <path
       class=""
       stroke="#000000"
       stroke-width="2.5"
       stroke-linecap="round"
       stroke-linejoin="round"
       fill-rule="evenodd"
       d="M 282.32203,251.10293 C 327.44503,279.28893 406.84703,266.78893 441.12703,226.10293 C 407.78003,272.71593 328.37803,285.21593 282.32203,251.10293"
       id="path3725" />
    <polyline
       class=""
       stroke="#000000"
       stroke-width="3.25"
       stroke-linejoin="bevel"
       points="1034.78,69.2241 1622.78,69.2241"
       id="polyline3727"
       transform="matrix(0.85714286,0,0,1.0031748,140.71274,21.500464)" />
    <polyline
       class=""
       stroke="#000000"
       stroke-width="3.25"
       stroke-linejoin="bevel"
       points="1034.78,94.2241 1622.78,94.2241"
       id="polyline3729"
       transform="matrix(0.85714286,0,0,1.0031748,140.71274,21.500464)" />
    <polyline
       class=""
       stroke="#000000"
       stroke-width="3.25"
       stroke-linejoin="bevel"
       points="1034.78,119.224 1622.78,119.224"
       id="polyline3731"
       transform="matrix(0.85714286,0,0,1.0031748,140.71274,21.500464)" />
    <polyline
       class=""
       stroke="#000000"
       stroke-width="3.25"
       stroke-linejoin="bevel"
       points="1034.78,144.224 1622.78,144.224"
       id="polyline3733"
       transform="matrix(0.85714286,0,0,1.0031748,140.71274,21.500464)" />
    <polyline
       class=""
       stroke="#000000"
       stroke-width="3.25"
       stroke-linejoin="bevel"
       points="1034.78,169.224 1622.78,169.224"
       id="polyline3735"
       transform="matrix(0.85714286,0,0,1.0031748,140.71274,21.500464)" />
    <polyline
       class=""
       stroke="#000000"
       stroke-width="3.25"
       stroke-linejoin="bevel"
       points="10.8925,69.2241 1034.78,69.2241"
       id="polyline3737"
       transform="translate(-7.1129724,21.878928)" />
    <polyline
       class=""
       stroke="#000000"
       stroke-width="3.25"
       stroke-linejoin="bevel"
       points="10.8925,94.2241 1034.78,94.2241"
       id="polyline3739"
       transform="translate(-7.1129724,21.878928)" />
    <polyline
       class=""
       stroke="#000000"
       stroke-width="3.25"
       stroke-linejoin="bevel"
       points="10.8925,119.224 1034.78,119.224"
       id="polyline3741"
       transform="translate(-7.1129724,21.878928)" />
    <polyline
       class=""
       stroke="#000000"
       stroke-width="3.25"
       stroke-linejoin="bevel"
       points="10.8925,144.224 1034.78,144.224"
       id="polyline3743"
       transform="translate(-7.1129724,21.878928)" />
    <polyline
       class=""
       stroke="#000000"
       stroke-width="3.25"
       stroke-linejoin="bevel"
       points="10.8925,169.224 1034.78,169.224"
       id="polyline3745"
       transform="translate(-7.1129724,21.878928)" />
    <path
       class=""
       d="M 1185.777,212.00293 C 1185.877,212.00293 1186.077,211.90293 1186.177,211.90293 C 1186.177,211.90293 1187.577,211.30293 1188.477,211.00293 C 1188.577,210.90293 1188.677,210.90293 1188.777,210.90293 C 1189.477,210.90293 1189.977,212.00293 1189.977,212.50293 V 224.80293 C 1189.977,225.40293 1190.577,225.90293 1191.277,225.90293 C 1192.277,225.90293 1192.977,225.40293 1192.977,224.80293 V 210.90293 C 1192.977,209.60293 1193.477,208.90293 1193.977,208.70293 L 1200.077,206.20293 C 1200.177,206.20293 1200.377,206.10293 1200.477,206.10293 C 1201.277,206.10293 1201.777,207.30293 1201.777,207.90293 V 220.40293 C 1201.777,221.00293 1202.377,221.50293 1203.077,221.50293 C 1204.177,221.50293 1204.777,221.00293 1204.777,220.40293 V 206.20293 C 1204.777,205.40293 1205.177,204.20293 1205.877,203.90293 C 1206.577,203.60293 1208.677,202.80293 1208.677,202.80293 C 1209.377,202.50293 1209.877,201.70293 1209.877,201.10293 V 194.00293 C 1209.877,193.50293 1209.577,193.20293 1209.177,193.20293 C 1208.977,193.20293 1208.877,193.20293 1208.677,193.30293 L 1206.077,194.30293 C 1205.477,194.30293 1204.777,193.70293 1204.777,192.50293 V 183.20293 C 1204.777,182.50293 1205.277,180.60293 1206.077,180.30293 L 1208.677,179.30293 C 1209.377,179.00293 1209.877,178.20293 1209.877,177.60293 V 170.50293 C 1209.877,170.00293 1209.577,169.70293 1209.177,169.70293 C 1208.977,169.70293 1208.877,169.70293 1208.677,169.80293 C 1208.677,169.80293 1206.677,170.60293 1206.177,170.70293 C 1205.477,170.70293 1204.777,170.20293 1204.777,169.40293 V 157.20293 C 1204.777,156.60293 1204.177,156.10293 1203.377,156.10293 C 1202.377,156.10293 1201.777,156.60293 1201.777,157.20293 V 170.20293 C 1201.677,171.20293 1201.377,172.50293 1200.477,173.10293 C 1199.277,173.80293 1195.877,175.20293 1194.177,175.60293 C 1193.277,175.60293 1192.977,174.40293 1192.977,173.60293 V 161.60293 C 1192.977,161.00293 1192.277,160.50293 1191.577,160.50293 C 1190.577,160.50293 1189.977,161.00293 1189.977,161.60293 V 175.10293 C 1189.977,176.50293 1189.377,177.50293 1188.777,177.80293 C 1188.177,178.10293 1186.177,178.90293 1186.177,178.90293 C 1185.477,179.10293 1184.977,179.90293 1184.977,180.50293 V 187.60293 C 1184.977,188.20293 1185.277,188.50293 1185.777,188.50293 C 1186.177,188.50293 1188.077,187.60293 1188.377,187.40293 C 1189.377,187.40293 1189.977,187.90293 1189.977,189.10293 V 199.00293 C 1189.977,200.10293 1189.477,201.00293 1188.877,201.30293 C 1188.277,201.50293 1186.177,202.40293 1186.177,202.40293 C 1185.477,202.60293 1184.977,203.40293 1184.977,204.00293 V 211.10293 C 1184.977,211.70293 1185.277,212.00293 1185.777,212.00293 M 1192.977,186.70293 C 1193.177,185.00293 1197.777,182.90293 1200.277,182.90293 C 1200.977,182.90293 1201.577,183.10293 1201.777,183.50293 C 1201.977,184.00293 1202.177,186.50293 1202.177,189.20293 C 1202.177,191.90293 1201.977,194.70293 1201.777,195.60293 C 1201.177,197.60293 1196.477,199.60293 1194.177,199.60293 C 1193.577,199.60293 1193.077,199.40293 1192.977,199.10293 C 1192.777,198.70293 1192.677,196.50293 1192.677,194.10293 C 1192.677,191.00293 1192.777,187.50293 1192.977,186.70293"
       id="path3747" />
    <path
       class=""
       d="M 1041.467,135.60293 C 1041.567,135.60293 1042.067,135.50293 1042.167,135.40293 C 1043.567,134.80293 1049.167,132.40293 1052.067,132.40293 C 1053.067,132.40293 1053.767,132.70293 1053.767,133.50293 V 148.40293 C 1053.767,149.10293 1054.267,149.60293 1054.967,149.60293 H 1056.267 C 1056.867,149.60293 1057.467,149.10293 1057.467,148.40293 V 98.203028 C 1057.467,97.703028 1057.067,97.403028 1056.667,97.403028 C 1056.567,97.403028 1056.367,97.403028 1056.267,97.503028 L 1054.767,98.003028 C 1054.567,98.003028 1054.467,98.103028 1054.367,98.103028 C 1054.367,98.103028 1047.967,100.40303 1045.367,100.40303 C 1044.767,100.40303 1044.367,100.30303 1044.367,99.903028 V 83.203028 C 1044.367,82.503028 1043.767,82.003028 1043.167,82.003028 H 1041.867 C 1041.167,82.003028 1040.667,82.503028 1040.667,83.203028 V 134.70293 C 1040.667,135.30293 1040.967,135.60293 1041.467,135.60293 M 1044.367,112.20303 C 1044.367,110.80303 1050.467,108.20303 1052.867,108.20303 C 1053.467,108.20303 1053.767,108.30303 1053.767,108.70303 V 119.00303 C 1053.767,120.80303 1048.067,123.10293 1045.567,123.10293 C 1044.867,123.10293 1044.367,122.90293 1044.367,122.50293 V 112.20303"
       id="path3749" />
    <path
       class=""
       d="M 857.79803,148.10293 C 857.89803,148.10293 858.39803,148.00293 858.49803,147.90293 C 859.89803,147.30293 865.49803,144.90293 868.39803,144.90293 C 869.39803,144.90293 870.09803,145.20293 870.09803,146.00293 V 160.90293 C 870.09803,161.60293 870.59803,162.10293 871.29803,162.10293 H 872.59803 C 873.19803,162.10293 873.79803,161.60293 873.79803,160.90293 V 110.70303 C 873.79803,110.20303 873.39803,109.90303 872.99803,109.90303 C 872.89803,109.90303 872.69803,109.90303 872.59803,110.00303 L 871.09803,110.50303 C 870.89803,110.50303 870.79803,110.60303 870.69803,110.60303 C 870.69803,110.60303 864.29803,112.90303 861.69803,112.90303 C 861.09803,112.90303 860.69803,112.80303 860.69803,112.40303 V 95.703028 C 860.69803,95.003028 860.09803,94.503028 859.49803,94.503028 H 858.19803 C 857.49803,94.503028 856.99803,95.003028 856.99803,95.703028 V 147.20293 C 856.99803,147.80293 857.29803,148.10293 857.79803,148.10293 M 860.69803,124.70293 C 860.69803,123.30293 866.79803,120.70303 869.19803,120.70303 C 869.79803,120.70303 870.09803,120.80303 870.09803,121.20303 V 131.50293 C 870.09803,133.30293 864.39803,135.60293 861.89803,135.60293 C 861.19803,135.60293 860.69803,135.40293 860.69803,135.00293 V 124.70293"
       id="path3751" />
    <polyline
       class=""
       stroke="#000000"
       stroke-width="4"
       stroke-linecap="square"
       stroke-linejoin="bevel"
       points="267.986,194.224 310.885,194.224"
       id="polyline3753"
       transform="translate(-7.1129724,21.878928)" />
    <polyline
       class=""
       stroke="#000000"
       stroke-width="3"
       stroke-linecap="round"
       stroke-linejoin="bevel"
       points="1497.76,153.364 1497.76,69.2241"
       id="polyline3755"
       transform="translate(-7.1129724,21.878928)" />
    <polyline
       class=""
       stroke="#000000"
       stroke-width="3"
       stroke-linecap="round"
       stroke-linejoin="bevel"
       points="1253.89,165.864 1253.89,81.7241"
       id="polyline3757"
       transform="translate(-7.1129724,21.878928)" />
    <polyline
       class=""
       stroke="#000000"
       stroke-width="3"
       stroke-linecap="round"
       stroke-linejoin="bevel"
       points="1071.57,97.5841 1071.57,178.599"
       id="polyline3759"
       transform="translate(-7.1129724,21.878928)" />
    <polyline
       class=""
       stroke="#000000"
       stroke-width="3"
       stroke-linecap="round"
       stroke-linejoin="bevel"
       points="887.908,110.084 887.908,187.974"
       id="polyline3761"
       transform="translate(-7.1129724,21.878928)" />
    <polyline
       class=""
       stroke="#000000"
       stroke-width="3"
       stroke-linecap="round"
       stroke-linejoin="bevel"
       points="960.092,122.584 960.092,194.224"
       id="polyline3763"
       transform="translate(-7.1129724,21.878928)" />
    <polyline
       class=""
       stroke="#000000"
       stroke-width="3"
       stroke-linecap="round"
       stroke-linejoin="bevel"
       points="643.508,115.864 643.508,37.9741"
       id="polyline3765"
       transform="translate(-7.1129724,21.878928)" />
    <polyline
       class=""
       stroke="#000000"
       stroke-width="3"
       stroke-linecap="round"
       stroke-linejoin="bevel"
       points="733.667,128.364 733.667,50.4741"
       id="polyline3767"
       transform="translate(-7.1129724,21.878928)" />
    <polyline
       class=""
       stroke="#000000"
       stroke-width="3"
       stroke-linecap="round"
       stroke-linejoin="bevel"
       points="463.189,178.364 463.189,75.4741"
       id="polyline3769"
       transform="translate(-7.1129724,21.878928)" />
    <polyline
       class=""
       stroke="#000000"
       stroke-width="3"
       stroke-linecap="round"
       stroke-linejoin="bevel"
       points="553.348,153.364 553.348,56.7241"
       id="polyline3771"
       transform="translate(-7.1129724,21.878928)" />
    <polyline
       class=""
       stroke="#000000"
       stroke-width="3"
       stroke-linecap="round"
       stroke-linejoin="bevel"
       points="304.385,203.364 304.385,119.224"
       id="polyline3773"
       transform="translate(-7.1129724,21.878928)" />
    <path
       class=""
       d="M 1470.047,192.60293 C 1479.947,192.60293 1492.147,183.40293 1492.147,173.90293 C 1492.147,168.30293 1487.647,164.60293 1481.247,164.60293 C 1469.047,164.60293 1459.247,173.70293 1459.247,183.30293 C 1459.247,189.10293 1464.047,192.60293 1470.047,192.60293"
       id="path3775" />
    <path
       class=""
       d="M 1226.177,205.10293 C 1244.577,205.10293 1248.277,190.10293 1248.277,186.50293 C 1248.277,180.80293 1243.777,177.10293 1237.277,177.10293 C 1220.577,177.10293 1215.377,190.00293 1215.377,195.80293 C 1215.377,201.70293 1220.077,205.10293 1226.177,205.10293 M 1234.677,196.20293 C 1229.677,199.60293 1226.177,200.80293 1223.777,200.80293 C 1221.477,200.80293 1220.077,199.60293 1219.377,198.20293 C 1218.977,197.60293 1218.677,196.80293 1218.677,196.00293 C 1218.677,190.60293 1234.777,181.70293 1240.077,181.70293 C 1242.177,181.70293 1243.377,182.70293 1244.177,184.10293 C 1244.477,184.70293 1244.777,185.40293 1244.777,186.20293 C 1244.777,188.40293 1242.477,191.10293 1234.677,196.20293"
       id="path3777" />
    <path
       class=""
       d="M 1073.757,130.10293 C 1083.657,130.10293 1095.857,120.90303 1095.857,111.40303 C 1095.857,105.80303 1091.357,102.10303 1084.957,102.10303 C 1072.757,102.10303 1062.957,111.20303 1062.957,120.80303 C 1062.957,126.60293 1067.757,130.10293 1073.757,130.10293"
       id="path3779" />
    <path
       class=""
       d="M 890.09503,142.60293 C 899.99503,142.60293 912.19503,133.40293 912.19503,123.90293 C 912.19503,118.30303 907.69503,114.60303 901.29503,114.60303 C 889.09503,114.60303 879.29503,123.70293 879.29503,133.30293 C 879.29503,139.10293 884.09503,142.60293 890.09503,142.60293"
       id="path3781" />
    <path
       class=""
       d="M 962.27903,155.10293 C 972.17903,155.10293 984.37903,145.90293 984.37903,136.40293 C 984.37903,130.80293 979.87903,127.10293 973.47903,127.10293 C 961.27903,127.10293 951.47903,136.20293 951.47903,145.80293 C 951.47903,151.60293 956.27903,155.10293 962.27903,155.10293"
       id="path3783" />
    <path
       class=""
       d="M 705.95503,167.60293 C 715.85503,167.60293 728.05503,158.40293 728.05503,148.90293 C 728.05503,143.30293 723.55503,139.60293 717.15503,139.60293 C 704.95503,139.60293 695.15503,148.70293 695.15503,158.30293 C 695.15503,164.10293 699.95503,167.60293 705.95503,167.60293"
       id="path3785" />
    <path
       class=""
       d="M 435.47803,217.60293 C 445.37803,217.60293 457.57803,208.40293 457.57803,198.90293 C 457.57803,193.30293 453.07803,189.60293 446.67803,189.60293 C 434.47803,189.60293 424.67803,198.70293 424.67803,208.30293 C 424.67803,214.10293 429.47803,217.60293 435.47803,217.60293"
       id="path3787" />
    <path
       class=""
       d="M 525.63703,192.60293 C 535.53703,192.60293 547.73703,183.40293 547.73703,173.90293 C 547.73703,168.30293 543.23703,164.60293 536.83703,164.60293 C 524.63703,164.60293 514.83703,173.70293 514.83703,183.30293 C 514.83703,189.10293 519.63703,192.60293 525.63703,192.60293"
       id="path3789" />
    <path
       class=""
       d="M 615.79603,155.10293 C 625.69603,155.10293 637.89603,145.90293 637.89603,136.40293 C 637.89603,130.80293 633.39603,127.10293 626.99603,127.10293 C 614.79603,127.10293 604.99603,136.20293 604.99603,145.80293 C 604.99603,151.60293 609.79603,155.10293 615.79603,155.10293"
       id="path3791" />
    <path
       class=""
       d="M 276.67303,242.60293 C 286.57303,242.60293 298.77303,233.40293 298.77303,223.90293 C 298.77303,218.30293 294.27303,214.60293 287.87303,214.60293 C 275.67303,214.60293 265.87303,223.70293 265.87303,233.30293 C 265.87303,239.10293 270.67303,242.60293 276.67303,242.60293"
       id="path3793" />
    <path
       class=""
       d="M 70.779528,71.803028 C 74.079528,71.803028 76.779528,74.503028 76.779528,80.003028 C 76.779528,91.103028 67.279528,100.10303 59.379528,107.00303 C 59.079528,107.20303 58.879528,107.40303 58.679528,107.40303 C 58.379528,107.40303 58.179528,107.00303 58.079528,106.20303 C 57.679528,103.60303 57.479528,100.20303 57.479528,97.003028 C 57.479528,81.403028 64.679528,71.803028 70.779528,71.803028 M 66.779528,155.80293 C 66.579528,154.70293 66.679528,154.40293 67.479528,154.40293 C 67.579528,154.40293 67.779528,154.40293 67.879528,154.40293 C 75.979528,155.10293 82.679528,161.90293 82.679528,170.70293 C 82.679528,177.00293 78.879528,182.10293 73.279528,184.90293 C 72.779528,185.10293 72.479528,185.30293 72.279528,185.30293 C 71.879528,185.30293 71.779528,185.00293 71.679528,184.30293 L 66.779528,155.80293 M 59.879528,139.90293 C 60.179528,141.80293 60.179528,141.70293 58.379528,142.30293 C 49.579528,145.30293 43.879528,153.20293 43.879528,161.70293 C 43.879528,170.70293 48.579528,177.10293 55.379528,179.40293 C 56.179528,179.70293 57.379528,180.00293 58.079528,180.00293 C 58.879528,180.00293 59.279528,179.50293 59.279528,178.90293 C 59.279528,178.20293 58.479528,177.90293 57.779528,177.60293 C 53.579528,175.80293 50.579528,171.50293 50.579528,166.90293 C 50.579528,161.20293 54.479528,156.90293 60.579528,155.20293 C 61.079528,155.10293 61.479528,155.00293 61.779528,155.00293 C 62.279528,155.00293 62.479528,155.30293 62.579528,156.00293 L 67.579528,185.80293 C 67.779528,186.90293 67.679528,186.90293 66.179528,187.20293 C 64.579528,187.50293 62.579528,187.70293 60.579528,187.70293 C 43.079528,187.70293 31.779528,178.00293 31.779528,164.10293 C 31.779528,147.10293 44.279528,136.50293 56.379528,126.70293 C 56.779528,126.40293 57.079528,126.20293 57.279528,126.20293 C 57.579528,126.20293 57.679528,126.50293 57.779528,127.10293 L 59.879528,139.90293 M 61.379528,124.60293 C 61.179528,123.40293 61.379528,123.30293 61.979528,122.70293 C 72.779528,112.60303 80.979528,99.903028 80.979528,84.603028 C 80.979528,75.903028 78.579528,67.303028 74.479528,61.303028 C 72.979528,59.103028 70.379528,56.303028 69.279528,56.303028 C 67.879528,56.303028 64.779528,58.903028 62.779528,61.103028 C 55.379528,69.303028 52.979528,81.803028 52.979528,92.203028 C 52.979528,98.003028 53.679528,104.50303 54.379528,108.60303 C 54.579528,109.80303 54.679528,110.00303 53.479528,111.00303 C 39.079528,122.90293 23.779528,137.20293 23.779528,157.40293 C 23.779528,174.80293 35.679528,191.30293 60.179528,191.30293 C 62.479528,191.30293 65.079528,191.10293 67.079528,190.70293 C 67.479528,190.60293 67.679528,190.60293 67.879528,190.60293 C 68.279528,190.60293 68.479528,190.80293 68.579528,191.60293 C 69.779528,198.30293 71.279528,207.00293 71.279528,211.70293 C 71.279528,226.50293 61.279528,228.30293 55.379528,228.30293 C 49.979528,228.30293 47.379528,226.70293 47.379528,225.40293 C 47.379528,224.70293 48.279528,224.40293 50.579528,223.70293 C 53.679528,222.80293 57.279528,220.10293 57.279528,214.30293 C 57.279528,208.80293 53.779528,204.10293 47.679528,204.10293 C 40.979528,204.10293 36.979528,209.40293 36.979528,215.60293 C 36.979528,222.10293 40.879528,231.90293 55.979528,231.90293 C 62.679528,231.90293 75.679528,228.90293 75.679528,211.90293 C 75.679528,206.20293 73.879528,196.70293 72.779528,190.50293 C 72.579528,189.30293 72.679528,189.40293 74.079528,188.80293 C 84.179528,184.80293 90.879528,176.30293 90.879528,165.00293 C 90.879528,152.20293 81.479528,140.90293 66.779528,140.90293 C 64.179528,140.90293 64.179528,140.90293 63.879528,139.10293 L 61.379528,124.60293"
       id="path3795" />
    <path
       class=""
       d="M 216.67303,174.50293 C 216.77303,174.50293 216.97303,174.40293 217.07303,174.40293 C 217.07303,174.40293 218.47303,173.80293 219.37303,173.50293 C 219.47303,173.40293 219.57303,173.40293 219.67303,173.40293 C 220.37303,173.40293 220.87303,174.50293 220.87303,175.00293 V 187.30293 C 220.87303,187.90293 221.47303,188.40293 222.17303,188.40293 C 223.17303,188.40293 223.87303,187.90293 223.87303,187.30293 V 173.40293 C 223.87303,172.10293 224.37303,171.40293 224.87303,171.20293 L 230.97303,168.70293 C 231.07303,168.70293 231.27303,168.60293 231.37303,168.60293 C 232.17303,168.60293 232.67303,169.80293 232.67303,170.40293 V 182.90293 C 232.67303,183.50293 233.27303,184.00293 233.97303,184.00293 C 235.07303,184.00293 235.67303,183.50293 235.67303,182.90293 V 168.70293 C 235.67303,167.90293 236.07303,166.70293 236.77303,166.40293 C 237.47303,166.10293 239.57303,165.30293 239.57303,165.30293 C 240.27303,165.00293 240.77303,164.20293 240.77303,163.60293 V 156.50293 C 240.77303,156.00293 240.47303,155.70293 240.07303,155.70293 C 239.87303,155.70293 239.77303,155.70293 239.57303,155.80293 L 236.97303,156.80293 C 236.37303,156.80293 235.67303,156.20293 235.67303,155.00293 V 145.70293 C 235.67303,145.00293 236.17303,143.10293 236.97303,142.80293 L 239.57303,141.80293 C 240.27303,141.50293 240.77303,140.70293 240.77303,140.10293 V 133.00293 C 240.77303,132.50293 240.47303,132.20293 240.07303,132.20293 C 239.87303,132.20293 239.77303,132.20293 239.57303,132.30293 C 239.57303,132.30293 237.57303,133.10293 237.07303,133.20293 C 236.37303,133.20293 235.67303,132.70293 235.67303,131.90293 V 119.70303 C 235.67303,119.10303 235.07303,118.60303 234.27303,118.60303 C 233.27303,118.60303 232.67303,119.10303 232.67303,119.70303 V 132.70293 C 232.57303,133.70293 232.27303,135.00293 231.37303,135.60293 C 230.17303,136.30293 226.77303,137.70293 225.07303,138.10293 C 224.17303,138.10293 223.87303,136.90293 223.87303,136.10293 V 124.10293 C 223.87303,123.50293 223.17303,123.00293 222.47303,123.00293 C 221.47303,123.00293 220.87303,123.50293 220.87303,124.10293 V 137.60293 C 220.87303,139.00293 220.27303,140.00293 219.67303,140.30293 C 219.07303,140.60293 217.07303,141.40293 217.07303,141.40293 C 216.37303,141.60293 215.87303,142.40293 215.87303,143.00293 V 150.10293 C 215.87303,150.70293 216.17303,151.00293 216.67303,151.00293 C 217.07303,151.00293 218.97303,150.10293 219.27303,149.90293 C 220.27303,149.90293 220.87303,150.40293 220.87303,151.60293 V 161.50293 C 220.87303,162.60293 220.37303,163.50293 219.77303,163.80293 C 219.17303,164.00293 217.07303,164.90293 217.07303,164.90293 C 216.37303,165.10293 215.87303,165.90293 215.87303,166.50293 V 173.60293 C 215.87303,174.20293 216.17303,174.50293 216.67303,174.50293 M 223.87303,149.20293 C 224.07303,147.50293 228.67303,145.40293 231.17303,145.40293 C 231.87303,145.40293 232.47303,145.60293 232.67303,146.00293 C 232.87303,146.50293 233.07303,149.00293 233.07303,151.70293 C 233.07303,154.40293 232.87303,157.20293 232.67303,158.10293 C 232.07303,160.10293 227.37303,162.10293 225.07303,162.10293 C 224.47303,162.10293 223.97303,161.90293 223.87303,161.60293 C 223.67303,161.20293 223.57303,159.00293 223.57303,156.60293 C 223.57303,153.50293 223.67303,150.00293 223.87303,149.20293"
       id="path3797" />
    <path
       class=""
       d="M 191.67303,137.00293 C 191.77303,137.00293 191.97303,136.90293 192.07303,136.90293 C 192.07303,136.90293 193.47303,136.30293 194.37303,136.00293 C 194.47303,135.90293 194.57303,135.90293 194.67303,135.90293 C 195.37303,135.90293 195.87303,137.00293 195.87303,137.50293 V 149.80293 C 195.87303,150.40293 196.47303,150.90293 197.17303,150.90293 C 198.17303,150.90293 198.87303,150.40293 198.87303,149.80293 V 135.90293 C 198.87303,134.60293 199.37303,133.90293 199.87303,133.70293 L 205.97303,131.20293 C 206.07303,131.20293 206.27303,131.10293 206.37303,131.10293 C 207.17303,131.10293 207.67303,132.30293 207.67303,132.90293 V 145.40293 C 207.67303,146.00293 208.27303,146.50293 208.97303,146.50293 C 210.07303,146.50293 210.67303,146.00293 210.67303,145.40293 V 131.20293 C 210.67303,130.40293 211.07303,129.20293 211.77303,128.90293 C 212.47303,128.60293 214.57303,127.80293 214.57303,127.80293 C 215.27303,127.50293 215.77303,126.70293 215.77303,126.10293 V 119.00303 C 215.77303,118.50303 215.47303,118.20303 215.07303,118.20303 C 214.87303,118.20303 214.77303,118.20303 214.57303,118.30303 L 211.97303,119.30303 C 211.37303,119.30303 210.67303,118.70303 210.67303,117.50303 V 108.20303 C 210.67303,107.50303 211.17303,105.60303 211.97303,105.30303 L 214.57303,104.30303 C 215.27303,104.00303 215.77303,103.20303 215.77303,102.60303 V 95.503028 C 215.77303,95.003028 215.47303,94.703028 215.07303,94.703028 C 214.87303,94.703028 214.77303,94.703028 214.57303,94.803028 C 214.57303,94.803028 212.57303,95.603028 212.07303,95.703028 C 211.37303,95.703028 210.67303,95.203028 210.67303,94.403028 V 82.203028 C 210.67303,81.603028 210.07303,81.103028 209.27303,81.103028 C 208.27303,81.103028 207.67303,81.603028 207.67303,82.203028 V 95.203028 C 207.57303,96.203028 207.27303,97.503028 206.37303,98.103028 C 205.17303,98.803028 201.77303,100.20303 200.07303,100.60303 C 199.17303,100.60303 198.87303,99.403028 198.87303,98.603028 V 86.603028 C 198.87303,86.003028 198.17303,85.503028 197.47303,85.503028 C 196.47303,85.503028 195.87303,86.003028 195.87303,86.603028 V 100.10303 C 195.87303,101.50303 195.27303,102.50303 194.67303,102.80303 C 194.07303,103.10303 192.07303,103.90303 192.07303,103.90303 C 191.37303,104.10303 190.87303,104.90303 190.87303,105.50303 V 112.60303 C 190.87303,113.20303 191.17303,113.50303 191.67303,113.50303 C 192.07303,113.50303 193.97303,112.60303 194.27303,112.40303 C 195.27303,112.40303 195.87303,112.90303 195.87303,114.10303 V 124.00293 C 195.87303,125.10293 195.37303,126.00293 194.77303,126.30293 C 194.17303,126.50293 192.07303,127.40293 192.07303,127.40293 C 191.37303,127.60293 190.87303,128.40293 190.87303,129.00293 V 136.10293 C 190.87303,136.70293 191.17303,137.00293 191.67303,137.00293 M 198.87303,111.70303 C 199.07303,110.00303 203.67303,107.90303 206.17303,107.90303 C 206.87303,107.90303 207.47303,108.10303 207.67303,108.50303 C 207.87303,109.00303 208.07303,111.50303 208.07303,114.20303 C 208.07303,116.90303 207.87303,119.70303 207.67303,120.60303 C 207.07303,122.60293 202.37303,124.60293 200.07303,124.60293 C 199.47303,124.60293 198.97303,124.40293 198.87303,124.10293 C 198.67303,123.70293 198.57303,121.50303 198.57303,119.10303 C 198.57303,116.00303 198.67303,112.50303 198.87303,111.70303"
       id="path3799" />
    <path
       class=""
       d="M 166.67303,99.503028 C 166.77303,99.503028 166.97303,99.403028 167.07303,99.403028 C 167.07303,99.403028 168.47303,98.803028 169.37303,98.503028 C 169.47303,98.403028 169.57303,98.403028 169.67303,98.403028 C 170.37303,98.403028 170.87303,99.503028 170.87303,100.00303 V 112.30303 C 170.87303,112.90303 171.47303,113.40303 172.17303,113.40303 C 173.17303,113.40303 173.87303,112.90303 173.87303,112.30303 V 98.403028 C 173.87303,97.103028 174.37303,96.403028 174.87303,96.203028 L 180.97303,93.703028 C 181.07303,93.703028 181.27303,93.603028 181.37303,93.603028 C 182.17303,93.603028 182.67303,94.803028 182.67303,95.403028 V 107.90303 C 182.67303,108.50303 183.27303,109.00303 183.97303,109.00303 C 185.07303,109.00303 185.67303,108.50303 185.67303,107.90303 V 93.703028 C 185.67303,92.903028 186.07303,91.703028 186.77303,91.403028 C 187.47303,91.103028 189.57303,90.303028 189.57303,90.303028 C 190.27303,90.003028 190.77303,89.203028 190.77303,88.603028 V 81.503028 C 190.77303,81.003028 190.47303,80.703028 190.07303,80.703028 C 189.87303,80.703028 189.77303,80.703028 189.57303,80.803028 L 186.97303,81.803028 C 186.37303,81.803028 185.67303,81.203028 185.67303,80.003028 V 70.703028 C 185.67303,70.003028 186.17303,68.103028 186.97303,67.803028 L 189.57303,66.803028 C 190.27303,66.503028 190.77303,65.703028 190.77303,65.103028 V 58.003028 C 190.77303,57.503028 190.47303,57.203028 190.07303,57.203028 C 189.87303,57.203028 189.77303,57.203028 189.57303,57.303028 C 189.57303,57.303028 187.57303,58.103028 187.07303,58.203028 C 186.37303,58.203028 185.67303,57.703028 185.67303,56.903028 V 44.703028 C 185.67303,44.103028 185.07303,43.603028 184.27303,43.603028 C 183.27303,43.603028 182.67303,44.103028 182.67303,44.703028 V 57.703028 C 182.57303,58.703028 182.27303,60.003028 181.37303,60.603028 C 180.17303,61.303028 176.77303,62.703028 175.07303,63.103028 C 174.17303,63.103028 173.87303,61.903028 173.87303,61.103028 V 49.103028 C 173.87303,48.503028 173.17303,48.003028 172.47303,48.003028 C 171.47303,48.003028 170.87303,48.503028 170.87303,49.103028 V 62.603028 C 170.87303,64.003028 170.27303,65.003028 169.67303,65.303028 C 169.07303,65.603028 167.07303,66.403028 167.07303,66.403028 C 166.37303,66.603028 165.87303,67.403028 165.87303,68.003028 V 75.103028 C 165.87303,75.703028 166.17303,76.003028 166.67303,76.003028 C 167.07303,76.003028 168.97303,75.103028 169.27303,74.903028 C 170.27303,74.903028 170.87303,75.403028 170.87303,76.603028 V 86.503028 C 170.87303,87.603028 170.37303,88.503028 169.77303,88.803028 C 169.17303,89.003028 167.07303,89.903028 167.07303,89.903028 C 166.37303,90.103028 165.87303,90.903028 165.87303,91.503028 V 98.603028 C 165.87303,99.203028 166.17303,99.503028 166.67303,99.503028 M 173.87303,74.203028 C 174.07303,72.503028 178.67303,70.403028 181.17303,70.403028 C 181.87303,70.403028 182.47303,70.603028 182.67303,71.003028 C 182.87303,71.503028 183.07303,74.003028 183.07303,76.703028 C 183.07303,79.403028 182.87303,82.203028 182.67303,83.103028 C 182.07303,85.103028 177.37303,87.103028 175.07303,87.103028 C 174.47303,87.103028 173.97303,86.903028 173.87303,86.603028 C 173.67303,86.203028 173.57303,84.003028 173.57303,81.603028 C 173.57303,78.503028 173.67303,75.003028 173.87303,74.203028"
       id="path3801" />
    <path
       class=""
       d="M 141.67303,149.50293 C 141.77303,149.50293 141.97303,149.40293 142.07303,149.40293 C 142.07303,149.40293 143.47303,148.80293 144.37303,148.50293 C 144.47303,148.40293 144.57303,148.40293 144.67303,148.40293 C 145.37303,148.40293 145.87303,149.50293 145.87303,150.00293 V 162.30293 C 145.87303,162.90293 146.47303,163.40293 147.17303,163.40293 C 148.17303,163.40293 148.87303,162.90293 148.87303,162.30293 V 148.40293 C 148.87303,147.10293 149.37303,146.40293 149.87303,146.20293 L 155.97303,143.70293 C 156.07303,143.70293 156.27303,143.60293 156.37303,143.60293 C 157.17303,143.60293 157.67303,144.80293 157.67303,145.40293 V 157.90293 C 157.67303,158.50293 158.27303,159.00293 158.97303,159.00293 C 160.07303,159.00293 160.67303,158.50293 160.67303,157.90293 V 143.70293 C 160.67303,142.90293 161.07303,141.70293 161.77303,141.40293 C 162.47303,141.10293 164.57303,140.30293 164.57303,140.30293 C 165.27303,140.00293 165.77303,139.20293 165.77303,138.60293 V 131.50293 C 165.77303,131.00293 165.47303,130.70293 165.07303,130.70293 C 164.87303,130.70293 164.77303,130.70293 164.57303,130.80293 L 161.97303,131.80293 C 161.37303,131.80293 160.67303,131.20293 160.67303,130.00293 V 120.70303 C 160.67303,120.00303 161.17303,118.10303 161.97303,117.80303 L 164.57303,116.80303 C 165.27303,116.50303 165.77303,115.70303 165.77303,115.10303 V 108.00303 C 165.77303,107.50303 165.47303,107.20303 165.07303,107.20303 C 164.87303,107.20303 164.77303,107.20303 164.57303,107.30303 C 164.57303,107.30303 162.57303,108.10303 162.07303,108.20303 C 161.37303,108.20303 160.67303,107.70303 160.67303,106.90303 V 94.703028 C 160.67303,94.103028 160.07303,93.603028 159.27303,93.603028 C 158.27303,93.603028 157.67303,94.103028 157.67303,94.703028 V 107.70303 C 157.57303,108.70303 157.27303,110.00303 156.37303,110.60303 C 155.17303,111.30303 151.77303,112.70303 150.07303,113.10303 C 149.17303,113.10303 148.87303,111.90303 148.87303,111.10303 V 99.103028 C 148.87303,98.503028 148.17303,98.003028 147.47303,98.003028 C 146.47303,98.003028 145.87303,98.503028 145.87303,99.103028 V 112.60303 C 145.87303,114.00303 145.27303,115.00303 144.67303,115.30303 C 144.07303,115.60303 142.07303,116.40303 142.07303,116.40303 C 141.37303,116.60303 140.87303,117.40303 140.87303,118.00303 V 125.10293 C 140.87303,125.70293 141.17303,126.00293 141.67303,126.00293 C 142.07303,126.00293 143.97303,125.10293 144.27303,124.90293 C 145.27303,124.90293 145.87303,125.40293 145.87303,126.60293 V 136.50293 C 145.87303,137.60293 145.37303,138.50293 144.77303,138.80293 C 144.17303,139.00293 142.07303,139.90293 142.07303,139.90293 C 141.37303,140.10293 140.87303,140.90293 140.87303,141.50293 V 148.60293 C 140.87303,149.20293 141.17303,149.50293 141.67303,149.50293 M 148.87303,124.20293 C 149.07303,122.50293 153.67303,120.40303 156.17303,120.40303 C 156.87303,120.40303 157.47303,120.60303 157.67303,121.00303 C 157.87303,121.50303 158.07303,124.00293 158.07303,126.70293 C 158.07303,129.40293 157.87303,132.20293 157.67303,133.10293 C 157.07303,135.10293 152.37303,137.10293 150.07303,137.10293 C 149.47303,137.10293 148.97303,136.90293 148.87303,136.60293 C 148.67303,136.20293 148.57303,134.00293 148.57303,131.60293 C 148.57303,128.50293 148.67303,125.00293 148.87303,124.20293"
       id="path3803" />
    <path
       class=""
       d="M 116.67303,112.00303 C 116.77303,112.00303 116.97303,111.90303 117.07303,111.90303 C 117.07303,111.90303 118.47303,111.30303 119.37303,111.00303 C 119.47303,110.90303 119.57303,110.90303 119.67303,110.90303 C 120.37303,110.90303 120.87303,112.00303 120.87303,112.50303 V 124.80293 C 120.87303,125.40293 121.47303,125.90293 122.17303,125.90293 C 123.17303,125.90293 123.87303,125.40293 123.87303,124.80293 V 110.90303 C 123.87303,109.60303 124.37303,108.90303 124.87303,108.70303 L 130.97303,106.20303 C 131.07303,106.20303 131.27303,106.10303 131.37303,106.10303 C 132.17303,106.10303 132.67303,107.30303 132.67303,107.90303 V 120.40303 C 132.67303,121.00303 133.27303,121.50303 133.97303,121.50303 C 135.07303,121.50303 135.67303,121.00303 135.67303,120.40303 V 106.20303 C 135.67303,105.40303 136.07303,104.20303 136.77303,103.90303 C 137.47303,103.60303 139.57303,102.80303 139.57303,102.80303 C 140.27303,102.50303 140.77303,101.70303 140.77303,101.10303 V 94.003028 C 140.77303,93.503028 140.47303,93.203028 140.07303,93.203028 C 139.87303,93.203028 139.77303,93.203028 139.57303,93.303028 L 136.97303,94.303028 C 136.37303,94.303028 135.67303,93.703028 135.67303,92.503028 V 83.203028 C 135.67303,82.503028 136.17303,80.603028 136.97303,80.303028 L 139.57303,79.303028 C 140.27303,79.003028 140.77303,78.203028 140.77303,77.603028 V 70.503028 C 140.77303,70.003028 140.47303,69.703028 140.07303,69.703028 C 139.87303,69.703028 139.77303,69.703028 139.57303,69.803028 C 139.57303,69.803028 137.57303,70.603028 137.07303,70.703028 C 136.37303,70.703028 135.67303,70.203028 135.67303,69.403028 V 57.203028 C 135.67303,56.603028 135.07303,56.103028 134.27303,56.103028 C 133.27303,56.103028 132.67303,56.603028 132.67303,57.203028 V 70.203028 C 132.57303,71.203028 132.27303,72.503028 131.37303,73.103028 C 130.17303,73.803028 126.77303,75.203028 125.07303,75.603028 C 124.17303,75.603028 123.87303,74.403028 123.87303,73.603028 V 61.603028 C 123.87303,61.003028 123.17303,60.503028 122.47303,60.503028 C 121.47303,60.503028 120.87303,61.003028 120.87303,61.603028 V 75.103028 C 120.87303,76.503028 120.27303,77.503028 119.67303,77.803028 C 119.07303,78.103028 117.07303,78.903028 117.07303,78.903028 C 116.37303,79.103028 115.87303,79.903028 115.87303,80.503028 V 87.603028 C 115.87303,88.203028 116.17303,88.503028 116.67303,88.503028 C 117.07303,88.503028 118.97303,87.603028 119.27303,87.403028 C 120.27303,87.403028 120.87303,87.903028 120.87303,89.103028 V 99.003028 C 120.87303,100.10303 120.37303,101.00303 119.77303,101.30303 C 119.17303,101.50303 117.07303,102.40303 117.07303,102.40303 C 116.37303,102.60303 115.87303,103.40303 115.87303,104.00303 V 111.10303 C 115.87303,111.70303 116.17303,112.00303 116.67303,112.00303 M 123.87303,86.703028 C 124.07303,85.003028 128.67303,82.903028 131.17303,82.903028 C 131.87303,82.903028 132.47303,83.103028 132.67303,83.503028 C 132.87303,84.003028 133.07303,86.503028 133.07303,89.203028 C 133.07303,91.903028 132.87303,94.703028 132.67303,95.603028 C 132.07303,97.603028 127.37303,99.603028 125.07303,99.603028 C 124.47303,99.603028 123.97303,99.403028 123.87303,99.103028 C 123.67303,98.703028 123.57303,96.503028 123.57303,94.103028 C 123.57303,91.003028 123.67303,87.503028 123.87303,86.703028"
       id="path3805" />
    <path
       class=""
       fill-rule="evenodd"
       d="M 879.29503,203.57993 L 954.47903,210.08893 V 222.63593 L 879.29503,216.12593 V 203.57993"
       id="path3807" />
    <path
       class=""
       fill-rule="evenodd"
       d="M 879.29503,187.95493 L 954.47903,194.46393 V 207.01093 L 879.29503,200.50093 V 187.95493"
       id="path3809" />
    <path
       class=""
       fill-rule="evenodd"
       d="M 454.57603,91.593128 L 637.89503,53.469228 V 66.236728 L 454.57603,104.36063 V 91.593128"
       id="path3811" />
    <path
       class=""
       d="M 539.72003,18.729548 C 547.68603,17.429548 551.67003,14.662878 551.67003,10.429528 C 551.67003,9.0629276 551.26103,7.9629276 550.44503,7.1295276 C 549.62803,6.2962276 548.55303,5.8795276 547.22003,5.8795276 C 545.18603,5.8795276 543.32003,6.9962276 541.62003,9.2295276 L 540.82003,8.9795276 C 541.65303,7.3795276 542.79503,6.1129276 544.24503,5.1795276 C 545.69503,4.2462276 547.28603,3.7795276 549.02003,3.7795276 C 551.02003,3.7795276 552.68603,4.3795276 554.02003,5.5795276 C 555.35303,6.7795276 556.02003,8.2962276 556.02003,10.129528 C 556.02003,11.829528 555.47803,13.196218 554.39503,14.229548 C 553.31103,15.262878 551.25303,16.362878 548.22003,17.529548 V 17.679548 C 551.42003,19.146218 553.02003,21.629549 553.02003,25.129548 C 553.02003,28.596218 551.73603,31.596218 549.17003,34.129528 C 546.60303,36.662928 543.23603,37.929528 539.07003,37.929528 C 535.33603,37.929528 533.47003,36.946228 533.47003,34.979528 C 533.47003,33.679528 534.20303,33.029528 535.67003,33.029528 C 536.50303,33.029528 537.62003,33.529528 539.02003,34.529528 C 540.42003,35.529528 541.57003,36.029528 542.47003,36.029528 C 544.27003,36.029528 545.81103,35.271228 547.09503,33.754528 C 548.37803,32.237928 549.02003,30.262878 549.02003,27.829548 C 549.02003,24.696218 548.23603,22.529549 546.67003,21.329549 C 545.10303,20.129548 542.78603,19.529548 539.72003,19.529548 V 18.729548"
       id="path3813" />
    <path
       class=""
       d="M 746.80403,153.60293 C 746.80403,150.80293 744.60403,148.60293 741.80403,148.60293 C 739.00403,148.60293 736.80403,150.80293 736.80403,153.60293 C 736.80403,156.40293 739.00403,158.60293 741.80403,158.60293 C 744.60403,158.60293 746.80403,156.40293 746.80403,153.60293"
       id="path3815" />
  </g>
  <metadata
     id="metadata3823">
    <rdf:RDF>
      <cc:Work
         rdf:about="">
        <dc:title>Unbenannt</dc:title>
      </cc:Work>
    </rdf:RDF>
  </metadata>
</svg>
