<?xml version="1.0" encoding="UTF-8" standalone="no"?>
<svg
   width="62mm"
   height="50.460831mm"
   viewBox="0 0 62 50.460831"
   version="1.1"
   id="svg3045"
   inkscape:version="1.1-dev (0486c1a, 2020-10-10)"
   sodipodi:docname="B-Dur_zum_Abziehen.svg"
   xmlns:inkscape="http://www.inkscape.org/namespaces/inkscape"
   xmlns:sodipodi="http://sodipodi.sourceforge.net/DTD/sodipodi-0.dtd"
   xmlns="http://www.w3.org/2000/svg"
   xmlns:svg="http://www.w3.org/2000/svg">
  <defs
     id="defs3041" />
  <sodipodi:namedview
     id="base"
     pagecolor="#ffffff"
     bordercolor="#666666"
     borderopacity="1.0"
     inkscape:pageopacity="0.0"
     inkscape:pageshadow="2"
     inkscape:zoom="0.25370275"
     inkscape:cx="640.51336"
     inkscape:cy="155.69402"
     inkscape:document-units="mm"
     inkscape:current-layer="layer1"
     showgrid="false"
     lock-margins="true"
     fit-margin-top="2"
     fit-margin-left="2"
     fit-margin-right="2"
     fit-margin-bottom="2"
     inkscape:window-width="1256"
     inkscape:window-height="755"
     inkscape:window-x="0"
     inkscape:window-y="23"
     inkscape:window-maximized="0" />
  <g
     inkscape:label="Ebene 1"
     inkscape:groupmode="layer"
     id="layer1"
     transform="translate(82,-122.1803)">
    <g
       id="g3169">
      <polyline
         class=""
         stroke="#000000"
         stroke-width="3.25"
         stroke-linejoin="bevel"
         points="6.73374,138.536 527.478,138.536"
         id="polyline3068"
         transform="matrix(0.11137905,0,0,0.26598649,-80.749998,96.468936)" />
      <polyline
         class=""
         stroke="#000000"
         stroke-width="3.25"
         stroke-linejoin="bevel"
         points="6.73374,163.536 527.478,163.536"
         id="polyline3070"
         transform="matrix(0.11137905,0,0,0.26598649,-80.749998,96.468936)" />
      <polyline
         class=""
         stroke="#000000"
         stroke-width="3.25"
         stroke-linejoin="bevel"
         points="6.73374,188.536 527.478,188.536"
         id="polyline3072"
         transform="matrix(0.11137905,0,0,0.26598649,-80.749998,96.468936)" />
      <polyline
         class=""
         stroke="#000000"
         stroke-width="3.25"
         stroke-linejoin="bevel"
         points="6.73374,213.536 527.478,213.536"
         id="polyline3074"
         transform="matrix(0.11137905,0,0,0.26598649,-80.749998,96.468936)" />
      <polyline
         class=""
         stroke="#000000"
         stroke-width="3.25"
         stroke-linejoin="bevel"
         points="6.73374,238.536 527.478,238.536"
         id="polyline3076"
         transform="matrix(0.11137905,0,0,0.26598649,-80.749998,96.468936)" />
      <path
         class=""
         d="M -62.272927,128.28134 C -61.399802,128.28134 -60.685427,128.99571 -60.685427,130.45092 C -60.685427,133.3878 -63.198969,135.76905 -65.289177,137.59467 C -65.368552,137.64759 -65.421469,137.70051 -65.474386,137.70051 C -65.553761,137.70051 -65.606677,137.59467 -65.633136,137.38301 C -65.738969,136.69509 -65.791886,135.79551 -65.791886,134.94884 C -65.791886,130.82134 -63.886886,128.28134 -62.272927,128.28134 M -63.331261,150.50634 C -63.384177,150.2153 -63.357719,150.13592 -63.146052,150.13592 C -63.119594,150.13592 -63.066677,150.13592 -63.040219,150.13592 C -60.897094,150.32113 -59.124386,152.1203 -59.124386,154.44863 C -59.124386,156.11551 -60.129802,157.46488 -61.611469,158.20571 C -61.743761,158.25863 -61.823136,158.31155 -61.876052,158.31155 C -61.981886,158.31155 -62.008344,158.23217 -62.034802,158.04696 L -63.331261,150.50634 M -65.156886,146.29946 C -65.077511,146.80217 -65.077511,146.77571 -65.553761,146.93446 C -67.882094,147.72821 -69.390219,149.81842 -69.390219,152.06738 C -69.390219,154.44863 -68.146677,156.14196 -66.347511,156.75051 C -66.135844,156.82988 -65.818344,156.90926 -65.633136,156.90926 C -65.421469,156.90926 -65.315636,156.77696 -65.315636,156.61821 C -65.315636,156.43301 -65.527302,156.35363 -65.712511,156.27426 C -66.823761,155.79801 -67.617511,154.6603 -67.617511,153.44321 C -67.617511,151.93509 -66.585636,150.79738 -64.971677,150.34759 C -64.839386,150.32113 -64.733552,150.29467 -64.654177,150.29467 C -64.521886,150.29467 -64.468969,150.37405 -64.442511,150.55926 L -63.119594,158.44384 C -63.066677,158.73488 -63.093136,158.73488 -63.490011,158.81426 C -63.913344,158.89363 -64.442511,158.94655 -64.971677,158.94655 C -69.601886,158.94655 -72.591677,156.38009 -72.591677,152.70238 C -72.591677,148.20446 -69.284386,145.39988 -66.082927,142.80696 C -65.977094,142.72759 -65.897719,142.67467 -65.844802,142.67467 C -65.765427,142.67467 -65.738969,142.75405 -65.712511,142.9128 L -65.156886,146.29946 M -64.760011,142.25134 C -64.812927,141.93384 -64.760011,141.90738 -64.601261,141.74863 C -61.743761,139.07634 -59.574177,135.71613 -59.574177,131.66801 C -59.574177,129.36613 -60.209177,127.09071 -61.293969,125.50321 C -61.690844,124.92113 -62.378761,124.1803 -62.669802,124.1803 C -63.040219,124.1803 -63.860427,124.86821 -64.389594,125.4503 C -66.347511,127.61988 -66.982511,130.92717 -66.982511,133.67884 C -66.982511,135.21342 -66.797302,136.93321 -66.612094,138.01801 C -66.559177,138.33551 -66.532719,138.38842 -66.850219,138.65301 C -70.660219,141.80155 -74.708344,145.58509 -74.708344,150.92967 C -74.708344,155.53342 -71.559802,159.89905 -65.077511,159.89905 C -64.468969,159.89905 -63.781052,159.84613 -63.251886,159.7403 C -63.146052,159.71384 -63.093136,159.71384 -63.040219,159.71384 C -62.934386,159.71384 -62.881469,159.76676 -62.855011,159.97842 C -62.537511,161.75113 -62.140636,164.05301 -62.140636,165.29655 C -62.140636,169.21238 -64.786469,169.68863 -66.347511,169.68863 C -67.776261,169.68863 -68.464177,169.2653 -68.464177,168.92134 C -68.464177,168.73613 -68.226052,168.65676 -67.617511,168.47155 C -66.797302,168.23342 -65.844802,167.51905 -65.844802,165.98446 C -65.844802,164.52926 -66.770844,163.28571 -68.384802,163.28571 C -70.157511,163.28571 -71.215844,164.68801 -71.215844,166.32842 C -71.215844,168.04821 -70.183969,170.64113 -66.188761,170.64113 C -64.416052,170.64113 -60.976469,169.84738 -60.976469,165.34946 C -60.976469,163.84134 -61.452719,161.3278 -61.743761,159.68738 C -61.796677,159.36988 -61.770219,159.39634 -61.399802,159.23759 C -58.727511,158.17926 -56.954802,155.9303 -56.954802,152.94051 C -56.954802,149.55384 -59.441886,146.56405 -63.331261,146.56405 C -64.019177,146.56405 -64.019177,146.56405 -64.098552,146.0878 L -64.760011,142.25134"
         id="path3078"
         style="stroke-width:0.264583" />
      <path
         class=""
         d="M -42.483867,138.83821 C -42.483867,138.83821 -42.563242,137.25071 -42.563242,136.19238 C -42.563242,135.76905 -42.536783,135.45155 -42.510325,135.34571 C -42.325117,134.81655 -41.266783,134.04926 -40.658242,134.04926 C -39.89095,134.04926 -39.57345,134.92238 -39.57345,135.58384 C -39.57345,137.01259 -40.790533,138.44134 -41.928242,139.15571 C -42.034075,139.20863 -42.11345,139.23509 -42.192825,139.23509 C -42.43095,139.23509 -42.483867,138.97051 -42.483867,138.83821 M -43.409908,141.19301 C -43.330533,141.29884 -43.251158,141.3253 -43.171783,141.3253 C -43.092408,141.3253 -43.013033,141.27238 -43.013033,141.27238 C -42.219283,140.82259 -41.584283,140.10821 -40.922825,139.65842 C -38.568033,138.01801 -37.747825,136.40405 -37.747825,135.18696 C -37.747825,133.67884 -38.911992,132.72634 -40.129075,132.64696 C -40.578867,132.64696 -41.213867,132.85863 -41.584283,133.09676 C -41.743033,133.22905 -42.034075,133.46717 -42.166367,133.46717 C -42.219283,133.46717 -42.245742,133.46717 -42.298658,133.44071 C -42.483867,133.36134 -42.5897,133.17613 -42.5897,132.99092 C -42.563242,132.40884 -42.404492,126.05884 -42.404492,125.52967 C -42.404492,125.23863 -42.642617,125.07988 -42.9072,125.07988 C -43.277617,125.07988 -43.70095,125.34446 -43.727408,125.82071 C -43.727408,125.82071 -43.621575,140.92842 -43.409908,141.19301"
         id="path3082"
         style="fill:#0000ff;stroke-width:0.264583" />
      <path
         class=""
         d="M -49.09845,148.76009 C -49.09845,148.76009 -49.177825,147.17259 -49.177825,146.11426 C -49.177825,145.69092 -49.151367,145.37342 -49.124908,145.26759 C -48.9397,144.73842 -47.881367,143.97113 -47.272825,143.97113 C -46.505533,143.97113 -46.188033,144.84426 -46.188033,145.50571 C -46.188033,146.93446 -47.405117,148.36321 -48.542825,149.07759 C -48.648658,149.13051 -48.728033,149.15696 -48.807408,149.15696 C -49.045533,149.15696 -49.09845,148.89238 -49.09845,148.76009 M -50.024492,151.11488 C -49.945117,151.22071 -49.865742,151.24717 -49.786367,151.24717 C -49.706992,151.24717 -49.627617,151.19426 -49.627617,151.19426 C -48.833867,150.74446 -48.198867,150.03009 -47.537408,149.5803 C -45.182617,147.93988 -44.362408,146.32592 -44.362408,145.10884 C -44.362408,143.60071 -45.526575,142.64821 -46.743658,142.56884 C -47.19345,142.56884 -47.82845,142.78051 -48.198867,143.01863 C -48.357617,143.15092 -48.648658,143.38905 -48.78095,143.38905 C -48.833867,143.38905 -48.860325,143.38905 -48.913242,143.36259 C -49.09845,143.28321 -49.204283,143.09801 -49.204283,142.9128 C -49.177825,142.33071 -49.019075,135.98071 -49.019075,135.45155 C -49.019075,135.16051 -49.2572,135.00176 -49.521783,135.00176 C -49.8922,135.00176 -50.315533,135.26634 -50.341992,135.74259 C -50.341992,135.74259 -50.236158,150.8503 -50.024492,151.11488"
         id="path3084"
         style="fill:#0000ff;stroke-width:0.264583" />
    </g>
  </g>
</svg>
