<?xml version="1.0" encoding="UTF-8" standalone="no"?>
<svg
   width="1537"
   height="312"
   viewBox="0 0 1537 312"
   version="1.2"
   id="svg1043"
   sodipodi:docname="Bach_Cellosuite_Es-Dur_Altsax._Klang.svg"
   inkscape:version="1.1-dev (0486c1a, 2020-10-10)"
   xmlns:inkscape="http://www.inkscape.org/namespaces/inkscape"
   xmlns:sodipodi="http://sodipodi.sourceforge.net/DTD/sodipodi-0.dtd"
   xmlns="http://www.w3.org/2000/svg"
   xmlns:svg="http://www.w3.org/2000/svg"
   xmlns:rdf="http://www.w3.org/1999/02/22-rdf-syntax-ns#"
   xmlns:cc="http://creativecommons.org/ns#"
   xmlns:dc="http://purl.org/dc/elements/1.1/">
  <defs
     id="defs1047" />
  <sodipodi:namedview
     pagecolor="#ffffff"
     bordercolor="#666666"
     borderopacity="1"
     objecttolerance="10"
     gridtolerance="10"
     guidetolerance="10"
     inkscape:pageopacity="0"
     inkscape:pageshadow="2"
     inkscape:window-width="1217"
     inkscape:window-height="480"
     id="namedview1045"
     showgrid="false"
     inkscape:zoom="0.64294502"
     inkscape:cx="1228.7209"
     inkscape:cy="119.76141"
     inkscape:window-x="33"
     inkscape:window-y="151"
     inkscape:window-maximized="0"
     inkscape:current-layer="svg1043"
     height="312px" />
  <title
     id="title877">Unbenannt</title>
  <desc
     id="desc879">Generated by MuseScore 3.5.2</desc>
  <circle
     style="fill:#ff5cff;fill-opacity:1;stroke:none;stroke-width:1.34991;stroke-linecap:round;stroke-linejoin:round"
     id="circle364"
     cx="167.63983"
     cy="189.62538"
     r="37.795277" />
  <circle
     style="fill:#ffbf00;fill-opacity:1;stroke:none;stroke-width:1.9;stroke-linecap:round;stroke-linejoin:round"
     id="circle1061"
     cx="1201.1479"
     cy="163.93201"
     r="56.692913" />
  <path
     class=""
     d="M 1204.83,177.932 C 1214.73,177.932 1226.93,168.732 1226.93,159.232 C 1226.93,153.632 1222.43,149.932 1216.03,149.932 C 1203.83,149.932 1194.03,159.032 1194.03,168.632 C 1194.03,174.432 1198.83,177.932 1204.83,177.932"
     id="path1063" />
  <circle
     style="fill:#ffbf00;fill-opacity:1;stroke:none;stroke-width:1.9;stroke-linecap:round;stroke-linejoin:round"
     id="circle1609"
     cx="434.56299"
     cy="163.93201"
     r="56.692913" />
  <path
     class=""
     stroke="#000000"
     stroke-width="2.5"
     stroke-linecap="round"
     stroke-linejoin="round"
     fill-rule="evenodd"
     d="M 1309.62,166.432 C 1326.82,130.09 1376.39,117.59 1408.76,141.432 C 1377.86,123.408 1328.28,135.908 1309.62,166.432"
     id="path881" />
  <path
     class=""
     stroke="#000000"
     stroke-width="2.5"
     stroke-linecap="round"
     stroke-linejoin="round"
     fill-rule="evenodd"
     d="M 1143.53,128.932 C 1172.66,95.0608 1230.92,95.0608 1260.05,128.932 C 1230.92,101.061 1172.66,101.061 1143.53,128.932"
     id="path883" />
  <path
     class=""
     stroke="#000000"
     stroke-width="2.5"
     stroke-linecap="round"
     stroke-linejoin="round"
     fill-rule="evenodd"
     d="M 929.084,103.932 C 959.991,68.7741 1021.81,68.7741 1052.71,103.932 C 1021.81,74.7741 959.991,74.7741 929.084,103.932"
     id="path885" />
  <path
     class=""
     stroke="#000000"
     stroke-width="2.5"
     stroke-linecap="round"
     stroke-linejoin="round"
     fill-rule="evenodd"
     d="M 743.638,128.932 C 774.546,93.7741 836.361,93.7741 867.269,128.932 C 836.361,99.7741 774.546,99.7741 743.638,128.932"
     id="path887" />
  <path
     class=""
     stroke="#000000"
     stroke-width="2.5"
     stroke-linecap="round"
     stroke-linejoin="round"
     fill-rule="evenodd"
     d="M 558.193,166.432 C 582.046,125.295 643.861,112.795 681.823,141.432 C 645.05,118.676 583.235,131.176 558.193,166.432"
     id="path889" />
  <path
     class=""
     stroke="#000000"
     stroke-width="2.5"
     stroke-linecap="round"
     stroke-linejoin="round"
     fill-rule="evenodd"
     d="M 367.617,128.932 C 399.807,92.8913 464.188,92.8913 496.378,128.932 C 464.188,98.8913 399.807,98.8913 367.617,128.932"
     id="path891" />
  <polyline
     class=""
     stroke="#000000"
     stroke-width="4"
     stroke-linejoin="bevel"
     points="1100.08,162.307 1100.08,265.557"
     id="polyline893" />
  <polyline
     class=""
     stroke="#000000"
     stroke-width="4"
     stroke-linejoin="bevel"
     points="324.168,162.307 324.168,265.557"
     id="polyline895" />
  <path
     id="polyline897"
     style="stroke:#000000;stroke-width:3.25;stroke-linejoin:bevel"
     d="M 1102.08,163.932 H 1525.9111"
     class=""
     sodipodi:nodetypes="cc" />
  <path
     id="polyline899"
     style="stroke:#000000;stroke-width:3.25;stroke-linejoin:bevel"
     d="M 1102.08,188.932 H 1525.9111"
     class=""
     sodipodi:nodetypes="cc" />
  <path
     id="polyline901"
     style="stroke:#000000;stroke-width:3.25;stroke-linejoin:bevel"
     d="M 1102.08,213.932 H 1525.9111"
     class=""
     sodipodi:nodetypes="cc" />
  <path
     id="polyline903"
     style="stroke:#000000;stroke-width:3.25;stroke-linejoin:bevel"
     d="M 1102.08,238.932 H 1525.9111"
     class=""
     sodipodi:nodetypes="cc" />
  <path
     id="polyline905"
     style="stroke:#000000;stroke-width:3.25;stroke-linejoin:bevel"
     d="M 1102.08,263.932 H 1525.9111"
     class=""
     sodipodi:nodetypes="cc" />
  <polyline
     class=""
     stroke="#000000"
     stroke-width="3.25"
     stroke-linejoin="bevel"
     points="326.168,163.932 1102.08,163.932"
     id="polyline907" />
  <polyline
     class=""
     stroke="#000000"
     stroke-width="3.25"
     stroke-linejoin="bevel"
     points="326.168,188.932 1102.08,188.932"
     id="polyline909" />
  <polyline
     class=""
     stroke="#000000"
     stroke-width="3.25"
     stroke-linejoin="bevel"
     points="326.168,213.932 1102.08,213.932"
     id="polyline911" />
  <polyline
     class=""
     stroke="#000000"
     stroke-width="3.25"
     stroke-linejoin="bevel"
     points="326.168,238.932 1102.08,238.932"
     id="polyline913" />
  <polyline
     class=""
     stroke="#000000"
     stroke-width="3.25"
     stroke-linejoin="bevel"
     points="326.168,263.932 1102.08,263.932"
     id="polyline915" />
  <polyline
     class=""
     stroke="#000000"
     stroke-width="3.25"
     stroke-linejoin="bevel"
     points="21.4081,163.932 326.168,163.932"
     id="polyline917" />
  <polyline
     class=""
     stroke="#000000"
     stroke-width="3.25"
     stroke-linejoin="bevel"
     points="21.4081,188.932 326.168,188.932"
     id="polyline919" />
  <polyline
     class=""
     stroke="#000000"
     stroke-width="3.25"
     stroke-linejoin="bevel"
     points="21.4081,213.932 326.168,213.932"
     id="polyline921" />
  <polyline
     class=""
     stroke="#000000"
     stroke-width="3.25"
     stroke-linejoin="bevel"
     points="21.4081,238.932 326.168,238.932"
     id="polyline923" />
  <polyline
     class=""
     stroke="#000000"
     stroke-width="3.25"
     stroke-linejoin="bevel"
     points="21.4081,263.932 326.168,263.932"
     id="polyline925" />
  <path
     class=""
     d="M 1172.53,183.432 C 1172.63,183.432 1173.13,183.332 1173.23,183.232 C 1174.63,182.632 1180.23,180.232 1183.13,180.232 C 1184.13,180.232 1184.83,180.532 1184.83,181.332 V 196.232 C 1184.83,196.932 1185.33,197.432 1186.03,197.432 H 1187.33 C 1187.93,197.432 1188.53,196.932 1188.53,196.232 V 146.032 C 1188.53,145.532 1188.13,145.232 1187.73,145.232 C 1187.63,145.232 1187.43,145.232 1187.33,145.332 L 1185.83,145.832 C 1185.63,145.832 1185.53,145.932 1185.43,145.932 C 1185.43,145.932 1179.03,148.232 1176.43,148.232 C 1175.83,148.232 1175.43,148.132 1175.43,147.732 V 131.032 C 1175.43,130.332 1174.83,129.832 1174.23,129.832 H 1172.93 C 1172.23,129.832 1171.73,130.332 1171.73,131.032 V 182.532 C 1171.73,183.132 1172.03,183.432 1172.53,183.432 M 1175.43,160.032 C 1175.43,158.632 1181.53,156.032 1183.93,156.032 C 1184.53,156.032 1184.83,156.132 1184.83,156.532 V 166.832 C 1184.83,168.632 1179.13,170.932 1176.63,170.932 C 1175.93,170.932 1175.43,170.732 1175.43,170.332 V 160.032"
     id="path927" />
  <path
     class=""
     d="M 396.616,183.432 C 396.716,183.432 397.216,183.332 397.316,183.232 C 398.716,182.632 404.316,180.232 407.216,180.232 C 408.216,180.232 408.916,180.532 408.916,181.332 V 196.232 C 408.916,196.932 409.416,197.432 410.116,197.432 H 411.416 C 412.016,197.432 412.616,196.932 412.616,196.232 V 146.032 C 412.616,145.532 412.216,145.232 411.816,145.232 C 411.716,145.232 411.516,145.232 411.416,145.332 L 409.916,145.832 C 409.716,145.832 409.616,145.932 409.516,145.932 C 409.516,145.932 403.116,148.232 400.516,148.232 C 399.916,148.232 399.516,148.132 399.516,147.732 V 131.032 C 399.516,130.332 398.916,129.832 398.316,129.832 H 397.016 C 396.316,129.832 395.816,130.332 395.816,131.032 V 182.532 C 395.816,183.132 396.116,183.432 396.616,183.432 M 399.516,160.032 C 399.516,158.632 405.616,156.032 408.016,156.032 C 408.616,156.032 408.916,156.132 408.916,156.532 V 166.832 C 408.916,168.632 403.216,170.932 400.716,170.932 C 400.016,170.932 399.516,170.732 399.516,170.332 V 160.032"
     id="path929" />
  <polyline
     class=""
     stroke="#000000"
     stroke-width="4"
     stroke-linecap="square"
     stroke-linejoin="bevel"
     points="1031.26,138.932 1074.16,138.932"
     id="polyline931" />
  <polyline
     class=""
     stroke="#000000"
     stroke-width="4"
     stroke-linecap="square"
     stroke-linejoin="bevel"
     points="907.635,138.932 950.533,138.932"
     id="polyline933" />
  <polyline
     class=""
     stroke="#000000"
     stroke-width="4"
     stroke-linecap="square"
     stroke-linejoin="bevel"
     points="969.45,138.932 1012.35,138.932"
     id="polyline935" />
  <polyline
     class=""
     stroke="#000000"
     stroke-width="3"
     stroke-linecap="round"
     stroke-linejoin="bevel"
     points="1393.81,167.292 1393.81,238.932"
     id="polyline937" />
  <polyline
     class=""
     stroke="#000000"
     stroke-width="3"
     stroke-linecap="round"
     stroke-linejoin="bevel"
     points="1473.28,235.572 1473.28,154.557"
     id="polyline939"
     transform="translate(-29.89)" />
  <polyline
     class=""
     stroke="#000000"
     stroke-width="3"
     stroke-linecap="round"
     stroke-linejoin="bevel"
     points="1294.67,192.292 1294.67,263.932"
     id="polyline941" />
  <polyline
     class=""
     stroke="#000000"
     stroke-width="3"
     stroke-linecap="round"
     stroke-linejoin="bevel"
     points="1195.53,167.292 1195.53,232.682"
     id="polyline943" />
  <polyline
     class=""
     stroke="#000000"
     stroke-width="3"
     stroke-linecap="round"
     stroke-linejoin="bevel"
     points="1245.1,154.792 1245.1,232.682"
     id="polyline945" />
  <polyline
     class=""
     stroke="#000000"
     stroke-width="3"
     stroke-linecap="round"
     stroke-linejoin="bevel"
     points="1344.24,179.792 1344.24,251.432"
     id="polyline947" />
  <polyline
     class=""
     stroke="#000000"
     stroke-width="3"
     stroke-linecap="round"
     stroke-linejoin="bevel"
     points="1037.76,129.792 1037.76,207.682"
     id="polyline949" />
  <polyline
     class=""
     stroke="#000000"
     stroke-width="3"
     stroke-linecap="round"
     stroke-linejoin="bevel"
     points="1128.58,154.792 1128.58,232.682"
     id="polyline951" />
  <polyline
     class=""
     stroke="#000000"
     stroke-width="3"
     stroke-linecap="round"
     stroke-linejoin="bevel"
     points="852.319,154.792 852.319,232.682"
     id="polyline953" />
  <polyline
     class=""
     stroke="#000000"
     stroke-width="3"
     stroke-linecap="round"
     stroke-linejoin="bevel"
     points="914.135,129.792 914.135,207.682"
     id="polyline955" />
  <polyline
     class=""
     stroke="#000000"
     stroke-width="3"
     stroke-linecap="round"
     stroke-linejoin="bevel"
     points="975.95,142.292 975.95,207.682"
     id="polyline957" />
  <polyline
     class=""
     stroke="#000000"
     stroke-width="3"
     stroke-linecap="round"
     stroke-linejoin="bevel"
     points="666.874,167.292 666.874,238.932"
     id="polyline959" />
  <polyline
     class=""
     stroke="#000000"
     stroke-width="3"
     stroke-linecap="round"
     stroke-linejoin="bevel"
     points="728.689,154.792 728.689,232.682"
     id="polyline961" />
  <polyline
     class=""
     stroke="#000000"
     stroke-width="3"
     stroke-linecap="round"
     stroke-linejoin="bevel"
     points="790.504,167.292 790.504,232.682"
     id="polyline963" />
  <polyline
     class=""
     stroke="#000000"
     stroke-width="3"
     stroke-linecap="round"
     stroke-linejoin="bevel"
     points="543.244,192.292 543.244,263.932"
     id="polyline965" />
  <polyline
     class=""
     stroke="#000000"
     stroke-width="3"
     stroke-linecap="round"
     stroke-linejoin="bevel"
     points="481.428,154.792 481.428,232.682"
     id="polyline967" />
  <polyline
     class=""
     stroke="#000000"
     stroke-width="3"
     stroke-linecap="round"
     stroke-linejoin="bevel"
     points="605.059,179.792 605.059,251.432"
     id="polyline969" />
  <polyline
     class=""
     stroke="#000000"
     stroke-width="3"
     stroke-linecap="round"
     stroke-linejoin="bevel"
     points="261.807,154.792 261.807,238.932"
     id="polyline971" />
  <polyline
     class=""
     stroke="#000000"
     stroke-width="3"
     stroke-linecap="round"
     stroke-linejoin="bevel"
     points="352.668,154.792 352.668,232.682"
     id="polyline973" />
  <polyline
     class=""
     stroke="#000000"
     stroke-width="3"
     stroke-linecap="round"
     stroke-linejoin="bevel"
     points="419.613,167.292 419.613,232.682"
     id="polyline975" />
  <path
     class=""
     d="M 1403.11,177.932 C 1413.01,177.932 1425.21,168.732 1425.21,159.232 C 1425.21,153.632 1420.71,149.932 1414.31,149.932 C 1402.11,149.932 1392.31,159.032 1392.31,168.632 C 1392.31,174.432 1397.11,177.932 1403.11,177.932"
     id="path979" />
  <path
     class=""
     d="M 1204.83,177.932 C 1214.73,177.932 1226.93,168.732 1226.93,159.232 C 1226.93,153.632 1222.43,149.932 1216.03,149.932 C 1203.83,149.932 1194.03,159.032 1194.03,168.632 C 1194.03,174.432 1198.83,177.932 1204.83,177.932"
     id="path981" />
  <path
     class=""
     d="M 1254.4,165.432 C 1264.3,165.432 1276.5,156.232 1276.5,146.732 C 1276.5,141.132 1272,137.432 1265.6,137.432 C 1253.4,137.432 1243.6,146.532 1243.6,156.132 C 1243.6,161.932 1248.4,165.432 1254.4,165.432"
     id="path983" />
  <path
     class=""
     d="M 1303.97,202.932 C 1313.87,202.932 1326.07,193.732 1326.07,184.232 C 1326.07,178.632 1321.57,174.932 1315.17,174.932 C 1302.97,174.932 1293.17,184.032 1293.17,193.632 C 1293.17,199.432 1297.97,202.932 1303.97,202.932"
     id="path985" />
  <path
     class=""
     d="M 1353.54,190.432 C 1363.44,190.432 1375.64,181.232 1375.64,171.732 C 1375.64,166.132 1371.14,162.432 1364.74,162.432 C 1352.54,162.432 1342.74,171.532 1342.74,181.132 C 1342.74,186.932 1347.54,190.432 1353.54,190.432"
     id="path987" />
  <path
     class=""
     d="M 1047.06,140.432 C 1056.96,140.432 1069.16,131.232 1069.16,121.732 C 1069.16,116.132 1064.66,112.432 1058.26,112.432 C 1046.06,112.432 1036.26,121.532 1036.26,131.132 C 1036.26,136.932 1041.06,140.432 1047.06,140.432"
     id="path989" />
  <path
     class=""
     d="M 1137.88,165.432 C 1147.78,165.432 1159.98,156.232 1159.98,146.732 C 1159.98,141.132 1155.48,137.432 1149.08,137.432 C 1136.88,137.432 1127.08,146.532 1127.08,156.132 C 1127.08,161.932 1131.88,165.432 1137.88,165.432"
     id="path991" />
  <path
     class=""
     d="M 861.619,165.432 C 871.519,165.432 883.719,156.232 883.719,146.732 C 883.719,141.132 879.219,137.432 872.819,137.432 C 860.619,137.432 850.819,146.532 850.819,156.132 C 850.819,161.932 855.619,165.432 861.619,165.432"
     id="path993" />
  <path
     class=""
     d="M 923.435,140.432 C 933.335,140.432 945.535,131.232 945.535,121.732 C 945.535,116.132 941.035,112.432 934.635,112.432 C 922.435,112.432 912.635,121.532 912.635,131.132 C 912.635,136.932 917.435,140.432 923.435,140.432"
     id="path995" />
  <path
     class=""
     d="M 985.25,152.932 C 995.15,152.932 1007.35,143.732 1007.35,134.232 C 1007.35,128.632 1002.85,124.932 996.45,124.932 C 984.25,124.932 974.45,134.032 974.45,143.632 C 974.45,149.432 979.25,152.932 985.25,152.932"
     id="path997" />
  <path
     class=""
     d="M 676.174,177.932 C 686.074,177.932 698.274,168.732 698.274,159.232 C 698.274,153.632 693.774,149.932 687.374,149.932 C 675.174,149.932 665.374,159.032 665.374,168.632 C 665.374,174.432 670.174,177.932 676.174,177.932"
     id="path999" />
  <path
     class=""
     d="M 737.989,165.432 C 747.889,165.432 760.089,156.232 760.089,146.732 C 760.089,141.132 755.589,137.432 749.189,137.432 C 736.989,137.432 727.189,146.532 727.189,156.132 C 727.189,161.932 731.989,165.432 737.989,165.432"
     id="path1001" />
  <path
     class=""
     d="M 799.804,177.932 C 809.704,177.932 821.904,168.732 821.904,159.232 C 821.904,153.632 817.404,149.932 811.004,149.932 C 798.804,149.932 789.004,159.032 789.004,168.632 C 789.004,174.432 793.804,177.932 799.804,177.932"
     id="path1003" />
  <path
     class=""
     d="M 490.728,165.432 C 500.628,165.432 512.828,156.232 512.828,146.732 C 512.828,141.132 508.328,137.432 501.928,137.432 C 489.728,137.432 479.928,146.532 479.928,156.132 C 479.928,161.932 484.728,165.432 490.728,165.432"
     id="path1005" />
  <path
     class=""
     d="M 552.544,202.932 C 562.444,202.932 574.644,193.732 574.644,184.232 C 574.644,178.632 570.144,174.932 563.744,174.932 C 551.544,174.932 541.744,184.032 541.744,193.632 C 541.744,199.432 546.544,202.932 552.544,202.932"
     id="path1007" />
  <path
     class=""
     d="M 614.359,190.432 C 624.259,190.432 636.459,181.232 636.459,171.732 C 636.459,166.132 631.959,162.432 625.559,162.432 C 613.359,162.432 603.559,171.532 603.559,181.132 C 603.559,186.932 608.359,190.432 614.359,190.432"
     id="path1009" />
  <path
     class=""
     d="M 271.107,165.432 C 281.007,165.432 293.207,156.232 293.207,146.732 C 293.207,141.132 288.707,137.432 282.307,137.432 C 270.107,137.432 260.307,146.532 260.307,156.132 C 260.307,161.932 265.107,165.432 271.107,165.432"
     id="path1011" />
  <path
     class=""
     d="M 361.968,165.432 C 371.868,165.432 384.068,156.232 384.068,146.732 C 384.068,141.132 379.568,137.432 373.168,137.432 C 360.968,137.432 351.168,146.532 351.168,156.132 C 351.168,161.932 355.968,165.432 361.968,165.432"
     id="path1013" />
  <path
     class=""
     d="M 428.913,177.932 C 438.813,177.932 451.013,168.732 451.013,159.232 C 451.013,153.632 446.513,149.932 440.113,149.932 C 427.913,149.932 418.113,159.032 418.113,168.632 C 418.113,174.432 422.913,177.932 428.913,177.932"
     id="path1015" />
  <path
     class=""
     d="M 67.1081,162.732 C 49.7081,162.732 41.9081,175.432 41.9081,185.032 C 41.9081,193.032 46.1081,199.932 54.2081,199.932 C 60.5081,199.932 64.8081,195.532 64.8081,189.332 C 64.8081,182.932 60.1081,178.932 55.2081,178.932 C 52.5081,178.932 51.5081,179.632 50.2081,179.632 C 48.9081,179.632 48.6081,178.832 48.6081,177.832 C 48.6081,173.832 54.6081,166.532 64.8081,166.532 C 75.4081,166.532 80.0081,176.932 80.0081,192.632 C 80.0081,220.532 66.2081,236.132 42.9081,249.432 C 42.0081,249.932 41.4081,250.432 41.4081,251.232 C 41.4081,251.832 41.8081,252.432 42.7081,252.432 C 43.2081,252.432 43.8081,252.232 44.4081,251.932 C 69.0081,239.932 95.0081,222.132 95.0081,191.732 C 95.0081,174.332 84.4081,162.732 67.1081,162.732 M 104.908,196.032 C 101.808,196.032 99.5081,198.332 99.5081,201.432 C 99.5081,204.532 101.808,206.832 104.908,206.832 C 108.008,206.832 110.308,204.532 110.308,201.432 C 110.308,198.332 108.008,196.032 104.908,196.032 M 104.808,170.932 C 101.708,170.932 99.3081,173.332 99.3081,176.432 C 99.3081,179.532 101.708,181.932 104.808,181.932 C 107.908,181.932 110.308,179.532 110.308,176.432 C 110.308,173.332 107.908,170.932 104.808,170.932"
     id="path1017" />
  <path
     class=""
     d="M 190.007,259.532 C 190.007,259.532 189.707,253.532 189.707,249.532 C 189.707,247.932 189.807,246.732 189.907,246.332 C 190.607,244.332 194.607,241.432 196.907,241.432 C 199.807,241.432 201.007,244.732 201.007,247.232 C 201.007,252.632 196.407,258.032 192.107,260.732 C 191.707,260.932 191.407,261.032 191.107,261.032 C 190.207,261.032 190.007,260.032 190.007,259.532 M 186.507,268.432 C 186.807,268.832 187.107,268.932 187.407,268.932 C 187.707,268.932 188.007,268.732 188.007,268.732 C 191.007,267.032 193.407,264.332 195.907,262.632 C 204.807,256.432 207.907,250.332 207.907,245.732 C 207.907,240.032 203.507,236.432 198.907,236.132 C 197.207,236.132 194.807,236.932 193.407,237.832 C 192.807,238.332 191.707,239.232 191.207,239.232 C 191.007,239.232 190.907,239.232 190.707,239.132 C 190.007,238.832 189.607,238.132 189.607,237.432 C 189.707,235.232 190.307,211.232 190.307,209.232 C 190.307,208.132 189.407,207.532 188.407,207.532 C 187.007,207.532 185.407,208.532 185.307,210.332 C 185.307,210.332 185.707,267.432 186.507,268.432"
     id="path1019" />
  <path
     class=""
     d="M 165.007,209.532 C 165.007,209.532 164.707,203.532 164.707,199.532 C 164.707,197.932 164.807,196.732 164.907,196.332 C 165.607,194.332 169.607,191.432 171.907,191.432 C 174.807,191.432 176.007,194.732 176.007,197.232 C 176.007,202.632 171.407,208.032 167.107,210.732 C 166.707,210.932 166.407,211.032 166.107,211.032 C 165.207,211.032 165.007,210.032 165.007,209.532 M 161.507,218.432 C 161.807,218.832 162.107,218.932 162.407,218.932 C 162.707,218.932 163.007,218.732 163.007,218.732 C 166.007,217.032 168.407,214.332 170.907,212.632 C 179.807,206.432 182.907,200.332 182.907,195.732 C 182.907,190.032 178.507,186.432 173.907,186.132 C 172.207,186.132 169.807,186.932 168.407,187.832 C 167.807,188.332 166.707,189.232 166.207,189.232 C 166.007,189.232 165.907,189.232 165.707,189.132 C 165.007,188.832 164.607,188.132 164.607,187.432 C 164.707,185.232 165.307,161.232 165.307,159.232 C 165.307,158.132 164.407,157.532 163.407,157.532 C 162.007,157.532 160.407,158.532 160.307,160.332 C 160.307,160.332 160.707,217.432 161.507,218.432"
     id="path1021" />
  <path
     class=""
     d="M 140.007,247.032 C 140.007,247.032 139.707,241.032 139.707,237.032 C 139.707,235.432 139.807,234.232 139.907,233.832 C 140.607,231.832 144.607,228.932 146.907,228.932 C 149.807,228.932 151.007,232.232 151.007,234.732 C 151.007,240.132 146.407,245.532 142.107,248.232 C 141.707,248.432 141.407,248.532 141.107,248.532 C 140.207,248.532 140.007,247.532 140.007,247.032 M 136.507,255.932 C 136.807,256.332 137.107,256.432 137.407,256.432 C 137.707,256.432 138.007,256.232 138.007,256.232 C 141.007,254.532 143.407,251.832 145.907,250.132 C 154.807,243.932 157.907,237.832 157.907,233.232 C 157.907,227.532 153.507,223.932 148.907,223.632 C 147.207,223.632 144.807,224.432 143.407,225.332 C 142.807,225.832 141.707,226.732 141.207,226.732 C 141.007,226.732 140.907,226.732 140.707,226.632 C 140.007,226.332 139.607,225.632 139.607,224.932 C 139.707,222.732 140.307,198.732 140.307,196.732 C 140.307,195.632 139.407,195.032 138.407,195.032 C 137.007,195.032 135.407,196.032 135.307,197.832 C 135.307,197.832 135.707,254.932 136.507,255.932"
     id="path1023" />
  <path
     class=""
     fill-rule="evenodd"
     d="M 1293.17,257.486 L 1395.31,231.73 V 244.621 L 1293.17,270.378 V 257.486"
     id="path1025" />
  <path
     class=""
     fill-rule="evenodd"
     d="M 1127.08,226.432 H 1246.6 V 238.932 H 1127.08 V 226.432"
     id="path1027" />
  <path
     class=""
     fill-rule="evenodd"
     d="M 727.189,226.432 H 853.819 V 238.932 H 727.189 V 226.432"
     id="path1029" />
  <path
     class=""
     fill-rule="evenodd"
     d="M 541.744,257.555 L 668.374,231.949 V 244.702 L 541.744,270.308 V 257.555"
     id="path1031" />
  <path
     class=""
     fill-rule="evenodd"
     d="M 351.168,226.432 H 482.928 V 238.932 H 351.168 V 226.432"
     id="path1033" />
  <path
     class=""
     fill-rule="evenodd"
     d="M 912.635,201.432 H 1039.26 V 213.932 H 912.635 V 201.432"
     id="path1035" />
  <path
     class=""
     d="M 284.307,161.432 C 285.707,165.632 286.407,170.632 286.407,175.132 C 286.407,181.032 283.907,189.432 282.407,192.832 C 278.707,201.232 273.707,209.332 260.307,213.832 V 237.332 C 260.307,238.532 260.807,238.832 261.407,238.832 C 263.307,238.832 264.107,238.232 264.307,236.632 C 266.007,227.132 273.407,218.432 278.507,210.532 C 284.807,200.632 290.907,188.732 290.907,176.232 C 290.907,168.432 288.907,161.332 288.107,158.132 C 287.807,157.032 287.207,156.632 286.507,156.632 C 285.007,156.632 283.307,158.532 284.307,161.432"
     id="path1037" />
  <path
     class=""
     d="M 1493.53,138.90815 C 1493.53,136.10815 1491.33,133.90815 1488.53,133.90815 C 1485.73,133.90815 1483.53,136.10815 1483.53,138.90815 C 1483.53,141.70815 1485.73,143.90815 1488.53,143.90815 C 1491.33,143.90815 1493.53,141.70815 1493.53,138.90815"
     id="path1039" />
  <path
     class=""
     d="M 21.4471,2712.85 C 21.5804,2712.24 21.7138,2711.71 21.8471,2711.25 C 21.9804,2710.8 22.2671,2710.14 22.7071,2709.27 C 23.1471,2708.41 23.6404,2707.69 24.1871,2707.11 C 24.7338,2706.54 25.4938,2706.03 26.4671,2705.57 C 27.4404,2705.12 28.5404,2704.89 29.7671,2704.89 C 31.8471,2704.89 33.6004,2705.57 35.0271,2706.93 C 36.4538,2708.29 37.1671,2709.97 37.1671,2711.97 C 37.1671,2714.99 35.4604,2718.28 32.0471,2721.85 L 25.3271,2728.89 H 34.8871 C 35.7938,2728.89 36.4671,2728.74 36.9071,2728.43 C 37.3471,2728.13 37.9404,2727.4 38.6871,2726.25 L 39.2071,2726.45 L 37.0071,2731.93 H 21.4071 V 2731.45 L 28.5271,2723.89 C 31.9938,2720.21 33.7271,2716.75 33.7271,2713.49 C 33.7271,2711.81 33.2071,2710.45 32.1671,2709.41 C 31.1271,2708.37 29.7671,2707.85 28.0871,2707.85 C 26.7004,2707.85 25.5871,2708.23 24.7471,2708.99 C 23.9071,2709.75 23.0871,2711.11 22.2871,2713.05 L 21.4471,2712.85"
     id="path1041" />
  <path
     class=""
     d="M 1452.69,165.432 C 1462.59,165.432 1474.79,156.232 1474.79,146.732 C 1474.79,141.132 1470.29,137.432 1463.89,137.432 C 1451.69,137.432 1441.89,146.532 1441.89,156.132 C 1441.89,161.932 1446.69,165.432 1452.69,165.432"
     id="path1082" />
  <text
     xml:space="preserve"
     style="font-size:53.3333px;line-height:1.25;font-family:'Libertinus Sans';-inkscape-font-specification:'Libertinus Sans';letter-spacing:0px;word-spacing:0px;fill:#ff00ff"
     x="16.39477"
     y="47.24477"
     id="text650"><tspan
       sodipodi:role="line"
       id="tspan648"
       x="16.39477"
       y="47.24477">Es-Dur: Das vorletzte ♭ entspricht der Tonika einer Dur-Tonart.</tspan></text>
  <metadata
     id="metadata2657">
    <rdf:RDF>
      <cc:Work
         rdf:about="">
        <dc:title>Unbenannt</dc:title>
      </cc:Work>
    </rdf:RDF>
  </metadata>
</svg>
