<?xml version="1.0" encoding="UTF-8" standalone="no"?>
<svg
   width="1555"
   height="312"
   viewBox="0 0 1555 312"
   version="1.2"
   id="svg1459"
   sodipodi:docname="Bach_Cellosuite_Es-Dur_Altsax._notiert.svg"
   inkscape:version="1.1-dev (0486c1a, 2020-10-10)"
   xmlns:inkscape="http://www.inkscape.org/namespaces/inkscape"
   xmlns:sodipodi="http://sodipodi.sourceforge.net/DTD/sodipodi-0.dtd"
   xmlns="http://www.w3.org/2000/svg"
   xmlns:svg="http://www.w3.org/2000/svg"
   xmlns:rdf="http://www.w3.org/1999/02/22-rdf-syntax-ns#"
   xmlns:cc="http://creativecommons.org/ns#"
   xmlns:dc="http://purl.org/dc/elements/1.1/">
  <defs
     id="defs1463" />
  <sodipodi:namedview
     pagecolor="#ffffff"
     bordercolor="#666666"
     borderopacity="1"
     objecttolerance="10"
     gridtolerance="10"
     guidetolerance="10"
     inkscape:pageopacity="0"
     inkscape:pageshadow="2"
     inkscape:window-width="817"
     inkscape:window-height="480"
     id="namedview1461"
     showgrid="false"
     inkscape:zoom="0.12467084"
     inkscape:cx="1066.8092"
     inkscape:cy="264.69702"
     inkscape:window-x="534"
     inkscape:window-y="36"
     inkscape:window-maximized="0"
     inkscape:current-layer="svg1459"
     height="312px" />
  <title
     id="title1301">Unbenannt</title>
  <desc
     id="desc1303">Generated by MuseScore 3.5.2</desc>
  <circle
     style="fill:#ffbf00;fill-opacity:1;stroke:none;stroke-width:1.9;stroke-linecap:round;stroke-linejoin:round"
     id="circle1061"
     cx="1199.1129"
     cy="185.96007"
     r="56.692913" />
  <circle
     style="fill:#ffbf00;fill-opacity:1;stroke:none;stroke-width:1.9;stroke-linecap:round;stroke-linejoin:round"
     id="circle1609"
     cx="382.05594"
     cy="192.13107"
     r="56.692913" />
  <path
     class=""
     stroke="#000000"
     stroke-width="2.5"
     stroke-linecap="round"
     stroke-linejoin="round"
     fill-rule="evenodd"
     d="M 1321.95,238.015 C 1356.31,258.928 1413.06,246.428 1435.44,213.015 C 1414.35,252.287 1357.6,264.787 1321.95,238.015"
     id="path1305" />
  <path
     class=""
     stroke="#000000"
     stroke-width="2.5"
     stroke-linecap="round"
     stroke-linejoin="round"
     fill-rule="evenodd"
     d="M 1133.42,210.286 C 1166.36,240.832 1232.26,240.832 1265.21,210.286 C 1232.26,246.832 1166.36,246.832 1133.42,210.286"
     id="path1307" />
  <path
     class=""
     stroke="#000000"
     stroke-width="2.5"
     stroke-linecap="round"
     stroke-linejoin="round"
     fill-rule="evenodd"
     d="M 908.886,175.515 C 941.475,205.823 1006.65,205.823 1039.24,175.515 C 1006.65,211.823 941.475,211.823 908.886,175.515"
     id="path1309" />
  <path
     class=""
     stroke="#000000"
     stroke-width="2.5"
     stroke-linecap="round"
     stroke-linejoin="round"
     fill-rule="evenodd"
     d="M 713.356,200.515 C 745.944,230.823 811.121,230.823 843.71,200.515 C 811.121,236.823 745.944,236.823 713.356,200.515"
     id="path1311" />
  <path
     class=""
     stroke="#000000"
     stroke-width="2.5"
     stroke-linecap="round"
     stroke-linejoin="round"
     fill-rule="evenodd"
     d="M 517.826,238.015 C 556.197,261.916 621.373,249.416 648.179,213.015 C 622.503,255.308 557.327,267.808 517.826,238.015"
     id="path1313" />
  <path
     class=""
     stroke="#000000"
     stroke-width="2.5"
     stroke-linecap="round"
     stroke-linejoin="round"
     fill-rule="evenodd"
     d="M 312.425,207.562 C 347.481,239.454 417.593,239.454 452.649,207.562 C 417.593,245.454 347.481,245.454 312.425,207.562"
     id="path1315" />
  <polyline
     class=""
     stroke="#000000"
     stroke-width="4"
     stroke-linejoin="bevel"
     points="1089.97,101.39 1089.97,204.64"
     id="polyline1317" />
  <polyline
     class=""
     stroke="#000000"
     stroke-width="4"
     stroke-linejoin="bevel"
     points="268.976,101.39 268.976,204.64"
     id="polyline1319" />
  <path
     id="polyline1321"
     style="stroke:#000000;stroke-width:3.25;stroke-linejoin:bevel"
     d="M 1091.97,103.015 H 1538.4698"
     class=""
     sodipodi:nodetypes="cc" />
  <path
     id="polyline1323"
     style="stroke:#000000;stroke-width:3.25;stroke-linejoin:bevel"
     d="M 1091.97,128.015 H 1538.4698"
     class=""
     sodipodi:nodetypes="cc" />
  <path
     id="polyline1325"
     style="stroke:#000000;stroke-width:3.25;stroke-linejoin:bevel"
     d="M 1091.97,153.015 H 1538.4698"
     class=""
     sodipodi:nodetypes="cc" />
  <path
     id="polyline1327"
     style="stroke:#000000;stroke-width:3.25;stroke-linejoin:bevel"
     d="M 1091.97,178.015 H 1538.4698"
     class=""
     sodipodi:nodetypes="cc" />
  <path
     id="polyline1329"
     style="stroke:#000000;stroke-width:3.25;stroke-linejoin:bevel"
     d="M 1091.97,203.015 H 1538.4698"
     class=""
     sodipodi:nodetypes="cc" />
  <polyline
     class=""
     stroke="#000000"
     stroke-width="3.25"
     stroke-linejoin="bevel"
     points="270.976,103.015 1091.97,103.015"
     id="polyline1331" />
  <polyline
     class=""
     stroke="#000000"
     stroke-width="3.25"
     stroke-linejoin="bevel"
     points="270.976,128.015 1091.97,128.015"
     id="polyline1333" />
  <polyline
     class=""
     stroke="#000000"
     stroke-width="3.25"
     stroke-linejoin="bevel"
     points="270.976,153.015 1091.97,153.015"
     id="polyline1335" />
  <polyline
     class=""
     stroke="#000000"
     stroke-width="3.25"
     stroke-linejoin="bevel"
     points="270.976,178.015 1091.97,178.015"
     id="polyline1337" />
  <polyline
     class=""
     stroke="#000000"
     stroke-width="3.25"
     stroke-linejoin="bevel"
     points="270.976,203.015 1091.97,203.015"
     id="polyline1339" />
  <polyline
     class=""
     stroke="#000000"
     stroke-width="3.25"
     stroke-linejoin="bevel"
     points="3.39402,103.015 270.976,103.015"
     id="polyline1341" />
  <polyline
     class=""
     stroke="#000000"
     stroke-width="3.25"
     stroke-linejoin="bevel"
     points="3.39402,128.015 270.976,128.015"
     id="polyline1343" />
  <polyline
     class=""
     stroke="#000000"
     stroke-width="3.25"
     stroke-linejoin="bevel"
     points="3.39402,153.015 270.976,153.015"
     id="polyline1345" />
  <polyline
     class=""
     stroke="#000000"
     stroke-width="3.25"
     stroke-linejoin="bevel"
     points="3.39402,178.015 270.976,178.015"
     id="polyline1347" />
  <polyline
     class=""
     stroke="#000000"
     stroke-width="3.25"
     stroke-linejoin="bevel"
     points="3.39402,203.015 270.976,203.015"
     id="polyline1349" />
  <path
     class=""
     d="M 1162.42,211.415 C 1162.52,211.415 1162.72,211.315 1162.82,211.315 C 1162.82,211.315 1164.22,210.715 1165.12,210.415 C 1165.22,210.315 1165.32,210.315 1165.42,210.315 C 1166.12,210.315 1166.62,211.415 1166.62,211.915 V 224.215 C 1166.62,224.815 1167.22,225.315 1167.92,225.315 C 1168.92,225.315 1169.62,224.815 1169.62,224.215 V 210.315 C 1169.62,209.015 1170.12,208.315 1170.62,208.115 L 1176.72,205.615 C 1176.82,205.615 1177.02,205.515 1177.12,205.515 C 1177.92,205.515 1178.42,206.715 1178.42,207.315 V 219.815 C 1178.42,220.415 1179.02,220.915 1179.72,220.915 C 1180.82,220.915 1181.42,220.415 1181.42,219.815 V 205.615 C 1181.42,204.815 1181.82,203.615 1182.52,203.315 C 1183.22,203.015 1185.32,202.215 1185.32,202.215 C 1186.02,201.915 1186.52,201.115 1186.52,200.515 V 193.415 C 1186.52,192.915 1186.22,192.615 1185.82,192.615 C 1185.62,192.615 1185.52,192.615 1185.32,192.715 L 1182.72,193.715 C 1182.12,193.715 1181.42,193.115 1181.42,191.915 V 182.615 C 1181.42,181.915 1181.92,180.015 1182.72,179.715 L 1185.32,178.715 C 1186.02,178.415 1186.52,177.615 1186.52,177.015 V 169.915 C 1186.52,169.415 1186.22,169.115 1185.82,169.115 C 1185.62,169.115 1185.52,169.115 1185.32,169.215 C 1185.32,169.215 1183.32,170.015 1182.82,170.115 C 1182.12,170.115 1181.42,169.615 1181.42,168.815 V 156.615 C 1181.42,156.015 1180.82,155.515 1180.02,155.515 C 1179.02,155.515 1178.42,156.015 1178.42,156.615 V 169.615 C 1178.32,170.615 1178.02,171.915 1177.12,172.515 C 1175.92,173.215 1172.52,174.615 1170.82,175.015 C 1169.92,175.015 1169.62,173.815 1169.62,173.015 V 161.015 C 1169.62,160.415 1168.92,159.915 1168.22,159.915 C 1167.22,159.915 1166.62,160.415 1166.62,161.015 V 174.515 C 1166.62,175.915 1166.02,176.915 1165.42,177.215 C 1164.82,177.515 1162.82,178.315 1162.82,178.315 C 1162.12,178.515 1161.62,179.315 1161.62,179.915 V 187.015 C 1161.62,187.615 1161.92,187.915 1162.42,187.915 C 1162.82,187.915 1164.72,187.015 1165.02,186.815 C 1166.02,186.815 1166.62,187.315 1166.62,188.515 V 198.415 C 1166.62,199.515 1166.12,200.415 1165.52,200.715 C 1164.92,200.915 1162.82,201.815 1162.82,201.815 C 1162.12,202.015 1161.62,202.815 1161.62,203.415 V 210.515 C 1161.62,211.115 1161.92,211.415 1162.42,211.415 M 1169.62,186.115 C 1169.82,184.415 1174.42,182.315 1176.92,182.315 C 1177.62,182.315 1178.22,182.515 1178.42,182.915 C 1178.62,183.415 1178.82,185.915 1178.82,188.615 C 1178.82,191.315 1178.62,194.115 1178.42,195.015 C 1177.82,197.015 1173.12,199.015 1170.82,199.015 C 1170.22,199.015 1169.72,198.815 1169.62,198.515 C 1169.42,198.115 1169.32,195.915 1169.32,193.515 C 1169.32,190.415 1169.42,186.915 1169.62,186.115"
     id="path1351" />
  <path
     class=""
     d="M 341.425,211.415 C 341.525,211.415 341.725,211.315 341.825,211.315 C 341.825,211.315 343.225,210.715 344.125,210.415 C 344.225,210.315 344.325,210.315 344.425,210.315 C 345.125,210.315 345.625,211.415 345.625,211.915 V 224.215 C 345.625,224.815 346.225,225.315 346.925,225.315 C 347.925,225.315 348.625,224.815 348.625,224.215 V 210.315 C 348.625,209.015 349.125,208.315 349.625,208.115 L 355.725,205.615 C 355.825,205.615 356.025,205.515 356.125,205.515 C 356.925,205.515 357.425,206.715 357.425,207.315 V 219.815 C 357.425,220.415 358.025,220.915 358.725,220.915 C 359.825,220.915 360.425,220.415 360.425,219.815 V 205.615 C 360.425,204.815 360.825,203.615 361.525,203.315 C 362.225,203.015 364.325,202.215 364.325,202.215 C 365.025,201.915 365.525,201.115 365.525,200.515 V 193.415 C 365.525,192.915 365.225,192.615 364.825,192.615 C 364.625,192.615 364.525,192.615 364.325,192.715 L 361.725,193.715 C 361.125,193.715 360.425,193.115 360.425,191.915 V 182.615 C 360.425,181.915 360.925,180.015 361.725,179.715 L 364.325,178.715 C 365.025,178.415 365.525,177.615 365.525,177.015 V 169.915 C 365.525,169.415 365.225,169.115 364.825,169.115 C 364.625,169.115 364.525,169.115 364.325,169.215 C 364.325,169.215 362.325,170.015 361.825,170.115 C 361.125,170.115 360.425,169.615 360.425,168.815 V 156.615 C 360.425,156.015 359.825,155.515 359.025,155.515 C 358.025,155.515 357.425,156.015 357.425,156.615 V 169.615 C 357.325,170.615 357.025,171.915 356.125,172.515 C 354.925,173.215 351.525,174.615 349.825,175.015 C 348.925,175.015 348.625,173.815 348.625,173.015 V 161.015 C 348.625,160.415 347.925,159.915 347.225,159.915 C 346.225,159.915 345.625,160.415 345.625,161.015 V 174.515 C 345.625,175.915 345.025,176.915 344.425,177.215 C 343.825,177.515 341.825,178.315 341.825,178.315 C 341.125,178.515 340.625,179.315 340.625,179.915 V 187.015 C 340.625,187.615 340.925,187.915 341.425,187.915 C 341.825,187.915 343.725,187.015 344.025,186.815 C 345.025,186.815 345.625,187.315 345.625,188.515 V 198.415 C 345.625,199.515 345.125,200.415 344.525,200.715 C 343.925,200.915 341.825,201.815 341.825,201.815 C 341.125,202.015 340.625,202.815 340.625,203.415 V 210.515 C 340.625,211.115 340.925,211.415 341.425,211.415 M 348.625,186.115 C 348.825,184.415 353.425,182.315 355.925,182.315 C 356.625,182.315 357.225,182.515 357.425,182.915 C 357.625,183.415 357.825,185.915 357.825,188.615 C 357.825,191.315 357.625,194.115 357.425,195.015 C 356.825,197.015 352.125,199.015 349.825,199.015 C 349.225,199.015 348.725,198.815 348.625,198.515 C 348.425,198.115 348.325,195.915 348.325,193.515 C 348.325,190.415 348.425,186.915 348.625,186.115"
     id="path1353" />
  <polyline
     class=""
     stroke="#000000"
     stroke-width="3"
     stroke-linecap="round"
     stroke-linejoin="bevel"
     points="1393.65,199.655 1393.65,115.515"
     id="polyline1359" />
  <polyline
     class=""
     stroke="#000000"
     stroke-width="3"
     stroke-linecap="round"
     stroke-linejoin="bevel"
     points="1450.39,187.155 1450.39,109.265"
     id="polyline1361" />
  <path
     id="polyline1363"
     style="stroke:#000000;stroke-width:3;stroke-linecap:round;stroke-linejoin:bevel"
     d="M 1507.14,101.015 V 168.00881"
     class=""
     sodipodi:nodetypes="cc" />
  <polyline
     class=""
     stroke="#000000"
     stroke-width="3"
     stroke-linecap="round"
     stroke-linejoin="bevel"
     points="1223.41,187.155 1223.41,103.015"
     id="polyline1365" />
  <polyline
     class=""
     stroke="#000000"
     stroke-width="3"
     stroke-linecap="round"
     stroke-linejoin="bevel"
     points="1280.16,174.655 1280.16,103.015"
     id="polyline1367" />
  <polyline
     class=""
     stroke="#000000"
     stroke-width="3"
     stroke-linecap="round"
     stroke-linejoin="bevel"
     points="1336.9,212.155 1336.9,121.765"
     id="polyline1369" />
  <polyline
     class=""
     stroke="#000000"
     stroke-width="3"
     stroke-linecap="round"
     stroke-linejoin="bevel"
     points="989.012,162.155 989.012,78.0152"
     id="polyline1371" />
  <polyline
     class=""
     stroke="#000000"
     stroke-width="3"
     stroke-linecap="round"
     stroke-linejoin="bevel"
     points="1054.19,149.655 1054.19,78.0152"
     id="polyline1373" />
  <polyline
     class=""
     stroke="#000000"
     stroke-width="3"
     stroke-linecap="round"
     stroke-linejoin="bevel"
     points="1148.37,174.655 1148.37,103.015"
     id="polyline1375" />
  <polyline
     class=""
     stroke="#000000"
     stroke-width="3"
     stroke-linecap="round"
     stroke-linejoin="bevel"
     points="858.659,174.655 858.659,103.015"
     id="polyline1377" />
  <polyline
     class=""
     stroke="#000000"
     stroke-width="3"
     stroke-linecap="round"
     stroke-linejoin="bevel"
     points="923.836,149.655 923.836,78.0152"
     id="polyline1379" />
  <polyline
     class=""
     stroke="#000000"
     stroke-width="3"
     stroke-linecap="round"
     stroke-linejoin="bevel"
     points="663.128,187.155 663.128,109.265"
     id="polyline1381" />
  <polyline
     class=""
     stroke="#000000"
     stroke-width="3"
     stroke-linecap="round"
     stroke-linejoin="bevel"
     points="728.305,174.655 728.305,103.015"
     id="polyline1383" />
  <polyline
     class=""
     stroke="#000000"
     stroke-width="3"
     stroke-linecap="round"
     stroke-linejoin="bevel"
     points="793.482,187.155 793.482,103.015"
     id="polyline1385" />
  <polyline
     class=""
     stroke="#000000"
     stroke-width="3"
     stroke-linecap="round"
     stroke-linejoin="bevel"
     points="467.598,174.655 467.598,103.015"
     id="polyline1387" />
  <polyline
     class=""
     stroke="#000000"
     stroke-width="3"
     stroke-linecap="round"
     stroke-linejoin="bevel"
     points="532.775,212.155 532.775,121.765"
     id="polyline1389" />
  <polyline
     class=""
     stroke="#000000"
     stroke-width="3"
     stroke-linecap="round"
     stroke-linejoin="bevel"
     points="597.952,199.655 597.952,115.515"
     id="polyline1391" />
  <polyline
     class=""
     stroke="#000000"
     stroke-width="3"
     stroke-linecap="round"
     stroke-linejoin="bevel"
     points="327.375,174.655 327.375,103.015"
     id="polyline1393" />
  <polyline
     class=""
     stroke="#000000"
     stroke-width="3"
     stroke-linecap="round"
     stroke-linejoin="bevel"
     points="402.421,187.155 402.421,103.015"
     id="polyline1395" />
  <polyline
     class=""
     stroke="#000000"
     stroke-width="3"
     stroke-linecap="round"
     stroke-linejoin="bevel"
     points="209.386,174.655 209.386,93.6402"
     id="polyline1397" />
  <path
     class=""
     d="M 1373.05,217.015 C 1382.95,217.015 1395.15,207.815 1395.15,198.315 C 1395.15,192.715 1390.65,189.015 1384.25,189.015 C 1372.05,189.015 1362.25,198.115 1362.25,207.715 C 1362.25,213.515 1367.05,217.015 1373.05,217.015"
     id="path1399" />
  <path
     class=""
     d="M 1429.79,204.515 C 1439.69,204.515 1451.89,195.315 1451.89,185.815 C 1451.89,180.215 1447.39,176.515 1440.99,176.515 C 1428.79,176.515 1418.99,185.615 1418.99,195.215 C 1418.99,201.015 1423.79,204.515 1429.79,204.515"
     id="path1401" />
  <path
     class=""
     d="M 1497.84,164.015 C 1487.94,164.015 1475.74,173.215 1475.74,182.715 C 1475.74,188.315 1480.24,192.015 1486.64,192.015 C 1498.84,192.015 1508.64,182.915 1508.64,173.315 C 1508.64,167.515 1503.84,164.015 1497.84,164.015"
     id="path1403" />
  <path
     class=""
     d="M 1202.81,204.515 C 1212.71,204.515 1224.91,195.315 1224.91,185.815 C 1224.91,180.215 1220.41,176.515 1214.01,176.515 C 1201.81,176.515 1192.01,185.615 1192.01,195.215 C 1192.01,201.015 1196.81,204.515 1202.81,204.515"
     id="path1405" />
  <path
     class=""
     d="M 1316.3,229.515 C 1326.2,229.515 1338.4,220.315 1338.4,210.815 C 1338.4,205.215 1333.9,201.515 1327.5,201.515 C 1315.3,201.515 1305.5,210.615 1305.5,220.215 C 1305.5,226.015 1310.3,229.515 1316.3,229.515"
     id="path1407" />
  <path
     class=""
     d="M 1259.56,192.015 C 1269.46,192.015 1281.66,182.815 1281.66,173.315 C 1281.66,167.715 1277.16,164.015 1270.76,164.015 C 1258.56,164.015 1248.76,173.115 1248.76,182.715 C 1248.76,188.515 1253.56,192.015 1259.56,192.015"
     id="path1409" />
  <path
     class=""
     d="M 1033.59,167.015 C 1043.49,167.015 1055.69,157.815 1055.69,148.315 C 1055.69,142.715 1051.19,139.015 1044.79,139.015 C 1032.59,139.015 1022.79,148.115 1022.79,157.715 C 1022.79,163.515 1027.59,167.015 1033.59,167.015"
     id="path1411" />
  <path
     class=""
     d="M 1127.77,192.015 C 1137.67,192.015 1149.87,182.815 1149.87,173.315 C 1149.87,167.715 1145.37,164.015 1138.97,164.015 C 1126.77,164.015 1116.97,173.115 1116.97,182.715 C 1116.97,188.515 1121.77,192.015 1127.77,192.015"
     id="path1413" />
  <path
     class=""
     d="M 838.06,192.015 C 847.96,192.015 860.16,182.815 860.16,173.315 C 860.16,167.715 855.66,164.015 849.26,164.015 C 837.06,164.015 827.26,173.115 827.26,182.715 C 827.26,188.515 832.06,192.015 838.06,192.015"
     id="path1415" />
  <path
     class=""
     d="M 903.237,167.015 C 913.137,167.015 925.337,157.815 925.337,148.315 C 925.337,142.715 920.837,139.015 914.437,139.015 C 902.237,139.015 892.437,148.115 892.437,157.715 C 892.437,163.515 897.237,167.015 903.237,167.015"
     id="path1417" />
  <path
     class=""
     d="M 968.414,179.515 C 978.314,179.515 990.514,170.315 990.514,160.815 C 990.514,155.215 986.014,151.515 979.614,151.515 C 967.414,151.515 957.614,160.615 957.614,170.215 C 957.614,176.015 962.414,179.515 968.414,179.515"
     id="path1419" />
  <path
     class=""
     d="M 642.53,204.515 C 652.43,204.515 664.63,195.315 664.63,185.815 C 664.63,180.215 660.13,176.515 653.73,176.515 C 641.53,176.515 631.73,185.615 631.73,195.215 C 631.73,201.015 636.53,204.515 642.53,204.515"
     id="path1421" />
  <path
     class=""
     d="M 772.884,204.515 C 782.784,204.515 794.984,195.315 794.984,185.815 C 794.984,180.215 790.484,176.515 784.084,176.515 C 771.884,176.515 762.084,185.615 762.084,195.215 C 762.084,201.015 766.884,204.515 772.884,204.515"
     id="path1423" />
  <path
     class=""
     d="M 707.707,192.015 C 717.607,192.015 729.807,182.815 729.807,173.315 C 729.807,167.715 725.307,164.015 718.907,164.015 C 706.707,164.015 696.907,173.115 696.907,182.715 C 696.907,188.515 701.707,192.015 707.707,192.015"
     id="path1425" />
  <path
     class=""
     d="M 512.177,229.515 C 522.077,229.515 534.277,220.315 534.277,210.815 C 534.277,205.215 529.777,201.515 523.377,201.515 C 511.177,201.515 501.377,210.615 501.377,220.215 C 501.377,226.015 506.177,229.515 512.177,229.515"
     id="path1427" />
  <path
     class=""
     d="M 577.353,217.015 C 587.253,217.015 599.453,207.815 599.453,198.315 C 599.453,192.715 594.953,189.015 588.553,189.015 C 576.353,189.015 566.553,198.115 566.553,207.715 C 566.553,213.515 571.353,217.015 577.353,217.015"
     id="path1429" />
  <path
     class=""
     d="M 447,192.015 C 456.9,192.015 469.1,182.815 469.1,173.315 C 469.1,167.715 464.6,164.015 458.2,164.015 C 446,164.015 436.2,173.115 436.2,182.715 C 436.2,188.515 441,192.015 447,192.015"
     id="path1431" />
  <path
     class=""
     d="M 381.823,204.515 C 391.723,204.515 403.923,195.315 403.923,185.815 C 403.923,180.215 399.423,176.515 393.023,176.515 C 380.823,176.515 371.023,185.615 371.023,195.215 C 371.023,201.015 375.823,204.515 381.823,204.515"
     id="path1433" />
  <path
     class=""
     d="M 306.776,192.015 C 316.676,192.015 328.876,182.815 328.876,173.315 C 328.876,167.715 324.376,164.015 317.976,164.015 C 305.776,164.015 295.976,173.115 295.976,182.715 C 295.976,188.515 300.776,192.015 306.776,192.015"
     id="path1435" />
  <path
     class=""
     d="M 188.788,192.015 C 198.688,192.015 210.888,182.815 210.888,173.315 C 210.888,167.715 206.388,164.015 199.988,164.015 C 187.788,164.015 177.988,173.115 177.988,182.715 C 177.988,188.515 182.788,192.015 188.788,192.015"
     id="path1437" />
  <path
     class=""
     d="M 70.394,83.7152 C 73.694,83.7152 76.394,86.4152 76.394,91.9152 C 76.394,103.015 66.894,112.015 58.994,118.915 C 58.694,119.115 58.494,119.315 58.294,119.315 C 57.994,119.315 57.794,118.915 57.694,118.115 C 57.294,115.515 57.094,112.115 57.094,108.915 C 57.094,93.3152 64.294,83.7152 70.394,83.7152 M 66.394,167.715 C 66.194,166.615 66.294,166.315 67.094,166.315 C 67.194,166.315 67.394,166.315 67.494,166.315 C 75.594,167.015 82.294,173.815 82.294,182.615 C 82.294,188.915 78.494,194.015 72.894,196.815 C 72.394,197.015 72.094,197.215 71.894,197.215 C 71.494,197.215 71.394,196.915 71.294,196.215 L 66.394,167.715 M 59.494,151.815 C 59.794,153.715 59.794,153.615 57.994,154.215 C 49.194,157.215 43.494,165.115 43.494,173.615 C 43.494,182.615 48.194,189.015 54.994,191.315 C 55.794,191.615 56.994,191.915 57.694,191.915 C 58.494,191.915 58.894,191.415 58.894,190.815 C 58.894,190.115 58.094,189.815 57.394,189.515 C 53.194,187.715 50.194,183.415 50.194,178.815 C 50.194,173.115 54.094,168.815 60.194,167.115 C 60.694,167.015 61.094,166.915 61.394,166.915 C 61.894,166.915 62.094,167.215 62.194,167.915 L 67.194,197.715 C 67.394,198.815 67.294,198.815 65.794,199.115 C 64.194,199.415 62.194,199.615 60.194,199.615 C 42.694,199.615 31.394,189.915 31.394,176.015 C 31.394,159.015 43.894,148.415 55.994,138.615 C 56.394,138.315 56.694,138.115 56.894,138.115 C 57.194,138.115 57.294,138.415 57.394,139.015 L 59.494,151.815 M 60.994,136.515 C 60.794,135.315 60.994,135.215 61.594,134.615 C 72.394,124.515 80.594,111.815 80.594,96.5152 C 80.594,87.8152 78.194,79.2152 74.094,73.2152 C 72.594,71.0152 69.994,68.2152 68.894,68.2152 C 67.494,68.2152 64.394,70.8152 62.394,73.0152 C 54.994,81.2152 52.594,93.7152 52.594,104.115 C 52.594,109.915 53.294,116.415 53.994,120.515 C 54.194,121.715 54.294,121.915 53.094,122.915 C 38.694,134.815 23.394,149.115 23.394,169.315 C 23.394,186.715 35.294,203.215 59.794,203.215 C 62.094,203.215 64.694,203.015 66.694,202.615 C 67.094,202.515 67.294,202.515 67.494,202.515 C 67.894,202.515 68.094,202.715 68.194,203.515 C 69.394,210.215 70.894,218.915 70.894,223.615 C 70.894,238.415 60.894,240.215 54.994,240.215 C 49.594,240.215 46.994,238.615 46.994,237.315 C 46.994,236.615 47.894,236.315 50.194,235.615 C 53.294,234.715 56.894,232.015 56.894,226.215 C 56.894,220.715 53.394,216.015 47.294,216.015 C 40.594,216.015 36.594,221.315 36.594,227.515 C 36.594,234.015 40.494,243.815 55.594,243.815 C 62.294,243.815 75.294,240.815 75.294,223.815 C 75.294,218.115 73.494,208.615 72.394,202.415 C 72.194,201.215 72.294,201.315 73.694,200.715 C 83.794,196.715 90.494,188.215 90.494,176.915 C 90.494,164.115 81.094,152.815 66.394,152.815 C 63.794,152.815 63.794,152.815 63.494,151.015 L 60.994,136.515"
     id="path1439" />
  <path
     class=""
     fill-rule="evenodd"
     d="M 1335.4,115.808 L 1451.89,102.977 V 115.553 L 1335.4,128.383 V 115.808"
     id="path1441" />
  <path
     class=""
     fill-rule="evenodd"
     d="M 1146.87,96.7652 H 1281.66 V 109.265 H 1146.87 V 96.7652"
     id="path1443" />
  <path
     class=""
     fill-rule="evenodd"
     d="M 922.336,71.7652 H 1055.69 V 84.2652 H 922.336 V 71.7652"
     id="path1445" />
  <path
     class=""
     fill-rule="evenodd"
     d="M 726.805,96.7652 H 860.159 V 109.265 H 726.805 V 96.7652"
     id="path1447" />
  <path
     class=""
     fill-rule="evenodd"
     d="M 531.275,115.774 L 664.628,102.987 V 115.544 L 531.275,128.332 V 115.774"
     id="path1449" />
  <path
     class=""
     fill-rule="evenodd"
     d="M 325.875,96.7652 H 469.098 V 109.265 H 325.875 V 96.7652"
     id="path1451" />
  <path
     class=""
     d="M 231.686,173.539 C 231.686,173.539 234.286,164.039 234.286,156.239 C 234.286,143.739 229.086,131.939 222.786,121.939 C 217.686,114.039 213.486,105.439 211.886,95.8386 C 211.586,94.2386 210.786,93.6386 208.886,93.6386 C 208.286,93.6386 207.886,93.9386 207.886,95.1386 V 119.039 C 214.486,120.239 223.986,133.839 227.586,142.339 C 229.086,145.739 229.986,151.439 229.986,157.339 C 229.986,161.839 229.286,166.539 227.586,171.039 C 227.386,171.639 227.286,172.139 227.286,172.539 C 227.286,174.139 228.286,175.039 228.886,175.439 C 228.986,175.539 229.186,175.539 229.386,175.539 C 230.086,175.539 231.286,174.939 231.686,173.539"
     id="path1453" />
  <path
     class=""
     d="M 1527.39,167.515 C 1527.39,164.715 1525.19,162.515 1522.39,162.515 C 1519.59,162.515 1517.39,164.715 1517.39,167.515 C 1517.39,170.315 1519.59,172.515 1522.39,172.515 C 1525.19,172.515 1527.39,170.315 1527.39,167.515"
     id="path1455" />
  <path
     class=""
     d="M 3.43299,1911.22 C 3.56632,1910.61 3.69965,1910.08 3.83299,1909.62 C 3.96632,1909.17 4.25299,1908.51 4.69299,1907.64 C 5.13299,1906.78 5.62632,1906.06 6.17299,1905.48 C 6.71965,1904.91 7.47965,1904.4 8.45299,1903.94 C 9.42632,1903.49 10.5263,1903.26 11.753,1903.26 C 13.833,1903.26 15.5863,1903.94 17.013,1905.3 C 18.4397,1906.66 19.153,1908.34 19.153,1910.34 C 19.153,1913.36 17.4463,1916.65 14.033,1920.22 L 7.31299,1927.26 H 16.873 C 17.7797,1927.26 18.453,1927.11 18.893,1926.8 C 19.333,1926.5 19.9263,1925.77 20.673,1924.62 L 21.193,1924.82 L 18.993,1930.3 H 3.39299 V 1929.82 L 10.513,1922.26 C 13.9797,1918.58 15.713,1915.12 15.713,1911.86 C 15.713,1910.18 15.193,1908.82 14.153,1907.78 C 13.113,1906.74 11.753,1906.22 10.073,1906.22 C 8.68632,1906.22 7.57299,1906.6 6.73299,1907.36 C 5.89299,1908.12 5.07299,1909.48 4.27299,1911.42 L 3.43299,1911.22"
     id="path1457" />
  <text
     xml:space="preserve"
     style="font-size:53.3333px;line-height:1.25;font-family:'Libertinus Sans';-inkscape-font-specification:'Libertinus Sans';letter-spacing:0px;word-spacing:0px;fill:#008080"
     x="0.62068832"
     y="37.226643"
     id="text650"><tspan
       sodipodi:role="line"
       id="tspan648"
       x="0.62068832"
       y="37.226643">C-Dur: keine Vorzeichen</tspan></text>
  <metadata
     id="metadata2865">
    <rdf:RDF>
      <cc:Work
         rdf:about="">
        <dc:title>Unbenannt</dc:title>
      </cc:Work>
    </rdf:RDF>
  </metadata>
</svg>
