<?xml version="1.0" encoding="UTF-8" standalone="no"?>
<svg
   width="1636px"
   height="359px"
   viewBox="0 0 1636 359"
   version="1.2"
   id="svg3388"
   sodipodi:docname="Brahms_4_Kl._in_A_notiert.svg"
   inkscape:version="1.1-dev (0486c1a, 2020-10-10)"
   xmlns:inkscape="http://www.inkscape.org/namespaces/inkscape"
   xmlns:sodipodi="http://sodipodi.sourceforge.net/DTD/sodipodi-0.dtd"
   xmlns="http://www.w3.org/2000/svg"
   xmlns:svg="http://www.w3.org/2000/svg"
   xmlns:rdf="http://www.w3.org/1999/02/22-rdf-syntax-ns#"
   xmlns:cc="http://creativecommons.org/ns#"
   xmlns:dc="http://purl.org/dc/elements/1.1/">
  <defs
     id="defs3392" />
  <sodipodi:namedview
     pagecolor="#ffffff"
     bordercolor="#666666"
     borderopacity="1"
     objecttolerance="10"
     gridtolerance="10"
     guidetolerance="10"
     inkscape:pageopacity="0"
     inkscape:pageshadow="2"
     inkscape:window-width="1262"
     inkscape:window-height="696"
     id="namedview3390"
     showgrid="false"
     inkscape:zoom="0.20805811"
     inkscape:cx="127.36826"
     inkscape:cy="355.66987"
     inkscape:window-x="18"
     inkscape:window-y="82"
     inkscape:window-maximized="0"
     inkscape:current-layer="svg3388" />
  <title
     id="title3222">Unbenannt</title>
  <desc
     id="desc3224">Generated by MuseScore 3.5.2</desc>
  <circle
     style="fill:#00ffff;fill-opacity:1;stroke:none;stroke-width:1.34991;stroke-linecap:round;stroke-linejoin:round"
     id="circle364"
     cx="123.42867"
     cy="211.98567"
     r="37.795277" />
  <circle
     style="fill:#00ff00;fill-opacity:1;stroke:none;stroke-width:1.9;stroke-linecap:round;stroke-linejoin:round"
     id="circle1609-8"
     cx="422.43637"
     cy="207.86478"
     r="56.692913" />
  <circle
     style="fill:#ffbf00;fill-opacity:1;stroke:none;stroke-width:1.9;stroke-linecap:round;stroke-linejoin:round"
     id="circle1609-1"
     cx="497.48337"
     cy="182.86478"
     r="56.692913" />
  <circle
     style="fill:#00ff00;fill-opacity:1;stroke:none;stroke-width:1.9;stroke-linecap:round;stroke-linejoin:round"
     id="circle1609-7"
     cx="773.54974"
     cy="176.63759"
     r="56.692913" />
  <circle
     style="fill:#00ff00;fill-opacity:1;stroke:none;stroke-width:1.9;stroke-linecap:round;stroke-linejoin:round"
     id="circle1609-3"
     cx="881.92706"
     cy="205.45738"
     r="56.692913" />
  <circle
     style="fill:#ffbf00;fill-opacity:1;stroke:none;stroke-width:1.9;stroke-linecap:round;stroke-linejoin:round"
     id="circle1609-9"
     cx="1261.8228"
     cy="181.98531"
     r="56.692913" />
  <circle
     style="fill:#00ff00;fill-opacity:1;stroke:none;stroke-width:1.9;stroke-linecap:round;stroke-linejoin:round"
     id="circle1609"
     cx="1434.7225"
     cy="203.1655"
     r="56.692913" />
  <path
     class=""
     d="M 72.2979,149.632 C 75.5979,149.632 78.2979,152.332 78.2979,157.832 C 78.2979,168.932 68.7979,177.932 60.8979,184.832 C 60.5979,185.032 60.3979,185.232 60.1979,185.232 C 59.8979,185.232 59.6979,184.832 59.5979,184.032 C 59.1979,181.432 58.9979,178.032 58.9979,174.832 C 58.9979,159.232 66.1979,149.632 72.2979,149.632 M 68.2979,233.632 C 68.0979,232.532 68.1979,232.232 68.9979,232.232 C 69.0979,232.232 69.2979,232.232 69.3979,232.232 C 77.4979,232.932 84.1979,239.732 84.1979,248.532 C 84.1979,254.832 80.3979,259.932 74.7979,262.732 C 74.2979,262.932 73.9979,263.132 73.7979,263.132 C 73.3979,263.132 73.2979,262.832 73.1979,262.132 L 68.2979,233.632 M 61.3979,217.732 C 61.6979,219.632 61.6979,219.532 59.8979,220.132 C 51.0979,223.132 45.3979,231.032 45.3979,239.532 C 45.3979,248.532 50.0979,254.932 56.8979,257.232 C 57.6979,257.532 58.8979,257.832 59.5979,257.832 C 60.3979,257.832 60.7979,257.332 60.7979,256.732 C 60.7979,256.032 59.9979,255.732 59.2979,255.432 C 55.0979,253.632 52.0979,249.332 52.0979,244.732 C 52.0979,239.032 55.9979,234.732 62.0979,233.032 C 62.5979,232.932 62.9979,232.832 63.2979,232.832 C 63.7979,232.832 63.9979,233.132 64.0979,233.832 L 69.0979,263.632 C 69.2979,264.732 69.1979,264.732 67.6979,265.032 C 66.0979,265.332 64.0979,265.532 62.0979,265.532 C 44.5979,265.532 33.2979,255.832 33.2979,241.932 C 33.2979,224.932 45.7979,214.332 57.8979,204.532 C 58.2979,204.232 58.5979,204.032 58.7979,204.032 C 59.0979,204.032 59.1979,204.332 59.2979,204.932 L 61.3979,217.732 M 62.8979,202.432 C 62.6979,201.232 62.8979,201.132 63.4979,200.532 C 74.2979,190.432 82.4979,177.732 82.4979,162.432 C 82.4979,153.732 80.0979,145.132 75.9979,139.132 C 74.4979,136.932 71.8979,134.132 70.7979,134.132 C 69.3979,134.132 66.2979,136.732 64.2979,138.932 C 56.8979,147.132 54.4979,159.632 54.4979,170.032 C 54.4979,175.832 55.1979,182.332 55.8979,186.432 C 56.0979,187.632 56.1979,187.832 54.9979,188.832 C 40.5979,200.732 25.2979,215.032 25.2979,235.232 C 25.2979,252.632 37.1979,269.132 61.6979,269.132 C 63.9979,269.132 66.5979,268.932 68.5979,268.532 C 68.9979,268.432 69.1979,268.432 69.3979,268.432 C 69.7979,268.432 69.9979,268.632 70.0979,269.432 C 71.2979,276.132 72.7979,284.832 72.7979,289.532 C 72.7979,304.332 62.7979,306.132 56.8979,306.132 C 51.4979,306.132 48.8979,304.532 48.8979,303.232 C 48.8979,302.532 49.7979,302.232 52.0979,301.532 C 55.1979,300.632 58.7979,297.932 58.7979,292.132 C 58.7979,286.632 55.2979,281.932 49.1979,281.932 C 42.4979,281.932 38.4979,287.232 38.4979,293.432 C 38.4979,299.932 42.3979,309.732 57.4979,309.732 C 64.1979,309.732 77.1979,306.732 77.1979,289.732 C 77.1979,284.032 75.3979,274.532 74.2979,268.332 C 74.0979,267.132 74.1979,267.232 75.5979,266.632 C 85.6979,262.632 92.3979,254.132 92.3979,242.832 C 92.3979,230.032 82.9979,218.732 68.2979,218.732 C 65.6979,218.732 65.6979,218.732 65.3979,216.932 L 62.8979,202.432"
     id="path3346" />
  <g
     id="g4384">
    <g
       id="g4466">
      <path
         id="polyline3272"
         transform="translate(0,16)"
         style="stroke:#000000;stroke-width:3.25;stroke-linejoin:bevel"
         d="M 5.29785,252.932 H 1535.48"
         class=""
         sodipodi:nodetypes="cc" />
      <path
         id="polyline3234"
         style="stroke:#000000;stroke-width:3.25;stroke-linejoin:bevel"
         d="M 1535.48,168.932 H 1617.9602"
         class=""
         sodipodi:nodetypes="cc" />
      <path
         id="polyline3236"
         style="stroke:#000000;stroke-width:3.25;stroke-linejoin:bevel"
         d="M 1535.48,193.932 H 1617.9602"
         class=""
         sodipodi:nodetypes="cc" />
      <path
         id="polyline3238"
         style="stroke:#000000;stroke-width:3.25;stroke-linejoin:bevel"
         d="M 1535.48,218.932 H 1617.9602"
         class=""
         sodipodi:nodetypes="cc" />
      <path
         id="polyline3240"
         style="stroke:#000000;stroke-width:3.25;stroke-linejoin:bevel"
         d="M 1535.48,243.932 H 1617.9602"
         class=""
         sodipodi:nodetypes="cc" />
      <path
         id="polyline3242"
         style="stroke:#000000;stroke-width:3.25;stroke-linejoin:bevel"
         d="M 1535.48,268.932 H 1617.9602"
         class=""
         sodipodi:nodetypes="cc" />
      <path
         id="polyline3264"
         transform="translate(0,16)"
         style="stroke:#000000;stroke-width:3.25;stroke-linejoin:bevel"
         d="M 5.29785,152.932 H 1535.48"
         class=""
         sodipodi:nodetypes="cc" />
      <path
         id="polyline3266"
         transform="translate(0,16)"
         style="stroke:#000000;stroke-width:3.25;stroke-linejoin:bevel"
         d="M 5.29785,177.932 H 1535.48"
         class=""
         sodipodi:nodetypes="cc" />
      <path
         id="polyline3268"
         transform="translate(0,16)"
         style="stroke:#000000;stroke-width:3.25;stroke-linejoin:bevel"
         d="M 5.29785,202.932 H 1535.48"
         class=""
         sodipodi:nodetypes="cc" />
      <path
         id="polyline3270"
         transform="translate(0,16)"
         style="stroke:#000000;stroke-width:3.25;stroke-linejoin:bevel"
         d="M 5.29785,227.932 H 1535.48"
         class=""
         sodipodi:nodetypes="cc" />
    </g>
    <text
       xml:space="preserve"
       style="font-size:42.6667px;line-height:1.25;font-family:'Libertinus Sans';-inkscape-font-specification:'Libertinus Sans';letter-spacing:0px;word-spacing:0px;white-space:pre;shape-inside:url(#rect3462);fill:#00a6a6;fill-opacity:1"
       x="-0.83587581"
       y="-4.1768041"
       id="text1183"
       transform="translate(0,69.808657)"><tspan
         x="1.1796875"
         y="-40.027301"><tspan
           style="fill:#00a6a6;fill-opacity:1">g-Moll: das vorletzte </tspan><tspan
           style="fill:#00a6a6;fill-opacity:1">♭ </tspan><tspan
           dx="0 0 0 0 0 0 0 0 0 0 0 0 0 0 0 0 0 0 0 0 0 0 0 0 0 0 0 0 0 0 0 0 0 0 0 0 0 0 0 0 0 0 0 0 0 0 0 0 0 0 0 0 0 0 -0.00011062622 0 0 0 0 0 0 0 -0.00010967255 0 0 0 0.00013446808 0 0 0 0 0.00013065338"
           style="fill:#00a6a6;fill-opacity:1">der Tonart, das b, gibt die Tonika der parallelen Dur-Tonart, des B-Dur </tspan></tspan><tspan
         x="1.1796875"
         y="13.649636"><tspan
           style="fill:#00a6a6;fill-opacity:1">an.</tspan></tspan></text>
  </g>
  <rect
     style="fill:none;fill-opacity:0.421603;stroke:none;stroke-width:2.35854;stroke-linecap:round;stroke-linejoin:round"
     id="rect3462"
     width="1635.5415"
     height="158.13846"
     x="1.1792713"
     y="-78.820724" />
  <metadata
     id="metadata3464">
    <rdf:RDF>
      <cc:Work
         rdf:about="">
        <dc:title>Unbenannt</dc:title>
      </cc:Work>
    </rdf:RDF>
  </metadata>
  <g
     id="g4454"
     transform="translate(-216.25164,-622.28937)">
    <path
       class=""
       stroke="#000000"
       stroke-width="2.5"
       stroke-linecap="round"
       stroke-linejoin="round"
       fill-rule="evenodd"
       d="M 570.19964,815.61717 C 589.14264,762.95167 660.13864,730.85207 712.19164,751.41787 C 662.61064,736.31927 591.61464,768.41887 570.19964,815.61717"
       id="path3971" />
    <polyline
       class=""
       stroke="#000000"
       stroke-width="4"
       stroke-linejoin="bevel"
       points="1543.35,109.328 1543.35,212.578"
       id="polyline3973"
       transform="translate(200.96864,680.26817)" />
    <polyline
       class=""
       stroke="#000000"
       stroke-width="4"
       stroke-linejoin="bevel"
       points="1126.48,109.328 1126.48,212.578"
       id="polyline3975"
       transform="translate(200.96864,680.26817)" />
    <polyline
       class=""
       stroke="#000000"
       stroke-width="4"
       stroke-linejoin="bevel"
       points="735.996,109.328 735.996,212.578"
       id="polyline3977"
       transform="translate(200.96864,680.26817)" />
    <path
       class=""
       d="M 1611.8286,849.62117 C 1611.9286,849.62117 1612.1286,849.52117 1612.2286,849.52117 C 1612.2286,849.52117 1613.6286,848.92117 1614.5286,848.62117 C 1614.6286,848.52117 1614.7286,848.52117 1614.8286,848.52117 C 1615.5286,848.52117 1616.0286,849.62117 1616.0286,850.12117 V 862.42117 C 1616.0286,863.02117 1616.6286,863.52117 1617.3286,863.52117 C 1618.3286,863.52117 1619.0286,863.02117 1619.0286,862.42117 V 848.52117 C 1619.0286,847.22117 1619.5286,846.52117 1620.0286,846.32117 L 1626.1286,843.82117 C 1626.2286,843.82117 1626.4286,843.72117 1626.5286,843.72117 C 1627.3286,843.72117 1627.8286,844.92117 1627.8286,845.52117 V 858.02117 C 1627.8286,858.62117 1628.4286,859.12117 1629.1286,859.12117 C 1630.2286,859.12117 1630.8286,858.62117 1630.8286,858.02117 V 843.82117 C 1630.8286,843.02117 1631.2286,841.82117 1631.9286,841.52117 C 1632.6286,841.22117 1634.7286,840.42117 1634.7286,840.42117 C 1635.4286,840.12117 1635.9286,839.32117 1635.9286,838.72117 V 831.62117 C 1635.9286,831.12117 1635.6286,830.82117 1635.2286,830.82117 C 1635.0286,830.82117 1634.9286,830.82117 1634.7286,830.92117 L 1632.1286,831.92117 C 1631.5286,831.92117 1630.8286,831.32117 1630.8286,830.12117 V 820.82117 C 1630.8286,820.12117 1631.3286,818.22117 1632.1286,817.92117 L 1634.7286,816.92117 C 1635.4286,816.62117 1635.9286,815.82117 1635.9286,815.22117 V 808.12117 C 1635.9286,807.62117 1635.6286,807.32117 1635.2286,807.32117 C 1635.0286,807.32117 1634.9286,807.32117 1634.7286,807.42117 C 1634.7286,807.42117 1632.7286,808.22117 1632.2286,808.32117 C 1631.5286,808.32117 1630.8286,807.82117 1630.8286,807.02117 V 794.82117 C 1630.8286,794.22117 1630.2286,793.72117 1629.4286,793.72117 C 1628.4286,793.72117 1627.8286,794.22117 1627.8286,794.82117 V 807.82117 C 1627.7286,808.82117 1627.4286,810.12117 1626.5286,810.72117 C 1625.3286,811.42117 1621.9286,812.82117 1620.2286,813.22117 C 1619.3286,813.22117 1619.0286,812.02117 1619.0286,811.22117 V 799.22117 C 1619.0286,798.62117 1618.3286,798.12117 1617.6286,798.12117 C 1616.6286,798.12117 1616.0286,798.62117 1616.0286,799.22117 V 812.72117 C 1616.0286,814.12117 1615.4286,815.12117 1614.8286,815.42117 C 1614.2286,815.72117 1612.2286,816.52117 1612.2286,816.52117 C 1611.5286,816.72117 1611.0286,817.52117 1611.0286,818.12117 V 825.22117 C 1611.0286,825.82117 1611.3286,826.12117 1611.8286,826.12117 C 1612.2286,826.12117 1614.1286,825.22117 1614.4286,825.02117 C 1615.4286,825.02117 1616.0286,825.52117 1616.0286,826.72117 V 836.62117 C 1616.0286,837.72117 1615.5286,838.62117 1614.9286,838.92117 C 1614.3286,839.12117 1612.2286,840.02117 1612.2286,840.02117 C 1611.5286,840.22117 1611.0286,841.02117 1611.0286,841.62117 V 848.72117 C 1611.0286,849.32117 1611.3286,849.62117 1611.8286,849.62117 M 1619.0286,824.32117 C 1619.2286,822.62117 1623.8286,820.52117 1626.3286,820.52117 C 1627.0286,820.52117 1627.6286,820.72117 1627.8286,821.12117 C 1628.0286,821.62117 1628.2286,824.12117 1628.2286,826.82117 C 1628.2286,829.52117 1628.0286,832.32117 1627.8286,833.22117 C 1627.2286,835.22117 1622.5286,837.22117 1620.2286,837.22117 C 1619.6286,837.22117 1619.1286,837.02117 1619.0286,836.72117 C 1618.8286,836.32117 1618.7286,834.12117 1618.7286,831.72117 C 1618.7286,828.62117 1618.8286,825.12117 1619.0286,824.32117"
       id="path4019" />
    <path
       class=""
       d="M 1455.9786,823.22117 C 1456.0786,823.22117 1456.5786,823.12117 1456.6786,823.02117 C 1458.0786,822.42117 1463.6786,820.02117 1466.5786,820.02117 C 1467.5786,820.02117 1468.2786,820.32117 1468.2786,821.12117 V 836.02117 C 1468.2786,836.72117 1468.7786,837.22117 1469.4786,837.22117 H 1470.7786 C 1471.3786,837.22117 1471.9786,836.72117 1471.9786,836.02117 V 785.82117 C 1471.9786,785.32117 1471.5786,785.02117 1471.1786,785.02117 C 1471.0786,785.02117 1470.8786,785.02117 1470.7786,785.12117 L 1469.2786,785.62117 C 1469.0786,785.62117 1468.9786,785.72117 1468.8786,785.72117 C 1468.8786,785.72117 1462.4786,788.02117 1459.8786,788.02117 C 1459.2786,788.02117 1458.8786,787.92117 1458.8786,787.52117 V 770.82137 C 1458.8786,770.12137 1458.2786,769.62137 1457.6786,769.62137 H 1456.3786 C 1455.6786,769.62137 1455.1786,770.12137 1455.1786,770.82137 V 822.32117 C 1455.1786,822.92117 1455.4786,823.22117 1455.9786,823.22117 M 1458.8786,799.82117 C 1458.8786,798.42117 1464.9786,795.82117 1467.3786,795.82117 C 1467.9786,795.82117 1468.2786,795.92117 1468.2786,796.32117 V 806.62117 C 1468.2786,808.42117 1462.5786,810.72117 1460.0786,810.72117 C 1459.3786,810.72117 1458.8786,810.52117 1458.8786,810.12117 V 799.82117"
       id="path4021" />
    <path
       class=""
       d="M 1056.0526,849.62117 C 1056.1526,849.62117 1056.3526,849.52117 1056.4526,849.52117 C 1056.4526,849.52117 1057.8526,848.92117 1058.7526,848.62117 C 1058.8526,848.52117 1058.9526,848.52117 1059.0526,848.52117 C 1059.7526,848.52117 1060.2526,849.62117 1060.2526,850.12117 V 862.42117 C 1060.2526,863.02117 1060.8526,863.52117 1061.5526,863.52117 C 1062.5526,863.52117 1063.2526,863.02117 1063.2526,862.42117 V 848.52117 C 1063.2526,847.22117 1063.7526,846.52117 1064.2526,846.32117 L 1070.3526,843.82117 C 1070.4526,843.82117 1070.6526,843.72117 1070.7526,843.72117 C 1071.5526,843.72117 1072.0526,844.92117 1072.0526,845.52117 V 858.02117 C 1072.0526,858.62117 1072.6526,859.12117 1073.3526,859.12117 C 1074.4526,859.12117 1075.0526,858.62117 1075.0526,858.02117 V 843.82117 C 1075.0526,843.02117 1075.4526,841.82117 1076.1526,841.52117 C 1076.8526,841.22117 1078.9526,840.42117 1078.9526,840.42117 C 1079.6526,840.12117 1080.1526,839.32117 1080.1526,838.72117 V 831.62117 C 1080.1526,831.12117 1079.8526,830.82117 1079.4526,830.82117 C 1079.2526,830.82117 1079.1526,830.82117 1078.9526,830.92117 L 1076.3526,831.92117 C 1075.7526,831.92117 1075.0526,831.32117 1075.0526,830.12117 V 820.82117 C 1075.0526,820.12117 1075.5526,818.22117 1076.3526,817.92117 L 1078.9526,816.92117 C 1079.6526,816.62117 1080.1526,815.82117 1080.1526,815.22117 V 808.12117 C 1080.1526,807.62117 1079.8526,807.32117 1079.4526,807.32117 C 1079.2526,807.32117 1079.1526,807.32117 1078.9526,807.42117 C 1078.9526,807.42117 1076.9526,808.22117 1076.4526,808.32117 C 1075.7526,808.32117 1075.0526,807.82117 1075.0526,807.02117 V 794.82117 C 1075.0526,794.22117 1074.4526,793.72117 1073.6526,793.72117 C 1072.6526,793.72117 1072.0526,794.22117 1072.0526,794.82117 V 807.82117 C 1071.9526,808.82117 1071.6526,810.12117 1070.7526,810.72117 C 1069.5526,811.42117 1066.1526,812.82117 1064.4526,813.22117 C 1063.5526,813.22117 1063.2526,812.02117 1063.2526,811.22117 V 799.22117 C 1063.2526,798.62117 1062.5526,798.12117 1061.8526,798.12117 C 1060.8526,798.12117 1060.2526,798.62117 1060.2526,799.22117 V 812.72117 C 1060.2526,814.12117 1059.6526,815.12117 1059.0526,815.42117 C 1058.4526,815.72117 1056.4526,816.52117 1056.4526,816.52117 C 1055.7526,816.72117 1055.2526,817.52117 1055.2526,818.12117 V 825.22117 C 1055.2526,825.82117 1055.5526,826.12117 1056.0526,826.12117 C 1056.4526,826.12117 1058.3526,825.22117 1058.6526,825.02117 C 1059.6526,825.02117 1060.2526,825.52117 1060.2526,826.72117 V 836.62117 C 1060.2526,837.72117 1059.7526,838.62117 1059.1526,838.92117 C 1058.5526,839.12117 1056.4526,840.02117 1056.4526,840.02117 C 1055.7526,840.22117 1055.2526,841.02117 1055.2526,841.62117 V 848.72117 C 1055.2526,849.32117 1055.5526,849.62117 1056.0526,849.62117 M 1063.2526,824.32117 C 1063.4526,822.62117 1068.0526,820.52117 1070.5526,820.52117 C 1071.2526,820.52117 1071.8526,820.72117 1072.0526,821.12117 C 1072.2526,821.62117 1072.4526,824.12117 1072.4526,826.82117 C 1072.4526,829.52117 1072.2526,832.32117 1072.0526,833.22117 C 1071.4526,835.22117 1066.7526,837.22117 1064.4526,837.22117 C 1063.8526,837.22117 1063.3526,837.02117 1063.2526,836.72117 C 1063.0526,836.32117 1062.9526,834.12117 1062.9526,831.72117 C 1062.9526,828.62117 1063.0526,825.12117 1063.2526,824.32117"
       id="path4023" />
    <path
       class=""
       d="M 952.76464,823.22117 C 952.86464,823.22117 953.36464,823.12117 953.46464,823.02117 C 954.86464,822.42117 960.46464,820.02117 963.36464,820.02117 C 964.36464,820.02117 965.06464,820.32117 965.06464,821.12117 V 836.02117 C 965.06464,836.72117 965.56464,837.22117 966.26464,837.22117 H 967.56464 C 968.16464,837.22117 968.76464,836.72117 968.76464,836.02117 V 785.82117 C 968.76464,785.32117 968.36464,785.02117 967.96464,785.02117 C 967.86464,785.02117 967.66464,785.02117 967.56464,785.12117 L 966.06464,785.62117 C 965.86464,785.62117 965.76464,785.72117 965.66464,785.72117 C 965.66464,785.72117 959.26464,788.02117 956.66464,788.02117 C 956.06464,788.02117 955.66464,787.92117 955.66464,787.52117 V 770.82137 C 955.66464,770.12137 955.06464,769.62137 954.46464,769.62137 H 953.16464 C 952.46464,769.62137 951.96464,770.12137 951.96464,770.82137 V 822.32117 C 951.96464,822.92117 952.26464,823.22117 952.76464,823.22117 M 955.66464,799.82117 C 955.66464,798.42117 961.76464,795.82117 964.16464,795.82117 C 964.76464,795.82117 965.06464,795.92117 965.06464,796.32117 V 806.62117 C 965.06464,808.42117 959.36464,810.72117 956.86464,810.72117 C 956.16464,810.72117 955.66464,810.52117 955.66464,810.12117 V 799.82117"
       id="path4025" />
    <path
       class=""
       d="M 674.24564,823.22117 C 674.34564,823.22117 674.84564,823.12117 674.94564,823.02117 C 676.34564,822.42117 681.94564,820.02117 684.84564,820.02117 C 685.84564,820.02117 686.54564,820.32117 686.54564,821.12117 V 836.02117 C 686.54564,836.72117 687.04564,837.22117 687.74564,837.22117 H 689.04564 C 689.64564,837.22117 690.24564,836.72117 690.24564,836.02117 V 785.82117 C 690.24564,785.32117 689.84564,785.02117 689.44564,785.02117 C 689.34564,785.02117 689.14564,785.02117 689.04564,785.12117 L 687.54564,785.62117 C 687.34564,785.62117 687.24564,785.72117 687.14564,785.72117 C 687.14564,785.72117 680.74564,788.02117 678.14564,788.02117 C 677.54564,788.02117 677.14564,787.92117 677.14564,787.52117 V 770.82137 C 677.14564,770.12137 676.54564,769.62137 675.94564,769.62137 H 674.64564 C 673.94564,769.62137 673.44564,770.12137 673.44564,770.82137 V 822.32117 C 673.44564,822.92117 673.74564,823.22117 674.24564,823.22117 M 677.14564,799.82117 C 677.14564,798.42117 683.24564,795.82117 685.64564,795.82117 C 686.24564,795.82117 686.54564,795.92117 686.54564,796.32117 V 806.62117 C 686.54564,808.42117 680.84564,810.72117 678.34564,810.72117 C 677.64564,810.72117 677.14564,810.52117 677.14564,810.12117 V 799.82117"
       id="path4027" />
    <path
       class=""
       d="M 599.19864,849.62117 C 599.29864,849.62117 599.49864,849.52117 599.59864,849.52117 C 599.59864,849.52117 600.99864,848.92117 601.89864,848.62117 C 601.99864,848.52117 602.09864,848.52117 602.19864,848.52117 C 602.89864,848.52117 603.39864,849.62117 603.39864,850.12117 V 862.42117 C 603.39864,863.02117 603.99864,863.52117 604.69864,863.52117 C 605.69864,863.52117 606.39864,863.02117 606.39864,862.42117 V 848.52117 C 606.39864,847.22117 606.89864,846.52117 607.39864,846.32117 L 613.49864,843.82117 C 613.59864,843.82117 613.79864,843.72117 613.89864,843.72117 C 614.69864,843.72117 615.19864,844.92117 615.19864,845.52117 V 858.02117 C 615.19864,858.62117 615.79864,859.12117 616.49864,859.12117 C 617.59864,859.12117 618.19864,858.62117 618.19864,858.02117 V 843.82117 C 618.19864,843.02117 618.59864,841.82117 619.29864,841.52117 C 619.99864,841.22117 622.09864,840.42117 622.09864,840.42117 C 622.79864,840.12117 623.29864,839.32117 623.29864,838.72117 V 831.62117 C 623.29864,831.12117 622.99864,830.82117 622.59864,830.82117 C 622.39864,830.82117 622.29864,830.82117 622.09864,830.92117 L 619.49864,831.92117 C 618.89864,831.92117 618.19864,831.32117 618.19864,830.12117 V 820.82117 C 618.19864,820.12117 618.69864,818.22117 619.49864,817.92117 L 622.09864,816.92117 C 622.79864,816.62117 623.29864,815.82117 623.29864,815.22117 V 808.12117 C 623.29864,807.62117 622.99864,807.32117 622.59864,807.32117 C 622.39864,807.32117 622.29864,807.32117 622.09864,807.42117 C 622.09864,807.42117 620.09864,808.22117 619.59864,808.32117 C 618.89864,808.32117 618.19864,807.82117 618.19864,807.02117 V 794.82117 C 618.19864,794.22117 617.59864,793.72117 616.79864,793.72117 C 615.79864,793.72117 615.19864,794.22117 615.19864,794.82117 V 807.82117 C 615.09864,808.82117 614.79864,810.12117 613.89864,810.72117 C 612.69864,811.42117 609.29864,812.82117 607.59864,813.22117 C 606.69864,813.22117 606.39864,812.02117 606.39864,811.22117 V 799.22117 C 606.39864,798.62117 605.69864,798.12117 604.99864,798.12117 C 603.99864,798.12117 603.39864,798.62117 603.39864,799.22117 V 812.72117 C 603.39864,814.12117 602.79864,815.12117 602.19864,815.42117 C 601.59864,815.72117 599.59864,816.52117 599.59864,816.52117 C 598.89864,816.72117 598.39864,817.52117 598.39864,818.12117 V 825.22117 C 598.39864,825.82117 598.69864,826.12117 599.19864,826.12117 C 599.59864,826.12117 601.49864,825.22117 601.79864,825.02117 C 602.79864,825.02117 603.39864,825.52117 603.39864,826.72117 V 836.62117 C 603.39864,837.72117 602.89864,838.62117 602.29864,838.92117 C 601.69864,839.12117 599.59864,840.02117 599.59864,840.02117 C 598.89864,840.22117 598.39864,841.02117 598.39864,841.62117 V 848.72117 C 598.39864,849.32117 598.69864,849.62117 599.19864,849.62117 M 606.39864,824.32117 C 606.59864,822.62117 611.19864,820.52117 613.69864,820.52117 C 614.39864,820.52117 614.99864,820.72117 615.19864,821.12117 C 615.39864,821.62117 615.59864,824.12117 615.59864,826.82117 C 615.59864,829.52117 615.39864,832.32117 615.19864,833.22117 C 614.59864,835.22117 609.89864,837.22117 607.59864,837.22117 C 606.99864,837.22117 606.49864,837.02117 606.39864,836.72117 C 606.19864,836.32117 606.09864,834.12117 606.09864,831.72117 C 606.09864,828.62117 606.19864,825.12117 606.39864,824.32117"
       id="path4029" />
    <polyline
       class=""
       stroke="#000000"
       stroke-width="4"
       stroke-linecap="square"
       stroke-linejoin="bevel"
       points="1028.13,85.9532 1071.03,85.9532"
       id="polyline4031"
       transform="translate(200.96864,680.26817)" />
    <polyline
       class=""
       stroke="#000000"
       stroke-width="3"
       stroke-linecap="round"
       stroke-linejoin="bevel"
       points="1601.75,170.093 1601.75,92.2032"
       id="polyline4033"
       transform="translate(200.96864,680.26817)" />
    <polyline
       class=""
       stroke="#000000"
       stroke-width="3"
       stroke-linecap="round"
       stroke-linejoin="bevel"
       points="1441.96,151.813 1441.96,229.703"
       id="polyline4035"
       transform="translate(200.96864,680.26817)" />
    <polyline
       class=""
       stroke="#000000"
       stroke-width="3"
       stroke-linecap="round"
       stroke-linejoin="bevel"
       points="1278,126.813 1278,210.953"
       id="polyline4037"
       transform="translate(200.96864,680.26817)" />
    <polyline
       class=""
       stroke="#000000"
       stroke-width="3"
       stroke-linecap="round"
       stroke-linejoin="bevel"
       points="1341.06,126.813 1341.06,210.953"
       id="polyline4039"
       transform="translate(200.96864,680.26817)" />
    <polyline
       class=""
       stroke="#000000"
       stroke-width="3"
       stroke-linecap="round"
       stroke-linejoin="bevel"
       points="1154.98,114.313 1154.98,198.453"
       id="polyline4041"
       transform="translate(200.96864,680.26817)" />
    <polyline
       class=""
       stroke="#000000"
       stroke-width="3"
       stroke-linecap="round"
       stroke-linejoin="bevel"
       points="1034.63,89.3132 1034.63,173.453"
       id="polyline4043"
       transform="translate(200.96864,680.26817)" />
    <polyline
       class=""
       stroke="#000000"
       stroke-width="3"
       stroke-linecap="round"
       stroke-linejoin="bevel"
       points="886.182,151.813 886.182,235.953"
       id="polyline4045"
       transform="translate(200.96864,680.26817)" />
    <polyline
       class=""
       stroke="#000000"
       stroke-width="3"
       stroke-linecap="round"
       stroke-linejoin="bevel"
       points="973.175,170.093 973.175,92.2032"
       id="polyline4047"
       transform="translate(200.96864,680.26817)" />
    <polyline
       class=""
       stroke="#000000"
       stroke-width="3"
       stroke-linecap="round"
       stroke-linejoin="bevel"
       points="774.793,126.813 774.793,210.953"
       id="polyline4049"
       transform="translate(200.96864,680.26817)" />
    <polyline
       class=""
       stroke="#000000"
       stroke-width="3"
       stroke-linecap="round"
       stroke-linejoin="bevel"
       points="655.756,114.313 655.756,198.453"
       id="polyline4051"
       transform="translate(200.96864,680.26817)" />
    <polyline
       class=""
       stroke="#000000"
       stroke-width="3"
       stroke-linecap="round"
       stroke-linejoin="bevel"
       points="576.015,151.813 576.015,229.703"
       id="polyline4053"
       transform="translate(200.96864,680.26817)" />
    <polyline
       class=""
       stroke="#000000"
       stroke-width="3"
       stroke-linecap="round"
       stroke-linejoin="bevel"
       points="496.274,126.813 496.274,210.953"
       id="polyline4055"
       transform="translate(200.96864,680.26817)" />
    <polyline
       class=""
       stroke="#000000"
       stroke-width="3"
       stroke-linecap="round"
       stroke-linejoin="bevel"
       points="354.282,176.813 354.282,254.703"
       id="polyline4057"
       transform="translate(200.96864,680.26817)" />
    <polyline
       class=""
       stroke="#000000"
       stroke-width="3"
       stroke-linecap="round"
       stroke-linejoin="bevel"
       points="429.329,151.813 429.329,235.953"
       id="polyline4059"
       transform="translate(200.96864,680.26817)" />
    <polyline
       class=""
       stroke="#000000"
       stroke-width="3"
       stroke-linecap="round"
       stroke-linejoin="bevel"
       points="274.167,170.093 274.167,92.2032"
       id="polyline4061"
       transform="translate(200.96864,680.26817)" />
    <path
       class=""
       d="M 1782.1186,867.72117 C 1792.0186,867.72117 1804.2186,858.52117 1804.2186,849.02117 C 1804.2186,843.42117 1799.7186,839.72117 1793.3186,839.72117 C 1781.1186,839.72117 1771.3186,848.82117 1771.3186,858.42117 C 1771.3186,864.22117 1776.1186,867.72117 1782.1186,867.72117"
       id="path4063" />
    <path
       class=""
       d="M 1652.2286,842.72117 C 1662.1286,842.72117 1674.3286,833.52117 1674.3286,824.02117 C 1674.3286,818.42117 1669.8286,814.72117 1663.4286,814.72117 C 1651.2286,814.72117 1641.4286,823.82117 1641.4286,833.42117 C 1641.4286,839.22117 1646.2286,842.72117 1652.2286,842.72117"
       id="path4065" />
    <path
       class=""
       d="M 1488.2686,817.72117 C 1498.1686,817.72117 1510.3686,808.52117 1510.3686,799.02117 C 1510.3686,793.42117 1505.8686,789.72117 1499.4686,789.72117 C 1487.2686,789.72117 1477.4686,798.82117 1477.4686,808.42117 C 1477.4686,814.22117 1482.2686,817.72117 1488.2686,817.72117"
       id="path4067" />
    <path
       class=""
       d="M 1551.3286,817.72117 C 1561.2286,817.72117 1573.4286,808.52117 1573.4286,799.02117 C 1573.4286,793.42117 1568.9286,789.72117 1562.5286,789.72117 C 1550.3286,789.72117 1540.5286,798.82117 1540.5286,808.42117 C 1540.5286,814.22117 1545.3286,817.72117 1551.3286,817.72117"
       id="path4069" />
    <path
       class=""
       d="M 1365.2486,805.22117 C 1375.1486,805.22117 1387.3486,796.02117 1387.3486,786.52117 C 1387.3486,780.92117 1382.8486,777.22137 1376.4486,777.22137 C 1364.2486,777.22137 1354.4486,786.32117 1354.4486,795.92117 C 1354.4486,801.72117 1359.2486,805.22117 1365.2486,805.22117"
       id="path4071" />
    <path
       class=""
       d="M 1244.8986,780.22137 C 1254.7986,780.22137 1266.9986,771.02137 1266.9986,761.52137 C 1266.9986,755.92137 1262.4986,752.22137 1256.0986,752.22137 C 1243.8986,752.22137 1234.0986,761.32137 1234.0986,770.92137 C 1234.0986,776.72137 1238.8986,780.22137 1244.8986,780.22137"
       id="path4073" />
    <path
       class=""
       d="M 1153.5446,867.72117 C 1163.4446,867.72117 1175.6446,858.52117 1175.6446,849.02117 C 1175.6446,843.42117 1171.1446,839.72117 1164.7446,839.72117 C 1152.5446,839.72117 1142.7446,848.82117 1142.7446,858.42117 C 1142.7446,864.22117 1147.5446,867.72117 1153.5446,867.72117"
       id="path4075" />
    <path
       class=""
       d="M 1096.4506,842.72117 C 1106.3506,842.72117 1118.5506,833.52117 1118.5506,824.02117 C 1118.5506,818.42117 1114.0506,814.72117 1107.6506,814.72117 C 1095.4506,814.72117 1085.6506,823.82117 1085.6506,833.42117 C 1085.6506,839.22117 1090.4506,842.72117 1096.4506,842.72117"
       id="path4077" />
    <path
       class=""
       d="M 985.06164,817.72117 C 994.96164,817.72117 1007.1616,808.52117 1007.1616,799.02117 C 1007.1616,793.42117 1002.6616,789.72117 996.26164,789.72117 C 984.06164,789.72117 974.26164,798.82117 974.26164,808.42117 C 974.26164,814.22117 979.06164,817.72117 985.06164,817.72117"
       id="path4079" />
    <path
       class=""
       d="M 866.02464,805.22117 C 875.92464,805.22117 888.12464,796.02117 888.12464,786.52117 C 888.12464,780.92117 883.62464,777.22137 877.22464,777.22137 C 865.02464,777.22137 855.22464,786.32117 855.22464,795.92117 C 855.22464,801.72117 860.02464,805.22117 866.02464,805.22117"
       id="path4081" />
    <path
       class=""
       d="M 786.28364,842.72117 C 796.18364,842.72117 808.38364,833.52117 808.38364,824.02117 C 808.38364,818.42117 803.88364,814.72117 797.48364,814.72117 C 785.28364,814.72117 775.48364,823.82117 775.48364,833.42117 C 775.48364,839.22117 780.28364,842.72117 786.28364,842.72117"
       id="path4083" />
    <path
       class=""
       d="M 706.54264,817.72117 C 716.44264,817.72117 728.64264,808.52117 728.64264,799.02117 C 728.64264,793.42117 724.14264,789.72117 717.74264,789.72117 C 705.54264,789.72117 695.74264,798.82117 695.74264,808.42117 C 695.74264,814.22117 700.54264,817.72117 706.54264,817.72117"
       id="path4085" />
    <path
       class=""
       d="M 564.55064,867.72117 C 574.45064,867.72117 586.65064,858.52117 586.65064,849.02117 C 586.65064,843.42117 582.15064,839.72117 575.75064,839.72117 C 563.55064,839.72117 553.75064,848.82117 553.75064,858.42117 C 553.75064,864.22117 558.55064,867.72117 564.55064,867.72117"
       id="path4087" />
    <path
       class=""
       d="M 639.59764,842.72117 C 649.49764,842.72117 661.69764,833.52117 661.69764,824.02117 C 661.69764,818.42117 657.19764,814.72117 650.79764,814.72117 C 638.59764,814.72117 628.79764,823.82117 628.79764,833.42117 C 628.79764,839.22117 633.59764,842.72117 639.59764,842.72117"
       id="path4089" />
    <path
       class=""
       d="M 454.53664,867.72117 C 464.43664,867.72117 476.63664,858.52117 476.63664,849.02117 C 476.63664,843.42117 472.13664,839.72117 465.73664,839.72117 C 453.53664,839.72117 443.73664,848.82117 443.73664,858.42117 C 443.73664,864.22117 448.53664,867.72117 454.53664,867.72117"
       id="path4091" />
    <path
       class=""
       d="M 363.34364,811.82117 C 363.34364,811.82117 363.04364,805.82117 363.04364,801.82117 C 363.04364,800.22117 363.14364,799.02117 363.24364,798.62117 C 363.94364,796.62117 367.94364,793.72117 370.24364,793.72117 C 373.14364,793.72117 374.34364,797.02117 374.34364,799.52117 C 374.34364,804.92117 369.74364,810.32117 365.44364,813.02117 C 365.04364,813.22117 364.74364,813.32117 364.44364,813.32117 C 363.54364,813.32117 363.34364,812.32117 363.34364,811.82117 M 359.84364,820.72117 C 360.14364,821.12117 360.44364,821.22117 360.74364,821.22117 C 361.04364,821.22117 361.34364,821.02117 361.34364,821.02117 C 364.34364,819.32117 366.74364,816.62117 369.24364,814.92117 C 378.14364,808.72117 381.24364,802.62117 381.24364,798.02117 C 381.24364,792.32117 376.84364,788.72117 372.24364,788.42117 C 370.54364,788.42117 368.14364,789.22117 366.74364,790.12117 C 366.14364,790.62117 365.04364,791.52117 364.54364,791.52117 C 364.34364,791.52117 364.24364,791.52117 364.04364,791.42117 C 363.34364,791.12117 362.94364,790.42117 362.94364,789.72117 C 363.04364,787.52117 363.64364,763.52137 363.64364,761.52137 C 363.64364,760.42137 362.74364,759.82137 361.74364,759.82137 C 360.34364,759.82137 358.74364,760.82137 358.64364,762.62137 C 358.64364,762.62137 359.04364,819.72117 359.84364,820.72117"
       id="path4095" />
    <path
       class=""
       d="M 338.34364,849.32117 C 338.34364,849.32117 338.04364,843.32117 338.04364,839.32117 C 338.04364,837.72117 338.14364,836.52117 338.24364,836.12117 C 338.94364,834.12117 342.94364,831.22117 345.24364,831.22117 C 348.14364,831.22117 349.34364,834.52117 349.34364,837.02117 C 349.34364,842.42117 344.74364,847.82117 340.44364,850.52117 C 340.04364,850.72117 339.74364,850.82117 339.44364,850.82117 C 338.54364,850.82117 338.34364,849.82117 338.34364,849.32117 M 334.84364,858.22117 C 335.14364,858.62117 335.44364,858.72117 335.74364,858.72117 C 336.04364,858.72117 336.34364,858.52117 336.34364,858.52117 C 339.34364,856.82117 341.74364,854.12117 344.24364,852.42117 C 353.14364,846.22117 356.24364,840.12117 356.24364,835.52117 C 356.24364,829.82117 351.84364,826.22117 347.24364,825.92117 C 345.54364,825.92117 343.14364,826.72117 341.74364,827.62117 C 341.14364,828.12117 340.04364,829.02117 339.54364,829.02117 C 339.34364,829.02117 339.24364,829.02117 339.04364,828.92117 C 338.34364,828.62117 337.94364,827.92117 337.94364,827.22117 C 338.04364,825.02117 338.64364,801.02117 338.64364,799.02117 C 338.64364,797.92117 337.74364,797.32117 336.74364,797.32117 C 335.34364,797.32117 333.74364,798.32117 333.64364,800.12117 C 333.64364,800.12117 334.04364,857.22117 334.84364,858.22117"
       id="path4097" />
    <path
       class=""
       d="M 1662.0886,803.72017 C 1662.0886,801.42017 1660.1886,799.52017 1657.8886,799.52017 C 1655.5886,799.52017 1653.6886,801.42017 1653.6886,803.72017 C 1653.6886,806.02017 1655.5886,807.92017 1657.8886,807.92017 C 1660.1886,807.92017 1662.0886,806.02017 1662.0886,803.72017"
       id="path4099" />
    <path
       class=""
       d="M 1498.1386,778.72067 C 1498.1386,776.42067 1496.2386,774.52067 1493.9386,774.52067 C 1491.6386,774.52067 1489.7386,776.42067 1489.7386,778.72067 C 1489.7386,781.02017 1491.6386,782.92017 1493.9386,782.92017 C 1496.2386,782.92017 1498.1386,781.02017 1498.1386,778.72067"
       id="path4101" />
    <path
       class=""
       d="M 1561.1986,778.72067 C 1561.1986,776.42067 1559.2986,774.52067 1556.9986,774.52067 C 1554.6986,774.52067 1552.7986,776.42067 1552.7986,778.72067 C 1552.7986,781.02017 1554.6986,782.92017 1556.9986,782.92017 C 1559.2986,782.92017 1561.1986,781.02017 1561.1986,778.72067"
       id="path4103" />
    <path
       class=""
       d="M 1386.5586,754.12767 C 1387.8586,753.82767 1387.8586,753.12767 1387.8586,752.32767 C 1387.8586,751.52767 1387.8586,750.92767 1386.5586,750.52767 L 1356.5586,740.32767 C 1356.1586,740.22767 1355.7586,740.12767 1355.6586,740.12767 C 1354.7586,740.12767 1354.4586,740.72767 1354.1586,741.52767 C 1354.0586,741.92767 1353.9586,742.22767 1353.9586,742.52767 C 1353.9586,743.02767 1354.2586,743.52767 1355.3586,743.92767 C 1355.3586,743.92767 1376.9586,751.22767 1377.9586,751.62767 C 1378.4586,751.72767 1378.6586,752.02767 1378.6586,752.32767 C 1378.6586,752.62767 1378.4586,752.82767 1377.8586,753.02767 C 1376.7586,753.32767 1355.3586,760.62767 1355.3586,760.62767 C 1354.2586,761.12767 1353.9586,761.62767 1353.9586,762.12767 C 1353.9586,762.42767 1354.0586,762.72767 1354.1586,763.02767 C 1354.4586,763.72767 1354.8586,764.52767 1355.5586,764.52767 C 1355.6586,764.52767 1355.8586,764.52767 1355.9586,764.42767 L 1386.5586,754.12767"
       id="path4105" />
    <path
       class=""
       d="M 1254.7586,741.22067 C 1254.7586,738.92067 1252.8586,737.02067 1250.5586,737.02067 C 1248.2586,737.02067 1246.3586,738.92067 1246.3586,741.22067 C 1246.3586,743.52067 1248.2586,745.42067 1250.5586,745.42067 C 1252.8586,745.42067 1254.7586,743.52067 1254.7586,741.22067"
       id="path4107" />
    <path
       class=""
       d="M 1163.4066,878.71817 C 1163.4066,876.41817 1161.5066,874.51817 1159.2066,874.51817 C 1156.9066,874.51817 1155.0066,876.41817 1155.0066,878.71817 C 1155.0066,881.01817 1156.9066,882.91817 1159.2066,882.91817 C 1161.5066,882.91817 1163.4066,881.01817 1163.4066,878.71817"
       id="path4109" />
    <path
       class=""
       d="M 1106.3126,803.72017 C 1106.3126,801.42017 1104.4126,799.52017 1102.1126,799.52017 C 1099.8126,799.52017 1097.9126,801.42017 1097.9126,803.72017 C 1097.9126,806.02017 1099.8126,807.92017 1102.1126,807.92017 C 1104.4126,807.92017 1106.3126,806.02017 1106.3126,803.72017"
       id="path4111" />
    <path
       class=""
       d="M 1006.3736,766.59637 C 1007.6736,766.29637 1007.6736,765.59637 1007.6736,764.79637 C 1007.6736,763.99637 1007.6736,763.39637 1006.3736,762.99637 L 976.37364,752.79637 C 975.97364,752.69637 975.57364,752.59637 975.47364,752.59637 C 974.57364,752.59637 974.27364,753.19637 973.97364,753.99637 C 973.87364,754.39637 973.77364,754.69637 973.77364,754.99637 C 973.77364,755.49637 974.07364,755.99637 975.17364,756.39637 C 975.17364,756.39637 996.77364,763.69637 997.77364,764.09637 C 998.27364,764.19637 998.47364,764.49637 998.47364,764.79637 C 998.47364,765.09637 998.27364,765.29637 997.67364,765.49637 C 996.57364,765.79637 975.17364,773.09637 975.17364,773.09637 C 974.07364,773.59637 973.77364,774.09637 973.77364,774.59637 C 973.77364,774.89637 973.87364,775.19637 973.97364,775.49637 C 974.27364,776.19637 974.67364,776.99637 975.37364,776.99637 C 975.47364,776.99637 975.67364,776.99637 975.77364,776.89637 L 1006.3736,766.59637"
       id="path4113" />
    <path
       class=""
       d="M 875.88564,766.22067 C 875.88564,763.92067 873.98564,762.02067 871.68564,762.02067 C 869.38564,762.02067 867.48564,763.92067 867.48564,766.22067 C 867.48564,768.52067 869.38564,770.42067 871.68564,770.42067 C 873.98564,770.42067 875.88564,768.52067 875.88564,766.22067"
       id="path4115" />
    <path
       class=""
       d="M 796.14464,803.72017 C 796.14464,801.42017 794.24464,799.52017 791.94464,799.52017 C 789.64464,799.52017 787.74464,801.42017 787.74464,803.72017 C 787.74464,806.02017 789.64464,807.92017 791.94464,807.92017 C 794.24464,807.92017 796.14464,806.02017 796.14464,803.72017"
       id="path4117" />
    <path
       class=""
       d="M 716.40464,778.72067 C 716.40464,776.42067 714.50464,774.52067 712.20464,774.52067 C 709.90464,774.52067 708.00464,776.42067 708.00464,778.72067 C 708.00464,781.02017 709.90464,782.92017 712.20464,782.92017 C 714.50464,782.92017 716.40464,781.02017 716.40464,778.72067"
       id="path4119" />
    <path
       class=""
       fill-rule="evenodd"
       d="M 553.75064,928.52917 L 631.79764,909.03017 V 921.91417 L 553.75064,941.41317 V 928.52917"
       id="path4121" />
    <path
       class=""
       fill-rule="evenodd"
       d="M 553.75064,912.90417 L 631.79764,893.40517 V 906.28917 L 553.75064,925.78817 V 912.90417"
       id="path4123" />
    <path
       class=""
       d="M 1501.4686,813.72117 C 1502.8686,817.92117 1503.5686,822.92117 1503.5686,827.42117 C 1503.5686,833.32117 1501.0686,841.72117 1499.5686,845.12117 C 1495.8686,853.52117 1490.8686,861.62117 1477.4686,866.12117 V 889.62117 C 1477.4686,890.82117 1477.9686,891.12117 1478.5686,891.12117 C 1480.4686,891.12117 1481.2686,890.52117 1481.4686,888.92117 C 1483.1686,879.42117 1490.5686,870.72117 1495.6686,862.82117 C 1501.9686,852.92117 1508.0686,841.02117 1508.0686,828.52117 C 1508.0686,820.72117 1506.0686,813.62117 1505.2686,810.42117 C 1504.9686,809.32117 1504.3686,808.92117 1503.6686,808.92117 C 1502.1686,808.92117 1500.4686,810.82117 1501.4686,813.72117"
       id="path4125" />
    <path
       class=""
       d="M 1109.6506,838.72117 C 1111.0506,842.92117 1111.7506,847.92117 1111.7506,852.42117 C 1111.7506,858.32117 1109.2506,866.72117 1107.7506,870.12117 C 1104.0506,878.52117 1099.0506,886.62117 1085.6506,891.12117 V 914.62117 C 1085.6506,915.82117 1086.1506,916.12117 1086.7506,916.12117 C 1088.6506,916.12117 1089.4506,915.52117 1089.6506,913.92117 C 1091.3506,904.42117 1098.7506,895.72117 1103.8506,887.82117 C 1110.1506,877.92117 1116.2506,866.02117 1116.2506,853.52117 C 1116.2506,845.72117 1114.2506,838.62117 1113.4506,835.42117 C 1113.1506,834.32117 1112.5506,833.92117 1111.8506,833.92117 C 1110.3506,833.92117 1108.6506,835.82117 1109.6506,838.72117"
       id="path4127" />
    <path
       class=""
       d="M 780.66664,737.50427 C 788.63364,736.20427 792.61664,733.43757 792.61664,729.20427 C 792.61664,727.83757 792.20864,726.73757 791.39164,725.90427 C 790.57564,725.07087 789.50064,724.65427 788.16664,724.65427 C 786.13364,724.65427 784.26664,725.77087 782.56664,728.00427 L 781.76664,727.75427 C 782.60064,726.15427 783.74164,724.88757 785.19164,723.95427 C 786.64164,723.02087 788.23364,722.55427 789.96664,722.55427 C 791.96664,722.55427 793.63364,723.15427 794.96664,724.35427 C 796.30064,725.55427 796.96664,727.07087 796.96664,728.90427 C 796.96664,730.60427 796.42564,731.97087 795.34164,733.00427 C 794.25864,734.03757 792.20064,735.13757 789.16664,736.30427 V 736.45427 C 792.36664,737.92087 793.96664,740.40427 793.96664,743.90427 C 793.96664,747.37087 792.68364,750.37087 790.11664,752.90427 C 787.55064,755.43757 784.18364,756.70427 780.01664,756.70427 C 776.28364,756.70427 774.41664,755.72087 774.41664,753.75427 C 774.41664,752.45427 775.15064,751.80427 776.61664,751.80427 C 777.45064,751.80427 778.56664,752.30427 779.96664,753.30427 C 781.36664,754.30427 782.51664,754.80427 783.41664,754.80427 C 785.21664,754.80427 786.75864,754.04587 788.04164,752.52927 C 789.32564,751.01257 789.96664,749.03757 789.96664,746.60427 C 789.96664,743.47087 789.18364,741.30427 787.61664,740.10427 C 786.05064,738.90427 783.73364,738.30427 780.66664,738.30427 V 737.50427"
       id="path4129" />
    <path
       class=""
       d="M 1406.0986,778.72137 C 1406.0986,775.92137 1403.8986,773.72137 1401.0986,773.72137 C 1398.2986,773.72137 1396.0986,775.92137 1396.0986,778.72137 C 1396.0986,781.52117 1398.2986,783.72117 1401.0986,783.72117 C 1403.8986,783.72117 1406.0986,781.52117 1406.0986,778.72137"
       id="path4131" />
    <path
       class=""
       d="M 1025.9106,803.72117 C 1025.9106,800.92117 1023.7106,798.72117 1020.9106,798.72117 C 1018.1106,798.72117 1015.9106,800.92117 1015.9106,803.72117 C 1015.9106,806.52117 1018.1106,808.72117 1020.9106,808.72117 C 1023.7106,808.72117 1025.9106,806.52117 1025.9106,803.72117"
       id="path4133" />
    <path
       class=""
       d="M 495.38564,853.72117 C 495.38564,850.92117 493.18564,848.72117 490.38564,848.72117 C 487.58564,848.72117 485.38564,850.92117 485.38564,853.72117 C 485.38564,856.52117 487.58564,858.72117 490.38564,858.72117 C 493.18564,858.72117 495.38564,856.52117 495.38564,853.72117"
       id="path4135" />
  </g>
</svg>
