<?xml version="1.0" encoding="UTF-8" standalone="no"?>
<svg
   width="1636px"
   height="359px"
   viewBox="0 0 1636 359"
   version="1.2"
   id="svg3388"
   sodipodi:docname="Brahms_4_Kl._in_A_klingend.svg"
   inkscape:version="1.1-dev (0486c1a, 2020-10-10)"
   xmlns:inkscape="http://www.inkscape.org/namespaces/inkscape"
   xmlns:sodipodi="http://sodipodi.sourceforge.net/DTD/sodipodi-0.dtd"
   xmlns="http://www.w3.org/2000/svg"
   xmlns:svg="http://www.w3.org/2000/svg"
   xmlns:rdf="http://www.w3.org/1999/02/22-rdf-syntax-ns#"
   xmlns:cc="http://creativecommons.org/ns#"
   xmlns:dc="http://purl.org/dc/elements/1.1/">
  <defs
     id="defs3392" />
  <sodipodi:namedview
     pagecolor="#ffffff"
     bordercolor="#666666"
     borderopacity="1"
     objecttolerance="10"
     gridtolerance="10"
     guidetolerance="10"
     inkscape:pageopacity="0"
     inkscape:pageshadow="2"
     inkscape:window-width="1262"
     inkscape:window-height="696"
     id="namedview3390"
     showgrid="false"
     inkscape:zoom="0.35096841"
     inkscape:cx="622.56315"
     inkscape:cy="507.16815"
     inkscape:window-x="103"
     inkscape:window-y="86"
     inkscape:window-maximized="0"
     inkscape:current-layer="svg3388" />
  <title
     id="title3222">Unbenannt</title>
  <desc
     id="desc3224">Generated by MuseScore 3.5.2</desc>
  <circle
     style="fill:#ff5cff;fill-opacity:1;stroke:none;stroke-width:1.34991;stroke-linecap:round;stroke-linejoin:round"
     id="circle364"
     cx="129.842"
     cy="168.832"
     r="37.795277" />
  <circle
     style="fill:#00ff00;fill-opacity:1;stroke:none;stroke-width:1.9;stroke-linecap:round;stroke-linejoin:round"
     id="circle1609-8"
     cx="400.35699"
     cy="231.43201"
     r="56.692913" />
  <circle
     style="fill:#ffbf00;fill-opacity:1;stroke:none;stroke-width:1.9;stroke-linecap:round;stroke-linejoin:round"
     id="circle1609-1"
     cx="475.40399"
     cy="206.43201"
     r="56.692913" />
  <circle
     style="fill:#00ff00;fill-opacity:1;stroke:none;stroke-width:1.9;stroke-linecap:round;stroke-linejoin:round"
     id="circle1609-7"
     cx="749.10303"
     cy="206.43201"
     r="56.692913" />
  <circle
     style="fill:#00ff00;fill-opacity:1;stroke:none;stroke-width:1.9;stroke-linecap:round;stroke-linejoin:round"
     id="circle1609-3"
     cx="864.35602"
     cy="231.43201"
     r="56.692913" />
  <circle
     style="fill:#ffbf00;fill-opacity:1;stroke:none;stroke-width:1.9;stroke-linecap:round;stroke-linejoin:round"
     id="circle1609-9"
     cx="1274.8101"
     cy="206.43201"
     r="56.692913" />
  <circle
     style="fill:#00ff00;fill-opacity:1;stroke:none;stroke-width:1.9;stroke-linecap:round;stroke-linejoin:round"
     id="circle1609"
     cx="1443.89"
     cy="231.43201"
     r="56.692913" />
  <path
     class=""
     stroke="#000000"
     stroke-width="2.5"
     stroke-linecap="round"
     stroke-linejoin="round"
     fill-rule="evenodd"
     d="M 340.259,144.292 C 380.977,113.8297 448.549,126.55 475.403,169.733 C 447.439,132.447 379.867,119.726 340.259,144.292"
     id="path3226" />
  <polyline
     class=""
     stroke="#000000"
     stroke-width="4"
     stroke-linejoin="bevel"
     points="1533.48,151.307 1533.48,254.557"
     id="polyline3228"
     transform="translate(0,16)" />
  <polyline
     class=""
     stroke="#000000"
     stroke-width="4"
     stroke-linejoin="bevel"
     points="1104.49,151.307 1104.49,254.557"
     id="polyline3230"
     transform="translate(0,16)" />
  <polyline
     class=""
     stroke="#000000"
     stroke-width="4"
     stroke-linejoin="bevel"
     points="687.254,151.307 687.254,254.557"
     id="polyline3232"
     transform="translate(0,16)" />
  <path
     id="polyline3234"
     style="stroke:#000000;stroke-width:3.25;stroke-linejoin:bevel"
     d="M 1535.48,168.932 H 1617.9602"
     class=""
     sodipodi:nodetypes="cc" />
  <path
     id="polyline3236"
     style="stroke:#000000;stroke-width:3.25;stroke-linejoin:bevel"
     d="M 1535.48,193.932 H 1617.9602"
     class=""
     sodipodi:nodetypes="cc" />
  <path
     id="polyline3238"
     style="stroke:#000000;stroke-width:3.25;stroke-linejoin:bevel"
     d="M 1535.48,218.932 H 1617.9602"
     class=""
     sodipodi:nodetypes="cc" />
  <path
     id="polyline3240"
     style="stroke:#000000;stroke-width:3.25;stroke-linejoin:bevel"
     d="M 1535.48,243.932 H 1617.9602"
     class=""
     sodipodi:nodetypes="cc" />
  <path
     id="polyline3242"
     style="stroke:#000000;stroke-width:3.25;stroke-linejoin:bevel"
     d="M 1535.48,268.932 H 1617.9602"
     class=""
     sodipodi:nodetypes="cc" />
  <polyline
     class=""
     stroke="#000000"
     stroke-width="3.25"
     stroke-linejoin="bevel"
     points="1106.49,152.932 1535.48,152.932"
     id="polyline3244"
     transform="translate(0,16)" />
  <polyline
     class=""
     stroke="#000000"
     stroke-width="3.25"
     stroke-linejoin="bevel"
     points="1106.49,177.932 1535.48,177.932"
     id="polyline3246"
     transform="translate(0,16)" />
  <polyline
     class=""
     stroke="#000000"
     stroke-width="3.25"
     stroke-linejoin="bevel"
     points="1106.49,202.932 1535.48,202.932"
     id="polyline3248"
     transform="translate(0,16)" />
  <polyline
     class=""
     stroke="#000000"
     stroke-width="3.25"
     stroke-linejoin="bevel"
     points="1106.49,227.932 1535.48,227.932"
     id="polyline3250"
     transform="translate(0,16)" />
  <polyline
     class=""
     stroke="#000000"
     stroke-width="3.25"
     stroke-linejoin="bevel"
     points="1106.49,252.932 1535.48,252.932"
     id="polyline3252"
     transform="translate(0,16)" />
  <polyline
     class=""
     stroke="#000000"
     stroke-width="3.25"
     stroke-linejoin="bevel"
     points="689.254,152.932 1106.49,152.932"
     id="polyline3254"
     transform="translate(0,16)" />
  <polyline
     class=""
     stroke="#000000"
     stroke-width="3.25"
     stroke-linejoin="bevel"
     points="689.254,177.932 1106.49,177.932"
     id="polyline3256"
     transform="translate(0,16)" />
  <polyline
     class=""
     stroke="#000000"
     stroke-width="3.25"
     stroke-linejoin="bevel"
     points="689.254,202.932 1106.49,202.932"
     id="polyline3258"
     transform="translate(0,16)" />
  <polyline
     class=""
     stroke="#000000"
     stroke-width="3.25"
     stroke-linejoin="bevel"
     points="689.254,227.932 1106.49,227.932"
     id="polyline3260"
     transform="translate(0,16)" />
  <polyline
     class=""
     stroke="#000000"
     stroke-width="3.25"
     stroke-linejoin="bevel"
     points="689.254,252.932 1106.49,252.932"
     id="polyline3262"
     transform="translate(0,16)" />
  <polyline
     class=""
     stroke="#000000"
     stroke-width="3.25"
     stroke-linejoin="bevel"
     points="5.29785,152.932 689.254,152.932"
     id="polyline3264"
     transform="translate(0,16)" />
  <polyline
     class=""
     stroke="#000000"
     stroke-width="3.25"
     stroke-linejoin="bevel"
     points="5.29785,177.932 689.254,177.932"
     id="polyline3266"
     transform="translate(0,16)" />
  <polyline
     class=""
     stroke="#000000"
     stroke-width="3.25"
     stroke-linejoin="bevel"
     points="5.29785,202.932 689.254,202.932"
     id="polyline3268"
     transform="translate(0,16)" />
  <polyline
     class=""
     stroke="#000000"
     stroke-width="3.25"
     stroke-linejoin="bevel"
     points="5.29785,227.932 689.254,227.932"
     id="polyline3270"
     transform="translate(0,16)" />
  <polyline
     class=""
     stroke="#000000"
     stroke-width="3.25"
     stroke-linejoin="bevel"
     points="5.29785,252.932 689.254,252.932"
     id="polyline3272"
     transform="translate(0,16)" />
  <path
     class=""
     d="M 1397.84,252.332 C 1397.94,252.332 1398.14,252.232 1398.24,252.232 C 1398.24,252.232 1399.64,251.632 1400.54,251.332 C 1400.64,251.232 1400.74,251.232 1400.84,251.232 C 1401.54,251.232 1402.04,252.332 1402.04,252.832 V 265.132 C 1402.04,265.732 1402.64,266.232 1403.34,266.232 C 1404.34,266.232 1405.04,265.732 1405.04,265.132 V 251.232 C 1405.04,249.932 1405.54,249.232 1406.04,249.032 L 1412.14,246.532 C 1412.24,246.532 1412.44,246.432 1412.54,246.432 C 1413.34,246.432 1413.84,247.632 1413.84,248.232 V 260.732 C 1413.84,261.332 1414.44,261.832 1415.14,261.832 C 1416.24,261.832 1416.84,261.332 1416.84,260.732 V 246.532 C 1416.84,245.732 1417.24,244.532 1417.94,244.232 C 1418.64,243.932 1420.74,243.132 1420.74,243.132 C 1421.44,242.832 1421.94,242.032 1421.94,241.432 V 234.332 C 1421.94,233.832 1421.64,233.532 1421.24,233.532 C 1421.04,233.532 1420.94,233.532 1420.74,233.632 L 1418.14,234.632 C 1417.54,234.632 1416.84,234.032 1416.84,232.832 V 223.532 C 1416.84,222.832 1417.34,220.932 1418.14,220.632 L 1420.74,219.632 C 1421.44,219.332 1421.94,218.532 1421.94,217.932 V 210.832 C 1421.94,210.332 1421.64,210.032 1421.24,210.032 C 1421.04,210.032 1420.94,210.032 1420.74,210.132 C 1420.74,210.132 1418.74,210.932 1418.24,211.032 C 1417.54,211.032 1416.84,210.532 1416.84,209.732 V 197.532 C 1416.84,196.932 1416.24,196.432 1415.44,196.432 C 1414.44,196.432 1413.84,196.932 1413.84,197.532 V 210.532 C 1413.74,211.532 1413.44,212.832 1412.54,213.432 C 1411.34,214.132 1407.94,215.532 1406.24,215.932 C 1405.34,215.932 1405.04,214.732 1405.04,213.932 V 201.932 C 1405.04,201.332 1404.34,200.832 1403.64,200.832 C 1402.64,200.832 1402.04,201.332 1402.04,201.932 V 215.432 C 1402.04,216.832 1401.44,217.832 1400.84,218.132 C 1400.24,218.432 1398.24,219.232 1398.24,219.232 C 1397.54,219.432 1397.04,220.232 1397.04,220.832 V 227.932 C 1397.04,228.532 1397.34,228.832 1397.84,228.832 C 1398.24,228.832 1400.14,227.932 1400.44,227.732 C 1401.44,227.732 1402.04,228.232 1402.04,229.432 V 239.332 C 1402.04,240.432 1401.54,241.332 1400.94,241.632 C 1400.34,241.832 1398.24,242.732 1398.24,242.732 C 1397.54,242.932 1397.04,243.732 1397.04,244.332 V 251.432 C 1397.04,252.032 1397.34,252.332 1397.84,252.332 M 1405.04,227.032 C 1405.24,225.332 1409.84,223.232 1412.34,223.232 C 1413.04,223.232 1413.64,223.432 1413.84,223.832 C 1414.04,224.332 1414.24,226.832 1414.24,229.532 C 1414.24,232.232 1414.04,235.032 1413.84,235.932 C 1413.24,237.932 1408.54,239.932 1406.24,239.932 C 1405.64,239.932 1405.14,239.732 1405.04,239.432 C 1404.84,239.032 1404.74,236.832 1404.74,234.432 C 1404.74,231.332 1404.84,227.832 1405.04,227.032"
     id="path3274" />
  <path
     class=""
     d="M 1228.76,227.332 C 1228.86,227.332 1229.06,227.232 1229.16,227.232 C 1229.16,227.232 1230.56,226.632 1231.46,226.332 C 1231.56,226.232 1231.66,226.232 1231.76,226.232 C 1232.46,226.232 1232.96,227.332 1232.96,227.832 V 240.132 C 1232.96,240.732 1233.56,241.232 1234.26,241.232 C 1235.26,241.232 1235.96,240.732 1235.96,240.132 V 226.232 C 1235.96,224.932 1236.46,224.232 1236.96,224.032 L 1243.06,221.532 C 1243.16,221.532 1243.36,221.432 1243.46,221.432 C 1244.26,221.432 1244.76,222.632 1244.76,223.232 V 235.732 C 1244.76,236.332 1245.36,236.832 1246.06,236.832 C 1247.16,236.832 1247.76,236.332 1247.76,235.732 V 221.532 C 1247.76,220.732 1248.16,219.532 1248.86,219.232 C 1249.56,218.932 1251.66,218.132 1251.66,218.132 C 1252.36,217.832 1252.86,217.032 1252.86,216.432 V 209.332 C 1252.86,208.832 1252.56,208.532 1252.16,208.532 C 1251.96,208.532 1251.86,208.532 1251.66,208.632 L 1249.06,209.632 C 1248.46,209.632 1247.76,209.032 1247.76,207.832 V 198.532 C 1247.76,197.832 1248.26,195.932 1249.06,195.632 L 1251.66,194.632 C 1252.36,194.332 1252.86,193.532 1252.86,192.932 V 185.832 C 1252.86,185.332 1252.56,185.032 1252.16,185.032 C 1251.96,185.032 1251.86,185.032 1251.66,185.132 C 1251.66,185.132 1249.66,185.932 1249.16,186.032 C 1248.46,186.032 1247.76,185.532 1247.76,184.732 V 172.532 C 1247.76,171.932 1247.16,171.432 1246.36,171.432 C 1245.36,171.432 1244.76,171.932 1244.76,172.532 V 185.532 C 1244.66,186.532 1244.36,187.832 1243.46,188.432 C 1242.26,189.132 1238.86,190.532 1237.16,190.932 C 1236.26,190.932 1235.96,189.732 1235.96,188.932 V 176.932 C 1235.96,176.332 1235.26,175.832 1234.56,175.832 C 1233.56,175.832 1232.96,176.332 1232.96,176.932 V 190.432 C 1232.96,191.832 1232.36,192.832 1231.76,193.132 C 1231.16,193.432 1229.16,194.232 1229.16,194.232 C 1228.46,194.432 1227.96,195.232 1227.96,195.832 V 202.932 C 1227.96,203.532 1228.26,203.832 1228.76,203.832 C 1229.16,203.832 1231.06,202.932 1231.36,202.732 C 1232.36,202.732 1232.96,203.232 1232.96,204.432 V 214.332 C 1232.96,215.432 1232.46,216.332 1231.86,216.632 C 1231.26,216.832 1229.16,217.732 1229.16,217.732 C 1228.46,217.932 1227.96,218.732 1227.96,219.332 V 226.432 C 1227.96,227.032 1228.26,227.332 1228.76,227.332 M 1235.96,202.032 C 1236.16,200.332 1240.76,198.232 1243.26,198.232 C 1243.96,198.232 1244.56,198.432 1244.76,198.832 C 1244.96,199.332 1245.16,201.832 1245.16,204.532 C 1245.16,207.232 1244.96,210.032 1244.76,210.932 C 1244.16,212.932 1239.46,214.932 1237.16,214.932 C 1236.56,214.932 1236.06,214.732 1235.96,214.432 C 1235.76,214.032 1235.66,211.832 1235.66,209.432 C 1235.66,206.332 1235.76,202.832 1235.96,202.032"
     id="path3276" />
  <path
     class=""
     d="M 818.308,252.332 C 818.408,252.332 818.608,252.232 818.708,252.232 C 818.708,252.232 820.108,251.632 821.008,251.332 C 821.108,251.232 821.208,251.232 821.308,251.232 C 822.008,251.232 822.508,252.332 822.508,252.832 V 265.132 C 822.508,265.732 823.108,266.232 823.808,266.232 C 824.808,266.232 825.508,265.732 825.508,265.132 V 251.232 C 825.508,249.932 826.008,249.232 826.508,249.032 L 832.608,246.532 C 832.708,246.532 832.908,246.432 833.008,246.432 C 833.808,246.432 834.308,247.632 834.308,248.232 V 260.732 C 834.308,261.332 834.908,261.832 835.608,261.832 C 836.708,261.832 837.308,261.332 837.308,260.732 V 246.532 C 837.308,245.732 837.708,244.532 838.408,244.232 C 839.108,243.932 841.208,243.132 841.208,243.132 C 841.908,242.832 842.408,242.032 842.408,241.432 V 234.332 C 842.408,233.832 842.108,233.532 841.708,233.532 C 841.508,233.532 841.408,233.532 841.208,233.632 L 838.608,234.632 C 838.008,234.632 837.308,234.032 837.308,232.832 V 223.532 C 837.308,222.832 837.808,220.932 838.608,220.632 L 841.208,219.632 C 841.908,219.332 842.408,218.532 842.408,217.932 V 210.832 C 842.408,210.332 842.108,210.032 841.708,210.032 C 841.508,210.032 841.408,210.032 841.208,210.132 C 841.208,210.132 839.208,210.932 838.708,211.032 C 838.008,211.032 837.308,210.532 837.308,209.732 V 197.532 C 837.308,196.932 836.708,196.432 835.908,196.432 C 834.908,196.432 834.308,196.932 834.308,197.532 V 210.532 C 834.208,211.532 833.908,212.832 833.008,213.432 C 831.808,214.132 828.408,215.532 826.708,215.932 C 825.808,215.932 825.508,214.732 825.508,213.932 V 201.932 C 825.508,201.332 824.808,200.832 824.108,200.832 C 823.108,200.832 822.508,201.332 822.508,201.932 V 215.432 C 822.508,216.832 821.908,217.832 821.308,218.132 C 820.708,218.432 818.708,219.232 818.708,219.232 C 818.008,219.432 817.508,220.232 817.508,220.832 V 227.932 C 817.508,228.532 817.808,228.832 818.308,228.832 C 818.708,228.832 820.608,227.932 820.908,227.732 C 821.908,227.732 822.508,228.232 822.508,229.432 V 239.332 C 822.508,240.432 822.008,241.332 821.408,241.632 C 820.808,241.832 818.708,242.732 818.708,242.732 C 818.008,242.932 817.508,243.732 817.508,244.332 V 251.432 C 817.508,252.032 817.808,252.332 818.308,252.332 M 825.508,227.032 C 825.708,225.332 830.308,223.232 832.808,223.232 C 833.508,223.232 834.108,223.432 834.308,223.832 C 834.508,224.332 834.708,226.832 834.708,229.532 C 834.708,232.232 834.508,235.032 834.308,235.932 C 833.708,237.932 829.008,239.932 826.708,239.932 C 826.108,239.932 825.608,239.732 825.508,239.432 C 825.308,239.032 825.208,236.832 825.208,234.432 C 825.208,231.332 825.308,227.832 825.508,227.032"
     id="path3278" />
  <path
     class=""
     d="M 703.054,227.332 C 703.154,227.332 703.354,227.232 703.454,227.232 C 703.454,227.232 704.854,226.632 705.754,226.332 C 705.854,226.232 705.954,226.232 706.054,226.232 C 706.754,226.232 707.254,227.332 707.254,227.832 V 240.132 C 707.254,240.732 707.854,241.232 708.554,241.232 C 709.554,241.232 710.254,240.732 710.254,240.132 V 226.232 C 710.254,224.932 710.754,224.232 711.254,224.032 L 717.354,221.532 C 717.454,221.532 717.654,221.432 717.754,221.432 C 718.554,221.432 719.054,222.632 719.054,223.232 V 235.732 C 719.054,236.332 719.654,236.832 720.354,236.832 C 721.454,236.832 722.054,236.332 722.054,235.732 V 221.532 C 722.054,220.732 722.454,219.532 723.154,219.232 C 723.854,218.932 725.954,218.132 725.954,218.132 C 726.654,217.832 727.154,217.032 727.154,216.432 V 209.332 C 727.154,208.832 726.854,208.532 726.454,208.532 C 726.254,208.532 726.154,208.532 725.954,208.632 L 723.354,209.632 C 722.754,209.632 722.054,209.032 722.054,207.832 V 198.532 C 722.054,197.832 722.554,195.932 723.354,195.632 L 725.954,194.632 C 726.654,194.332 727.154,193.532 727.154,192.932 V 185.832 C 727.154,185.332 726.854,185.032 726.454,185.032 C 726.254,185.032 726.154,185.032 725.954,185.132 C 725.954,185.132 723.954,185.932 723.454,186.032 C 722.754,186.032 722.054,185.532 722.054,184.732 V 172.532 C 722.054,171.932 721.454,171.432 720.654,171.432 C 719.654,171.432 719.054,171.932 719.054,172.532 V 185.532 C 718.954,186.532 718.654,187.832 717.754,188.432 C 716.554,189.132 713.154,190.532 711.454,190.932 C 710.554,190.932 710.254,189.732 710.254,188.932 V 176.932 C 710.254,176.332 709.554,175.832 708.854,175.832 C 707.854,175.832 707.254,176.332 707.254,176.932 V 190.432 C 707.254,191.832 706.654,192.832 706.054,193.132 C 705.454,193.432 703.454,194.232 703.454,194.232 C 702.754,194.432 702.254,195.232 702.254,195.832 V 202.932 C 702.254,203.532 702.554,203.832 703.054,203.832 C 703.454,203.832 705.354,202.932 705.654,202.732 C 706.654,202.732 707.254,203.232 707.254,204.432 V 214.332 C 707.254,215.432 706.754,216.332 706.154,216.632 C 705.554,216.832 703.454,217.732 703.454,217.732 C 702.754,217.932 702.254,218.732 702.254,219.332 V 226.432 C 702.254,227.032 702.554,227.332 703.054,227.332 M 710.254,202.032 C 710.454,200.332 715.054,198.232 717.554,198.232 C 718.254,198.232 718.854,198.432 719.054,198.832 C 719.254,199.332 719.454,201.832 719.454,204.532 C 719.454,207.232 719.254,210.032 719.054,210.932 C 718.454,212.932 713.754,214.932 711.454,214.932 C 710.854,214.932 710.354,214.732 710.254,214.432 C 710.054,214.032 709.954,211.832 709.954,209.432 C 709.954,206.332 710.054,202.832 710.254,202.032"
     id="path3280" />
  <path
     class=""
     d="M 429.356,227.332 C 429.456,227.332 429.656,227.232 429.756,227.232 C 429.756,227.232 431.156,226.632 432.056,226.332 C 432.156,226.232 432.256,226.232 432.356,226.232 C 433.056,226.232 433.556,227.332 433.556,227.832 V 240.132 C 433.556,240.732 434.156,241.232 434.856,241.232 C 435.856,241.232 436.556,240.732 436.556,240.132 V 226.232 C 436.556,224.932 437.056,224.232 437.556,224.032 L 443.656,221.532 C 443.756,221.532 443.956,221.432 444.056,221.432 C 444.856,221.432 445.356,222.632 445.356,223.232 V 235.732 C 445.356,236.332 445.956,236.832 446.656,236.832 C 447.756,236.832 448.356,236.332 448.356,235.732 V 221.532 C 448.356,220.732 448.756,219.532 449.456,219.232 C 450.156,218.932 452.256,218.132 452.256,218.132 C 452.956,217.832 453.456,217.032 453.456,216.432 V 209.332 C 453.456,208.832 453.156,208.532 452.756,208.532 C 452.556,208.532 452.456,208.532 452.256,208.632 L 449.656,209.632 C 449.056,209.632 448.356,209.032 448.356,207.832 V 198.532 C 448.356,197.832 448.856,195.932 449.656,195.632 L 452.256,194.632 C 452.956,194.332 453.456,193.532 453.456,192.932 V 185.832 C 453.456,185.332 453.156,185.032 452.756,185.032 C 452.556,185.032 452.456,185.032 452.256,185.132 C 452.256,185.132 450.256,185.932 449.756,186.032 C 449.056,186.032 448.356,185.532 448.356,184.732 V 172.532 C 448.356,171.932 447.756,171.432 446.956,171.432 C 445.956,171.432 445.356,171.932 445.356,172.532 V 185.532 C 445.256,186.532 444.956,187.832 444.056,188.432 C 442.856,189.132 439.456,190.532 437.756,190.932 C 436.856,190.932 436.556,189.732 436.556,188.932 V 176.932 C 436.556,176.332 435.856,175.832 435.156,175.832 C 434.156,175.832 433.556,176.332 433.556,176.932 V 190.432 C 433.556,191.832 432.956,192.832 432.356,193.132 C 431.756,193.432 429.756,194.232 429.756,194.232 C 429.056,194.432 428.556,195.232 428.556,195.832 V 202.932 C 428.556,203.532 428.856,203.832 429.356,203.832 C 429.756,203.832 431.656,202.932 431.956,202.732 C 432.956,202.732 433.556,203.232 433.556,204.432 V 214.332 C 433.556,215.432 433.056,216.332 432.456,216.632 C 431.856,216.832 429.756,217.732 429.756,217.732 C 429.056,217.932 428.556,218.732 428.556,219.332 V 226.432 C 428.556,227.032 428.856,227.332 429.356,227.332 M 436.556,202.032 C 436.756,200.332 441.356,198.232 443.856,198.232 C 444.556,198.232 445.156,198.432 445.356,198.832 C 445.556,199.332 445.756,201.832 445.756,204.532 C 445.756,207.232 445.556,210.032 445.356,210.932 C 444.756,212.932 440.056,214.932 437.756,214.932 C 437.156,214.932 436.656,214.732 436.556,214.432 C 436.356,214.032 436.256,211.832 436.256,209.432 C 436.256,206.332 436.356,202.832 436.556,202.032"
     id="path3282" />
  <path
     class=""
     d="M 354.309,252.332 C 354.409,252.332 354.609,252.232 354.709,252.232 C 354.709,252.232 356.109,251.632 357.009,251.332 C 357.109,251.232 357.209,251.232 357.309,251.232 C 358.009,251.232 358.509,252.332 358.509,252.832 V 265.132 C 358.509,265.732 359.109,266.232 359.809,266.232 C 360.809,266.232 361.509,265.732 361.509,265.132 V 251.232 C 361.509,249.932 362.009,249.232 362.509,249.032 L 368.609,246.532 C 368.709,246.532 368.909,246.432 369.009,246.432 C 369.809,246.432 370.309,247.632 370.309,248.232 V 260.732 C 370.309,261.332 370.909,261.832 371.609,261.832 C 372.709,261.832 373.309,261.332 373.309,260.732 V 246.532 C 373.309,245.732 373.709,244.532 374.409,244.232 C 375.109,243.932 377.209,243.132 377.209,243.132 C 377.909,242.832 378.409,242.032 378.409,241.432 V 234.332 C 378.409,233.832 378.109,233.532 377.709,233.532 C 377.509,233.532 377.409,233.532 377.209,233.632 L 374.609,234.632 C 374.009,234.632 373.309,234.032 373.309,232.832 V 223.532 C 373.309,222.832 373.809,220.932 374.609,220.632 L 377.209,219.632 C 377.909,219.332 378.409,218.532 378.409,217.932 V 210.832 C 378.409,210.332 378.109,210.032 377.709,210.032 C 377.509,210.032 377.409,210.032 377.209,210.132 C 377.209,210.132 375.209,210.932 374.709,211.032 C 374.009,211.032 373.309,210.532 373.309,209.732 V 197.532 C 373.309,196.932 372.709,196.432 371.909,196.432 C 370.909,196.432 370.309,196.932 370.309,197.532 V 210.532 C 370.209,211.532 369.909,212.832 369.009,213.432 C 367.809,214.132 364.409,215.532 362.709,215.932 C 361.809,215.932 361.509,214.732 361.509,213.932 V 201.932 C 361.509,201.332 360.809,200.832 360.109,200.832 C 359.109,200.832 358.509,201.332 358.509,201.932 V 215.432 C 358.509,216.832 357.909,217.832 357.309,218.132 C 356.709,218.432 354.709,219.232 354.709,219.232 C 354.009,219.432 353.509,220.232 353.509,220.832 V 227.932 C 353.509,228.532 353.809,228.832 354.309,228.832 C 354.709,228.832 356.609,227.932 356.909,227.732 C 357.909,227.732 358.509,228.232 358.509,229.432 V 239.332 C 358.509,240.432 358.009,241.332 357.409,241.632 C 356.809,241.832 354.709,242.732 354.709,242.732 C 354.009,242.932 353.509,243.732 353.509,244.332 V 251.432 C 353.509,252.032 353.809,252.332 354.309,252.332 M 361.509,227.032 C 361.709,225.332 366.309,223.232 368.809,223.232 C 369.509,223.232 370.109,223.432 370.309,223.832 C 370.509,224.332 370.709,226.832 370.709,229.532 C 370.709,232.232 370.509,235.032 370.309,235.932 C 369.709,237.932 365.009,239.932 362.709,239.932 C 362.109,239.932 361.609,239.732 361.509,239.432 C 361.309,239.032 361.209,236.832 361.209,234.432 C 361.209,231.332 361.309,227.832 361.509,227.032"
     id="path3284" />
  <polyline
     class=""
     stroke="#000000"
     stroke-width="3"
     stroke-linecap="round"
     stroke-linejoin="bevel"
     points="1591.88,237.072 1591.88,152.932"
     id="polyline3286"
     transform="translate(0,16)" />
  <polyline
     class=""
     stroke="#000000"
     stroke-width="3"
     stroke-linecap="round"
     stroke-linejoin="bevel"
     points="1458.84,212.072 1458.84,134.182"
     id="polyline3288"
     transform="translate(0,16)" />
  <polyline
     class=""
     stroke="#000000"
     stroke-width="3"
     stroke-linecap="round"
     stroke-linejoin="bevel"
     points="1324.89,193.792 1324.89,271.682"
     id="polyline3290"
     transform="translate(0,16)" />
  <polyline
     class=""
     stroke="#000000"
     stroke-width="3"
     stroke-linecap="round"
     stroke-linejoin="bevel"
     points="1259.86,193.792 1259.86,277.932"
     id="polyline3292"
     transform="translate(0,16)" />
  <polyline
     class=""
     stroke="#000000"
     stroke-width="3"
     stroke-linecap="round"
     stroke-linejoin="bevel"
     points="1132.99,181.292 1132.99,262.307"
     id="polyline3294"
     transform="translate(0,16)" />
  <polyline
     class=""
     stroke="#000000"
     stroke-width="3"
     stroke-linecap="round"
     stroke-linejoin="bevel"
     points="1009.47,156.292 1009.47,240.432"
     id="polyline3296"
     transform="translate(0,16)" />
  <polyline
     class=""
     stroke="#000000"
     stroke-width="3"
     stroke-linecap="round"
     stroke-linejoin="bevel"
     points="944.852,237.072 944.852,152.932"
     id="polyline3298"
     transform="translate(0,16)" />
  <polyline
     class=""
     stroke="#000000"
     stroke-width="3"
     stroke-linecap="round"
     stroke-linejoin="bevel"
     points="879.305,212.072 879.305,134.182"
     id="polyline3300"
     transform="translate(0,16)" />
  <polyline
     class=""
     stroke="#000000"
     stroke-width="3"
     stroke-linecap="round"
     stroke-linejoin="bevel"
     points="734.153,193.792 734.153,271.682"
     id="polyline3302"
     transform="translate(0,16)" />
  <polyline
     class=""
     stroke="#000000"
     stroke-width="3"
     stroke-linecap="round"
     stroke-linejoin="bevel"
     points="611.321,181.292 611.321,262.307"
     id="polyline3304"
     transform="translate(0,16)" />
  <polyline
     class=""
     stroke="#000000"
     stroke-width="3"
     stroke-linecap="round"
     stroke-linejoin="bevel"
     points="565.786,212.072 565.786,134.182"
     id="polyline3306"
     transform="translate(0,16)" />
  <polyline
     class=""
     stroke="#000000"
     stroke-width="3"
     stroke-linecap="round"
     stroke-linejoin="bevel"
     points="460.454,193.792 460.454,271.682"
     id="polyline3308"
     transform="translate(0,16)" />
  <polyline
     class=""
     stroke="#000000"
     stroke-width="3"
     stroke-linecap="round"
     stroke-linejoin="bevel"
     points="340.259,237.072 340.259,152.932"
     id="polyline3310"
     transform="translate(0,16)" />
  <polyline
     class=""
     stroke="#000000"
     stroke-width="3"
     stroke-linecap="round"
     stroke-linejoin="bevel"
     points="415.306,212.072 415.306,134.182"
     id="polyline3312"
     transform="translate(0,16)" />
  <polyline
     class=""
     stroke="#000000"
     stroke-width="3"
     stroke-linecap="round"
     stroke-linejoin="bevel"
     points="236.188,237.072 236.188,152.932"
     id="polyline3314"
     transform="translate(0,16)" />
  <path
     class=""
     d="M 1571.28,270.432 C 1581.18,270.432 1593.38,261.232 1593.38,251.732 C 1593.38,246.132 1588.88,242.432 1582.48,242.432 C 1570.28,242.432 1560.48,251.532 1560.48,261.132 C 1560.48,266.932 1565.28,270.432 1571.28,270.432"
     id="path3316" />
  <path
     class=""
     d="M 1438.24,245.432 C 1448.14,245.432 1460.34,236.232 1460.34,226.732 C 1460.34,221.132 1455.84,217.432 1449.44,217.432 C 1437.24,217.432 1427.44,226.532 1427.44,236.132 C 1427.44,241.932 1432.24,245.432 1438.24,245.432"
     id="path3318" />
  <path
     class=""
     d="M 1334.19,220.432 C 1344.09,220.432 1356.29,211.232 1356.29,201.732 C 1356.29,196.132 1351.79,192.432 1345.39,192.432 C 1333.19,192.432 1323.39,201.532 1323.39,211.132 C 1323.39,216.932 1328.19,220.432 1334.19,220.432"
     id="path3320" />
  <path
     class=""
     d="M 1269.16,220.432 C 1279.06,220.432 1291.26,211.232 1291.26,201.732 C 1291.26,196.132 1286.76,192.432 1280.36,192.432 C 1268.16,192.432 1258.36,201.532 1258.36,211.132 C 1258.36,216.932 1263.16,220.432 1269.16,220.432"
     id="path3322" />
  <path
     class=""
     d="M 1142.29,207.932 C 1152.19,207.932 1164.39,198.732 1164.39,189.232 C 1164.39,183.632 1159.89,179.932 1153.49,179.932 C 1141.29,179.932 1131.49,189.032 1131.49,198.632 C 1131.49,204.432 1136.29,207.932 1142.29,207.932"
     id="path3324" />
  <path
     class=""
     d="M 1018.77,182.932 C 1028.67,182.932 1040.87,173.732 1040.87,164.232 C 1040.87,158.632 1036.37,154.932 1029.97,154.932 C 1017.77,154.932 1007.97,164.032 1007.97,173.632 C 1007.97,179.432 1012.77,182.932 1018.77,182.932"
     id="path3326" />
  <path
     class=""
     d="M 924.253,270.432 C 934.153,270.432 946.353,261.232 946.353,251.732 C 946.353,246.132 941.853,242.432 935.453,242.432 C 923.253,242.432 913.453,251.532 913.453,261.132 C 913.453,266.932 918.253,270.432 924.253,270.432"
     id="path3328" />
  <path
     class=""
     d="M 858.706,245.432 C 868.606,245.432 880.806,236.232 880.806,226.732 C 880.806,221.132 876.306,217.432 869.906,217.432 C 857.706,217.432 847.906,226.532 847.906,236.132 C 847.906,241.932 852.706,245.432 858.706,245.432"
     id="path3330" />
  <path
     class=""
     d="M 743.453,220.432 C 753.353,220.432 765.553,211.232 765.553,201.732 C 765.553,196.132 761.053,192.432 754.653,192.432 C 742.453,192.432 732.653,201.532 732.653,211.132 C 732.653,216.932 737.453,220.432 743.453,220.432"
     id="path3332" />
  <path
     class=""
     d="M 620.621,207.932 C 630.521,207.932 642.721,198.732 642.721,189.232 C 642.721,183.632 638.221,179.932 631.821,179.932 C 619.621,179.932 609.821,189.032 609.821,198.632 C 609.821,204.432 614.621,207.932 620.621,207.932"
     id="path3334" />
  <path
     class=""
     d="M 545.188,245.432 C 555.088,245.432 567.288,236.232 567.288,226.732 C 567.288,221.132 562.788,217.432 556.388,217.432 C 544.188,217.432 534.388,226.532 534.388,236.132 C 534.388,241.932 539.188,245.432 545.188,245.432"
     id="path3336" />
  <path
     class=""
     d="M 469.754,220.432 C 479.654,220.432 491.854,211.232 491.854,201.732 C 491.854,196.132 487.354,192.432 480.954,192.432 C 468.754,192.432 458.954,201.532 458.954,211.132 C 458.954,216.932 463.754,220.432 469.754,220.432"
     id="path3338" />
  <path
     class=""
     d="M 394.707,245.432 C 404.607,245.432 416.807,236.232 416.807,226.732 C 416.807,221.132 412.307,217.432 405.907,217.432 C 393.707,217.432 383.907,226.532 383.907,236.132 C 383.907,241.932 388.707,245.432 394.707,245.432"
     id="path3340" />
  <path
     class=""
     d="M 319.661,270.432 C 329.561,270.432 341.761,261.232 341.761,251.732 C 341.761,246.132 337.261,242.432 330.861,242.432 C 318.661,242.432 308.861,251.532 308.861,261.132 C 308.861,266.932 313.661,270.432 319.661,270.432"
     id="path3342" />
  <path
     class=""
     d="M 215.59,270.432 C 225.49,270.432 237.69,261.232 237.69,251.732 C 237.69,246.132 233.19,242.432 226.79,242.432 C 214.59,242.432 204.79,251.532 204.79,261.132 C 204.79,266.932 209.59,270.432 215.59,270.432"
     id="path3344" />
  <path
     class=""
     d="M 72.2979,149.632 C 75.5979,149.632 78.2979,152.332 78.2979,157.832 C 78.2979,168.932 68.7979,177.932 60.8979,184.832 C 60.5979,185.032 60.3979,185.232 60.1979,185.232 C 59.8979,185.232 59.6979,184.832 59.5979,184.032 C 59.1979,181.432 58.9979,178.032 58.9979,174.832 C 58.9979,159.232 66.1979,149.632 72.2979,149.632 M 68.2979,233.632 C 68.0979,232.532 68.1979,232.232 68.9979,232.232 C 69.0979,232.232 69.2979,232.232 69.3979,232.232 C 77.4979,232.932 84.1979,239.732 84.1979,248.532 C 84.1979,254.832 80.3979,259.932 74.7979,262.732 C 74.2979,262.932 73.9979,263.132 73.7979,263.132 C 73.3979,263.132 73.2979,262.832 73.1979,262.132 L 68.2979,233.632 M 61.3979,217.732 C 61.6979,219.632 61.6979,219.532 59.8979,220.132 C 51.0979,223.132 45.3979,231.032 45.3979,239.532 C 45.3979,248.532 50.0979,254.932 56.8979,257.232 C 57.6979,257.532 58.8979,257.832 59.5979,257.832 C 60.3979,257.832 60.7979,257.332 60.7979,256.732 C 60.7979,256.032 59.9979,255.732 59.2979,255.432 C 55.0979,253.632 52.0979,249.332 52.0979,244.732 C 52.0979,239.032 55.9979,234.732 62.0979,233.032 C 62.5979,232.932 62.9979,232.832 63.2979,232.832 C 63.7979,232.832 63.9979,233.132 64.0979,233.832 L 69.0979,263.632 C 69.2979,264.732 69.1979,264.732 67.6979,265.032 C 66.0979,265.332 64.0979,265.532 62.0979,265.532 C 44.5979,265.532 33.2979,255.832 33.2979,241.932 C 33.2979,224.932 45.7979,214.332 57.8979,204.532 C 58.2979,204.232 58.5979,204.032 58.7979,204.032 C 59.0979,204.032 59.1979,204.332 59.2979,204.932 L 61.3979,217.732 M 62.8979,202.432 C 62.6979,201.232 62.8979,201.132 63.4979,200.532 C 74.2979,190.432 82.4979,177.732 82.4979,162.432 C 82.4979,153.732 80.0979,145.132 75.9979,139.132 C 74.4979,136.932 71.8979,134.132 70.7979,134.132 C 69.3979,134.132 66.2979,136.732 64.2979,138.932 C 56.8979,147.132 54.4979,159.632 54.4979,170.032 C 54.4979,175.832 55.1979,182.332 55.8979,186.432 C 56.0979,187.632 56.1979,187.832 54.9979,188.832 C 40.5979,200.732 25.2979,215.032 25.2979,235.232 C 25.2979,252.632 37.1979,269.132 61.6979,269.132 C 63.9979,269.132 66.5979,268.932 68.5979,268.532 C 68.9979,268.432 69.1979,268.432 69.3979,268.432 C 69.7979,268.432 69.9979,268.632 70.0979,269.432 C 71.2979,276.132 72.7979,284.832 72.7979,289.532 C 72.7979,304.332 62.7979,306.132 56.8979,306.132 C 51.4979,306.132 48.8979,304.532 48.8979,303.232 C 48.8979,302.532 49.7979,302.232 52.0979,301.532 C 55.1979,300.632 58.7979,297.932 58.7979,292.132 C 58.7979,286.632 55.2979,281.932 49.1979,281.932 C 42.4979,281.932 38.4979,287.232 38.4979,293.432 C 38.4979,299.932 42.3979,309.732 57.4979,309.732 C 64.1979,309.732 77.1979,306.732 77.1979,289.732 C 77.1979,284.032 75.3979,274.532 74.2979,268.332 C 74.0979,267.132 74.1979,267.232 75.5979,266.632 C 85.6979,262.632 92.3979,254.132 92.3979,242.832 C 92.3979,230.032 82.9979,218.732 68.2979,218.732 C 65.6979,218.732 65.6979,218.732 65.3979,216.932 L 62.8979,202.432"
     id="path3346" />
  <path
     class=""
     d="M 118.192,189.832 C 118.292,189.832 118.492,189.732 118.592,189.732 C 118.592,189.732 119.992,189.132 120.892,188.832 C 120.992,188.732 121.092,188.732 121.192,188.732 C 121.892,188.732 122.392,189.832 122.392,190.332 V 202.632 C 122.392,203.232 122.992,203.732 123.692,203.732 C 124.692,203.732 125.392,203.232 125.392,202.632 V 188.732 C 125.392,187.432 125.892,186.732 126.392,186.532 L 132.492,184.032 C 132.592,184.032 132.792,183.932 132.892,183.932 C 133.692,183.932 134.192,185.132 134.192,185.732 V 198.232 C 134.192,198.832 134.792,199.332 135.492,199.332 C 136.592,199.332 137.192,198.832 137.192,198.232 V 184.032 C 137.192,183.232 137.592,182.032 138.292,181.732 C 138.992,181.432 141.092,180.632 141.092,180.632 C 141.792,180.332 142.292,179.532 142.292,178.932 V 171.832 C 142.292,171.332 141.992,171.032 141.592,171.032 C 141.392,171.032 141.292,171.032 141.092,171.132 L 138.492,172.132 C 137.892,172.132 137.192,171.532 137.192,170.332 V 161.032 C 137.192,160.332 137.692,158.432 138.492,158.132 L 141.092,157.132 C 141.792,156.832 142.292,156.032 142.292,155.432 V 148.332 C 142.292,147.832 141.992,147.532 141.592,147.532 C 141.392,147.532 141.292,147.532 141.092,147.632 C 141.092,147.632 139.092,148.432 138.592,148.532 C 137.892,148.532 137.192,148.032 137.192,147.232 V 135.032 C 137.192,134.432 136.592,133.932 135.792,133.932 C 134.792,133.932 134.192,134.432 134.192,135.032 V 148.032 C 134.092,149.032 133.792,150.332 132.892,150.932 C 131.692,151.632 128.292,153.032 126.592,153.432 C 125.692,153.432 125.392,152.232 125.392,151.432 V 139.432 C 125.392,138.832 124.692,138.332 123.992,138.332 C 122.992,138.332 122.392,138.832 122.392,139.432 V 152.932 C 122.392,154.332 121.792,155.332 121.192,155.632 C 120.592,155.932 118.592,156.732 118.592,156.732 C 117.892,156.932 117.392,157.732 117.392,158.332 V 165.432 C 117.392,166.032 117.692,166.332 118.192,166.332 C 118.592,166.332 120.492,165.432 120.792,165.232 C 121.792,165.232 122.392,165.732 122.392,166.932 V 176.832 C 122.392,177.932 121.892,178.832 121.292,179.132 C 120.692,179.332 118.592,180.232 118.592,180.232 C 117.892,180.432 117.392,181.232 117.392,181.832 V 188.932 C 117.392,189.532 117.692,189.832 118.192,189.832 M 125.392,164.532 C 125.592,162.832 130.192,160.732 132.692,160.732 C 133.392,160.732 133.992,160.932 134.192,161.332 C 134.392,161.832 134.592,164.332 134.592,167.032 C 134.592,169.732 134.392,172.532 134.192,173.432 C 133.592,175.432 128.892,177.432 126.592,177.432 C 125.992,177.432 125.492,177.232 125.392,176.932 C 125.192,176.532 125.092,174.332 125.092,171.932 C 125.092,168.832 125.192,165.332 125.392,164.532"
     id="path3348" />
  <path
     class=""
     d="M 1448.1,256.429 C 1448.1,254.129 1446.2,252.229 1443.9,252.229 C 1441.6,252.229 1439.7,254.129 1439.7,256.429 C 1439.7,258.729 1441.6,260.629 1443.9,260.629 C 1446.2,260.629 1448.1,258.729 1448.1,256.429"
     id="path3350" />
  <path
     class=""
     d="M 1279.02,181.432 C 1279.02,179.132 1277.12,177.232 1274.82,177.232 C 1272.52,177.232 1270.62,179.132 1270.62,181.432 C 1270.62,183.732 1272.52,185.632 1274.82,185.632 C 1277.12,185.632 1279.02,183.732 1279.02,181.432"
     id="path3352" />
  <path
     class=""
     d="M 1344.05,181.432 C 1344.05,179.132 1342.15,177.232 1339.85,177.232 C 1337.55,177.232 1335.65,179.132 1335.65,181.432 C 1335.65,183.732 1337.55,185.632 1339.85,185.632 C 1342.15,185.632 1344.05,183.732 1344.05,181.432"
     id="path3354" />
  <path
     class=""
     d="M 1163.6,144.307 C 1164.9,144.007 1164.9,143.307 1164.9,142.507 C 1164.9,141.707 1164.9,141.107 1163.6,140.707 L 1133.6,130.507 C 1133.2,130.407 1132.8,130.307 1132.7,130.307 C 1131.8,130.307 1131.5,130.907 1131.2,131.707 C 1131.1,132.107 1131,132.407 1131,132.707 C 1131,133.207 1131.3,133.707 1132.4,134.107 C 1132.4,134.107 1154,141.407 1155,141.807 C 1155.5,141.907 1155.7,142.207 1155.7,142.507 C 1155.7,142.807 1155.5,143.007 1154.9,143.207 C 1153.8,143.507 1132.4,150.807 1132.4,150.807 C 1131.3,151.307 1131,151.807 1131,152.307 C 1131,152.607 1131.1,152.907 1131.2,153.207 C 1131.5,153.907 1131.9,154.707 1132.6,154.707 C 1132.7,154.707 1132.9,154.707 1133,154.607 L 1163.6,144.307"
     id="path3356" />
  <path
     class=""
     d="M 1028.63,143.932 C 1028.63,141.632 1026.73,139.732 1024.43,139.732 C 1022.13,139.732 1020.23,141.632 1020.23,143.932 C 1020.23,146.232 1022.13,148.132 1024.43,148.132 C 1026.73,148.132 1028.63,146.232 1028.63,143.932"
     id="path3358" />
  <path
     class=""
     d="M 934.115,281.429 C 934.115,279.129 932.215,277.229 929.915,277.229 C 927.615,277.229 925.715,279.129 925.715,281.429 C 925.715,283.729 927.615,285.629 929.915,285.629 C 932.215,285.629 934.115,283.729 934.115,281.429"
     id="path3360" />
  <path
     class=""
     d="M 868.568,256.429 C 868.568,254.129 866.668,252.229 864.368,252.229 C 862.068,252.229 860.168,254.129 860.168,256.429 C 860.168,258.729 862.068,260.629 864.368,260.629 C 866.668,260.629 868.568,258.729 868.568,256.429"
     id="path3362" />
  <path
     class=""
     d="M 764.764,144.307 C 766.064,144.007 766.064,143.307 766.064,142.507 C 766.064,141.707 766.064,141.107 764.764,140.707 L 734.764,130.507 C 734.364,130.407 733.964,130.307 733.864,130.307 C 732.964,130.307 732.664,130.907 732.364,131.707 C 732.264,132.107 732.164,132.407 732.164,132.707 C 732.164,133.207 732.464,133.707 733.564,134.107 C 733.564,134.107 755.164,141.407 756.164,141.807 C 756.664,141.907 756.864,142.207 756.864,142.507 C 756.864,142.807 756.664,143.007 756.064,143.207 C 754.964,143.507 733.564,150.807 733.564,150.807 C 732.464,151.307 732.164,151.807 732.164,152.307 C 732.164,152.607 732.264,152.907 732.364,153.207 C 732.664,153.907 733.064,154.707 733.764,154.707 C 733.864,154.707 734.064,154.707 734.164,154.607 L 764.764,144.307"
     id="path3364" />
  <path
     class=""
     d="M 630.483,156.432 C 630.483,154.132 628.583,152.232 626.283,152.232 C 623.983,152.232 622.083,154.132 622.083,156.432 C 622.083,158.732 623.983,160.632 626.283,160.632 C 628.583,160.632 630.483,158.732 630.483,156.432"
     id="path3366" />
  <path
     class=""
     d="M 555.049,256.429 C 555.049,254.129 553.149,252.229 550.849,252.229 C 548.549,252.229 546.649,254.129 546.649,256.429 C 546.649,258.729 548.549,260.629 550.849,260.629 C 553.149,260.629 555.049,258.729 555.049,256.429"
     id="path3368" />
  <path
     class=""
     d="M 479.616,181.432 C 479.616,179.132 477.716,177.232 475.416,177.232 C 473.116,177.232 471.216,179.132 471.216,181.432 C 471.216,183.732 473.116,185.632 475.416,185.632 C 477.716,185.632 479.616,183.732 479.616,181.432"
     id="path3370" />
  <path
     class=""
     fill-rule="evenodd"
     d="M 338.759,163.24 L 416.806,143.74 V 156.624 L 338.759,176.124 V 163.24"
     id="path3372" />
  <path
     class=""
     fill-rule="evenodd"
     d="M 338.759,178.865 L 416.806,159.365 V 172.249 L 338.759,191.749 V 178.865"
     id="path3374" />
  <path
     class=""
     d="M 1282.36,216.432 C 1283.76,220.632 1284.46,225.632 1284.46,230.132 C 1284.46,236.032 1281.96,244.432 1280.46,247.832 C 1276.76,256.232 1271.76,264.332 1258.36,268.832 V 292.332 C 1258.36,293.532 1258.86,293.832 1259.46,293.832 C 1261.36,293.832 1262.16,293.232 1262.36,291.632 C 1264.06,282.132 1271.46,273.432 1276.56,265.532 C 1282.86,255.632 1288.96,243.732 1288.96,231.232 C 1288.96,223.432 1286.96,216.332 1286.16,213.132 C 1285.86,212.032 1285.26,211.632 1284.56,211.632 C 1283.06,211.632 1281.36,213.532 1282.36,216.432"
     id="path3376" />
  <path
     class=""
     d="M 901.605,230.081 C 901.605,230.081 904.205,220.581 904.205,212.781 C 904.205,200.281 899.005,188.481 892.705,178.481 C 887.605,170.581 883.405,161.981 881.805,152.381 C 881.505,150.781 880.705,150.181 878.805,150.181 C 878.205,150.181 877.805,150.481 877.805,151.681 V 175.581 C 884.405,176.781 893.905,190.381 897.505,198.881 C 899.005,202.281 899.905,207.981 899.905,213.881 C 899.905,218.381 899.205,223.081 897.505,227.581 C 897.305,228.181 897.205,228.681 897.205,229.081 C 897.205,230.681 898.205,231.581 898.805,231.981 C 898.905,232.081 899.105,232.081 899.305,232.081 C 900.005,232.081 901.205,231.481 901.605,230.081"
     id="path3378" />
  <path
     class=""
     d="M 539.571,115.3088 C 547.538,114.0088 551.521,111.2422 551.521,107.0088 C 551.521,105.6422 551.113,104.5422 550.296,103.7088 C 549.48,102.8755 548.405,102.4588 547.071,102.4588 C 545.038,102.4588 543.171,103.5755 541.471,105.8088 L 540.671,105.5588 C 541.505,103.9588 542.646,102.6922 544.096,101.7588 C 545.546,100.8255 547.138,100.3588 548.871,100.3588 C 550.871,100.3588 552.538,100.9588 553.871,102.1588 C 555.205,103.3588 555.871,104.8755 555.871,106.7088 C 555.871,108.4088 555.33,109.7755 554.246,110.8088 C 553.163,111.8422 551.105,112.9422 548.071,114.1088 V 114.2588 C 551.271,115.7255 552.871,118.209 552.871,121.709 C 552.871,125.176 551.588,128.176 549.021,130.709 C 546.455,133.242 543.088,134.509 538.921,134.509 C 535.188,134.509 533.321,133.526 533.321,131.559 C 533.321,130.259 534.055,129.609 535.521,129.609 C 536.355,129.609 537.471,130.109 538.871,131.109 C 540.271,132.109 541.421,132.609 542.321,132.609 C 544.121,132.609 545.663,131.851 546.946,130.334 C 548.23,128.817 548.871,126.842 548.871,124.409 C 548.871,121.276 548.088,119.109 546.521,117.909 C 544.955,116.709 542.638,116.109 539.571,116.109 V 115.3088"
     id="path3380" />
  <path
     class=""
     d="M 1183.14,181.432 C 1183.14,178.632 1180.94,176.432 1178.14,176.432 C 1175.34,176.432 1173.14,178.632 1173.14,181.432 C 1173.14,184.232 1175.34,186.432 1178.14,186.432 C 1180.94,186.432 1183.14,184.232 1183.14,181.432"
     id="path3382" />
  <path
     class=""
     d="M 784.301,206.432 C 784.301,203.632 782.101,201.432 779.301,201.432 C 776.501,201.432 774.301,203.632 774.301,206.432 C 774.301,209.232 776.501,211.432 779.301,211.432 C 782.101,211.432 784.301,209.232 784.301,206.432"
     id="path3384" />
  <path
     class=""
     d="M 256.438,256.432 C 256.438,253.632 254.238,251.432 251.438,251.432 C 248.638,251.432 246.438,253.632 246.438,256.432 C 246.438,259.232 248.638,261.432 251.438,261.432 C 254.238,261.432 256.438,259.232 256.438,256.432"
     id="path3386" />
  <text
     xml:space="preserve"
     style="font-size:42.6667px;line-height:1.25;font-family:'Libertinus Sans';-inkscape-font-specification:'Libertinus Sans';letter-spacing:0px;word-spacing:0px;white-space:pre;shape-inside:url(#rect3462);fill:#ff00ff"
     x="-0.83587581"
     y="-4.1768041"
     id="text1183"
     transform="translate(0,69.808657)"><tspan
       x="1.1796875"
       y="-40.027301"><tspan
         dx="0 0 0 0 0 0 0 0 0 0 0 0 0 0 0 0 0 0 0 0 0 0 0 0 0 0 0 0 0 0 0 0 0 0 0 0 0 0 0 0 0 0 0 0 0 0 0 0 0 0 0 0 0 0 0 0 0 0 0 0 0 0 0 0 0 0 0 0 0 0 0 0.00010681152 0 0 0 0.00011444092 0 0 0 0 0 0 0 0 0 0 0 0 0 0 0 0 0 0 0 -0.00010490417">e-Moll: der letzte Kreuz der Tonart, das fis, gibt den Leitton der parallelen Dur-Tonart, des G-</tspan></tspan><tspan
       x="1.1796875"
       y="13.306073"><tspan>Dur an. Bei den Tonartvorzeichen der Transposition spielt die Dur/Moll-Frage keine Rolle.</tspan></tspan></text>
  <rect
     style="fill:none;fill-opacity:0.421603;stroke:none;stroke-width:2.35854;stroke-linecap:round;stroke-linejoin:round"
     id="rect3462"
     width="1635.5415"
     height="158.13846"
     x="1.1792713"
     y="-78.820724" />
  <metadata
     id="metadata3464">
    <rdf:RDF>
      <cc:Work
         rdf:about="">
        <dc:title>Unbenannt</dc:title>
      </cc:Work>
    </rdf:RDF>
  </metadata>
</svg>
