<?xml version="1.0" encoding="UTF-8" standalone="no"?>
<svg
   width="1427"
   height="312"
   viewBox="0 0 1427 312"
   version="1.2"
   id="svg332"
   sodipodi:docname="Bruckner_7_A-Kl._notiert.svg"
   inkscape:version="1.1-dev (0486c1a, 2020-10-10)"
   xmlns:inkscape="http://www.inkscape.org/namespaces/inkscape"
   xmlns:sodipodi="http://sodipodi.sourceforge.net/DTD/sodipodi-0.dtd"
   xmlns="http://www.w3.org/2000/svg"
   xmlns:svg="http://www.w3.org/2000/svg"
   xmlns:rdf="http://www.w3.org/1999/02/22-rdf-syntax-ns#"
   xmlns:cc="http://creativecommons.org/ns#"
   xmlns:dc="http://purl.org/dc/elements/1.1/">
  <defs
     id="defs336" />
  <sodipodi:namedview
     pagecolor="#ffffff"
     bordercolor="#666666"
     borderopacity="1"
     objecttolerance="10"
     gridtolerance="10"
     guidetolerance="10"
     inkscape:pageopacity="0"
     inkscape:pageshadow="2"
     inkscape:window-width="837"
     inkscape:window-height="480"
     id="namedview334"
     showgrid="false"
     inkscape:zoom="0.49084108"
     inkscape:cx="888.27121"
     inkscape:cy="389.12798"
     inkscape:window-x="181"
     inkscape:window-y="192"
     inkscape:window-maximized="0"
     inkscape:current-layer="svg332" />
  <title
     id="title200">Unbenannt</title>
  <desc
     id="desc202">Generated by MuseScore 3.5.2</desc>
  <circle
     style="fill:#00ffff;fill-opacity:1;stroke:none;stroke-width:1.34991;stroke-linecap:round;stroke-linejoin:round"
     id="circle364"
     cx="143.72871"
     cy="168.7016"
     r="37.795277" />
  <circle
     style="fill:#00ff00;fill-opacity:1;stroke:none;stroke-width:1.9;stroke-linecap:round;stroke-linejoin:round"
     id="circle470"
     cx="1338.64"
     cy="108.26516"
     r="56.692913" />
  <circle
     style="fill:#00ff00;fill-opacity:1;stroke:none;stroke-width:1.9;stroke-linecap:round;stroke-linejoin:round"
     id="circle466"
     cx="507.492"
     cy="170.765"
     r="56.692913" />
  <circle
     style="fill:#ffbf00;fill-opacity:1;stroke:none;stroke-width:1.9;stroke-linecap:round;stroke-linejoin:round"
     id="circle1609"
     cx="1056.88"
     cy="133.26501"
     r="56.692913" />
  <g
     id="g920"
     transform="translate(0,24)">
    <g
       id="g942">
      <path
         id="polyline212"
         style="stroke:#000000;stroke-width:3.25;stroke-linejoin:bevel"
         d="M 1292.23,146.765 L 1396.1802,146.76661"
         class=""
         sodipodi:nodetypes="cc" />
      <path
         id="polyline214"
         style="stroke:#000000;stroke-width:3.25;stroke-linejoin:bevel"
         d="M 1292.23,171.765 H 1396.1802"
         class=""
         sodipodi:nodetypes="cc" />
      <path
         id="polyline216"
         style="stroke:#000000;stroke-width:3.25;stroke-linejoin:bevel"
         d="M 1292.23,196.765 H 1396.1802"
         class=""
         sodipodi:nodetypes="cc" />
      <path
         id="polyline218"
         style="stroke:#000000;stroke-width:3.25;stroke-linejoin:bevel"
         d="M 1292.23,221.765 H 1396.1802"
         class=""
         sodipodi:nodetypes="cc" />
      <path
         id="polyline220"
         style="stroke:#000000;stroke-width:3.25;stroke-linejoin:bevel"
         d="M 1292.23,246.765 H 1396.1802"
         class=""
         sodipodi:nodetypes="cc" />
      <polyline
         class=""
         stroke="#000000"
         stroke-width="3.25"
         stroke-linejoin="bevel"
         points="1026.37,146.765 1292.23,146.765"
         id="polyline222" />
      <polyline
         class=""
         stroke="#000000"
         stroke-width="3.25"
         stroke-linejoin="bevel"
         points="1026.37,171.765 1292.23,171.765"
         id="polyline224" />
      <polyline
         class=""
         stroke="#000000"
         stroke-width="3.25"
         stroke-linejoin="bevel"
         points="1026.37,196.765 1292.23,196.765"
         id="polyline226" />
      <polyline
         class=""
         stroke="#000000"
         stroke-width="3.25"
         stroke-linejoin="bevel"
         points="1026.37,221.765 1292.23,221.765"
         id="polyline228" />
      <polyline
         class=""
         stroke="#000000"
         stroke-width="3.25"
         stroke-linejoin="bevel"
         points="1026.37,246.765 1292.23,246.765"
         id="polyline230" />
      <polyline
         class=""
         stroke="#000000"
         stroke-width="3.25"
         stroke-linejoin="bevel"
         points="525.63,146.765 1026.37,146.765"
         id="polyline232" />
      <polyline
         class=""
         stroke="#000000"
         stroke-width="3.25"
         stroke-linejoin="bevel"
         points="525.63,171.765 1026.37,171.765"
         id="polyline234" />
      <polyline
         class=""
         stroke="#000000"
         stroke-width="3.25"
         stroke-linejoin="bevel"
         points="525.63,196.765 1026.37,196.765"
         id="polyline236" />
      <polyline
         class=""
         stroke="#000000"
         stroke-width="3.25"
         stroke-linejoin="bevel"
         points="525.63,221.765 1026.37,221.765"
         id="polyline238" />
      <polyline
         class=""
         stroke="#000000"
         stroke-width="3.25"
         stroke-linejoin="bevel"
         points="525.63,246.765 1026.37,246.765"
         id="polyline240" />
      <polyline
         class=""
         stroke="#000000"
         stroke-width="3.25"
         stroke-linejoin="bevel"
         points="20.5809,146.765 525.63,146.765"
         id="polyline242" />
      <polyline
         class=""
         stroke="#000000"
         stroke-width="3.25"
         stroke-linejoin="bevel"
         points="20.5809,171.765 525.63,171.765"
         id="polyline244" />
      <polyline
         class=""
         stroke="#000000"
         stroke-width="3.25"
         stroke-linejoin="bevel"
         points="20.5809,196.765 525.63,196.765"
         id="polyline246" />
      <polyline
         class=""
         stroke="#000000"
         stroke-width="3.25"
         stroke-linejoin="bevel"
         points="20.5809,221.765 525.63,221.765"
         id="polyline248" />
      <polyline
         class=""
         stroke="#000000"
         stroke-width="3.25"
         stroke-linejoin="bevel"
         points="20.5809,246.765 525.63,246.765"
         id="polyline250" />
    </g>
  </g>
  <path
     class=""
     d="M 87.5809,151.465 C 90.8809,151.465 93.5809,154.165 93.5809,159.665 C 93.5809,170.765 84.0809,179.765 76.1809,186.665 C 75.8809,186.865 75.6809,187.065 75.4809,187.065 C 75.1809,187.065 74.9809,186.665 74.8809,185.865 C 74.4809,183.265 74.2809,179.865 74.2809,176.665 C 74.2809,161.065 81.4809,151.465 87.5809,151.465 M 83.5809,235.465 C 83.3809,234.365 83.4809,234.065 84.2809,234.065 C 84.3809,234.065 84.5809,234.065 84.6809,234.065 C 92.7809,234.765 99.4809,241.565 99.4809,250.365 C 99.4809,256.665 95.6809,261.765 90.0809,264.565 C 89.5809,264.765 89.2809,264.965 89.0809,264.965 C 88.6809,264.965 88.5809,264.665 88.4809,263.965 L 83.5809,235.465 M 76.6809,219.565 C 76.9809,221.465 76.9809,221.365 75.1809,221.965 C 66.3809,224.965 60.6809,232.865 60.6809,241.365 C 60.6809,250.365 65.3809,256.765 72.1809,259.065 C 72.9809,259.365 74.1809,259.665 74.8809,259.665 C 75.6809,259.665 76.0809,259.165 76.0809,258.565 C 76.0809,257.865 75.2809,257.565 74.5809,257.265 C 70.3809,255.465 67.3809,251.165 67.3809,246.565 C 67.3809,240.865 71.2809,236.565 77.3809,234.865 C 77.8809,234.765 78.2809,234.665 78.5809,234.665 C 79.0809,234.665 79.2809,234.965 79.3809,235.665 L 84.3809,265.465 C 84.5809,266.565 84.4809,266.565 82.9809,266.865 C 81.3809,267.165 79.3809,267.365 77.3809,267.365 C 59.8809,267.365 48.5809,257.665 48.5809,243.765 C 48.5809,226.765 61.0809,216.165 73.1809,206.365 C 73.5809,206.065 73.8809,205.865 74.0809,205.865 C 74.3809,205.865 74.4809,206.165 74.5809,206.765 L 76.6809,219.565 M 78.1809,204.265 C 77.9809,203.065 78.1809,202.965 78.7809,202.365 C 89.5809,192.265 97.7809,179.565 97.7809,164.265 C 97.7809,155.565 95.3809,146.965 91.2809,140.965 C 89.7809,138.765 87.1809,135.965 86.0809,135.965 C 84.6809,135.965 81.5809,138.565 79.5809,140.765 C 72.1809,148.965 69.7809,161.465 69.7809,171.865 C 69.7809,177.665 70.4809,184.165 71.1809,188.265 C 71.3809,189.465 71.4809,189.665 70.2809,190.665 C 55.8809,202.565 40.5809,216.865 40.5809,237.065 C 40.5809,254.465 52.4809,270.965 76.9809,270.965 C 79.2809,270.965 81.8809,270.765 83.8809,270.365 C 84.2809,270.265 84.4809,270.265 84.6809,270.265 C 85.0809,270.265 85.2809,270.465 85.3809,271.265 C 86.5809,277.965 88.0809,286.665 88.0809,291.365 C 88.0809,306.165 78.0809,307.965 72.1809,307.965 C 66.7809,307.965 64.1809,306.365 64.1809,305.065 C 64.1809,304.365 65.0809,304.065 67.3809,303.365 C 70.4809,302.465 74.0809,299.765 74.0809,293.965 C 74.0809,288.465 70.5809,283.765 64.4809,283.765 C 57.7809,283.765 53.7809,289.065 53.7809,295.265 C 53.7809,301.765 57.6809,311.565 72.7809,311.565 C 79.4809,311.565 92.4809,308.565 92.4809,291.565 C 92.4809,285.865 90.6809,276.365 89.5809,270.165 C 89.3809,268.965 89.4809,269.065 90.8809,268.465 C 100.981,264.465 107.681,255.965 107.681,244.665 C 107.681,231.865 98.2809,220.565 83.5809,220.565 C 80.9809,220.565 80.9809,220.565 80.6809,218.765 L 78.1809,204.265"
     id="path310" />
  <path
     class=""
     d="M 133.475,191.665 C 133.575,191.665 133.775,191.565 133.875,191.565 C 133.875,191.565 135.275,190.965 136.175,190.665 C 136.275,190.565 136.375,190.565 136.475,190.565 C 137.175,190.565 137.675,191.665 137.675,192.165 V 204.465 C 137.675,205.065 138.275,205.565 138.975,205.565 C 139.975,205.565 140.675,205.065 140.675,204.465 V 190.565 C 140.675,189.265 141.175,188.565 141.675,188.365 L 147.775,185.865 C 147.875,185.865 148.075,185.765 148.175,185.765 C 148.975,185.765 149.475,186.965 149.475,187.565 V 200.065 C 149.475,200.665 150.075,201.165 150.775,201.165 C 151.875,201.165 152.475,200.665 152.475,200.065 V 185.865 C 152.475,185.065 152.875,183.865 153.575,183.565 C 154.275,183.265 156.375,182.465 156.375,182.465 C 157.075,182.165 157.575,181.365 157.575,180.765 V 173.665 C 157.575,173.165 157.275,172.865 156.875,172.865 C 156.675,172.865 156.575,172.865 156.375,172.965 L 153.775,173.965 C 153.175,173.965 152.475,173.365 152.475,172.165 V 162.865 C 152.475,162.165 152.975,160.265 153.775,159.965 L 156.375,158.965 C 157.075,158.665 157.575,157.865 157.575,157.265 V 150.165 C 157.575,149.665 157.275,149.365 156.875,149.365 C 156.675,149.365 156.575,149.365 156.375,149.465 C 156.375,149.465 154.375,150.265 153.875,150.365 C 153.175,150.365 152.475,149.865 152.475,149.065 V 136.865 C 152.475,136.265 151.875,135.765 151.075,135.765 C 150.075,135.765 149.475,136.265 149.475,136.865 V 149.865 C 149.375,150.865 149.075,152.165 148.175,152.765 C 146.975,153.465 143.575,154.865 141.875,155.265 C 140.975,155.265 140.675,154.065 140.675,153.265 V 141.265 C 140.675,140.665 139.975,140.165 139.275,140.165 C 138.275,140.165 137.675,140.665 137.675,141.265 V 154.765 C 137.675,156.165 137.075,157.165 136.475,157.465 C 135.875,157.765 133.875,158.565 133.875,158.565 C 133.175,158.765 132.675,159.565 132.675,160.165 V 167.265 C 132.675,167.865 132.975,168.165 133.475,168.165 C 133.875,168.165 135.775,167.265 136.075,167.065 C 137.075,167.065 137.675,167.565 137.675,168.765 V 178.665 C 137.675,179.765 137.175,180.665 136.575,180.965 C 135.975,181.165 133.875,182.065 133.875,182.065 C 133.175,182.265 132.675,183.065 132.675,183.665 V 190.765 C 132.675,191.365 132.975,191.665 133.475,191.665 M 140.675,166.365 C 140.875,164.665 145.475,162.565 147.975,162.565 C 148.675,162.565 149.275,162.765 149.475,163.165 C 149.675,163.665 149.875,166.165 149.875,168.865 C 149.875,171.565 149.675,174.365 149.475,175.265 C 148.875,177.265 144.175,179.265 141.875,179.265 C 141.275,179.265 140.775,179.065 140.675,178.765 C 140.475,178.365 140.375,176.165 140.375,173.765 C 140.375,170.665 140.475,167.165 140.675,166.365"
     id="path318" />
  <text
     xml:space="preserve"
     style="font-size:42.6667px;line-height:1.25;font-family:'Libertinus Sans';-inkscape-font-specification:'Libertinus Sans';letter-spacing:0px;word-spacing:0px;fill:#00a3a3;fill-opacity:1"
     x="16.57023"
     y="41.912842"
     id="text1183"><tspan
       sodipodi:role="line"
       id="tspan1181"
       x="16.57023"
       y="41.912842">G-Dur: Der letzte Kreuz entspricht dem Leitton einer Dur-Tonart</tspan></text>
  <path
     class=""
     stroke="#000000"
     stroke-width="2.5"
     stroke-linecap="round"
     stroke-linejoin="round"
     fill-rule="evenodd"
     d="M 236.522,173.265 C 395.293,77.66861 1166.78,16.41861 1338.64,85.76531 C 1167.25,22.39981 395.768,83.64981 236.522,173.265"
     id="path690" />
  <polyline
     class=""
     stroke="#000000"
     stroke-width="4"
     stroke-linejoin="bevel"
     points="1274.1,165.366 1274.1,268.616"
     id="polyline692"
     transform="translate(0,3.77401)" />
  <polyline
     class=""
     stroke="#000000"
     stroke-width="4"
     stroke-linejoin="bevel"
     points="992.334,165.366 992.334,268.616"
     id="polyline694"
     transform="translate(0,3.77401)" />
  <polyline
     class=""
     stroke="#000000"
     stroke-width="4"
     stroke-linejoin="bevel"
     points="453.745,165.366 453.745,268.616"
     id="polyline696"
     transform="translate(0,3.77401)" />
  <path
     class=""
     d="M 1012.03,141.36501 C 1012.03,141.36501 1011.73,135.36501 1011.73,131.36501 C 1011.73,129.76501 1011.83,128.56501 1011.93,128.16501 C 1012.63,126.16501 1016.63,123.26501 1018.93,123.26501 C 1021.83,123.26501 1023.03,126.56501 1023.03,129.06501 C 1023.03,134.46501 1018.43,139.86501 1014.13,142.56501 C 1013.73,142.76501 1013.43,142.86501 1013.13,142.86501 C 1012.23,142.86501 1012.03,141.86501 1012.03,141.36501 M 1008.53,150.26501 C 1008.83,150.66501 1009.13,150.76501 1009.43,150.76501 C 1009.73,150.76501 1010.03,150.56501 1010.03,150.56501 C 1013.03,148.86501 1015.43,146.16501 1017.93,144.46501 C 1026.83,138.26501 1029.93,132.16501 1029.93,127.56501 C 1029.93,121.86501 1025.53,118.26501 1020.93,117.96501 C 1019.23,117.96501 1016.83,118.76501 1015.43,119.66501 C 1014.83,120.16501 1013.73,121.06501 1013.23,121.06501 C 1013.03,121.06501 1012.93,121.06501 1012.73,120.96501 C 1012.03,120.66501 1011.63,119.96501 1011.63,119.26501 C 1011.73,117.06501 1012.33,93.06531 1012.33,91.06531 C 1012.33,89.96531 1011.43,89.36531 1010.43,89.36531 C 1009.03,89.36531 1007.43,90.36531 1007.33,92.16531 C 1007.33,92.16531 1007.73,149.26501 1008.53,150.26501"
     id="path738" />
  <path
     class=""
     d="M 1293.8,116.36501 C 1293.8,116.36501 1293.5,110.36501 1293.5,106.36501 C 1293.5,104.76501 1293.6,103.56531 1293.7,103.16531 C 1294.4,101.16531 1298.4,98.26531 1300.7,98.26531 C 1303.6,98.26531 1304.8,101.56531 1304.8,104.06501 C 1304.8,109.46501 1300.2,114.86501 1295.9,117.56501 C 1295.5,117.76501 1295.2,117.86501 1294.9,117.86501 C 1294,117.86501 1293.8,116.86501 1293.8,116.36501 M 1290.3,125.26501 C 1290.6,125.66501 1290.9,125.76501 1291.2,125.76501 C 1291.5,125.76501 1291.8,125.56501 1291.8,125.56501 C 1294.8,123.86501 1297.2,121.16501 1299.7,119.46501 C 1308.6,113.26501 1311.7,107.16501 1311.7,102.56531 C 1311.7,96.86531 1307.3,93.26531 1302.7,92.96531 C 1301,92.96531 1298.6,93.76531 1297.2,94.66531 C 1296.6,95.16531 1295.5,96.06531 1295,96.06531 C 1294.8,96.06531 1294.7,96.06531 1294.5,95.96531 C 1293.8,95.66531 1293.4,94.96531 1293.4,94.26531 C 1293.5,92.06531 1294.1,68.06531 1294.1,66.06531 C 1294.1,64.96531 1293.2,64.36531 1292.2,64.36531 C 1290.8,64.36531 1289.2,65.36531 1289.1,67.16531 C 1289.1,67.16531 1289.5,124.26501 1290.3,125.26501"
     id="path740" />
  <path
     class=""
     d="M 469.545,190.265 C 469.645,190.265 470.145,190.165 470.245,190.065 C 471.645,189.465 477.245,187.065 480.145,187.065 C 481.145,187.065 481.845,187.365 481.845,188.165 V 203.065 C 481.845,203.765 482.345,204.265 483.045,204.265 H 484.345 C 484.945,204.265 485.545,203.765 485.545,203.065 V 152.86501 C 485.545,152.36501 485.145,152.06501 484.745,152.06501 C 484.645,152.06501 484.445,152.06501 484.345,152.16501 L 482.845,152.66501 C 482.645,152.66501 482.545,152.76501 482.445,152.76501 C 482.445,152.76501 476.045,155.065 473.445,155.065 C 472.845,155.065 472.445,154.965 472.445,154.56501 V 137.86501 C 472.445,137.16501 471.845,136.66501 471.245,136.66501 H 469.945 C 469.245,136.66501 468.745,137.16501 468.745,137.86501 V 189.365 C 468.745,189.965 469.045,190.265 469.545,190.265 M 472.445,166.865 C 472.445,165.465 478.545,162.865 480.945,162.865 C 481.545,162.865 481.845,162.965 481.845,163.365 V 173.665 C 481.845,175.465 476.145,177.765 473.645,177.765 C 472.945,177.765 472.445,177.565 472.445,177.165 V 166.865"
     id="path742" />
  <polyline
     class=""
     stroke="#000000"
     stroke-width="4"
     stroke-linecap="square"
     stroke-linejoin="bevel"
     points="1317.19,141.991 1360.09,141.991"
     id="polyline744"
     transform="translate(0,3.77401)" />
  <polyline
     class=""
     stroke="#000000"
     stroke-width="4"
     stroke-linecap="square"
     stroke-linejoin="bevel"
     points="1317.19,116.991 1360.09,116.991"
     id="polyline746"
     transform="translate(0,3.77401)" />
  <polyline
     class=""
     stroke="#000000"
     stroke-width="4"
     stroke-linecap="square"
     stroke-linejoin="bevel"
     points="1188.59,141.991 1231.49,141.991"
     id="polyline748"
     transform="translate(0,3.77401)" />
  <polyline
     class=""
     stroke="#000000"
     stroke-width="4"
     stroke-linecap="square"
     stroke-linejoin="bevel"
     points="1188.59,116.991 1231.49,116.991"
     id="polyline750"
     transform="translate(0,3.77401)" />
  <polyline
     class=""
     stroke="#000000"
     stroke-width="4"
     stroke-linecap="square"
     stroke-linejoin="bevel"
     points="1035.43,141.991 1078.33,141.991"
     id="polyline752"
     transform="translate(0,3.77401)" />
  <polyline
     class=""
     stroke="#000000"
     stroke-width="4"
     stroke-linecap="square"
     stroke-linejoin="bevel"
     points="875.694,141.991 918.592,141.991"
     id="polyline754"
     transform="translate(0,3.77401)" />
  <polyline
     class=""
     stroke="#000000"
     stroke-width="3"
     stroke-linecap="round"
     stroke-linejoin="bevel"
     points="1323.69,107.851 1323.69,216.991"
     id="polyline756"
     transform="translate(0,3.77401)" />
  <polyline
     class=""
     stroke="#000000"
     stroke-width="3"
     stroke-linecap="round"
     stroke-linejoin="bevel"
     points="1195.09,120.351 1195.09,216.991"
     id="polyline758"
     transform="translate(0,3.77401)" />
  <polyline
     class=""
     stroke="#000000"
     stroke-width="3"
     stroke-linecap="round"
     stroke-linejoin="bevel"
     points="1041.93,132.851 1041.93,216.991"
     id="polyline760"
     transform="translate(0,3.77401)" />
  <polyline
     class=""
     stroke="#000000"
     stroke-width="3"
     stroke-linecap="round"
     stroke-linejoin="bevel"
     points="882.194,145.351 882.194,229.491"
     id="polyline762"
     transform="translate(0,3.77401)" />
  <polyline
     class=""
     stroke="#000000"
     stroke-width="3"
     stroke-linecap="round"
     stroke-linejoin="bevel"
     points="733.397,170.351 733.397,285.741"
     id="polyline764"
     transform="translate(0,3.77401)" />
  <polyline
     class=""
     stroke="#000000"
     stroke-width="3"
     stroke-linecap="round"
     stroke-linejoin="bevel"
     points="772.554,157.851 772.554,241.991"
     id="polyline766"
     transform="translate(0,3.77401)" />
  <polyline
     class=""
     stroke="#000000"
     stroke-width="3"
     stroke-linecap="round"
     stroke-linejoin="bevel"
     points="655.082,170.351 655.082,285.741"
     id="polyline768"
     transform="translate(0,3.77401)" />
  <polyline
     class=""
     stroke="#000000"
     stroke-width="3"
     stroke-linecap="round"
     stroke-linejoin="bevel"
     points="694.239,182.851 694.239,285.741"
     id="polyline770"
     transform="translate(0,3.77401)" />
  <polyline
     class=""
     stroke="#000000"
     stroke-width="3"
     stroke-linecap="round"
     stroke-linejoin="bevel"
     points="615.925,157.851 615.925,285.741"
     id="polyline772"
     transform="translate(0,3.77401)" />
  <polyline
     class=""
     stroke="#000000"
     stroke-width="3"
     stroke-linecap="round"
     stroke-linejoin="bevel"
     points="492.542,170.351 492.542,254.491"
     id="polyline774"
     transform="translate(0,3.77401)" />
  <polyline
     class=""
     stroke="#000000"
     stroke-width="3"
     stroke-linecap="round"
     stroke-linejoin="bevel"
     points="374.738,182.851 374.738,266.991"
     id="polyline776"
     transform="translate(0,3.77401)" />
  <polyline
     class=""
     stroke="#000000"
     stroke-width="3"
     stroke-linecap="round"
     stroke-linejoin="bevel"
     points="221.573,195.351 221.573,276.366"
     id="polyline778"
     transform="translate(0,3.77401)" />
  <path
     class=""
     d="M 1332.99,122.26501 C 1342.89,122.26501 1355.09,113.06501 1355.09,103.56531 C 1355.09,97.96531 1350.59,94.26531 1344.19,94.26531 C 1331.99,94.26531 1322.19,103.36531 1322.19,112.96501 C 1322.19,118.76501 1326.99,122.26501 1332.99,122.26501"
     id="path780" />
  <path
     class=""
     d="M 1204.39,134.76501 C 1214.29,134.76501 1226.49,125.56501 1226.49,116.06501 C 1226.49,110.46501 1221.99,106.76501 1215.59,106.76501 C 1203.39,106.76501 1193.59,115.86501 1193.59,125.46501 C 1193.59,131.26501 1198.39,134.76501 1204.39,134.76501"
     id="path782" />
  <path
     class=""
     d="M 1051.23,147.26501 C 1069.63,147.26501 1073.33,132.26501 1073.33,128.66501 C 1073.33,122.96501 1068.83,119.26501 1062.33,119.26501 C 1045.63,119.26501 1040.43,132.16501 1040.43,137.96501 C 1040.43,143.86501 1045.13,147.26501 1051.23,147.26501 M 1059.73,138.36501 C 1054.73,141.76501 1051.23,142.96501 1048.83,142.96501 C 1046.53,142.96501 1045.13,141.76501 1044.43,140.36501 C 1044.03,139.76501 1043.73,138.96501 1043.73,138.16501 C 1043.73,132.76501 1059.83,123.86501 1065.13,123.86501 C 1067.23,123.86501 1068.43,124.86501 1069.23,126.26501 C 1069.53,126.86501 1069.83,127.56501 1069.83,128.36501 C 1069.83,130.56501 1067.53,133.26501 1059.73,138.36501"
     id="path784" />
  <path
     class=""
     d="M 891.49397,159.765 C 901.39397,159.765 913.59397,150.56501 913.59397,141.06501 C 913.59397,135.46501 909.09397,131.76501 902.69397,131.76501 C 890.49397,131.76501 880.69397,140.86501 880.69397,150.46501 C 880.69397,156.265 885.49397,159.765 891.49397,159.765"
     id="path786" />
  <path
     class=""
     d="M 742.697,184.765 C 752.597,184.765 764.797,175.565 764.797,166.065 C 764.797,160.465 760.297,156.765 753.897,156.765 C 741.697,156.765 731.897,165.865 731.897,175.465 C 731.897,181.265 736.697,184.765 742.697,184.765"
     id="path788" />
  <path
     class=""
     d="M 781.854,172.265 C 791.754,172.265 803.954,163.065 803.954,153.56501 C 803.954,147.96501 799.454,144.26501 793.054,144.26501 C 780.854,144.26501 771.054,153.36501 771.054,162.965 C 771.054,168.765 775.854,172.265 781.854,172.265"
     id="path790" />
  <path
     class=""
     d="M 664.382,184.765 C 674.282,184.765 686.482,175.565 686.482,166.065 C 686.482,160.465 681.982,156.765 675.582,156.765 C 663.382,156.765 653.582,165.865 653.582,175.465 C 653.582,181.265 658.382,184.765 664.382,184.765"
     id="path792" />
  <path
     class=""
     d="M 703.539,197.265 C 713.439,197.265 725.639,188.065 725.639,178.565 C 725.639,172.965 721.139,169.265 714.739,169.265 C 702.539,169.265 692.739,178.365 692.739,187.965 C 692.739,193.765 697.539,197.265 703.539,197.265"
     id="path794" />
  <path
     class=""
     d="M 625.225,172.265 C 635.125,172.265 647.325,163.065 647.325,153.56501 C 647.325,147.96501 642.825,144.26501 636.425,144.26501 C 624.225,144.26501 614.425,153.36501 614.425,162.965 C 614.425,168.765 619.225,172.265 625.225,172.265"
     id="path796" />
  <path
     class=""
     d="M 501.842,184.765 C 511.742,184.765 523.942,175.565 523.942,166.065 C 523.942,160.465 519.442,156.765 513.042,156.765 C 500.842,156.765 491.042,165.865 491.042,175.465 C 491.042,181.265 495.842,184.765 501.842,184.765"
     id="path798" />
  <path
     class=""
     d="M 384.038,197.265 C 393.938,197.265 406.138,188.065 406.138,178.565 C 406.138,172.965 401.638,169.265 395.238,169.265 C 383.038,169.265 373.238,178.365 373.238,187.965 C 373.238,193.765 378.038,197.265 384.038,197.265"
     id="path800" />
  <path
     class=""
     d="M 230.873,209.765 C 249.273,209.765 252.973,194.765 252.973,191.165 C 252.973,185.465 248.473,181.765 241.973,181.765 C 225.273,181.765 220.073,194.665 220.073,200.465 C 220.073,206.365 224.773,209.765 230.873,209.765 M 239.373,200.865 C 234.373,204.265 230.873,205.465 228.473,205.465 C 226.173,205.465 224.773,204.265 224.073,202.865 C 223.673,202.265 223.373,201.465 223.373,200.665 C 223.373,195.265 239.473,186.365 244.773,186.365 C 246.873,186.365 248.073,187.365 248.873,188.765 C 249.173,189.365 249.473,190.065 249.473,190.865 C 249.473,193.065 247.173,195.765 239.373,200.865"
     id="path802" />
  <path
     class=""
     d="M 133.475,191.665 C 133.575,191.665 133.775,191.565 133.875,191.565 C 133.875,191.565 135.275,190.965 136.175,190.665 C 136.275,190.565 136.375,190.565 136.475,190.565 C 137.175,190.565 137.675,191.665 137.675,192.165 V 204.465 C 137.675,205.065 138.275,205.565 138.975,205.565 C 139.975,205.565 140.675,205.065 140.675,204.465 V 190.565 C 140.675,189.265 141.175,188.565 141.675,188.365 L 147.775,185.865 C 147.875,185.865 148.075,185.765 148.175,185.765 C 148.975,185.765 149.475,186.965 149.475,187.565 V 200.065 C 149.475,200.665 150.075,201.165 150.775,201.165 C 151.875,201.165 152.475,200.665 152.475,200.065 V 185.865 C 152.475,185.065 152.875,183.865 153.575,183.565 C 154.275,183.265 156.375,182.465 156.375,182.465 C 157.075,182.165 157.575,181.365 157.575,180.765 V 173.665 C 157.575,173.165 157.275,172.865 156.875,172.865 C 156.675,172.865 156.575,172.865 156.375,172.965 L 153.775,173.965 C 153.175,173.965 152.475,173.365 152.475,172.165 V 162.865 C 152.475,162.165 152.975,160.265 153.775,159.965 L 156.375,158.965 C 157.075,158.665 157.575,157.865 157.575,157.265 V 150.16501 C 157.575,149.66501 157.275,149.36501 156.875,149.36501 C 156.675,149.36501 156.575,149.36501 156.375,149.46501 C 156.375,149.46501 154.375,150.26501 153.875,150.36501 C 153.175,150.36501 152.475,149.86501 152.475,149.06501 V 136.86501 C 152.475,136.26501 151.875,135.76501 151.075,135.76501 C 150.075,135.76501 149.475,136.26501 149.475,136.86501 V 149.86501 C 149.375,150.86501 149.075,152.16501 148.175,152.76501 C 146.975,153.46501 143.575,154.865 141.875,155.265 C 140.975,155.265 140.675,154.06501 140.675,153.26501 V 141.26501 C 140.675,140.66501 139.975,140.16501 139.275,140.16501 C 138.275,140.16501 137.675,140.66501 137.675,141.26501 V 154.765 C 137.675,156.165 137.075,157.165 136.475,157.465 C 135.875,157.765 133.875,158.565 133.875,158.565 C 133.175,158.765 132.675,159.565 132.675,160.165 V 167.265 C 132.675,167.865 132.975,168.165 133.475,168.165 C 133.875,168.165 135.775,167.265 136.075,167.065 C 137.075,167.065 137.675,167.565 137.675,168.765 V 178.665 C 137.675,179.765 137.175,180.665 136.575,180.965 C 135.975,181.165 133.875,182.065 133.875,182.065 C 133.175,182.265 132.675,183.065 132.675,183.665 V 190.765 C 132.675,191.365 132.975,191.665 133.475,191.665 M 140.675,166.365 C 140.875,164.665 145.475,162.565 147.975,162.565 C 148.675,162.565 149.275,162.765 149.475,163.165 C 149.675,163.665 149.875,166.165 149.875,168.865 C 149.875,171.565 149.675,174.365 149.475,175.265 C 148.875,177.265 144.175,179.265 141.875,179.265 C 141.275,179.265 140.775,179.065 140.675,178.765 C 140.475,178.365 140.375,176.165 140.375,173.765 C 140.375,170.665 140.475,167.165 140.675,166.365"
     id="path806" />
  <path
     class=""
     fill-rule="evenodd"
     d="M 614.425,283.265 H 734.897 V 295.765 H 614.425 V 283.265"
     id="path808" />
  <path
     class=""
     fill-rule="evenodd"
     d="M 614.425,267.64 H 734.897 V 280.14 H 614.425 V 267.64"
     id="path810" />
  <path
     class=""
     fill-rule="evenodd"
     d="M 614.425,252.015 H 734.897 V 264.515 H 614.425 V 252.015"
     id="path812" />
  <path
     class=""
     d="M 1092.08,133.26501 C 1092.08,130.46501 1089.88,128.26501 1087.08,128.26501 C 1084.28,128.26501 1082.08,130.46501 1082.08,133.26501 C 1082.08,136.06501 1084.28,138.26501 1087.08,138.26501 C 1089.88,138.26501 1092.08,136.06501 1092.08,133.26501"
     id="path814" />
  <path
     class=""
     d="M 542.69,158.265 C 542.69,155.465 540.49,153.26501 537.69,153.26501 C 534.89,153.26501 532.69,155.465 532.69,158.265 C 532.69,161.065 534.89,163.265 537.69,163.265 C 540.49,163.265 542.69,161.065 542.69,158.265"
     id="path816" />
  <path
     class=""
     d="M 271.722,183.265 C 271.722,180.465 269.522,178.265 266.722,178.265 C 263.922,178.265 261.722,180.465 261.722,183.265 C 261.722,186.065 263.922,188.265 266.722,188.265 C 269.522,188.265 271.722,186.065 271.722,183.265"
     id="path818" />
  <metadata
     id="metadata2199">
    <rdf:RDF>
      <cc:Work
         rdf:about="">
        <dc:title>Unbenannt</dc:title>
      </cc:Work>
    </rdf:RDF>
  </metadata>
</svg>
