<?xml version="1.0" encoding="UTF-8" standalone="no"?>
<svg
   width="1427"
   height="300"
   viewBox="0 0 1427 300"
   version="1.2"
   id="svg332"
   sodipodi:docname="Bruckner_7_A-Kl._klingend.svg"
   inkscape:version="1.1-dev (0486c1a, 2020-10-10)"
   xmlns:inkscape="http://www.inkscape.org/namespaces/inkscape"
   xmlns:sodipodi="http://sodipodi.sourceforge.net/DTD/sodipodi-0.dtd"
   xmlns="http://www.w3.org/2000/svg"
   xmlns:svg="http://www.w3.org/2000/svg"
   xmlns:rdf="http://www.w3.org/1999/02/22-rdf-syntax-ns#"
   xmlns:cc="http://creativecommons.org/ns#"
   xmlns:dc="http://purl.org/dc/elements/1.1/">
  <defs
     id="defs336" />
  <sodipodi:namedview
     pagecolor="#ffffff"
     bordercolor="#666666"
     borderopacity="1"
     objecttolerance="10"
     gridtolerance="10"
     guidetolerance="10"
     inkscape:pageopacity="0"
     inkscape:pageshadow="2"
     inkscape:window-width="833"
     inkscape:window-height="480"
     id="namedview334"
     showgrid="false"
     inkscape:zoom="0.40715454"
     inkscape:cx="898.92157"
     inkscape:cy="228.4145"
     inkscape:window-x="188"
     inkscape:window-y="77"
     inkscape:window-maximized="0"
     inkscape:current-layer="svg332" />
  <title
     id="title200">Unbenannt</title>
  <desc
     id="desc202">Generated by MuseScore 3.5.2</desc>
  <circle
     style="fill:#ff5cff;fill-opacity:1;stroke:none;stroke-width:1.34991;stroke-linecap:round;stroke-linejoin:round"
     id="circle364"
     cx="220.125"
     cy="171.66499"
     r="37.795277" />
  <circle
     style="fill:#00ff00;fill-opacity:1;stroke:none;stroke-width:1.9;stroke-linecap:round;stroke-linejoin:round"
     id="circle470"
     cx="1354.77"
     cy="109.2648"
     r="56.692913" />
  <path
     class=""
     d="M 1349.12,123.265 C 1359.02,123.265 1371.22,114.065 1371.22,104.565 C 1371.22,98.9646 1366.72,95.2646 1360.32,95.2646 C 1348.12,95.2646 1338.32,104.365 1338.32,113.965 C 1338.32,119.765 1343.12,123.265 1349.12,123.265"
     id="path290" />
  <circle
     style="fill:#00ff00;fill-opacity:1;stroke:none;stroke-width:1.9;stroke-linecap:round;stroke-linejoin:round"
     id="circle466"
     cx="577.37701"
     cy="171.765"
     r="56.692913" />
  <path
     class=""
     d="M 571.727,185.765 C 590.127,185.765 593.827,170.765 593.827,167.165 C 593.827,161.465 589.327,157.765 582.827,157.765 C 566.127,157.765 560.927,170.665 560.927,176.465 C 560.927,182.365 565.627,185.765 571.727,185.765 M 580.227,176.865 C 575.227,180.265 571.727,181.465 569.327,181.465 C 567.027,181.465 565.627,180.265 564.927,178.865 C 564.527,178.265 564.227,177.465 564.227,176.665 C 564.227,171.265 580.327,162.365 585.627,162.365 C 587.727,162.365 588.927,163.365 589.727,164.765 C 590.027,165.365 590.327,166.065 590.327,166.865 C 590.327,169.065 588.027,171.765 580.227,176.865"
     id="path468" />
  <circle
     style="fill:#ffbf00;fill-opacity:1;stroke:none;stroke-width:1.9;stroke-linecap:round;stroke-linejoin:round"
     id="circle1609"
     cx="1078.12"
     cy="134.265"
     r="56.692913" />
  <path
     class=""
     stroke="#000000"
     stroke-width="2.5"
     stroke-linecap="round"
     stroke-linejoin="round"
     fill-rule="evenodd"
     d="M 311.522,174.265 C 461.194,79.8779 1191.47,18.6279 1354.77,86.7646 C 1191.97,24.6069 461.696,85.8569 311.522,174.265"
     id="path204" />
  <polyline
     class=""
     stroke="#000000"
     stroke-width="4"
     stroke-linejoin="bevel"
     points="1290.23,145.14 1290.23,248.39"
     id="polyline206" />
  <polyline
     class=""
     stroke="#000000"
     stroke-width="4"
     stroke-linejoin="bevel"
     points="1024.37,145.14 1024.37,248.39"
     id="polyline208" />
  <polyline
     class=""
     stroke="#000000"
     stroke-width="4"
     stroke-linejoin="bevel"
     points="523.63,145.14 523.63,248.39"
     id="polyline210" />
  <path
     id="polyline212"
     style="stroke:#000000;stroke-width:3.25;stroke-linejoin:bevel"
     d="M 1292.23,146.765 L 1396.1802,146.76661"
     class=""
     sodipodi:nodetypes="cc" />
  <path
     id="polyline214"
     style="stroke:#000000;stroke-width:3.25;stroke-linejoin:bevel"
     d="M 1292.23,171.765 H 1396.1802"
     class=""
     sodipodi:nodetypes="cc" />
  <path
     id="polyline216"
     style="stroke:#000000;stroke-width:3.25;stroke-linejoin:bevel"
     d="M 1292.23,196.765 H 1396.1802"
     class=""
     sodipodi:nodetypes="cc" />
  <path
     id="polyline218"
     style="stroke:#000000;stroke-width:3.25;stroke-linejoin:bevel"
     d="M 1292.23,221.765 H 1396.1802"
     class=""
     sodipodi:nodetypes="cc" />
  <path
     id="polyline220"
     style="stroke:#000000;stroke-width:3.25;stroke-linejoin:bevel"
     d="M 1292.23,246.765 H 1396.1802"
     class=""
     sodipodi:nodetypes="cc" />
  <polyline
     class=""
     stroke="#000000"
     stroke-width="3.25"
     stroke-linejoin="bevel"
     points="1026.37,146.765 1292.23,146.765"
     id="polyline222" />
  <polyline
     class=""
     stroke="#000000"
     stroke-width="3.25"
     stroke-linejoin="bevel"
     points="1026.37,171.765 1292.23,171.765"
     id="polyline224" />
  <polyline
     class=""
     stroke="#000000"
     stroke-width="3.25"
     stroke-linejoin="bevel"
     points="1026.37,196.765 1292.23,196.765"
     id="polyline226" />
  <polyline
     class=""
     stroke="#000000"
     stroke-width="3.25"
     stroke-linejoin="bevel"
     points="1026.37,221.765 1292.23,221.765"
     id="polyline228" />
  <polyline
     class=""
     stroke="#000000"
     stroke-width="3.25"
     stroke-linejoin="bevel"
     points="1026.37,246.765 1292.23,246.765"
     id="polyline230" />
  <polyline
     class=""
     stroke="#000000"
     stroke-width="3.25"
     stroke-linejoin="bevel"
     points="525.63,146.765 1026.37,146.765"
     id="polyline232" />
  <polyline
     class=""
     stroke="#000000"
     stroke-width="3.25"
     stroke-linejoin="bevel"
     points="525.63,171.765 1026.37,171.765"
     id="polyline234" />
  <polyline
     class=""
     stroke="#000000"
     stroke-width="3.25"
     stroke-linejoin="bevel"
     points="525.63,196.765 1026.37,196.765"
     id="polyline236" />
  <polyline
     class=""
     stroke="#000000"
     stroke-width="3.25"
     stroke-linejoin="bevel"
     points="525.63,221.765 1026.37,221.765"
     id="polyline238" />
  <polyline
     class=""
     stroke="#000000"
     stroke-width="3.25"
     stroke-linejoin="bevel"
     points="525.63,246.765 1026.37,246.765"
     id="polyline240" />
  <polyline
     class=""
     stroke="#000000"
     stroke-width="3.25"
     stroke-linejoin="bevel"
     points="20.5809,146.765 525.63,146.765"
     id="polyline242" />
  <polyline
     class=""
     stroke="#000000"
     stroke-width="3.25"
     stroke-linejoin="bevel"
     points="20.5809,171.765 525.63,171.765"
     id="polyline244" />
  <polyline
     class=""
     stroke="#000000"
     stroke-width="3.25"
     stroke-linejoin="bevel"
     points="20.5809,196.765 525.63,196.765"
     id="polyline246" />
  <polyline
     class=""
     stroke="#000000"
     stroke-width="3.25"
     stroke-linejoin="bevel"
     points="20.5809,221.765 525.63,221.765"
     id="polyline248" />
  <polyline
     class=""
     stroke="#000000"
     stroke-width="3.25"
     stroke-linejoin="bevel"
     points="20.5809,246.765 525.63,246.765"
     id="polyline250" />
  <path
     class=""
     d="M 1040.17,153.765 C 1040.27,153.765 1040.77,153.665 1040.87,153.565 C 1042.27,152.965 1047.87,150.565 1050.77,150.565 C 1051.77,150.565 1052.47,150.865 1052.47,151.665 V 166.565 C 1052.47,167.265 1052.97,167.765 1053.67,167.765 H 1054.97 C 1055.57,167.765 1056.17,167.265 1056.17,166.565 V 116.365 C 1056.17,115.865 1055.77,115.565 1055.37,115.565 C 1055.27,115.565 1055.07,115.565 1054.97,115.665 L 1053.47,116.165 C 1053.27,116.165 1053.17,116.265 1053.07,116.265 C 1053.07,116.265 1046.67,118.565 1044.07,118.565 C 1043.47,118.565 1043.07,118.465 1043.07,118.065 V 101.365 C 1043.07,100.665 1042.47,100.165 1041.87,100.165 H 1040.57 C 1039.87,100.165 1039.37,100.665 1039.37,101.365 V 152.865 C 1039.37,153.465 1039.67,153.765 1040.17,153.765 M 1043.07,130.365 C 1043.07,128.965 1049.17,126.365 1051.57,126.365 C 1052.17,126.365 1052.47,126.465 1052.47,126.865 V 137.165 C 1052.47,138.965 1046.77,141.265 1044.27,141.265 C 1043.57,141.265 1043.07,141.065 1043.07,140.665 V 130.365"
     id="path252" />
  <path
     class=""
     d="M 1309.93,117.365 C 1309.93,117.365 1309.63,111.365 1309.63,107.365 C 1309.63,105.765 1309.73,104.565 1309.83,104.165 C 1310.53,102.165 1314.53,99.2646 1316.83,99.2646 C 1319.73,99.2646 1320.93,102.565 1320.93,105.065 C 1320.93,110.465 1316.33,115.865 1312.03,118.565 C 1311.63,118.765 1311.33,118.865 1311.03,118.865 C 1310.13,118.865 1309.93,117.865 1309.93,117.365 M 1306.43,126.265 C 1306.73,126.665 1307.03,126.765 1307.33,126.765 C 1307.63,126.765 1307.93,126.565 1307.93,126.565 C 1310.93,124.865 1313.33,122.165 1315.83,120.465 C 1324.73,114.265 1327.83,108.165 1327.83,103.565 C 1327.83,97.8646 1323.43,94.2646 1318.83,93.9646 C 1317.13,93.9646 1314.73,94.7646 1313.33,95.6646 C 1312.73,96.1646 1311.63,97.0646 1311.13,97.0646 C 1310.93,97.0646 1310.83,97.0646 1310.63,96.9646 C 1309.93,96.6646 1309.53,95.9646 1309.53,95.2646 C 1309.63,93.0646 1310.23,69.0646 1310.23,67.0646 C 1310.23,65.9646 1309.33,65.3646 1308.33,65.3646 C 1306.93,65.3646 1305.33,66.3646 1305.23,68.1646 C 1305.23,68.1646 1305.63,125.265 1306.43,126.265"
     id="path254" />
  <path
     class=""
     d="M 539.43,191.265 C 539.53,191.265 540.03,191.165 540.13,191.065 C 541.53,190.465 547.13,188.065 550.03,188.065 C 551.03,188.065 551.73,188.365 551.73,189.165 V 204.065 C 551.73,204.765 552.23,205.265 552.93,205.265 H 554.23 C 554.83,205.265 555.43,204.765 555.43,204.065 V 153.865 C 555.43,153.365 555.03,153.065 554.63,153.065 C 554.53,153.065 554.33,153.065 554.23,153.165 L 552.73,153.665 C 552.53,153.665 552.43,153.765 552.33,153.765 C 552.33,153.765 545.93,156.065 543.33,156.065 C 542.73,156.065 542.33,155.965 542.33,155.565 V 138.865 C 542.33,138.165 541.73,137.665 541.13,137.665 H 539.83 C 539.13,137.665 538.63,138.165 538.63,138.865 V 190.365 C 538.63,190.965 538.93,191.265 539.43,191.265 M 542.33,167.865 C 542.33,166.465 548.43,163.865 550.83,163.865 C 551.43,163.865 551.73,163.965 551.73,164.365 V 174.665 C 551.73,176.465 546.03,178.765 543.53,178.765 C 542.83,178.765 542.33,178.565 542.33,178.165 V 167.865"
     id="path256" />
  <polyline
     class=""
     stroke="#000000"
     stroke-width="4"
     stroke-linecap="square"
     stroke-linejoin="bevel"
     points="1333.32,121.765 1376.22,121.765"
     id="polyline258" />
  <polyline
     class=""
     stroke="#000000"
     stroke-width="4"
     stroke-linecap="square"
     stroke-linejoin="bevel"
     points="1206.46,121.765 1249.35,121.765"
     id="polyline260" />
  <polyline
     class=""
     stroke="#000000"
     stroke-width="3"
     stroke-linecap="round"
     stroke-linejoin="bevel"
     points="1339.82,112.625 1339.82,196.765"
     id="polyline262" />
  <polyline
     class=""
     stroke="#000000"
     stroke-width="3"
     stroke-linecap="round"
     stroke-linejoin="bevel"
     points="1212.96,125.125 1212.96,209.265"
     id="polyline264" />
  <polyline
     class=""
     stroke="#000000"
     stroke-width="3"
     stroke-linecap="round"
     stroke-linejoin="bevel"
     points="1063.17,137.625 1063.17,221.765"
     id="polyline266" />
  <polyline
     class=""
     stroke="#000000"
     stroke-width="3"
     stroke-linecap="round"
     stroke-linejoin="bevel"
     points="926.332,150.125 926.332,234.265"
     id="polyline268" />
  <polyline
     class=""
     stroke="#000000"
     stroke-width="3"
     stroke-linecap="round"
     stroke-linejoin="bevel"
     points="828.79,162.625 828.79,246.765"
     id="polyline270" />
  <polyline
     class=""
     stroke="#000000"
     stroke-width="3"
     stroke-linecap="round"
     stroke-linejoin="bevel"
     points="750.493,187.625 750.493,290.515"
     id="polyline272" />
  <polyline
     class=""
     stroke="#000000"
     stroke-width="3"
     stroke-linecap="round"
     stroke-linejoin="bevel"
     points="789.642,175.125 789.642,290.515"
     id="polyline274" />
  <polyline
     class=""
     stroke="#000000"
     stroke-width="3"
     stroke-linecap="round"
     stroke-linejoin="bevel"
     points="672.196,162.625 672.196,290.515"
     id="polyline276" />
  <polyline
     class=""
     stroke="#000000"
     stroke-width="3"
     stroke-linecap="round"
     stroke-linejoin="bevel"
     points="711.345,175.125 711.345,290.515"
     id="polyline278" />
  <polyline
     class=""
     stroke="#000000"
     stroke-width="3"
     stroke-linecap="round"
     stroke-linejoin="bevel"
     points="562.427,175.125 562.427,256.14"
     id="polyline280" />
  <polyline
     class=""
     stroke="#000000"
     stroke-width="3"
     stroke-linecap="round"
     stroke-linejoin="bevel"
     points="446.357,187.625 446.357,265.515"
     id="polyline282" />
  <polyline
     class=""
     stroke="#000000"
     stroke-width="3"
     stroke-linecap="round"
     stroke-linejoin="bevel"
     points="296.573,200.125 296.573,274.89"
     id="polyline284" />
  <path
     class=""
     d="M 1222.26,135.765 C 1232.16,135.765 1244.36,126.565 1244.36,117.065 C 1244.36,111.465 1239.86,107.765 1233.46,107.765 C 1221.26,107.765 1211.46,116.865 1211.46,126.465 C 1211.46,132.265 1216.26,135.765 1222.26,135.765"
     id="path286" />
  <path
     class=""
     d="M 1072.47,148.265 C 1090.87,148.265 1094.57,133.265 1094.57,129.665 C 1094.57,123.965 1090.07,120.265 1083.57,120.265 C 1066.87,120.265 1061.67,133.165 1061.67,138.965 C 1061.67,144.865 1066.37,148.265 1072.47,148.265 M 1080.97,139.365 C 1075.97,142.765 1072.47,143.965 1070.07,143.965 C 1067.77,143.965 1066.37,142.765 1065.67,141.365 C 1065.27,140.765 1064.97,139.965 1064.97,139.165 C 1064.97,133.765 1081.07,124.865 1086.37,124.865 C 1088.47,124.865 1089.67,125.865 1090.47,127.265 C 1090.77,127.865 1091.07,128.565 1091.07,129.365 C 1091.07,131.565 1088.77,134.265 1080.97,139.365"
     id="path288" />
  <path
     class=""
     d="M 935.632,160.765 C 945.532,160.765 957.732,151.565 957.732,142.065 C 957.732,136.465 953.232,132.765 946.832,132.765 C 934.632,132.765 924.832,141.865 924.832,151.465 C 924.832,157.265 929.632,160.765 935.632,160.765"
     id="path292" />
  <path
     class=""
     d="M 838.09,173.265 C 847.99,173.265 860.19,164.065 860.19,154.565 C 860.19,148.965 855.69,145.265 849.29,145.265 C 837.09,145.265 827.29,154.365 827.29,163.965 C 827.29,169.765 832.09,173.265 838.09,173.265"
     id="path294" />
  <path
     class=""
     d="M 759.793,198.265 C 769.693,198.265 781.893,189.065 781.893,179.565 C 781.893,173.965 777.393,170.265 770.993,170.265 C 758.793,170.265 748.993,179.365 748.993,188.965 C 748.993,194.765 753.793,198.265 759.793,198.265"
     id="path296" />
  <path
     class=""
     d="M 798.942,185.765 C 808.842,185.765 821.042,176.565 821.042,167.065 C 821.042,161.465 816.542,157.765 810.142,157.765 C 797.942,157.765 788.142,166.865 788.142,176.465 C 788.142,182.265 792.942,185.765 798.942,185.765"
     id="path298" />
  <path
     class=""
     d="M 681.496,173.265 C 691.396,173.265 703.596,164.065 703.596,154.565 C 703.596,148.965 699.096,145.265 692.696,145.265 C 680.496,145.265 670.696,154.365 670.696,163.965 C 670.696,169.765 675.496,173.265 681.496,173.265"
     id="path300" />
  <path
     class=""
     d="M 720.645,185.765 C 730.545,185.765 742.745,176.565 742.745,167.065 C 742.745,161.465 738.245,157.765 731.845,157.765 C 719.645,157.765 709.845,166.865 709.845,176.465 C 709.845,182.265 714.645,185.765 720.645,185.765"
     id="path302" />
  <path
     class=""
     d="M 571.727,185.765 C 581.627,185.765 593.827,176.565 593.827,167.065 C 593.827,161.465 589.327,157.765 582.927,157.765 C 570.727,157.765 560.927,166.865 560.927,176.465 C 560.927,182.265 565.727,185.765 571.727,185.765"
     id="path304" />
  <path
     class=""
     d="M 455.657,198.265 C 465.557,198.265 477.757,189.065 477.757,179.565 C 477.757,173.965 473.257,170.265 466.857,170.265 C 454.657,170.265 444.857,179.365 444.857,188.965 C 444.857,194.765 449.657,198.265 455.657,198.265"
     id="path306" />
  <path
     class=""
     d="M 305.873,210.765 C 324.273,210.765 327.973,195.765 327.973,192.165 C 327.973,186.465 323.473,182.765 316.973,182.765 C 300.273,182.765 295.073,195.665 295.073,201.465 C 295.073,207.365 299.773,210.765 305.873,210.765 M 314.373,201.865 C 309.373,205.265 305.873,206.465 303.473,206.465 C 301.173,206.465 299.773,205.265 299.073,203.865 C 298.673,203.265 298.373,202.465 298.373,201.665 C 298.373,196.265 314.473,187.365 319.773,187.365 C 321.873,187.365 323.073,188.365 323.873,189.765 C 324.173,190.365 324.473,191.065 324.473,191.865 C 324.473,194.065 322.173,196.765 314.373,201.865"
     id="path308" />
  <path
     class=""
     d="M 87.5809,127.465 C 90.8809,127.465 93.5809,130.165 93.5809,135.665 C 93.5809,146.765 84.0809,155.765 76.1809,162.665 C 75.8809,162.865 75.6809,163.065 75.4809,163.065 C 75.1809,163.065 74.9809,162.665 74.8809,161.865 C 74.4809,159.265 74.2809,155.865 74.2809,152.665 C 74.2809,137.065 81.4809,127.465 87.5809,127.465 M 83.5809,211.465 C 83.3809,210.365 83.4809,210.065 84.2809,210.065 C 84.3809,210.065 84.5809,210.065 84.6809,210.065 C 92.7809,210.765 99.4809,217.565 99.4809,226.365 C 99.4809,232.665 95.6809,237.765 90.0809,240.565 C 89.5809,240.765 89.2809,240.965 89.0809,240.965 C 88.6809,240.965 88.5809,240.665 88.4809,239.965 L 83.5809,211.465 M 76.6809,195.565 C 76.9809,197.465 76.9809,197.365 75.1809,197.965 C 66.3809,200.965 60.6809,208.865 60.6809,217.365 C 60.6809,226.365 65.3809,232.765 72.1809,235.065 C 72.9809,235.365 74.1809,235.665 74.8809,235.665 C 75.6809,235.665 76.0809,235.165 76.0809,234.565 C 76.0809,233.865 75.2809,233.565 74.5809,233.265 C 70.3809,231.465 67.3809,227.165 67.3809,222.565 C 67.3809,216.865 71.2809,212.565 77.3809,210.865 C 77.8809,210.765 78.2809,210.665 78.5809,210.665 C 79.0809,210.665 79.2809,210.965 79.3809,211.665 L 84.3809,241.465 C 84.5809,242.565 84.4809,242.565 82.9809,242.865 C 81.3809,243.165 79.3809,243.365 77.3809,243.365 C 59.8809,243.365 48.5809,233.665 48.5809,219.765 C 48.5809,202.765 61.0809,192.165 73.1809,182.365 C 73.5809,182.065 73.8809,181.865 74.0809,181.865 C 74.3809,181.865 74.4809,182.165 74.5809,182.765 L 76.6809,195.565 M 78.1809,180.265 C 77.9809,179.065 78.1809,178.965 78.7809,178.365 C 89.5809,168.265 97.7809,155.565 97.7809,140.265 C 97.7809,131.565 95.3809,122.965 91.2809,116.965 C 89.7809,114.765 87.1809,111.965 86.0809,111.965 C 84.6809,111.965 81.5809,114.565 79.5809,116.765 C 72.1809,124.965 69.7809,137.465 69.7809,147.865 C 69.7809,153.665 70.4809,160.165 71.1809,164.265 C 71.3809,165.465 71.4809,165.665 70.2809,166.665 C 55.8809,178.565 40.5809,192.865 40.5809,213.065 C 40.5809,230.465 52.4809,246.965 76.9809,246.965 C 79.2809,246.965 81.8809,246.765 83.8809,246.365 C 84.2809,246.265 84.4809,246.265 84.6809,246.265 C 85.0809,246.265 85.2809,246.465 85.3809,247.265 C 86.5809,253.965 88.0809,262.665 88.0809,267.365 C 88.0809,282.165 78.0809,283.965 72.1809,283.965 C 66.7809,283.965 64.1809,282.365 64.1809,281.065 C 64.1809,280.365 65.0809,280.065 67.3809,279.365 C 70.4809,278.465 74.0809,275.765 74.0809,269.965 C 74.0809,264.465 70.5809,259.765 64.4809,259.765 C 57.7809,259.765 53.7809,265.065 53.7809,271.265 C 53.7809,277.765 57.6809,287.565 72.7809,287.565 C 79.4809,287.565 92.4809,284.565 92.4809,267.565 C 92.4809,261.865 90.6809,252.365 89.5809,246.165 C 89.3809,244.965 89.4809,245.065 90.8809,244.465 C 100.981,240.465 107.681,231.965 107.681,220.665 C 107.681,207.865 98.2809,196.565 83.5809,196.565 C 80.9809,196.565 80.9809,196.565 80.6809,194.765 L 78.1809,180.265"
     id="path310" />
  <path
     class=""
     d="M 208.475,192.665 C 208.575,192.665 208.775,192.565 208.875,192.565 C 208.875,192.565 210.275,191.965 211.175,191.665 C 211.275,191.565 211.375,191.565 211.475,191.565 C 212.175,191.565 212.675,192.665 212.675,193.165 V 205.465 C 212.675,206.065 213.275,206.565 213.975,206.565 C 214.975,206.565 215.675,206.065 215.675,205.465 V 191.565 C 215.675,190.265 216.175,189.565 216.675,189.365 L 222.775,186.865 C 222.875,186.865 223.075,186.765 223.175,186.765 C 223.975,186.765 224.475,187.965 224.475,188.565 V 201.065 C 224.475,201.665 225.075,202.165 225.775,202.165 C 226.875,202.165 227.475,201.665 227.475,201.065 V 186.865 C 227.475,186.065 227.875,184.865 228.575,184.565 C 229.275,184.265 231.375,183.465 231.375,183.465 C 232.075,183.165 232.575,182.365 232.575,181.765 V 174.665 C 232.575,174.165 232.275,173.865 231.875,173.865 C 231.675,173.865 231.575,173.865 231.375,173.965 L 228.775,174.965 C 228.175,174.965 227.475,174.365 227.475,173.165 V 163.865 C 227.475,163.165 227.975,161.265 228.775,160.965 L 231.375,159.965 C 232.075,159.665 232.575,158.865 232.575,158.265 V 151.165 C 232.575,150.665 232.275,150.365 231.875,150.365 C 231.675,150.365 231.575,150.365 231.375,150.465 C 231.375,150.465 229.375,151.265 228.875,151.365 C 228.175,151.365 227.475,150.865 227.475,150.065 V 137.865 C 227.475,137.265 226.875,136.765 226.075,136.765 C 225.075,136.765 224.475,137.265 224.475,137.865 V 150.865 C 224.375,151.865 224.075,153.165 223.175,153.765 C 221.975,154.465 218.575,155.865 216.875,156.265 C 215.975,156.265 215.675,155.065 215.675,154.265 V 142.265 C 215.675,141.665 214.975,141.165 214.275,141.165 C 213.275,141.165 212.675,141.665 212.675,142.265 V 155.765 C 212.675,157.165 212.075,158.165 211.475,158.465 C 210.875,158.765 208.875,159.565 208.875,159.565 C 208.175,159.765 207.675,160.565 207.675,161.165 V 168.265 C 207.675,168.865 207.975,169.165 208.475,169.165 C 208.875,169.165 210.775,168.265 211.075,168.065 C 212.075,168.065 212.675,168.565 212.675,169.765 V 179.665 C 212.675,180.765 212.175,181.665 211.575,181.965 C 210.975,182.165 208.875,183.065 208.875,183.065 C 208.175,183.265 207.675,184.065 207.675,184.665 V 191.765 C 207.675,192.365 207.975,192.665 208.475,192.665 M 215.675,167.365 C 215.875,165.665 220.475,163.565 222.975,163.565 C 223.675,163.565 224.275,163.765 224.475,164.165 C 224.675,164.665 224.875,167.165 224.875,169.865 C 224.875,172.565 224.675,175.365 224.475,176.265 C 223.875,178.265 219.175,180.265 216.875,180.265 C 216.275,180.265 215.775,180.065 215.675,179.765 C 215.475,179.365 215.375,177.165 215.375,174.765 C 215.375,171.665 215.475,168.165 215.675,167.365"
     id="path312" />
  <path
     class=""
     d="M 183.475,155.165 C 183.575,155.165 183.775,155.065 183.875,155.065 C 183.875,155.065 185.275,154.465 186.175,154.165 C 186.275,154.065 186.375,154.065 186.475,154.065 C 187.175,154.065 187.675,155.165 187.675,155.665 V 167.965 C 187.675,168.565 188.275,169.065 188.975,169.065 C 189.975,169.065 190.675,168.565 190.675,167.965 V 154.065 C 190.675,152.765 191.175,152.065 191.675,151.865 L 197.775,149.365 C 197.875,149.365 198.075,149.265 198.175,149.265 C 198.975,149.265 199.475,150.465 199.475,151.065 V 163.565 C 199.475,164.165 200.075,164.665 200.775,164.665 C 201.875,164.665 202.475,164.165 202.475,163.565 V 149.365 C 202.475,148.565 202.875,147.365 203.575,147.065 C 204.275,146.765 206.375,145.965 206.375,145.965 C 207.075,145.665 207.575,144.865 207.575,144.265 V 137.165 C 207.575,136.665 207.275,136.365 206.875,136.365 C 206.675,136.365 206.575,136.365 206.375,136.465 L 203.775,137.465 C 203.175,137.465 202.475,136.865 202.475,135.665 V 126.365 C 202.475,125.665 202.975,123.765 203.775,123.465 L 206.375,122.465 C 207.075,122.165 207.575,121.365 207.575,120.765 V 113.665 C 207.575,113.165 207.275,112.865 206.875,112.865 C 206.675,112.865 206.575,112.865 206.375,112.965 C 206.375,112.965 204.375,113.765 203.875,113.865 C 203.175,113.865 202.475,113.365 202.475,112.565 V 100.365 C 202.475,99.7646 201.875,99.2646 201.075,99.2646 C 200.075,99.2646 199.475,99.7646 199.475,100.365 V 113.365 C 199.375,114.365 199.075,115.665 198.175,116.265 C 196.975,116.965 193.575,118.365 191.875,118.765 C 190.975,118.765 190.675,117.565 190.675,116.765 V 104.765 C 190.675,104.165 189.975,103.665 189.275,103.665 C 188.275,103.665 187.675,104.165 187.675,104.765 V 118.265 C 187.675,119.665 187.075,120.665 186.475,120.965 C 185.875,121.265 183.875,122.065 183.875,122.065 C 183.175,122.265 182.675,123.065 182.675,123.665 V 130.765 C 182.675,131.365 182.975,131.665 183.475,131.665 C 183.875,131.665 185.775,130.765 186.075,130.565 C 187.075,130.565 187.675,131.065 187.675,132.265 V 142.165 C 187.675,143.265 187.175,144.165 186.575,144.465 C 185.975,144.665 183.875,145.565 183.875,145.565 C 183.175,145.765 182.675,146.565 182.675,147.165 V 154.265 C 182.675,154.865 182.975,155.165 183.475,155.165 M 190.675,129.865 C 190.875,128.165 195.475,126.065 197.975,126.065 C 198.675,126.065 199.275,126.265 199.475,126.665 C 199.675,127.165 199.875,129.665 199.875,132.365 C 199.875,135.065 199.675,137.865 199.475,138.765 C 198.875,140.765 194.175,142.765 191.875,142.765 C 191.275,142.765 190.775,142.565 190.675,142.265 C 190.475,141.865 190.375,139.665 190.375,137.265 C 190.375,134.165 190.475,130.665 190.675,129.865"
     id="path314" />
  <path
     class=""
     d="M 158.475,205.165 C 158.575,205.165 158.775,205.065 158.875,205.065 C 158.875,205.065 160.275,204.465 161.175,204.165 C 161.275,204.065 161.375,204.065 161.475,204.065 C 162.175,204.065 162.675,205.165 162.675,205.665 V 217.965 C 162.675,218.565 163.275,219.065 163.975,219.065 C 164.975,219.065 165.675,218.565 165.675,217.965 V 204.065 C 165.675,202.765 166.175,202.065 166.675,201.865 L 172.775,199.365 C 172.875,199.365 173.075,199.265 173.175,199.265 C 173.975,199.265 174.475,200.465 174.475,201.065 V 213.565 C 174.475,214.165 175.075,214.665 175.775,214.665 C 176.875,214.665 177.475,214.165 177.475,213.565 V 199.365 C 177.475,198.565 177.875,197.365 178.575,197.065 C 179.275,196.765 181.375,195.965 181.375,195.965 C 182.075,195.665 182.575,194.865 182.575,194.265 V 187.165 C 182.575,186.665 182.275,186.365 181.875,186.365 C 181.675,186.365 181.575,186.365 181.375,186.465 L 178.775,187.465 C 178.175,187.465 177.475,186.865 177.475,185.665 V 176.365 C 177.475,175.665 177.975,173.765 178.775,173.465 L 181.375,172.465 C 182.075,172.165 182.575,171.365 182.575,170.765 V 163.665 C 182.575,163.165 182.275,162.865 181.875,162.865 C 181.675,162.865 181.575,162.865 181.375,162.965 C 181.375,162.965 179.375,163.765 178.875,163.865 C 178.175,163.865 177.475,163.365 177.475,162.565 V 150.365 C 177.475,149.765 176.875,149.265 176.075,149.265 C 175.075,149.265 174.475,149.765 174.475,150.365 V 163.365 C 174.375,164.365 174.075,165.665 173.175,166.265 C 171.975,166.965 168.575,168.365 166.875,168.765 C 165.975,168.765 165.675,167.565 165.675,166.765 V 154.765 C 165.675,154.165 164.975,153.665 164.275,153.665 C 163.275,153.665 162.675,154.165 162.675,154.765 V 168.265 C 162.675,169.665 162.075,170.665 161.475,170.965 C 160.875,171.265 158.875,172.065 158.875,172.065 C 158.175,172.265 157.675,173.065 157.675,173.665 V 180.765 C 157.675,181.365 157.975,181.665 158.475,181.665 C 158.875,181.665 160.775,180.765 161.075,180.565 C 162.075,180.565 162.675,181.065 162.675,182.265 V 192.165 C 162.675,193.265 162.175,194.165 161.575,194.465 C 160.975,194.665 158.875,195.565 158.875,195.565 C 158.175,195.765 157.675,196.565 157.675,197.165 V 204.265 C 157.675,204.865 157.975,205.165 158.475,205.165 M 165.675,179.865 C 165.875,178.165 170.475,176.065 172.975,176.065 C 173.675,176.065 174.275,176.265 174.475,176.665 C 174.675,177.165 174.875,179.665 174.875,182.365 C 174.875,185.065 174.675,187.865 174.475,188.765 C 173.875,190.765 169.175,192.765 166.875,192.765 C 166.275,192.765 165.775,192.565 165.675,192.265 C 165.475,191.865 165.375,189.665 165.375,187.265 C 165.375,184.165 165.475,180.665 165.675,179.865"
     id="path316" />
  <path
     class=""
     d="M 133.475,167.665 C 133.575,167.665 133.775,167.565 133.875,167.565 C 133.875,167.565 135.275,166.965 136.175,166.665 C 136.275,166.565 136.375,166.565 136.475,166.565 C 137.175,166.565 137.675,167.665 137.675,168.165 V 180.465 C 137.675,181.065 138.275,181.565 138.975,181.565 C 139.975,181.565 140.675,181.065 140.675,180.465 V 166.565 C 140.675,165.265 141.175,164.565 141.675,164.365 L 147.775,161.865 C 147.875,161.865 148.075,161.765 148.175,161.765 C 148.975,161.765 149.475,162.965 149.475,163.565 V 176.065 C 149.475,176.665 150.075,177.165 150.775,177.165 C 151.875,177.165 152.475,176.665 152.475,176.065 V 161.865 C 152.475,161.065 152.875,159.865 153.575,159.565 C 154.275,159.265 156.375,158.465 156.375,158.465 C 157.075,158.165 157.575,157.365 157.575,156.765 V 149.665 C 157.575,149.165 157.275,148.865 156.875,148.865 C 156.675,148.865 156.575,148.865 156.375,148.965 L 153.775,149.965 C 153.175,149.965 152.475,149.365 152.475,148.165 V 138.865 C 152.475,138.165 152.975,136.265 153.775,135.965 L 156.375,134.965 C 157.075,134.665 157.575,133.865 157.575,133.265 V 126.165 C 157.575,125.665 157.275,125.365 156.875,125.365 C 156.675,125.365 156.575,125.365 156.375,125.465 C 156.375,125.465 154.375,126.265 153.875,126.365 C 153.175,126.365 152.475,125.865 152.475,125.065 V 112.865 C 152.475,112.265 151.875,111.765 151.075,111.765 C 150.075,111.765 149.475,112.265 149.475,112.865 V 125.865 C 149.375,126.865 149.075,128.165 148.175,128.765 C 146.975,129.465 143.575,130.865 141.875,131.265 C 140.975,131.265 140.675,130.065 140.675,129.265 V 117.265 C 140.675,116.665 139.975,116.165 139.275,116.165 C 138.275,116.165 137.675,116.665 137.675,117.265 V 130.765 C 137.675,132.165 137.075,133.165 136.475,133.465 C 135.875,133.765 133.875,134.565 133.875,134.565 C 133.175,134.765 132.675,135.565 132.675,136.165 V 143.265 C 132.675,143.865 132.975,144.165 133.475,144.165 C 133.875,144.165 135.775,143.265 136.075,143.065 C 137.075,143.065 137.675,143.565 137.675,144.765 V 154.665 C 137.675,155.765 137.175,156.665 136.575,156.965 C 135.975,157.165 133.875,158.065 133.875,158.065 C 133.175,158.265 132.675,159.065 132.675,159.665 V 166.765 C 132.675,167.365 132.975,167.665 133.475,167.665 M 140.675,142.365 C 140.875,140.665 145.475,138.565 147.975,138.565 C 148.675,138.565 149.275,138.765 149.475,139.165 C 149.675,139.665 149.875,142.165 149.875,144.865 C 149.875,147.565 149.675,150.365 149.475,151.265 C 148.875,153.265 144.175,155.265 141.875,155.265 C 141.275,155.265 140.775,155.065 140.675,154.765 C 140.475,154.365 140.375,152.165 140.375,149.765 C 140.375,146.665 140.475,143.165 140.675,142.365"
     id="path318" />
  <path
     class=""
     fill-rule="evenodd"
     d="M 670.696,284.265 H 791.142 V 296.765 H 670.696 V 284.265"
     id="path320" />
  <path
     class=""
     fill-rule="evenodd"
     d="M 670.696,268.64 H 791.142 V 281.14 H 670.696 V 268.64"
     id="path322" />
  <path
     class=""
     fill-rule="evenodd"
     d="M 670.696,253.015 H 791.142 V 265.515 H 670.696 V 253.015"
     id="path324" />
  <path
     class=""
     d="M 1113.32,134.265 C 1113.32,131.465 1111.12,129.265 1108.32,129.265 C 1105.52,129.265 1103.32,131.465 1103.32,134.265 C 1103.32,137.065 1105.52,139.265 1108.32,139.265 C 1111.12,139.265 1113.32,137.065 1113.32,134.265"
     id="path326" />
  <path
     class=""
     d="M 612.576,159.265 C 612.576,156.465 610.376,154.265 607.576,154.265 C 604.776,154.265 602.576,156.465 602.576,159.265 C 602.576,162.065 604.776,164.265 607.576,164.265 C 610.376,164.265 612.576,162.065 612.576,159.265"
     id="path328" />
  <path
     class=""
     d="M 346.722,184.265 C 346.722,181.465 344.522,179.265 341.722,179.265 C 338.922,179.265 336.722,181.465 336.722,184.265 C 336.722,187.065 338.922,189.265 341.722,189.265 C 344.522,189.265 346.722,187.065 346.722,184.265"
     id="path330" />
  <text
     xml:space="preserve"
     style="font-size:42.6667px;line-height:1.25;font-family:'Libertinus Sans';-inkscape-font-specification:'Libertinus Sans';letter-spacing:0px;word-spacing:0px;fill:#ff00ff"
     x="16.57023"
     y="35.912842"
     id="text1183"><tspan
       sodipodi:role="line"
       id="tspan1181"
       x="16.57023"
       y="35.912842">E-Dur: Der letzte Kreuz entspricht dem Leitton einer Dur-Tonart</tspan></text>
  <metadata
     id="metadata2930">
    <rdf:RDF>
      <cc:Work
         rdf:about="">
        <dc:title>Unbenannt</dc:title>
      </cc:Work>
    </rdf:RDF>
  </metadata>
</svg>
