<?xml version="1.0" encoding="UTF-8" standalone="no"?>
<svg
   width="225.52548"
   height="189.5997"
   viewBox="0 0 225.52548 189.5997"
   version="1.2"
   id="svg3807"
   sodipodi:docname="C-Dur_A-Dur_abgezogen.svg"
   inkscape:version="1.1-dev (0486c1a, 2020-10-10)"
   xmlns:inkscape="http://www.inkscape.org/namespaces/inkscape"
   xmlns:sodipodi="http://sodipodi.sourceforge.net/DTD/sodipodi-0.dtd"
   xmlns="http://www.w3.org/2000/svg"
   xmlns:svg="http://www.w3.org/2000/svg"
   xmlns:rdf="http://www.w3.org/1999/02/22-rdf-syntax-ns#"
   xmlns:cc="http://creativecommons.org/ns#"
   xmlns:dc="http://purl.org/dc/elements/1.1/">
  <defs
     id="defs3811" />
  <sodipodi:namedview
     pagecolor="#ffffff"
     bordercolor="#666666"
     borderopacity="1"
     objecttolerance="10"
     gridtolerance="10"
     guidetolerance="10"
     inkscape:pageopacity="0"
     inkscape:pageshadow="2"
     inkscape:window-width="1044"
     inkscape:window-height="480"
     id="namedview3809"
     showgrid="false"
     inkscape:zoom="0.44682018"
     inkscape:cx="350.25276"
     inkscape:cy="116.37791"
     inkscape:window-x="133"
     inkscape:window-y="74"
     inkscape:window-maximized="0"
     inkscape:current-layer="svg3807"
     lock-margins="true"
     fit-margin-top="1"
     fit-margin-left="1"
     fit-margin-right="1"
     fit-margin-bottom="1" />
  <title
     id="title3647">Unbenannt</title>
  <desc
     id="desc3649">Generated by MuseScore 3.5.2</desc>
  <g
     id="g4750"
     transform="translate(-13.7547,-60.9293)">
    <path
       id="polyline3701"
       style="stroke:#000000;stroke-width:3.25;stroke-linejoin:bevel"
       d="M 14.7547,208.729 H 238.28018 V 208.729"
       class=""
       sodipodi:nodetypes="ccc" />
    <path
       id="polyline3693"
       style="stroke:#000000;stroke-width:3.25;stroke-linejoin:bevel"
       d="M 14.7547,108.729 H 238.28018 V 108.729"
       class=""
       sodipodi:nodetypes="ccc" />
    <path
       id="polyline3695"
       style="stroke:#000000;stroke-width:3.25;stroke-linejoin:bevel"
       d="M 14.7547,133.729 H 238.28018 V 133.729"
       class=""
       sodipodi:nodetypes="ccc" />
    <path
       id="polyline3697"
       style="stroke:#000000;stroke-width:3.25;stroke-linejoin:bevel"
       d="M 14.7547,158.729 H 238.28018 V 158.729"
       class=""
       sodipodi:nodetypes="ccc" />
    <path
       id="polyline3699"
       style="stroke:#000000;stroke-width:3.25;stroke-linejoin:bevel"
       d="M 14.7547,183.729 H 238.28018 V 183.729"
       class=""
       sodipodi:nodetypes="ccc" />
  </g>
  <path
     class=""
     d="M 68,28.5 C 71.3,28.5 74,31.2 74,36.7 C 74,47.7997 64.5,56.7997 56.6,63.6997 C 56.3,63.8997 56.1,64.0997 55.9,64.0997 C 55.6,64.0997 55.4,63.6997 55.3,62.8997 C 54.9,60.2997 54.7,56.8997 54.7,53.6997 C 54.7,38.1 61.9,28.5 68,28.5 M 64,112.4997 C 63.8,111.3997 63.9,111.0997 64.7,111.0997 C 64.8,111.0997 65,111.0997 65.1,111.0997 C 73.2,111.7997 79.9,118.5997 79.9,127.3997 C 79.9,133.6997 76.1,138.7997 70.5,141.5997 C 70,141.7997 69.7,141.9997 69.5,141.9997 C 69.1,141.9997 69,141.6997 68.9,140.9997 L 64,112.4997 M 57.1,96.5997 C 57.4,98.4997 57.4,98.3997 55.6,98.9997 C 46.8,101.9997 41.1,109.8997 41.1,118.3997 C 41.1,127.3997 45.8,133.7997 52.6,136.0997 C 53.4,136.3997 54.6,136.6997 55.3,136.6997 C 56.1,136.6997 56.5,136.1997 56.5,135.5997 C 56.5,134.8997 55.7,134.5997 55,134.2997 C 50.8,132.4997 47.8,128.1997 47.8,123.5997 C 47.8,117.8997 51.7,113.5997 57.8,111.8997 C 58.3,111.7997 58.7,111.6997 59,111.6997 C 59.5,111.6997 59.7,111.9997 59.8,112.6997 L 64.8,142.4997 C 65,143.5997 64.9,143.5997 63.4,143.8997 C 61.8,144.1997 59.8,144.3997 57.8,144.3997 C 40.3,144.3997 29,134.6997 29,120.7997 C 29,103.7997 41.5,93.1997 53.6,83.3997 C 54,83.0997 54.3,82.8997 54.5,82.8997 C 54.8,82.8997 54.9,83.1997 55,83.7997 L 57.1,96.5997 M 58.6,81.2997 C 58.4,80.0997 58.6,79.9997 59.2,79.3997 C 70,69.2997 78.2,56.5997 78.2,41.2997 C 78.2,32.6 75.8,24 71.7,18 C 70.2,15.8 67.6,13 66.5,13 C 65.1,13 62,15.6 60,17.8 C 52.6,26 50.2,38.5 50.2,48.8997 C 50.2,54.6997 50.9,61.1997 51.6,65.2997 C 51.8,66.4997 51.9,66.6997 50.7,67.6997 C 36.3,79.5997 21,93.8997 21,114.0997 C 21,131.4997 32.9,147.9997 57.4,147.9997 C 59.7,147.9997 62.3,147.7997 64.3,147.3997 C 64.7,147.2997 64.9,147.2997 65.1,147.2997 C 65.5,147.2997 65.7,147.4997 65.8,148.2997 C 67,154.9997 68.5,163.6997 68.5,168.3997 C 68.5,183.1997 58.5,184.9997 52.6,184.9997 C 47.2,184.9997 44.6,183.3997 44.6,182.0997 C 44.6,181.3997 45.5,181.0997 47.8,180.3997 C 50.9,179.4997 54.5,176.7997 54.5,170.9997 C 54.5,165.4997 51,160.7997 44.9,160.7997 C 38.2,160.7997 34.2,166.0997 34.2,172.2997 C 34.2,178.7997 38.1,188.5997 53.2,188.5997 C 59.9,188.5997 72.9,185.5997 72.9,168.5997 C 72.9,162.8997 71.1,153.3997 70,147.1997 C 69.8,145.9997 69.9,146.0997 71.3,145.4997 C 81.4,141.4997 88.1003,132.9997 88.1003,121.6997 C 88.1003,108.8997 78.7,97.5997 64,97.5997 C 61.4,97.5997 61.4,97.5997 61.1,95.7997 L 58.6,81.2997"
     id="path3775" />
  <metadata
     id="metadata5236">
    <rdf:RDF>
      <cc:Work
         rdf:about="">
        <dc:title>Unbenannt</dc:title>
      </cc:Work>
    </rdf:RDF>
  </metadata>
</svg>
