<?xml version="1.0" encoding="UTF-8" standalone="no"?>
<svg
   width="251.24306"
   height="203.98634"
   viewBox="0 0 251.24306 203.98635"
   version="1.2"
   id="svg3388"
   sodipodi:docname="e-Moll_-_A-Dur.svg"
   inkscape:version="1.1-dev (0486c1a, 2020-10-10)"
   xmlns:inkscape="http://www.inkscape.org/namespaces/inkscape"
   xmlns:sodipodi="http://sodipodi.sourceforge.net/DTD/sodipodi-0.dtd"
   xmlns="http://www.w3.org/2000/svg"
   xmlns:svg="http://www.w3.org/2000/svg"
   xmlns:rdf="http://www.w3.org/1999/02/22-rdf-syntax-ns#"
   xmlns:cc="http://creativecommons.org/ns#"
   xmlns:dc="http://purl.org/dc/elements/1.1/">
  <defs
     id="defs3392">
    <filter
       inkscape:collect="always"
       style="color-interpolation-filters:sRGB"
       id="filter5010"
       x="-0.22131903"
       width="1.4426382"
       y="-0.078951925"
       height="1.1579039">
      <feGaussianBlur
         inkscape:collect="always"
         stdDeviation="2.2961852"
         id="feGaussianBlur5012" />
    </filter>
    <filter
       inkscape:collect="always"
       style="color-interpolation-filters:sRGB"
       id="filter5028"
       x="-0.17812312"
       width="1.3562462"
       y="-0.063542488"
       height="1.127085">
      <feGaussianBlur
         inkscape:collect="always"
         stdDeviation="1.8480274"
         id="feGaussianBlur5030" />
    </filter>
    <filter
       inkscape:collect="always"
       style="color-interpolation-filters:sRGB"
       id="filter5032"
       x="-0.17812312"
       width="1.3562462"
       y="-0.06354249"
       height="1.127085">
      <feGaussianBlur
         inkscape:collect="always"
         stdDeviation="1.8480274"
         id="feGaussianBlur5034" />
    </filter>
  </defs>
  <sodipodi:namedview
     pagecolor="#ffffff"
     bordercolor="#666666"
     borderopacity="1"
     objecttolerance="10"
     gridtolerance="10"
     guidetolerance="10"
     inkscape:pageopacity="0"
     inkscape:pageshadow="2"
     inkscape:window-width="1262"
     inkscape:window-height="696"
     id="namedview3390"
     showgrid="false"
     inkscape:zoom="1.5821297"
     inkscape:cx="67.314329"
     inkscape:cy="111.24246"
     inkscape:window-x="-30"
     inkscape:window-y="43"
     inkscape:window-maximized="0"
     inkscape:current-layer="svg3388"
     lock-margins="true"
     fit-margin-top="1"
     fit-margin-left="1"
     fit-margin-right="1"
     fit-margin-bottom="1"
     inkscape:snap-global="false" />
  <title
     id="title3222">Unbenannt</title>
  <desc
     id="desc3224">Generated by MuseScore 3.5.2</desc>
  <path
     class=""
     d="M 135.45277,122.60643 C 135.55277,122.60643 135.75277,122.50643 135.85277,122.50643 C 135.85277,122.50643 137.25277,121.90643 138.15277,121.60643 C 138.25277,121.50643 138.35277,121.50643 138.45277,121.50643 C 139.15277,121.50643 139.65277,122.60643 139.65277,123.10643 V 135.40643 C 139.65277,136.00643 140.25277,136.50643 140.95277,136.50643 C 141.95277,136.50643 142.65277,136.00643 142.65277,135.40643 V 121.50643 C 142.65277,120.20643 143.15277,119.50643 143.65277,119.30643 L 149.75277,116.80643 C 149.85277,116.80643 150.05277,116.70643 150.15277,116.70643 C 150.95277,116.70643 151.45277,117.90643 151.45277,118.50643 V 131.00643 C 151.45277,131.60643 152.05277,132.10643 152.75277,132.10643 C 153.85277,132.10643 154.45277,131.60643 154.45277,131.00643 V 116.80643 C 154.45277,116.00643 154.85277,114.80643 155.55277,114.50643 C 156.25277,114.20643 158.35277,113.40643 158.35277,113.40643 C 159.05277,113.10643 159.55277,112.30643 159.55277,111.70643 V 104.60643 C 159.55277,104.10643 159.25277,103.80643 158.85277,103.80643 C 158.65277,103.80643 158.55277,103.80643 158.35277,103.90643 L 155.75277,104.90643 C 155.15277,104.90643 154.45277,104.30643 154.45277,103.10643 V 93.806429 C 154.45277,93.106429 154.95277,91.206429 155.75277,90.906429 L 158.35277,89.906429 C 159.05277,89.606429 159.55277,88.806429 159.55277,88.206429 V 81.106429 C 159.55277,80.606429 159.25277,80.306429 158.85277,80.306429 C 158.65277,80.306429 158.55277,80.306429 158.35277,80.406429 C 158.35277,80.406429 156.35277,81.206429 155.85277,81.306429 C 155.15277,81.306429 154.45277,80.806429 154.45277,80.006429 V 67.806429 C 154.45277,67.206429 153.85277,66.706429 153.05277,66.706429 C 152.05277,66.706429 151.45277,67.206429 151.45277,67.806429 V 80.806429 C 151.35277,81.806429 151.05277,83.106429 150.15277,83.706429 C 148.95277,84.406429 145.55277,85.806429 143.85277,86.206429 C 142.95277,86.206429 142.65277,85.006429 142.65277,84.206429 V 72.206429 C 142.65277,71.606429 141.95277,71.106429 141.25277,71.106429 C 140.25277,71.106429 139.65277,71.606429 139.65277,72.206429 V 85.706429 C 139.65277,87.106429 139.05277,88.106429 138.45277,88.406429 C 137.85277,88.706429 135.85277,89.506429 135.85277,89.506429 C 135.15277,89.706429 134.65277,90.506429 134.65277,91.106429 V 98.206429 C 134.65277,98.806429 134.95277,99.106429 135.45277,99.106429 C 135.85277,99.106429 137.75277,98.206429 138.05277,98.006429 C 139.05277,98.006429 139.65277,98.506429 139.65277,99.706429 V 109.60643 C 139.65277,110.70643 139.15277,111.60643 138.55277,111.90643 C 137.95277,112.10643 135.85277,113.00643 135.85277,113.00643 C 135.15277,113.20643 134.65277,114.00643 134.65277,114.60643 V 121.70643 C 134.65277,122.30643 134.95277,122.60643 135.45277,122.60643 M 142.65277,97.306429 C 142.85277,95.606429 147.45277,93.506429 149.95277,93.506429 C 150.65277,93.506429 151.25277,93.706429 151.45277,94.106429 C 151.65277,94.606429 151.85277,97.106429 151.85277,99.806429 C 151.85277,102.50643 151.65277,105.30643 151.45277,106.20643 C 150.85277,108.20643 146.15277,110.20643 143.85277,110.20643 C 143.25277,110.20643 142.75277,110.00643 142.65277,109.70643 C 142.45277,109.30643 142.35277,107.10643 142.35277,104.70643 C 142.35277,101.60643 142.45277,98.106429 142.65277,97.306429"
     id="path5016"
     style="fill:#0078ff;fill-opacity:0.81881541;filter:url(#filter5028)" />
  <path
     class=""
     d="M 173.65203,65.307535 C 173.75203,65.307535 173.95203,65.207535 174.05203,65.207535 C 174.05203,65.207535 175.45203,64.607535 176.35203,64.307535 C 176.45203,64.207535 176.55203,64.207535 176.65203,64.207535 C 177.35203,64.207535 177.85203,65.307535 177.85203,65.807535 V 78.107534 C 177.85203,78.707534 178.45203,79.207534 179.15203,79.207534 C 180.15203,79.207534 180.85203,78.707534 180.85203,78.107534 V 64.207535 C 180.85203,62.907535 181.35203,62.207535 181.85203,62.007535 L 187.95203,59.507535 C 188.05203,59.507535 188.25203,59.407535 188.35203,59.407535 C 189.15203,59.407535 189.65203,60.607535 189.65203,61.207535 V 73.707534 C 189.65203,74.307534 190.25203,74.807534 190.95203,74.807534 C 192.05203,74.807534 192.65203,74.307534 192.65203,73.707534 V 59.507535 C 192.65203,58.707535 193.05203,57.507535 193.75203,57.207535 C 194.45203,56.907535 196.55203,56.107535 196.55203,56.107535 C 197.25203,55.807535 197.75203,55.007535 197.75203,54.407535 V 47.307535 C 197.75203,46.807535 197.45203,46.507535 197.05203,46.507535 C 196.85203,46.507535 196.75203,46.507535 196.55203,46.607535 L 193.95203,47.607535 C 193.35203,47.607535 192.65203,47.007535 192.65203,45.807535 V 36.507535 C 192.65203,35.807535 193.15203,33.907535 193.95203,33.607535 L 196.55203,32.607535 C 197.25203,32.307535 197.75203,31.507535 197.75203,30.907535 V 23.807535 C 197.75203,23.307535 197.45203,23.007535 197.05203,23.007535 C 196.85203,23.007535 196.75203,23.007535 196.55203,23.107535 C 196.55203,23.107535 194.55203,23.907535 194.05203,24.007535 C 193.35203,24.007535 192.65203,23.507535 192.65203,22.707535 V 10.507535 C 192.65203,9.907535 192.05203,9.407535 191.25203,9.407535 C 190.25203,9.407535 189.65203,9.907535 189.65203,10.507535 V 23.507535 C 189.55203,24.507535 189.25203,25.807535 188.35203,26.407535 C 187.15203,27.107535 183.75203,28.507535 182.05203,28.907535 C 181.15203,28.907535 180.85203,27.707535 180.85203,26.907535 V 14.907535 C 180.85203,14.307535 180.15203,13.807535 179.45203,13.807535 C 178.45203,13.807535 177.85203,14.307535 177.85203,14.907535 V 28.407535 C 177.85203,29.807535 177.25203,30.807535 176.65203,31.107535 C 176.05203,31.407535 174.05203,32.207535 174.05203,32.207535 C 173.35203,32.407535 172.85203,33.207535 172.85203,33.807535 V 40.907535 C 172.85203,41.507535 173.15203,41.807535 173.65203,41.807535 C 174.05203,41.807535 175.95203,40.907535 176.25203,40.707535 C 177.25203,40.707535 177.85203,41.207535 177.85203,42.407535 V 52.307535 C 177.85203,53.407535 177.35203,54.307535 176.75203,54.607535 C 176.15203,54.807535 174.05203,55.707535 174.05203,55.707535 C 173.35203,55.907535 172.85203,56.707535 172.85203,57.307535 V 64.407535 C 172.85203,65.007535 173.15203,65.307535 173.65203,65.307535 M 180.85203,40.007535 C 181.05203,38.307535 185.65203,36.207535 188.15203,36.207535 C 188.85203,36.207535 189.45203,36.407535 189.65203,36.807535 C 189.85203,37.307535 190.05203,39.807535 190.05203,42.507535 C 190.05203,45.207535 189.85203,48.007535 189.65203,48.907535 C 189.05203,50.907535 184.35203,52.907535 182.05203,52.907535 C 181.45203,52.907535 180.95203,52.707535 180.85203,52.407535 C 180.65203,52.007535 180.55203,49.807535 180.55203,47.407535 C 180.55203,44.307535 180.65203,40.807535 180.85203,40.007535"
     id="path5018"
     style="fill:#0078ff;fill-opacity:0.81881541;filter:url(#filter5032)" />
  <path
     class=""
     d="M 68.00005,42.886338 C 71.30005,42.886338 74.00005,45.586338 74.00005,51.086338 C 74.00005,62.186338 64.50005,71.186338 56.60005,78.086338 C 56.30005,78.286338 56.10005,78.486338 55.90005,78.486338 C 55.60005,78.486338 55.40005,78.086338 55.30005,77.286338 C 54.90005,74.686338 54.70005,71.286338 54.70005,68.086338 C 54.70005,52.486338 61.90005,42.886338 68.00005,42.886338 M 64.00005,126.88634 C 63.80005,125.78634 63.90005,125.48634 64.70005,125.48634 C 64.80005,125.48634 65.00005,125.48634 65.10005,125.48634 C 73.20005,126.18634 79.90005,132.98634 79.90005,141.78634 C 79.90005,148.08634 76.10005,153.18634 70.50005,155.98634 C 70.00005,156.18634 69.70005,156.38634 69.50005,156.38634 C 69.10005,156.38634 69.00005,156.08634 68.90005,155.38634 L 64.00005,126.88634 M 57.10005,110.98634 C 57.40005,112.88634 57.40005,112.78634 55.60005,113.38634 C 46.80005,116.38634 41.10005,124.28634 41.10005,132.78634 C 41.10005,141.78634 45.80005,148.18634 52.60005,150.48634 C 53.40005,150.78634 54.60005,151.08634 55.30005,151.08634 C 56.10005,151.08634 56.50005,150.58634 56.50005,149.98634 C 56.50005,149.28634 55.70005,148.98634 55.00005,148.68634 C 50.80005,146.88634 47.80005,142.58634 47.80005,137.98634 C 47.80005,132.28634 51.70005,127.98634 57.80005,126.28634 C 58.30005,126.18634 58.70005,126.08634 59.00005,126.08634 C 59.50005,126.08634 59.70005,126.38634 59.80005,127.08634 L 64.80005,156.88634 C 65.00005,157.98634 64.90005,157.98634 63.40005,158.28634 C 61.80005,158.58634 59.80005,158.78634 57.80005,158.78634 C 40.30005,158.78634 29.00005,149.08634 29.00005,135.18634 C 29.00005,118.18634 41.50005,107.58634 53.60005,97.786338 C 54.00005,97.486338 54.30005,97.286338 54.50005,97.286338 C 54.80005,97.286338 54.90005,97.586338 55.00005,98.186338 L 57.10005,110.98634 M 58.60005,95.686338 C 58.40005,94.486338 58.60005,94.386338 59.20005,93.786338 C 70.00005,83.686338 78.20005,70.986338 78.20005,55.686338 C 78.20005,46.986338 75.80005,38.386338 71.70005,32.386338 C 70.20005,30.186338 67.60005,27.386338 66.50005,27.386338 C 65.10005,27.386338 62.00005,29.986338 60.00005,32.186338 C 52.60005,40.386338 50.20005,52.886338 50.20005,63.286338 C 50.20005,69.086338 50.90005,75.586338 51.60005,79.686338 C 51.80005,80.886338 51.90005,81.086338 50.70005,82.086338 C 36.30005,93.986338 21.00005,108.28634 21.00005,128.48634 C 21.00005,145.88634 32.90005,162.38634 57.40005,162.38634 C 59.70005,162.38634 62.30005,162.18634 64.30005,161.78634 C 64.70005,161.68634 64.90005,161.68634 65.10005,161.68634 C 65.50005,161.68634 65.70005,161.88634 65.80005,162.68634 C 67.00005,169.38634 68.50005,178.08634 68.50005,182.78634 C 68.50005,197.58634 58.50005,199.38634 52.60005,199.38634 C 47.20005,199.38634 44.60005,197.78634 44.60005,196.48634 C 44.60005,195.78634 45.50005,195.48634 47.80005,194.78634 C 50.90005,193.88634 54.50005,191.18634 54.50005,185.38634 C 54.50005,179.88634 51.00005,175.18634 44.90005,175.18634 C 38.20005,175.18634 34.20005,180.48634 34.20005,186.68634 C 34.20005,193.18634 38.10005,202.98634 53.20005,202.98634 C 59.90005,202.98634 72.90005,199.98634 72.90005,182.98634 C 72.90005,177.28634 71.10005,167.78634 70.00005,161.58634 C 69.80005,160.38634 69.90005,160.48634 71.30005,159.88634 C 81.40005,155.88634 88.10005,147.38634 88.10005,136.08634 C 88.10005,123.28634 78.70005,111.98634 64.00005,111.98634 C 61.40005,111.98634 61.40005,111.98634 61.10005,110.18634 L 58.60005,95.686338"
     id="path3346" />
  <path
     id="polyline3272"
     style="stroke:#000000;stroke-width:3.25;stroke-linejoin:bevel"
     d="M 1,162.18634 H 250.24306"
     class=""
     sodipodi:nodetypes="cc" />
  <path
     id="polyline3264"
     style="stroke:#000000;stroke-width:3.25;stroke-linejoin:bevel"
     d="M 1,62.186338 H 250.24306"
     class=""
     sodipodi:nodetypes="cc" />
  <path
     id="polyline3266"
     style="stroke:#000000;stroke-width:3.25;stroke-linejoin:bevel"
     d="M 1,87.186338 H 250.24306"
     class=""
     sodipodi:nodetypes="cc" />
  <path
     id="polyline3268"
     style="stroke:#000000;stroke-width:3.25;stroke-linejoin:bevel"
     d="M 1,112.18634 H 250.24306"
     class=""
     sodipodi:nodetypes="cc" />
  <path
     id="polyline3270"
     style="stroke:#000000;stroke-width:3.25;stroke-linejoin:bevel"
     d="M 1,137.18634 H 250.24306"
     class=""
     sodipodi:nodetypes="cc" />
  <metadata
     id="metadata3464">
    <rdf:RDF>
      <cc:Work
         rdf:about="">
        <dc:title>Unbenannt</dc:title>
      </cc:Work>
    </rdf:RDF>
  </metadata>
  <path
     class=""
     d="M 178.83218,82.786108 C 178.83218,82.786108 178.53218,76.786108 178.53218,72.786108 C 178.53218,71.186108 178.63218,69.986108 178.73218,69.586108 C 179.43218,67.586108 183.43218,64.686108 185.73218,64.686108 C 188.63218,64.686108 189.83218,67.986108 189.83218,70.486108 C 189.83218,75.886108 185.23218,81.286108 180.93218,83.986108 C 180.53218,84.186108 180.23218,84.286108 179.93218,84.286108 C 179.03218,84.286108 178.83218,83.286108 178.83218,82.786108 M 175.33218,91.686108 C 175.63218,92.086108 175.93218,92.186108 176.23218,92.186108 C 176.53218,92.186108 176.83218,91.986108 176.83218,91.986108 C 179.83218,90.286108 182.23218,87.586108 184.73218,85.886108 C 193.63218,79.686108 196.73218,73.586108 196.73218,68.986108 C 196.73218,63.286108 192.33218,59.686108 187.73218,59.386108 C 186.03218,59.386108 183.63218,60.186108 182.23218,61.086108 C 181.63218,61.586108 180.53218,62.486108 180.03218,62.486108 C 179.83218,62.486108 179.73218,62.486108 179.53218,62.386108 C 178.83218,62.086108 178.43218,61.386108 178.43218,60.686108 C 178.53218,58.486108 179.13218,34.486308 179.13218,32.486308 C 179.13218,31.386308 178.23218,30.786308 177.23218,30.786308 C 175.83218,30.786308 174.23218,31.786308 174.13218,33.586308 C 174.13218,33.586308 174.53218,90.686108 175.33218,91.686108"
     id="path4095"
     style="fill:#0000ff" />
  <path
     class=""
     d="M 139.83218,120.28611 C 139.83218,120.28611 139.53218,114.28611 139.53218,110.28611 C 139.53218,108.68611 139.63218,107.48611 139.73218,107.08611 C 140.43218,105.08611 144.43218,102.18611 146.73218,102.18611 C 149.63218,102.18611 150.83218,105.48611 150.83218,107.98611 C 150.83218,113.38611 146.23218,118.78611 141.93218,121.48611 C 141.53218,121.68611 141.23218,121.78611 140.93218,121.78611 C 140.03218,121.78611 139.83218,120.78611 139.83218,120.28611 M 136.33218,129.18611 C 136.63218,129.58611 136.93218,129.68611 137.23218,129.68611 C 137.53218,129.68611 137.83218,129.48611 137.83218,129.48611 C 140.83218,127.78611 143.23218,125.08611 145.73218,123.38611 C 154.63218,117.18611 157.73218,111.08611 157.73218,106.48611 C 157.73218,100.78611 153.33218,97.186108 148.73218,96.886108 C 147.03218,96.886108 144.63218,97.686108 143.23218,98.586108 C 142.63218,99.086108 141.53218,99.986108 141.03218,99.986108 C 140.83218,99.986108 140.73218,99.986108 140.53218,99.886108 C 139.83218,99.586108 139.43218,98.886108 139.43218,98.186108 C 139.53218,95.986108 140.13218,71.986108 140.13218,69.986108 C 140.13218,68.886108 139.23218,68.286108 138.23218,68.286108 C 136.83218,68.286108 135.23218,69.286108 135.13218,71.086108 C 135.13218,71.086108 135.53218,128.18611 136.33218,129.18611"
     id="path4097"
     style="fill:#0000ff" />
  <path
     class=""
     d="M 97.253507,81.468762 C 97.353507,81.468762 97.553507,81.368762 97.653507,81.368762 C 97.653507,81.368762 99.053507,80.768762 99.953507,80.468762 C 100.05351,80.368762 100.15351,80.368762 100.25351,80.368762 C 100.95351,80.368762 101.45351,81.468762 101.45351,81.968762 V 94.268762 C 101.45351,94.868762 102.05351,95.368762 102.75351,95.368762 C 103.75351,95.368762 104.45351,94.868762 104.45351,94.268762 V 80.368762 C 104.45351,79.068762 104.95351,78.368762 105.45351,78.168762 L 111.55351,75.668762 C 111.65351,75.668762 111.85351,75.568762 111.95351,75.568762 C 112.75351,75.568762 113.25351,76.768762 113.25351,77.368762 V 89.868762 C 113.25351,90.468762 113.85351,90.968762 114.55351,90.968762 C 115.65351,90.968762 116.25351,90.468762 116.25351,89.868762 V 75.668762 C 116.25351,74.868762 116.65351,73.668762 117.35351,73.368762 C 118.05351,73.068762 120.15351,72.268762 120.15351,72.268762 C 120.85351,71.968762 121.35351,71.168762 121.35351,70.568762 V 63.468762 C 121.35351,62.968762 121.05351,62.668762 120.65351,62.668762 C 120.45351,62.668762 120.35351,62.668762 120.15351,62.768762 L 117.55351,63.768762 C 116.95351,63.768762 116.25351,63.168762 116.25351,61.968762 V 52.668762 C 116.25351,51.968762 116.75351,50.068762 117.55351,49.768762 L 120.15351,48.768762 C 120.85351,48.468762 121.35351,47.668762 121.35351,47.068762 V 39.968762 C 121.35351,39.468762 121.05351,39.168762 120.65351,39.168762 C 120.45351,39.168762 120.35351,39.168762 120.15351,39.268762 C 120.15351,39.268762 118.15351,40.068762 117.65351,40.168762 C 116.95351,40.168762 116.25351,39.668762 116.25351,38.868762 V 26.668762 C 116.25351,26.068762 115.65351,25.568762 114.85351,25.568762 C 113.85351,25.568762 113.25351,26.068762 113.25351,26.668762 V 39.668762 C 113.15351,40.668762 112.85351,41.968762 111.95351,42.568762 C 110.75351,43.268762 107.35351,44.668762 105.65351,45.068762 C 104.75351,45.068762 104.45351,43.868762 104.45351,43.068762 V 31.068762 C 104.45351,30.468762 103.75351,29.968762 103.05351,29.968762 C 102.05351,29.968762 101.45351,30.468762 101.45351,31.068762 V 44.568762 C 101.45351,45.968762 100.85351,46.968762 100.25351,47.268762 C 99.653507,47.568762 97.653507,48.368762 97.653507,48.368762 C 96.953507,48.568762 96.453507,49.368762 96.453507,49.968762 V 57.068762 C 96.453507,57.668762 96.753507,57.968762 97.253507,57.968762 C 97.653507,57.968762 99.553507,57.068762 99.853507,56.868762 C 100.85351,56.868762 101.45351,57.368762 101.45351,58.568762 V 68.468762 C 101.45351,69.568762 100.95351,70.468762 100.35351,70.768762 C 99.753507,70.968762 97.653507,71.868762 97.653507,71.868762 C 96.953507,72.068762 96.453507,72.868762 96.453507,73.468762 V 80.568762 C 96.453507,81.168762 96.753507,81.468762 97.253507,81.468762 M 104.45351,56.168762 C 104.65351,54.468762 109.25351,52.368762 111.75351,52.368762 C 112.45351,52.368762 113.05351,52.568762 113.25351,52.968762 C 113.45351,53.468762 113.65351,55.968762 113.65351,58.668762 C 113.65351,61.368762 113.45351,64.168762 113.25351,65.068762 C 112.65351,67.068762 107.95351,69.068762 105.65351,69.068762 C 105.05351,69.068762 104.55351,68.868762 104.45351,68.568762 C 104.25351,68.168762 104.15351,65.968762 104.15351,63.568762 C 104.15351,60.468762 104.25351,56.968762 104.45351,56.168762"
     id="path4029"
     style="fill:#ff00ff;fill-opacity:0.602787;filter:url(#filter5010)" />
</svg>
