<?xml version="1.0" encoding="UTF-8" standalone="no"?>
<svg
   width="252.99112"
   height="190.3004"
   viewBox="0 0 252.99112 190.3004"
   version="1.2"
   id="svg332"
   sodipodi:docname="e-Moll.svg"
   inkscape:version="1.1-dev (0486c1a, 2020-10-10)"
   xmlns:inkscape="http://www.inkscape.org/namespaces/inkscape"
   xmlns:sodipodi="http://sodipodi.sourceforge.net/DTD/sodipodi-0.dtd"
   xmlns="http://www.w3.org/2000/svg"
   xmlns:svg="http://www.w3.org/2000/svg"
   xmlns:rdf="http://www.w3.org/1999/02/22-rdf-syntax-ns#"
   xmlns:cc="http://creativecommons.org/ns#"
   xmlns:dc="http://purl.org/dc/elements/1.1/">
  <defs
     id="defs336" />
  <sodipodi:namedview
     pagecolor="#ffffff"
     bordercolor="#666666"
     borderopacity="1"
     objecttolerance="10"
     gridtolerance="10"
     guidetolerance="10"
     inkscape:pageopacity="0"
     inkscape:pageshadow="2"
     inkscape:window-width="833"
     inkscape:window-height="480"
     id="namedview334"
     showgrid="false"
     inkscape:zoom="0.50160592"
     inkscape:cx="177.43012"
     inkscape:cy="227.27004"
     inkscape:window-x="188"
     inkscape:window-y="77"
     inkscape:window-maximized="0"
     inkscape:current-layer="g2608"
     lock-margins="true"
     fit-margin-top="1"
     fit-margin-left="1"
     fit-margin-right="1"
     fit-margin-bottom="1" />
  <title
     id="title200">Unbenannt</title>
  <desc
     id="desc202">Generated by MuseScore 3.5.2</desc>
  <metadata
     id="metadata2309">
    <rdf:RDF>
      <cc:Work
         rdf:about="">
        <dc:title>Unbenannt</dc:title>
      </cc:Work>
    </rdf:RDF>
  </metadata>
  <g
     id="g2608"
     transform="translate(-19.5809,-98.2646)">
    <path
       id="polyline242-5"
       style="stroke:#000000;stroke-width:3.25;stroke-linejoin:bevel"
       d="M 20.5809,146.765 H 271.57202"
       class=""
       sodipodi:nodetypes="cc" />
    <path
       id="polyline244-8"
       style="stroke:#000000;stroke-width:3.25;stroke-linejoin:bevel"
       d="M 20.5809,171.765 H 271.57202"
       class=""
       sodipodi:nodetypes="cc" />
    <path
       id="polyline246-5"
       style="stroke:#000000;stroke-width:3.25;stroke-linejoin:bevel"
       d="M 20.5809,196.765 H 271.57202"
       class=""
       sodipodi:nodetypes="cc" />
    <path
       id="polyline248-6"
       style="stroke:#000000;stroke-width:3.25;stroke-linejoin:bevel"
       d="M 20.5809,221.765 H 271.57202"
       class=""
       sodipodi:nodetypes="cc" />
    <path
       id="polyline250-7"
       style="stroke:#000000;stroke-width:3.25;stroke-linejoin:bevel"
       d="M 20.5809,246.765 H 271.57202"
       class=""
       sodipodi:nodetypes="cc" />
    <path
       class=""
       d="M 87.5809,127.465 C 90.8809,127.465 93.5809,130.165 93.5809,135.665 C 93.5809,146.765 84.0809,155.765 76.1809,162.665 C 75.8809,162.865 75.6809,163.065 75.4809,163.065 C 75.1809,163.065 74.9809,162.665 74.8809,161.865 C 74.4809,159.265 74.2809,155.865 74.2809,152.665 C 74.2809,137.065 81.4809,127.465 87.5809,127.465 M 83.5809,211.465 C 83.3809,210.365 83.4809,210.065 84.2809,210.065 C 84.3809,210.065 84.5809,210.065 84.6809,210.065 C 92.7809,210.765 99.4809,217.565 99.4809,226.365 C 99.4809,232.665 95.6809,237.765 90.0809,240.565 C 89.5809,240.765 89.2809,240.965 89.0809,240.965 C 88.6809,240.965 88.5809,240.665 88.4809,239.965 L 83.5809,211.465 M 76.6809,195.565 C 76.9809,197.465 76.9809,197.365 75.1809,197.965 C 66.3809,200.965 60.6809,208.865 60.6809,217.365 C 60.6809,226.365 65.3809,232.765 72.1809,235.065 C 72.9809,235.365 74.1809,235.665 74.8809,235.665 C 75.6809,235.665 76.0809,235.165 76.0809,234.565 C 76.0809,233.865 75.2809,233.565 74.5809,233.265 C 70.3809,231.465 67.3809,227.165 67.3809,222.565 C 67.3809,216.865 71.2809,212.565 77.3809,210.865 C 77.8809,210.765 78.2809,210.665 78.5809,210.665 C 79.0809,210.665 79.2809,210.965 79.3809,211.665 L 84.3809,241.465 C 84.5809,242.565 84.4809,242.565 82.9809,242.865 C 81.3809,243.165 79.3809,243.365 77.3809,243.365 C 59.8809,243.365 48.5809,233.665 48.5809,219.765 C 48.5809,202.765 61.0809,192.165 73.1809,182.365 C 73.5809,182.065 73.8809,181.865 74.0809,181.865 C 74.3809,181.865 74.4809,182.165 74.5809,182.765 L 76.6809,195.565 M 78.1809,180.265 C 77.9809,179.065 78.1809,178.965 78.7809,178.365 C 89.5809,168.265 97.7809,155.565 97.7809,140.265 C 97.7809,131.565 95.3809,122.965 91.2809,116.965 C 89.7809,114.765 87.1809,111.965 86.0809,111.965 C 84.6809,111.965 81.5809,114.565 79.5809,116.765 C 72.1809,124.965 69.7809,137.465 69.7809,147.865 C 69.7809,153.665 70.4809,160.165 71.1809,164.265 C 71.3809,165.465 71.4809,165.665 70.2809,166.665 C 55.8809,178.565 40.5809,192.865 40.5809,213.065 C 40.5809,230.465 52.4809,246.965 76.9809,246.965 C 79.2809,246.965 81.8809,246.765 83.8809,246.365 C 84.2809,246.265 84.4809,246.265 84.6809,246.265 C 85.0809,246.265 85.2809,246.465 85.3809,247.265 C 86.5809,253.965 88.0809,262.665 88.0809,267.365 C 88.0809,282.165 78.0809,283.965 72.1809,283.965 C 66.7809,283.965 64.1809,282.365 64.1809,281.065 C 64.1809,280.365 65.0809,280.065 67.3809,279.365 C 70.4809,278.465 74.0809,275.765 74.0809,269.965 C 74.0809,264.465 70.5809,259.765 64.4809,259.765 C 57.7809,259.765 53.7809,265.065 53.7809,271.265 C 53.7809,277.765 57.6809,287.565 72.7809,287.565 C 79.4809,287.565 92.4809,284.565 92.4809,267.565 C 92.4809,261.865 90.6809,252.365 89.5809,246.165 C 89.3809,244.965 89.4809,245.065 90.8809,244.465 C 100.981,240.465 107.681,231.965 107.681,220.665 C 107.681,207.865 98.2809,196.565 83.5809,196.565 C 80.9809,196.565 80.9809,196.565 80.6809,194.765 L 78.1809,180.265"
       id="path310-9" />
    <path
       class=""
       d="M 133.475,167.665 C 133.575,167.665 133.775,167.565 133.875,167.565 C 133.875,167.565 135.275,166.965 136.175,166.665 C 136.275,166.565 136.375,166.565 136.475,166.565 C 137.175,166.565 137.675,167.665 137.675,168.165 V 180.465 C 137.675,181.065 138.275,181.565 138.975,181.565 C 139.975,181.565 140.675,181.065 140.675,180.465 V 166.565 C 140.675,165.265 141.175,164.565 141.675,164.365 L 147.775,161.865 C 147.875,161.865 148.075,161.765 148.175,161.765 C 148.975,161.765 149.475,162.965 149.475,163.565 V 176.065 C 149.475,176.665 150.075,177.165 150.775,177.165 C 151.875,177.165 152.475,176.665 152.475,176.065 V 161.865 C 152.475,161.065 152.875,159.865 153.575,159.565 C 154.275,159.265 156.375,158.465 156.375,158.465 C 157.075,158.165 157.575,157.365 157.575,156.765 V 149.665 C 157.575,149.165 157.275,148.865 156.875,148.865 C 156.675,148.865 156.575,148.865 156.375,148.965 L 153.775,149.965 C 153.175,149.965 152.475,149.365 152.475,148.165 V 138.865 C 152.475,138.165 152.975,136.265 153.775,135.965 L 156.375,134.965 C 157.075,134.665 157.575,133.865 157.575,133.265 V 126.165 C 157.575,125.665 157.275,125.365 156.875,125.365 C 156.675,125.365 156.575,125.365 156.375,125.465 C 156.375,125.465 154.375,126.265 153.875,126.365 C 153.175,126.365 152.475,125.865 152.475,125.065 V 112.865 C 152.475,112.265 151.875,111.765 151.075,111.765 C 150.075,111.765 149.475,112.265 149.475,112.865 V 125.865 C 149.375,126.865 149.075,128.165 148.175,128.765 C 146.975,129.465 143.575,130.865 141.875,131.265 C 140.975,131.265 140.675,130.065 140.675,129.265 V 117.265 C 140.675,116.665 139.975,116.165 139.275,116.165 C 138.275,116.165 137.675,116.665 137.675,117.265 V 130.765 C 137.675,132.165 137.075,133.165 136.475,133.465 C 135.875,133.765 133.875,134.565 133.875,134.565 C 133.175,134.765 132.675,135.565 132.675,136.165 V 143.265 C 132.675,143.865 132.975,144.165 133.475,144.165 C 133.875,144.165 135.775,143.265 136.075,143.065 C 137.075,143.065 137.675,143.565 137.675,144.765 V 154.665 C 137.675,155.765 137.175,156.665 136.575,156.965 C 135.975,157.165 133.875,158.065 133.875,158.065 C 133.175,158.265 132.675,159.065 132.675,159.665 V 166.765 C 132.675,167.365 132.975,167.665 133.475,167.665 M 140.675,142.365 C 140.875,140.665 145.475,138.565 147.975,138.565 C 148.675,138.565 149.275,138.765 149.475,139.165 C 149.675,139.665 149.875,142.165 149.875,144.865 C 149.875,147.565 149.675,150.365 149.475,151.265 C 148.875,153.265 144.175,155.265 141.875,155.265 C 141.275,155.265 140.775,155.065 140.675,154.765 C 140.475,154.365 140.375,152.165 140.375,149.765 C 140.375,146.665 140.475,143.165 140.675,142.365"
       id="path318"
       style="fill:#000000" />
  </g>
</svg>
