<?xml version="1.0" encoding="UTF-8" standalone="no"?>
<svg
   width="68.232933mm"
   height="23.509476mm"
   viewBox="0 0 805.90047 277.67096"
   version="1.2"
   id="svg844"
   sodipodi:docname="einfaches_Motiv_F-Dur_falsch.svg"
   inkscape:version="1.1-dev (0486c1a, 2020-10-10)"
   xmlns:inkscape="http://www.inkscape.org/namespaces/inkscape"
   xmlns:sodipodi="http://sodipodi.sourceforge.net/DTD/sodipodi-0.dtd"
   xmlns="http://www.w3.org/2000/svg"
   xmlns:svg="http://www.w3.org/2000/svg"
   xmlns:rdf="http://www.w3.org/1999/02/22-rdf-syntax-ns#"
   xmlns:cc="http://creativecommons.org/ns#"
   xmlns:dc="http://purl.org/dc/elements/1.1/">
  <sodipodi:namedview
     pagecolor="#ffffff"
     bordercolor="#666666"
     borderopacity="1"
     objecttolerance="10"
     gridtolerance="10"
     guidetolerance="10"
     inkscape:pageopacity="0"
     inkscape:pageshadow="2"
     inkscape:window-width="819"
     inkscape:window-height="480"
     id="namedview846"
     showgrid="false"
     lock-margins="true"
     fit-margin-top="1"
     fit-margin-left="1"
     fit-margin-right="1"
     fit-margin-bottom="1"
     inkscape:zoom="0.92651288"
     inkscape:cx="120.88337"
     inkscape:cy="67.996896"
     inkscape:window-x="440"
     inkscape:window-y="23"
     inkscape:window-maximized="0"
     inkscape:current-layer="svg844" />
  <title
     id="title428">Qt Svg Document</title>
  <desc
     id="desc430">created with MuseScore 2.0.0</desc>
  <defs
     id="defs432" />
  <g
     fill="#000000"
     fill-opacity="1"
     stroke="#000000"
     stroke-opacity="1"
     stroke-width="1"
     stroke-linecap="square"
     stroke-linejoin="bevel"
     transform="matrix(3.125,0,0,3.125,434.28082,-185.4906)"
     font-family="Bravura"
     font-size="27px"
     font-weight="400"
     font-style="normal"
     id="g530"
     style="fill-rule:evenodd" />
  <g
     fill="#000000"
     fill-opacity="1"
     stroke="#000000"
     stroke-opacity="1"
     stroke-width="1"
     stroke-linecap="square"
     stroke-linejoin="bevel"
     transform="matrix(3.125,0,0,3.125,434.28082,-185.4906)"
     font-family="Bravura"
     font-size="27px"
     font-weight="400"
     font-style="normal"
     id="g536"
     style="fill-rule:evenodd" />
  <g
     fill="#000000"
     fill-opacity="1"
     stroke="#000000"
     stroke-opacity="1"
     stroke-width="1"
     stroke-linecap="square"
     stroke-linejoin="bevel"
     transform="matrix(3.125,0,0,3.125,416.42882,189.5094)"
     font-family="Bravura"
     font-size="27px"
     font-weight="400"
     font-style="normal"
     id="g538"
     style="fill-rule:evenodd" />
  <g
     fill="#000000"
     fill-opacity="1"
     stroke="#000000"
     stroke-opacity="1"
     stroke-width="1"
     stroke-linecap="square"
     stroke-linejoin="bevel"
     transform="matrix(3.125,0,0,3.125,416.42882,189.5094)"
     font-family="Bravura"
     font-size="27px"
     font-weight="400"
     font-style="normal"
     id="g544"
     style="fill-rule:evenodd" />
  <g
     fill="#000000"
     fill-opacity="1"
     stroke="#000000"
     stroke-opacity="1"
     stroke-width="1"
     stroke-linecap="square"
     stroke-linejoin="bevel"
     transform="matrix(3.125,0,0,3.125,174.10282,-216.7406)"
     font-family="Bravura"
     font-size="27px"
     font-weight="400"
     font-style="normal"
     id="g610"
     style="fill-rule:evenodd" />
  <g
     fill="#000000"
     fill-opacity="1"
     stroke="#000000"
     stroke-opacity="1"
     stroke-width="1"
     stroke-linecap="square"
     stroke-linejoin="bevel"
     transform="matrix(3.125,0,0,3.125,174.10282,-216.7406)"
     font-family="Bravura"
     font-size="27px"
     font-weight="400"
     font-style="normal"
     id="g616"
     style="fill-rule:evenodd" />
  <g
     fill="#000000"
     fill-opacity="1"
     stroke="#000000"
     stroke-opacity="1"
     stroke-width="1"
     stroke-linecap="square"
     stroke-linejoin="bevel"
     transform="matrix(3.125,0,0,3.125,351.88582,-195.9076)"
     font-family="Bravura"
     font-size="27px"
     font-weight="400"
     font-style="normal"
     id="g618"
     style="fill-rule:evenodd" />
  <g
     fill="#000000"
     fill-opacity="1"
     stroke="#000000"
     stroke-opacity="1"
     stroke-width="1"
     stroke-linecap="square"
     stroke-linejoin="bevel"
     transform="matrix(3.125,0,0,3.125,351.88582,-195.9076)"
     font-family="Bravura"
     font-size="27px"
     font-weight="400"
     font-style="normal"
     id="g624"
     style="fill-rule:evenodd" />
  <g
     fill="#000000"
     fill-opacity="1"
     stroke="#000000"
     stroke-opacity="1"
     stroke-width="1"
     stroke-linecap="square"
     stroke-linejoin="bevel"
     transform="matrix(3.125,0,0,3.125,283.65782,-206.3236)"
     font-family="Bravura"
     font-size="27px"
     font-weight="400"
     font-style="normal"
     id="g626"
     style="fill-rule:evenodd" />
  <g
     fill="#000000"
     fill-opacity="1"
     stroke="#000000"
     stroke-opacity="1"
     stroke-width="1"
     stroke-linecap="square"
     stroke-linejoin="bevel"
     transform="matrix(3.125,0,0,3.125,283.65782,-206.3236)"
     font-family="Bravura"
     font-size="27px"
     font-weight="400"
     font-style="normal"
     id="g632"
     style="fill-rule:evenodd" />
  <g
     fill="#000000"
     fill-opacity="1"
     stroke="#000000"
     stroke-opacity="1"
     stroke-width="1"
     stroke-linecap="square"
     stroke-linejoin="bevel"
     transform="matrix(3.125,0,0,3.125,460.73882,-185.4906)"
     font-family="Bravura"
     font-size="27px"
     font-weight="400"
     font-style="normal"
     id="g634"
     style="fill-rule:evenodd" />
  <g
     fill="#000000"
     fill-opacity="1"
     stroke="#000000"
     stroke-opacity="1"
     stroke-width="1"
     stroke-linecap="square"
     stroke-linejoin="bevel"
     transform="matrix(3.125,0,0,3.125,460.73882,-185.4906)"
     font-family="Bravura"
     font-size="27px"
     font-weight="400"
     font-style="normal"
     id="g640"
     style="fill-rule:evenodd" />
  <g
     fill="#000000"
     fill-opacity="1"
     stroke="#000000"
     stroke-opacity="1"
     stroke-width="1"
     stroke-linecap="square"
     stroke-linejoin="bevel"
     transform="matrix(3.125,0,0,3.125,153.26982,158.2594)"
     font-family="Bravura"
     font-size="27px"
     font-weight="400"
     font-style="normal"
     id="g642"
     style="fill-rule:evenodd" />
  <g
     fill="#000000"
     fill-opacity="1"
     stroke="#000000"
     stroke-opacity="1"
     stroke-width="1"
     stroke-linecap="square"
     stroke-linejoin="bevel"
     transform="matrix(3.125,0,0,3.125,153.26982,158.2594)"
     font-family="Bravura"
     font-size="27px"
     font-weight="400"
     font-style="normal"
     id="g648"
     style="fill-rule:evenodd" />
  <g
     fill="#000000"
     fill-opacity="1"
     stroke="#000000"
     stroke-opacity="1"
     stroke-width="1"
     stroke-linecap="square"
     stroke-linejoin="bevel"
     transform="matrix(3.125,0,0,3.125,333.20582,179.0924)"
     font-family="Bravura"
     font-size="27px"
     font-weight="400"
     font-style="normal"
     id="g650"
     style="fill-rule:evenodd" />
  <g
     fill="#000000"
     fill-opacity="1"
     stroke="#000000"
     stroke-opacity="1"
     stroke-width="1"
     stroke-linecap="square"
     stroke-linejoin="bevel"
     transform="matrix(3.125,0,0,3.125,333.20582,179.0924)"
     font-family="Bravura"
     font-size="27px"
     font-weight="400"
     font-style="normal"
     id="g656"
     style="fill-rule:evenodd" />
  <g
     fill="#000000"
     fill-opacity="1"
     stroke="#000000"
     stroke-opacity="1"
     stroke-width="1"
     stroke-linecap="square"
     stroke-linejoin="bevel"
     transform="matrix(3.125,0,0,3.125,264.14982,168.6764)"
     font-family="Bravura"
     font-size="27px"
     font-weight="400"
     font-style="normal"
     id="g658"
     style="fill-rule:evenodd" />
  <g
     fill="#000000"
     fill-opacity="1"
     stroke="#000000"
     stroke-opacity="1"
     stroke-width="1"
     stroke-linecap="square"
     stroke-linejoin="bevel"
     transform="matrix(3.125,0,0,3.125,264.14982,168.6764)"
     font-family="Bravura"
     font-size="27px"
     font-weight="400"
     font-style="normal"
     id="g664"
     style="fill-rule:evenodd" />
  <g
     fill="#000000"
     fill-opacity="1"
     stroke="#000000"
     stroke-opacity="1"
     stroke-width="1"
     stroke-linecap="square"
     stroke-linejoin="bevel"
     transform="matrix(3.125,0,0,3.125,436.63782,189.5094)"
     font-family="Bravura"
     font-size="27px"
     font-weight="400"
     font-style="normal"
     id="g666"
     style="fill-rule:evenodd" />
  <g
     fill="#000000"
     fill-opacity="1"
     stroke="#000000"
     stroke-opacity="1"
     stroke-width="1"
     stroke-linecap="square"
     stroke-linejoin="bevel"
     transform="matrix(3.125,0,0,3.125,436.63782,189.5094)"
     font-family="Bravura"
     font-size="27px"
     font-weight="400"
     font-style="normal"
     id="g672"
     style="fill-rule:evenodd" />
  <g
     fill="#000000"
     fill-opacity="1"
     stroke="#000000"
     stroke-opacity="1"
     stroke-width="1"
     stroke-linecap="square"
     stroke-linejoin="bevel"
     transform="matrix(3.125,0,0,3.125,658.54082,-216.7406)"
     font-family="Bravura"
     font-size="27px"
     font-weight="400"
     font-style="normal"
     id="g674"
     style="fill-rule:evenodd" />
  <g
     fill="#000000"
     fill-opacity="1"
     stroke="#000000"
     stroke-opacity="1"
     stroke-width="1"
     stroke-linecap="square"
     stroke-linejoin="bevel"
     transform="matrix(3.125,0,0,3.125,658.54082,-216.7406)"
     font-family="Bravura"
     font-size="27px"
     font-weight="400"
     font-style="normal"
     id="g680"
     style="fill-rule:evenodd" />
  <g
     fill="#000000"
     fill-opacity="1"
     stroke="#000000"
     stroke-opacity="1"
     stroke-width="1"
     stroke-linecap="square"
     stroke-linejoin="bevel"
     transform="matrix(3.125,0,0,3.125,579.81582,-206.3236)"
     font-family="Bravura"
     font-size="27px"
     font-weight="400"
     font-style="normal"
     id="g682"
     style="fill-rule:evenodd" />
  <g
     fill="#000000"
     fill-opacity="1"
     stroke="#000000"
     stroke-opacity="1"
     stroke-width="1"
     stroke-linecap="square"
     stroke-linejoin="bevel"
     transform="matrix(3.125,0,0,3.125,579.81582,-206.3236)"
     font-family="Bravura"
     font-size="27px"
     font-weight="400"
     font-style="normal"
     id="g688"
     style="fill-rule:evenodd" />
  <g
     fill="#000000"
     fill-opacity="1"
     stroke="#000000"
     stroke-opacity="1"
     stroke-width="1"
     stroke-linecap="square"
     stroke-linejoin="bevel"
     transform="matrix(3.125,0,0,3.125,539.46382,-195.9076)"
     font-family="Bravura"
     font-size="27px"
     font-weight="400"
     font-style="normal"
     id="g690"
     style="fill-rule:evenodd" />
  <g
     fill="#000000"
     fill-opacity="1"
     stroke="#000000"
     stroke-opacity="1"
     stroke-width="1"
     stroke-linecap="square"
     stroke-linejoin="bevel"
     transform="matrix(3.125,0,0,3.125,539.46382,-195.9076)"
     font-family="Bravura"
     font-size="27px"
     font-weight="400"
     font-style="normal"
     id="g696"
     style="fill-rule:evenodd" />
  <g
     fill="#000000"
     fill-opacity="1"
     stroke="#000000"
     stroke-opacity="1"
     stroke-width="1"
     stroke-linecap="square"
     stroke-linejoin="bevel"
     transform="matrix(3.125,0,0,3.125,698.50082,-227.1572)"
     font-family="Bravura"
     font-size="27px"
     font-weight="400"
     font-style="normal"
     id="g698"
     style="fill-rule:evenodd" />
  <g
     fill="#000000"
     fill-opacity="1"
     stroke="#000000"
     stroke-opacity="1"
     stroke-width="1"
     stroke-linecap="square"
     stroke-linejoin="bevel"
     transform="matrix(3.125,0,0,3.125,698.50082,-227.1572)"
     font-family="Bravura"
     font-size="27px"
     font-weight="400"
     font-style="normal"
     id="g704"
     style="fill-rule:evenodd" />
  <g
     fill="#000000"
     fill-opacity="1"
     stroke="#000000"
     stroke-opacity="1"
     stroke-width="1"
     stroke-linecap="square"
     stroke-linejoin="bevel"
     transform="matrix(3.125,0,0,3.125,676.42182,147.8424)"
     font-family="Bravura"
     font-size="27px"
     font-weight="400"
     font-style="normal"
     id="g706"
     style="fill-rule:evenodd" />
  <g
     fill="#000000"
     fill-opacity="1"
     stroke="#000000"
     stroke-opacity="1"
     stroke-width="1"
     stroke-linecap="square"
     stroke-linejoin="bevel"
     transform="matrix(3.125,0,0,3.125,676.42182,147.8424)"
     font-family="Bravura"
     font-size="27px"
     font-weight="400"
     font-style="normal"
     id="g712"
     style="fill-rule:evenodd" />
  <g
     fill="#000000"
     fill-opacity="1"
     stroke="#000000"
     stroke-opacity="1"
     stroke-width="1"
     stroke-linecap="square"
     stroke-linejoin="bevel"
     transform="matrix(3.125,0,0,3.125,636.11782,158.2594)"
     font-family="Bravura"
     font-size="27px"
     font-weight="400"
     font-style="normal"
     id="g714"
     style="fill-rule:evenodd" />
  <g
     fill="#000000"
     fill-opacity="1"
     stroke="#000000"
     stroke-opacity="1"
     stroke-width="1"
     stroke-linecap="square"
     stroke-linejoin="bevel"
     transform="matrix(3.125,0,0,3.125,636.11782,158.2594)"
     font-family="Bravura"
     font-size="27px"
     font-weight="400"
     font-style="normal"
     id="g720"
     style="fill-rule:evenodd" />
  <g
     fill="#000000"
     fill-opacity="1"
     stroke="#000000"
     stroke-opacity="1"
     stroke-width="1"
     stroke-linecap="square"
     stroke-linejoin="bevel"
     transform="matrix(3.125,0,0,3.125,556.72482,168.6764)"
     font-family="Bravura"
     font-size="27px"
     font-weight="400"
     font-style="normal"
     id="g722"
     style="fill-rule:evenodd" />
  <g
     fill="#000000"
     fill-opacity="1"
     stroke="#000000"
     stroke-opacity="1"
     stroke-width="1"
     stroke-linecap="square"
     stroke-linejoin="bevel"
     transform="matrix(3.125,0,0,3.125,556.72482,168.6764)"
     font-family="Bravura"
     font-size="27px"
     font-weight="400"
     font-style="normal"
     id="g728"
     style="fill-rule:evenodd" />
  <g
     fill="#000000"
     fill-opacity="1"
     stroke="#000000"
     stroke-opacity="1"
     stroke-width="1"
     stroke-linecap="square"
     stroke-linejoin="bevel"
     transform="matrix(3.125,0,0,3.125,516.03082,179.0924)"
     font-family="Bravura"
     font-size="27px"
     font-weight="400"
     font-style="normal"
     id="g730"
     style="fill-rule:evenodd" />
  <g
     fill="#000000"
     fill-opacity="1"
     stroke="#000000"
     stroke-opacity="1"
     stroke-width="1"
     stroke-linecap="square"
     stroke-linejoin="bevel"
     transform="matrix(3.125,0,0,3.125,516.03082,179.0924)"
     font-family="Bravura"
     font-size="27px"
     font-weight="400"
     font-style="normal"
     id="g736"
     style="fill-rule:evenodd" />
  <g
     fill="#000000"
     fill-opacity="1"
     stroke="#000000"
     stroke-opacity="1"
     stroke-width="1"
     stroke-linecap="square"
     stroke-linejoin="bevel"
     transform="matrix(3.125,0,0,3.125,25.144421,-185.4906)"
     font-family="Bravura"
     font-size="27px"
     font-weight="400"
     font-style="normal"
     id="g738"
     style="fill-rule:evenodd" />
  <g
     fill="#000000"
     fill-opacity="1"
     stroke="#000000"
     stroke-opacity="1"
     stroke-width="1"
     stroke-linecap="square"
     stroke-linejoin="bevel"
     transform="matrix(3.125,0,0,3.125,25.144421,-185.4906)"
     font-family="Bravura"
     font-size="27px"
     font-weight="400"
     font-style="normal"
     id="g744"
     style="fill-rule:evenodd" />
  <g
     fill="#000000"
     fill-opacity="1"
     stroke="#000000"
     stroke-opacity="1"
     stroke-width="1"
     stroke-linecap="square"
     stroke-linejoin="bevel"
     transform="matrix(3.125,0,0,3.125,25.144421,210.3424)"
     font-family="Bravura"
     font-size="27px"
     font-weight="400"
     font-style="normal"
     id="g746"
     style="fill-rule:evenodd" />
  <g
     fill="#000000"
     fill-opacity="1"
     stroke="#000000"
     stroke-opacity="1"
     stroke-width="1"
     stroke-linecap="square"
     stroke-linejoin="bevel"
     transform="matrix(3.125,0,0,3.125,25.144421,210.3424)"
     font-family="Bravura"
     font-size="27px"
     font-weight="400"
     font-style="normal"
     id="g752"
     style="fill-rule:evenodd" />
  <g
     fill="#000000"
     fill-opacity="1"
     stroke="#000000"
     stroke-opacity="1"
     stroke-width="1"
     stroke-linecap="square"
     stroke-linejoin="bevel"
     transform="matrix(3.125,0,0,3.125,94.935821,-247.9905)"
     font-family="Bravura"
     font-size="27px"
     font-weight="400"
     font-style="normal"
     id="g754"
     style="fill-rule:evenodd" />
  <g
     fill="#000000"
     fill-opacity="1"
     stroke="#000000"
     stroke-opacity="1"
     stroke-width="1"
     stroke-linecap="square"
     stroke-linejoin="bevel"
     transform="matrix(3.125,0,0,3.125,94.935821,-247.9905)"
     font-family="Bravura"
     font-size="27px"
     font-weight="400"
     font-style="normal"
     id="g760"
     style="fill-rule:evenodd" />
  <g
     fill="#000000"
     fill-opacity="1"
     stroke="#000000"
     stroke-opacity="1"
     stroke-width="1"
     stroke-linecap="square"
     stroke-linejoin="bevel"
     transform="matrix(3.125,0,0,3.125,94.935821,-247.9905)"
     font-family="Bravura"
     font-size="27px"
     font-weight="400"
     font-style="normal"
     id="g762"
     style="fill-rule:evenodd" />
  <g
     fill="#000000"
     fill-opacity="1"
     stroke="#000000"
     stroke-opacity="1"
     stroke-width="1"
     stroke-linecap="square"
     stroke-linejoin="bevel"
     transform="matrix(3.125,0,0,3.125,94.935821,-247.9905)"
     font-family="Bravura"
     font-size="27px"
     font-weight="400"
     font-style="normal"
     id="g768"
     style="fill-rule:evenodd" />
  <g
     fill="#000000"
     fill-opacity="1"
     stroke="#000000"
     stroke-opacity="1"
     stroke-width="1"
     stroke-linecap="square"
     stroke-linejoin="bevel"
     transform="matrix(3.125,0,0,3.125,94.935821,147.8424)"
     font-family="Bravura"
     font-size="27px"
     font-weight="400"
     font-style="normal"
     id="g770"
     style="fill-rule:evenodd" />
  <g
     fill="#000000"
     fill-opacity="1"
     stroke="#000000"
     stroke-opacity="1"
     stroke-width="1"
     stroke-linecap="square"
     stroke-linejoin="bevel"
     transform="matrix(3.125,0,0,3.125,94.935821,147.8424)"
     font-family="Bravura"
     font-size="27px"
     font-weight="400"
     font-style="normal"
     id="g776"
     style="fill-rule:evenodd" />
  <g
     fill="#000000"
     fill-opacity="1"
     stroke="#000000"
     stroke-opacity="1"
     stroke-width="1"
     stroke-linecap="square"
     stroke-linejoin="bevel"
     transform="matrix(3.125,0,0,3.125,496.03082,-195.9076)"
     font-family="Bravura"
     font-size="27px"
     font-weight="400"
     font-style="normal"
     id="g794"
     style="fill-rule:evenodd" />
  <g
     fill="#000000"
     fill-opacity="1"
     stroke="#000000"
     stroke-opacity="1"
     stroke-width="1"
     stroke-linecap="square"
     stroke-linejoin="bevel"
     transform="matrix(3.125,0,0,3.125,496.03082,-195.9076)"
     font-family="Bravura"
     font-size="27px"
     font-weight="400"
     font-style="normal"
     id="g800"
     style="fill-rule:evenodd" />
  <g
     fill="#000000"
     fill-opacity="1"
     stroke="#000000"
     stroke-opacity="1"
     stroke-width="1"
     stroke-linecap="square"
     stroke-linejoin="bevel"
     transform="matrix(3.125,0,0,3.125,471.92882,179.0924)"
     font-family="Bravura"
     font-size="27px"
     font-weight="400"
     font-style="normal"
     id="g802"
     style="fill-rule:evenodd" />
  <g
     fill="#000000"
     fill-opacity="1"
     stroke="#000000"
     stroke-opacity="1"
     stroke-width="1"
     stroke-linecap="square"
     stroke-linejoin="bevel"
     transform="matrix(3.125,0,0,3.125,471.92882,179.0924)"
     font-family="Bravura"
     font-size="27px"
     font-weight="400"
     font-style="normal"
     id="g808"
     style="fill-rule:evenodd" />
  <g
     fill="#000000"
     fill-opacity="1"
     stroke="#000000"
     stroke-opacity="1"
     stroke-width="1"
     stroke-linecap="square"
     stroke-linejoin="bevel"
     transform="matrix(3.125,0,0,3.125,615.10682,-216.7406)"
     font-family="Bravura"
     font-size="27px"
     font-weight="400"
     font-style="normal"
     id="g810"
     style="fill-rule:evenodd" />
  <g
     fill="#000000"
     fill-opacity="1"
     stroke="#000000"
     stroke-opacity="1"
     stroke-width="1"
     stroke-linecap="square"
     stroke-linejoin="bevel"
     transform="matrix(3.125,0,0,3.125,615.10682,-216.7406)"
     font-family="Bravura"
     font-size="27px"
     font-weight="400"
     font-style="normal"
     id="g816"
     style="fill-rule:evenodd" />
  <g
     fill="#000000"
     fill-opacity="1"
     stroke="#000000"
     stroke-opacity="1"
     stroke-width="1"
     stroke-linecap="square"
     stroke-linejoin="bevel"
     transform="matrix(3.125,0,0,3.125,592.01682,158.2594)"
     font-family="Bravura"
     font-size="27px"
     font-weight="400"
     font-style="normal"
     id="g818"
     style="fill-rule:evenodd" />
  <g
     fill="#000000"
     fill-opacity="1"
     stroke="#000000"
     stroke-opacity="1"
     stroke-width="1"
     stroke-linecap="square"
     stroke-linejoin="bevel"
     transform="matrix(3.125,0,0,3.125,592.01682,158.2594)"
     font-family="Bravura"
     font-size="27px"
     font-weight="400"
     font-style="normal"
     id="g824"
     style="fill-rule:evenodd" />
  <g
     fill="none"
     stroke="#000000"
     stroke-opacity="1"
     stroke-width="1"
     stroke-linecap="square"
     stroke-linejoin="bevel"
     transform="matrix(3.125,0,0,3.125,-106.29918,2802.2784)"
     font-family="Cantarell"
     font-size="15px"
     font-weight="400"
     font-style="normal"
     id="g826"
     style="fill-rule:evenodd" />
  <g
     fill="none"
     stroke="#000000"
     stroke-opacity="1"
     stroke-width="1"
     stroke-linecap="square"
     stroke-linejoin="bevel"
     transform="matrix(3.125,0,0,3.125,-106.29918,2802.2784)"
     font-family="Cantarell"
     font-size="15px"
     font-weight="400"
     font-style="normal"
     id="g832"
     style="fill-rule:evenodd" />
  <g
     fill="none"
     stroke="#000000"
     stroke-opacity="1"
     stroke-width="1"
     stroke-linecap="square"
     stroke-linejoin="bevel"
     transform="matrix(3.125,0,0,3.125,-106.29918,2802.2784)"
     font-family="Cantarell"
     font-size="15px"
     font-weight="400"
     font-style="normal"
     id="g834"
     style="fill-rule:evenodd" />
  <g
     fill="none"
     stroke="#000000"
     stroke-opacity="1"
     stroke-width="1"
     stroke-linecap="square"
     stroke-linejoin="bevel"
     transform="matrix(3.125,0,0,3.125,-106.29918,2802.2784)"
     font-family="Cantarell"
     font-size="15px"
     font-weight="400"
     font-style="normal"
     id="g840"
     style="fill-rule:evenodd" />
  <metadata
     id="metadata1332">
    <rdf:RDF>
      <cc:Work
         rdf:about="">
        <dc:title>Qt Svg Document</dc:title>
      </cc:Work>
    </rdf:RDF>
  </metadata>
  <text
     xml:space="preserve"
     style="font-style:normal;font-weight:400;font-size:100px;line-height:1.25;font-family:'Libertinus Sans';-inkscape-font-specification:'Libertinus Sans';letter-spacing:0px;word-spacing:0px;fill:#ff0000;fill-rule:evenodd;stroke:#000000;stroke-width:1.66667;stroke-linecap:butt;stroke-linejoin:bevel;stroke-opacity:1"
     x="415.79718"
     y="98.683723"
     id="text3528"><tspan
       sodipodi:role="line"
       id="tspan3526"
       x="415.79718"
       y="98.683723"
       style="stroke-width:1.66667">✖</tspan></text>
  <g
     fill="#000000"
     fill-opacity="1"
     stroke="#000000"
     stroke-opacity="1"
     stroke-width="0.466667"
     stroke-linecap="round"
     stroke-linejoin="round"
     transform="matrix(3.125,0,0,3.125,11.357967,147.84372)"
     font-family="Cantarell"
     font-size="45.8333px"
     font-weight="400"
     font-style="normal"
     id="g16"
     style="fill-rule:evenodd">
    <path
       vector-effect="none"
       fill-rule="evenodd"
       d="M 49.8717,-2.66667 C 59.515,-11.268 77.0034,-9.6013 84.8484,0.666667 C 76.9022,-8.53945 59.4138,-10.2061 49.8717,-2.66667"
       id="path14" />
  </g>
  <g
     fill="#000000"
     fill-opacity="1"
     stroke="#000000"
     stroke-opacity="1"
     stroke-width="0.466667"
     stroke-linecap="round"
     stroke-linejoin="round"
     transform="matrix(3.125,0,0,3.125,11.357967,147.84372)"
     font-family="Cantarell"
     font-size="45.8333px"
     font-weight="400"
     font-style="normal"
     id="g24"
     style="fill-rule:evenodd">
    <path
       vector-effect="none"
       fill-rule="evenodd"
       d="M 141.569,7.33333 C 155.386,-7.97036 187.062,-12.9704 204.921,-2.66667 C 187.229,-11.9167 155.553,-6.91674 141.569,7.33333"
       id="path22" />
  </g>
  <g
     fill="#000000"
     fill-opacity="1"
     stroke="#000000"
     stroke-opacity="1"
     stroke-width="0.533333"
     stroke-linecap="butt"
     stroke-linejoin="bevel"
     transform="matrix(3.125,0,0,3.125,11.357967,147.84372)"
     font-family="Cantarell"
     font-size="45.8333px"
     font-weight="400"
     font-style="normal"
     id="g40"
     style="fill-rule:evenodd">
    <polyline
       fill="none"
       vector-effect="none"
       points="0,0 125.156,0 "
       id="polyline30" />
    <polyline
       fill="none"
       vector-effect="none"
       points="0,6.66667 125.156,6.66667 "
       id="polyline32" />
    <polyline
       fill="none"
       vector-effect="none"
       points="0,13.3333 125.156,13.3333 "
       id="polyline34" />
    <polyline
       fill="none"
       vector-effect="none"
       points="0,20 125.156,20 "
       id="polyline36" />
    <polyline
       fill="none"
       vector-effect="none"
       points="0,26.6667 125.156,26.6667 "
       id="polyline38" />
  </g>
  <g
     fill="#000000"
     fill-opacity="1"
     stroke="#000000"
     stroke-opacity="1"
     stroke-width="0.533333"
     stroke-linecap="butt"
     stroke-linejoin="bevel"
     transform="matrix(3.125,0,0,3.125,402.47077,147.84372)"
     font-family="Cantarell"
     font-size="45.8333px"
     font-weight="400"
     font-style="normal"
     id="g64"
     style="fill-rule:evenodd">
    <polyline
       fill="none"
       vector-effect="none"
       points="0,0 125.463,0 "
       id="polyline54" />
    <polyline
       fill="none"
       vector-effect="none"
       points="0,6.66667 125.463,6.66667 "
       id="polyline56" />
    <polyline
       fill="none"
       vector-effect="none"
       points="0,13.3333 125.463,13.3333 "
       id="polyline58" />
    <polyline
       fill="none"
       vector-effect="none"
       points="0,20 125.463,20 "
       id="polyline60" />
    <polyline
       fill="none"
       vector-effect="none"
       points="0,26.6667 125.463,26.6667 "
       id="polyline62" />
  </g>
  <g
     fill="#000000"
     fill-opacity="1"
     stroke="#000000"
     stroke-opacity="1"
     stroke-width="1.06667"
     stroke-linecap="butt"
     stroke-linejoin="bevel"
     transform="matrix(3.125,0,0,3.125,399.13677,147.84372)"
     font-family="Cantarell"
     font-size="45.8333px"
     font-weight="400"
     font-style="normal"
     id="g104"
     style="fill-rule:evenodd">
    <polyline
       fill="none"
       vector-effect="none"
       points="0.533333,0 0.533333,26.6667 "
       id="polyline102" />
  </g>
  <g
     fill="#000000"
     fill-opacity="1"
     stroke="none"
     transform="matrix(3.125,0,0,3.125,413.30377,189.51072)"
     font-family="Bravura"
     font-size="27px"
     font-weight="400"
     font-style="normal"
     id="g114"
     style="fill-rule:evenodd;stroke-width:1;stroke-linecap:square;stroke-linejoin:bevel;fill:#ff0000">
    <path
       vector-effect="none"
       fill-rule="nonzero"
       d="M 6.39062,-3.1875 C 6.59375,-3.26562 6.71875,-3.48438 6.71875,-3.64062 V -5.5625 C 6.71875,-5.70312 6.64062,-5.78125 6.53125,-5.78125 C 6.48438,-5.78125 6.45312,-5.78125 6.39062,-5.75 C 6.39062,-5.75 5.85938,-5.53125 5.71875,-5.5 C 5.53125,-5.5 5.34375,-5.64062 5.34375,-5.85938 C 5.34375,-6.125 5.34375,-9.15625 5.34375,-9.15625 C 5.34375,-9.3125 5.1875,-9.45312 4.96875,-9.45312 C 4.70312,-9.45312 4.53125,-9.3125 4.53125,-9.15625 C 4.53125,-9.15625 4.53125,-5.90625 4.53125,-5.64062 C 4.5,-5.375 4.42188,-5.01562 4.1875,-4.85938 C 3.85938,-4.67188 2.9375,-4.29688 2.48438,-4.1875 C 2.23438,-4.1875 2.15625,-4.5 2.15625,-4.71875 C 2.15625,-5 2.15625,-7.96875 2.15625,-7.96875 C 2.15625,-8.125 1.96875,-8.26562 1.78125,-8.26562 C 1.51562,-8.26562 1.34375,-8.125 1.34375,-7.96875 C 1.34375,-7.96875 1.34375,-6.5 1.34375,-5.42188 V -4.3125 C 1.34375,-3.9375 1.1875,-3.67188 1.03125,-3.59375 C 0.859375,-3.51562 0.328125,-3.29688 0.328125,-3.29688 C 0.140625,-3.23438 0,-3.01562 0,-2.85938 V -0.9375 C 0,-0.78125 0.078125,-0.703125 0.21875,-0.703125 C 0.25,-0.703125 0.296875,-0.734375 0.328125,-0.734375 C 0.328125,-0.734375 0.734375,-0.890625 0.921875,-1 C 0.9375,-1 0.96875,-1.03125 1,-1.03125 C 1.1875,-1.03125 1.34375,-0.75 1.34375,-0.546875 V 2.125 C 1.34375,2.42188 1.21875,2.67188 1.04688,2.75 C 0.890625,2.8125 0.328125,3.04688 0.328125,3.04688 C 0.140625,3.10938 0,3.3125 0,3.48438 V 5.40625 C 0,5.5625 0.078125,5.64062 0.21875,5.64062 C 0.25,5.64062 0.296875,5.60938 0.328125,5.60938 C 0.328125,5.60938 0.703125,5.45312 0.9375,5.375 C 0.96875,5.34375 1,5.34375 1.03125,5.34375 C 1.21875,5.34375 1.34375,5.64062 1.34375,5.78125 C 1.34375,5.9375 1.34375,9.09375 1.34375,9.09375 C 1.34375,9.26562 1.51562,9.39062 1.70312,9.39062 C 1.96875,9.39062 2.15625,9.26562 2.15625,9.09375 C 2.15625,9.09375 2.15625,5.67188 2.15625,5.34375 C 2.15625,5 2.29688,4.8125 2.42188,4.75 L 4.07812,4.07812 C 4.10938,4.07812 4.15625,4.04688 4.1875,4.04688 C 4.40625,4.04688 4.53125,4.375 4.53125,4.53125 C 4.53125,4.71875 4.53125,7.90625 4.53125,7.90625 C 4.53125,8.07812 4.70312,8.20312 4.89062,8.20312 C 5.1875,8.20312 5.34375,8.07812 5.34375,7.90625 C 5.34375,7.90625 5.34375,4.26562 5.34375,4.07812 C 5.34375,3.85938 5.45312,3.53125 5.64062,3.45312 C 5.82812,3.375 6.39062,3.15625 6.39062,3.15625 C 6.59375,3.07812 6.71875,2.85938 6.71875,2.70312 V 0.78125 C 6.71875,0.640625 6.64062,0.5625 6.53125,0.5625 C 6.48438,0.5625 6.45312,0.5625 6.39062,0.59375 C 6.39062,0.59375 5.82812,0.8125 5.70312,0.859375 C 5.53125,0.859375 5.34375,0.703125 5.34375,0.375 V -2.125 C 5.34375,-2.32812 5.48438,-2.82812 5.70312,-2.92188 C 5.90625,-3 6.39062,-3.1875 6.39062,-3.1875 M 4.53125,1.21875 C 4.375,1.75 3.10938,2.29688 2.48438,2.29688 C 2.32812,2.29688 2.1875,2.23438 2.15625,2.15625 C 2.10938,2.04688 2.07812,1.45312 2.07812,0.8125 C 2.07812,-0.03125 2.10938,-0.96875 2.15625,-1.1875 C 2.21875,-1.64062 3.45312,-2.21875 4.125,-2.21875 C 4.3125,-2.21875 4.48438,-2.15625 4.53125,-2.04688 C 4.59375,-1.92188 4.64062,-1.23438 4.64062,-0.515625 C 4.64062,0.21875 4.59375,0.96875 4.53125,1.21875"
       id="path112"
       style="fill:#ff0000" />
  </g>
  <g
     fill="#000000"
     fill-opacity="1"
     stroke="#000000"
     stroke-opacity="1"
     stroke-width="0.866667"
     stroke-linecap="round"
     stroke-linejoin="bevel"
     transform="matrix(3.125,0,0,3.125,154.17077,158.26072)"
     font-family="Bravura"
     font-size="27px"
     font-weight="400"
     font-style="normal"
     id="g128"
     style="fill-rule:evenodd">
    <polyline
       fill="none"
       vector-effect="none"
       points="0,1.024 0,23.3333 "
       id="polyline126" />
  </g>
  <g
     fill="#000000"
     fill-opacity="1"
     stroke="#000000"
     stroke-opacity="1"
     stroke-width="0.866667"
     stroke-linecap="round"
     stroke-linejoin="bevel"
     transform="matrix(3.125,0,0,3.125,332.17777,179.09372)"
     font-family="Bravura"
     font-size="27px"
     font-weight="400"
     font-style="normal"
     id="g140"
     style="fill-rule:evenodd">
    <polyline
       fill="none"
       vector-effect="none"
       points="0,0.981333 0,21.6667 "
       id="polyline138" />
  </g>
  <g
     fill="#000000"
     fill-opacity="1"
     stroke="#000000"
     stroke-opacity="1"
     stroke-width="0.866667"
     stroke-linecap="round"
     stroke-linejoin="bevel"
     transform="matrix(3.125,0,0,3.125,263.86377,168.67772)"
     font-family="Bravura"
     font-size="27px"
     font-weight="400"
     font-style="normal"
     id="g144"
     style="fill-rule:evenodd">
    <polyline
       fill="none"
       vector-effect="none"
       points="0,0.981333 0,22.5 "
       id="polyline142" />
  </g>
  <g
     fill="#000000"
     fill-opacity="1"
     stroke="#000000"
     stroke-opacity="1"
     stroke-width="0.866667"
     stroke-linecap="round"
     stroke-linejoin="bevel"
     transform="matrix(3.125,0,0,3.125,441.11677,189.51072)"
     font-family="Bravura"
     font-size="27px"
     font-weight="400"
     font-style="normal"
     id="g156"
     style="fill-rule:evenodd">
    <polyline
       fill="none"
       vector-effect="none"
       points="0,0.981333 0,20 "
       id="polyline154" />
  </g>
  <g
     fill="#000000"
     fill-opacity="1"
     stroke="#000000"
     stroke-opacity="1"
     stroke-width="0.866667"
     stroke-linecap="round"
     stroke-linejoin="bevel"
     transform="matrix(3.125,0,0,3.125,639.09177,158.26072)"
     font-family="Bravura"
     font-size="27px"
     font-weight="400"
     font-style="normal"
     id="g160"
     style="fill-rule:evenodd">
    <polyline
       fill="none"
       vector-effect="none"
       points="0,0.981333 0,23.3333 "
       id="polyline158" />
  </g>
  <g
     fill="#000000"
     fill-opacity="1"
     stroke="#000000"
     stroke-opacity="1"
     stroke-width="0.866667"
     stroke-linecap="round"
     stroke-linejoin="bevel"
     transform="matrix(3.125,0,0,3.125,560.29777,168.67772)"
     font-family="Bravura"
     font-size="27px"
     font-weight="400"
     font-style="normal"
     id="g172"
     style="fill-rule:evenodd">
    <polyline
       fill="none"
       vector-effect="none"
       points="0,0.981333 0,22.6533 "
       id="polyline170" />
  </g>
  <g
     fill="#000000"
     fill-opacity="1"
     stroke="#000000"
     stroke-opacity="1"
     stroke-width="0.866667"
     stroke-linecap="round"
     stroke-linejoin="bevel"
     transform="matrix(3.125,0,0,3.125,519.91077,179.09372)"
     font-family="Bravura"
     font-size="27px"
     font-weight="400"
     font-style="normal"
     id="g176"
     style="fill-rule:evenodd">
    <polyline
       fill="none"
       vector-effect="none"
       points="0,0.981333 0,20.68 "
       id="polyline174" />
  </g>
  <g
     fill="#000000"
     fill-opacity="1"
     stroke="#000000"
     stroke-opacity="1"
     stroke-width="0.866667"
     stroke-linecap="round"
     stroke-linejoin="bevel"
     transform="matrix(3.125,0,0,3.125,679.08777,147.84372)"
     font-family="Bravura"
     font-size="27px"
     font-weight="400"
     font-style="normal"
     id="g180"
     style="fill-rule:evenodd">
    <polyline
       fill="none"
       vector-effect="none"
       points="0,1.024 0,23.3333 "
       id="polyline178" />
  </g>
  <g
     fill="#000000"
     fill-opacity="1"
     stroke="none"
     transform="matrix(3.125,0,0,3.125,152.81677,158.26072)"
     font-family="Bravura"
     font-size="27px"
     font-weight="400"
     font-style="normal"
     id="g194"
     style="fill-rule:evenodd;stroke-width:1;stroke-linecap:square;stroke-linejoin:bevel">
    <path
       vector-effect="none"
       fill-rule="nonzero"
       d="M 3.01562,3.90625 C 8.17188,3.90625 9.20312,-0.265625 9.20312,-1.29688 C 9.20312,-2.89062 7.9375,-3.90625 6.125,-3.90625 C 1.45312,-3.90625 0,-0.296875 0,1.32812 C 0,2.96875 1.32812,3.90625 3.01562,3.90625 M 5.40625,1.4375 C 4,2.375 3.01562,2.70312 2.34375,2.70312 C 1.70312,2.70312 1.32812,2.375 1.10938,2 C 1,1.8125 0.921875,1.59375 0.921875,1.375 C 0.921875,0.703125 1.59375,-0.15625 3.75,-1.40625 C 5.29688,-2.29688 6.26562,-2.625 6.90625,-2.625 C 7.5,-2.625 7.82812,-2.34375 8.04688,-1.96875 C 8.15625,-1.78125 8.23438,-1.59375 8.23438,-1.375 C 8.23438,-0.75 7.57812,0 5.40625,1.4375"
       id="path192" />
  </g>
  <g
     fill="#000000"
     fill-opacity="1"
     stroke="none"
     transform="matrix(3.125,0,0,3.125,262.50977,168.67772)"
     font-family="Bravura"
     font-size="27px"
     font-weight="400"
     font-style="normal"
     id="g210"
     style="fill-rule:evenodd;stroke-width:1;stroke-linecap:square;stroke-linejoin:bevel">
    <path
       vector-effect="none"
       fill-rule="nonzero"
       d="M 2.9375,3.8125 C 5.64062,3.8125 8.96875,1.29688 8.96875,-1.26562 C 8.96875,-2.8125 7.75,-3.8125 6,-3.8125 C 2.67188,-3.8125 0,-1.34375 0,1.26562 C 0,2.85938 1.29688,3.8125 2.9375,3.8125"
       id="path208" />
  </g>
  <g
     fill="#000000"
     fill-opacity="1"
     stroke="none"
     transform="matrix(3.125,0,0,3.125,330.82277,179.09372)"
     font-family="Bravura"
     font-size="27px"
     font-weight="400"
     font-style="normal"
     id="g234"
     style="fill-rule:evenodd;stroke-width:1;stroke-linecap:square;stroke-linejoin:bevel">
    <path
       vector-effect="none"
       fill-rule="nonzero"
       d="M 2.9375,3.8125 C 5.64062,3.8125 8.96875,1.29688 8.96875,-1.26562 C 8.96875,-2.8125 7.75,-3.8125 6,-3.8125 C 2.67188,-3.8125 0,-1.34375 0,1.26562 C 0,2.85938 1.29688,3.8125 2.9375,3.8125"
       id="path232" />
  </g>
  <g
     fill="#000000"
     fill-opacity="1"
     stroke="none"
     transform="matrix(3.125,0,0,3.125,439.76177,189.51072)"
     font-family="Bravura"
     font-size="27px"
     font-weight="400"
     font-style="normal"
     id="g250"
     style="fill-rule:evenodd;stroke-width:1;stroke-linecap:square;stroke-linejoin:bevel;fill:#ff0000">
    <path
       vector-effect="none"
       fill-rule="nonzero"
       d="M 2.9375,3.8125 C 5.64062,3.8125 8.96875,1.29688 8.96875,-1.26562 C 8.96875,-2.8125 7.75,-3.8125 6,-3.8125 C 2.67188,-3.8125 0,-1.34375 0,1.26562 C 0,2.85938 1.29688,3.8125 2.9375,3.8125"
       id="path248"
       style="fill:#ff0000" />
  </g>
  <g
     fill="#000000"
     fill-opacity="1"
     stroke="none"
     transform="matrix(3.125,0,0,3.125,637.73777,158.26072)"
     font-family="Bravura"
     font-size="27px"
     font-weight="400"
     font-style="normal"
     id="g258"
     style="fill-rule:evenodd;stroke-width:1;stroke-linecap:square;stroke-linejoin:bevel">
    <path
       vector-effect="none"
       fill-rule="nonzero"
       d="M 2.9375,3.8125 C 5.64062,3.8125 8.96875,1.29688 8.96875,-1.26562 C 8.96875,-2.8125 7.75,-3.8125 6,-3.8125 C 2.67188,-3.8125 0,-1.34375 0,1.26562 C 0,2.85938 1.29688,3.8125 2.9375,3.8125"
       id="path256" />
  </g>
  <g
     fill="#000000"
     fill-opacity="1"
     stroke="none"
     transform="matrix(3.125,0,0,3.125,558.94377,168.67772)"
     font-family="Bravura"
     font-size="27px"
     font-weight="400"
     font-style="normal"
     id="g266"
     style="fill-rule:evenodd;stroke-width:1;stroke-linecap:square;stroke-linejoin:bevel">
    <path
       vector-effect="none"
       fill-rule="nonzero"
       d="M 2.9375,3.8125 C 5.64062,3.8125 8.96875,1.29688 8.96875,-1.26562 C 8.96875,-2.8125 7.75,-3.8125 6,-3.8125 C 2.67188,-3.8125 0,-1.34375 0,1.26562 C 0,2.85938 1.29688,3.8125 2.9375,3.8125"
       id="path264" />
  </g>
  <g
     fill="#000000"
     fill-opacity="1"
     stroke="none"
     transform="matrix(3.125,0,0,3.125,518.55677,179.09372)"
     font-family="Bravura"
     font-size="27px"
     font-weight="400"
     font-style="normal"
     id="g298"
     style="fill-rule:evenodd;stroke-width:1;stroke-linecap:square;stroke-linejoin:bevel">
    <path
       vector-effect="none"
       fill-rule="nonzero"
       d="M 2.9375,3.8125 C 5.64062,3.8125 8.96875,1.29688 8.96875,-1.26562 C 8.96875,-2.8125 7.75,-3.8125 6,-3.8125 C 2.67188,-3.8125 0,-1.34375 0,1.26562 C 0,2.85938 1.29688,3.8125 2.9375,3.8125"
       id="path296" />
  </g>
  <g
     fill="#000000"
     fill-opacity="1"
     stroke="none"
     transform="matrix(3.125,0,0,3.125,677.73377,147.84372)"
     font-family="Bravura"
     font-size="27px"
     font-weight="400"
     font-style="normal"
     id="g306"
     style="fill-rule:evenodd;stroke-width:1;stroke-linecap:square;stroke-linejoin:bevel">
    <path
       vector-effect="none"
       fill-rule="nonzero"
       d="M 3.01562,3.90625 C 8.17188,3.90625 9.20312,-0.265625 9.20312,-1.29688 C 9.20312,-2.89062 7.9375,-3.90625 6.125,-3.90625 C 1.45312,-3.90625 0,-0.296875 0,1.32812 C 0,2.96875 1.32812,3.90625 3.01562,3.90625 M 5.40625,1.4375 C 4,2.375 3.01562,2.70312 2.34375,2.70312 C 1.70312,2.70312 1.32812,2.375 1.10938,2 C 1,1.8125 0.921875,1.59375 0.921875,1.375 C 0.921875,0.703125 1.59375,-0.15625 3.75,-1.40625 C 5.29688,-2.29688 6.26562,-2.625 6.90625,-2.625 C 7.5,-2.625 7.82812,-2.34375 8.04688,-1.96875 C 8.15625,-1.78125 8.23438,-1.59375 8.23438,-1.375 C 8.23438,-0.75 7.57812,0 5.40625,1.4375"
       id="path304" />
  </g>
  <g
     fill="#000000"
     fill-opacity="1"
     stroke="none"
     transform="matrix(3.125,0,0,3.125,24.691367,210.34372)"
     font-family="Bravura"
     font-size="27px"
     font-weight="400"
     font-style="normal"
     id="g322"
     style="fill-rule:evenodd;stroke-width:1;stroke-linecap:square;stroke-linejoin:bevel">
    <path
       vector-effect="none"
       fill-rule="nonzero"
       d="M 18.2812,-0.671875 C 18.0625,-4.15625 15.1406,-6.89062 11.6875,-6.89062 H 11.3906 C 11.2812,-6.89062 11.1406,-6.89062 11.0469,-6.82812 C 10.75,-8.57812 10.4531,-9.98438 10.1719,-11.4375 C 13.7969,-14.7969 15.625,-18.3281 15.625,-22 C 15.625,-23.7031 15.2188,-25.4219 14.4688,-27.1875 C 13.4219,-29.5781 12.4375,-29.75 12.4375,-29.75 C 9.85938,-28.6094 8.07812,-24.5312 8.07812,-19.6562 C 8.07812,-18.7656 8.125,-17.8438 8.26562,-16.8906 L 8.57812,-15.2031 C 4.60938,-11.7969 0.15625,-7.82812 0.15625,-2.625 C 0.15625,-2.34375 0.15625,-2.07812 0.1875,-1.8125 C 0.703125,4.71875 5.79688,6.79688 10.2344,6.79688 C 10.8438,6.79688 11.4688,6.78125 12.0625,6.6875 C 12.0625,6.6875 12.1406,6.6875 12.2031,6.6875 L 12.8281,10.4688 C 12.9219,11.1406 12.9844,11.7656 12.9844,12.3125 C 12.9844,16.7031 9.6875,16.7656 9.35938,16.7656 H 8.85938 C 7.9375,16.7656 7.1875,16.625 6.60938,16.2188 C 6.45312,16.1094 6.375,16 6.375,15.9219 C 6.375,15.8125 6.48438,15.7656 6.60938,15.7031 C 6.85938,15.6562 7.04688,15.6562 7.28125,15.5469 C 8.39062,15.2031 9.17188,14.2188 9.17188,13.0156 V 12.8281 C 9.04688,11.4219 7.875,10.25 6.42188,10.25 H 6.23438 C 5,10.3438 3.9375,11.3125 3.78125,12.5312 C 3.75,12.5312 3.67188,12.9219 3.67188,13.5 C 3.67188,14.9844 4.34375,17.7656 8.79688,17.7656 C 8.98438,17.7656 9.20312,17.7344 9.42188,17.7344 C 11.3438,17.625 14.2031,16.4375 14.2031,12.2031 C 14.2031,11.6406 14.1406,11.0156 14.0312,10.3438 C 14.0312,10.3438 13.7188,8.75 13.3594,6.3125 C 16.3906,5.1875 18.2812,2.71875 18.2812,-0.296875 V -0.671875 M 12.625,-25.4531 C 13.5156,-25.4531 14.4219,-24.75 14.4219,-23.2969 C 14.4219,-23.1094 14.3906,-22.9219 14.3594,-22.7031 C 14.0312,-20.4531 12.3594,-18.1719 9.46875,-15.9844 C 9.35938,-16.625 9.26562,-17.1406 9.26562,-17.2969 C 9.20312,-17.5938 9.20312,-17.9219 9.20312,-18.2812 C 9.20312,-21.0469 10.5,-25.3438 12.625,-25.4531 M 2.32812,-0.4375 C 2.32812,-4.9375 5.75,-8.23438 9.28125,-10.8438 L 9.95312,-6.64062 C 7.53125,-5.90625 5.60938,-3.60938 5.60938,-1.1875 C 5.60938,-0.78125 5.67188,-0.375 5.78125,0 C 6.20312,1.82812 7.42188,3.1875 8.6875,3.59375 C 8.9375,3.67188 9.125,3.70312 9.26562,3.70312 C 9.46875,3.70312 9.57812,3.59375 9.57812,3.48438 C 9.57812,3.3125 9.39062,3.10938 9.17188,3 C 8.64062,2.75 7.42188,1.4375 7.375,0.328125 V 0.046875 C 7.375,-1.82812 8.76562,-2.71875 10.5469,-3.01562 L 12.0156,5.60938 C 11.6094,5.75 10.9844,5.82812 10.2344,5.82812 C 7.28125,5.82812 2.48438,4.5 2.32812,-0.21875 V -0.4375 M 13.1719,5.3125 C 12.7344,2.85938 12.2031,-0.078125 11.6406,-3.125 H 11.7344 C 14.0156,-3.125 15.9531,-1.32812 16.0625,0.9375 V 1.23438 C 16.0625,3.125 15.0625,4.5 13.1719,5.3125"
       id="path320" />
  </g>
  <g
     fill="#000000"
     fill-opacity="1"
     stroke="none"
     transform="matrix(3.125,0,0,3.125,94.482767,189.51072)"
     font-family="Bravura"
     font-size="27px"
     font-weight="400"
     font-style="normal"
     id="g338"
     style="fill-rule:evenodd;stroke-width:1;stroke-linecap:square;stroke-linejoin:bevel">
    <path
       vector-effect="none"
       fill-rule="nonzero"
       d="M 0.328125,4.59375 C 0.40625,4.70312 0.484375,4.71875 0.5625,4.71875 C 0.640625,4.71875 0.734375,4.67188 0.734375,4.67188 C 1.53125,4.20312 2.1875,3.48438 2.85938,3.01562 C 5.26562,1.34375 6.09375,-0.296875 6.09375,-1.53125 C 6.09375,-3.07812 4.90625,-4.04688 3.67188,-4.125 C 3.48438,-4.125 3.29688,-4.10938 3.10938,-4.04688 C 2.8125,-3.96875 2.48438,-3.85938 2.1875,-3.67188 C 2.03125,-3.53125 1.82812,-3.29688 1.59375,-3.29688 C 1.53125,-3.29688 1.51562,-3.29688 1.45312,-3.3125 C 1.26562,-3.40625 1.15625,-3.59375 1.15625,-3.78125 C 1.1875,-4.375 1.34375,-10.8438 1.34375,-11.3906 C 1.34375,-11.6875 1.10938,-11.8438 0.84375,-11.8438 C 0.453125,-11.8438 0.03125,-11.5781 0,-11.0938 C 0,-11.0938 0.109375,4.3125 0.328125,4.59375 M 1.26562,2.1875 C 1.26562,2.1875 1.1875,0.5625 1.1875,-0.515625 C 1.1875,-0.9375 1.21875,-1.26562 1.23438,-1.375 C 1.34375,-1.70312 2.04688,-2.29688 2.42188,-2.51562 C 2.67188,-2.64062 2.92188,-2.70312 3.125,-2.70312 C 3.40625,-2.70312 3.64062,-2.59375 3.8125,-2.40625 C 4.07812,-2.10938 4.23438,-1.64062 4.23438,-1.14062 C 4.23438,-0.640625 4.10938,-0.078125 3.78125,0.484375 C 3.42188,1.14062 2.64062,2 1.82812,2.51562 C 1.73438,2.5625 1.64062,2.59375 1.5625,2.59375 C 1.32812,2.59375 1.26562,2.32812 1.26562,2.1875"
       id="path336" />
  </g>
  <g
     fill="#000000"
     fill-opacity="1"
     stroke="none"
     transform="matrix(3.125,0,0,3.125,11.357967,147.84372)"
     font-family="Bravura"
     font-size="27px"
     font-weight="400"
     font-style="normal"
     id="g372"
     style="fill-rule:evenodd;stroke-width:1;stroke-linecap:square;stroke-linejoin:bevel">
    <path
       vector-effect="none"
       fill-rule="evenodd"
       d="M 137.089,31.6667 L 201.308,24.9088 V 28.2421 L 137.089,35 V 31.6667"
       id="path366" />
    <path
       vector-effect="none"
       fill-rule="evenodd"
       d="M 163.17,23.9221 L 154.37,24.8482 V 28.1815 L 163.17,27.2555 V 23.9221"
       id="path368" />
    <path
       vector-effect="none"
       fill-rule="evenodd"
       d="M 201.308,19.9088 L 192.508,20.8348 V 24.1682 L 201.308,23.2421 V 19.9088"
       id="path370" />
  </g>
  <g
     fill="#000000"
     fill-opacity="1"
     stroke="none"
     transform="matrix(3.125,0,0,3.125,475.05377,179.09372)"
     font-family="Bravura"
     font-size="27px"
     font-weight="400"
     font-style="normal"
     id="g386"
     style="fill-rule:evenodd;stroke-width:1;stroke-linecap:square;stroke-linejoin:bevel;fill:#ff0000">
    <path
       vector-effect="none"
       fill-rule="nonzero"
       d="M 0,0 C 0,1.03125 0.890625,1.92188 1.92188,1.92188 C 2.96875,1.92188 3.85938,1.03125 3.85938,0 C 3.85938,-1.04688 2.96875,-1.9375 1.92188,-1.9375 C 0.890625,-1.9375 0,-1.04688 0,0"
       id="path384"
       style="fill:#ff0000" />
  </g>
  <g
     fill="#000000"
     fill-opacity="1"
     stroke="none"
     transform="matrix(3.125,0,0,3.125,594.23477,158.26072)"
     font-family="Bravura"
     font-size="27px"
     font-weight="400"
     font-style="normal"
     id="g394"
     style="fill-rule:evenodd;stroke-width:1;stroke-linecap:square;stroke-linejoin:bevel">
    <path
       vector-effect="none"
       fill-rule="nonzero"
       d="M 0,0 C 0,1.03125 0.890625,1.92188 1.92188,1.92188 C 2.96875,1.92188 3.85938,1.03125 3.85938,0 C 3.85938,-1.04688 2.96875,-1.9375 1.92188,-1.9375 C 0.890625,-1.9375 0,-1.04688 0,0"
       id="path392" />
  </g>
</svg>
