<?xml version="1.0" encoding="UTF-8" standalone="no"?>
<svg
   width="68.232933mm"
   height="23.509476mm"
   viewBox="0 0 805.90047 277.67096"
   version="1.2"
   id="svg844"
   sodipodi:docname="einfaches_Motiv_F-Dur_+_Haken.svg"
   inkscape:version="1.1-dev (0486c1a, 2020-10-10)"
   xmlns:inkscape="http://www.inkscape.org/namespaces/inkscape"
   xmlns:sodipodi="http://sodipodi.sourceforge.net/DTD/sodipodi-0.dtd"
   xmlns="http://www.w3.org/2000/svg"
   xmlns:svg="http://www.w3.org/2000/svg"
   xmlns:rdf="http://www.w3.org/1999/02/22-rdf-syntax-ns#"
   xmlns:cc="http://creativecommons.org/ns#"
   xmlns:dc="http://purl.org/dc/elements/1.1/">
  <sodipodi:namedview
     pagecolor="#ffffff"
     bordercolor="#666666"
     borderopacity="1"
     objecttolerance="10"
     gridtolerance="10"
     guidetolerance="10"
     inkscape:pageopacity="0"
     inkscape:pageshadow="2"
     inkscape:window-width="819"
     inkscape:window-height="480"
     id="namedview846"
     showgrid="false"
     lock-margins="true"
     fit-margin-top="1"
     fit-margin-left="1"
     fit-margin-right="1"
     fit-margin-bottom="1"
     inkscape:zoom="0.76209082"
     inkscape:cx="95.789108"
     inkscape:cy="98.413467"
     inkscape:window-x="440"
     inkscape:window-y="23"
     inkscape:window-maximized="0"
     inkscape:current-layer="svg844" />
  <title
     id="title428">Qt Svg Document</title>
  <desc
     id="desc430">created with MuseScore 2.0.0</desc>
  <defs
     id="defs432" />
  <g
     fill="#000000"
     fill-opacity="1"
     stroke="#000000"
     stroke-opacity="1"
     stroke-width="1"
     stroke-linecap="square"
     stroke-linejoin="bevel"
     transform="matrix(3.125,0,0,3.125,434.28082,-185.4906)"
     font-family="Bravura"
     font-size="27px"
     font-weight="400"
     font-style="normal"
     id="g530"
     style="fill-rule:evenodd" />
  <g
     fill="#000000"
     fill-opacity="1"
     stroke="#000000"
     stroke-opacity="1"
     stroke-width="1"
     stroke-linecap="square"
     stroke-linejoin="bevel"
     transform="matrix(3.125,0,0,3.125,434.28082,-185.4906)"
     font-family="Bravura"
     font-size="27px"
     font-weight="400"
     font-style="normal"
     id="g536"
     style="fill-rule:evenodd" />
  <g
     fill="#000000"
     fill-opacity="1"
     stroke="#000000"
     stroke-opacity="1"
     stroke-width="1"
     stroke-linecap="square"
     stroke-linejoin="bevel"
     transform="matrix(3.125,0,0,3.125,416.42882,189.5094)"
     font-family="Bravura"
     font-size="27px"
     font-weight="400"
     font-style="normal"
     id="g538"
     style="fill-rule:evenodd" />
  <g
     fill="#000000"
     fill-opacity="1"
     stroke="#000000"
     stroke-opacity="1"
     stroke-width="1"
     stroke-linecap="square"
     stroke-linejoin="bevel"
     transform="matrix(3.125,0,0,3.125,416.42882,189.5094)"
     font-family="Bravura"
     font-size="27px"
     font-weight="400"
     font-style="normal"
     id="g544"
     style="fill-rule:evenodd" />
  <g
     fill="#000000"
     fill-opacity="1"
     stroke="#000000"
     stroke-opacity="1"
     stroke-width="1"
     stroke-linecap="square"
     stroke-linejoin="bevel"
     transform="matrix(3.125,0,0,3.125,174.10282,-216.7406)"
     font-family="Bravura"
     font-size="27px"
     font-weight="400"
     font-style="normal"
     id="g610"
     style="fill-rule:evenodd" />
  <g
     fill="#000000"
     fill-opacity="1"
     stroke="#000000"
     stroke-opacity="1"
     stroke-width="1"
     stroke-linecap="square"
     stroke-linejoin="bevel"
     transform="matrix(3.125,0,0,3.125,174.10282,-216.7406)"
     font-family="Bravura"
     font-size="27px"
     font-weight="400"
     font-style="normal"
     id="g616"
     style="fill-rule:evenodd" />
  <g
     fill="#000000"
     fill-opacity="1"
     stroke="#000000"
     stroke-opacity="1"
     stroke-width="1"
     stroke-linecap="square"
     stroke-linejoin="bevel"
     transform="matrix(3.125,0,0,3.125,351.88582,-195.9076)"
     font-family="Bravura"
     font-size="27px"
     font-weight="400"
     font-style="normal"
     id="g618"
     style="fill-rule:evenodd" />
  <g
     fill="#000000"
     fill-opacity="1"
     stroke="#000000"
     stroke-opacity="1"
     stroke-width="1"
     stroke-linecap="square"
     stroke-linejoin="bevel"
     transform="matrix(3.125,0,0,3.125,351.88582,-195.9076)"
     font-family="Bravura"
     font-size="27px"
     font-weight="400"
     font-style="normal"
     id="g624"
     style="fill-rule:evenodd" />
  <g
     fill="#000000"
     fill-opacity="1"
     stroke="#000000"
     stroke-opacity="1"
     stroke-width="1"
     stroke-linecap="square"
     stroke-linejoin="bevel"
     transform="matrix(3.125,0,0,3.125,283.65782,-206.3236)"
     font-family="Bravura"
     font-size="27px"
     font-weight="400"
     font-style="normal"
     id="g626"
     style="fill-rule:evenodd" />
  <g
     fill="#000000"
     fill-opacity="1"
     stroke="#000000"
     stroke-opacity="1"
     stroke-width="1"
     stroke-linecap="square"
     stroke-linejoin="bevel"
     transform="matrix(3.125,0,0,3.125,283.65782,-206.3236)"
     font-family="Bravura"
     font-size="27px"
     font-weight="400"
     font-style="normal"
     id="g632"
     style="fill-rule:evenodd" />
  <g
     fill="#000000"
     fill-opacity="1"
     stroke="#000000"
     stroke-opacity="1"
     stroke-width="1"
     stroke-linecap="square"
     stroke-linejoin="bevel"
     transform="matrix(3.125,0,0,3.125,460.73882,-185.4906)"
     font-family="Bravura"
     font-size="27px"
     font-weight="400"
     font-style="normal"
     id="g634"
     style="fill-rule:evenodd" />
  <g
     fill="#000000"
     fill-opacity="1"
     stroke="#000000"
     stroke-opacity="1"
     stroke-width="1"
     stroke-linecap="square"
     stroke-linejoin="bevel"
     transform="matrix(3.125,0,0,3.125,460.73882,-185.4906)"
     font-family="Bravura"
     font-size="27px"
     font-weight="400"
     font-style="normal"
     id="g640"
     style="fill-rule:evenodd" />
  <g
     fill="#000000"
     fill-opacity="1"
     stroke="#000000"
     stroke-opacity="1"
     stroke-width="1"
     stroke-linecap="square"
     stroke-linejoin="bevel"
     transform="matrix(3.125,0,0,3.125,153.26982,158.2594)"
     font-family="Bravura"
     font-size="27px"
     font-weight="400"
     font-style="normal"
     id="g642"
     style="fill-rule:evenodd" />
  <g
     fill="#000000"
     fill-opacity="1"
     stroke="#000000"
     stroke-opacity="1"
     stroke-width="1"
     stroke-linecap="square"
     stroke-linejoin="bevel"
     transform="matrix(3.125,0,0,3.125,153.26982,158.2594)"
     font-family="Bravura"
     font-size="27px"
     font-weight="400"
     font-style="normal"
     id="g648"
     style="fill-rule:evenodd" />
  <g
     fill="#000000"
     fill-opacity="1"
     stroke="#000000"
     stroke-opacity="1"
     stroke-width="1"
     stroke-linecap="square"
     stroke-linejoin="bevel"
     transform="matrix(3.125,0,0,3.125,333.20582,179.0924)"
     font-family="Bravura"
     font-size="27px"
     font-weight="400"
     font-style="normal"
     id="g650"
     style="fill-rule:evenodd" />
  <g
     fill="#000000"
     fill-opacity="1"
     stroke="#000000"
     stroke-opacity="1"
     stroke-width="1"
     stroke-linecap="square"
     stroke-linejoin="bevel"
     transform="matrix(3.125,0,0,3.125,333.20582,179.0924)"
     font-family="Bravura"
     font-size="27px"
     font-weight="400"
     font-style="normal"
     id="g656"
     style="fill-rule:evenodd" />
  <g
     fill="#000000"
     fill-opacity="1"
     stroke="#000000"
     stroke-opacity="1"
     stroke-width="1"
     stroke-linecap="square"
     stroke-linejoin="bevel"
     transform="matrix(3.125,0,0,3.125,264.14982,168.6764)"
     font-family="Bravura"
     font-size="27px"
     font-weight="400"
     font-style="normal"
     id="g658"
     style="fill-rule:evenodd" />
  <g
     fill="#000000"
     fill-opacity="1"
     stroke="#000000"
     stroke-opacity="1"
     stroke-width="1"
     stroke-linecap="square"
     stroke-linejoin="bevel"
     transform="matrix(3.125,0,0,3.125,264.14982,168.6764)"
     font-family="Bravura"
     font-size="27px"
     font-weight="400"
     font-style="normal"
     id="g664"
     style="fill-rule:evenodd" />
  <g
     fill="#000000"
     fill-opacity="1"
     stroke="#000000"
     stroke-opacity="1"
     stroke-width="1"
     stroke-linecap="square"
     stroke-linejoin="bevel"
     transform="matrix(3.125,0,0,3.125,436.63782,189.5094)"
     font-family="Bravura"
     font-size="27px"
     font-weight="400"
     font-style="normal"
     id="g666"
     style="fill-rule:evenodd" />
  <g
     fill="#000000"
     fill-opacity="1"
     stroke="#000000"
     stroke-opacity="1"
     stroke-width="1"
     stroke-linecap="square"
     stroke-linejoin="bevel"
     transform="matrix(3.125,0,0,3.125,436.63782,189.5094)"
     font-family="Bravura"
     font-size="27px"
     font-weight="400"
     font-style="normal"
     id="g672"
     style="fill-rule:evenodd" />
  <g
     fill="#000000"
     fill-opacity="1"
     stroke="#000000"
     stroke-opacity="1"
     stroke-width="1"
     stroke-linecap="square"
     stroke-linejoin="bevel"
     transform="matrix(3.125,0,0,3.125,658.54082,-216.7406)"
     font-family="Bravura"
     font-size="27px"
     font-weight="400"
     font-style="normal"
     id="g674"
     style="fill-rule:evenodd" />
  <g
     fill="#000000"
     fill-opacity="1"
     stroke="#000000"
     stroke-opacity="1"
     stroke-width="1"
     stroke-linecap="square"
     stroke-linejoin="bevel"
     transform="matrix(3.125,0,0,3.125,658.54082,-216.7406)"
     font-family="Bravura"
     font-size="27px"
     font-weight="400"
     font-style="normal"
     id="g680"
     style="fill-rule:evenodd" />
  <g
     fill="#000000"
     fill-opacity="1"
     stroke="#000000"
     stroke-opacity="1"
     stroke-width="1"
     stroke-linecap="square"
     stroke-linejoin="bevel"
     transform="matrix(3.125,0,0,3.125,579.81582,-206.3236)"
     font-family="Bravura"
     font-size="27px"
     font-weight="400"
     font-style="normal"
     id="g682"
     style="fill-rule:evenodd" />
  <g
     fill="#000000"
     fill-opacity="1"
     stroke="#000000"
     stroke-opacity="1"
     stroke-width="1"
     stroke-linecap="square"
     stroke-linejoin="bevel"
     transform="matrix(3.125,0,0,3.125,579.81582,-206.3236)"
     font-family="Bravura"
     font-size="27px"
     font-weight="400"
     font-style="normal"
     id="g688"
     style="fill-rule:evenodd" />
  <g
     fill="#000000"
     fill-opacity="1"
     stroke="#000000"
     stroke-opacity="1"
     stroke-width="1"
     stroke-linecap="square"
     stroke-linejoin="bevel"
     transform="matrix(3.125,0,0,3.125,539.46382,-195.9076)"
     font-family="Bravura"
     font-size="27px"
     font-weight="400"
     font-style="normal"
     id="g690"
     style="fill-rule:evenodd" />
  <g
     fill="#000000"
     fill-opacity="1"
     stroke="#000000"
     stroke-opacity="1"
     stroke-width="1"
     stroke-linecap="square"
     stroke-linejoin="bevel"
     transform="matrix(3.125,0,0,3.125,539.46382,-195.9076)"
     font-family="Bravura"
     font-size="27px"
     font-weight="400"
     font-style="normal"
     id="g696"
     style="fill-rule:evenodd" />
  <g
     fill="#000000"
     fill-opacity="1"
     stroke="#000000"
     stroke-opacity="1"
     stroke-width="1"
     stroke-linecap="square"
     stroke-linejoin="bevel"
     transform="matrix(3.125,0,0,3.125,698.50082,-227.1572)"
     font-family="Bravura"
     font-size="27px"
     font-weight="400"
     font-style="normal"
     id="g698"
     style="fill-rule:evenodd" />
  <g
     fill="#000000"
     fill-opacity="1"
     stroke="#000000"
     stroke-opacity="1"
     stroke-width="1"
     stroke-linecap="square"
     stroke-linejoin="bevel"
     transform="matrix(3.125,0,0,3.125,698.50082,-227.1572)"
     font-family="Bravura"
     font-size="27px"
     font-weight="400"
     font-style="normal"
     id="g704"
     style="fill-rule:evenodd" />
  <g
     fill="#000000"
     fill-opacity="1"
     stroke="#000000"
     stroke-opacity="1"
     stroke-width="1"
     stroke-linecap="square"
     stroke-linejoin="bevel"
     transform="matrix(3.125,0,0,3.125,676.42182,147.8424)"
     font-family="Bravura"
     font-size="27px"
     font-weight="400"
     font-style="normal"
     id="g706"
     style="fill-rule:evenodd" />
  <g
     fill="#000000"
     fill-opacity="1"
     stroke="#000000"
     stroke-opacity="1"
     stroke-width="1"
     stroke-linecap="square"
     stroke-linejoin="bevel"
     transform="matrix(3.125,0,0,3.125,676.42182,147.8424)"
     font-family="Bravura"
     font-size="27px"
     font-weight="400"
     font-style="normal"
     id="g712"
     style="fill-rule:evenodd" />
  <g
     fill="#000000"
     fill-opacity="1"
     stroke="#000000"
     stroke-opacity="1"
     stroke-width="1"
     stroke-linecap="square"
     stroke-linejoin="bevel"
     transform="matrix(3.125,0,0,3.125,636.11782,158.2594)"
     font-family="Bravura"
     font-size="27px"
     font-weight="400"
     font-style="normal"
     id="g714"
     style="fill-rule:evenodd" />
  <g
     fill="#000000"
     fill-opacity="1"
     stroke="#000000"
     stroke-opacity="1"
     stroke-width="1"
     stroke-linecap="square"
     stroke-linejoin="bevel"
     transform="matrix(3.125,0,0,3.125,636.11782,158.2594)"
     font-family="Bravura"
     font-size="27px"
     font-weight="400"
     font-style="normal"
     id="g720"
     style="fill-rule:evenodd" />
  <g
     fill="#000000"
     fill-opacity="1"
     stroke="#000000"
     stroke-opacity="1"
     stroke-width="1"
     stroke-linecap="square"
     stroke-linejoin="bevel"
     transform="matrix(3.125,0,0,3.125,556.72482,168.6764)"
     font-family="Bravura"
     font-size="27px"
     font-weight="400"
     font-style="normal"
     id="g722"
     style="fill-rule:evenodd" />
  <g
     fill="#000000"
     fill-opacity="1"
     stroke="#000000"
     stroke-opacity="1"
     stroke-width="1"
     stroke-linecap="square"
     stroke-linejoin="bevel"
     transform="matrix(3.125,0,0,3.125,556.72482,168.6764)"
     font-family="Bravura"
     font-size="27px"
     font-weight="400"
     font-style="normal"
     id="g728"
     style="fill-rule:evenodd" />
  <g
     fill="#000000"
     fill-opacity="1"
     stroke="#000000"
     stroke-opacity="1"
     stroke-width="1"
     stroke-linecap="square"
     stroke-linejoin="bevel"
     transform="matrix(3.125,0,0,3.125,516.03082,179.0924)"
     font-family="Bravura"
     font-size="27px"
     font-weight="400"
     font-style="normal"
     id="g730"
     style="fill-rule:evenodd" />
  <g
     fill="#000000"
     fill-opacity="1"
     stroke="#000000"
     stroke-opacity="1"
     stroke-width="1"
     stroke-linecap="square"
     stroke-linejoin="bevel"
     transform="matrix(3.125,0,0,3.125,516.03082,179.0924)"
     font-family="Bravura"
     font-size="27px"
     font-weight="400"
     font-style="normal"
     id="g736"
     style="fill-rule:evenodd" />
  <g
     fill="#000000"
     fill-opacity="1"
     stroke="#000000"
     stroke-opacity="1"
     stroke-width="1"
     stroke-linecap="square"
     stroke-linejoin="bevel"
     transform="matrix(3.125,0,0,3.125,25.144421,-185.4906)"
     font-family="Bravura"
     font-size="27px"
     font-weight="400"
     font-style="normal"
     id="g738"
     style="fill-rule:evenodd" />
  <g
     fill="#000000"
     fill-opacity="1"
     stroke="#000000"
     stroke-opacity="1"
     stroke-width="1"
     stroke-linecap="square"
     stroke-linejoin="bevel"
     transform="matrix(3.125,0,0,3.125,25.144421,-185.4906)"
     font-family="Bravura"
     font-size="27px"
     font-weight="400"
     font-style="normal"
     id="g744"
     style="fill-rule:evenodd" />
  <g
     fill="#000000"
     fill-opacity="1"
     stroke="#000000"
     stroke-opacity="1"
     stroke-width="1"
     stroke-linecap="square"
     stroke-linejoin="bevel"
     transform="matrix(3.125,0,0,3.125,25.144421,210.3424)"
     font-family="Bravura"
     font-size="27px"
     font-weight="400"
     font-style="normal"
     id="g746"
     style="fill-rule:evenodd" />
  <g
     fill="#000000"
     fill-opacity="1"
     stroke="#000000"
     stroke-opacity="1"
     stroke-width="1"
     stroke-linecap="square"
     stroke-linejoin="bevel"
     transform="matrix(3.125,0,0,3.125,25.144421,210.3424)"
     font-family="Bravura"
     font-size="27px"
     font-weight="400"
     font-style="normal"
     id="g752"
     style="fill-rule:evenodd" />
  <g
     fill="#000000"
     fill-opacity="1"
     stroke="#000000"
     stroke-opacity="1"
     stroke-width="1"
     stroke-linecap="square"
     stroke-linejoin="bevel"
     transform="matrix(3.125,0,0,3.125,94.935821,-247.9905)"
     font-family="Bravura"
     font-size="27px"
     font-weight="400"
     font-style="normal"
     id="g754"
     style="fill-rule:evenodd" />
  <g
     fill="#000000"
     fill-opacity="1"
     stroke="#000000"
     stroke-opacity="1"
     stroke-width="1"
     stroke-linecap="square"
     stroke-linejoin="bevel"
     transform="matrix(3.125,0,0,3.125,94.935821,-247.9905)"
     font-family="Bravura"
     font-size="27px"
     font-weight="400"
     font-style="normal"
     id="g760"
     style="fill-rule:evenodd" />
  <g
     fill="#000000"
     fill-opacity="1"
     stroke="#000000"
     stroke-opacity="1"
     stroke-width="1"
     stroke-linecap="square"
     stroke-linejoin="bevel"
     transform="matrix(3.125,0,0,3.125,94.935821,-247.9905)"
     font-family="Bravura"
     font-size="27px"
     font-weight="400"
     font-style="normal"
     id="g762"
     style="fill-rule:evenodd" />
  <g
     fill="#000000"
     fill-opacity="1"
     stroke="#000000"
     stroke-opacity="1"
     stroke-width="1"
     stroke-linecap="square"
     stroke-linejoin="bevel"
     transform="matrix(3.125,0,0,3.125,94.935821,-247.9905)"
     font-family="Bravura"
     font-size="27px"
     font-weight="400"
     font-style="normal"
     id="g768"
     style="fill-rule:evenodd" />
  <g
     fill="#000000"
     fill-opacity="1"
     stroke="#000000"
     stroke-opacity="1"
     stroke-width="1"
     stroke-linecap="square"
     stroke-linejoin="bevel"
     transform="matrix(3.125,0,0,3.125,94.935821,147.8424)"
     font-family="Bravura"
     font-size="27px"
     font-weight="400"
     font-style="normal"
     id="g770"
     style="fill-rule:evenodd" />
  <g
     fill="#000000"
     fill-opacity="1"
     stroke="#000000"
     stroke-opacity="1"
     stroke-width="1"
     stroke-linecap="square"
     stroke-linejoin="bevel"
     transform="matrix(3.125,0,0,3.125,94.935821,147.8424)"
     font-family="Bravura"
     font-size="27px"
     font-weight="400"
     font-style="normal"
     id="g776"
     style="fill-rule:evenodd" />
  <g
     fill="#000000"
     fill-opacity="1"
     stroke="#000000"
     stroke-opacity="1"
     stroke-width="1"
     stroke-linecap="square"
     stroke-linejoin="bevel"
     transform="matrix(3.125,0,0,3.125,496.03082,-195.9076)"
     font-family="Bravura"
     font-size="27px"
     font-weight="400"
     font-style="normal"
     id="g794"
     style="fill-rule:evenodd" />
  <g
     fill="#000000"
     fill-opacity="1"
     stroke="#000000"
     stroke-opacity="1"
     stroke-width="1"
     stroke-linecap="square"
     stroke-linejoin="bevel"
     transform="matrix(3.125,0,0,3.125,496.03082,-195.9076)"
     font-family="Bravura"
     font-size="27px"
     font-weight="400"
     font-style="normal"
     id="g800"
     style="fill-rule:evenodd" />
  <g
     fill="#000000"
     fill-opacity="1"
     stroke="#000000"
     stroke-opacity="1"
     stroke-width="1"
     stroke-linecap="square"
     stroke-linejoin="bevel"
     transform="matrix(3.125,0,0,3.125,471.92882,179.0924)"
     font-family="Bravura"
     font-size="27px"
     font-weight="400"
     font-style="normal"
     id="g802"
     style="fill-rule:evenodd" />
  <g
     fill="#000000"
     fill-opacity="1"
     stroke="#000000"
     stroke-opacity="1"
     stroke-width="1"
     stroke-linecap="square"
     stroke-linejoin="bevel"
     transform="matrix(3.125,0,0,3.125,471.92882,179.0924)"
     font-family="Bravura"
     font-size="27px"
     font-weight="400"
     font-style="normal"
     id="g808"
     style="fill-rule:evenodd" />
  <g
     fill="#000000"
     fill-opacity="1"
     stroke="#000000"
     stroke-opacity="1"
     stroke-width="1"
     stroke-linecap="square"
     stroke-linejoin="bevel"
     transform="matrix(3.125,0,0,3.125,615.10682,-216.7406)"
     font-family="Bravura"
     font-size="27px"
     font-weight="400"
     font-style="normal"
     id="g810"
     style="fill-rule:evenodd" />
  <g
     fill="#000000"
     fill-opacity="1"
     stroke="#000000"
     stroke-opacity="1"
     stroke-width="1"
     stroke-linecap="square"
     stroke-linejoin="bevel"
     transform="matrix(3.125,0,0,3.125,615.10682,-216.7406)"
     font-family="Bravura"
     font-size="27px"
     font-weight="400"
     font-style="normal"
     id="g816"
     style="fill-rule:evenodd" />
  <g
     fill="#000000"
     fill-opacity="1"
     stroke="#000000"
     stroke-opacity="1"
     stroke-width="1"
     stroke-linecap="square"
     stroke-linejoin="bevel"
     transform="matrix(3.125,0,0,3.125,592.01682,158.2594)"
     font-family="Bravura"
     font-size="27px"
     font-weight="400"
     font-style="normal"
     id="g818"
     style="fill-rule:evenodd" />
  <path
     vector-effect="none"
     fill-rule="evenodd"
     d="M 167.66008,139.50906 C 198.08039,112.43428 253.32539,117.64252 278.14977,149.92573 C 253.01258,120.96115 197.76758,115.75271 167.66008,139.50906"
     id="path442"
     style="font-style:normal;font-weight:400;font-size:45.8333px;font-family:Cantarell;fill:#000000;fill-opacity:1;stroke:#000000;stroke-width:1.45833;stroke-linecap:round;stroke-linejoin:round;stroke-opacity:1" />
  <path
     vector-effect="none"
     fill-rule="evenodd"
     d="M 450.63602,170.75906 C 494.21727,122.79559 593.95789,107.17052 650.11727,139.50906 C 594.47352,110.46365 494.73289,126.08874 450.63602,170.75906"
     id="path446"
     style="font-style:normal;font-weight:400;font-size:45.8333px;font-family:Cantarell;fill:#000000;fill-opacity:1;stroke:#000000;stroke-width:1.45833;stroke-linecap:round;stroke-linejoin:round;stroke-opacity:1" />
  <polyline
     fill="none"
     vector-effect="none"
     points="0,0 126.011,0 "
     id="polyline474"
     style="font-style:normal;font-weight:400;font-size:45.8333px;font-family:Cantarell;fill-opacity:1;fill-rule:evenodd;stroke:#000000;stroke-width:0.533333;stroke-linecap:butt;stroke-linejoin:bevel;stroke-opacity:1"
     transform="matrix(3.125,0,0,3.125,11.811021,147.8424)" />
  <polyline
     fill="none"
     vector-effect="none"
     points="0,6.66667 126.011,6.66667 "
     id="polyline476"
     style="font-style:normal;font-weight:400;font-size:45.8333px;font-family:Cantarell;fill-opacity:1;fill-rule:evenodd;stroke:#000000;stroke-width:0.533333;stroke-linecap:butt;stroke-linejoin:bevel;stroke-opacity:1"
     transform="matrix(3.125,0,0,3.125,11.811021,147.8424)" />
  <polyline
     fill="none"
     vector-effect="none"
     points="0,13.3333 126.011,13.3333 "
     id="polyline478"
     style="font-style:normal;font-weight:400;font-size:45.8333px;font-family:Cantarell;fill-opacity:1;fill-rule:evenodd;stroke:#000000;stroke-width:0.533333;stroke-linecap:butt;stroke-linejoin:bevel;stroke-opacity:1"
     transform="matrix(3.125,0,0,3.125,11.811021,147.8424)" />
  <polyline
     fill="none"
     vector-effect="none"
     points="0,20 126.011,20 "
     id="polyline480"
     style="font-style:normal;font-weight:400;font-size:45.8333px;font-family:Cantarell;fill-opacity:1;fill-rule:evenodd;stroke:#000000;stroke-width:0.533333;stroke-linecap:butt;stroke-linejoin:bevel;stroke-opacity:1"
     transform="matrix(3.125,0,0,3.125,11.811021,147.8424)" />
  <polyline
     fill="none"
     vector-effect="none"
     points="0,26.6667 126.011,26.6667 "
     id="polyline482"
     style="font-style:normal;font-weight:400;font-size:45.8333px;font-family:Cantarell;fill-opacity:1;fill-rule:evenodd;stroke:#000000;stroke-width:0.533333;stroke-linecap:butt;stroke-linejoin:bevel;stroke-opacity:1"
     transform="matrix(3.125,0,0,3.125,11.811021,147.8424)" />
  <polyline
     fill="none"
     vector-effect="none"
     points="0,0 124.318,0 "
     id="polyline486"
     style="font-style:normal;font-weight:400;font-size:45.8333px;font-family:Cantarell;fill-opacity:1;fill-rule:evenodd;stroke:#000000;stroke-width:0.533333;stroke-linecap:butt;stroke-linejoin:bevel;stroke-opacity:1"
     transform="matrix(3.125,0,0,3.125,405.59582,147.8424)" />
  <polyline
     fill="none"
     vector-effect="none"
     points="0,6.66667 124.318,6.66667 "
     id="polyline488"
     style="font-style:normal;font-weight:400;font-size:45.8333px;font-family:Cantarell;fill-opacity:1;fill-rule:evenodd;stroke:#000000;stroke-width:0.533333;stroke-linecap:butt;stroke-linejoin:bevel;stroke-opacity:1"
     transform="matrix(3.125,0,0,3.125,405.59582,147.8424)" />
  <polyline
     fill="none"
     vector-effect="none"
     points="0,13.3333 124.318,13.3333 "
     id="polyline490"
     style="font-style:normal;font-weight:400;font-size:45.8333px;font-family:Cantarell;fill-opacity:1;fill-rule:evenodd;stroke:#000000;stroke-width:0.533333;stroke-linecap:butt;stroke-linejoin:bevel;stroke-opacity:1"
     transform="matrix(3.125,0,0,3.125,405.59582,147.8424)" />
  <polyline
     fill="none"
     vector-effect="none"
     points="0,20 124.318,20 "
     id="polyline492"
     style="font-style:normal;font-weight:400;font-size:45.8333px;font-family:Cantarell;fill-opacity:1;fill-rule:evenodd;stroke:#000000;stroke-width:0.533333;stroke-linecap:butt;stroke-linejoin:bevel;stroke-opacity:1"
     transform="matrix(3.125,0,0,3.125,405.59582,147.8424)" />
  <polyline
     fill="none"
     vector-effect="none"
     points="0,26.6667 124.318,26.6667 "
     id="polyline494"
     style="font-style:normal;font-weight:400;font-size:45.8333px;font-family:Cantarell;fill-opacity:1;fill-rule:evenodd;stroke:#000000;stroke-width:0.533333;stroke-linecap:butt;stroke-linejoin:bevel;stroke-opacity:1"
     transform="matrix(3.125,0,0,3.125,405.59582,147.8424)" />
  <polyline
     fill="none"
     vector-effect="none"
     points="0.533333,0 0.533333,26.6667 "
     id="polyline526"
     style="font-style:normal;font-weight:400;font-size:45.8333px;font-family:Cantarell;fill-opacity:1;fill-rule:evenodd;stroke:#000000;stroke-width:1.06667;stroke-linecap:butt;stroke-linejoin:bevel;stroke-opacity:1"
     transform="matrix(3.125,0,0,3.125,402.26282,147.8424)" />
  <path
     vector-effect="none"
     fill-rule="nonzero"
     d="M 429.56357,173.83559 L 428.34288,174.22621 C 428.14757,174.22621 428.04991,174.32384 428.00107,174.32384 C 428.00107,174.32384 422.58116,176.27696 420.38388,176.27696 C 419.89563,176.27696 419.55382,176.17934 419.55382,175.83752 C 419.55382,174.42152 419.55382,161.77502 419.55382,161.77502 C 419.55382,161.18909 419.06554,160.74965 418.52843,160.74965 H 417.45421 C 416.86827,160.74965 416.42882,161.18909 416.42882,161.77502 V 205.18321 C 416.42882,205.72034 416.67296,205.96446 417.11241,205.96446 C 417.21007,205.96446 417.35655,205.86684 417.45421,205.86684 C 417.45421,205.86684 417.60069,205.86684 417.69835,205.76915 C 418.87023,205.2809 423.60657,203.27893 426.04794,203.27893 C 426.87804,203.27893 427.46398,203.52309 427.46398,204.20665 C 427.46398,205.96446 427.46398,216.75549 427.46398,216.75549 C 427.46398,217.34143 427.90344,217.7809 428.48938,217.7809 H 429.56357 C 430.10069,217.7809 430.58898,217.34143 430.58898,216.75549 V 174.42152 C 430.58898,173.98206 430.24719,173.7379 429.90538,173.7379 C 429.85657,173.7379 429.66126,173.7379 429.56357,173.83559 M 419.55382,186.2379 C 419.55382,185.01721 424.68076,182.86877 426.73157,182.86877 C 427.21982,182.86877 427.46398,182.91759 427.46398,183.2594 V 191.95081 C 427.46398,193.46446 422.67882,195.41759 420.57919,195.41759 C 419.99326,195.41759 419.55382,195.22228 419.55382,194.92934 V 186.2379"
     id="path540"
     style="font-style:normal;font-weight:400;font-size:27px;font-family:Bravura;fill:#000000;fill-opacity:1;stroke:none;stroke-width:3.125;stroke-linecap:square;stroke-linejoin:bevel" />
  <polyline
     fill="none"
     vector-effect="none"
     points="0,1.024 0,23.3333 "
     id="polyline562"
     style="font-style:normal;font-weight:400;font-size:27px;font-family:Bravura;fill-opacity:1;fill-rule:evenodd;stroke:#000000;stroke-width:0.866667;stroke-linecap:round;stroke-linejoin:bevel;stroke-opacity:1"
     transform="matrix(3.125,0,0,3.125,154.62382,158.2594)" />
  <polyline
     fill="none"
     vector-effect="none"
     points="0,0.981333 0,21.6667 "
     id="polyline566"
     style="font-style:normal;font-weight:400;font-size:27px;font-family:Bravura;fill-opacity:1;fill-rule:evenodd;stroke:#000000;stroke-width:0.866667;stroke-linecap:round;stroke-linejoin:bevel;stroke-opacity:1"
     transform="matrix(3.125,0,0,3.125,334.56082,179.0924)" />
  <polyline
     fill="none"
     vector-effect="none"
     points="0,0.981333 0,22.5 "
     id="polyline570"
     style="font-style:normal;font-weight:400;font-size:27px;font-family:Bravura;fill-opacity:1;fill-rule:evenodd;stroke:#000000;stroke-width:0.866667;stroke-linecap:round;stroke-linejoin:bevel;stroke-opacity:1"
     transform="matrix(3.125,0,0,3.125,265.50382,168.6764)" />
  <polyline
     fill="none"
     vector-effect="none"
     points="0,0.981333 0,20 "
     id="polyline574"
     style="font-style:normal;font-weight:400;font-size:27px;font-family:Bravura;fill-opacity:1;fill-rule:evenodd;stroke:#000000;stroke-width:0.866667;stroke-linecap:round;stroke-linejoin:bevel;stroke-opacity:1"
     transform="matrix(3.125,0,0,3.125,437.99182,189.5094)" />
  <polyline
     fill="none"
     vector-effect="none"
     points="0,0.981333 0,23.3333 "
     id="polyline594"
     style="font-style:normal;font-weight:400;font-size:27px;font-family:Bravura;fill-opacity:1;fill-rule:evenodd;stroke:#000000;stroke-width:0.866667;stroke-linecap:round;stroke-linejoin:bevel;stroke-opacity:1"
     transform="matrix(3.125,0,0,3.125,637.47182,158.2594)" />
  <polyline
     fill="none"
     vector-effect="none"
     points="0,0.981333 0,22.6533 "
     id="polyline598"
     style="font-style:normal;font-weight:400;font-size:27px;font-family:Bravura;fill-opacity:1;fill-rule:evenodd;stroke:#000000;stroke-width:0.866667;stroke-linecap:round;stroke-linejoin:bevel;stroke-opacity:1"
     transform="matrix(3.125,0,0,3.125,558.07882,168.6764)" />
  <polyline
     fill="none"
     vector-effect="none"
     points="0,0.981333 0,20.68 "
     id="polyline602"
     style="font-style:normal;font-weight:400;font-size:27px;font-family:Bravura;fill-opacity:1;fill-rule:evenodd;stroke:#000000;stroke-width:0.866667;stroke-linecap:round;stroke-linejoin:bevel;stroke-opacity:1"
     transform="matrix(3.125,0,0,3.125,517.38482,179.0924)" />
  <polyline
     fill="none"
     vector-effect="none"
     points="0,1.024 0,23.3333 "
     id="polyline606"
     style="font-style:normal;font-weight:400;font-size:27px;font-family:Bravura;fill-opacity:1;fill-rule:evenodd;stroke:#000000;stroke-width:0.866667;stroke-linecap:round;stroke-linejoin:bevel;stroke-opacity:1"
     transform="matrix(3.125,0,0,3.125,677.77582,147.8424)" />
  <path
     vector-effect="none"
     fill-rule="nonzero"
     d="M 162.69363,170.46643 C 178.80694,170.46643 182.02957,157.42932 182.02957,154.20665 C 182.02957,149.22621 178.07451,146.05237 172.41044,146.05237 C 157.81082,146.05237 153.26982,157.33167 153.26982,162.40977 C 153.26982,167.53674 157.42019,170.46643 162.69363,170.46643 M 170.16435,162.75159 C 165.76982,165.68127 162.69363,166.70665 160.59404,166.70665 C 158.59207,166.70665 157.42019,165.68127 156.73663,164.5094 C 156.39482,163.92346 156.15068,163.23987 156.15068,162.55627 C 156.15068,160.45667 158.25029,157.77112 164.98857,153.86487 C 169.82257,151.08165 172.84988,150.05627 174.85185,150.05627 C 176.70732,150.05627 177.73269,150.93518 178.41632,152.10706 C 178.7581,152.69299 179.00226,153.27893 179.00226,153.96252 C 179.00226,155.91565 176.95144,158.2594 170.16435,162.75159"
     id="path644"
     style="font-style:normal;font-weight:400;font-size:27px;font-family:Bravura;fill:#000000;fill-opacity:1;stroke:none;stroke-width:3.125;stroke-linecap:square;stroke-linejoin:bevel" />
  <path
     vector-effect="none"
     fill-rule="nonzero"
     d="M 342.38551,191.00646 C 350.83276,191.00646 361.23316,183.14515 361.23316,175.13734 C 361.23316,170.30334 357.42457,167.17834 351.95582,167.17834 C 341.55544,167.17834 333.20582,174.89318 333.20582,183.04746 C 333.20582,188.02796 337.25857,191.00646 342.38551,191.00646"
     id="path652"
     style="font-style:normal;font-weight:400;font-size:27px;font-family:Bravura;fill:#000000;fill-opacity:1;stroke:none;stroke-width:3.125;stroke-linecap:square;stroke-linejoin:bevel" />
  <path
     vector-effect="none"
     fill-rule="nonzero"
     d="M 273.32951,180.59046 C 281.77676,180.59046 292.17716,172.72915 292.17716,164.72134 C 292.17716,159.88734 288.36857,156.76234 282.89982,156.76234 C 272.49945,156.76234 264.14982,164.47718 264.14982,172.63146 C 264.14982,177.61196 268.20257,180.59046 273.32951,180.59046"
     id="path660"
     style="font-style:normal;font-weight:400;font-size:27px;font-family:Bravura;fill:#000000;fill-opacity:1;stroke:none;stroke-width:3.125;stroke-linecap:square;stroke-linejoin:bevel" />
  <path
     vector-effect="none"
     fill-rule="nonzero"
     d="M 445.81751,201.42346 C 454.26476,201.42346 464.66516,193.56215 464.66516,185.55434 C 464.66516,180.72034 460.85657,177.59534 455.38782,177.59534 C 444.98745,177.59534 436.63782,185.31018 436.63782,193.46446 C 436.63782,198.44496 440.69057,201.42346 445.81751,201.42346"
     id="path668"
     style="font-style:normal;font-weight:400;font-size:27px;font-family:Bravura;fill:#000000;fill-opacity:1;stroke:none;stroke-width:3.125;stroke-linecap:square;stroke-linejoin:bevel" />
  <path
     vector-effect="none"
     fill-rule="nonzero"
     d="M 685.84563,160.04943 C 701.95894,160.04943 705.18157,147.01232 705.18157,143.78965 C 705.18157,138.80921 701.22651,135.63537 695.56244,135.63537 C 680.96282,135.63537 676.42182,146.91467 676.42182,151.99277 C 676.42182,157.11974 680.5722,160.04943 685.84563,160.04943 M 693.31635,152.33459 C 688.92182,155.26427 685.84563,156.28965 683.74604,156.28965 C 681.74407,156.28965 680.5722,155.26427 679.88863,154.0924 C 679.54682,153.50646 679.30268,152.82287 679.30268,152.13927 C 679.30268,150.03967 681.40229,147.35412 688.14057,143.44787 C 692.97457,140.66465 696.00188,139.63927 698.00385,139.63927 C 699.85932,139.63927 700.8847,140.51818 701.56832,141.69006 C 701.9101,142.27599 702.15426,142.86193 702.15426,143.54552 C 702.15426,145.49865 700.10345,147.8424 693.31635,152.33459"
     id="path708"
     style="font-style:normal;font-weight:400;font-size:27px;font-family:Bravura;fill:#000000;fill-opacity:1;stroke:none;stroke-width:3.125;stroke-linecap:square;stroke-linejoin:bevel" />
  <path
     vector-effect="none"
     fill-rule="nonzero"
     d="M 645.29751,170.17346 C 653.74476,170.17346 664.14516,162.31215 664.14516,154.30434 C 664.14516,149.47034 660.33657,146.34534 654.86782,146.34534 C 644.46744,146.34534 636.11782,154.06018 636.11782,162.21446 C 636.11782,167.19496 640.17057,170.17346 645.29751,170.17346"
     id="path716"
     style="font-style:normal;font-weight:400;font-size:27px;font-family:Bravura;fill:#000000;fill-opacity:1;stroke:none;stroke-width:3.125;stroke-linecap:square;stroke-linejoin:bevel" />
  <path
     vector-effect="none"
     fill-rule="nonzero"
     d="M 565.90451,180.59046 C 574.35176,180.59046 584.75216,172.72915 584.75216,164.72134 C 584.75216,159.88734 580.94357,156.76234 575.47482,156.76234 C 565.07444,156.76234 556.72482,164.47718 556.72482,172.63146 C 556.72482,177.61196 560.77757,180.59046 565.90451,180.59046"
     id="path724"
     style="font-style:normal;font-weight:400;font-size:27px;font-family:Bravura;fill:#000000;fill-opacity:1;stroke:none;stroke-width:3.125;stroke-linecap:square;stroke-linejoin:bevel" />
  <path
     vector-effect="none"
     fill-rule="nonzero"
     d="M 525.21051,191.00646 C 533.65776,191.00646 544.05816,183.14515 544.05816,175.13734 C 544.05816,170.30334 540.24957,167.17834 534.78082,167.17834 C 524.38044,167.17834 516.03082,174.89318 516.03082,183.04746 C 516.03082,188.02796 520.08357,191.00646 525.21051,191.00646"
     id="path732"
     style="font-style:normal;font-weight:400;font-size:27px;font-family:Bravura;fill:#000000;fill-opacity:1;stroke:none;stroke-width:3.125;stroke-linecap:square;stroke-linejoin:bevel" />
  <path
     vector-effect="none"
     fill-rule="nonzero"
     d="M 82.273171,208.24279 C 81.589731,197.35412 72.458801,188.80921 61.667861,188.80921 H 60.740046 C 60.398171,188.80921 59.958796,188.80921 59.665984,189.00452 C 58.738171,183.53578 57.810359,179.14121 56.931609,174.60021 C 68.259731,164.10209 73.972551,153.06709 73.972551,141.5924 C 73.972551,136.27021 72.703171,130.89896 70.359421,125.38146 C 67.087861,117.91084 64.011611,117.37365 64.011611,117.37365 C 55.954984,120.93803 50.388546,133.6824 50.388546,148.91678 C 50.388546,151.6999 50.535046,154.58053 50.974483,157.55928 L 51.951046,162.83271 C 39.548734,173.47709 25.632702,185.87953 25.632702,202.13928 C 25.632702,203.01818 25.632702,203.84827 25.730359,204.67834 C 27.341687,225.08849 43.259671,231.58265 57.126921,231.58265 C 59.031296,231.58265 60.984421,231.53381 62.839731,231.24084 C 62.839731,231.24084 63.083801,231.24084 63.279111,231.24084 L 65.232231,243.0574 C 65.525361,245.15678 65.720671,247.1099 65.720671,248.81896 C 65.720671,262.53959 55.417859,262.7349 54.392484,262.7349 H 52.829984 C 49.949109,262.7349 47.605359,262.29553 45.798734,261.02615 C 45.310421,260.68428 45.066296,260.3424 45.066296,260.09834 C 45.066296,259.75646 45.408109,259.6099 45.798734,259.41459 C 46.579984,259.26803 47.165921,259.26803 47.898327,258.92646 C 51.365108,257.85209 53.806546,254.77615 53.806546,251.01615 V 250.43021 C 53.415921,246.03584 49.753796,242.37365 45.212796,242.37365 H 44.626859 C 40.769421,242.66678 37.449109,245.69396 36.960827,249.5024 C 36.863171,249.5024 36.619046,250.72334 36.619046,252.5299 C 36.619046,257.16865 38.71864,265.8599 52.634671,265.8599 C 53.220609,265.8599 53.904171,265.7624 54.587796,265.7624 C 60.593796,265.42053 69.529111,261.70959 69.529111,248.47709 C 69.529111,246.71928 69.333801,244.76615 68.991921,242.66678 C 68.991921,242.66678 68.015671,237.68615 66.892551,230.06896 C 76.365051,226.55334 82.273171,218.83849 82.273171,209.41467 V 208.24279 M 64.597551,130.80146 C 67.380671,130.80146 70.212861,132.99865 70.212861,137.53959 C 70.212861,138.12553 70.115051,138.71146 70.017551,139.39521 C 68.991921,146.42646 63.767551,153.55521 54.734265,160.39115 C 54.392484,158.38928 54.099483,156.77803 54.099483,156.28959 C 53.904171,155.36178 53.904171,154.33646 53.904171,153.21365 C 53.904171,144.57084 57.956921,131.14303 64.597551,130.80146 M 32.419796,208.97521 C 32.419796,194.91271 43.113171,184.60996 54.148327,176.45553 L 56.247921,189.59046 C 48.679577,191.88537 42.673734,199.06309 42.673734,206.63146 C 42.673734,207.90099 42.869046,209.17053 43.210827,210.3424 C 44.529171,216.05528 48.337796,220.30334 52.292859,221.57287 C 53.074109,221.81702 53.660046,221.91465 54.099483,221.91465 C 54.734265,221.91465 55.076046,221.57287 55.076046,221.23109 C 55.076046,220.69396 54.490108,220.05921 53.806546,219.7174 C 52.146358,218.93615 48.337796,214.83459 48.191296,211.36779 V 210.48888 C 48.191296,204.62952 52.536983,201.84631 58.103484,200.91859 L 62.693171,227.87171 C 61.423801,228.31115 59.470671,228.55528 57.126921,228.55528 C 47.898327,228.55528 32.908109,224.4049 32.419796,209.65881 V 208.97521 M 66.306611,226.94396 C 64.939421,219.27796 63.279111,210.09826 61.521301,200.57678 H 61.814421 C 68.943171,200.57678 74.997861,206.19202 75.339731,213.27209 V 214.19984 C 75.339731,220.10803 72.214731,224.4049 66.306611,226.94396"
     id="path748"
     style="font-style:normal;font-weight:400;font-size:27px;font-family:Bravura;fill:#000000;fill-opacity:1;stroke:none;stroke-width:3.125;stroke-linecap:square;stroke-linejoin:bevel" />
  <path
     vector-effect="none"
     fill-rule="nonzero"
     d="M 95.961211,203.86487 C 96.205351,204.20665 96.449491,204.25549 96.693631,204.25549 C 96.937771,204.25549 97.230741,204.10902 97.230741,204.10902 C 99.720981,202.64415 101.77176,200.39809 103.87138,198.93321 C 111.39088,193.70862 113.97879,188.58167 113.97879,184.72424 C 113.97879,179.89027 110.26785,176.8629 106.41045,176.61877 C 105.82451,176.61877 105.23857,176.66759 104.65263,176.8629 C 103.72488,177.10706 102.69951,177.44884 101.77176,178.03477 C 101.28348,178.47424 100.64869,179.20665 99.916291,179.20665 C 99.720981,179.20665 99.672131,179.20665 99.476821,179.15784 C 98.890881,178.86487 98.549101,178.27893 98.549101,177.69299 C 98.646761,175.83752 99.135041,155.62252 99.135041,153.91377 C 99.135041,152.98596 98.402631,152.49752 97.572541,152.49752 C 96.351841,152.49752 95.033481,153.32784 94.935821,154.84127 C 94.935821,154.84127 95.277621,202.98596 95.961211,203.86487 M 98.890881,196.34534 C 98.890881,196.34534 98.646761,191.26721 98.646761,187.89807 C 98.646761,186.57971 98.744411,185.55434 98.793261,185.21252 C 99.135041,184.18715 101.33232,182.33165 102.5042,181.64809 C 103.28545,181.25746 104.0667,181.06215 104.70145,181.06215 C 105.58035,181.06215 106.31276,181.40393 106.84988,181.98987 C 107.67994,182.91759 108.16826,184.38246 108.16826,185.94496 C 108.16826,187.50745 107.77763,189.26526 106.75223,191.02307 C 105.6292,193.07384 103.18776,195.7594 100.64869,197.37071 C 100.35576,197.51721 100.06276,197.61487 99.818631,197.61487 C 99.086191,197.61487 98.890881,196.78478 98.890881,196.34534"
     id="path772"
     style="font-style:normal;font-weight:400;font-size:27px;font-family:Bravura;fill:#000000;fill-opacity:1;stroke:none;stroke-width:3.125;stroke-linecap:square;stroke-linejoin:bevel" />
  <path
     vector-effect="none"
     fill-rule="evenodd"
     d="M 436.63602,246.80084 L 638.82664,225.68459 V 236.10115 L 436.63602,257.2174 V 246.80084"
     id="path786"
     style="font-style:normal;font-weight:400;font-size:27px;font-family:Bravura;fill:#000000;fill-opacity:1;stroke:none;stroke-width:3.125;stroke-linecap:square;stroke-linejoin:bevel" />
  <path
     vector-effect="none"
     fill-rule="evenodd"
     d="M 518.73914,222.60115 L 491.23914,225.47334 V 235.8899 L 518.73914,233.01803 V 222.60115"
     id="path788"
     style="font-style:normal;font-weight:400;font-size:27px;font-family:Bravura;fill:#000000;fill-opacity:1;stroke:none;stroke-width:3.125;stroke-linecap:square;stroke-linejoin:bevel" />
  <path
     vector-effect="none"
     fill-rule="evenodd"
     d="M 638.82664,210.05959 L 611.32664,212.93146 V 223.34834 L 638.82664,220.47615 V 210.05959"
     id="path790"
     style="font-style:normal;font-weight:400;font-size:27px;font-family:Bravura;fill:#000000;fill-opacity:1;stroke:none;stroke-width:3.125;stroke-linecap:square;stroke-linejoin:bevel" />
  <path
     vector-effect="none"
     fill-rule="nonzero"
     d="M 471.92882,179.0924 C 471.92882,182.31506 474.71202,185.09827 477.93469,185.09827 C 481.20616,185.09827 483.98938,182.31506 483.98938,179.0924 C 483.98938,175.8209 481.20616,173.03771 477.93469,173.03771 C 474.71202,173.03771 471.92882,175.8209 471.92882,179.0924"
     id="path804"
     style="font-style:normal;font-weight:400;font-size:27px;font-family:Bravura;fill:#000000;fill-opacity:1;stroke:none;stroke-width:3.125;stroke-linecap:square;stroke-linejoin:bevel" />
  <path
     vector-effect="none"
     fill-rule="nonzero"
     d="M 592.01682,158.2594 C 592.01682,161.48206 594.80002,164.26527 598.02269,164.26527 C 601.29416,164.26527 604.07738,161.48206 604.07738,158.2594 C 604.07738,154.9879 601.29416,152.20471 598.02269,152.20471 C 594.80002,152.20471 592.01682,154.9879 592.01682,158.2594"
     id="path820"
     style="font-style:normal;font-weight:400;font-size:27px;font-family:Bravura;fill:#000000;fill-opacity:1;stroke:none;stroke-width:3.125;stroke-linecap:square;stroke-linejoin:bevel" />
  <g
     fill="#000000"
     fill-opacity="1"
     stroke="#000000"
     stroke-opacity="1"
     stroke-width="1"
     stroke-linecap="square"
     stroke-linejoin="bevel"
     transform="matrix(3.125,0,0,3.125,592.01682,158.2594)"
     font-family="Bravura"
     font-size="27px"
     font-weight="400"
     font-style="normal"
     id="g824"
     style="fill-rule:evenodd" />
  <g
     fill="none"
     stroke="#000000"
     stroke-opacity="1"
     stroke-width="1"
     stroke-linecap="square"
     stroke-linejoin="bevel"
     transform="matrix(3.125,0,0,3.125,-106.29918,2802.2784)"
     font-family="Cantarell"
     font-size="15px"
     font-weight="400"
     font-style="normal"
     id="g826"
     style="fill-rule:evenodd" />
  <g
     fill="none"
     stroke="#000000"
     stroke-opacity="1"
     stroke-width="1"
     stroke-linecap="square"
     stroke-linejoin="bevel"
     transform="matrix(3.125,0,0,3.125,-106.29918,2802.2784)"
     font-family="Cantarell"
     font-size="15px"
     font-weight="400"
     font-style="normal"
     id="g832"
     style="fill-rule:evenodd" />
  <g
     fill="none"
     stroke="#000000"
     stroke-opacity="1"
     stroke-width="1"
     stroke-linecap="square"
     stroke-linejoin="bevel"
     transform="matrix(3.125,0,0,3.125,-106.29918,2802.2784)"
     font-family="Cantarell"
     font-size="15px"
     font-weight="400"
     font-style="normal"
     id="g834"
     style="fill-rule:evenodd" />
  <g
     fill="none"
     stroke="#000000"
     stroke-opacity="1"
     stroke-width="1"
     stroke-linecap="square"
     stroke-linejoin="bevel"
     transform="matrix(3.125,0,0,3.125,-106.29918,2802.2784)"
     font-family="Cantarell"
     font-size="15px"
     font-weight="400"
     font-style="normal"
     id="g840"
     style="fill-rule:evenodd" />
  <metadata
     id="metadata1332">
    <rdf:RDF>
      <cc:Work
         rdf:about="">
        <dc:title>Qt Svg Document</dc:title>
      </cc:Work>
    </rdf:RDF>
  </metadata>
  <text
     xml:space="preserve"
     style="font-style:normal;font-weight:400;font-size:100px;line-height:1.25;font-family:'Libertinus Sans';-inkscape-font-specification:'Libertinus Sans';letter-spacing:0px;word-spacing:0px;fill:#00aa00;fill-rule:evenodd;stroke:#000000;stroke-width:1.66667;stroke-linecap:butt;stroke-linejoin:bevel;stroke-opacity:1"
     x="423.3251"
     y="83.249825"
     id="text3528"><tspan
       sodipodi:role="line"
       id="tspan3526"
       x="423.3251"
       y="83.249825"
       style="fill:#00aa00;stroke-width:1.66667">✓</tspan></text>
</svg>
