<?xml version="1.0" encoding="UTF-8" standalone="no"?>
<svg
   width="1622.0404"
   height="283.60947"
   viewBox="0 0 1622.0404 283.60947"
   version="1.2"
   id="svg198"
   sodipodi:docname="Elgar_2._Sinfonie_Anfang_Klar._in_B.svg"
   inkscape:version="1.1-dev (0486c1a, 2020-10-10)"
   xmlns:inkscape="http://www.inkscape.org/namespaces/inkscape"
   xmlns:sodipodi="http://sodipodi.sourceforge.net/DTD/sodipodi-0.dtd"
   xmlns="http://www.w3.org/2000/svg"
   xmlns:svg="http://www.w3.org/2000/svg"
   xmlns:rdf="http://www.w3.org/1999/02/22-rdf-syntax-ns#"
   xmlns:cc="http://creativecommons.org/ns#"
   xmlns:dc="http://purl.org/dc/elements/1.1/">
  <defs
     id="defs202" />
  <sodipodi:namedview
     pagecolor="#ffffff"
     bordercolor="#666666"
     borderopacity="1"
     objecttolerance="10"
     gridtolerance="10"
     guidetolerance="10"
     inkscape:pageopacity="0"
     inkscape:pageshadow="2"
     inkscape:window-width="1043"
     inkscape:window-height="480"
     id="namedview200"
     showgrid="false"
     inkscape:zoom="0.32168495"
     inkscape:cx="71.498527"
     inkscape:cy="115.01937"
     inkscape:window-x="0"
     inkscape:window-y="23"
     inkscape:window-maximized="0"
     inkscape:current-layer="svg198"
     fit-margin-top="20"
     fit-margin-left="0"
     fit-margin-right="0"
     fit-margin-bottom="0" />
  <title
     id="title8">Unbenannt</title>
  <desc
     id="desc10">Generated by MuseScore 3.5.2</desc>
  <circle
     style="fill:#00ff00;fill-opacity:1;stroke:none;stroke-width:1.9;stroke-linecap:round;stroke-linejoin:round"
     id="circle1609"
     cx="1023.8881"
     cy="123.1637"
     r="56.692913" />
  <path
     class=""
     stroke="#000000"
     stroke-width="2.5"
     stroke-linecap="round"
     stroke-linejoin="round"
     fill-rule="evenodd"
     d="M 1470.1307,95.630154 C 1493.5907,73.717454 1532.4607,79.967454 1547.8607,108.13015 C 1531.5007,85.891354 1492.6407,79.641354 1470.1307,95.630154"
     id="path1570" />
  <path
     class=""
     stroke="#000000"
     stroke-width="2.5"
     stroke-linecap="round"
     stroke-linejoin="round"
     fill-rule="evenodd"
     d="M 1043.8007,108.13015 C 1054.3607,86.061354 1083.5707,79.811354 1102.2407,95.630154 C 1084.8307,85.678654 1055.6107,91.928154 1043.8007,108.13015"
     id="path1572" />
  <path
     class=""
     stroke="#000000"
     stroke-width="2.5"
     stroke-linecap="round"
     stroke-linejoin="round"
     fill-rule="evenodd"
     d="M 1160.6707,33.129754 C 1216.9007,-12.721331 1370.6807,2.278654 1416.9807,58.129754 C 1370.1007,8.250354 1216.3107,-6.749666 1160.6707,33.129754"
     id="path1574" />
  <path
     class=""
     stroke="#000000"
     stroke-width="2.5"
     stroke-linecap="round"
     stroke-linejoin="round"
     fill-rule="evenodd"
     d="M 851.8777,95.630154 C 898.3877,78.919454 956.8257,110.16915 968.7527,158.13015 C 953.9957,115.46015 895.5587,84.210454 851.8777,95.630154"
     id="path1576" />
  <path
     class=""
     stroke="#000000"
     stroke-width="2.5"
     stroke-linecap="round"
     stroke-linejoin="round"
     fill-rule="evenodd"
     d="M 676.5647,70.629754 C 719.8497,50.249754 778.2867,75.249754 793.4397,120.63015 C 775.9277,80.766154 717.4897,55.766154 676.5647,70.629754"
     id="path1578" />
  <path
     class=""
     stroke="#000000"
     stroke-width="2.5"
     stroke-linecap="round"
     stroke-linejoin="round"
     fill-rule="evenodd"
     d="M 229.6367,158.13015 C 270.0697,96.324154 377.7417,65.074154 444.9807,95.630154 C 379.4137,70.836354 271.7417,102.08615 229.6367,158.13015"
     id="path1580" />
  <path
     class=""
     stroke="#000000"
     stroke-width="2.5"
     stroke-linecap="round"
     stroke-linejoin="round"
     fill-rule="evenodd"
     d="M 1165.6107,36.879754 C 1193.6407,12.578254 1277.7207,12.578254 1305.7507,36.879754 C 1277.7207,18.578254 1193.6407,18.578254 1165.6107,36.879754"
     id="path1582" />
  <path
     class=""
     stroke="#000000"
     stroke-width="2.5"
     stroke-linecap="round"
     stroke-linejoin="round"
     fill-rule="evenodd"
     d="M 915.2497,161.88015 C 924.9637,148.88015 954.1037,148.88015 963.8177,161.88015 C 954.1037,154.88015 924.9637,154.88015 915.2497,161.88015"
     id="path1584" />
  <path
     class=""
     stroke="#000000"
     stroke-width="2.5"
     stroke-linecap="round"
     stroke-linejoin="round"
     fill-rule="evenodd"
     d="M 739.9367,124.38015 C 749.6507,111.38015 778.7917,111.38015 788.5047,124.38015 C 778.7917,117.38015 749.6507,117.38015 739.9367,124.38015"
     id="path1586" />
  <path
     class=""
     stroke="#000000"
     stroke-width="2.5"
     stroke-linecap="round"
     stroke-linejoin="round"
     fill-rule="evenodd"
     d="M 503.0637,99.380154 C 525.0897,79.640154 591.1667,79.640154 613.1917,99.380154 C 591.1667,85.640154 525.0897,85.640154 503.0637,99.380154"
     id="path1588" />
  <path
     class=""
     stroke="#000000"
     stroke-width="2.5"
     stroke-linecap="round"
     stroke-linejoin="round"
     fill-rule="evenodd"
     d="M 338.3257,161.88015 C 350.8407,148.88015 388.3827,148.88015 400.8977,161.88015 C 388.3827,154.88015 350.8407,154.88015 338.3257,161.88015"
     id="path1590" />
  <path
     class=""
     stroke="#000000"
     stroke-width="2.5"
     stroke-linecap="round"
     stroke-linejoin="round"
     fill-rule="evenodd"
     d="M 234.5717,161.88015 C 253.3487,144.60915 309.6797,144.60915 328.4567,161.88015 C 309.6797,150.60915 253.3487,150.60915 234.5717,161.88015"
     id="path1592" />
  <polyline
     class=""
     stroke="#000000"
     stroke-width="3.25"
     stroke-linejoin="bevel"
     points="1257.38,155.357 1841.08,155.357"
     id="polyline1594"
     transform="matrix(0.5827608,0,0,1.0070482,529.48892,-13.674255)" />
  <polyline
     class=""
     stroke="#000000"
     stroke-width="3.25"
     stroke-linejoin="bevel"
     points="1257.38,180.357 1841.08,180.357"
     id="polyline1596"
     transform="matrix(0.5827608,0,0,1.0070482,529.48892,-13.674255)" />
  <polyline
     class=""
     stroke="#000000"
     stroke-width="3.25"
     stroke-linejoin="bevel"
     points="1257.38,205.357 1841.08,205.357"
     id="polyline1598"
     transform="matrix(0.5827608,0,0,1.0070482,529.48892,-13.674255)" />
  <polyline
     class=""
     stroke="#000000"
     stroke-width="3.25"
     stroke-linejoin="bevel"
     points="1257.38,230.357 1841.08,230.357"
     id="polyline1600"
     transform="matrix(0.5827608,0,0,1.0070482,529.48892,-13.674255)" />
  <polyline
     class=""
     stroke="#000000"
     stroke-width="3.25"
     stroke-linejoin="bevel"
     points="1257.38,255.357 1841.08,255.357"
     id="polyline1602"
     transform="matrix(0.5827608,0,0,1.0070482,529.48892,-13.674255)" />
  <polyline
     class=""
     stroke="#000000"
     stroke-width="3.25"
     stroke-linejoin="bevel"
     points="564.817,155.357 1257.38,155.357"
     id="polyline1604"
     transform="translate(4.8607,-12.226846)" />
  <polyline
     class=""
     stroke="#000000"
     stroke-width="3.25"
     stroke-linejoin="bevel"
     points="564.817,180.357 1257.38,180.357"
     id="polyline1606"
     transform="translate(4.8607,-12.226846)" />
  <polyline
     class=""
     stroke="#000000"
     stroke-width="3.25"
     stroke-linejoin="bevel"
     points="564.817,205.357 1257.38,205.357"
     id="polyline1608"
     transform="translate(4.8607,-12.226846)" />
  <polyline
     class=""
     stroke="#000000"
     stroke-width="3.25"
     stroke-linejoin="bevel"
     points="564.817,230.357 1257.38,230.357"
     id="polyline1610"
     transform="translate(4.8607,-12.226846)" />
  <polyline
     class=""
     stroke="#000000"
     stroke-width="3.25"
     stroke-linejoin="bevel"
     points="564.817,255.357 1257.38,255.357"
     id="polyline1612"
     transform="translate(4.8607,-12.226846)" />
  <polyline
     class=""
     stroke="#000000"
     stroke-width="3.25"
     stroke-linejoin="bevel"
     points="11.1393,155.357 564.817,155.357"
     id="polyline1614"
     transform="translate(4.8607,-12.226846)" />
  <polyline
     class=""
     stroke="#000000"
     stroke-width="3.25"
     stroke-linejoin="bevel"
     points="11.1393,180.357 564.817,180.357"
     id="polyline1616"
     transform="translate(4.8607,-12.226846)" />
  <polyline
     class=""
     stroke="#000000"
     stroke-width="3.25"
     stroke-linejoin="bevel"
     points="11.1393,205.357 564.817,205.357"
     id="polyline1618"
     transform="translate(4.8607,-12.226846)" />
  <polyline
     class=""
     stroke="#000000"
     stroke-width="3.25"
     stroke-linejoin="bevel"
     points="11.1393,230.357 564.817,230.357"
     id="polyline1620"
     transform="translate(4.8607,-12.226846)" />
  <polyline
     class=""
     stroke="#000000"
     stroke-width="3.25"
     stroke-linejoin="bevel"
     points="11.1393,255.357 564.817,255.357"
     id="polyline1622"
     transform="translate(4.8607,-12.226846)" />
  <path
     class=""
     d="M 997.7517,151.53015 C 997.8517,151.53015 998.0517,151.43015 998.1517,151.43015 C 998.1517,151.43015 999.5517,150.83015 1000.4517,150.53015 C 1000.5517,150.43015 1000.6517,150.43015 1000.7517,150.43015 C 1001.4517,150.43015 1001.9517,151.53015 1001.9517,152.03015 V 164.33015 C 1001.9517,164.93015 1002.5517,165.43015 1003.2517,165.43015 C 1004.2517,165.43015 1004.9507,164.93015 1004.9507,164.33015 V 150.43015 C 1004.9507,149.13015 1005.4507,148.43015 1005.9507,148.23015 L 1012.0507,145.73015 C 1012.1507,145.73015 1012.3507,145.63015 1012.4507,145.63015 C 1013.2507,145.63015 1013.7507,146.83015 1013.7507,147.43015 V 159.93015 C 1013.7507,160.53015 1014.3507,161.03015 1015.0507,161.03015 C 1016.1507,161.03015 1016.7507,160.53015 1016.7507,159.93015 V 145.73015 C 1016.7507,144.93015 1017.1507,143.73015 1017.8507,143.43015 C 1018.5507,143.13015 1020.6507,142.33015 1020.6507,142.33015 C 1021.3507,142.03015 1021.8507,141.23015 1021.8507,140.63015 V 133.53015 C 1021.8507,133.03015 1021.5507,132.73015 1021.1507,132.73015 C 1020.9507,132.73015 1020.8507,132.73015 1020.6507,132.83015 L 1018.0507,133.83015 C 1017.4507,133.83015 1016.7507,133.23015 1016.7507,132.03015 V 122.73015 C 1016.7507,122.03015 1017.2507,120.13015 1018.0507,119.83015 L 1020.6507,118.83015 C 1021.3507,118.53015 1021.8507,117.73015 1021.8507,117.13015 V 110.03015 C 1021.8507,109.53015 1021.5507,109.23015 1021.1507,109.23015 C 1020.9507,109.23015 1020.8507,109.23015 1020.6507,109.33015 C 1020.6507,109.33015 1018.6507,110.13015 1018.1507,110.23015 C 1017.4507,110.23015 1016.7507,109.73015 1016.7507,108.93015 V 96.730154 C 1016.7507,96.130154 1016.1507,95.630154 1015.3507,95.630154 C 1014.3507,95.630154 1013.7507,96.130154 1013.7507,96.730154 V 109.73015 C 1013.6507,110.73015 1013.3507,112.03015 1012.4507,112.63015 C 1011.2507,113.33015 1007.8507,114.73015 1006.1507,115.13015 C 1005.2507,115.13015 1004.9507,113.93015 1004.9507,113.13015 V 101.13015 C 1004.9507,100.53015 1004.2517,100.03015 1003.5517,100.03015 C 1002.5517,100.03015 1001.9517,100.53015 1001.9517,101.13015 V 114.63015 C 1001.9517,116.03015 1001.3517,117.03015 1000.7517,117.33015 C 1000.1517,117.63015 998.1517,118.43015 998.1517,118.43015 C 997.4517,118.63015 996.9517,119.43015 996.9517,120.03015 V 127.13015 C 996.9517,127.73015 997.2517,128.03015 997.7517,128.03015 C 998.1517,128.03015 1000.0517,127.13015 1000.3517,126.93015 C 1001.3517,126.93015 1001.9517,127.43015 1001.9517,128.63015 V 138.53015 C 1001.9517,139.63015 1001.4517,140.53015 1000.8517,140.83015 C 1000.2517,141.03015 998.1517,141.93015 998.1517,141.93015 C 997.4517,142.13015 996.9517,142.93015 996.9517,143.53015 V 150.63015 C 996.9517,151.23015 997.2517,151.53015 997.7517,151.53015 M 1004.9507,126.23015 C 1005.1507,124.53015 1009.7507,122.43015 1012.2507,122.43015 C 1012.9507,122.43015 1013.5507,122.63015 1013.7507,123.03015 C 1013.9507,123.53015 1014.1507,126.03015 1014.1507,128.73015 C 1014.1507,131.43015 1013.9507,134.23015 1013.7507,135.13015 C 1013.1507,137.13015 1008.4507,139.13015 1006.1507,139.13015 C 1005.5507,139.13015 1005.0507,138.93015 1004.9507,138.63015 C 1004.7517,138.23015 1004.6517,136.03015 1004.6517,133.63015 C 1004.6517,130.53015 1004.7517,127.03015 1004.9507,126.23015"
     id="path1624" />
  <polyline
     class=""
     stroke="#000000"
     stroke-width="4"
     stroke-linecap="square"
     stroke-linejoin="bevel"
     points="1390.67,130.357 1433.57,130.357"
     id="polyline1626"
     transform="translate(4.8607,-12.226846)" />
  <polyline
     class=""
     stroke="#000000"
     stroke-width="4"
     stroke-linecap="square"
     stroke-linejoin="bevel"
     points="1390.67,105.357 1433.57,105.357"
     id="polyline1628"
     transform="translate(4.8607,-12.226846)" />
  <polyline
     class=""
     stroke="#000000"
     stroke-width="4"
     stroke-linecap="square"
     stroke-linejoin="bevel"
     points="1443.82,130.357 1486.72,130.357"
     id="polyline1630"
     transform="translate(4.8607,-12.226846)" />
  <polyline
     class=""
     stroke="#000000"
     stroke-width="4"
     stroke-linecap="square"
     stroke-linejoin="bevel"
     points="1284.38,130.357 1327.27,130.357"
     id="polyline1632"
     transform="translate(4.8607,-12.226846)" />
  <polyline
     class=""
     stroke="#000000"
     stroke-width="4"
     stroke-linecap="square"
     stroke-linejoin="bevel"
     points="1284.38,105.357 1327.27,105.357"
     id="polyline1634"
     transform="translate(4.8607,-12.226846)" />
  <polyline
     class=""
     stroke="#000000"
     stroke-width="4"
     stroke-linecap="square"
     stroke-linejoin="bevel"
     points="1284.38,80.3566 1327.27,80.3566"
     id="polyline1636"
     transform="translate(4.8607,-12.226846)" />
  <polyline
     class=""
     stroke="#000000"
     stroke-width="4"
     stroke-linecap="square"
     stroke-linejoin="bevel"
     points="1337.52,130.357 1380.42,130.357"
     id="polyline1638"
     transform="translate(4.8607,-12.226846)" />
  <polyline
     class=""
     stroke="#000000"
     stroke-width="4"
     stroke-linecap="square"
     stroke-linejoin="bevel"
     points="1337.52,105.357 1380.42,105.357"
     id="polyline1640"
     transform="translate(4.8607,-12.226846)" />
  <polyline
     class=""
     stroke="#000000"
     stroke-width="4"
     stroke-linecap="square"
     stroke-linejoin="bevel"
     points="1337.52,80.3566 1380.42,80.3566"
     id="polyline1642"
     transform="translate(4.8607,-12.226846)" />
  <polyline
     class=""
     stroke="#000000"
     stroke-width="4"
     stroke-linecap="square"
     stroke-linejoin="bevel"
     points="1075.93,130.357 1118.83,130.357"
     id="polyline1644"
     transform="translate(4.8607,-12.226846)" />
  <polyline
     class=""
     stroke="#000000"
     stroke-width="4"
     stroke-linecap="square"
     stroke-linejoin="bevel"
     points="1134.36,130.357 1177.26,130.357"
     id="polyline1646"
     transform="translate(4.8607,-12.226846)" />
  <polyline
     class=""
     stroke="#000000"
     stroke-width="4"
     stroke-linecap="square"
     stroke-linejoin="bevel"
     points="1134.36,105.357 1177.26,105.357"
     id="polyline1648"
     transform="translate(4.8607,-12.226846)" />
  <polyline
     class=""
     stroke="#000000"
     stroke-width="4"
     stroke-linecap="square"
     stroke-linejoin="bevel"
     points="1134.36,80.3566 1177.26,80.3566"
     id="polyline1650"
     transform="translate(4.8607,-12.226846)" />
  <polyline
     class=""
     stroke="#000000"
     stroke-width="4"
     stroke-linecap="square"
     stroke-linejoin="bevel"
     points="825.567,130.357 868.466,130.357"
     id="polyline1652"
     transform="translate(4.8607,-12.226846)" />
  <polyline
     class=""
     stroke="#000000"
     stroke-width="4"
     stroke-linecap="square"
     stroke-linejoin="bevel"
     points="650.255,130.357 693.153,130.357"
     id="polyline1654"
     transform="translate(4.8607,-12.226846)" />
  <polyline
     class=""
     stroke="#000000"
     stroke-width="4"
     stroke-linecap="square"
     stroke-linejoin="bevel"
     points="650.255,105.357 693.153,105.357"
     id="polyline1656"
     transform="translate(4.8607,-12.226846)" />
  <polyline
     class=""
     stroke="#000000"
     stroke-width="4"
     stroke-linecap="square"
     stroke-linejoin="bevel"
     points="471.819,130.357 514.718,130.357"
     id="polyline1658"
     transform="translate(4.8607,-12.226846)" />
  <polyline
     class=""
     stroke="#000000"
     stroke-width="4"
     stroke-linecap="square"
     stroke-linejoin="bevel"
     points="591.817,130.357 634.715,130.357"
     id="polyline1660"
     transform="translate(4.8607,-12.226846)" />
  <polyline
     class=""
     stroke="#000000"
     stroke-width="4"
     stroke-linecap="square"
     stroke-linejoin="bevel"
     points="418.671,130.357 461.569,130.357"
     id="polyline1662"
     transform="translate(4.8607,-12.226846)" />
  <polyline
     class=""
     stroke="#000000"
     stroke-width="3"
     stroke-linecap="round"
     stroke-linejoin="bevel"
     points="1397.17,96.2166 1397.17,205.357"
     id="polyline1664"
     transform="translate(4.8607,-12.226846)" />
  <polyline
     class=""
     stroke="#000000"
     stroke-width="3"
     stroke-linecap="round"
     stroke-linejoin="bevel"
     points="1450.32,133.717 1450.32,217.857"
     id="polyline1666"
     transform="translate(4.8607,-12.226846)" />
  <polyline
     class=""
     stroke="#000000"
     stroke-width="3"
     stroke-linecap="round"
     stroke-linejoin="bevel"
     points="1528.05,146.217 1528.05,230.357"
     id="polyline1668"
     transform="translate(4.8607,-12.226846)" />
  <polyline
     class=""
     stroke="#000000"
     stroke-width="3"
     stroke-linecap="round"
     stroke-linejoin="bevel"
     points="890.505,196.217 890.505,274.107"
     id="polyline1670"
     transform="translate(4.8607,-12.226846)" />
  <polyline
     class=""
     stroke="#000000"
     stroke-width="3"
     stroke-linecap="round"
     stroke-linejoin="bevel"
     points="948.943,196.217 948.943,261.607"
     id="polyline1672"
     transform="translate(4.8607,-12.226846)" />
  <polyline
     class=""
     stroke="#000000"
     stroke-width="3"
     stroke-linecap="round"
     stroke-linejoin="bevel"
     points="313.581,196.217 313.581,274.107"
     id="polyline1674"
     transform="translate(4.8607,-12.226846)" />
  <polyline
     class=""
     stroke="#000000"
     stroke-width="3"
     stroke-linecap="round"
     stroke-linejoin="bevel"
     points="386.022,196.217 386.022,274.107"
     id="polyline1676"
     transform="translate(4.8607,-12.226846)" />
  <polyline
     class=""
     stroke="#000000"
     stroke-width="3"
     stroke-linecap="round"
     stroke-linejoin="bevel"
     points="209.827,196.217 209.827,274.107"
     id="polyline1678"
     transform="translate(4.8607,-12.226846)" />
  <polyline
     class=""
     stroke="#000000"
     stroke-width="3"
     stroke-linecap="round"
     stroke-linejoin="bevel"
     points="1290.88,71.2166 1290.88,199.107"
     id="polyline1680"
     transform="translate(4.8607,-12.226846)" />
  <polyline
     class=""
     stroke="#000000"
     stroke-width="3"
     stroke-linecap="round"
     stroke-linejoin="bevel"
     points="1344.02,83.7166 1344.02,202.232"
     id="polyline1682"
     transform="translate(4.8607,-12.226846)" />
  <polyline
     class=""
     stroke="#000000"
     stroke-width="3"
     stroke-linecap="round"
     stroke-linejoin="bevel"
     points="1023.99,146.217 1023.99,244.037"
     id="polyline1684"
     transform="translate(4.8607,-12.226846)" />
  <polyline
     class=""
     stroke="#000000"
     stroke-width="3"
     stroke-linecap="round"
     stroke-linejoin="bevel"
     points="1082.43,133.717 1082.43,230.357"
     id="polyline1686"
     transform="translate(4.8607,-12.226846)" />
  <polyline
     class=""
     stroke="#000000"
     stroke-width="3"
     stroke-linecap="round"
     stroke-linejoin="bevel"
     points="1140.86,71.2166 1140.86,205.357"
     id="polyline1688"
     transform="translate(4.8607,-12.226846)" />
  <polyline
     class=""
     stroke="#000000"
     stroke-width="3"
     stroke-linecap="round"
     stroke-linejoin="bevel"
     points="832.067,133.717 832.067,258.482"
     id="polyline1690"
     transform="translate(4.8607,-12.226846)" />
  <polyline
     class=""
     stroke="#000000"
     stroke-width="3"
     stroke-linecap="round"
     stroke-linejoin="bevel"
     points="656.755,108.717 656.755,217.857"
     id="polyline1692"
     transform="translate(4.8607,-12.226846)" />
  <polyline
     class=""
     stroke="#000000"
     stroke-width="3"
     stroke-linecap="round"
     stroke-linejoin="bevel"
     points="715.192,158.717 715.192,230.357"
     id="polyline1694"
     transform="translate(4.8607,-12.226846)" />
  <polyline
     class=""
     stroke="#000000"
     stroke-width="3"
     stroke-linecap="round"
     stroke-linejoin="bevel"
     points="773.63,158.717 773.63,242.857"
     id="polyline1696"
     transform="translate(4.8607,-12.226846)" />
  <polyline
     class=""
     stroke="#000000"
     stroke-width="3"
     stroke-linecap="round"
     stroke-linejoin="bevel"
     points="478.319,133.717 478.319,217.857"
     id="polyline1698"
     transform="translate(4.8607,-12.226846)" />
  <polyline
     class=""
     stroke="#000000"
     stroke-width="3"
     stroke-linecap="round"
     stroke-linejoin="bevel"
     points="598.317,133.717 598.317,205.357"
     id="polyline1700"
     transform="translate(4.8607,-12.226846)" />
  <polyline
     class=""
     stroke="#000000"
     stroke-width="3"
     stroke-linecap="round"
     stroke-linejoin="bevel"
     points="425.171,133.717 425.171,255.357"
     id="polyline1702"
     transform="translate(4.8607,-12.226846)" />
  <path
     class=""
     d="M 1411.3307,94.630154 C 1421.2307,94.630154 1433.4307,85.429754 1433.4307,75.929754 C 1433.4307,70.329754 1428.9307,66.629754 1422.5307,66.629754 C 1410.3307,66.629754 1400.5307,75.729754 1400.5307,85.329754 C 1400.5307,91.130154 1405.3307,94.630154 1411.3307,94.630154"
     id="path1704" />
  <path
     class=""
     d="M 1464.4807,132.13015 C 1474.3807,132.13015 1486.5807,122.93015 1486.5807,113.43015 C 1486.5807,107.83015 1482.0807,104.13015 1475.6807,104.13015 C 1463.4807,104.13015 1453.6807,113.23015 1453.6807,122.83015 C 1453.6807,128.63015 1458.4807,132.13015 1464.4807,132.13015"
     id="path1706" />
  <path
     class=""
     d="M 1542.2107,144.63015 C 1552.1107,144.63015 1564.3107,135.43015 1564.3107,125.93015 C 1564.3107,120.33015 1559.8107,116.63015 1553.4107,116.63015 C 1541.2107,116.63015 1531.4107,125.73015 1531.4107,135.33015 C 1531.4107,141.13015 1536.2107,144.63015 1542.2107,144.63015"
     id="path1708" />
  <path
     class=""
     d="M 904.6657,194.63015 C 914.5657,194.63015 926.7657,185.43015 926.7657,175.93015 C 926.7657,170.33015 922.2657,166.63015 915.8657,166.63015 C 903.6657,166.63015 893.8657,175.73015 893.8657,185.33015 C 893.8657,191.13015 898.6657,194.63015 904.6657,194.63015"
     id="path1710" />
  <path
     class=""
     d="M 963.1037,194.63015 C 973.0037,194.63015 985.2037,185.43015 985.2037,175.93015 C 985.2037,170.33015 980.7037,166.63015 974.3037,166.63015 C 962.1037,166.63015 952.3037,175.73015 952.3037,185.33015 C 952.3037,191.13015 957.1037,194.63015 963.1037,194.63015"
     id="path1712" />
  <path
     class=""
     d="M 327.7417,194.63015 C 337.6417,194.63015 349.8417,185.43015 349.8417,175.93015 C 349.8417,170.33015 345.3417,166.63015 338.9417,166.63015 C 326.7417,166.63015 316.9417,175.73015 316.9417,185.33015 C 316.9417,191.13015 321.7417,194.63015 327.7417,194.63015"
     id="path1714" />
  <path
     class=""
     d="M 400.1827,194.63015 C 410.0827,194.63015 422.2827,185.43015 422.2827,175.93015 C 422.2827,170.33015 417.7827,166.63015 411.3827,166.63015 C 399.1827,166.63015 389.3827,175.73015 389.3827,185.33015 C 389.3827,191.13015 394.1827,194.63015 400.1827,194.63015"
     id="path1716" />
  <path
     class=""
     d="M 223.9877,194.63015 C 242.3877,194.63015 246.0877,179.63015 246.0877,176.03015 C 246.0877,170.33015 241.5877,166.63015 235.0877,166.63015 C 218.3877,166.63015 213.1877,179.53015 213.1877,185.33015 C 213.1877,191.23015 217.8877,194.63015 223.9877,194.63015 M 232.4877,185.73015 C 227.4877,189.13015 223.9877,190.33015 221.5877,190.33015 C 219.2877,190.33015 217.8877,189.13015 217.1877,187.73015 C 216.7877,187.13015 216.4877,186.33015 216.4877,185.53015 C 216.4877,180.13015 232.5877,171.23015 237.8877,171.23015 C 239.9877,171.23015 241.1877,172.23015 241.9877,173.63015 C 242.2877,174.23015 242.5877,174.93015 242.5877,175.73015 C 242.5877,177.93015 240.2877,180.63015 232.4877,185.73015"
     id="path1718" />
  <path
     class=""
     d="M 1305.0407,69.629754 C 1314.9407,69.629754 1327.1407,60.429754 1327.1407,50.929754 C 1327.1407,45.329754 1322.6407,41.629754 1316.2407,41.629754 C 1304.0407,41.629754 1294.2407,50.729754 1294.2407,60.329754 C 1294.2407,66.129754 1299.0407,69.629754 1305.0407,69.629754"
     id="path1720" />
  <path
     class=""
     d="M 1358.1807,82.129754 C 1368.0807,82.129754 1380.2807,72.929754 1380.2807,63.429754 C 1380.2807,57.829754 1375.7807,54.129754 1369.3807,54.129754 C 1357.1807,54.129754 1347.3807,63.229754 1347.3807,72.829754 C 1347.3807,78.629754 1352.1807,82.129754 1358.1807,82.129754"
     id="path1722" />
  <path
     class=""
     d="M 1038.1507,144.63015 C 1048.0507,144.63015 1060.2507,135.43015 1060.2507,125.93015 C 1060.2507,120.33015 1055.7507,116.63015 1049.3507,116.63015 C 1037.1507,116.63015 1027.3507,125.73015 1027.3507,135.33015 C 1027.3507,141.13015 1032.1507,144.63015 1038.1507,144.63015"
     id="path1724" />
  <path
     class=""
     d="M 1096.5907,132.13015 C 1106.4907,132.13015 1118.6907,122.93015 1118.6907,113.43015 C 1118.6907,107.83015 1114.1907,104.13015 1107.7907,104.13015 C 1095.5907,104.13015 1085.7907,113.23015 1085.7907,122.83015 C 1085.7907,128.63015 1090.5907,132.13015 1096.5907,132.13015"
     id="path1726" />
  <path
     class=""
     d="M 1155.0207,69.629754 C 1164.9207,69.629754 1177.1207,60.429754 1177.1207,50.929754 C 1177.1207,45.329754 1172.6207,41.629754 1166.2207,41.629754 C 1154.0207,41.629754 1144.2207,50.729754 1144.2207,60.329754 C 1144.2207,66.129754 1149.0207,69.629754 1155.0207,69.629754"
     id="path1728" />
  <path
     class=""
     d="M 846.2277,132.13015 C 856.1277,132.13015 868.3277,122.93015 868.3277,113.43015 C 868.3277,107.83015 863.8277,104.13015 857.4277,104.13015 C 845.2277,104.13015 835.4277,113.23015 835.4277,122.83015 C 835.4277,128.63015 840.2277,132.13015 846.2277,132.13015"
     id="path1730" />
  <path
     class=""
     d="M 670.9157,107.13015 C 680.8157,107.13015 693.0157,97.930154 693.0157,88.430154 C 693.0157,82.829754 688.5157,79.129754 682.1157,79.129754 C 669.9157,79.129754 660.1157,88.230154 660.1157,97.830154 C 660.1157,103.63015 664.9157,107.13015 670.9157,107.13015"
     id="path1732" />
  <path
     class=""
     d="M 729.3527,157.13015 C 739.2527,157.13015 751.4527,147.93015 751.4527,138.43015 C 751.4527,132.83015 746.9527,129.13015 740.5527,129.13015 C 728.3527,129.13015 718.5527,138.23015 718.5527,147.83015 C 718.5527,153.63015 723.3527,157.13015 729.3527,157.13015"
     id="path1734" />
  <path
     class=""
     d="M 787.7907,157.13015 C 797.6907,157.13015 809.8907,147.93015 809.8907,138.43015 C 809.8907,132.83015 805.3907,129.13015 798.9907,129.13015 C 786.7907,129.13015 776.9907,138.23015 776.9907,147.83015 C 776.9907,153.63015 781.7907,157.13015 787.7907,157.13015"
     id="path1736" />
  <path
     class=""
     d="M 492.4797,132.13015 C 502.3797,132.13015 514.5797,122.93015 514.5797,113.43015 C 514.5797,107.83015 510.0797,104.13015 503.6797,104.13015 C 491.4797,104.13015 481.6797,113.23015 481.6797,122.83015 C 481.6797,128.63015 486.4797,132.13015 492.4797,132.13015"
     id="path1738" />
  <path
     class=""
     d="M 612.4777,132.13015 C 622.3777,132.13015 634.5777,122.93015 634.5777,113.43015 C 634.5777,107.83015 630.0777,104.13015 623.6777,104.13015 C 611.4777,104.13015 601.6777,113.23015 601.6777,122.83015 C 601.6777,128.63015 606.4777,132.13015 612.4777,132.13015"
     id="path1740" />
  <path
     class=""
     d="M 439.3317,132.13015 C 449.2317,132.13015 461.4317,122.93015 461.4317,113.43015 C 461.4317,107.83015 456.9317,104.13015 450.5317,104.13015 C 438.3317,104.13015 428.5317,113.23015 428.5317,122.83015 C 428.5317,128.63015 433.3317,132.13015 439.3317,132.13015"
     id="path1742" />
  <path
     class=""
     d="M 83,123.83015 C 86.3,123.83015 89,126.53015 89,132.03015 C 89,143.13015 79.5,152.13015 71.6,159.03015 C 71.3,159.23015 71.1,159.43015 70.9,159.43015 C 70.6,159.43015 70.4,159.03015 70.3,158.23015 C 69.9,155.63015 69.7,152.23015 69.7,149.03015 C 69.7,133.43015 76.9,123.83015 83,123.83015 M 79,207.83015 C 78.8,206.73015 78.9,206.43015 79.7,206.43015 C 79.8,206.43015 80,206.43015 80.1,206.43015 C 88.2,207.13015 94.9,213.93015 94.9,222.73015 C 94.9,229.03015 91.1,234.13015 85.5,236.93015 C 85,237.13015 84.7,237.33015 84.5,237.33015 C 84.1,237.33015 84,237.03015 83.9,236.33015 L 79,207.83015 M 72.1,191.93015 C 72.4,193.83015 72.4,193.73015 70.6,194.33015 C 61.8,197.33015 56.1,205.23015 56.1,213.73015 C 56.1,222.73015 60.8,229.13015 67.6,231.43015 C 68.4,231.73015 69.6,232.03015 70.3,232.03015 C 71.1,232.03015 71.5,231.53015 71.5,230.93015 C 71.5,230.23015 70.7,229.93015 70,229.63015 C 65.8,227.83015 62.8,223.53015 62.8,218.93015 C 62.8,213.23015 66.7,208.93015 72.8,207.23015 C 73.3,207.13015 73.7,207.03015 74,207.03015 C 74.5,207.03015 74.7,207.33015 74.8,208.03015 L 79.8,237.83015 C 80,238.93015 79.9,238.93015 78.4,239.23015 C 76.8,239.53015 74.8,239.73015 72.8,239.73015 C 55.3,239.73015 44,230.03015 44,216.13015 C 44,199.13015 56.5,188.53015 68.6,178.73015 C 69,178.43015 69.3,178.23015 69.5,178.23015 C 69.8,178.23015 69.9,178.53015 70,179.13015 L 72.1,191.93015 M 73.6,176.63015 C 73.4,175.43015 73.6,175.33015 74.2,174.73015 C 85,164.63015 93.2,151.93015 93.2,136.63015 C 93.2,127.93015 90.8,119.33015 86.7,113.33015 C 85.2,111.13015 82.6,108.33015 81.5,108.33015 C 80.1,108.33015 77,110.93015 75,113.13015 C 67.6,121.33015 65.2,133.83015 65.2,144.23015 C 65.2,150.03015 65.9,156.53015 66.6,160.63015 C 66.8,161.83015 66.9,162.03015 65.7,163.03015 C 51.3,174.93015 36,189.23015 36,209.43015 C 36,226.83015 47.9,243.33015 72.4,243.33015 C 74.7,243.33015 77.3,243.13015 79.3,242.73015 C 79.7,242.63015 79.9,242.63015 80.1,242.63015 C 80.5,242.63015 80.7,242.83015 80.8,243.63015 C 82,250.33015 83.5,259.03015 83.5,263.73015 C 83.5,278.53015 73.5,280.33015 67.6,280.33015 C 62.2,280.33015 59.6,278.73015 59.6,277.43015 C 59.6,276.73015 60.5,276.43015 62.8,275.73015 C 65.9,274.83015 69.5,272.13015 69.5,266.33015 C 69.5,260.83015 66,256.13015 59.9,256.13015 C 53.2,256.13015 49.2,261.43015 49.2,267.63015 C 49.2,274.13015 53.1,283.93015 68.2,283.93015 C 74.9,283.93015 87.9,280.93015 87.9,263.93015 C 87.9,258.23015 86.1,248.73015 85,242.53015 C 84.8,241.33015 84.9,241.43015 86.3,240.83015 C 96.4,236.83015 103.1,228.33015 103.1,217.03015 C 103.1,204.23015 93.7,192.93015 79,192.93015 C 76.4,192.93015 76.4,192.93015 76.1,191.13015 L 73.6,176.63015"
     id="path1744" />
  <path
     class=""
     d="M 132.7937,201.23015 C 132.7937,201.23015 132.4937,195.23015 132.4937,191.23015 C 132.4937,189.63015 132.5937,188.43015 132.6937,188.03015 C 133.3937,186.03015 137.3937,183.13015 139.6937,183.13015 C 142.5937,183.13015 143.7937,186.43015 143.7937,188.93015 C 143.7937,194.33015 139.1937,199.73015 134.8937,202.43015 C 134.4937,202.63015 134.1937,202.73015 133.8937,202.73015 C 132.9937,202.73015 132.7937,201.73015 132.7937,201.23015 M 129.2937,210.13015 C 129.5937,210.53015 129.8937,210.63015 130.1937,210.63015 C 130.4937,210.63015 130.7937,210.43015 130.7937,210.43015 C 133.7937,208.73015 136.1937,206.03015 138.6937,204.33015 C 147.5937,198.13015 150.6937,192.03015 150.6937,187.43015 C 150.6937,181.73015 146.2937,178.13015 141.6937,177.83015 C 139.9937,177.83015 137.5937,178.63015 136.1937,179.53015 C 135.5937,180.03015 134.4937,180.93015 133.9937,180.93015 C 133.7937,180.93015 133.6937,180.93015 133.4937,180.83015 C 132.7937,180.53015 132.3937,179.83015 132.3937,179.13015 C 132.4937,176.93015 133.0937,152.93015 133.0937,150.93015 C 133.0937,149.83015 132.1937,149.23015 131.1937,149.23015 C 129.7937,149.23015 128.1937,150.23015 128.0937,152.03015 C 128.0937,152.03015 128.4937,209.13015 129.2937,210.13015"
     id="path1746" />
  <path
     class=""
     fill-rule="evenodd"
     d="M 1294.2407,180.61915 L 1403.5307,187.04515 V 199.56715 L 1294.2407,193.14015 V 180.61915"
     id="path1748" />
  <path
     class=""
     fill-rule="evenodd"
     d="M 952.3037,242.96115 L 1088.7907,211.00815 V 223.84615 L 952.3037,255.79915 V 242.96115"
     id="path1750" />
  <path
     class=""
     fill-rule="evenodd"
     d="M 776.9907,224.16015 L 896.8657,256.21215 V 269.15115 L 776.9907,237.09915 V 224.16015"
     id="path1752" />
  <path
     class=""
     fill-rule="evenodd"
     d="M 601.6777,186.73815 L 721.5527,212.38015 V 225.16315 L 601.6777,199.52115 V 186.73815"
     id="path1754" />
  <path
     class=""
     fill-rule="evenodd"
     d="M 389.3827,254.95015 L 431.5317,234.76315 V 248.62315 L 389.3827,268.80915 V 254.95015"
     id="path1756" />
  <path
     class=""
     fill-rule="evenodd"
     d="M 389.3827,239.32515 L 431.5317,219.13815 V 232.99815 L 389.3827,253.18415 V 239.32515"
     id="path1758" />
  <path
     class=""
     d="M 1555.4107,140.63015 C 1556.8107,144.83015 1557.5107,149.83015 1557.5107,154.33015 C 1557.5107,160.23015 1555.0107,168.63015 1553.5107,172.03015 C 1549.8107,180.43015 1544.8107,188.53015 1531.4107,193.03015 V 216.53015 C 1531.4107,217.73015 1531.9107,218.03015 1532.5107,218.03015 C 1534.4107,218.03015 1535.2107,217.43015 1535.4107,215.83015 C 1537.1107,206.33015 1544.5107,197.63015 1549.6107,189.73015 C 1555.9107,179.83015 1562.0107,167.93015 1562.0107,155.43015 C 1562.0107,147.63015 1560.0107,140.53015 1559.2107,137.33015 C 1558.9107,136.23015 1558.3107,135.83015 1557.6107,135.83015 C 1556.1107,135.83015 1554.4107,137.73015 1555.4107,140.63015"
     id="path1760" />
  <path
     class=""
     d="M 264.8357,180.63015 C 264.8357,177.83015 262.6357,175.63015 259.8357,175.63015 C 257.0357,175.63015 254.8357,177.83015 254.8357,180.63015 C 254.8357,183.43015 257.0357,185.63015 259.8357,185.63015 C 262.6357,185.63015 264.8357,183.43015 264.8357,180.63015"
     id="path1762" />
  <path
     class=""
     d="M 1195.8707,55.629754 C 1195.8707,52.829754 1193.6707,50.629754 1190.8707,50.629754 C 1188.0707,50.629754 1185.8707,52.829754 1185.8707,55.629754 C 1185.8707,58.429754 1188.0707,60.629754 1190.8707,60.629754 C 1193.6707,60.629754 1195.8707,58.429754 1195.8707,55.629754"
     id="path1764" />
  <path
     class=""
     d="M 533.3287,105.63015 C 533.3287,102.83015 531.1287,100.63015 528.3287,100.63015 C 525.5287,100.63015 523.3287,102.83015 523.3287,105.63015 C 523.3287,108.43015 525.5287,110.63015 528.3287,110.63015 C 531.1287,110.63015 533.3287,108.43015 533.3287,105.63015"
     id="path1766" />
  <metadata
     id="metadata2184">
    <rdf:RDF>
      <cc:Work
         rdf:about="">
        <dc:title>Unbenannt</dc:title>
      </cc:Work>
    </rdf:RDF>
  </metadata>
</svg>
