<?xml version="1.0" encoding="UTF-8" standalone="no"?>
<svg
   width="1497.0809"
   height="469.53452"
   viewBox="0 0 1497.0809 469.53445"
   version="1.2"
   id="svg763"
   sodipodi:docname="Elgar_2_Anfang_B-Kl._in_B_notiert.svg"
   inkscape:version="1.1-dev (0486c1a, 2020-10-10)"
   xmlns:inkscape="http://www.inkscape.org/namespaces/inkscape"
   xmlns:sodipodi="http://sodipodi.sourceforge.net/DTD/sodipodi-0.dtd"
   xmlns="http://www.w3.org/2000/svg"
   xmlns:svg="http://www.w3.org/2000/svg"
   xmlns:rdf="http://www.w3.org/1999/02/22-rdf-syntax-ns#"
   xmlns:cc="http://creativecommons.org/ns#"
   xmlns:dc="http://purl.org/dc/elements/1.1/">
  <defs
     id="defs767" />
  <sodipodi:namedview
     pagecolor="#ffffff"
     bordercolor="#666666"
     borderopacity="1"
     objecttolerance="10"
     gridtolerance="10"
     guidetolerance="10"
     inkscape:pageopacity="0"
     inkscape:pageshadow="2"
     inkscape:window-width="1280"
     inkscape:window-height="674"
     id="namedview765"
     showgrid="false"
     units="px"
     lock-margins="true"
     fit-margin-top="1"
     fit-margin-left="1"
     fit-margin-right="1"
     fit-margin-bottom="1"
     inkscape:zoom="0.34155269"
     inkscape:cx="935.434"
     inkscape:cy="544.57191"
     inkscape:window-x="23"
     inkscape:window-y="27"
     inkscape:window-maximized="0"
     inkscape:current-layer="svg763" />
  <title
     id="title633">Unbenannt</title>
  <desc
     id="desc635">Generated by MuseScore 3.5.2</desc>
  <rect
     style="fill:none;stroke:none;stroke-width:1.9;stroke-linecap:round;stroke-linejoin:round"
     id="rect778"
     width="1471.6271"
     height="211.26132"
     x="1"
     y="1" />
  <path
     class=""
     stroke="#000000"
     stroke-width="2.5"
     stroke-linecap="round"
     stroke-linejoin="round"
     fill-rule="evenodd"
     d="M 897.9483,401.22668 C 909.4733,441.72968 962.0793,472.97968 1003.1593,463.72668 C 959.0153,478.13768 906.4083,446.88768 897.9483,401.22668"
     id="path637" />
  <path
     class=""
     stroke="#000000"
     stroke-width="2.5"
     stroke-linecap="round"
     stroke-linejoin="round"
     fill-rule="evenodd"
     d="M 741.7523,369.16768 C 755.8023,406.62268 807.8673,431.62268 845.8823,419.16768 C 805.2703,437.03168 753.2053,412.03168 741.7523,369.16768"
     id="path639" />
  <path
     class=""
     stroke="#000000"
     stroke-width="2.5"
     stroke-linecap="round"
     stroke-linejoin="round"
     fill-rule="evenodd"
     d="M 954.9473,437.42068 C 963.6033,444.42068 989.5713,444.42068 998.2263,437.42068 C 989.5713,450.42068 963.6033,450.42068 954.9473,437.42068"
     id="path641" />
  <path
     class=""
     stroke="#000000"
     stroke-width="2.5"
     stroke-linecap="round"
     stroke-linejoin="round"
     fill-rule="evenodd"
     d="M 303.7583,437.42068 C 322.5073,448.66868 378.7513,448.66868 397.4993,437.42068 C 378.7513,454.66868 322.5073,454.66868 303.7583,437.42068"
     id="path643" />
  <path
     class=""
     stroke="#000000"
     stroke-width="2.5"
     stroke-linecap="round"
     stroke-linejoin="round"
     fill-rule="evenodd"
     d="M 798.7523,399.92068 C 807.1913,406.92068 832.5093,406.92068 840.9483,399.92068 C 832.5093,412.92068 807.1913,412.92068 798.7523,399.92068"
     id="path645" />
  <polyline
     class=""
     stroke="#000000"
     stroke-width="4"
     stroke-linejoin="bevel"
     points="512.269,130.199 512.269,233.449"
     id="polyline647"
     transform="translate(-1.4006983,161.84668)" />
  <path
     id="polyline649"
     style="stroke:#000000;stroke-width:3.25;stroke-linejoin:bevel"
     d="M 1163.2193,393.67068 H 1459.9889"
     class=""
     sodipodi:nodetypes="cc" />
  <path
     id="polyline651"
     style="stroke:#000000;stroke-width:3.25;stroke-linejoin:bevel"
     d="M 1163.2193,368.67068 H 1459.9889"
     class=""
     sodipodi:nodetypes="cc" />
  <path
     id="polyline653"
     style="stroke:#000000;stroke-width:3.25;stroke-linejoin:bevel"
     d="M 1163.2193,343.67068 H 1459.9889"
     class=""
     sodipodi:nodetypes="cc" />
  <path
     id="polyline655"
     style="stroke:#000000;stroke-width:3.25;stroke-linejoin:bevel"
     d="M 1163.2193,318.67068 H 1459.9889"
     class=""
     sodipodi:nodetypes="cc" />
  <path
     id="polyline657"
     style="stroke:#000000;stroke-width:3.25;stroke-linejoin:bevel"
     d="M 1163.2193,293.67068 H 1459.9889"
     class=""
     sodipodi:nodetypes="cc" />
  <polyline
     class=""
     stroke="#000000"
     stroke-width="3.25"
     stroke-linejoin="bevel"
     points="514.269,131.824 1164.62,131.824"
     id="polyline659"
     transform="translate(-1.4006983,161.84668)" />
  <polyline
     class=""
     stroke="#000000"
     stroke-width="3.25"
     stroke-linejoin="bevel"
     points="514.269,156.824 1164.62,156.824"
     id="polyline661"
     transform="translate(-1.4006983,161.84668)" />
  <polyline
     class=""
     stroke="#000000"
     stroke-width="3.25"
     stroke-linejoin="bevel"
     points="514.269,181.824 1164.62,181.824"
     id="polyline663"
     transform="translate(-1.4006983,161.84668)" />
  <polyline
     class=""
     stroke="#000000"
     stroke-width="3.25"
     stroke-linejoin="bevel"
     points="514.269,206.824 1164.62,206.824"
     id="polyline665"
     transform="translate(-1.4006983,161.84668)" />
  <polyline
     class=""
     stroke="#000000"
     stroke-width="3.25"
     stroke-linejoin="bevel"
     points="514.269,231.824 1164.62,231.824"
     id="polyline667"
     transform="translate(-1.4006983,161.84668)" />
  <polyline
     class=""
     stroke="#000000"
     stroke-width="3.25"
     stroke-linejoin="bevel"
     points="29.588,131.824 514.269,131.824"
     id="polyline669"
     transform="translate(-1.4006983,161.84668)" />
  <polyline
     class=""
     stroke="#000000"
     stroke-width="3.25"
     stroke-linejoin="bevel"
     points="29.588,156.824 514.269,156.824"
     id="polyline671"
     transform="translate(-1.4006983,161.84668)" />
  <polyline
     class=""
     stroke="#000000"
     stroke-width="3.25"
     stroke-linejoin="bevel"
     points="29.588,181.824 514.269,181.824"
     id="polyline673"
     transform="translate(-1.4006983,161.84668)" />
  <polyline
     class=""
     stroke="#000000"
     stroke-width="3.25"
     stroke-linejoin="bevel"
     points="29.588,206.824 514.269,206.824"
     id="polyline675"
     transform="translate(-1.4006983,161.84668)" />
  <polyline
     class=""
     stroke="#000000"
     stroke-width="3.25"
     stroke-linejoin="bevel"
     points="29.588,231.824 514.269,231.824"
     id="polyline677"
     transform="translate(-1.4006983,161.84668)" />
  <polyline
     class=""
     stroke="#000000"
     stroke-width="4"
     stroke-linecap="square"
     stroke-linejoin="bevel"
     points="1191.62,256.824 1234.52,256.824"
     id="polyline679"
     transform="translate(-1.4006983,161.84668)" />
  <polyline
     class=""
     stroke="#000000"
     stroke-width="4"
     stroke-linecap="square"
     stroke-linejoin="bevel"
     points="929.965,256.824 972.863,256.824"
     id="polyline681"
     transform="translate(-1.4006983,161.84668)" />
  <polyline
     class=""
     stroke="#000000"
     stroke-width="4"
     stroke-linecap="square"
     stroke-linejoin="bevel"
     points="983.113,256.824 1026.01,256.824"
     id="polyline683"
     transform="translate(-1.4006983,161.84668)" />
  <polyline
     class=""
     stroke="#000000"
     stroke-width="4"
     stroke-linecap="square"
     stroke-linejoin="bevel"
     points="382.386,256.824 425.284,256.824"
     id="polyline685"
     transform="translate(-1.4006983,161.84668)" />
  <polyline
     class=""
     stroke="#000000"
     stroke-width="4"
     stroke-linecap="square"
     stroke-linejoin="bevel"
     points="278.776,256.824 321.674,256.824"
     id="polyline687"
     transform="translate(-1.4006983,161.84668)" />
  <polyline
     class=""
     stroke="#000000"
     stroke-width="3"
     stroke-linecap="round"
     stroke-linejoin="bevel"
     points="1362.89,147.684 1362.89,231.824"
     id="polyline689"
     transform="translate(-1.4006983,161.84668)" />
  <polyline
     class=""
     stroke="#000000"
     stroke-width="3"
     stroke-linecap="round"
     stroke-linejoin="bevel"
     points="1228.02,265.964 1228.02,181.824"
     id="polyline691"
     transform="translate(-1.4006983,161.84668)" />
  <polyline
     class=""
     stroke="#000000"
     stroke-width="3"
     stroke-linecap="round"
     stroke-linejoin="bevel"
     points="1310.4,203.464 1310.4,122.449"
     id="polyline693"
     transform="translate(-1.4006983,161.84668)" />
  <polyline
     class=""
     stroke="#000000"
     stroke-width="3"
     stroke-linecap="round"
     stroke-linejoin="bevel"
     points="1019.51,253.464 1019.51,169.324"
     id="polyline695"
     transform="translate(-1.4006983,161.84668)" />
  <polyline
     class=""
     stroke="#000000"
     stroke-width="3"
     stroke-linecap="round"
     stroke-linejoin="bevel"
     points="914.298,190.964 914.298,131.824"
     id="polyline697"
     transform="translate(-1.4006983,161.84668)" />
  <polyline
     class=""
     stroke="#000000"
     stroke-width="3"
     stroke-linecap="round"
     stroke-linejoin="bevel"
     points="966.363,253.464 966.363,131.824"
     id="polyline699"
     transform="translate(-1.4006983,161.84668)" />
  <polyline
     class=""
     stroke="#000000"
     stroke-width="3"
     stroke-linecap="round"
     stroke-linejoin="bevel"
     points="862.233,215.964 862.233,131.824"
     id="polyline701"
     transform="translate(-1.4006983,161.84668)" />
  <polyline
     class=""
     stroke="#000000"
     stroke-width="3"
     stroke-linecap="round"
     stroke-linejoin="bevel"
     points="758.102,165.964 758.102,100.574"
     id="polyline703"
     transform="translate(-1.4006983,161.84668)" />
  <polyline
     class=""
     stroke="#000000"
     stroke-width="3"
     stroke-linecap="round"
     stroke-linejoin="bevel"
     points="810.168,215.964 810.168,125.574"
     id="polyline705"
     transform="translate(-1.4006983,161.84668)" />
  <polyline
     class=""
     stroke="#000000"
     stroke-width="3"
     stroke-linecap="round"
     stroke-linejoin="bevel"
     points="570.668,215.964 570.668,131.824"
     id="polyline707"
     transform="translate(-1.4006983,161.84668)" />
  <polyline
     class=""
     stroke="#000000"
     stroke-width="3"
     stroke-linecap="round"
     stroke-linejoin="bevel"
     points="418.784,253.464 418.784,169.324"
     id="polyline709"
     transform="translate(-1.4006983,161.84668)" />
  <polyline
     class=""
     stroke="#000000"
     stroke-width="3"
     stroke-linecap="round"
     stroke-linejoin="bevel"
     points="315.174,253.464 315.174,169.324"
     id="polyline711"
     transform="translate(-1.4006983,161.84668)" />
  <path
     class=""
     d="M 1206.0193,445.17068 C 1215.9193,445.17068 1228.1193,435.97068 1228.1193,426.47068 C 1228.1193,420.87068 1223.6193,417.17068 1217.2193,417.17068 C 1205.0193,417.17068 1195.2193,426.27068 1195.2193,435.87068 C 1195.2193,441.67068 1200.0193,445.17068 1206.0193,445.17068"
     id="path713" />
  <path
     class=""
     d="M 1288.4093,382.67068 C 1298.3093,382.67068 1310.5093,373.47068 1310.5093,363.97068 C 1310.5093,358.37068 1306.0093,354.67068 1299.6093,354.67068 C 1287.4093,354.67068 1277.6093,363.77068 1277.6093,373.37068 C 1277.6093,379.17068 1282.4093,382.67068 1288.4093,382.67068"
     id="path715" />
  <path
     class=""
     d="M 1370.7893,320.17068 C 1380.6893,320.17068 1392.8893,310.97068 1392.8893,301.47068 C 1392.8893,295.87068 1388.3893,292.17068 1381.9893,292.17068 C 1369.7893,292.17068 1359.9893,301.27068 1359.9893,310.87068 C 1359.9893,316.67068 1364.7893,320.17068 1370.7893,320.17068"
     id="path717" />
  <path
     class=""
     d="M 944.3643,432.67068 C 954.2643,432.67068 966.4643,423.47068 966.4643,413.97068 C 966.4643,408.37068 961.9643,404.67068 955.5643,404.67068 C 943.3643,404.67068 933.5643,413.77068 933.5643,423.37068 C 933.5643,429.17068 938.3643,432.67068 944.3643,432.67068"
     id="path719" />
  <path
     class=""
     d="M 997.5123,432.67068 C 1007.4093,432.67068 1019.6093,423.47068 1019.6093,413.97068 C 1019.6093,408.37068 1015.1093,404.67068 1008.7093,404.67068 C 996.5123,404.67068 986.7123,413.77068 986.7123,423.37068 C 986.7123,429.17068 991.5123,432.67068 997.5123,432.67068"
     id="path721" />
  <path
     class=""
     d="M 840.2333,395.17068 C 850.1333,395.17068 862.3333,385.97068 862.3333,376.47068 C 862.3333,370.87068 857.8333,367.17068 851.4333,367.17068 C 839.2333,367.17068 829.4333,376.27068 829.4333,385.87068 C 829.4333,391.67068 834.2333,395.17068 840.2333,395.17068"
     id="path723" />
  <path
     class=""
     d="M 892.2983,370.17068 C 902.1983,370.17068 914.3983,360.97068 914.3983,351.47068 C 914.3983,345.87068 909.8983,342.17068 903.4983,342.17068 C 891.2983,342.17068 881.4983,351.27068 881.4983,360.87068 C 881.4983,366.67068 886.2983,370.17068 892.2983,370.17068"
     id="path725" />
  <path
     class=""
     d="M 736.1033,345.17068 C 746.0033,345.17068 758.2033,335.97068 758.2033,326.47068 C 758.2033,320.87068 753.7033,317.17068 747.3033,317.17068 C 735.1033,317.17068 725.3033,326.27068 725.3033,335.87068 C 725.3033,341.67068 730.1033,345.17068 736.1033,345.17068"
     id="path727" />
  <path
     class=""
     d="M 788.1683,395.17068 C 798.0683,395.17068 810.2683,385.97068 810.2683,376.47068 C 810.2683,370.87068 805.7683,367.17068 799.3683,367.17068 C 787.1683,367.17068 777.3683,376.27068 777.3683,385.87068 C 777.3683,391.67068 782.1683,395.17068 788.1683,395.17068"
     id="path729" />
  <path
     class=""
     d="M 548.6683,395.17068 C 558.5683,395.17068 570.7683,385.97068 570.7683,376.47068 C 570.7683,370.87068 566.2683,367.17068 559.8683,367.17068 C 547.6683,367.17068 537.8683,376.27068 537.8683,385.87068 C 537.8683,391.67068 542.6683,395.17068 548.6683,395.17068"
     id="path731" />
  <path
     class=""
     d="M 396.7853,432.67068 C 406.6853,432.67068 418.8853,423.47068 418.8853,413.97068 C 418.8853,408.37068 414.3853,404.67068 407.9853,404.67068 C 395.7853,404.67068 385.9853,413.77068 385.9853,423.37068 C 385.9853,429.17068 390.7853,432.67068 396.7853,432.67068"
     id="path733" />
  <path
     class=""
     d="M 293.1753,432.67068 C 311.5753,432.67068 315.2753,417.67068 315.2753,414.07068 C 315.2753,408.37068 310.7753,404.67068 304.2753,404.67068 C 287.5753,404.67068 282.3753,417.57068 282.3753,423.37068 C 282.3753,429.27068 287.0753,432.67068 293.1753,432.67068 M 301.6753,423.77068 C 296.6753,427.17068 293.1753,428.37068 290.7753,428.37068 C 288.4753,428.37068 287.0753,427.17068 286.3753,425.77068 C 285.9753,425.17068 285.6753,424.37068 285.6753,423.57068 C 285.6753,418.17068 301.7753,409.27068 307.0753,409.27068 C 309.1753,409.27068 310.3753,410.27068 311.1753,411.67068 C 311.4753,412.27068 311.7753,412.97068 311.7753,413.77068 C 311.7753,415.97068 309.4753,418.67068 301.6753,423.77068"
     id="path735" />
  <path
     class=""
     d="M 95.187303,274.37068 C 98.487305,274.37068 101.1873,277.07068 101.1873,282.57068 C 101.1873,293.67068 91.687303,302.67068 83.787303,309.57068 C 83.487303,309.77068 83.287303,309.97068 83.087303,309.97068 C 82.787303,309.97068 82.587303,309.57068 82.487303,308.77068 C 82.087303,306.17068 81.887303,302.77068 81.887303,299.57068 C 81.887303,283.97068 89.087303,274.37068 95.187303,274.37068 M 91.187303,358.37068 C 90.987303,357.27068 91.087303,356.97068 91.887303,356.97068 C 91.987303,356.97068 92.187303,356.97068 92.287303,356.97068 C 100.3873,357.67068 107.0873,364.47068 107.0873,373.27068 C 107.0873,379.57068 103.2873,384.67068 97.687305,387.47068 C 97.187303,387.67068 96.887303,387.87068 96.687303,387.87068 C 96.287303,387.87068 96.187303,387.57068 96.087303,386.87068 L 91.187303,358.37068 M 84.287303,342.47068 C 84.587303,344.37068 84.587303,344.27068 82.787303,344.87068 C 73.987303,347.87068 68.287303,355.77068 68.287303,364.27068 C 68.287303,373.27068 72.987303,379.67068 79.787303,381.97068 C 80.587303,382.27068 81.787303,382.57068 82.487303,382.57068 C 83.287303,382.57068 83.687303,382.07068 83.687303,381.47068 C 83.687303,380.77068 82.887303,380.47068 82.187303,380.17068 C 77.987303,378.37068 74.987303,374.07068 74.987303,369.47068 C 74.987303,363.77068 78.887303,359.47068 84.987303,357.77068 C 85.487303,357.67068 85.887303,357.57068 86.187303,357.57068 C 86.687303,357.57068 86.887303,357.87068 86.987303,358.57068 L 91.987303,388.37068 C 92.187303,389.47068 92.087303,389.47068 90.587303,389.77068 C 88.987303,390.07068 86.987303,390.27068 84.987303,390.27068 C 67.487303,390.27068 56.187303,380.57068 56.187303,366.67068 C 56.187303,349.67068 68.687303,339.07068 80.787303,329.27068 C 81.187303,328.97068 81.487303,328.77068 81.687303,328.77068 C 81.987303,328.77068 82.087303,329.07068 82.187303,329.67068 L 84.287303,342.47068 M 85.787303,327.17068 C 85.587303,325.97068 85.787303,325.87068 86.387303,325.27068 C 97.187303,315.17068 105.3873,302.47068 105.3873,287.17068 C 105.3873,278.47068 102.9873,269.87068 98.887305,263.87068 C 97.387305,261.67028 94.787303,258.87028 93.687303,258.87028 C 92.287303,258.87028 89.187303,261.47028 87.187303,263.67068 C 79.787303,271.87068 77.387303,284.37068 77.387303,294.77068 C 77.387303,300.57068 78.087303,307.07068 78.787303,311.17068 C 78.987303,312.37068 79.087303,312.57068 77.887303,313.57068 C 63.487303,325.47068 48.187303,339.77068 48.187303,359.97068 C 48.187303,377.37068 60.087303,393.87068 84.587303,393.87068 C 86.887303,393.87068 89.487303,393.67068 91.487303,393.27068 C 91.887303,393.17068 92.087303,393.17068 92.287303,393.17068 C 92.687303,393.17068 92.887303,393.37068 92.987303,394.17068 C 94.187303,400.87068 95.687303,409.57068 95.687303,414.27068 C 95.687303,429.07068 85.687303,430.87068 79.787303,430.87068 C 74.387303,430.87068 71.787303,429.27068 71.787303,427.97068 C 71.787303,427.27068 72.687303,426.97068 74.987303,426.27068 C 78.087303,425.37068 81.687303,422.67068 81.687303,416.87068 C 81.687303,411.37068 78.187303,406.67068 72.087303,406.67068 C 65.387303,406.67068 61.387303,411.97068 61.387303,418.17068 C 61.387303,424.67068 65.287303,434.47068 80.387303,434.47068 C 87.087303,434.47068 100.0873,431.47068 100.0873,414.47068 C 100.0873,408.77068 98.287305,399.27068 97.187303,393.07068 C 96.987303,391.87068 97.087303,391.97068 98.487305,391.37068 C 108.5873,387.37068 115.2873,378.87068 115.2873,367.57068 C 115.2873,354.77068 105.8873,343.47068 91.187303,343.47068 C 88.587303,343.47068 88.587303,343.47068 88.287303,341.67068 L 85.787303,327.17068"
     id="path737" />
  <path
     class=""
     d="M 144.9813,351.77068 C 144.9813,351.77068 144.6813,345.77068 144.6813,341.77068 C 144.6813,340.17068 144.7813,338.97068 144.8813,338.57068 C 145.5813,336.57068 149.5813,333.67068 151.8813,333.67068 C 154.7813,333.67068 155.9813,336.97068 155.9813,339.47068 C 155.9813,344.87068 151.3813,350.27068 147.0813,352.97068 C 146.6813,353.17068 146.3813,353.27068 146.0813,353.27068 C 145.1813,353.27068 144.9813,352.27068 144.9813,351.77068 M 141.4813,360.67068 C 141.7813,361.07068 142.0813,361.17068 142.3813,361.17068 C 142.6813,361.17068 142.9813,360.97068 142.9813,360.97068 C 145.9813,359.27068 148.3813,356.57068 150.8813,354.87068 C 159.7813,348.67068 162.8813,342.57068 162.8813,337.97068 C 162.8813,332.27068 158.4813,328.67068 153.8813,328.37068 C 152.1813,328.37068 149.7813,329.17068 148.3813,330.07068 C 147.7813,330.57068 146.6813,331.47068 146.1813,331.47068 C 145.9813,331.47068 145.8813,331.47068 145.6813,331.37068 C 144.9813,331.07068 144.5813,330.37068 144.5813,329.67068 C 144.6813,327.47068 145.2813,303.47068 145.2813,301.47068 C 145.2813,300.37068 144.3813,299.77068 143.3813,299.77068 C 141.9813,299.77068 140.3813,300.77068 140.2813,302.57068 C 140.2813,302.57068 140.6813,359.67068 141.4813,360.67068"
     id="path739" />
  <path
     class=""
     d="M 1114.7193,332.97068 C 1114.7193,329.27068 1111.7193,326.27068 1108.0193,326.27068 C 1104.3193,326.27068 1101.3193,329.27068 1101.3193,332.97068 C 1101.3193,335.07068 1102.5193,336.87068 1104.0193,338.07068 C 1105.6193,339.17068 1107.5193,339.77068 1109.4193,339.77068 C 1110.8193,339.77068 1112.2193,339.47068 1113.3193,339.07068 C 1114.7193,338.67068 1115.6193,338.27068 1116.9193,337.57068 C 1117.1193,337.47068 1117.3193,337.47068 1117.4193,337.47068 C 1117.8193,337.47068 1117.9193,337.87068 1117.9193,338.37068 C 1117.9193,338.67068 1117.9193,339.07068 1117.8193,339.47068 C 1117.5193,340.97068 1110.3193,360.87068 1108.5193,367.47068 C 1108.5193,368.67068 1110.8193,368.77068 1111.4193,368.77068 C 1112.5193,368.77068 1113.9193,368.57068 1114.9193,367.77068 C 1115.2193,367.57068 1125.0193,332.47068 1125.0193,332.47068 C 1125.4193,330.67068 1125.9193,329.07068 1126.0193,328.57068 C 1126.0193,327.57068 1125.0193,327.07068 1124.8193,326.97068 C 1124.6193,326.97068 1124.3193,326.97068 1123.7193,327.37068 C 1123.0193,327.97068 1118.0193,333.97068 1114.7193,333.97068 V 332.97068"
     id="path741" />
  <path
     class=""
     d="M 1062.6593,332.97068 C 1062.6593,329.27068 1059.6593,326.27068 1055.9593,326.27068 C 1052.2593,326.27068 1049.2593,329.27068 1049.2593,332.97068 C 1049.2593,335.07068 1050.4593,336.87068 1051.9593,338.07068 C 1053.5593,339.17068 1055.4593,339.77068 1057.3593,339.77068 C 1058.7593,339.77068 1060.1593,339.47068 1061.2593,339.07068 C 1062.6593,338.67068 1063.5593,338.27068 1064.8593,337.57068 C 1065.0593,337.47068 1065.2593,337.47068 1065.3593,337.47068 C 1065.7593,337.47068 1065.8593,337.87068 1065.8593,338.37068 C 1065.8593,338.67068 1065.8593,339.07068 1065.7593,339.47068 C 1065.4593,340.97068 1058.2593,360.87068 1056.4593,367.47068 C 1056.4593,368.67068 1058.7593,368.77068 1059.3593,368.77068 C 1060.4593,368.77068 1061.8593,368.57068 1062.8593,367.77068 C 1063.1593,367.57068 1072.9593,332.47068 1072.9593,332.47068 C 1073.3593,330.67068 1073.8593,329.07068 1073.9593,328.57068 C 1073.9593,327.57068 1072.9593,327.07068 1072.7593,326.97068 C 1072.5593,326.97068 1072.2593,326.97068 1071.6593,327.37068 C 1070.9593,327.97068 1065.9593,333.97068 1062.6593,333.97068 V 332.97068"
     id="path743" />
  <path
     class=""
     d="M 686.6383,332.97068 C 686.6383,329.27068 683.6383,326.27068 679.9383,326.27068 C 676.2383,326.27068 673.2383,329.27068 673.2383,332.97068 C 673.2383,335.07068 674.4383,336.87068 675.9383,338.07068 C 677.5383,339.17068 679.4383,339.77068 681.3383,339.77068 C 682.7383,339.77068 684.1383,339.47068 685.2383,339.07068 C 686.6383,338.67068 687.5383,338.27068 688.8383,337.57068 C 689.0383,337.47068 689.2383,337.47068 689.3383,337.47068 C 689.7383,337.47068 689.8383,337.87068 689.8383,338.37068 C 689.8383,338.67068 689.8383,339.07068 689.7383,339.47068 C 689.4383,340.97068 682.2383,360.87068 680.4383,367.47068 C 680.4383,368.67068 682.7383,368.77068 683.3383,368.77068 C 684.4383,368.77068 685.8383,368.57068 686.8383,367.77068 C 687.1383,367.57068 696.9383,332.47068 696.9383,332.47068 C 697.3383,330.67068 697.8383,329.07068 697.9383,328.57068 C 697.9383,327.57068 696.9383,327.07068 696.7383,326.97068 C 696.5383,326.97068 696.2383,326.97068 695.6383,327.37068 C 694.9383,327.97068 689.9383,333.97068 686.6383,333.97068 V 332.97068"
     id="path745" />
  <path
     class=""
     d="M 634.5733,332.97068 C 634.5733,329.27068 631.5733,326.27068 627.8733,326.27068 C 624.1733,326.27068 621.1733,329.27068 621.1733,332.97068 C 621.1733,335.07068 622.3733,336.87068 623.8733,338.07068 C 625.4733,339.17068 627.3733,339.77068 629.2733,339.77068 C 630.6733,339.77068 632.0733,339.47068 633.1733,339.07068 C 634.5733,338.67068 635.4733,338.27068 636.7733,337.57068 C 636.9733,337.47068 637.1733,337.47068 637.2733,337.47068 C 637.6733,337.47068 637.7733,337.87068 637.7733,338.37068 C 637.7733,338.67068 637.7733,339.07068 637.6733,339.47068 C 637.3733,340.97068 630.1733,360.87068 628.3733,367.47068 C 628.3733,368.67068 630.6733,368.77068 631.2733,368.77068 C 632.3733,368.77068 633.7733,368.57068 634.7733,367.77068 C 635.0733,367.57068 644.8733,332.47068 644.8733,332.47068 C 645.2733,330.67068 645.7733,329.07068 645.8733,328.57068 C 645.8733,327.57068 644.8733,327.07068 644.6733,326.97068 C 644.4733,326.97068 644.1733,326.97068 643.5733,327.37068 C 642.8733,327.97068 637.8733,333.97068 634.5733,333.97068 V 332.97068"
     id="path747" />
  <path
     class=""
     d="M 464.3703,332.97068 C 464.3703,329.27068 461.3703,326.27068 457.6703,326.27068 C 453.9703,326.27068 450.9703,329.27068 450.9703,332.97068 C 450.9703,335.07068 452.1703,336.87068 453.6703,338.07068 C 455.2703,339.17068 457.1703,339.77068 459.0703,339.77068 C 460.4703,339.77068 461.8703,339.47068 462.9703,339.07068 C 464.3703,338.67068 465.2703,338.27068 466.5703,337.57068 C 466.7703,337.47068 466.9703,337.47068 467.0703,337.47068 C 467.4703,337.47068 467.5703,337.87068 467.5703,338.37068 C 467.5703,338.67068 467.5703,339.07068 467.4703,339.47068 C 467.1703,340.97068 459.9703,360.87068 458.1703,367.47068 C 458.1703,368.67068 460.4703,368.77068 461.0703,368.77068 C 462.1703,368.77068 463.5703,368.57068 464.5703,367.77068 C 464.8703,367.57068 474.6703,332.47068 474.6703,332.47068 C 475.0703,330.67068 475.5703,329.07068 475.6703,328.57068 C 475.6703,327.57068 474.6703,327.07068 474.4703,326.97068 C 474.2703,326.97068 473.9703,326.97068 473.3703,327.37068 C 472.6703,327.97068 467.6703,333.97068 464.3703,333.97068 V 332.97068"
     id="path749" />
  <path
     class=""
     fill-rule="evenodd"
     d="M 859.3323,287.42068 H 966.4623 V 299.92068 H 859.3323 V 287.42068"
     id="path751" />
  <path
     class=""
     fill-rule="evenodd"
     d="M 755.2013,254.04668 L 810.2673,280.48668 V 294.35368 L 755.2013,267.91268 V 254.04668"
     id="path753" />
  <path
     class=""
     d="M 1040.4093,411.06868 C 1040.4093,411.06868 1043.0093,401.56868 1043.0093,393.76868 C 1043.0093,381.26868 1037.8093,369.46868 1031.5093,359.46868 C 1026.4093,351.56868 1022.2093,342.96868 1020.6093,333.36868 C 1020.3093,331.76868 1019.5093,331.16868 1017.6093,331.16868 C 1017.0093,331.16868 1016.6093,331.46868 1016.6093,332.66868 V 356.56868 C 1023.2093,357.76868 1032.7093,371.36868 1036.3093,379.86868 C 1037.8093,383.26868 1038.7093,388.96868 1038.7093,394.86868 C 1038.7093,399.36868 1038.0093,404.06868 1036.3093,408.56868 C 1036.1093,409.16868 1036.0093,409.66868 1036.0093,410.06868 C 1036.0093,411.66868 1037.0093,412.56868 1037.6093,412.96868 C 1037.7093,413.06868 1037.9093,413.06868 1038.1093,413.06868 C 1038.8093,413.06868 1040.0093,412.46868 1040.4093,411.06868"
     id="path755" />
  <path
     class=""
     d="M 1329.2493,356.17068 C 1329.2493,353.37068 1327.0493,351.17068 1324.2493,351.17068 C 1321.4493,351.17068 1319.2493,353.37068 1319.2493,356.17068 C 1319.2493,358.97068 1321.4493,361.17068 1324.2493,361.17068 C 1327.0493,361.17068 1329.2493,358.97068 1329.2493,356.17068"
     id="path757" />
  <path
     class=""
     d="M 1246.8693,431.17068 C 1246.8693,428.37068 1244.6693,426.17068 1241.8693,426.17068 C 1239.0693,426.17068 1236.8693,428.37068 1236.8693,431.17068 C 1236.8693,433.97068 1239.0693,436.17068 1241.8693,436.17068 C 1244.6693,436.17068 1246.8693,433.97068 1246.8693,431.17068"
     id="path759" />
  <path
     class=""
     d="M 334.0233,406.17068 C 334.0233,403.37068 331.8233,401.17068 329.0233,401.17068 C 326.2233,401.17068 324.0233,403.37068 324.0233,406.17068 C 324.0233,408.97068 326.2233,411.17068 329.0233,411.17068 C 331.8233,411.17068 334.0233,408.97068 334.0233,406.17068"
     id="path761" />
  <text
     xml:space="preserve"
     style="font-size:53.3333px;line-height:1.25;font-family:'Libertinus Sans';-inkscape-font-specification:'Libertinus Sans';text-align:justify;letter-spacing:0px;word-spacing:0px;white-space:pre;shape-inside:url(#rect778);fill:#008080"
     x="23.706345"
     y="58.330555"
     id="text650"
     transform="translate(20.674674,37.846682)"><tspan
       x="1"
       y="49.491199"><tspan
         dx="0 0 0 0 0 0 0 12.217898 0 0 0 12.217898">F-Dur: Das vorletzte </tspan><tspan
         dx="12.217883">♭ </tspan><tspan
         dx="12.217864 0 0 0 0 0 0 0 0 0 0 12.217883 0 0 0 0 12.217883 0 0 0 0 0 12.217883 0 0 0 12.217944 0 0 0 0 0 0 12.217944">entspricht zwar immer der Tonika einer </tspan></tspan><tspan
       x="1"
       y="116.58728"><tspan
         dx="0 0 0 0 0 0 0 0 0 0 0 4.1392088 0 0 0 0 4.1392088 0 0 0 0 0 4.1392088 0 0 0 4.1392088 0 0 0 4.1392088 0 0 0 0 0 0 0 4.1392088 0 0 0 0 0 0 0 0 0 4.1392088 0 0 0 0 0 0 0 4.1392088 0 -0.00010681152 4.1392088">Dur-Tonart aber F-Dur muß man einfach auswendig lernen, da es </tspan></tspan><tspan
       x="1"
       y="183.25391"><tspan>bei nur einem </tspan><tspan>♭ </tspan><tspan>kein vorletztes geben kann.</tspan></tspan></text>
  <metadata
     id="metadata1600">
    <rdf:RDF>
      <cc:Work
         rdf:about="">
        <dc:title>Unbenannt</dc:title>
      </cc:Work>
    </rdf:RDF>
  </metadata>
</svg>
