<?xml version="1.0" encoding="UTF-8" standalone="no"?>
<svg
   width="398.8335mm"
   height="82.440659mm"
   viewBox="0 0 1507.4022 311.58672"
   version="1.2"
   id="svg164"
   sodipodi:docname="Elgar_2_1._Satz_Kl._in_Es_Klang.svg"
   inkscape:version="1.1-dev (0486c1a, 2020-10-10)"
   xmlns:inkscape="http://www.inkscape.org/namespaces/inkscape"
   xmlns:sodipodi="http://sodipodi.sourceforge.net/DTD/sodipodi-0.dtd"
   xmlns="http://www.w3.org/2000/svg"
   xmlns:svg="http://www.w3.org/2000/svg"
   xmlns:rdf="http://www.w3.org/1999/02/22-rdf-syntax-ns#"
   xmlns:cc="http://creativecommons.org/ns#"
   xmlns:dc="http://purl.org/dc/elements/1.1/">
  <defs
     id="defs168" />
  <sodipodi:namedview
     pagecolor="#ffffff"
     bordercolor="#666666"
     borderopacity="1"
     objecttolerance="10"
     gridtolerance="10"
     guidetolerance="10"
     inkscape:pageopacity="0"
     inkscape:pageshadow="2"
     inkscape:window-width="811"
     inkscape:window-height="480"
     id="namedview166"
     showgrid="false"
     units="mm"
     lock-margins="true"
     fit-margin-top="1"
     fit-margin-left="1"
     fit-margin-right="1"
     fit-margin-bottom="1"
     inkscape:zoom="0.22235888"
     inkscape:cx="238.35342"
     inkscape:cy="395.75662"
     inkscape:window-x="160"
     inkscape:window-y="113"
     inkscape:window-maximized="0"
     inkscape:current-layer="svg164" />
  <title
     id="title8">Unbenannt</title>
  <desc
     id="desc10">Generated by MuseScore 3.5.2</desc>
  <circle
     style="fill:#00ff00;fill-opacity:1;stroke:none;stroke-width:1.9;stroke-linecap:round;stroke-linejoin:round"
     id="circle466"
     cx="859.77173"
     cy="116.98405"
     r="56.692913" />
  <circle
     style="fill:#ff5cff;fill-opacity:1;stroke:none;stroke-width:1.34991;stroke-linecap:round;stroke-linejoin:round"
     id="circle364"
     cx="148.17371"
     cy="167.3792"
     r="37.795277" />
  <circle
     style="fill:#ffbf00;fill-opacity:1;stroke:none;stroke-width:1.9;stroke-linecap:round;stroke-linejoin:round"
     id="circle261"
     cx="1417.0526"
     cy="229.4839"
     r="56.692913" />
  <circle
     style="fill:#ffbf00;fill-opacity:1;stroke:none;stroke-width:1.9;stroke-linecap:round;stroke-linejoin:round"
     id="circle259"
     cx="1034.4326"
     cy="141.9839"
     r="56.692913" />
  <circle
     style="fill:#ffbf00;fill-opacity:1;stroke:none;stroke-width:1.9;stroke-linecap:round;stroke-linejoin:round"
     id="circle1609"
     cx="260.96658"
     cy="138.15767"
     r="56.692913" />
  <path
     class=""
     stroke="#000000"
     stroke-width="2.5"
     stroke-linecap="round"
     stroke-linejoin="round"
     fill-rule="evenodd"
     d="M 1323.6027,194.48391 C 1348.9127,166.98191 1395.6327,170.10691 1417.0527,200.73391 C 1395.2327,176.09391 1348.5127,172.96891 1323.6027,194.48391"
     id="path12" />
  <path
     class=""
     stroke="#000000"
     stroke-width="2.5"
     stroke-linecap="round"
     stroke-linejoin="round"
     fill-rule="evenodd"
     d="M 543.57771,119.48391 C 547.18971,88.59541 579.77871,68.995805 608.75671,80.285 C 582.87171,74.137605 550.28171,93.73721 543.57771,119.48391"
     id="path14" />
  <path
     class=""
     stroke="#000000"
     stroke-width="2.5"
     stroke-linecap="round"
     stroke-linejoin="round"
     fill-rule="evenodd"
     d="M 1039.3627,123.23391 C 1060.1827,104.41361 1122.6327,104.41361 1143.4427,123.23391 C 1122.6327,110.41361 1060.1827,110.41361 1039.3627,123.23391"
     id="path16" />
  <path
     class=""
     stroke="#000000"
     stroke-width="2.5"
     stroke-linecap="round"
     stroke-linejoin="round"
     fill-rule="evenodd"
     d="M 717.97971,110.73421 C 729.04171,97.73421 762.22771,97.73421 773.28971,110.73421 C 762.22771,103.73421 729.04171,103.73421 717.97971,110.73421"
     id="path18" />
  <path
     class=""
     stroke="#000000"
     stroke-width="2.5"
     stroke-linecap="round"
     stroke-linejoin="round"
     fill-rule="evenodd"
     d="M 379.04471,135.73391 C 390.10671,122.73391 423.29271,122.73391 434.35471,135.73391 C 423.29271,128.73391 390.10671,128.73391 379.04471,135.73391"
     id="path20" />
  <polyline
     class=""
     stroke="#000000"
     stroke-width="4"
     stroke-linejoin="bevel"
     points="974.469,148.832 974.469,252.082"
     id="polyline22"
     transform="translate(1.2127076,16.526908)" />
  <path
     id="polyline24"
     style="stroke:#000000;stroke-width:3.25;stroke-linejoin:bevel"
     d="M 977.68171,166.98391 H 1503.6227 V 166.98391"
     class=""
     sodipodi:nodetypes="ccc" />
  <path
     id="polyline26"
     style="stroke:#000000;stroke-width:3.25;stroke-linejoin:bevel"
     d="M 977.68171,191.98391 H 1503.6227 V 191.98391"
     class=""
     sodipodi:nodetypes="ccc" />
  <path
     id="polyline28"
     style="stroke:#000000;stroke-width:3.25;stroke-linejoin:bevel"
     d="M 977.68171,216.98391 H 1503.6227 V 216.98391"
     class=""
     sodipodi:nodetypes="ccc" />
  <path
     id="polyline30"
     style="stroke:#000000;stroke-width:3.25;stroke-linejoin:bevel"
     d="M 977.68171,241.98391 H 1503.6227 V 241.98391"
     class=""
     sodipodi:nodetypes="ccc" />
  <path
     id="polyline32"
     style="stroke:#000000;stroke-width:3.25;stroke-linejoin:bevel"
     d="M 977.68171,266.98391 H 1503.6227 V 266.98391"
     class=""
     sodipodi:nodetypes="ccc" />
  <polyline
     class=""
     stroke="#000000"
     stroke-width="3.25"
     stroke-linejoin="bevel"
     points="2.56682,150.457 976.469,150.457"
     id="polyline34"
     transform="translate(1.2127076,16.526908)" />
  <polyline
     class=""
     stroke="#000000"
     stroke-width="3.25"
     stroke-linejoin="bevel"
     points="2.56682,175.457 976.469,175.457"
     id="polyline36"
     transform="translate(1.2127076,16.526908)" />
  <polyline
     class=""
     stroke="#000000"
     stroke-width="3.25"
     stroke-linejoin="bevel"
     points="2.56682,200.457 976.469,200.457"
     id="polyline38"
     transform="translate(1.2127076,16.526908)" />
  <polyline
     class=""
     stroke="#000000"
     stroke-width="3.25"
     stroke-linejoin="bevel"
     points="2.56682,225.457 976.469,225.457"
     id="polyline40"
     transform="translate(1.2127076,16.526908)" />
  <polyline
     class=""
     stroke="#000000"
     stroke-width="3.25"
     stroke-linejoin="bevel"
     points="2.56682,250.457 976.469,250.457"
     id="polyline42"
     transform="translate(1.2127076,16.526908)" />
  <path
     class=""
     d="M 1379.1127,248.98391 C 1379.2127,248.98391 1379.7127,248.88391 1379.8127,248.78391 C 1381.2127,248.18391 1386.8127,245.78391 1389.7127,245.78391 C 1390.7127,245.78391 1391.4127,246.08391 1391.4127,246.88391 V 261.78391 C 1391.4127,262.48391 1391.9127,262.98391 1392.6127,262.98391 H 1393.9127 C 1394.5127,262.98391 1395.1127,262.48391 1395.1127,261.78391 V 211.58391 C 1395.1127,211.08391 1394.7127,210.78391 1394.3127,210.78391 C 1394.2127,210.78391 1394.0127,210.78391 1393.9127,210.88391 L 1392.4127,211.38391 C 1392.2127,211.38391 1392.1127,211.48391 1392.0127,211.48391 C 1392.0127,211.48391 1385.6127,213.78391 1383.0127,213.78391 C 1382.4127,213.78391 1382.0127,213.68391 1382.0127,213.28391 V 196.58391 C 1382.0127,195.88391 1381.4127,195.38391 1380.8127,195.38391 H 1379.5127 C 1378.8127,195.38391 1378.3127,195.88391 1378.3127,196.58391 V 248.08391 C 1378.3127,248.68391 1378.6127,248.98391 1379.1127,248.98391 M 1382.0127,225.58391 C 1382.0127,224.18391 1388.1127,221.58391 1390.5127,221.58391 C 1391.1127,221.58391 1391.4127,221.68391 1391.4127,222.08391 V 232.38391 C 1391.4127,234.18391 1385.7127,236.48391 1383.2127,236.48391 C 1382.5127,236.48391 1382.0127,236.28391 1382.0127,235.88391 V 225.58391"
     id="path44" />
  <path
     class=""
     d="M 991.48171,161.48391 C 991.58171,161.48391 992.08171,161.38391 992.18171,161.28391 C 993.58171,160.68391 999.18171,158.28391 1002.0827,158.28391 C 1003.0827,158.28391 1003.7827,158.58391 1003.7827,159.38391 V 174.28391 C 1003.7827,174.98391 1004.2827,175.48391 1004.9827,175.48391 H 1006.2827 C 1006.8827,175.48391 1007.4827,174.98391 1007.4827,174.28391 V 124.08391 C 1007.4827,123.58391 1007.0827,123.28391 1006.6827,123.28391 C 1006.5827,123.28391 1006.3827,123.28391 1006.2827,123.38391 L 1004.7827,123.88391 C 1004.5827,123.88391 1004.4827,123.98391 1004.3827,123.98391 C 1004.3827,123.98391 997.98171,126.28391 995.38171,126.28391 C 994.78171,126.28391 994.38171,126.18391 994.38171,125.78391 V 109.08421 C 994.38171,108.38421 993.78171,107.88421 993.18171,107.88421 H 991.88171 C 991.18171,107.88421 990.68171,108.38421 990.68171,109.08421 V 160.58391 C 990.68171,161.18391 990.98171,161.48391 991.48171,161.48391 M 994.38171,138.08391 C 994.38171,136.68391 1000.4817,134.08391 1002.8827,134.08391 C 1003.4827,134.08391 1003.7827,134.18391 1003.7827,134.58391 V 144.88391 C 1003.7827,146.68391 998.08171,148.98391 995.58171,148.98391 C 994.88171,148.98391 994.38171,148.78391 994.38171,148.38391 V 138.08391"
     id="path46" />
  <path
     class=""
     d="M 808.72371,137.88391 C 808.82371,137.88391 809.02371,137.78391 809.12371,137.78391 C 809.12371,137.78391 810.52371,137.18391 811.42371,136.88391 C 811.52371,136.78391 811.62371,136.78391 811.72371,136.78391 C 812.42371,136.78391 812.92371,137.88391 812.92371,138.38391 V 150.68391 C 812.92371,151.28391 813.52371,151.7839 814.22371,151.7839 C 815.22371,151.7839 815.92371,151.28391 815.92371,150.68391 V 136.78391 C 815.92371,135.48391 816.42371,134.78391 816.92371,134.58391 L 823.02371,132.08391 C 823.12371,132.08391 823.32371,131.98391 823.42371,131.98391 C 824.22371,131.98391 824.72371,133.18391 824.72371,133.78391 V 146.28391 C 824.72371,146.88391 825.32371,147.38391 826.02371,147.38391 C 827.12371,147.38391 827.72371,146.88391 827.72371,146.28391 V 132.08391 C 827.72371,131.28391 828.12371,130.08391 828.82371,129.78391 C 829.52371,129.48391 831.62371,128.68391 831.62371,128.68391 C 832.32371,128.38391 832.82371,127.58391 832.82371,126.98391 V 119.88391 C 832.82371,119.38391 832.52371,119.08391 832.12371,119.08391 C 831.92371,119.08391 831.82371,119.08391 831.62371,119.18391 L 829.02371,120.18391 C 828.42371,120.18391 827.72371,119.58391 827.72371,118.38391 V 109.08421 C 827.72371,108.38421 828.22371,106.48421 829.02371,106.18421 L 831.62371,105.18421 C 832.32371,104.88421 832.82371,104.08421 832.82371,103.48421 V 96.38421 C 832.82371,95.88421 832.52371,95.58421 832.12371,95.58421 C 831.92371,95.58421 831.82371,95.58421 831.62371,95.68421 C 831.62371,95.68421 829.62371,96.48421 829.12371,96.58421 C 828.42371,96.58421 827.72371,96.08421 827.72371,95.28421 V 83.08421 C 827.72371,82.48421 827.12371,81.98421 826.32371,81.98421 C 825.32371,81.98421 824.72371,82.48421 824.72371,83.08421 V 96.08421 C 824.62371,97.08421 824.32371,98.38421 823.42371,98.98421 C 822.22371,99.68421 818.82371,101.08421 817.12371,101.48421 C 816.22371,101.48421 815.92371,100.28421 815.92371,99.48421 V 87.48421 C 815.92371,86.88421 815.22371,86.38421 814.52371,86.38421 C 813.52371,86.38421 812.92371,86.88421 812.92371,87.48421 V 100.98421 C 812.92371,102.38421 812.32371,103.38421 811.72371,103.68421 C 811.12371,103.98421 809.12371,104.78421 809.12371,104.78421 C 808.42371,104.98421 807.92371,105.78421 807.92371,106.38421 V 113.48421 C 807.92371,114.08421 808.22371,114.38421 808.72371,114.38421 C 809.12371,114.38421 811.02371,113.48421 811.32371,113.28421 C 812.32371,113.28421 812.92371,113.78421 812.92371,114.98421 V 124.88391 C 812.92371,125.98391 812.42371,126.88391 811.82371,127.18391 C 811.22371,127.38391 809.12371,128.28391 809.12371,128.28391 C 808.42371,128.48391 807.92371,129.28391 807.92371,129.88391 V 136.98391 C 807.92371,137.58391 808.22371,137.88391 808.72371,137.88391 M 815.92371,112.58421 C 816.12371,110.88421 820.72371,108.78421 823.22371,108.78421 C 823.92371,108.78421 824.52371,108.98421 824.72371,109.38421 C 824.92371,109.88421 825.12371,112.38421 825.12371,115.08421 C 825.12371,117.78391 824.92371,120.58391 824.72371,121.48391 C 824.12371,123.48391 819.42371,125.48391 817.12371,125.48391 C 816.52371,125.48391 816.02371,125.28391 815.92371,124.98391 C 815.72371,124.58391 815.62371,122.38391 815.62371,119.98391 C 815.62371,116.88391 815.72371,113.38421 815.92371,112.58421"
     id="path48" />
  <path
     class=""
     d="M 226.87671,161.48391 C 226.97671,161.48391 227.47671,161.38391 227.57671,161.28391 C 228.97671,160.68391 234.57671,158.28391 237.47671,158.28391 C 238.47671,158.28391 239.17671,158.58391 239.17671,159.38391 V 174.28391 C 239.17671,174.98391 239.67671,175.48391 240.37671,175.48391 H 241.67671 C 242.27671,175.48391 242.87671,174.98391 242.87671,174.28391 V 124.08391 C 242.87671,123.58391 242.47671,123.28391 242.07671,123.28391 C 241.97671,123.28391 241.77671,123.28391 241.67671,123.38391 L 240.17671,123.88391 C 239.97671,123.88391 239.87671,123.98391 239.77671,123.98391 C 239.77671,123.98391 233.37671,126.28391 230.77671,126.28391 C 230.17671,126.28391 229.77671,126.18391 229.77671,125.78391 V 109.08421 C 229.77671,108.38421 229.17671,107.88421 228.57671,107.88421 H 227.27671 C 226.57671,107.88421 226.07671,108.38421 226.07671,109.08421 V 160.58391 C 226.07671,161.18391 226.37671,161.48391 226.87671,161.48391 M 229.77671,138.08391 C 229.77671,136.68391 235.87671,134.08391 238.27671,134.08391 C 238.87671,134.08391 239.17671,134.18391 239.17671,134.58391 V 144.88391 C 239.17671,146.68391 233.47671,148.98391 230.97671,148.98391 C 230.27671,148.98391 229.77671,148.78391 229.77671,148.38391 V 138.08391"
     id="path50" />
  <polyline
     class=""
     stroke="#000000"
     stroke-width="4"
     stroke-linecap="square"
     stroke-linejoin="bevel"
     points="1125.72,125.457 1168.62,125.457"
     id="polyline52"
     transform="translate(1.2127076,16.526908)" />
  <polyline
     class=""
     stroke="#000000"
     stroke-width="4"
     stroke-linecap="square"
     stroke-linejoin="bevel"
     points="1011.77,125.457 1054.66,125.457"
     id="polyline54"
     transform="translate(1.2127076,16.526908)" />
  <polyline
     class=""
     stroke="#000000"
     stroke-width="4"
     stroke-linecap="square"
     stroke-linejoin="bevel"
     points="902.289,125.457 945.187,125.457"
     id="polyline56"
     transform="translate(1.2127076,16.526908)" />
  <polyline
     class=""
     stroke="#000000"
     stroke-width="4"
     stroke-linecap="square"
     stroke-linejoin="bevel"
     points="902.289,100.457 945.187,100.457"
     id="polyline58"
     transform="translate(1.2127076,16.526908)" />
  <polyline
     class=""
     stroke="#000000"
     stroke-width="4"
     stroke-linecap="square"
     stroke-linejoin="bevel"
     points="837.109,125.457 880.008,125.457"
     id="polyline60"
     transform="translate(1.2127076,16.526908)" />
  <polyline
     class=""
     stroke="#000000"
     stroke-width="4"
     stroke-linecap="square"
     stroke-linejoin="bevel"
     points="837.109,100.457 880.008,100.457"
     id="polyline62"
     transform="translate(1.2127076,16.526908)" />
  <polyline
     class=""
     stroke="#000000"
     stroke-width="4"
     stroke-linecap="square"
     stroke-linejoin="bevel"
     points="755.562,125.457 798.461,125.457"
     id="polyline64"
     transform="translate(1.2127076,16.526908)" />
  <polyline
     class=""
     stroke="#000000"
     stroke-width="4"
     stroke-linecap="square"
     stroke-linejoin="bevel"
     points="690.383,125.457 733.281,125.457"
     id="polyline66"
     transform="translate(1.2127076,16.526908)" />
  <polyline
     class=""
     stroke="#000000"
     stroke-width="4"
     stroke-linecap="square"
     stroke-linejoin="bevel"
     points="520.915,125.457 563.814,125.457"
     id="polyline68"
     transform="translate(1.2127076,16.526908)" />
  <polyline
     class=""
     stroke="#000000"
     stroke-width="4"
     stroke-linecap="square"
     stroke-linejoin="bevel"
     points="586.095,125.457 628.994,125.457"
     id="polyline70"
     transform="translate(1.2127076,16.526908)" />
  <polyline
     class=""
     stroke="#000000"
     stroke-width="4"
     stroke-linecap="square"
     stroke-linejoin="bevel"
     points="586.095,100.457 628.994,100.457"
     id="polyline72"
     transform="translate(1.2127076,16.526908)" />
  <polyline
     class=""
     stroke="#000000"
     stroke-width="4"
     stroke-linecap="square"
     stroke-linejoin="bevel"
     points="247.161,125.457 290.059,125.457"
     id="polyline74"
     transform="translate(1.2127076,16.526908)" />
  <polyline
     class=""
     stroke="#000000"
     stroke-width="3"
     stroke-linecap="round"
     stroke-linejoin="bevel"
     points="1430.79,209.597 1430.79,131.707"
     id="polyline76"
     transform="translate(1.2127076,16.526908)" />
  <polyline
     class=""
     stroke="#000000"
     stroke-width="3"
     stroke-linecap="round"
     stroke-linejoin="bevel"
     points="1307.44,203.817 1307.44,278.582"
     id="polyline78"
     transform="translate(1.2127076,16.526908)" />
  <polyline
     class=""
     stroke="#000000"
     stroke-width="3"
     stroke-linecap="round"
     stroke-linejoin="bevel"
     points="1190.63,141.317 1190.63,253.582"
     id="polyline80"
     transform="translate(1.2127076,16.526908)" />
  <polyline
     class=""
     stroke="#000000"
     stroke-width="3"
     stroke-linecap="round"
     stroke-linejoin="bevel"
     points="1249.03,191.317 1249.03,269.207"
     id="polyline82"
     transform="translate(1.2127076,16.526908)" />
  <polyline
     class=""
     stroke="#000000"
     stroke-width="3"
     stroke-linecap="round"
     stroke-linejoin="bevel"
     points="1132.22,128.817 1132.22,237.957"
     id="polyline84"
     transform="translate(1.2127076,16.526908)" />
  <polyline
     class=""
     stroke="#000000"
     stroke-width="3"
     stroke-linecap="round"
     stroke-linejoin="bevel"
     points="1018.27,128.817 1018.27,212.957"
     id="polyline86"
     transform="translate(1.2127076,16.526908)" />
  <polyline
     class=""
     stroke="#000000"
     stroke-width="3"
     stroke-linecap="round"
     stroke-linejoin="bevel"
     points="908.789,91.3173 908.789,175.457"
     id="polyline88"
     transform="translate(1.2127076,16.526908)" />
  <polyline
     class=""
     stroke="#000000"
     stroke-width="3"
     stroke-linecap="round"
     stroke-linejoin="bevel"
     points="843.609,103.817 843.609,178.234"
     id="polyline90"
     transform="translate(1.2127076,16.526908)" />
  <polyline
     class=""
     stroke="#000000"
     stroke-width="3"
     stroke-linecap="round"
     stroke-linejoin="bevel"
     points="762.062,116.317 762.062,181.707"
     id="polyline92"
     transform="translate(1.2127076,16.526908)" />
  <polyline
     class=""
     stroke="#000000"
     stroke-width="3"
     stroke-linecap="round"
     stroke-linejoin="bevel"
     points="696.883,116.317 696.883,200.457"
     id="polyline94"
     transform="translate(1.2127076,16.526908)" />
  <polyline
     class=""
     stroke="#000000"
     stroke-width="3"
     stroke-linecap="round"
     stroke-linejoin="bevel"
     points="527.415,128.817 527.415,212.957"
     id="polyline96"
     transform="translate(1.2127076,16.526908)" />
  <polyline
     class=""
     stroke="#000000"
     stroke-width="3"
     stroke-linecap="round"
     stroke-linejoin="bevel"
     points="592.595,103.817 592.595,200.457"
     id="polyline98"
     transform="translate(1.2127076,16.526908)" />
  <polyline
     class=""
     stroke="#000000"
     stroke-width="3"
     stroke-linecap="round"
     stroke-linejoin="bevel"
     points="423.128,141.317 423.128,225.457"
     id="polyline100"
     transform="translate(1.2127076,16.526908)" />
  <polyline
     class=""
     stroke="#000000"
     stroke-width="3"
     stroke-linecap="round"
     stroke-linejoin="bevel"
     points="357.948,141.317 357.948,225.457"
     id="polyline102"
     transform="translate(1.2127076,16.526908)" />
  <polyline
     class=""
     stroke="#000000"
     stroke-width="3"
     stroke-linecap="round"
     stroke-linejoin="bevel"
     points="253.661,128.817 253.661,212.957"
     id="polyline104"
     transform="translate(1.2127076,16.526908)" />
  <path
     class=""
     d="M 1411.4027,243.48391 C 1421.3027,243.48391 1433.5027,234.28391 1433.5027,224.78391 C 1433.5027,219.18391 1429.0027,215.48391 1422.6027,215.48391 C 1410.4027,215.48391 1400.6027,224.58391 1400.6027,234.18391 C 1400.6027,239.98391 1405.4027,243.48391 1411.4027,243.48391"
     id="path106" />
  <path
     class=""
     d="M 1317.9527,230.98391 C 1327.8527,230.98391 1340.0527,221.78391 1340.0527,212.28391 C 1340.0527,206.68391 1335.5527,202.98391 1329.1527,202.98391 C 1316.9527,202.98391 1307.1527,212.08391 1307.1527,221.68391 C 1307.1527,227.48391 1311.9527,230.98391 1317.9527,230.98391"
     id="path108" />
  <path
     class=""
     d="M 1201.1427,168.48391 C 1211.0427,168.48391 1223.2427,159.28391 1223.2427,149.78391 C 1223.2427,144.18391 1218.7427,140.48391 1212.3427,140.48391 C 1200.1427,140.48391 1190.3427,149.58391 1190.3427,159.18391 C 1190.3427,164.98391 1195.1427,168.48391 1201.1427,168.48391"
     id="path110" />
  <path
     class=""
     d="M 1259.5427,218.48391 C 1269.4427,218.48391 1281.6427,209.28391 1281.6427,199.78391 C 1281.6427,194.18391 1277.1427,190.48391 1270.7427,190.48391 C 1258.5427,190.48391 1248.7427,199.58391 1248.7427,209.18391 C 1248.7427,214.98391 1253.5427,218.48391 1259.5427,218.48391"
     id="path112" />
  <path
     class=""
     d="M 1142.7327,155.9839 C 1152.6327,155.9839 1164.8327,146.78391 1164.8327,137.28391 C 1164.8327,131.68391 1160.3327,127.98391 1153.9327,127.98391 C 1141.7327,127.98391 1131.9327,137.08391 1131.9327,146.68391 C 1131.9327,152.4839 1136.7327,155.9839 1142.7327,155.9839"
     id="path114" />
  <path
     class=""
     d="M 1028.7827,155.9839 C 1038.6827,155.9839 1050.8827,146.78391 1050.8827,137.28391 C 1050.8827,131.68391 1046.3827,127.98391 1039.9827,127.98391 C 1027.7827,127.98391 1017.9827,137.08391 1017.9827,146.68391 C 1017.9827,152.4839 1022.7827,155.9839 1028.7827,155.9839"
     id="path116" />
  <path
     class=""
     d="M 919.30171,118.48391 C 929.20171,118.48391 941.40171,109.28421 941.40171,99.78421 C 941.40171,94.18421 936.90171,90.48421 930.50171,90.48421 C 918.30171,90.48421 908.50171,99.58421 908.50171,109.18421 C 908.50171,114.98421 913.30171,118.48391 919.30171,118.48391"
     id="path118" />
  <path
     class=""
     d="M 854.12171,130.98391 C 864.02171,130.98391 876.22171,121.78391 876.22171,112.28421 C 876.22171,106.68421 871.72171,102.98421 865.32171,102.98421 C 853.12171,102.98421 843.32171,112.08421 843.32171,121.68391 C 843.32171,127.48391 848.12171,130.98391 854.12171,130.98391"
     id="path120" />
  <path
     class=""
     d="M 772.57471,143.48391 C 782.47471,143.48391 794.67471,134.28391 794.67471,124.78391 C 794.67471,119.18391 790.17471,115.48421 783.77471,115.48421 C 771.57471,115.48421 761.77471,124.58391 761.77471,134.18391 C 761.77471,139.98391 766.57471,143.48391 772.57471,143.48391"
     id="path122" />
  <path
     class=""
     d="M 707.39571,143.48391 C 717.29571,143.48391 729.49571,134.28391 729.49571,124.78391 C 729.49571,119.18391 724.99571,115.48421 718.59571,115.48421 C 706.39571,115.48421 696.59571,124.58391 696.59571,134.18391 C 696.59571,139.98391 701.39571,143.48391 707.39571,143.48391"
     id="path124" />
  <path
     class=""
     d="M 537.92771,155.9839 C 547.82771,155.9839 560.02771,146.78391 560.02771,137.28391 C 560.02771,131.68391 555.52771,127.98391 549.12771,127.98391 C 536.92771,127.98391 527.12771,137.08391 527.12771,146.68391 C 527.12771,152.4839 531.92771,155.9839 537.92771,155.9839"
     id="path126" />
  <path
     class=""
     d="M 603.10771,130.98391 C 613.00771,130.98391 625.20771,121.78391 625.20771,112.28421 C 625.20771,106.68421 620.70771,102.98421 614.30771,102.98421 C 602.10771,102.98421 592.30771,112.08421 592.30771,121.68391 C 592.30771,127.48391 597.10771,130.98391 603.10771,130.98391"
     id="path128" />
  <path
     class=""
     d="M 433.64071,168.48391 C 443.54071,168.48391 455.74071,159.28391 455.74071,149.78391 C 455.74071,144.18391 451.24071,140.48391 444.84071,140.48391 C 432.64071,140.48391 422.84071,149.58391 422.84071,159.18391 C 422.84071,164.98391 427.64071,168.48391 433.64071,168.48391"
     id="path130" />
  <path
     class=""
     d="M 368.46071,168.48391 C 378.36071,168.48391 390.56071,159.28391 390.56071,149.78391 C 390.56071,144.18391 386.06071,140.48391 379.66071,140.48391 C 367.46071,140.48391 357.66071,149.58391 357.66071,159.18391 C 357.66071,164.98391 362.46071,168.48391 368.46071,168.48391"
     id="path132" />
  <path
     class=""
     d="M 264.17371,155.9839 C 274.07371,155.9839 286.27371,146.78391 286.27371,137.28391 C 286.27371,131.68391 281.77371,127.98391 275.37371,127.98391 C 263.17371,127.98391 253.37371,137.08391 253.37371,146.68391 C 253.37371,152.4839 258.17371,155.9839 264.17371,155.9839"
     id="path134" />
  <path
     class=""
     d="M 70.779508,147.68391 C 74.079508,147.68391 76.779508,150.38391 76.779508,155.8839 C 76.779508,166.98391 67.279508,175.98391 59.379508,182.88391 C 59.079508,183.08391 58.879508,183.28391 58.679508,183.28391 C 58.379508,183.28391 58.179508,182.88391 58.079508,182.08391 C 57.679508,179.48391 57.479508,176.08391 57.479508,172.88391 C 57.479508,157.28391 64.679508,147.68391 70.779508,147.68391 M 66.779508,231.68391 C 66.579508,230.58391 66.679508,230.28391 67.479508,230.28391 C 67.579508,230.28391 67.779508,230.28391 67.879508,230.28391 C 75.979508,230.98391 82.679508,237.78391 82.679508,246.58391 C 82.679508,252.88391 78.879508,257.98391 73.279508,260.78391 C 72.779508,260.98391 72.479508,261.18391 72.279508,261.18391 C 71.879508,261.18391 71.779508,260.88391 71.679508,260.18391 L 66.779508,231.68391 M 59.879508,215.78391 C 60.179508,217.68391 60.179508,217.58391 58.379508,218.18391 C 49.579508,221.18391 43.879508,229.08391 43.879508,237.58391 C 43.879508,246.58391 48.579508,252.98391 55.379508,255.28391 C 56.179508,255.58391 57.379508,255.88391 58.079508,255.88391 C 58.879508,255.88391 59.279508,255.38391 59.279508,254.78391 C 59.279508,254.08391 58.479508,253.78391 57.779508,253.48391 C 53.579508,251.68391 50.579508,247.38391 50.579508,242.78391 C 50.579508,237.08391 54.479508,232.78391 60.579508,231.08391 C 61.079508,230.98391 61.479508,230.88391 61.779508,230.88391 C 62.279508,230.88391 62.479508,231.18391 62.579508,231.88391 L 67.579508,261.68391 C 67.779508,262.78391 67.679508,262.78391 66.179508,263.08391 C 64.579508,263.38391 62.579508,263.58391 60.579508,263.58391 C 43.079508,263.58391 31.779508,253.88391 31.779508,239.98391 C 31.779508,222.98391 44.279508,212.38391 56.379508,202.58391 C 56.779508,202.28391 57.079508,202.08391 57.279508,202.08391 C 57.579508,202.08391 57.679508,202.38391 57.779508,202.98391 L 59.879508,215.78391 M 61.379508,200.48391 C 61.179508,199.28391 61.379508,199.18391 61.979508,198.58391 C 72.779508,188.48391 80.979508,175.78391 80.979508,160.48391 C 80.979508,151.7839 78.579508,143.18391 74.479508,137.18391 C 72.979508,134.98391 70.379508,132.18391 69.279508,132.18391 C 67.879508,132.18391 64.779508,134.78391 62.779508,136.98391 C 55.379508,145.18391 52.979508,157.68391 52.979508,168.08391 C 52.979508,173.88391 53.679508,180.38391 54.379508,184.48391 C 54.579508,185.68391 54.679508,185.88391 53.479508,186.88391 C 39.079508,198.78391 23.779508,213.08391 23.779508,233.28391 C 23.779508,250.68391 35.679508,267.18391 60.179508,267.18391 C 62.479508,267.18391 65.079508,266.98391 67.079508,266.58391 C 67.479508,266.48391 67.679508,266.48391 67.879508,266.48391 C 68.279508,266.48391 68.479508,266.68391 68.579508,267.48391 C 69.779508,274.18391 71.279508,282.88391 71.279508,287.58391 C 71.279508,302.38391 61.279508,304.18391 55.379508,304.18391 C 49.979508,304.18391 47.379508,302.58391 47.379508,301.28391 C 47.379508,300.58391 48.279508,300.28391 50.579508,299.58391 C 53.679508,298.68391 57.279508,295.98391 57.279508,290.18391 C 57.279508,284.68391 53.779508,279.98391 47.679508,279.98391 C 40.979508,279.98391 36.979508,285.28391 36.979508,291.48391 C 36.979508,297.98391 40.879508,307.78391 55.979508,307.78391 C 62.679508,307.78391 75.679508,304.78391 75.679508,287.78391 C 75.679508,282.08391 73.879508,272.58391 72.779508,266.38391 C 72.579508,265.18391 72.679508,265.28391 74.079508,264.68391 C 84.179508,260.68391 90.879508,252.18391 90.879508,240.88391 C 90.879508,228.08391 81.479508,216.78391 66.779508,216.78391 C 64.179508,216.78391 64.179508,216.78391 63.879508,214.98391 L 61.379508,200.48391"
     id="path136" />
  <path
     class=""
     d="M 170.57371,237.58391 C 170.57371,237.58391 170.27371,231.58391 170.27371,227.58391 C 170.27371,225.98391 170.37371,224.78391 170.47371,224.38391 C 171.17371,222.38391 175.17371,219.48391 177.47371,219.48391 C 180.37371,219.48391 181.57371,222.78391 181.57371,225.28391 C 181.57371,230.68391 176.97371,236.08391 172.67371,238.78391 C 172.27371,238.98391 171.97371,239.08391 171.67371,239.08391 C 170.77371,239.08391 170.57371,238.08391 170.57371,237.58391 M 167.07371,246.48391 C 167.37371,246.88391 167.67371,246.98391 167.97371,246.98391 C 168.27371,246.98391 168.57371,246.78391 168.57371,246.78391 C 171.57371,245.08391 173.97371,242.38391 176.47371,240.68391 C 185.37371,234.48391 188.47371,228.38391 188.47371,223.78391 C 188.47371,218.08391 184.07371,214.48391 179.47371,214.18391 C 177.77371,214.18391 175.37371,214.98391 173.97371,215.88391 C 173.37371,216.38391 172.27371,217.28391 171.77371,217.28391 C 171.57371,217.28391 171.47371,217.28391 171.27371,217.18391 C 170.57371,216.88391 170.17371,216.18391 170.17371,215.48391 C 170.27371,213.28391 170.87371,189.28391 170.87371,187.28391 C 170.87371,186.18391 169.97371,185.58391 168.97371,185.58391 C 167.57371,185.58391 165.97371,186.58391 165.87371,188.38391 C 165.87371,188.38391 166.27371,245.48391 167.07371,246.48391"
     id="path138" />
  <path
     class=""
     d="M 145.57371,187.58391 C 145.57371,187.58391 145.27371,181.58391 145.27371,177.58391 C 145.27371,175.98391 145.37371,174.78391 145.47371,174.38391 C 146.17371,172.38391 150.17371,169.48391 152.47371,169.48391 C 155.37371,169.48391 156.57371,172.78391 156.57371,175.28391 C 156.57371,180.68391 151.97371,186.08391 147.67371,188.78391 C 147.27371,188.98391 146.97371,189.08391 146.67371,189.08391 C 145.77371,189.08391 145.57371,188.08391 145.57371,187.58391 M 142.07371,196.48391 C 142.37371,196.88391 142.67371,196.98391 142.97371,196.98391 C 143.27371,196.98391 143.57371,196.78391 143.57371,196.78391 C 146.57371,195.08391 148.97371,192.38391 151.47371,190.68391 C 160.37371,184.48391 163.47371,178.38391 163.47371,173.78391 C 163.47371,168.08391 159.07371,164.48391 154.47371,164.18391 C 152.77371,164.18391 150.37371,164.98391 148.97371,165.88391 C 148.37371,166.38391 147.27371,167.28391 146.77371,167.28391 C 146.57371,167.28391 146.47371,167.28391 146.27371,167.18391 C 145.57371,166.88391 145.17371,166.18391 145.17371,165.48391 C 145.27371,163.28391 145.87371,139.28391 145.87371,137.28391 C 145.87371,136.18391 144.97371,135.58391 143.97371,135.58391 C 142.57371,135.58391 140.97371,136.58391 140.87371,138.38391 C 140.87371,138.38391 141.27371,195.48391 142.07371,196.48391"
     id="path140" />
  <path
     class=""
     d="M 120.57371,225.08391 C 120.57371,225.08391 120.27371,219.08391 120.27371,215.08391 C 120.27371,213.48391 120.37371,212.28391 120.47371,211.88391 C 121.17371,209.88391 125.17371,206.98391 127.47371,206.98391 C 130.37371,206.98391 131.57371,210.28391 131.57371,212.78391 C 131.57371,218.18391 126.97371,223.58391 122.67371,226.28391 C 122.27371,226.48391 121.97371,226.58391 121.67371,226.58391 C 120.77371,226.58391 120.57371,225.58391 120.57371,225.08391 M 117.07371,233.98391 C 117.37371,234.38391 117.67371,234.48391 117.97371,234.48391 C 118.27371,234.48391 118.57371,234.28391 118.57371,234.28391 C 121.57371,232.58391 123.97371,229.88391 126.47371,228.18391 C 135.37371,221.98391 138.47371,215.88391 138.47371,211.28391 C 138.47371,205.58391 134.07371,201.98391 129.47371,201.68391 C 127.77371,201.68391 125.37371,202.48391 123.97371,203.38391 C 123.37371,203.88391 122.27371,204.78391 121.77371,204.78391 C 121.57371,204.78391 121.47371,204.78391 121.27371,204.68391 C 120.57371,204.38391 120.17371,203.68391 120.17371,202.98391 C 120.27371,200.78391 120.87371,176.78391 120.87371,174.78391 C 120.87371,173.68391 119.97371,173.08391 118.97371,173.08391 C 117.57371,173.08391 115.97371,174.08391 115.87371,175.88391 C 115.87371,175.88391 116.27371,232.98391 117.07371,233.98391"
     id="path142" />
  <path
     class=""
     d="M 929.16371,79.4834 C 929.16371,77.183405 927.26371,75.283405 924.96371,75.283405 C 922.66371,75.283405 920.76371,77.183405 920.76371,79.4834 C 920.76371,81.78341 922.66371,83.68341 924.96371,83.68341 C 927.26371,83.68341 929.16371,81.78341 929.16371,79.4834"
     id="path144" />
  <path
     class=""
     d="M 863.98371,91.98341 C 863.98371,89.68341 862.08371,87.78341 859.78371,87.78341 C 857.48371,87.78341 855.58371,89.68341 855.58371,91.98341 C 855.58371,94.28341 857.48371,96.18341 859.78371,96.18341 C 862.08371,96.18341 863.98371,94.28341 863.98371,91.98341"
     id="path146" />
  <path
     class=""
     d="M 612.96971,91.98341 C 612.96971,89.68341 611.06971,87.78341 608.76971,87.78341 C 606.46971,87.78341 604.56971,89.68341 604.56971,91.98341 C 604.56971,94.28341 606.46971,96.18341 608.76971,96.18341 C 611.06971,96.18341 612.96971,94.28341 612.96971,91.98341"
     id="path148" />
  <path
     class=""
     fill-rule="evenodd"
     d="M 1131.9327,248.01491 L 1251.7427,280.06691 V 293.00691 L 1131.9327,260.95391 V 248.01491"
     id="path150" />
  <path
     class=""
     fill-rule="evenodd"
     d="M 761.77471,191.97891 L 911.50171,185.60091 V 198.11191 L 761.77471,204.48991 V 191.97891"
     id="path152" />
  <path
     class=""
     d="M 1454.3027,228.13291 C 1454.3027,228.13291 1456.9027,218.63291 1456.9027,210.83291 C 1456.9027,198.33291 1451.7027,186.53291 1445.4027,176.53291 C 1440.3027,168.63291 1436.1027,160.03291 1434.5027,150.43291 C 1434.2027,148.83291 1433.4027,148.23291 1431.5027,148.23291 C 1430.9027,148.23291 1430.5027,148.53291 1430.5027,149.73291 V 173.63291 C 1437.1027,174.83291 1446.6027,188.43291 1450.2027,196.93291 C 1451.7027,200.33291 1452.6027,206.03291 1452.6027,211.93291 C 1452.6027,216.43291 1451.9027,221.13291 1450.2027,225.63291 C 1450.0027,226.23291 1449.9027,226.73291 1449.9027,227.13291 C 1449.9027,228.73291 1450.9027,229.63291 1451.5027,230.03291 C 1451.6027,230.13291 1451.8027,230.13291 1452.0027,230.13291 C 1452.7027,230.13291 1453.9027,229.53291 1454.3027,228.13291"
     id="path154" />
  <path
     class=""
     d="M 720.59571,139.48391 C 721.99571,143.68391 722.69571,148.68391 722.69571,153.1839 C 722.69571,159.08391 720.19571,167.48391 718.69571,170.88391 C 714.99571,179.28391 709.99571,187.38391 696.59571,191.88391 V 215.38391 C 696.59571,216.58391 697.09571,216.88391 697.69571,216.88391 C 699.59571,216.88391 700.39571,216.28391 700.59571,214.68391 C 702.29571,205.18391 709.69571,196.48391 714.79571,188.58391 C 721.09571,178.68391 727.19571,166.78391 727.19571,154.2839 C 727.19571,146.48391 725.19571,139.38391 724.39571,136.18391 C 724.09571,135.08391 723.49571,134.68391 722.79571,134.68391 C 721.29571,134.68391 719.59571,136.58391 720.59571,139.48391"
     id="path156" />
  <path
     class=""
     d="M 551.12771,151.9839 C 552.52771,156.1839 553.22771,161.18391 553.22771,165.68391 C 553.22771,171.58391 550.72771,179.98391 549.22771,183.38391 C 545.52771,191.78391 540.52771,199.88391 527.12771,204.38391 V 227.88391 C 527.12771,229.08391 527.62771,229.38391 528.22771,229.38391 C 530.12771,229.38391 530.92771,228.78391 531.12771,227.18391 C 532.82771,217.68391 540.22771,208.98391 545.32771,201.08391 C 551.62771,191.18391 557.72771,179.28391 557.72771,166.78391 C 557.72771,158.98391 555.72771,151.8839 554.92771,148.68391 C 554.62771,147.58391 554.02771,147.18391 553.32771,147.18391 C 551.82771,147.18391 550.12771,149.08391 551.12771,151.9839"
     id="path158" />
  <path
     class=""
     d="M 381.66071,164.48391 C 383.06071,168.68391 383.76071,173.68391 383.76071,178.18391 C 383.76071,184.08391 381.26071,192.48391 379.76071,195.88391 C 376.06071,204.28391 371.06071,212.38391 357.66071,216.88391 V 240.38391 C 357.66071,241.58391 358.16071,241.88391 358.76071,241.88391 C 360.66071,241.88391 361.46071,241.28391 361.66071,239.68391 C 363.36071,230.18391 370.76071,221.48391 375.86071,213.58391 C 382.16071,203.68391 388.26071,191.78391 388.26071,179.28391 C 388.26071,171.48391 386.26071,164.38391 385.46071,161.18391 C 385.16071,160.08391 384.56071,159.68391 383.86071,159.68391 C 382.36071,159.68391 380.66071,161.58391 381.66071,164.48391"
     id="path160" />
  <path
     class=""
     d="M 1069.6227,129.48391 C 1069.6227,126.68391 1067.4227,124.48391 1064.6227,124.48391 C 1061.8227,124.48391 1059.6227,126.68391 1059.6227,129.48391 C 1059.6227,132.28391 1061.8227,134.48391 1064.6227,134.48391 C 1067.4227,134.48391 1069.6227,132.28391 1069.6227,129.48391"
     id="path162" />
  <metadata
     id="metadata268">
    <rdf:RDF>
      <cc:Work
         rdf:about="">
        <dc:title>Unbenannt</dc:title>
      </cc:Work>
    </rdf:RDF>
  </metadata>
  <text
     xml:space="preserve"
     style="font-size:53.3333px;line-height:1.25;font-family:'Libertinus Sans';-inkscape-font-specification:'Libertinus Sans';letter-spacing:0px;word-spacing:0px;fill:#ff00ff"
     x="-1.2338028"
     y="43.024292"
     id="text650"><tspan
       sodipodi:role="line"
       id="tspan648"
       x="-1.2338028"
       y="43.024292">Es-Dur: Das vorletzte ♭ entspricht der Tonika einer Dur-Tonart.</tspan></text>
</svg>
