<?xml version="1.0" encoding="UTF-8" standalone="no"?>
<svg
   width="1474px"
   height="359px"
   viewBox="0 0 1474 359"
   version="1.2"
   id="svg134"
   sodipodi:docname="Elgar_2_Anfang_B-Kl._in_B_Klang.svg"
   inkscape:version="1.1-dev (0486c1a, 2020-10-10)"
   xmlns:inkscape="http://www.inkscape.org/namespaces/inkscape"
   xmlns:sodipodi="http://sodipodi.sourceforge.net/DTD/sodipodi-0.dtd"
   xmlns="http://www.w3.org/2000/svg"
   xmlns:svg="http://www.w3.org/2000/svg">
  <defs
     id="defs138" />
  <sodipodi:namedview
     pagecolor="#ffffff"
     bordercolor="#666666"
     borderopacity="1"
     objecttolerance="10"
     gridtolerance="10"
     guidetolerance="10"
     inkscape:pageopacity="0"
     inkscape:pageshadow="2"
     inkscape:window-width="839"
     inkscape:window-height="480"
     id="namedview136"
     showgrid="false"
     inkscape:zoom="0.14238073"
     inkscape:cx="814.71702"
     inkscape:cy="84.281071"
     inkscape:window-x="0"
     inkscape:window-y="23"
     inkscape:window-maximized="0"
     inkscape:current-layer="svg134" />
  <title
     id="title8">Unbenannt</title>
  <desc
     id="desc10">Generated by MuseScore 3.5.2</desc>
  <circle
     style="fill:#ff5cff;fill-opacity:1;stroke:none;stroke-width:1.34991;stroke-linecap:round;stroke-linejoin:round"
     id="circle364"
     cx="186.29781"
     cy="147.78105"
     r="37.795277" />
  <path
     class=""
     stroke="#000000"
     stroke-width="2.50"
     stroke-linecap="round"
     stroke-linejoin="round"
     fill-rule="evenodd"
     d="M946.831,112.507 C984.192,87.5036 1040.8,103.129 1060.04,143.757 C1039.2,108.912 982.595,93.2873 946.831,112.507"
     id="path12" />
  <path
     class=""
     stroke="#000000"
     stroke-width="2.50"
     stroke-linecap="round"
     stroke-linejoin="round"
     fill-rule="evenodd"
     d="M777.016,87.5068 C819.532,67.8253 876.137,92.8253 890.226,137.507 C873.713,98.3139 817.108,73.3139 777.016,87.5068"
     id="path14" />
  <path
     class=""
     stroke="#000000"
     stroke-width="2.50"
     stroke-linecap="round"
     stroke-linejoin="round"
     fill-rule="evenodd"
     d="M1008.37,169.757 C1017.72,156.757 1045.76,156.757 1055.11,169.757 C1045.76,162.757 1017.72,162.757 1008.37,169.757"
     id="path16" />
  <path
     class=""
     stroke="#000000"
     stroke-width="2.50"
     stroke-linecap="round"
     stroke-linejoin="round"
     fill-rule="evenodd"
     d="M838.556,141.257 C847.903,128.257 875.944,128.257 885.291,141.257 C875.944,134.257 847.903,134.257 838.556,141.257"
     id="path18" />
  <path
     class=""
     stroke="#000000"
     stroke-width="2.50"
     stroke-linecap="round"
     stroke-linejoin="round"
     fill-rule="evenodd"
     d="M323.877,222.154 C342.478,233.291 398.281,233.291 416.882,222.154 C398.281,239.291 342.478,239.291 323.877,222.154"
     id="path20" />
  <polyline
     class=""
     stroke="#000000"
     stroke-width="4.00"
     stroke-linejoin="bevel"
     points="529.79,120.882 529.79,224.132"
     id="polyline22" />
  <path
     id="polyline24"
     style="stroke:#000000;stroke-width:3.25;stroke-linejoin:bevel"
     d="M 1224.64,122.507 L 1462.7995,122.507"
     class=""
     sodipodi:nodetypes="cc" />
  <path
     id="polyline26"
     style="stroke:#000000;stroke-width:3.25;stroke-linejoin:bevel"
     d="M 1224.64,147.507 L 1462.7995,147.507"
     class=""
     sodipodi:nodetypes="cc" />
  <path
     id="polyline28"
     style="stroke:#000000;stroke-width:3.25;stroke-linejoin:bevel"
     d="M 1224.64,172.507 L 1462.7995,172.507"
     class=""
     sodipodi:nodetypes="cc" />
  <path
     id="polyline30"
     style="stroke:#000000;stroke-width:3.25;stroke-linejoin:bevel"
     d="M 1224.64,197.507 L 1462.7995,197.507"
     class=""
     sodipodi:nodetypes="cc" />
  <path
     id="polyline32"
     style="stroke:#000000;stroke-width:3.25;stroke-linejoin:bevel"
     d="M 1224.64,222.507 L 1462.7995,222.507"
     class=""
     sodipodi:nodetypes="cc" />
  <polyline
     class=""
     stroke="#000000"
     stroke-width="3.25"
     stroke-linejoin="bevel"
     points="531.79,122.507 1224.64,122.507"
     id="polyline34" />
  <polyline
     class=""
     stroke="#000000"
     stroke-width="3.25"
     stroke-linejoin="bevel"
     points="531.79,147.507 1224.64,147.507"
     id="polyline36" />
  <polyline
     class=""
     stroke="#000000"
     stroke-width="3.25"
     stroke-linejoin="bevel"
     points="531.79,172.507 1224.64,172.507"
     id="polyline38" />
  <polyline
     class=""
     stroke="#000000"
     stroke-width="3.25"
     stroke-linejoin="bevel"
     points="531.79,197.507 1224.64,197.507"
     id="polyline40" />
  <polyline
     class=""
     stroke="#000000"
     stroke-width="3.25"
     stroke-linejoin="bevel"
     points="531.79,222.507 1224.64,222.507"
     id="polyline42" />
  <polyline
     class=""
     stroke="#000000"
     stroke-width="3.25"
     stroke-linejoin="bevel"
     points="38.5951,122.507 531.79,122.507"
     id="polyline44" />
  <polyline
     class=""
     stroke="#000000"
     stroke-width="3.25"
     stroke-linejoin="bevel"
     points="38.5951,147.507 531.79,147.507"
     id="polyline46" />
  <polyline
     class=""
     stroke="#000000"
     stroke-width="3.25"
     stroke-linejoin="bevel"
     points="38.5951,172.507 531.79,172.507"
     id="polyline48" />
  <polyline
     class=""
     stroke="#000000"
     stroke-width="3.25"
     stroke-linejoin="bevel"
     points="38.5951,197.507 531.79,197.507"
     id="polyline50" />
  <polyline
     class=""
     stroke="#000000"
     stroke-width="3.25"
     stroke-linejoin="bevel"
     points="38.5951,222.507 531.79,222.507"
     id="polyline52" />
  <polyline
     class=""
     stroke="#000000"
     stroke-width="4.00"
     stroke-linecap="square"
     stroke-linejoin="bevel"
     points="1393.05,97.5068 1435.95,97.5068"
     id="polyline54" />
  <polyline
     class=""
     stroke="#000000"
     stroke-width="3.00"
     stroke-linecap="round"
     stroke-linejoin="bevel"
     points="1399.55,88.3668 1399.55,172.507"
     id="polyline56" />
  <polyline
     class=""
     stroke="#000000"
     stroke-width="3.00"
     stroke-linecap="round"
     stroke-linejoin="bevel"
     points="1325.35,150.867 1325.35,231.882"
     id="polyline58" />
  <polyline
     class=""
     stroke="#000000"
     stroke-width="3.00"
     stroke-linecap="round"
     stroke-linejoin="bevel"
     points="1281.04,206.647 1281.04,122.507"
     id="polyline60" />
  <polyline
     class=""
     stroke="#000000"
     stroke-width="3.00"
     stroke-linecap="round"
     stroke-linejoin="bevel"
     points="1074.99,194.147 1074.99,113.132"
     id="polyline62" />
  <polyline
     class=""
     stroke="#000000"
     stroke-width="3.00"
     stroke-linecap="round"
     stroke-linejoin="bevel"
     points="931.882,138.367 931.882,260.007"
     id="polyline64" />
  <polyline
     class=""
     stroke="#000000"
     stroke-width="3.00"
     stroke-linecap="round"
     stroke-linejoin="bevel"
     points="988.486,200.867 988.486,272.507"
     id="polyline66" />
  <polyline
     class=""
     stroke="#000000"
     stroke-width="3.00"
     stroke-linecap="round"
     stroke-linejoin="bevel"
     points="875.277,163.367 875.277,247.507"
     id="polyline68" />
  <polyline
     class=""
     stroke="#000000"
     stroke-width="3.00"
     stroke-linecap="round"
     stroke-linejoin="bevel"
     points="762.067,113.367 762.067,203.757"
     id="polyline70" />
  <polyline
     class=""
     stroke="#000000"
     stroke-width="3.00"
     stroke-linecap="round"
     stroke-linejoin="bevel"
     points="818.672,163.367 818.672,228.757"
     id="polyline72" />
  <polyline
     class=""
     stroke="#000000"
     stroke-width="3.00"
     stroke-linecap="round"
     stroke-linejoin="bevel"
     points="558.29,163.367 558.29,241.257"
     id="polyline74" />
  <polyline
     class=""
     stroke="#000000"
     stroke-width="3.00"
     stroke-linecap="round"
     stroke-linejoin="bevel"
     points="436.766,194.147 436.766,113.132"
     id="polyline76" />
  <polyline
     class=""
     stroke="#000000"
     stroke-width="3.00"
     stroke-linecap="round"
     stroke-linejoin="bevel"
     points="333.892,194.147 333.892,113.132"
     id="polyline78" />
  <path
     class=""
     d="M1408.85,99.0068 C1418.75,99.0068 1430.95,89.8068 1430.95,80.3068 C1430.95,74.7068 1426.45,71.0068 1420.05,71.0068 C1407.85,71.0068 1398.05,80.1068 1398.05,89.7068 C1398.05,95.5068 1402.85,99.0068 1408.85,99.0068"
     id="path80" />
  <path
     class=""
     d="M1334.65,161.507 C1344.55,161.507 1356.75,152.307 1356.75,142.807 C1356.75,137.207 1352.25,133.507 1345.85,133.507 C1333.65,133.507 1323.85,142.607 1323.85,152.207 C1323.85,158.007 1328.65,161.507 1334.65,161.507"
     id="path82" />
  <path
     class=""
     d="M1260.44,224.007 C1270.34,224.007 1282.54,214.807 1282.54,205.307 C1282.54,199.707 1278.04,196.007 1271.64,196.007 C1259.44,196.007 1249.64,205.107 1249.64,214.707 C1249.64,220.507 1254.44,224.007 1260.44,224.007"
     id="path84" />
  <path
     class=""
     d="M1054.39,211.507 C1064.29,211.507 1076.49,202.307 1076.49,192.807 C1076.49,187.207 1071.99,183.507 1065.59,183.507 C1053.39,183.507 1043.59,192.607 1043.59,202.207 C1043.59,208.007 1048.39,211.507 1054.39,211.507"
     id="path86" />
  <path
     class=""
     d="M941.182,149.007 C951.082,149.007 963.282,139.807 963.282,130.307 C963.282,124.707 958.782,121.007 952.382,121.007 C940.182,121.007 930.382,130.107 930.382,139.707 C930.382,145.507 935.182,149.007 941.182,149.007"
     id="path88" />
  <path
     class=""
     d="M997.786,211.507 C1007.69,211.507 1019.89,202.307 1019.89,192.807 C1019.89,187.207 1015.39,183.507 1008.99,183.507 C996.786,183.507 986.986,192.607 986.986,202.207 C986.986,208.007 991.786,211.507 997.786,211.507"
     id="path90" />
  <path
     class=""
     d="M884.577,174.007 C894.477,174.007 906.677,164.807 906.677,155.307 C906.677,149.707 902.177,146.007 895.777,146.007 C883.577,146.007 873.777,155.107 873.777,164.707 C873.777,170.507 878.577,174.007 884.577,174.007"
     id="path92" />
  <path
     class=""
     d="M771.367,124.007 C781.267,124.007 793.467,114.807 793.467,105.307 C793.467,99.7068 788.967,96.0068 782.567,96.0068 C770.367,96.0068 760.567,105.107 760.567,114.707 C760.567,120.507 765.367,124.007 771.367,124.007"
     id="path94" />
  <path
     class=""
     d="M827.972,174.007 C837.872,174.007 850.072,164.807 850.072,155.307 C850.072,149.707 845.572,146.007 839.172,146.007 C826.972,146.007 817.172,155.107 817.172,164.707 C817.172,170.507 821.972,174.007 827.972,174.007"
     id="path96" />
  <path
     class=""
     d="M567.59,174.007 C577.49,174.007 589.69,164.807 589.69,155.307 C589.69,149.707 585.19,146.007 578.79,146.007 C566.59,146.007 556.79,155.107 556.79,164.707 C556.79,170.507 561.59,174.007 567.59,174.007"
     id="path98" />
  <path
     class=""
     d="M416.168,211.507 C426.068,211.507 438.268,202.307 438.268,192.807 C438.268,187.207 433.768,183.507 427.368,183.507 C415.168,183.507 405.368,192.607 405.368,202.207 C405.368,208.007 410.168,211.507 416.168,211.507"
     id="path100" />
  <path
     class=""
     d="M313.294,211.507 C331.694,211.507 335.394,196.507 335.394,192.907 C335.394,187.207 330.894,183.507 324.394,183.507 C307.694,183.507 302.494,196.407 302.494,202.207 C302.494,208.107 307.194,211.507 313.294,211.507 M321.794,202.607 C316.794,206.007 313.294,207.207 310.894,207.207 C308.594,207.207 307.194,206.007 306.494,204.607 C306.094,204.007 305.794,203.207 305.794,202.407 C305.794,197.007 321.894,188.107 327.194,188.107 C329.294,188.107 330.494,189.107 331.294,190.507 C331.594,191.107 331.894,191.807 331.894,192.607 C331.894,194.807 329.594,197.507 321.794,202.607"
     id="path102" />
  <path
     class=""
     d="M84.2951,121.307 C66.8951,121.307 59.0951,134.007 59.0951,143.607 C59.0951,151.607 63.2951,158.507 71.3951,158.507 C77.6951,158.507 81.9951,154.107 81.9951,147.907 C81.9951,141.507 77.2951,137.507 72.3951,137.507 C69.6951,137.507 68.6951,138.207 67.3951,138.207 C66.0951,138.207 65.7951,137.407 65.7951,136.407 C65.7951,132.407 71.7951,125.107 81.9951,125.107 C92.5951,125.107 97.1951,135.507 97.1951,151.207 C97.1951,179.107 83.3951,194.707 60.0951,208.007 C59.1951,208.507 58.5951,209.007 58.5951,209.807 C58.5951,210.407 58.9951,211.007 59.8951,211.007 C60.3951,211.007 60.9951,210.807 61.5951,210.507 C86.1951,198.507 112.195,180.707 112.195,150.307 C112.195,132.907 101.595,121.307 84.2951,121.307 M122.095,154.607 C118.995,154.607 116.695,156.907 116.695,160.007 C116.695,163.107 118.995,165.407 122.095,165.407 C125.195,165.407 127.495,163.107 127.495,160.007 C127.495,156.907 125.195,154.607 122.095,154.607 M121.995,129.507 C118.895,129.507 116.495,131.907 116.495,135.007 C116.495,138.107 118.895,140.507 121.995,140.507 C125.095,140.507 127.495,138.107 127.495,135.007 C127.495,131.907 125.095,129.507 121.995,129.507"
     id="path104" />
  <path
     class=""
     d="M207.194,218.107 C207.194,218.107 206.894,212.107 206.894,208.107 C206.894,206.507 206.994,205.307 207.094,204.907 C207.794,202.907 211.794,200.007 214.094,200.007 C216.994,200.007 218.194,203.307 218.194,205.807 C218.194,211.207 213.594,216.607 209.294,219.307 C208.894,219.507 208.594,219.607 208.294,219.607 C207.394,219.607 207.194,218.607 207.194,218.107 M203.694,227.007 C203.994,227.407 204.294,227.507 204.594,227.507 C204.894,227.507 205.194,227.307 205.194,227.307 C208.194,225.607 210.594,222.907 213.094,221.207 C221.994,215.007 225.094,208.907 225.094,204.307 C225.094,198.607 220.694,195.007 216.094,194.707 C214.394,194.707 211.994,195.507 210.594,196.407 C209.994,196.907 208.894,197.807 208.394,197.807 C208.194,197.807 208.094,197.807 207.894,197.707 C207.194,197.407 206.794,196.707 206.794,196.007 C206.894,193.807 207.494,169.807 207.494,167.807 C207.494,166.707 206.594,166.107 205.594,166.107 C204.194,166.107 202.594,167.107 202.494,168.907 C202.494,168.907 202.894,226.007 203.694,227.007"
     id="path106" />
  <path
     class=""
     d="M182.194,168.107 C182.194,168.107 181.894,162.107 181.894,158.107 C181.894,156.507 181.994,155.307 182.094,154.907 C182.794,152.907 186.794,150.007 189.094,150.007 C191.994,150.007 193.194,153.307 193.194,155.807 C193.194,161.207 188.594,166.607 184.294,169.307 C183.894,169.507 183.594,169.607 183.294,169.607 C182.394,169.607 182.194,168.607 182.194,168.107 M178.694,177.007 C178.994,177.407 179.294,177.507 179.594,177.507 C179.894,177.507 180.194,177.307 180.194,177.307 C183.194,175.607 185.594,172.907 188.094,171.207 C196.994,165.007 200.094,158.907 200.094,154.307 C200.094,148.607 195.694,145.007 191.094,144.707 C189.394,144.707 186.994,145.507 185.594,146.407 C184.994,146.907 183.894,147.807 183.394,147.807 C183.194,147.807 183.094,147.807 182.894,147.707 C182.194,147.407 181.794,146.707 181.794,146.007 C181.894,143.807 182.494,119.807 182.494,117.807 C182.494,116.707 181.594,116.107 180.594,116.107 C179.194,116.107 177.594,117.107 177.494,118.907 C177.494,118.907 177.894,176.007 178.694,177.007"
     id="path108" />
  <path
     class=""
     d="M157.194,205.607 C157.194,205.607 156.894,199.607 156.894,195.607 C156.894,194.007 156.994,192.807 157.094,192.407 C157.794,190.407 161.794,187.507 164.094,187.507 C166.994,187.507 168.194,190.807 168.194,193.307 C168.194,198.707 163.594,204.107 159.294,206.807 C158.894,207.007 158.594,207.107 158.294,207.107 C157.394,207.107 157.194,206.107 157.194,205.607 M153.694,214.507 C153.994,214.907 154.294,215.007 154.594,215.007 C154.894,215.007 155.194,214.807 155.194,214.807 C158.194,213.107 160.594,210.407 163.094,208.707 C171.994,202.507 175.094,196.407 175.094,191.807 C175.094,186.107 170.694,182.507 166.094,182.207 C164.394,182.207 161.994,183.007 160.594,183.907 C159.994,184.407 158.894,185.307 158.394,185.307 C158.194,185.307 158.094,185.307 157.894,185.207 C157.194,184.907 156.794,184.207 156.794,183.507 C156.894,181.307 157.494,157.307 157.494,155.307 C157.494,154.207 156.594,153.607 155.594,153.607 C154.194,153.607 152.594,154.607 152.494,156.407 C152.494,156.407 152.894,213.507 153.694,214.507"
     id="path110" />
  <path
     class=""
     d="M1176.14,161.807 C1176.14,158.107 1173.14,155.107 1169.44,155.107 C1165.74,155.107 1162.74,158.107 1162.74,161.807 C1162.74,163.907 1163.94,165.707 1165.44,166.907 C1167.04,168.007 1168.94,168.607 1170.84,168.607 C1172.24,168.607 1173.64,168.307 1174.74,167.907 C1176.14,167.507 1177.04,167.107 1178.34,166.407 C1178.54,166.307 1178.74,166.307 1178.84,166.307 C1179.24,166.307 1179.34,166.707 1179.34,167.207 C1179.34,167.507 1179.34,167.907 1179.24,168.307 C1178.94,169.807 1171.74,189.707 1169.94,196.307 C1169.94,197.507 1172.24,197.607 1172.84,197.607 C1173.94,197.607 1175.34,197.407 1176.34,196.607 C1176.64,196.407 1186.44,161.307 1186.44,161.307 C1186.84,159.507 1187.34,157.907 1187.44,157.407 C1187.44,156.407 1186.44,155.907 1186.24,155.807 C1186.04,155.807 1185.74,155.807 1185.14,156.207 C1184.44,156.807 1179.44,162.807 1176.14,162.807 L1176.14,161.807 "
     id="path112" />
  <path
     class=""
     d="M1119.54,161.807 C1119.54,158.107 1116.54,155.107 1112.84,155.107 C1109.14,155.107 1106.14,158.107 1106.14,161.807 C1106.14,163.907 1107.34,165.707 1108.84,166.907 C1110.44,168.007 1112.34,168.607 1114.24,168.607 C1115.64,168.607 1117.04,168.307 1118.14,167.907 C1119.54,167.507 1120.44,167.107 1121.74,166.407 C1121.94,166.307 1122.14,166.307 1122.24,166.307 C1122.64,166.307 1122.74,166.707 1122.74,167.207 C1122.74,167.507 1122.74,167.907 1122.64,168.307 C1122.34,169.807 1115.14,189.707 1113.34,196.307 C1113.34,197.507 1115.64,197.607 1116.24,197.607 C1117.34,197.607 1118.74,197.407 1119.74,196.607 C1120.04,196.407 1129.84,161.307 1129.84,161.307 C1130.24,159.507 1130.74,157.907 1130.84,157.407 C1130.84,156.407 1129.84,155.907 1129.64,155.807 C1129.44,155.807 1129.14,155.807 1128.54,156.207 C1127.84,156.807 1122.84,162.807 1119.54,162.807 L1119.54,161.807 "
     id="path114" />
  <path
     class=""
     d="M660.758,161.807 C660.758,158.107 657.758,155.107 654.058,155.107 C650.358,155.107 647.358,158.107 647.358,161.807 C647.358,163.907 648.558,165.707 650.058,166.907 C651.658,168.007 653.558,168.607 655.458,168.607 C656.858,168.607 658.258,168.307 659.358,167.907 C660.758,167.507 661.658,167.107 662.958,166.407 C663.158,166.307 663.358,166.307 663.458,166.307 C663.858,166.307 663.958,166.707 663.958,167.207 C663.958,167.507 663.958,167.907 663.858,168.307 C663.558,169.807 656.358,189.707 654.558,196.307 C654.558,197.507 656.858,197.607 657.458,197.607 C658.558,197.607 659.958,197.407 660.958,196.607 C661.258,196.407 671.058,161.307 671.058,161.307 C671.458,159.507 671.958,157.907 672.058,157.407 C672.058,156.407 671.058,155.907 670.858,155.807 C670.658,155.807 670.358,155.807 669.758,156.207 C669.058,156.807 664.058,162.807 660.758,162.807 L660.758,161.807 "
     id="path116" />
  <path
     class=""
     d="M717.362,161.807 C717.362,158.107 714.362,155.107 710.662,155.107 C706.962,155.107 703.962,158.107 703.962,161.807 C703.962,163.907 705.162,165.707 706.662,166.907 C708.262,168.007 710.162,168.607 712.062,168.607 C713.462,168.607 714.862,168.307 715.962,167.907 C717.362,167.507 718.262,167.107 719.562,166.407 C719.762,166.307 719.962,166.307 720.062,166.307 C720.462,166.307 720.562,166.707 720.562,167.207 C720.562,167.507 720.562,167.907 720.462,168.307 C720.162,169.807 712.962,189.707 711.162,196.307 C711.162,197.507 713.462,197.607 714.062,197.607 C715.162,197.607 716.562,197.407 717.562,196.607 C717.862,196.407 727.662,161.307 727.662,161.307 C728.062,159.507 728.562,157.907 728.662,157.407 C728.662,156.407 727.662,155.907 727.462,155.807 C727.262,155.807 726.962,155.807 726.362,156.207 C725.662,156.807 720.662,162.807 717.362,162.807 L717.362,161.807 "
     id="path118" />
  <path
     class=""
     d="M483.291,161.807 C483.291,158.107 480.291,155.107 476.591,155.107 C472.891,155.107 469.891,158.107 469.891,161.807 C469.891,163.907 471.091,165.707 472.591,166.907 C474.191,168.007 476.091,168.607 477.991,168.607 C479.391,168.607 480.791,168.307 481.891,167.907 C483.291,167.507 484.191,167.107 485.491,166.407 C485.691,166.307 485.891,166.307 485.991,166.307 C486.391,166.307 486.491,166.707 486.491,167.207 C486.491,167.507 486.491,167.907 486.391,168.307 C486.091,169.807 478.891,189.707 477.091,196.307 C477.091,197.507 479.391,197.607 479.991,197.607 C481.091,197.607 482.491,197.407 483.491,196.607 C483.791,196.407 493.591,161.307 493.591,161.307 C493.991,159.507 494.491,157.907 494.591,157.407 C494.591,156.407 493.591,155.907 493.391,155.807 C493.191,155.807 492.891,155.807 492.291,156.207 C491.591,156.807 486.591,162.807 483.291,162.807 L483.291,161.807 "
     id="path120" />
  <path
     class=""
     fill-rule="evenodd"
     d="M873.777,241.106 L989.986,266.769 L989.986,279.57 L873.777,253.907 L873.777,241.106 "
     id="path122" />
  <path
     class=""
     fill-rule="evenodd"
     d="M760.567,196.924 L820.172,223.249 L820.172,236.914 L760.567,210.589 L760.567,196.924 "
     id="path124" />
  <path
     class=""
     d="M1097.29,193.03 C1097.29,193.03 1099.89,183.53 1099.89,175.73 C1099.89,163.23 1094.69,151.43 1088.39,141.43 C1083.29,133.53 1079.09,124.93 1077.49,115.33 C1077.19,113.73 1076.39,113.13 1074.49,113.13 C1073.89,113.13 1073.49,113.43 1073.49,114.63 L1073.49,138.53 C1080.09,139.73 1089.59,153.33 1093.19,161.83 C1094.69,165.23 1095.59,170.93 1095.59,176.83 C1095.59,181.33 1094.89,186.03 1093.19,190.53 C1092.99,191.13 1092.89,191.63 1092.89,192.03 C1092.89,193.63 1093.89,194.53 1094.49,194.93 C1094.59,195.03 1094.79,195.03 1094.99,195.03 C1095.69,195.03 1096.89,194.43 1097.29,193.03"
     id="path126" />
  <path
     class=""
     d="M1375.5,135.007 C1375.5,132.207 1373.3,130.007 1370.5,130.007 C1367.7,130.007 1365.5,132.207 1365.5,135.007 C1365.5,137.807 1367.7,140.007 1370.5,140.007 C1373.3,140.007 1375.5,137.807 1375.5,135.007"
     id="path128" />
  <path
     class=""
     d="M1301.29,210.007 C1301.29,207.207 1299.09,205.007 1296.29,205.007 C1293.49,205.007 1291.29,207.207 1291.29,210.007 C1291.29,212.807 1293.49,215.007 1296.29,215.007 C1299.09,215.007 1301.29,212.807 1301.29,210.007"
     id="path130" />
  <path
     class=""
     d="M354.142,185.007 C354.142,182.207 351.942,180.007 349.142,180.007 C346.342,180.007 344.142,182.207 344.142,185.007 C344.142,187.807 346.342,190.007 349.142,190.007 C351.942,190.007 354.142,187.807 354.142,185.007"
     id="path132" />
  <text
     xml:space="preserve"
     style="font-size:53.3333px;line-height:1.25;font-family:'Libertinus Sans';-inkscape-font-specification:'Libertinus Sans';letter-spacing:0px;word-spacing:0px;fill:#ff00ff"
     x="33.052757"
     y="51.400444"
     id="text650"><tspan
       sodipodi:role="line"
       id="tspan648"
       x="33.052757"
       y="51.400444">Es-Dur: Das vorletzte ♭ entspricht der Tonika einer Dur-Tonart.</tspan></text>
</svg>
