<?xml version="1.0" encoding="UTF-8" standalone="no"?>
<svg
   width="1622.0404"
   height="283.60947"
   viewBox="0 0 1622.0404 283.60947"
   version="1.2"
   id="svg198"
   sodipodi:docname="Elgar_2._Sinfonie_Anfang.svg"
   inkscape:version="1.1-dev (0486c1a, 2020-10-10)"
   xmlns:inkscape="http://www.inkscape.org/namespaces/inkscape"
   xmlns:sodipodi="http://sodipodi.sourceforge.net/DTD/sodipodi-0.dtd"
   xmlns="http://www.w3.org/2000/svg"
   xmlns:svg="http://www.w3.org/2000/svg"
   xmlns:rdf="http://www.w3.org/1999/02/22-rdf-syntax-ns#"
   xmlns:cc="http://creativecommons.org/ns#"
   xmlns:dc="http://purl.org/dc/elements/1.1/">
  <defs
     id="defs202" />
  <sodipodi:namedview
     pagecolor="#ffffff"
     bordercolor="#666666"
     borderopacity="1"
     objecttolerance="10"
     gridtolerance="10"
     guidetolerance="10"
     inkscape:pageopacity="0"
     inkscape:pageshadow="2"
     inkscape:window-width="1043"
     inkscape:window-height="480"
     id="namedview200"
     showgrid="false"
     inkscape:zoom="0.47266132"
     inkscape:cx="545.84539"
     inkscape:cy="59.239034"
     inkscape:window-x="0"
     inkscape:window-y="23"
     inkscape:window-maximized="0"
     inkscape:current-layer="g1282"
     fit-margin-top="20"
     fit-margin-left="0"
     fit-margin-right="0"
     fit-margin-bottom="0" />
  <title
     id="title8">Unbenannt</title>
  <desc
     id="desc10">Generated by MuseScore 3.5.2</desc>
  <g
     id="g1282"
     transform="translate(-6.73374,4.2734667)">
    <circle
       style="fill:#ff5cff;fill-opacity:1;stroke:none;stroke-width:1.34991;stroke-linecap:round;stroke-linejoin:round"
       id="circle364"
       cx="150.79306"
       cy="139.79568"
       r="37.795277" />
    <circle
       style="fill:#00ff00;fill-opacity:1;stroke:none;stroke-width:1.9;stroke-linecap:round;stroke-linejoin:round"
       id="circle1609"
       cx="1077.0392"
       cy="131.45874"
       r="56.692913" />
    <path
       class=""
       stroke="#000000"
       stroke-width="2.5"
       stroke-linecap="round"
       stroke-linejoin="round"
       fill-rule="evenodd"
       d="M 1495.28,103.536 C 1519.2,81.108 1559,87.358 1574.9,116.036 C 1558.07,93.2854 1518.27,87.0354 1495.28,103.536"
       id="path12" />
    <path
       class=""
       stroke="#000000"
       stroke-width="2.5"
       stroke-linecap="round"
       stroke-linejoin="round"
       fill-rule="evenodd"
       d="M 904.185,103.536 C 949.842,87.632 1006.18,118.882 1016.86,166.036 C 1003.27,124.129 946.932,92.8788 904.185,103.536"
       id="path14" />
    <path
       class=""
       stroke="#000000"
       stroke-width="2.5"
       stroke-linecap="round"
       stroke-linejoin="round"
       fill-rule="evenodd"
       d="M 1242.14,41.0363 C 1298.61,1.50124 1400.3,14.0012 1445.52,66.0363 C 1399.57,19.9564 1297.88,7.45642 1242.14,41.0363"
       id="path16" />
    <path
       class=""
       stroke="#000000"
       stroke-width="2.5"
       stroke-linecap="round"
       stroke-linejoin="round"
       fill-rule="evenodd"
       d="M 1091.9,116.036 C 1101.96,94.7404 1130.13,88.4904 1148.24,103.536 C 1131.43,94.3479 1103.26,100.598 1091.9,116.036"
       id="path18" />
    <path
       class=""
       stroke="#000000"
       stroke-width="2.5"
       stroke-linecap="round"
       stroke-linejoin="round"
       fill-rule="evenodd"
       d="M 735.175,78.5363 C 777.578,58.9587 833.915,83.9587 847.848,128.536 C 831.481,89.4429 775.144,64.4429 735.175,78.5363"
       id="path20" />
    <path
       class=""
       stroke="#000000"
       stroke-width="2.5"
       stroke-linecap="round"
       stroke-linejoin="round"
       fill-rule="evenodd"
       d="M 285.277,166.036 C 320.45,106.293 418.826,75.0425 482.029,103.536 C 420.642,80.7609 322.266,112.011 285.277,166.036"
       id="path22" />
    <path
       class=""
       stroke="#000000"
       stroke-width="2.5"
       stroke-linecap="round"
       stroke-linejoin="round"
       fill-rule="evenodd"
       d="M 796.446,132.286 C 805.74,119.286 833.62,119.286 842.913,132.286 C 833.62,125.286 805.74,125.286 796.446,132.286"
       id="path24" />
    <path
       class=""
       stroke="#000000"
       stroke-width="2.5"
       stroke-linecap="round"
       stroke-linejoin="round"
       fill-rule="evenodd"
       d="M 965.456,160.786 C 974.75,147.786 1002.63,147.786 1011.92,160.786 C 1002.63,153.786 974.75,153.786 965.456,160.786"
       id="path26" />
    <path
       class=""
       stroke="#000000"
       stroke-width="2.5"
       stroke-linecap="round"
       stroke-linejoin="round"
       fill-rule="evenodd"
       d="M 1247.07,44.7863 C 1264.52,28.5299 1316.84,28.5299 1334.29,44.7863 C 1316.84,34.5299 1264.52,34.5299 1247.07,44.7863"
       id="path28" />
    <path
       class=""
       stroke="#000000"
       stroke-width="2.5"
       stroke-linecap="round"
       stroke-linejoin="round"
       fill-rule="evenodd"
       d="M 290.211,162.741 C 306.799,147.135 356.561,147.135 373.148,162.741 C 356.561,153.135 306.799,153.135 290.211,162.741"
       id="path30" />
    <path
       class=""
       stroke="#000000"
       stroke-width="2.5"
       stroke-linecap="round"
       stroke-linejoin="round"
       fill-rule="evenodd"
       d="M 383.018,160.786 C 394.003,147.786 426.96,147.786 437.945,160.786 C 426.96,153.786 394.003,153.786 383.018,160.786"
       id="path32" />
    <path
       class=""
       stroke="#000000"
       stroke-width="2.5"
       stroke-linecap="round"
       stroke-linejoin="round"
       fill-rule="evenodd"
       d="M 573.862,107.286 C 593.87,89.0799 653.895,89.0799 673.904,107.286 C 653.895,95.0799 593.87,95.0799 573.862,107.286"
       id="path34" />
    <polyline
       class=""
       stroke="#000000"
       stroke-width="3.25"
       stroke-linejoin="bevel"
       points="1193.69,138.536 1749.72,138.536"
       id="polyline36"
       transform="matrix(0.78248313,0,0,1.0064223,259.64772,-1.2112624)" />
    <polyline
       class=""
       stroke="#000000"
       stroke-width="3.25"
       stroke-linejoin="bevel"
       points="1193.69,163.536 1749.72,163.536"
       id="polyline38"
       transform="matrix(0.78248313,0,0,1.0064223,259.64772,-1.2112624)" />
    <polyline
       class=""
       stroke="#000000"
       stroke-width="3.25"
       stroke-linejoin="bevel"
       points="1193.69,188.536 1749.72,188.536"
       id="polyline40"
       transform="matrix(0.78248313,0,0,1.0064223,259.64772,-1.2112624)" />
    <polyline
       class=""
       stroke="#000000"
       stroke-width="3.25"
       stroke-linejoin="bevel"
       points="1193.69,213.536 1749.72,213.536"
       id="polyline42"
       transform="matrix(0.78248313,0,0,1.0064223,259.64772,-1.2112624)" />
    <polyline
       class=""
       stroke="#000000"
       stroke-width="3.25"
       stroke-linejoin="bevel"
       points="1193.69,238.536 1749.72,238.536"
       id="polyline44"
       transform="matrix(0.78248313,0,0,1.0064223,259.64772,-1.2112624)" />
    <polyline
       class=""
       stroke="#000000"
       stroke-width="3.25"
       stroke-linejoin="bevel"
       points="527.478,138.536 1193.69,138.536"
       id="polyline46" />
    <polyline
       class=""
       stroke="#000000"
       stroke-width="3.25"
       stroke-linejoin="bevel"
       points="527.478,163.536 1193.69,163.536"
       id="polyline48" />
    <polyline
       class=""
       stroke="#000000"
       stroke-width="3.25"
       stroke-linejoin="bevel"
       points="527.478,188.536 1193.69,188.536"
       id="polyline50" />
    <polyline
       class=""
       stroke="#000000"
       stroke-width="3.25"
       stroke-linejoin="bevel"
       points="527.478,213.536 1193.69,213.536"
       id="polyline52" />
    <polyline
       class=""
       stroke="#000000"
       stroke-width="3.25"
       stroke-linejoin="bevel"
       points="527.478,238.536 1193.69,238.536"
       id="polyline54" />
    <polyline
       class=""
       stroke="#000000"
       stroke-width="3.25"
       stroke-linejoin="bevel"
       points="6.73374,138.536 527.478,138.536"
       id="polyline56" />
    <polyline
       class=""
       stroke="#000000"
       stroke-width="3.25"
       stroke-linejoin="bevel"
       points="6.73374,163.536 527.478,163.536"
       id="polyline58" />
    <polyline
       class=""
       stroke="#000000"
       stroke-width="3.25"
       stroke-linejoin="bevel"
       points="6.73374,188.536 527.478,188.536"
       id="polyline60" />
    <polyline
       class=""
       stroke="#000000"
       stroke-width="3.25"
       stroke-linejoin="bevel"
       points="6.73374,213.536 527.478,213.536"
       id="polyline62" />
    <polyline
       class=""
       stroke="#000000"
       stroke-width="3.25"
       stroke-linejoin="bevel"
       points="6.73374,238.536 527.478,238.536"
       id="polyline64" />
    <path
       class=""
       d="M 1045.86,159.436 C 1045.96,159.436 1046.16,159.336 1046.26,159.336 C 1046.26,159.336 1047.66,158.736 1048.56,158.436 C 1048.66,158.336 1048.76,158.336 1048.86,158.336 C 1049.56,158.336 1050.06,159.436 1050.06,159.936 V 172.236 C 1050.06,172.836 1050.66,173.336 1051.36,173.336 C 1052.36,173.336 1053.06,172.836 1053.06,172.236 V 158.336 C 1053.06,157.036 1053.56,156.336 1054.06,156.136 L 1060.16,153.636 C 1060.26,153.636 1060.46,153.536 1060.56,153.536 C 1061.36,153.536 1061.86,154.736 1061.86,155.336 V 167.836 C 1061.86,168.436 1062.46,168.936 1063.16,168.936 C 1064.26,168.936 1064.86,168.436 1064.86,167.836 V 153.636 C 1064.86,152.836 1065.26,151.636 1065.96,151.336 C 1066.66,151.036 1068.76,150.236 1068.76,150.236 C 1069.46,149.936 1069.96,149.136 1069.96,148.536 V 141.436 C 1069.96,140.936 1069.66,140.636 1069.26,140.636 C 1069.06,140.636 1068.96,140.636 1068.76,140.736 L 1066.16,141.736 C 1065.56,141.736 1064.86,141.136 1064.86,139.936 V 130.636 C 1064.86,129.936 1065.36,128.036 1066.16,127.736 L 1068.76,126.736 C 1069.46,126.436 1069.96,125.636 1069.96,125.036 V 117.936 C 1069.96,117.436 1069.66,117.136 1069.26,117.136 C 1069.06,117.136 1068.96,117.136 1068.76,117.236 C 1068.76,117.236 1066.76,118.036 1066.26,118.136 C 1065.56,118.136 1064.86,117.636 1064.86,116.836 V 104.636 C 1064.86,104.036 1064.26,103.536 1063.46,103.536 C 1062.46,103.536 1061.86,104.036 1061.86,104.636 V 117.636 C 1061.76,118.636 1061.46,119.936 1060.56,120.536 C 1059.36,121.236 1055.96,122.636 1054.26,123.036 C 1053.36,123.036 1053.06,121.836 1053.06,121.036 V 109.036 C 1053.06,108.436 1052.36,107.936 1051.66,107.936 C 1050.66,107.936 1050.06,108.436 1050.06,109.036 V 122.536 C 1050.06,123.936 1049.46,124.936 1048.86,125.236 C 1048.26,125.536 1046.26,126.336 1046.26,126.336 C 1045.56,126.536 1045.06,127.336 1045.06,127.936 V 135.036 C 1045.06,135.636 1045.36,135.936 1045.86,135.936 C 1046.26,135.936 1048.16,135.036 1048.46,134.836 C 1049.46,134.836 1050.06,135.336 1050.06,136.536 V 146.436 C 1050.06,147.536 1049.56,148.436 1048.96,148.736 C 1048.36,148.936 1046.26,149.836 1046.26,149.836 C 1045.56,150.036 1045.06,150.836 1045.06,151.436 V 158.536 C 1045.06,159.136 1045.36,159.436 1045.86,159.436 M 1053.06,134.136 C 1053.26,132.436 1057.86,130.336 1060.36,130.336 C 1061.06,130.336 1061.66,130.536 1061.86,130.936 C 1062.06,131.436 1062.26,133.936 1062.26,136.636 C 1062.26,139.336 1062.06,142.136 1061.86,143.036 C 1061.26,145.036 1056.56,147.036 1054.26,147.036 C 1053.66,147.036 1053.16,146.836 1053.06,146.536 C 1052.86,146.136 1052.76,143.936 1052.76,141.536 C 1052.76,138.436 1052.86,134.936 1053.06,134.136"
       id="path66" />
    <polyline
       class=""
       stroke="#000000"
       stroke-width="4"
       stroke-linecap="square"
       stroke-linejoin="bevel"
       points="1370.92,113.536 1413.82,113.536"
       id="polyline68" />
    <polyline
       class=""
       stroke="#000000"
       stroke-width="4"
       stroke-linecap="square"
       stroke-linejoin="bevel"
       points="1424.07,113.536 1466.97,113.536"
       id="polyline70" />
    <polyline
       class=""
       stroke="#000000"
       stroke-width="4"
       stroke-linecap="square"
       stroke-linejoin="bevel"
       points="1370.92,88.5363 1413.82,88.5363"
       id="polyline72" />
    <polyline
       class=""
       stroke="#000000"
       stroke-width="4"
       stroke-linecap="square"
       stroke-linejoin="bevel"
       points="1424.07,88.5363 1466.97,88.5363"
       id="polyline74" />
    <polyline
       class=""
       stroke="#000000"
       stroke-width="4"
       stroke-linecap="square"
       stroke-linejoin="bevel"
       points="1220.69,113.536 1263.59,113.536"
       id="polyline76" />
    <polyline
       class=""
       stroke="#000000"
       stroke-width="4"
       stroke-linecap="square"
       stroke-linejoin="bevel"
       points="1317.77,113.536 1360.67,113.536"
       id="polyline78" />
    <polyline
       class=""
       stroke="#000000"
       stroke-width="4"
       stroke-linecap="square"
       stroke-linejoin="bevel"
       points="713.726,113.536 756.624,113.536"
       id="polyline80" />
    <polyline
       class=""
       stroke="#000000"
       stroke-width="4"
       stroke-linecap="square"
       stroke-linejoin="bevel"
       points="1220.69,88.5363 1263.59,88.5363"
       id="polyline82" />
    <polyline
       class=""
       stroke="#000000"
       stroke-width="4"
       stroke-linecap="square"
       stroke-linejoin="bevel"
       points="1220.69,63.5363 1263.59,63.5363"
       id="polyline84" />
    <polyline
       class=""
       stroke="#000000"
       stroke-width="4"
       stroke-linecap="square"
       stroke-linejoin="bevel"
       points="1317.77,88.5363 1360.67,88.5363"
       id="polyline86" />
    <polyline
       class=""
       stroke="#000000"
       stroke-width="4"
       stroke-linecap="square"
       stroke-linejoin="bevel"
       points="1317.77,63.5363 1360.67,63.5363"
       id="polyline88" />
    <polyline
       class=""
       stroke="#000000"
       stroke-width="3"
       stroke-linecap="round"
       stroke-linejoin="bevel"
       points="1559.95,141.896 1559.95,226.036"
       id="polyline90" />
    <polyline
       class=""
       stroke="#000000"
       stroke-width="3"
       stroke-linecap="round"
       stroke-linejoin="bevel"
       points="1480.33,129.396 1480.33,213.536"
       id="polyline92" />
    <polyline
       class=""
       stroke="#000000"
       stroke-width="3"
       stroke-linecap="round"
       stroke-linejoin="bevel"
       points="1377.42,79.3963 1377.42,185.411"
       id="polyline94" />
    <polyline
       class=""
       stroke="#000000"
       stroke-width="3"
       stroke-linecap="round"
       stroke-linejoin="bevel"
       points="1430.57,91.8963 1430.57,188.536"
       id="polyline96" />
    <polyline
       class=""
       stroke="#000000"
       stroke-width="3"
       stroke-linecap="round"
       stroke-linejoin="bevel"
       points="1001.91,191.896 1001.91,257.286"
       id="polyline98" />
    <polyline
       class=""
       stroke="#000000"
       stroke-width="3"
       stroke-linecap="round"
       stroke-linejoin="bevel"
       points="1076.96,141.896 1076.96,235.866"
       id="polyline100" />
    <polyline
       class=""
       stroke="#000000"
       stroke-width="3"
       stroke-linecap="round"
       stroke-linejoin="bevel"
       points="1133.29,129.396 1133.29,219.786"
       id="polyline102" />
    <polyline
       class=""
       stroke="#000000"
       stroke-width="3"
       stroke-linecap="round"
       stroke-linejoin="bevel"
       points="832.899,154.396 832.899,232.286"
       id="polyline104" />
    <polyline
       class=""
       stroke="#000000"
       stroke-width="3"
       stroke-linecap="round"
       stroke-linejoin="bevel"
       points="889.236,129.396 889.236,247.911"
       id="polyline106" />
    <polyline
       class=""
       stroke="#000000"
       stroke-width="3"
       stroke-linecap="round"
       stroke-linejoin="bevel"
       points="945.572,191.896 945.572,263.536"
       id="polyline108" />
    <polyline
       class=""
       stroke="#000000"
       stroke-width="3"
       stroke-linecap="round"
       stroke-linejoin="bevel"
       points="663.889,129.396 663.889,207.286"
       id="polyline110" />
    <polyline
       class=""
       stroke="#000000"
       stroke-width="3"
       stroke-linecap="round"
       stroke-linejoin="bevel"
       points="720.226,104.396 720.226,213.536"
       id="polyline112" />
    <polyline
       class=""
       stroke="#000000"
       stroke-width="3"
       stroke-linecap="round"
       stroke-linejoin="bevel"
       points="776.562,154.396 776.562,219.786"
       id="polyline114" />
    <polyline
       class=""
       stroke="#000000"
       stroke-width="3"
       stroke-linecap="round"
       stroke-linejoin="bevel"
       points="1227.19,66.8963 1227.19,188.536"
       id="polyline116" />
    <polyline
       class=""
       stroke="#000000"
       stroke-width="3"
       stroke-linecap="round"
       stroke-linejoin="bevel"
       points="1324.27,66.8963 1324.27,182.286"
       id="polyline118" />
    <polyline
       class=""
       stroke="#000000"
       stroke-width="3"
       stroke-linecap="round"
       stroke-linejoin="bevel"
       points="427.931,191.896 427.931,263.536"
       id="polyline120" />
    <polyline
       class=""
       stroke="#000000"
       stroke-width="3"
       stroke-linecap="round"
       stroke-linejoin="bevel"
       points="467.079,129.396 467.079,238.536"
       id="polyline122" />
    <polyline
       class=""
       stroke="#000000"
       stroke-width="3"
       stroke-linecap="round"
       stroke-linejoin="bevel"
       points="553.978,129.396 553.978,213.536"
       id="polyline124" />
    <polyline
       class=""
       stroke="#000000"
       stroke-width="3"
       stroke-linecap="round"
       stroke-linejoin="bevel"
       points="270.327,191.896 270.327,266.661"
       id="polyline126" />
    <polyline
       class=""
       stroke="#000000"
       stroke-width="3"
       stroke-linecap="round"
       stroke-linejoin="bevel"
       points="363.134,191.896 363.134,266.661"
       id="polyline128" />
    <path
       class=""
       d="M 1569.25,152.536 C 1579.15,152.536 1591.35,143.336 1591.35,133.836 C 1591.35,128.236 1586.85,124.536 1580.45,124.536 C 1568.25,124.536 1558.45,133.636 1558.45,143.236 C 1558.45,149.036 1563.25,152.536 1569.25,152.536"
       id="path130" />
    <path
       class=""
       d="M 1489.63,140.036 C 1499.53,140.036 1511.73,130.836 1511.73,121.336 C 1511.73,115.736 1507.23,112.036 1500.83,112.036 C 1488.63,112.036 1478.83,121.136 1478.83,130.736 C 1478.83,136.536 1483.63,140.036 1489.63,140.036"
       id="path132" />
    <path
       class=""
       d="M 1386.72,90.0363 C 1396.62,90.0363 1408.82,80.8363 1408.82,71.3363 C 1408.82,65.7363 1404.32,62.0363 1397.92,62.0363 C 1385.72,62.0363 1375.92,71.1363 1375.92,80.7363 C 1375.92,86.5363 1380.72,90.0363 1386.72,90.0363"
       id="path134" />
    <path
       class=""
       d="M 1439.87,102.536 C 1449.77,102.536 1461.97,93.3363 1461.97,83.8363 C 1461.97,78.2363 1457.47,74.5363 1451.07,74.5363 C 1438.87,74.5363 1429.07,83.6363 1429.07,93.2363 C 1429.07,99.0363 1433.87,102.536 1439.87,102.536"
       id="path136" />
    <path
       class=""
       d="M 1011.21,202.536 C 1021.11,202.536 1033.31,193.336 1033.31,183.836 C 1033.31,178.236 1028.81,174.536 1022.41,174.536 C 1010.21,174.536 1000.41,183.636 1000.41,193.236 C 1000.41,199.036 1005.21,202.536 1011.21,202.536"
       id="path138" />
    <path
       class=""
       d="M 1086.26,152.536 C 1096.16,152.536 1108.36,143.336 1108.36,133.836 C 1108.36,128.236 1103.86,124.536 1097.46,124.536 C 1085.26,124.536 1075.46,133.636 1075.46,143.236 C 1075.46,149.036 1080.26,152.536 1086.26,152.536"
       id="path140" />
    <path
       class=""
       d="M 1142.59,140.036 C 1152.49,140.036 1164.69,130.836 1164.69,121.336 C 1164.69,115.736 1160.19,112.036 1153.79,112.036 C 1141.59,112.036 1131.79,121.136 1131.79,130.736 C 1131.79,136.536 1136.59,140.036 1142.59,140.036"
       id="path142" />
    <path
       class=""
       d="M 842.199,165.036 C 852.099,165.036 864.299,155.836 864.299,146.336 C 864.299,140.736 859.799,137.036 853.399,137.036 C 841.199,137.036 831.399,146.136 831.399,155.736 C 831.399,161.536 836.199,165.036 842.199,165.036"
       id="path144" />
    <path
       class=""
       d="M 898.536,140.036 C 908.436,140.036 920.636,130.836 920.636,121.336 C 920.636,115.736 916.136,112.036 909.736,112.036 C 897.536,112.036 887.736,121.136 887.736,130.736 C 887.736,136.536 892.536,140.036 898.536,140.036"
       id="path146" />
    <path
       class=""
       d="M 954.872,202.536 C 964.772,202.536 976.972,193.336 976.972,183.836 C 976.972,178.236 972.472,174.536 966.072,174.536 C 953.872,174.536 944.072,183.636 944.072,193.236 C 944.072,199.036 948.872,202.536 954.872,202.536"
       id="path148" />
    <path
       class=""
       d="M 673.189,140.036 C 683.089,140.036 695.289,130.836 695.289,121.336 C 695.289,115.736 690.789,112.036 684.389,112.036 C 672.189,112.036 662.389,121.136 662.389,130.736 C 662.389,136.536 667.189,140.036 673.189,140.036"
       id="path150" />
    <path
       class=""
       d="M 785.862,165.036 C 795.762,165.036 807.962,155.836 807.962,146.336 C 807.962,140.736 803.462,137.036 797.062,137.036 C 784.862,137.036 775.062,146.136 775.062,155.736 C 775.062,161.536 779.862,165.036 785.862,165.036"
       id="path152" />
    <path
       class=""
       d="M 1236.49,77.5363 C 1246.39,77.5363 1258.59,68.3363 1258.59,58.8363 C 1258.59,53.2363 1254.09,49.5363 1247.69,49.5363 C 1235.49,49.5363 1225.69,58.6363 1225.69,68.2363 C 1225.69,74.0363 1230.49,77.5363 1236.49,77.5363"
       id="path154" />
    <path
       class=""
       d="M 1333.57,77.5363 C 1343.47,77.5363 1355.67,68.3363 1355.67,58.8363 C 1355.67,53.2363 1351.17,49.5363 1344.77,49.5363 C 1332.57,49.5363 1322.77,58.6363 1322.77,68.2363 C 1322.77,74.0363 1327.57,77.5363 1333.57,77.5363"
       id="path156" />
    <path
       class=""
       d="M 729.526,115.036 C 739.426,115.036 751.626,105.836 751.626,96.3363 C 751.626,90.7363 747.126,87.0363 740.726,87.0363 C 728.526,87.0363 718.726,96.1363 718.726,105.736 C 718.726,111.536 723.526,115.036 729.526,115.036"
       id="path158" />
    <path
       class=""
       d="M 437.231,202.536 C 447.131,202.536 459.331,193.336 459.331,183.836 C 459.331,178.236 454.831,174.536 448.431,174.536 C 436.231,174.536 426.431,183.636 426.431,193.236 C 426.431,199.036 431.231,202.536 437.231,202.536"
       id="path160" />
    <path
       class=""
       d="M 476.379,140.036 C 486.279,140.036 498.479,130.836 498.479,121.336 C 498.479,115.736 493.979,112.036 487.579,112.036 C 475.379,112.036 465.579,121.136 465.579,130.736 C 465.579,136.536 470.379,140.036 476.379,140.036"
       id="path162" />
    <path
       class=""
       d="M 563.278,140.036 C 573.178,140.036 585.378,130.836 585.378,121.336 C 585.378,115.736 580.878,112.036 574.478,112.036 C 562.278,112.036 552.478,121.136 552.478,130.736 C 552.478,136.536 557.278,140.036 563.278,140.036"
       id="path164" />
    <path
       class=""
       d="M 279.627,202.536 C 298.027,202.536 301.727,187.536 301.727,183.936 C 301.727,178.236 297.227,174.536 290.727,174.536 C 274.027,174.536 268.827,187.436 268.827,193.236 C 268.827,199.136 273.527,202.536 279.627,202.536 M 288.127,193.636 C 283.127,197.036 279.627,198.236 277.227,198.236 C 274.927,198.236 273.527,197.036 272.827,195.636 C 272.427,195.036 272.127,194.236 272.127,193.436 C 272.127,188.036 288.227,179.136 293.527,179.136 C 295.627,179.136 296.827,180.136 297.627,181.536 C 297.927,182.136 298.227,182.836 298.227,183.636 C 298.227,185.836 295.927,188.536 288.127,193.636"
       id="path166" />
    <path
       class=""
       d="M 372.434,202.536 C 382.334,202.536 394.534,193.336 394.534,183.836 C 394.534,178.236 390.034,174.536 383.634,174.536 C 371.434,174.536 361.634,183.636 361.634,193.236 C 361.634,199.036 366.434,202.536 372.434,202.536"
       id="path168" />
    <path
       class=""
       d="M 73.7337,119.236 C 77.0337,119.236 79.7337,121.936 79.7337,127.436 C 79.7337,138.536 70.2337,147.536 62.3337,154.436 C 62.0337,154.636 61.8337,154.836 61.6337,154.836 C 61.3337,154.836 61.1337,154.436 61.0337,153.636 C 60.6337,151.036 60.4337,147.636 60.4337,144.436 C 60.4337,128.836 67.6337,119.236 73.7337,119.236 M 69.7337,203.236 C 69.5337,202.136 69.6337,201.836 70.4337,201.836 C 70.5337,201.836 70.7337,201.836 70.8337,201.836 C 78.9337,202.536 85.6337,209.336 85.6337,218.136 C 85.6337,224.436 81.8337,229.536 76.2337,232.336 C 75.7337,232.536 75.4337,232.736 75.2337,232.736 C 74.8337,232.736 74.7337,232.436 74.6337,231.736 L 69.7337,203.236 M 62.8337,187.336 C 63.1337,189.236 63.1337,189.136 61.3337,189.736 C 52.5337,192.736 46.8337,200.636 46.8337,209.136 C 46.8337,218.136 51.5337,224.536 58.3337,226.836 C 59.1337,227.136 60.3337,227.436 61.0337,227.436 C 61.8337,227.436 62.2337,226.936 62.2337,226.336 C 62.2337,225.636 61.4337,225.336 60.7337,225.036 C 56.5337,223.236 53.5337,218.936 53.5337,214.336 C 53.5337,208.636 57.4337,204.336 63.5337,202.636 C 64.0337,202.536 64.4337,202.436 64.7337,202.436 C 65.2337,202.436 65.4337,202.736 65.5337,203.436 L 70.5337,233.236 C 70.7337,234.336 70.6337,234.336 69.1337,234.636 C 67.5337,234.936 65.5337,235.136 63.5337,235.136 C 46.0337,235.136 34.7337,225.436 34.7337,211.536 C 34.7337,194.536 47.2337,183.936 59.3337,174.136 C 59.7337,173.836 60.0337,173.636 60.2337,173.636 C 60.5337,173.636 60.6337,173.936 60.7337,174.536 L 62.8337,187.336 M 64.3337,172.036 C 64.1337,170.836 64.3337,170.736 64.9337,170.136 C 75.7337,160.036 83.9337,147.336 83.9337,132.036 C 83.9337,123.336 81.5337,114.736 77.4337,108.736 C 75.9337,106.536 73.3337,103.736 72.2337,103.736 C 70.8337,103.736 67.7337,106.336 65.7337,108.536 C 58.3337,116.736 55.9337,129.236 55.9337,139.636 C 55.9337,145.436 56.6337,151.936 57.3337,156.036 C 57.5337,157.236 57.6337,157.436 56.4337,158.436 C 42.0337,170.336 26.7337,184.636 26.7337,204.836 C 26.7337,222.236 38.6337,238.736 63.1337,238.736 C 65.4337,238.736 68.0337,238.536 70.0337,238.136 C 70.4337,238.036 70.6337,238.036 70.8337,238.036 C 71.2337,238.036 71.4337,238.236 71.5337,239.036 C 72.7337,245.736 74.2337,254.436 74.2337,259.136 C 74.2337,273.936 64.2337,275.736 58.3337,275.736 C 52.9337,275.736 50.3337,274.136 50.3337,272.836 C 50.3337,272.136 51.2337,271.836 53.5337,271.136 C 56.6337,270.236 60.2337,267.536 60.2337,261.736 C 60.2337,256.236 56.7337,251.536 50.6337,251.536 C 43.9337,251.536 39.9337,256.836 39.9337,263.036 C 39.9337,269.536 43.8337,279.336 58.9337,279.336 C 65.6337,279.336 78.6337,276.336 78.6337,259.336 C 78.6337,253.636 76.8337,244.136 75.7337,237.936 C 75.5337,236.736 75.6337,236.836 77.0337,236.236 C 87.1337,232.236 93.8337,223.736 93.8337,212.436 C 93.8337,199.636 84.4337,188.336 69.7337,188.336 C 67.1337,188.336 67.1337,188.336 66.8337,186.536 L 64.3337,172.036"
       id="path170" />
    <path
       class=""
       d="M 173.527,209.136 C 173.527,209.136 173.227,203.136 173.227,199.136 C 173.227,197.536 173.327,196.336 173.427,195.936 C 174.127,193.936 178.127,191.036 180.427,191.036 C 183.327,191.036 184.527,194.336 184.527,196.836 C 184.527,202.236 179.927,207.636 175.627,210.336 C 175.227,210.536 174.927,210.636 174.627,210.636 C 173.727,210.636 173.527,209.636 173.527,209.136 M 170.027,218.036 C 170.327,218.436 170.627,218.536 170.927,218.536 C 171.227,218.536 171.527,218.336 171.527,218.336 C 174.527,216.636 176.927,213.936 179.427,212.236 C 188.327,206.036 191.427,199.936 191.427,195.336 C 191.427,189.636 187.027,186.036 182.427,185.736 C 180.727,185.736 178.327,186.536 176.927,187.436 C 176.327,187.936 175.227,188.836 174.727,188.836 C 174.527,188.836 174.427,188.836 174.227,188.736 C 173.527,188.436 173.127,187.736 173.127,187.036 C 173.227,184.836 173.827,160.836 173.827,158.836 C 173.827,157.736 172.927,157.136 171.927,157.136 C 170.527,157.136 168.927,158.136 168.827,159.936 C 168.827,159.936 169.227,217.036 170.027,218.036"
       id="path172" />
    <path
       class=""
       d="M 148.527,159.136 C 148.527,159.136 148.227,153.136 148.227,149.136 C 148.227,147.536 148.327,146.336 148.427,145.936 C 149.127,143.936 153.127,141.036 155.427,141.036 C 158.327,141.036 159.527,144.336 159.527,146.836 C 159.527,152.236 154.927,157.636 150.627,160.336 C 150.227,160.536 149.927,160.636 149.627,160.636 C 148.727,160.636 148.527,159.636 148.527,159.136 M 145.027,168.036 C 145.327,168.436 145.627,168.536 145.927,168.536 C 146.227,168.536 146.527,168.336 146.527,168.336 C 149.527,166.636 151.927,163.936 154.427,162.236 C 163.327,156.036 166.427,149.936 166.427,145.336 C 166.427,139.636 162.027,136.036 157.427,135.736 C 155.727,135.736 153.327,136.536 151.927,137.436 C 151.327,137.936 150.227,138.836 149.727,138.836 C 149.527,138.836 149.427,138.836 149.227,138.736 C 148.527,138.436 148.127,137.736 148.127,137.036 C 148.227,134.836 148.827,110.836 148.827,108.836 C 148.827,107.736 147.927,107.136 146.927,107.136 C 145.527,107.136 143.927,108.136 143.827,109.936 C 143.827,109.936 144.227,167.036 145.027,168.036"
       id="path174" />
    <path
       class=""
       d="M 123.527,196.636 C 123.527,196.636 123.227,190.636 123.227,186.636 C 123.227,185.036 123.327,183.836 123.427,183.436 C 124.127,181.436 128.127,178.536 130.427,178.536 C 133.327,178.536 134.527,181.836 134.527,184.336 C 134.527,189.736 129.927,195.136 125.627,197.836 C 125.227,198.036 124.927,198.136 124.627,198.136 C 123.727,198.136 123.527,197.136 123.527,196.636 M 120.027,205.536 C 120.327,205.936 120.627,206.036 120.927,206.036 C 121.227,206.036 121.527,205.836 121.527,205.836 C 124.527,204.136 126.927,201.436 129.427,199.736 C 138.327,193.536 141.427,187.436 141.427,182.836 C 141.427,177.136 137.027,173.536 132.427,173.236 C 130.727,173.236 128.327,174.036 126.927,174.936 C 126.327,175.436 125.227,176.336 124.727,176.336 C 124.527,176.336 124.427,176.336 124.227,176.236 C 123.527,175.936 123.127,175.236 123.127,174.536 C 123.227,172.336 123.827,148.336 123.827,146.336 C 123.827,145.236 122.927,144.636 121.927,144.636 C 120.527,144.636 118.927,145.636 118.827,147.436 C 118.827,147.436 119.227,204.536 120.027,205.536"
       id="path176" />
    <path
       class=""
       fill-rule="evenodd"
       d="M 1322.77,176.025 L 1432.07,182.452 V 194.973 L 1322.77,188.547 V 176.025"
       id="path178" />
    <path
       class=""
       fill-rule="evenodd"
       d="M 1000.41,250.787 L 1134.79,212.43 V 225.43 L 1000.41,263.786 V 250.787"
       id="path180" />
    <path
       class=""
       fill-rule="evenodd"
       d="M 831.399,225.8 L 947.072,257.882 V 270.854 L 831.399,238.772 V 225.8"
       id="path182" />
    <path
       class=""
       fill-rule="evenodd"
       d="M 662.389,200.998 L 778.062,213.831 V 226.407 L 662.389,213.575 V 200.998"
       id="path184" />
    <path
       class=""
       fill-rule="evenodd"
       d="M 426.431,256.481 L 468.579,229.566 V 243.675 L 426.431,270.591 V 256.481"
       id="path186" />
    <path
       class=""
       fill-rule="evenodd"
       d="M 426.431,240.856 L 468.579,213.941 V 228.05 L 426.431,254.966 V 240.856"
       id="path188" />
    <path
       class=""
       d="M 1582.45,148.536 C 1583.85,152.736 1584.55,157.736 1584.55,162.236 C 1584.55,168.136 1582.05,176.536 1580.55,179.936 C 1576.85,188.336 1571.85,196.436 1558.45,200.936 V 224.436 C 1558.45,225.636 1558.95,225.936 1559.55,225.936 C 1561.45,225.936 1562.25,225.336 1562.45,223.736 C 1564.15,214.236 1571.55,205.536 1576.65,197.636 C 1582.95,187.736 1589.05,175.836 1589.05,163.336 C 1589.05,155.536 1587.05,148.436 1586.25,145.236 C 1585.95,144.136 1585.35,143.736 1584.65,143.736 C 1583.15,143.736 1581.45,145.636 1582.45,148.536"
       id="path190" />
    <path
       class=""
       d="M 1277.34,51.0363 C 1277.34,48.2363 1275.14,46.0363 1272.34,46.0363 C 1269.54,46.0363 1267.34,48.2363 1267.34,51.0363 C 1267.34,53.8363 1269.54,56.0363 1272.34,56.0363 C 1275.14,56.0363 1277.34,53.8363 1277.34,51.0363"
       id="path192" />
    <path
       class=""
       d="M 604.126,126.036 C 604.126,123.236 601.926,121.036 599.126,121.036 C 596.326,121.036 594.126,123.236 594.126,126.036 C 594.126,128.836 596.326,131.036 599.126,131.036 C 601.926,131.036 604.126,128.836 604.126,126.036"
       id="path194" />
    <path
       class=""
       d="M 320.476,176.036 C 320.476,173.236 318.276,171.036 315.476,171.036 C 312.676,171.036 310.476,173.236 310.476,176.036 C 310.476,178.836 312.676,181.036 315.476,181.036 C 318.276,181.036 320.476,178.836 320.476,176.036"
       id="path196" />
    <text
       xml:space="preserve"
       style="font-size:42.6667px;line-height:1.25;font-family:'Libertinus Sans';-inkscape-font-specification:'Libertinus Sans';letter-spacing:0px;word-spacing:0px;fill:#ff00ff"
       x="15.169298"
       y="45.507889"
       id="text1183"><tspan
         sodipodi:role="line"
         id="tspan1181"
         x="15.169298"
         y="45.507889">Es-Dur: Das vorletzte ♭ entspricht der Tonika einer Dur-Tonart</tspan></text>
  </g>
  <metadata
     id="metadata2184">
    <rdf:RDF>
      <cc:Work
         rdf:about="">
        <dc:title>Unbenannt</dc:title>
      </cc:Work>
    </rdf:RDF>
  </metadata>
</svg>
