<?xml version="1.0" encoding="UTF-8" standalone="no"?>
<svg
   width="398.37802mm"
   height="82.440659mm"
   viewBox="0 0 1505.6808 311.58672"
   version="1.2"
   id="svg624"
   sodipodi:docname="Elgar_2_1._Satz_Kl._in_Es_notiert.svg"
   inkscape:version="1.1-dev (0486c1a, 2020-10-10)"
   xmlns:inkscape="http://www.inkscape.org/namespaces/inkscape"
   xmlns:sodipodi="http://sodipodi.sourceforge.net/DTD/sodipodi-0.dtd"
   xmlns="http://www.w3.org/2000/svg"
   xmlns:svg="http://www.w3.org/2000/svg"
   xmlns:rdf="http://www.w3.org/1999/02/22-rdf-syntax-ns#"
   xmlns:cc="http://creativecommons.org/ns#"
   xmlns:dc="http://purl.org/dc/elements/1.1/">
  <defs
     id="defs628" />
  <sodipodi:namedview
     pagecolor="#ffffff"
     bordercolor="#666666"
     borderopacity="1"
     objecttolerance="10"
     gridtolerance="10"
     guidetolerance="10"
     inkscape:pageopacity="0"
     inkscape:pageshadow="2"
     inkscape:window-width="779"
     inkscape:window-height="480"
     id="namedview626"
     showgrid="false"
     units="mm"
     lock-margins="true"
     fit-margin-top="1"
     fit-margin-left="1"
     fit-margin-right="1"
     fit-margin-bottom="1"
     inkscape:zoom="0.36317501"
     inkscape:cx="93.618775"
     inkscape:cy="181.73056"
     inkscape:window-x="-108"
     inkscape:window-y="23"
     inkscape:window-maximized="0"
     inkscape:current-layer="svg624" />
  <title
     id="title494">Unbenannt</title>
  <desc
     id="desc496">Generated by MuseScore 3.5.2</desc>
  <circle
     style="fill:#00ff00;fill-opacity:1;stroke:none;stroke-width:1.9;stroke-linecap:round;stroke-linejoin:round"
     id="circle466"
     cx="801.41748"
     cy="133.30542"
     r="56.692913" />
  <circle
     style="fill:#ffbf00;fill-opacity:1;stroke:none;stroke-width:1.9;stroke-linecap:round;stroke-linejoin:round"
     id="circle261"
     cx="1413.3833"
     cy="244.04124"
     r="56.692913" />
  <circle
     style="fill:#ffbf00;fill-opacity:1;stroke:none;stroke-width:1.9;stroke-linecap:round;stroke-linejoin:round"
     id="circle259"
     cx="976.07837"
     cy="158.30527"
     r="56.692913" />
  <circle
     style="fill:#ffbf00;fill-opacity:1;stroke:none;stroke-width:1.9;stroke-linecap:round;stroke-linejoin:round"
     id="circle1609"
     cx="189.70306"
     cy="154.47903"
     r="56.692913" />
  <path
     class=""
     stroke="#000000"
     stroke-width="2.5"
     stroke-linecap="round"
     stroke-linejoin="round"
     fill-rule="evenodd"
     d="M 1315.6693,254.40821 C 1338.6293,282.91121 1390.6293,289.16121 1419.6793,266.90821 C 1389.9093,295.11821 1337.9093,288.86821 1315.6693,254.40821"
     id="path498" />
  <path
     class=""
     stroke="#000000"
     stroke-width="2.5"
     stroke-linecap="round"
     stroke-linejoin="round"
     fill-rule="evenodd"
     d="M 489.1573,134.40821 C 493.3543,102.88051 527.0353,83.280807 556.5193,95.208507 C 530.0523,88.466707 496.3723,108.06621 489.1573,134.40821"
     id="path500" />
  <path
     class=""
     stroke="#000000"
     stroke-width="2.5"
     stroke-linecap="round"
     stroke-linejoin="round"
     fill-rule="evenodd"
     d="M 998.7603,138.15821 C 1022.1493,117.38021 1092.3293,117.38021 1115.7193,138.15821 C 1092.3293,123.38021 1022.1493,123.38021 998.7603,138.15821"
     id="path502" />
  <path
     class=""
     stroke="#000000"
     stroke-width="2.5"
     stroke-linecap="round"
     stroke-linejoin="round"
     fill-rule="evenodd"
     d="M 669.2313,125.65821 C 680.7303,112.65821 715.2253,112.65821 726.7233,125.65821 C 715.2253,118.65821 680.7303,118.65821 669.2313,125.65821"
     id="path504" />
  <path
     class=""
     stroke="#000000"
     stroke-width="2.5"
     stroke-linecap="round"
     stroke-linejoin="round"
     fill-rule="evenodd"
     d="M 318.9533,150.65821 C 330.4513,137.65821 364.9463,137.65821 376.4453,150.65821 C 364.9463,143.65821 330.4513,143.65821 318.9533,150.65821"
     id="path506" />
  <path
     id="polyline508"
     style="stroke:#000000;stroke-width:3.25;stroke-linejoin:bevel"
     d="M 933.9783,156.90821 V 156.90821 H 1501.9011 V 156.90821"
     class=""
     sodipodi:nodetypes="cccc" />
  <path
     id="polyline510"
     style="stroke:#000000;stroke-width:3.25;stroke-linejoin:bevel"
     d="M 933.9783,181.90821 V 181.90821 H 1501.9011 V 181.90821"
     class=""
     sodipodi:nodetypes="cccc" />
  <path
     id="polyline512"
     style="stroke:#000000;stroke-width:3.25;stroke-linejoin:bevel"
     d="M 933.9783,206.90821 V 206.90821 H 1501.9011 V 206.90821"
     class=""
     sodipodi:nodetypes="cccc" />
  <path
     id="polyline514"
     style="stroke:#000000;stroke-width:3.25;stroke-linejoin:bevel"
     d="M 933.9783,231.90821 V 231.90821 H 1501.9011 V 231.90821"
     class=""
     sodipodi:nodetypes="cccc" />
  <path
     id="polyline516"
     style="stroke:#000000;stroke-width:3.25;stroke-linejoin:bevel"
     d="M 933.9783,256.90821 V 256.90821 H 1501.9011 V 256.90821"
     class=""
     sodipodi:nodetypes="cccc" />
  <polyline
     class=""
     stroke="#000000"
     stroke-width="3.25"
     stroke-linejoin="bevel"
     points="-6.44024,150.148 917.739,150.148"
     id="polyline518"
     transform="translate(16.239294,6.7602092)" />
  <polyline
     class=""
     stroke="#000000"
     stroke-width="3.25"
     stroke-linejoin="bevel"
     points="-6.44024,175.148 917.739,175.148"
     id="polyline520"
     transform="translate(16.239294,6.7602092)" />
  <polyline
     class=""
     stroke="#000000"
     stroke-width="3.25"
     stroke-linejoin="bevel"
     points="-6.44024,200.148 917.739,200.148"
     id="polyline522"
     transform="translate(16.239294,6.7602092)" />
  <polyline
     class=""
     stroke="#000000"
     stroke-width="3.25"
     stroke-linejoin="bevel"
     points="-6.44024,225.148 917.739,225.148"
     id="polyline524"
     transform="translate(16.239294,6.7602092)" />
  <polyline
     class=""
     stroke="#000000"
     stroke-width="3.25"
     stroke-linejoin="bevel"
     points="-6.44024,250.148 917.739,250.148"
     id="polyline526"
     transform="translate(16.239294,6.7602092)" />
  <path
     class=""
     d="M 1373.6393,265.30821 C 1373.7393,265.30821 1373.9393,265.20821 1374.0393,265.20821 C 1374.0393,265.20821 1375.4393,264.60821 1376.3393,264.30821 C 1376.4393,264.20821 1376.5393,264.20821 1376.6393,264.20821 C 1377.3393,264.20821 1377.8393,265.30821 1377.8393,265.80821 V 278.10821 C 1377.8393,278.70821 1378.4393,279.20821 1379.1393,279.20821 C 1380.1393,279.20821 1380.8393,278.70821 1380.8393,278.10821 V 264.20821 C 1380.8393,262.90821 1381.3393,262.20821 1381.8393,262.00821 L 1387.9393,259.50821 C 1388.0393,259.50821 1388.2393,259.40821 1388.3393,259.40821 C 1389.1393,259.40821 1389.6393,260.60821 1389.6393,261.20821 V 273.70821 C 1389.6393,274.30821 1390.2393,274.80821 1390.9393,274.80821 C 1392.0393,274.80821 1392.6393,274.30821 1392.6393,273.70821 V 259.50821 C 1392.6393,258.70821 1393.0393,257.50821 1393.7393,257.20821 C 1394.4393,256.90821 1396.5393,256.10821 1396.5393,256.10821 C 1397.2393,255.80821 1397.7393,255.00821 1397.7393,254.40821 V 247.30821 C 1397.7393,246.80821 1397.4393,246.50821 1397.0393,246.50821 C 1396.8393,246.50821 1396.7393,246.50821 1396.5393,246.60821 L 1393.9393,247.60821 C 1393.3393,247.60821 1392.6393,247.00821 1392.6393,245.80821 V 236.50821 C 1392.6393,235.80821 1393.1393,233.90821 1393.9393,233.60821 L 1396.5393,232.60821 C 1397.2393,232.30821 1397.7393,231.50821 1397.7393,230.90821 V 223.80821 C 1397.7393,223.30821 1397.4393,223.00821 1397.0393,223.00821 C 1396.8393,223.00821 1396.7393,223.00821 1396.5393,223.10821 C 1396.5393,223.10821 1394.5393,223.90821 1394.0393,224.00821 C 1393.3393,224.00821 1392.6393,223.50821 1392.6393,222.70821 V 210.50821 C 1392.6393,209.90821 1392.0393,209.40821 1391.2393,209.40821 C 1390.2393,209.40821 1389.6393,209.90821 1389.6393,210.50821 V 223.50821 C 1389.5393,224.50821 1389.2393,225.80821 1388.3393,226.40821 C 1387.1393,227.10821 1383.7393,228.50821 1382.0393,228.90821 C 1381.1393,228.90821 1380.8393,227.70821 1380.8393,226.90821 V 214.90821 C 1380.8393,214.30821 1380.1393,213.80821 1379.4393,213.80821 C 1378.4393,213.80821 1377.8393,214.30821 1377.8393,214.90821 V 228.40821 C 1377.8393,229.80821 1377.2393,230.80821 1376.6393,231.10821 C 1376.0393,231.40821 1374.0393,232.20821 1374.0393,232.20821 C 1373.3393,232.40821 1372.8393,233.20821 1372.8393,233.80821 V 240.90821 C 1372.8393,241.50821 1373.1393,241.80821 1373.6393,241.80821 C 1374.0393,241.80821 1375.9393,240.90821 1376.2393,240.70821 C 1377.2393,240.70821 1377.8393,241.20821 1377.8393,242.40821 V 252.30821 C 1377.8393,253.40821 1377.3393,254.30821 1376.7393,254.60821 C 1376.1393,254.80821 1374.0393,255.70821 1374.0393,255.70821 C 1373.3393,255.90821 1372.8393,256.70821 1372.8393,257.30821 V 264.40821 C 1372.8393,265.00821 1373.1393,265.30821 1373.6393,265.30821 M 1380.8393,240.00821 C 1381.0393,238.30821 1385.6393,236.20821 1388.1393,236.20821 C 1388.8393,236.20821 1389.4393,236.40821 1389.6393,236.80821 C 1389.8393,237.30821 1390.0393,239.80821 1390.0393,242.50821 C 1390.0393,245.20821 1389.8393,248.00821 1389.6393,248.90821 C 1389.0393,250.90821 1384.3393,252.90821 1382.0393,252.90821 C 1381.4393,252.90821 1380.9393,252.70821 1380.8393,252.40821 C 1380.6393,252.00821 1380.5393,249.80821 1380.5393,247.40821 C 1380.5393,244.30821 1380.6393,240.80821 1380.8393,240.00821"
     id="path528" />
  <path
     class=""
     d="M 947.7783,177.80821 C 947.8783,177.80821 948.0783,177.70821 948.1783,177.70821 C 948.1783,177.70821 949.5783,177.10821 950.4783,176.80821 C 950.5783,176.70821 950.6783,176.70821 950.7783,176.70821 C 951.4783,176.70821 951.9783,177.80821 951.9783,178.30821 V 190.60821 C 951.9783,191.20821 952.5783,191.70821 953.2783,191.70821 C 954.2783,191.70821 954.9783,191.20821 954.9783,190.60821 V 176.70821 C 954.9783,175.40821 955.4783,174.70821 955.9783,174.50821 L 962.0783,172.00821 C 962.1783,172.00821 962.3783,171.90821 962.4783,171.90821 C 963.2783,171.90821 963.7783,173.10821 963.7783,173.70821 V 186.20821 C 963.7783,186.80821 964.3783,187.30821 965.0783,187.30821 C 966.1783,187.30821 966.7783,186.80821 966.7783,186.20821 V 172.00821 C 966.7783,171.20821 967.1783,170.00821 967.8783,169.70821 C 968.5783,169.40821 970.6783,168.60821 970.6783,168.60821 C 971.3783,168.30821 971.8783,167.50821 971.8783,166.90821 V 159.80821 C 971.8783,159.30821 971.5783,159.00821 971.1783,159.00821 C 970.9783,159.00821 970.8783,159.00821 970.6783,159.10821 L 968.0783,160.10821 C 967.4783,160.10821 966.7783,159.50821 966.7783,158.30821 V 149.00821 C 966.7783,148.30821 967.2783,146.40821 968.0783,146.10821 L 970.6783,145.10821 C 971.3783,144.80821 971.8783,144.00821 971.8783,143.40821 V 136.30821 C 971.8783,135.80821 971.5783,135.50821 971.1783,135.50821 C 970.9783,135.50821 970.8783,135.50821 970.6783,135.60821 C 970.6783,135.60821 968.6783,136.40821 968.1783,136.50821 C 967.4783,136.50821 966.7783,136.00821 966.7783,135.20821 V 123.00821 C 966.7783,122.40821 966.1783,121.90821 965.3783,121.90821 C 964.3783,121.90821 963.7783,122.40821 963.7783,123.00821 V 136.00821 C 963.6783,137.00821 963.3783,138.30821 962.4783,138.90821 C 961.2783,139.60821 957.8783,141.00821 956.1783,141.40821 C 955.2783,141.40821 954.9783,140.20821 954.9783,139.40821 V 127.40821 C 954.9783,126.80821 954.2783,126.30821 953.5783,126.30821 C 952.5783,126.30821 951.9783,126.80821 951.9783,127.40821 V 140.90821 C 951.9783,142.30821 951.3783,143.30821 950.7783,143.60821 C 950.1783,143.90821 948.1783,144.70821 948.1783,144.70821 C 947.4783,144.90821 946.9783,145.70821 946.9783,146.30821 V 153.40821 C 946.9783,154.00821 947.2783,154.30821 947.7783,154.30821 C 948.1783,154.30821 950.0783,153.40821 950.3783,153.20821 C 951.3783,153.20821 951.9783,153.70821 951.9783,154.90821 V 164.80821 C 951.9783,165.90821 951.4783,166.80821 950.8783,167.10821 C 950.2783,167.30821 948.1783,168.20821 948.1783,168.20821 C 947.4783,168.40821 946.9783,169.20821 946.9783,169.80821 V 176.90821 C 946.9783,177.50821 947.2783,177.80821 947.7783,177.80821 M 954.9783,152.50821 C 955.1783,150.80821 959.7783,148.70821 962.2783,148.70821 C 962.9783,148.70821 963.5783,148.90821 963.7783,149.30821 C 963.9783,149.80821 964.1783,152.30821 964.1783,155.00821 C 964.1783,157.70821 963.9783,160.50821 963.7783,161.40821 C 963.1783,163.40821 958.4783,165.40821 956.1783,165.40821 C 955.5783,165.40821 955.0783,165.20821 954.9783,164.90821 C 954.7783,164.50821 954.6783,162.30821 954.6783,159.90821 C 954.6783,156.80821 954.7783,153.30821 954.9783,152.50821"
     id="path530" />
  <path
     class=""
     d="M 760.6573,152.80821 C 760.7573,152.80821 760.9573,152.70821 761.0573,152.70821 C 761.0573,152.70821 762.4573,152.10821 763.3573,151.80821 C 763.4573,151.70821 763.5573,151.70821 763.6573,151.70821 C 764.3573,151.70821 764.8573,152.80821 764.8573,153.30821 V 165.60821 C 764.8573,166.20821 765.4573,166.70821 766.1573,166.70821 C 767.1573,166.70821 767.8573,166.20821 767.8573,165.60821 V 151.70821 C 767.8573,150.40821 768.3573,149.70821 768.8573,149.50821 L 774.9573,147.00821 C 775.0573,147.00821 775.2573,146.90821 775.3573,146.90821 C 776.1573,146.90821 776.6573,148.10821 776.6573,148.70821 V 161.20821 C 776.6573,161.80821 777.2573,162.30821 777.9573,162.30821 C 779.0573,162.30821 779.6573,161.80821 779.6573,161.20821 V 147.00821 C 779.6573,146.20821 780.0573,145.00821 780.7573,144.70821 C 781.4573,144.40821 783.5573,143.60821 783.5573,143.60821 C 784.2573,143.30821 784.7573,142.50821 784.7573,141.90821 V 134.80821 C 784.7573,134.30821 784.4573,134.00821 784.0573,134.00821 C 783.8573,134.00821 783.7573,134.00821 783.5573,134.10821 L 780.9573,135.10821 C 780.3573,135.10821 779.6573,134.50821 779.6573,133.30821 V 124.00821 C 779.6573,123.30821 780.1573,121.40821 780.9573,121.10821 L 783.5573,120.10821 C 784.2573,119.80821 784.7573,119.00821 784.7573,118.40821 V 111.30821 C 784.7573,110.80821 784.4573,110.50821 784.0573,110.50821 C 783.8573,110.50821 783.7573,110.50821 783.5573,110.60821 C 783.5573,110.60821 781.5573,111.40821 781.0573,111.50821 C 780.3573,111.50821 779.6573,111.00821 779.6573,110.20821 V 98.007707 C 779.6573,97.407707 779.0573,96.907707 778.2573,96.907707 C 777.2573,96.907707 776.6573,97.407707 776.6573,98.007707 V 111.00821 C 776.5573,112.00821 776.2573,113.30821 775.3573,113.90821 C 774.1573,114.60821 770.7573,116.00821 769.0573,116.40821 C 768.1573,116.40821 767.8573,115.20821 767.8573,114.40821 V 102.40771 C 767.8573,101.80771 767.1573,101.30771 766.4573,101.30771 C 765.4573,101.30771 764.8573,101.80771 764.8573,102.40771 V 115.90821 C 764.8573,117.30821 764.2573,118.30821 763.6573,118.60821 C 763.0573,118.90821 761.0573,119.70821 761.0573,119.70821 C 760.3573,119.90821 759.8573,120.70821 759.8573,121.30821 V 128.40821 C 759.8573,129.00821 760.1573,129.30821 760.6573,129.30821 C 761.0573,129.30821 762.9573,128.40821 763.2573,128.20821 C 764.2573,128.20821 764.8573,128.70821 764.8573,129.90821 V 139.80821 C 764.8573,140.90821 764.3573,141.80821 763.7573,142.10821 C 763.1573,142.30821 761.0573,143.20821 761.0573,143.20821 C 760.3573,143.40821 759.8573,144.20821 759.8573,144.80821 V 151.90821 C 759.8573,152.50821 760.1573,152.80821 760.6573,152.80821 M 767.8573,127.50821 C 768.0573,125.80821 772.6573,123.70821 775.1573,123.70821 C 775.8573,123.70821 776.4573,123.90821 776.6573,124.30821 C 776.8573,124.80821 777.0573,127.30821 777.0573,130.00821 C 777.0573,132.70821 776.8573,135.50821 776.6573,136.40821 C 776.0573,138.40821 771.3573,140.40821 769.0573,140.40821 C 768.4573,140.40821 767.9573,140.20821 767.8573,139.90821 C 767.6573,139.50821 767.5573,137.30821 767.5573,134.90821 C 767.5573,131.80821 767.6573,128.30821 767.8573,127.50821"
     id="path532" />
  <path
     class=""
     d="M 160.1933,177.80821 C 160.2933,177.80821 160.4933,177.70821 160.5933,177.70821 C 160.5933,177.70821 161.9933,177.10821 162.8933,176.80821 C 162.9933,176.70821 163.0933,176.70821 163.1933,176.70821 C 163.8933,176.70821 164.3933,177.80821 164.3933,178.30821 V 190.60821 C 164.3933,191.20821 164.9933,191.70821 165.6933,191.70821 C 166.6933,191.70821 167.3933,191.20821 167.3933,190.60821 V 176.70821 C 167.3933,175.40821 167.8933,174.70821 168.3933,174.50821 L 174.4933,172.00821 C 174.5933,172.00821 174.7933,171.90821 174.8933,171.90821 C 175.6933,171.90821 176.1933,173.10821 176.1933,173.70821 V 186.20821 C 176.1933,186.80821 176.7933,187.30821 177.4933,187.30821 C 178.5933,187.30821 179.1933,186.80821 179.1933,186.20821 V 172.00821 C 179.1933,171.20821 179.5933,170.00821 180.2933,169.70821 C 180.9933,169.40821 183.0933,168.60821 183.0933,168.60821 C 183.7933,168.30821 184.2933,167.50821 184.2933,166.90821 V 159.80821 C 184.2933,159.30821 183.9933,159.00821 183.5933,159.00821 C 183.3933,159.00821 183.2933,159.00821 183.0933,159.10821 L 180.4933,160.10821 C 179.8933,160.10821 179.1933,159.50821 179.1933,158.30821 V 149.00821 C 179.1933,148.30821 179.6933,146.40821 180.4933,146.10821 L 183.0933,145.10821 C 183.7933,144.80821 184.2933,144.00821 184.2933,143.40821 V 136.30821 C 184.2933,135.80821 183.9933,135.50821 183.5933,135.50821 C 183.3933,135.50821 183.2933,135.50821 183.0933,135.60821 C 183.0933,135.60821 181.0933,136.40821 180.5933,136.50821 C 179.8933,136.50821 179.1933,136.00821 179.1933,135.20821 V 123.00821 C 179.1933,122.40821 178.5933,121.90821 177.7933,121.90821 C 176.7933,121.90821 176.1933,122.40821 176.1933,123.00821 V 136.00821 C 176.0933,137.00821 175.7933,138.30821 174.8933,138.90821 C 173.6933,139.60821 170.2933,141.00821 168.5933,141.40821 C 167.6933,141.40821 167.3933,140.20821 167.3933,139.40821 V 127.40821 C 167.3933,126.80821 166.6933,126.30821 165.9933,126.30821 C 164.9933,126.30821 164.3933,126.80821 164.3933,127.40821 V 140.90821 C 164.3933,142.30821 163.7933,143.30821 163.1933,143.60821 C 162.5933,143.90821 160.5933,144.70821 160.5933,144.70821 C 159.8933,144.90821 159.3933,145.70821 159.3933,146.30821 V 153.40821 C 159.3933,154.00821 159.6933,154.30821 160.1933,154.30821 C 160.5933,154.30821 162.4933,153.40821 162.7933,153.20821 C 163.7933,153.20821 164.3933,153.70821 164.3933,154.90821 V 164.80821 C 164.3933,165.90821 163.8933,166.80821 163.2933,167.10821 C 162.6933,167.30821 160.5933,168.20821 160.5933,168.20821 C 159.8933,168.40821 159.3933,169.20821 159.3933,169.80821 V 176.90821 C 159.3933,177.50821 159.6933,177.80821 160.1933,177.80821 M 167.3933,152.50821 C 167.5933,150.80821 172.1933,148.70821 174.6933,148.70821 C 175.3933,148.70821 175.9933,148.90821 176.1933,149.30821 C 176.3933,149.80821 176.5933,152.30821 176.5933,155.00821 C 176.5933,157.70821 176.3933,160.50821 176.1933,161.40821 C 175.5933,163.40821 170.8933,165.40821 168.5933,165.40821 C 167.9933,165.40821 167.4933,165.20821 167.3933,164.90821 C 167.1933,164.50821 167.0933,162.30821 167.0933,159.90821 C 167.0933,156.80821 167.1933,153.30821 167.3933,152.50821"
     id="path534" />
  <polyline
     class=""
     stroke="#000000"
     stroke-width="4"
     stroke-linecap="square"
     stroke-linejoin="bevel"
     points="841.378,125.148 884.276,125.148"
     id="polyline536"
     transform="translate(16.239294,6.7602092)" />
  <polyline
     class=""
     stroke="#000000"
     stroke-width="4"
     stroke-linecap="square"
     stroke-linejoin="bevel"
     points="774.017,125.148 816.915,125.148"
     id="polyline538"
     transform="translate(16.239294,6.7602092)" />
  <polyline
     class=""
     stroke="#000000"
     stroke-width="4"
     stroke-linecap="square"
     stroke-linejoin="bevel"
     points="518.83,125.148 561.729,125.148"
     id="polyline540"
     transform="translate(16.239294,6.7602092)" />
  <polyline
     class=""
     stroke="#000000"
     stroke-width="3"
     stroke-linecap="round"
     stroke-linejoin="bevel"
     points="1418.39,234.288 1418.39,150.148"
     id="polyline542"
     transform="translate(16.239294,6.7602092)" />
  <polyline
     class=""
     stroke="#000000"
     stroke-width="3"
     stroke-linecap="round"
     stroke-linejoin="bevel"
     points="1219.48,216.008 1219.48,293.898"
     id="polyline544"
     transform="translate(16.239294,6.7602092)" />
  <polyline
     class=""
     stroke="#000000"
     stroke-width="3"
     stroke-linecap="round"
     stroke-linejoin="bevel"
     points="1314.38,221.788 1314.38,140.773"
     id="polyline546"
     transform="translate(16.239294,6.7602092)" />
  <polyline
     class=""
     stroke="#000000"
     stroke-width="3"
     stroke-linecap="round"
     stroke-linejoin="bevel"
     points="1089.46,153.508 1089.46,262.648"
     id="polyline548"
     transform="translate(16.239294,6.7602092)" />
  <polyline
     class=""
     stroke="#000000"
     stroke-width="3"
     stroke-linecap="round"
     stroke-linejoin="bevel"
     points="1154.47,166.008 1154.47,278.273"
     id="polyline550"
     transform="translate(16.239294,6.7602092)" />
  <polyline
     class=""
     stroke="#000000"
     stroke-width="3"
     stroke-linecap="round"
     stroke-linejoin="bevel"
     points="962.637,153.508 962.637,237.648"
     id="polyline552"
     transform="translate(16.239294,6.7602092)" />
  <polyline
     class=""
     stroke="#000000"
     stroke-width="3"
     stroke-linecap="round"
     stroke-linejoin="bevel"
     points="847.878,116.008 847.878,193.898"
     id="polyline554"
     transform="translate(16.239294,6.7602092)" />
  <polyline
     class=""
     stroke="#000000"
     stroke-width="3"
     stroke-linecap="round"
     stroke-linejoin="bevel"
     points="700.47,141.008 700.47,206.398"
     id="polyline556"
     transform="translate(16.239294,6.7602092)" />
  <polyline
     class=""
     stroke="#000000"
     stroke-width="3"
     stroke-linecap="round"
     stroke-linejoin="bevel"
     points="780.517,128.508 780.517,199.61"
     id="polyline558"
     transform="translate(16.239294,6.7602092)" />
  <polyline
     class=""
     stroke="#000000"
     stroke-width="3"
     stroke-linecap="round"
     stroke-linejoin="bevel"
     points="633.108,141.008 633.108,225.148"
     id="polyline560"
     transform="translate(16.239294,6.7602092)" />
  <polyline
     class=""
     stroke="#000000"
     stroke-width="3"
     stroke-linecap="round"
     stroke-linejoin="bevel"
     points="525.33,128.508 525.33,212.648"
     id="polyline562"
     transform="translate(16.239294,6.7602092)" />
  <polyline
     class=""
     stroke="#000000"
     stroke-width="3"
     stroke-linecap="round"
     stroke-linejoin="bevel"
     points="457.969,153.508 457.969,237.648"
     id="polyline564"
     transform="translate(16.239294,6.7602092)" />
  <polyline
     class=""
     stroke="#000000"
     stroke-width="3"
     stroke-linecap="round"
     stroke-linejoin="bevel"
     points="350.191,166.008 350.191,250.148"
     id="polyline566"
     transform="translate(16.239294,6.7602092)" />
  <polyline
     class=""
     stroke="#000000"
     stroke-width="3"
     stroke-linecap="round"
     stroke-linejoin="bevel"
     points="282.83,166.008 282.83,250.148"
     id="polyline568"
     transform="translate(16.239294,6.7602092)" />
  <polyline
     class=""
     stroke="#000000"
     stroke-width="3"
     stroke-linecap="round"
     stroke-linejoin="bevel"
     points="175.052,153.508 175.052,237.648"
     id="polyline570"
     transform="translate(16.239294,6.7602092)" />
  <path
     class=""
     d="M 1414.0293,258.40821 C 1423.9293,258.40821 1436.1293,249.20821 1436.1293,239.70821 C 1436.1293,234.10821 1431.6293,230.40821 1425.2293,230.40821 C 1413.0293,230.40821 1403.2293,239.50821 1403.2293,249.10821 C 1403.2293,254.90821 1408.0293,258.40821 1414.0293,258.40821"
     id="path572" />
  <path
     class=""
     d="M 1310.0193,245.90821 C 1319.9193,245.90821 1332.1193,236.70821 1332.1193,227.20821 C 1332.1193,221.60821 1327.6193,217.90821 1321.2193,217.90821 C 1309.0193,217.90821 1299.2193,227.00821 1299.2193,236.60821 C 1299.2193,242.40821 1304.0193,245.90821 1310.0193,245.90821"
     id="path574" />
  <path
     class=""
     d="M 1245.0193,233.40821 C 1254.9193,233.40821 1267.1193,224.20821 1267.1193,214.70821 C 1267.1193,209.10821 1262.6193,205.40821 1256.2193,205.40821 C 1244.0193,205.40821 1234.2193,214.50821 1234.2193,224.10821 C 1234.2193,229.90821 1239.0193,233.40821 1245.0193,233.40821"
     id="path576" />
  <path
     class=""
     d="M 1114.9993,170.90821 C 1124.8993,170.90821 1137.0993,161.70821 1137.0993,152.20821 C 1137.0993,146.60821 1132.5993,142.90821 1126.1993,142.90821 C 1113.9993,142.90821 1104.1993,152.00821 1104.1993,161.60821 C 1104.1993,167.40821 1108.9993,170.90821 1114.9993,170.90821"
     id="path578" />
  <path
     class=""
     d="M 1180.0093,183.40821 C 1189.9093,183.40821 1202.1093,174.20821 1202.1093,164.70821 C 1202.1093,159.10821 1197.6093,155.40821 1191.2093,155.40821 C 1179.0093,155.40821 1169.2093,164.50821 1169.2093,174.10821 C 1169.2093,179.90821 1174.0093,183.40821 1180.0093,183.40821"
     id="path580" />
  <path
     class=""
     d="M 988.1763,170.90821 C 998.0763,170.90821 1010.2763,161.70821 1010.2763,152.20821 C 1010.2763,146.60821 1005.7763,142.90821 999.3763,142.90821 C 987.1763,142.90821 977.3763,152.00821 977.3763,161.60821 C 977.3763,167.40821 982.1763,170.90821 988.1763,170.90821"
     id="path582" />
  <path
     class=""
     d="M 873.4173,133.40821 C 883.3173,133.40821 895.5173,124.20821 895.5173,114.70821 C 895.5173,109.10821 891.0173,105.40771 884.6173,105.40771 C 872.4173,105.40771 862.6173,114.50821 862.6173,124.10821 C 862.6173,129.90821 867.4173,133.40821 873.4173,133.40821"
     id="path584" />
  <path
     class=""
     d="M 726.0093,158.40821 C 735.9093,158.40821 748.1093,149.20821 748.1093,139.70821 C 748.1093,134.10821 743.6093,130.40821 737.2093,130.40821 C 725.0093,130.40821 715.2093,139.50821 715.2093,149.10821 C 715.2093,154.90821 720.0093,158.40821 726.0093,158.40821"
     id="path586" />
  <path
     class=""
     d="M 806.0563,145.90821 C 815.9563,145.90821 828.1563,136.70821 828.1563,127.20821 C 828.1563,121.60821 823.6563,117.90821 817.2563,117.90821 C 805.0563,117.90821 795.2563,127.00821 795.2563,136.60821 C 795.2563,142.40821 800.0563,145.90821 806.0563,145.90821"
     id="path588" />
  <path
     class=""
     d="M 658.6473,158.40821 C 668.5473,158.40821 680.7473,149.20821 680.7473,139.70821 C 680.7473,134.10821 676.2473,130.40821 669.8473,130.40821 C 657.6473,130.40821 647.8473,139.50821 647.8473,149.10821 C 647.8473,154.90821 652.6473,158.40821 658.6473,158.40821"
     id="path590" />
  <path
     class=""
     d="M 550.8693,145.90821 C 560.7693,145.90821 572.9693,136.70821 572.9693,127.20821 C 572.9693,121.60821 568.4693,117.90821 562.0693,117.90821 C 549.8693,117.90821 540.0693,127.00821 540.0693,136.60821 C 540.0693,142.40821 544.8693,145.90821 550.8693,145.90821"
     id="path592" />
  <path
     class=""
     d="M 483.5083,170.90821 C 493.4083,170.90821 505.6083,161.70821 505.6083,152.20821 C 505.6083,146.60821 501.1083,142.90821 494.7083,142.90821 C 482.5083,142.90821 472.7083,152.00821 472.7083,161.60821 C 472.7083,167.40821 477.5083,170.90821 483.5083,170.90821"
     id="path594" />
  <path
     class=""
     d="M 375.7303,183.40821 C 385.6303,183.40821 397.8303,174.20821 397.8303,164.70821 C 397.8303,159.10821 393.3303,155.40821 386.9303,155.40821 C 374.7303,155.40821 364.9303,164.50821 364.9303,174.10821 C 364.9303,179.90821 369.7303,183.40821 375.7303,183.40821"
     id="path596" />
  <path
     class=""
     d="M 308.3693,183.40821 C 318.2693,183.40821 330.4693,174.20821 330.4693,164.70821 C 330.4693,159.10821 325.9693,155.40821 319.5693,155.40821 C 307.3693,155.40821 297.5693,164.50821 297.5693,174.10821 C 297.5693,179.90821 302.3693,183.40821 308.3693,183.40821"
     id="path598" />
  <path
     class=""
     d="M 200.5913,170.90821 C 210.4913,170.90821 222.6913,161.70821 222.6913,152.20821 C 222.6913,146.60821 218.1913,142.90821 211.7913,142.90821 C 199.5913,142.90821 189.7913,152.00821 189.7913,161.60821 C 189.7913,167.40821 194.5913,170.90821 200.5913,170.90821"
     id="path600" />
  <path
     class=""
     d="M 76.799094,137.60821 C 80.099094,137.60821 82.799094,140.30821 82.799094,145.80821 C 82.799094,156.90821 73.299094,165.90821 65.399094,172.80821 C 65.099094,173.00821 64.899094,173.20821 64.699094,173.20821 C 64.399094,173.20821 64.199094,172.80821 64.099094,172.00821 C 63.699094,169.40821 63.499094,166.00821 63.499094,162.80821 C 63.499094,147.20821 70.699094,137.60821 76.799094,137.60821 M 72.799094,221.60821 C 72.599094,220.50821 72.699094,220.20821 73.499094,220.20821 C 73.599094,220.20821 73.799094,220.20821 73.899094,220.20821 C 81.999094,220.90821 88.699094,227.70821 88.699094,236.50821 C 88.699094,242.80821 84.899094,247.90821 79.299094,250.70821 C 78.799094,250.90821 78.499094,251.10821 78.299094,251.10821 C 77.899094,251.10821 77.799094,250.80821 77.699094,250.10821 L 72.799094,221.60821 M 65.899094,205.70821 C 66.199094,207.60821 66.199094,207.50821 64.399094,208.10821 C 55.599094,211.10821 49.899094,219.00821 49.899094,227.50821 C 49.899094,236.50821 54.599094,242.90821 61.399094,245.20821 C 62.199094,245.50821 63.399094,245.80821 64.099094,245.80821 C 64.899094,245.80821 65.299094,245.30821 65.299094,244.70821 C 65.299094,244.00821 64.499094,243.70821 63.799094,243.40821 C 59.599094,241.60821 56.599094,237.30821 56.599094,232.70821 C 56.599094,227.00821 60.499094,222.70821 66.599094,221.00821 C 67.099094,220.90821 67.499094,220.80821 67.799094,220.80821 C 68.299094,220.80821 68.499094,221.10821 68.599094,221.80821 L 73.599094,251.60821 C 73.799094,252.70821 73.699094,252.70821 72.199094,253.00821 C 70.599094,253.30821 68.599094,253.50821 66.599094,253.50821 C 49.099094,253.50821 37.799094,243.80821 37.799094,229.90821 C 37.799094,212.90821 50.299094,202.30821 62.399094,192.50821 C 62.799094,192.20821 63.099094,192.00821 63.299094,192.00821 C 63.599094,192.00821 63.699094,192.30821 63.799094,192.90821 L 65.899094,205.70821 M 67.399094,190.40821 C 67.199094,189.20821 67.399094,189.10821 67.999094,188.50821 C 78.799094,178.40821 86.999094,165.70821 86.999094,150.40821 C 86.999094,141.70821 84.599094,133.10821 80.499094,127.10821 C 78.999094,124.90821 76.399094,122.10821 75.299094,122.10821 C 73.899094,122.10821 70.799094,124.70821 68.799094,126.90821 C 61.399094,135.10821 58.999094,147.60821 58.999094,158.00821 C 58.999094,163.80821 59.699094,170.30821 60.399094,174.40821 C 60.599094,175.60821 60.699094,175.80821 59.499094,176.80821 C 45.099094,188.70821 29.799094,203.00821 29.799094,223.20821 C 29.799094,240.60821 41.699094,257.10821 66.199094,257.10821 C 68.499094,257.10821 71.099094,256.90821 73.099094,256.50821 C 73.499094,256.40821 73.699094,256.40821 73.899094,256.40821 C 74.299094,256.40821 74.499094,256.60821 74.599094,257.40821 C 75.799094,264.10821 77.299094,272.80821 77.299094,277.50821 C 77.299094,292.30821 67.299094,294.10821 61.399094,294.10821 C 55.999094,294.10821 53.399094,292.50821 53.399094,291.20821 C 53.399094,290.50821 54.299094,290.20821 56.599094,289.50821 C 59.699094,288.60821 63.299094,285.90821 63.299094,280.10821 C 63.299094,274.60821 59.799094,269.90821 53.699094,269.90821 C 46.999094,269.90821 42.999094,275.20821 42.999094,281.40821 C 42.999094,287.90821 46.899094,297.70821 61.999094,297.70821 C 68.699094,297.70821 81.699094,294.70821 81.699094,277.70821 C 81.699094,272.00821 79.899094,262.50821 78.799094,256.30821 C 78.599094,255.10821 78.699094,255.20821 80.099094,254.60821 C 90.199094,250.60821 96.899094,242.10821 96.899094,230.80821 C 96.899094,218.00821 87.499094,206.70821 72.799094,206.70821 C 70.199094,206.70821 70.199094,206.70821 69.899094,204.90821 L 67.399094,190.40821"
     id="path602" />
  <path
     class=""
     d="M 815.9173,106.90721 C 815.9173,104.60701 814.0173,102.70701 811.7173,102.70701 C 809.4173,102.70701 807.5173,104.60701 807.5173,106.90721 C 807.5173,109.20721 809.4173,111.10721 811.7173,111.10721 C 814.0173,111.10721 815.9173,109.20721 815.9173,106.90721"
     id="path604" />
  <path
     class=""
     d="M 883.2783,94.407007 C 883.2783,92.107007 881.3783,90.207007 879.0783,90.207007 C 876.7783,90.207007 874.8783,92.107007 874.8783,94.407007 C 874.8783,96.707007 876.7783,98.607007 879.0783,98.607007 C 881.3783,98.607007 883.2783,96.707007 883.2783,94.407007"
     id="path606" />
  <path
     class=""
     d="M 560.7313,106.90721 C 560.7313,104.60701 558.8313,102.70701 556.5313,102.70701 C 554.2313,102.70701 552.3313,104.60701 552.3313,106.90721 C 552.3313,109.20721 554.2313,111.10721 556.5313,111.10721 C 558.8313,111.10721 560.7313,109.20721 560.7313,106.90721"
     id="path608" />
  <path
     class=""
     fill-rule="evenodd"
     d="M 1104.1993,262.98021 L 1237.2193,294.95121 V 307.80721 L 1104.1993,275.83621 V 262.98021"
     id="path610" />
  <path
     class=""
     fill-rule="evenodd"
     d="M 715.2093,206.88521 L 865.6173,194.13121 V 206.67621 L 715.2093,219.43021 V 206.88521"
     id="path612" />
  <path
     class=""
     d="M 1456.9293,236.80621 C 1456.9293,236.80621 1459.5293,227.30621 1459.5293,219.50621 C 1459.5293,207.00621 1454.3293,195.20621 1448.0293,185.20621 C 1442.9293,177.30621 1438.7293,168.70621 1437.1293,159.10621 C 1436.8293,157.50621 1436.0293,156.90621 1434.1293,156.90621 C 1433.5293,156.90621 1433.1293,157.20621 1433.1293,158.40621 V 182.30621 C 1439.7293,183.50621 1449.2293,197.10621 1452.8293,205.60621 C 1454.3293,209.00621 1455.2293,214.70621 1455.2293,220.60621 C 1455.2293,225.10621 1454.5293,229.80621 1452.8293,234.30621 C 1452.6293,234.90621 1452.5293,235.40621 1452.5293,235.80621 C 1452.5293,237.40621 1453.5293,238.30621 1454.1293,238.70621 C 1454.2293,238.80621 1454.4293,238.80621 1454.6293,238.80621 C 1455.3293,238.80621 1456.5293,238.20621 1456.9293,236.80621"
     id="path614" />
  <path
     class=""
     d="M 671.8473,154.40821 C 673.2473,158.60821 673.9473,163.60821 673.9473,168.10821 C 673.9473,174.00821 671.4473,182.40821 669.9473,185.80821 C 666.2473,194.20821 661.2473,202.30821 647.8473,206.80821 V 230.30821 C 647.8473,231.50821 648.3473,231.80821 648.9473,231.80821 C 650.8473,231.80821 651.6473,231.20821 651.8473,229.60821 C 653.5473,220.10821 660.9473,211.40821 666.0473,203.50821 C 672.3473,193.60821 678.4473,181.70821 678.4473,169.20821 C 678.4473,161.40821 676.4473,154.30821 675.6473,151.10821 C 675.3473,150.00821 674.7473,149.60821 674.0473,149.60821 C 672.5473,149.60821 670.8473,151.50821 671.8473,154.40821"
     id="path616" />
  <path
     class=""
     d="M 496.7083,166.90821 C 498.1083,171.10821 498.8083,176.10821 498.8083,180.60821 C 498.8083,186.50821 496.3083,194.90821 494.8083,198.30821 C 491.1083,206.70821 486.1083,214.80821 472.7083,219.30821 V 242.80821 C 472.7083,244.00821 473.2083,244.30821 473.8083,244.30821 C 475.7083,244.30821 476.5083,243.70821 476.7083,242.10821 C 478.4083,232.60821 485.8083,223.90821 490.9083,216.00821 C 497.2083,206.10821 503.3083,194.20821 503.3083,181.70821 C 503.3083,173.90821 501.3083,166.80821 500.5083,163.60821 C 500.2083,162.50821 499.6083,162.10821 498.9083,162.10821 C 497.4083,162.10821 495.7083,164.00821 496.7083,166.90821"
     id="path618" />
  <path
     class=""
     d="M 321.5693,179.40821 C 322.9693,183.60821 323.6693,188.60821 323.6693,193.10821 C 323.6693,199.00821 321.1693,207.40821 319.6693,210.80821 C 315.9693,219.20821 310.9693,227.30821 297.5693,231.80821 V 255.30821 C 297.5693,256.50821 298.0693,256.80821 298.6693,256.80821 C 300.5693,256.80821 301.3693,256.20821 301.5693,254.60821 C 303.2693,245.10821 310.6693,236.40821 315.7693,228.50821 C 322.0693,218.60821 328.1693,206.70821 328.1693,194.20821 C 328.1693,186.40821 326.1693,179.30821 325.3693,176.10821 C 325.0693,175.00821 324.4693,174.60821 323.7693,174.60821 C 322.2693,174.60821 320.5693,176.50821 321.5693,179.40821"
     id="path620" />
  <path
     class=""
     d="M 1029.0293,144.40821 C 1029.0293,141.60821 1026.8293,139.40821 1024.0293,139.40821 C 1021.2293,139.40821 1019.0293,141.60821 1019.0293,144.40821 C 1019.0293,147.20821 1021.2293,149.40821 1024.0293,149.40821 C 1026.8293,149.40821 1029.0293,147.20821 1029.0293,144.40821"
     id="path622" />
  <metadata
     id="metadata646">
    <rdf:RDF>
      <cc:Work
         rdf:about="">
        <dc:title>Unbenannt</dc:title>
      </cc:Work>
    </rdf:RDF>
  </metadata>
  <text
     xml:space="preserve"
     style="font-size:53.3333px;line-height:1.25;font-family:'Libertinus Sans';-inkscape-font-specification:'Libertinus Sans';letter-spacing:0px;word-spacing:0px;fill:#008080"
     x="7.0257225"
     y="41.006172"
     id="text650"><tspan
       sodipodi:role="line"
       id="tspan648"
       x="7.0257225"
       y="41.006172">C-Dur: keine Vorzeichen</tspan></text>
</svg>
