<?xml version="1.0" encoding="UTF-8" standalone="no"?>
<svg
   width="252.99112"
   height="190.3004"
   viewBox="0 0 252.99112 190.3004"
   version="1.2"
   id="svg332"
   sodipodi:docname="Es--&gt;Des.svg"
   inkscape:version="1.1-dev (0486c1a, 2020-10-10)"
   xmlns:inkscape="http://www.inkscape.org/namespaces/inkscape"
   xmlns:sodipodi="http://sodipodi.sourceforge.net/DTD/sodipodi-0.dtd"
   xmlns="http://www.w3.org/2000/svg"
   xmlns:svg="http://www.w3.org/2000/svg"
   xmlns:rdf="http://www.w3.org/1999/02/22-rdf-syntax-ns#"
   xmlns:cc="http://creativecommons.org/ns#"
   xmlns:dc="http://purl.org/dc/elements/1.1/">
  <defs
     id="defs336" />
  <sodipodi:namedview
     pagecolor="#ffffff"
     bordercolor="#666666"
     borderopacity="1"
     objecttolerance="10"
     gridtolerance="10"
     guidetolerance="10"
     inkscape:pageopacity="0"
     inkscape:pageshadow="2"
     inkscape:window-width="833"
     inkscape:window-height="480"
     id="namedview334"
     showgrid="false"
     inkscape:zoom="0.43233998"
     inkscape:cx="-83.267802"
     inkscape:cy="-48.572885"
     inkscape:window-x="188"
     inkscape:window-y="33"
     inkscape:window-maximized="0"
     inkscape:current-layer="g2608"
     lock-margins="true"
     fit-margin-top="1"
     fit-margin-left="1"
     fit-margin-right="1"
     fit-margin-bottom="1" />
  <title
     id="title200">Unbenannt</title>
  <desc
     id="desc202">Generated by MuseScore 3.5.2</desc>
  <metadata
     id="metadata2309">
    <rdf:RDF>
      <cc:Work
         rdf:about="">
        <dc:title>Unbenannt</dc:title>
      </cc:Work>
    </rdf:RDF>
  </metadata>
  <g
     id="g2608"
     transform="translate(-19.5809,-98.2646)">
    <g
       id="g37"
       transform="translate(0,10)">
      <path
         id="polyline242-5"
         style="stroke:#000000;stroke-width:3.25;stroke-linejoin:bevel"
         d="M 20.5809,133.27378 H 271.57202"
         class=""
         sodipodi:nodetypes="cc" />
      <path
         id="polyline244-8"
         style="stroke:#000000;stroke-width:3.25;stroke-linejoin:bevel"
         d="M 20.5809,158.27378 H 271.57202"
         class=""
         sodipodi:nodetypes="cc" />
      <path
         id="polyline246-5"
         style="stroke:#000000;stroke-width:3.25;stroke-linejoin:bevel"
         d="M 20.5809,183.27378 H 271.57202"
         class=""
         sodipodi:nodetypes="cc" />
      <path
         id="polyline248-6"
         style="stroke:#000000;stroke-width:3.25;stroke-linejoin:bevel"
         d="M 20.5809,208.27378 H 271.57202"
         class=""
         sodipodi:nodetypes="cc" />
      <path
         id="polyline250-7"
         style="stroke:#000000;stroke-width:3.25;stroke-linejoin:bevel"
         d="M 20.5809,233.27378 H 271.57202"
         class=""
         sodipodi:nodetypes="cc" />
      <path
         class=""
         d="M 87.5809,113.97378 C 90.8809,113.97378 93.5809,116.67378 93.5809,122.17378 C 93.5809,133.27378 84.0809,142.27378 76.1809,149.17378 C 75.8809,149.37378 75.6809,149.57378 75.4809,149.57378 C 75.1809,149.57378 74.9809,149.17378 74.8809,148.37378 C 74.4809,145.77378 74.2809,142.37378 74.2809,139.17378 C 74.2809,123.57378 81.4809,113.97378 87.5809,113.97378 M 83.5809,197.97378 C 83.3809,196.87378 83.4809,196.57378 84.2809,196.57378 C 84.3809,196.57378 84.5809,196.57378 84.6809,196.57378 C 92.7809,197.27378 99.4809,204.07378 99.4809,212.87378 C 99.4809,219.17378 95.6809,224.27378 90.0809,227.07378 C 89.5809,227.27378 89.2809,227.47378 89.0809,227.47378 C 88.6809,227.47378 88.5809,227.17378 88.4809,226.47378 L 83.5809,197.97378 M 76.6809,182.07378 C 76.9809,183.97378 76.9809,183.87378 75.1809,184.47378 C 66.3809,187.47378 60.6809,195.37378 60.6809,203.87378 C 60.6809,212.87378 65.3809,219.27378 72.1809,221.57378 C 72.9809,221.87378 74.1809,222.17378 74.8809,222.17378 C 75.6809,222.17378 76.0809,221.67378 76.0809,221.07378 C 76.0809,220.37378 75.2809,220.07378 74.5809,219.77378 C 70.3809,217.97378 67.3809,213.67378 67.3809,209.07378 C 67.3809,203.37378 71.2809,199.07378 77.3809,197.37378 C 77.8809,197.27378 78.2809,197.17378 78.5809,197.17378 C 79.0809,197.17378 79.2809,197.47378 79.3809,198.17378 L 84.3809,227.97378 C 84.5809,229.07378 84.4809,229.07378 82.9809,229.37378 C 81.3809,229.67378 79.3809,229.87378 77.3809,229.87378 C 59.8809,229.87378 48.5809,220.17378 48.5809,206.27378 C 48.5809,189.27378 61.0809,178.67378 73.1809,168.87378 C 73.5809,168.57378 73.8809,168.37378 74.0809,168.37378 C 74.3809,168.37378 74.4809,168.67378 74.5809,169.27378 L 76.6809,182.07378 M 78.1809,166.77378 C 77.9809,165.57378 78.1809,165.47378 78.7809,164.87378 C 89.5809,154.77378 97.7809,142.07378 97.7809,126.77378 C 97.7809,118.07378 95.3809,109.47378 91.2809,103.47378 C 89.7809,101.27378 87.1809,98.473775 86.0809,98.473775 C 84.6809,98.473775 81.5809,101.07378 79.5809,103.27378 C 72.1809,111.47378 69.7809,123.97378 69.7809,134.37378 C 69.7809,140.17378 70.4809,146.67378 71.1809,150.77378 C 71.3809,151.97378 71.4809,152.17378 70.2809,153.17378 C 55.8809,165.07378 40.5809,179.37378 40.5809,199.57378 C 40.5809,216.97378 52.4809,233.47378 76.9809,233.47378 C 79.2809,233.47378 81.8809,233.27378 83.8809,232.87378 C 84.2809,232.77378 84.4809,232.77378 84.6809,232.77378 C 85.0809,232.77378 85.2809,232.97378 85.3809,233.77378 C 86.5809,240.47378 88.0809,249.17378 88.0809,253.87378 C 88.0809,268.67378 78.0809,270.47378 72.1809,270.47378 C 66.7809,270.47378 64.1809,268.87378 64.1809,267.57378 C 64.1809,266.87378 65.0809,266.57378 67.3809,265.87378 C 70.4809,264.97378 74.0809,262.27378 74.0809,256.47378 C 74.0809,250.97378 70.5809,246.27378 64.4809,246.27378 C 57.7809,246.27378 53.7809,251.57378 53.7809,257.77378 C 53.7809,264.27378 57.6809,274.07378 72.7809,274.07378 C 79.4809,274.07378 92.4809,271.07378 92.4809,254.07378 C 92.4809,248.37378 90.6809,238.87378 89.5809,232.67378 C 89.3809,231.47378 89.4809,231.57378 90.8809,230.97378 C 100.981,226.97378 107.681,218.47378 107.681,207.17378 C 107.681,194.37378 98.2809,183.07378 83.5809,183.07378 C 80.9809,183.07378 80.9809,183.07378 80.6809,181.27378 L 78.1809,166.77378"
         id="path310-9" />
      <path
         class=""
         d="M 118.18336,251.13102 C 118.18336,251.13102 117.88336,245.13102 117.88336,241.13102 C 117.88336,239.53102 117.98336,238.33102 118.08336,237.93102 C 118.78336,235.93102 122.78336,233.03102 125.08336,233.03102 C 127.98336,233.03102 129.18336,236.33102 129.18336,238.83102 C 129.18336,244.23102 124.58336,249.63102 120.28336,252.33102 C 119.88336,252.53102 119.58336,252.63102 119.28336,252.63102 C 118.38336,252.63102 118.18336,251.63102 118.18336,251.13102 M 114.68336,260.03102 C 114.98336,260.43102 115.28336,260.53102 115.58336,260.53102 C 115.88336,260.53102 116.18336,260.33102 116.18336,260.33102 C 119.18336,258.63102 121.58336,255.93102 124.08336,254.23102 C 132.98336,248.03102 136.08336,241.93102 136.08336,237.33102 C 136.08336,231.63102 131.68336,228.03102 127.08336,227.73102 C 125.38336,227.73102 122.98336,228.53102 121.58336,229.43102 C 120.98336,229.93102 119.88336,230.83102 119.38336,230.83102 C 119.18336,230.83102 119.08336,230.83102 118.88336,230.73102 C 118.18336,230.43102 117.78336,229.73102 117.78336,229.03102 C 117.88336,226.83102 118.48336,202.83102 118.48336,200.83102 C 118.48336,199.73102 117.58336,199.13102 116.58336,199.13102 C 115.18336,199.13102 113.58336,200.13102 113.48336,201.93102 C 113.48336,201.93102 113.88336,259.03102 114.68336,260.03102"
         id="path2160"
         style="fill:#ff00ff" />
      <path
         class=""
         d="M 190.80049,232.87922 C 176.30049,232.87922 167.30049,238.97922 167.30049,246.37922 C 167.30049,253.67922 173.50049,260.17922 189.70049,260.17922 C 207.50049,260.17922 213.20049,253.97922 213.20049,246.37922 C 213.20049,238.67922 200.90049,232.87922 190.80049,232.87922 M 188.00049,235.37922 C 195.40049,235.37922 201.40049,243.37922 201.40049,249.97922 C 201.40049,255.37922 198.00049,257.67922 193.10049,257.67922 C 185.90049,257.67922 179.00049,249.37922 179.00049,242.37922 C 179.00049,236.77922 182.90049,235.37922 188.00049,235.37922"
         id="path2188"
         style="fill:#ff00ff" />
      <path
         class=""
         d="M 230.97636,219.62378 C 216.47636,219.62378 207.47636,225.72378 207.47636,233.12378 C 207.47636,240.42378 213.67636,246.92378 229.87636,246.92378 C 247.67636,246.92378 253.37636,240.72378 253.37636,233.12378 C 253.37636,225.42378 241.07636,219.62378 230.97636,219.62378 M 228.17636,222.12378 C 235.57636,222.12378 241.57636,230.12378 241.57636,236.72378 C 241.57636,242.12378 238.17636,244.42378 233.27636,244.42378 C 226.07636,244.42378 219.17636,236.12378 219.17636,229.12378 C 219.17636,223.52378 223.07636,222.12378 228.17636,222.12378"
         id="path2385"
         style="fill:#0000ff" />
      <path
         class=""
         d="M 146.69657,241.45689 C 146.69657,241.45689 146.39657,235.45689 146.39657,231.45689 C 146.39657,229.85689 146.49657,228.65689 146.59657,228.25689 C 147.29657,226.25689 151.29657,223.35689 153.59657,223.35689 C 156.49657,223.35689 157.69657,226.65689 157.69657,229.15689 C 157.69657,234.55689 153.09657,239.95689 148.79657,242.65689 C 148.39657,242.85689 148.09657,242.95689 147.79657,242.95689 C 146.89657,242.95689 146.69657,241.95689 146.69657,241.45689 M 143.19657,250.35689 C 143.49657,250.75689 143.79657,250.85689 144.09657,250.85689 C 144.39657,250.85689 144.69657,250.65689 144.69657,250.65689 C 147.69657,248.95689 150.09657,246.25689 152.59657,244.55689 C 161.49657,238.35689 164.59657,232.25689 164.59657,227.65689 C 164.59657,221.95689 160.19657,218.35689 155.59657,218.05689 C 153.89657,218.05689 151.49657,218.85689 150.09657,219.75689 C 149.49657,220.25689 148.39657,221.15689 147.89657,221.15689 C 147.69657,221.15689 147.59657,221.15689 147.39657,221.05689 C 146.69657,220.75689 146.29657,220.05689 146.29657,219.35689 C 146.39657,217.15689 146.99657,193.15689 146.99657,191.15689 C 146.99657,190.05689 146.09657,189.45689 145.09657,189.45689 C 143.69657,189.45689 142.09657,190.45689 141.99657,192.25689 C 141.99657,192.25689 142.39657,249.35689 143.19657,250.35689"
         id="path25"
         style="fill:#0000ff" />
    </g>
  </g>
</svg>
