<?xml version="1.0" encoding="UTF-8" standalone="no"?>
<svg
   width="62mm"
   height="50.460831mm"
   viewBox="0 0 62 50.460831"
   version="1.1"
   id="svg3045"
   sodipodi:docname="Es-Dur_B_abgezogen.svg"
   inkscape:version="1.1-dev (0486c1a, 2020-10-10)"
   xmlns:inkscape="http://www.inkscape.org/namespaces/inkscape"
   xmlns:sodipodi="http://sodipodi.sourceforge.net/DTD/sodipodi-0.dtd"
   xmlns="http://www.w3.org/2000/svg"
   xmlns:svg="http://www.w3.org/2000/svg">
  <defs
     id="defs3041">
    <filter
       inkscape:collect="always"
       style="color-interpolation-filters:sRGB"
       id="filter3639"
       x="-0.3515172"
       width="1.7030344"
       y="-0.12938578"
       height="1.2587716">
      <feGaussianBlur
         inkscape:collect="always"
         stdDeviation="0.87580261"
         id="feGaussianBlur3641" />
    </filter>
    <filter
       inkscape:collect="always"
       style="color-interpolation-filters:sRGB"
       id="filter3643"
       x="-0.3515172"
       width="1.7030344"
       y="-0.12938585"
       height="1.2587717">
      <feGaussianBlur
         inkscape:collect="always"
         stdDeviation="0.87580261"
         id="feGaussianBlur3645" />
    </filter>
  </defs>
  <sodipodi:namedview
     id="base"
     pagecolor="#ffffff"
     bordercolor="#666666"
     borderopacity="1.0"
     inkscape:pageopacity="0.0"
     inkscape:pageshadow="2"
     inkscape:zoom="0.98495708"
     inkscape:cx="456.36506"
     inkscape:cy="96.95854"
     inkscape:document-units="mm"
     inkscape:current-layer="layer1"
     showgrid="false"
     lock-margins="true"
     fit-margin-top="2"
     fit-margin-left="2"
     fit-margin-right="2"
     fit-margin-bottom="2"
     inkscape:window-width="1256"
     inkscape:window-height="755"
     inkscape:window-x="0"
     inkscape:window-y="23"
     inkscape:window-maximized="0" />
  <g
     inkscape:label="Ebene 1"
     inkscape:groupmode="layer"
     id="layer1"
     transform="translate(82,-122.1803)">
    <polyline
       class=""
       stroke="#000000"
       stroke-width="3.25"
       stroke-linejoin="bevel"
       points="6.73374,138.536 527.478,138.536"
       id="polyline56"
       transform="matrix(0.11137905,0,0,0.26598649,-80.749998,96.468936)" />
    <polyline
       class=""
       stroke="#000000"
       stroke-width="3.25"
       stroke-linejoin="bevel"
       points="6.73374,163.536 527.478,163.536"
       id="polyline58"
       transform="matrix(0.11137905,0,0,0.26598649,-80.749998,96.468936)" />
    <polyline
       class=""
       stroke="#000000"
       stroke-width="3.25"
       stroke-linejoin="bevel"
       points="6.73374,188.536 527.478,188.536"
       id="polyline60"
       transform="matrix(0.11137905,0,0,0.26598649,-80.749998,96.468936)" />
    <polyline
       class=""
       stroke="#000000"
       stroke-width="3.25"
       stroke-linejoin="bevel"
       points="6.73374,213.536 527.478,213.536"
       id="polyline62"
       transform="matrix(0.11137905,0,0,0.26598649,-80.749998,96.468936)" />
    <polyline
       class=""
       stroke="#000000"
       stroke-width="3.25"
       stroke-linejoin="bevel"
       points="6.73374,238.536 527.478,238.536"
       id="polyline64"
       transform="matrix(0.11137905,0,0,0.26598649,-80.749998,96.468936)" />
    <path
       class=""
       d="M -62.272928,128.28134 C -61.399803,128.28134 -60.685428,128.99571 -60.685428,130.45092 C -60.685428,133.3878 -63.19897,135.76905 -65.289178,137.59467 C -65.368553,137.64759 -65.42147,137.70051 -65.474387,137.70051 C -65.553762,137.70051 -65.606678,137.59467 -65.633137,137.38301 C -65.73897,136.69509 -65.791887,135.79551 -65.791887,134.94884 C -65.791887,130.82134 -63.886887,128.28134 -62.272928,128.28134 M -63.331262,150.50634 C -63.384178,150.2153 -63.35772,150.13592 -63.146053,150.13592 C -63.119595,150.13592 -63.066678,150.13592 -63.04022,150.13592 C -60.897095,150.32113 -59.124387,152.1203 -59.124387,154.44863 C -59.124387,156.11551 -60.129803,157.46488 -61.61147,158.20571 C -61.743762,158.25863 -61.823137,158.31155 -61.876053,158.31155 C -61.981887,158.31155 -62.008345,158.23217 -62.034803,158.04696 L -63.331262,150.50634 M -65.156887,146.29946 C -65.077512,146.80217 -65.077512,146.77571 -65.553762,146.93446 C -67.882095,147.72821 -69.39022,149.81842 -69.39022,152.06738 C -69.39022,154.44863 -68.146678,156.14196 -66.347512,156.75051 C -66.135845,156.82988 -65.818345,156.90926 -65.633137,156.90926 C -65.42147,156.90926 -65.315637,156.77696 -65.315637,156.61821 C -65.315637,156.43301 -65.527303,156.35363 -65.712512,156.27426 C -66.823762,155.79801 -67.617512,154.6603 -67.617512,153.44321 C -67.617512,151.93509 -66.585637,150.79738 -64.971678,150.34759 C -64.839387,150.32113 -64.733553,150.29467 -64.654178,150.29467 C -64.521887,150.29467 -64.46897,150.37405 -64.442512,150.55926 L -63.119595,158.44384 C -63.066678,158.73488 -63.093137,158.73488 -63.490012,158.81426 C -63.913345,158.89363 -64.442512,158.94655 -64.971678,158.94655 C -69.601887,158.94655 -72.591678,156.38009 -72.591678,152.70238 C -72.591678,148.20446 -69.284387,145.39988 -66.082928,142.80696 C -65.977095,142.72759 -65.89772,142.67467 -65.844803,142.67467 C -65.765428,142.67467 -65.73897,142.75405 -65.712512,142.9128 L -65.156887,146.29946 M -64.760012,142.25134 C -64.812928,141.93384 -64.760012,141.90738 -64.601262,141.74863 C -61.743762,139.07634 -59.574178,135.71613 -59.574178,131.66801 C -59.574178,129.36613 -60.209178,127.09071 -61.29397,125.50321 C -61.690845,124.92113 -62.378762,124.1803 -62.669803,124.1803 C -63.04022,124.1803 -63.860428,124.86821 -64.389595,125.4503 C -66.347512,127.61988 -66.982512,130.92717 -66.982512,133.67884 C -66.982512,135.21342 -66.797303,136.93321 -66.612095,138.01801 C -66.559178,138.33551 -66.53272,138.38842 -66.85022,138.65301 C -70.66022,141.80155 -74.708345,145.58509 -74.708345,150.92967 C -74.708345,155.53342 -71.559803,159.89905 -65.077512,159.89905 C -64.46897,159.89905 -63.781053,159.84613 -63.251887,159.7403 C -63.146053,159.71384 -63.093137,159.71384 -63.04022,159.71384 C -62.934387,159.71384 -62.88147,159.76676 -62.855012,159.97842 C -62.537512,161.75113 -62.140637,164.05301 -62.140637,165.29655 C -62.140637,169.21238 -64.78647,169.68863 -66.347512,169.68863 C -67.776262,169.68863 -68.464178,169.2653 -68.464178,168.92134 C -68.464178,168.73613 -68.226053,168.65676 -67.617512,168.47155 C -66.797303,168.23342 -65.844803,167.51905 -65.844803,165.98446 C -65.844803,164.52926 -66.770845,163.28571 -68.384803,163.28571 C -70.157511,163.28571 -71.215845,164.68801 -71.215845,166.32842 C -71.215845,168.04821 -70.18397,170.64113 -66.188762,170.64113 C -64.416053,170.64113 -60.97647,169.84738 -60.97647,165.34946 C -60.97647,163.84134 -61.45272,161.3278 -61.743762,159.68738 C -61.796678,159.36988 -61.77022,159.39634 -61.399803,159.23759 C -58.727512,158.17926 -56.954803,155.9303 -56.954803,152.94051 C -56.954803,149.55384 -59.441887,146.56405 -63.331262,146.56405 C -64.019178,146.56405 -64.019178,146.56405 -64.098553,146.0878 L -64.760012,142.25134"
       id="path170"
       style="stroke-width:0.264583" />
    <path
       class=""
       d="M -35.869284,152.06738 C -35.869284,152.06738 -35.948659,150.47988 -35.948659,149.42155 C -35.948659,148.99821 -35.922201,148.68071 -35.895743,148.57488 C -35.710534,148.04571 -34.652201,147.27842 -34.043659,147.27842 C -33.276368,147.27842 -32.958868,148.15155 -32.958868,148.81301 C -32.958868,150.24176 -34.175951,151.67051 -35.313659,152.38488 C -35.419493,152.4378 -35.498868,152.46426 -35.578243,152.46426 C -35.816368,152.46426 -35.869284,152.19967 -35.869284,152.06738 M -36.795326,154.42217 C -36.715951,154.52801 -36.636576,154.55446 -36.557201,154.55446 C -36.477826,154.55446 -36.398451,154.50155 -36.398451,154.50155 C -35.604701,154.05176 -34.969701,153.33738 -34.308243,152.88759 C -31.953451,151.24717 -31.133243,149.63321 -31.133243,148.41613 C -31.133243,146.90801 -32.297409,145.95551 -33.514493,145.87613 C -33.964284,145.87613 -34.599284,146.0878 -34.969701,146.32592 C -35.128451,146.45821 -35.419493,146.69634 -35.551784,146.69634 C -35.604701,146.69634 -35.631159,146.69634 -35.684076,146.66988 C -35.869284,146.59051 -35.975118,146.4053 -35.975118,146.22009 C -35.948659,145.63801 -35.789909,139.28801 -35.789909,138.75884 C -35.789909,138.4678 -36.028034,138.30905 -36.292618,138.30905 C -36.663034,138.30905 -37.086368,138.57363 -37.112826,139.04988 C -37.112826,139.04988 -37.006993,154.15759 -36.795326,154.42217"
       id="path172"
       style="fill:#6060ff;fill-opacity:0.5574913;stroke-width:0.264583;filter:url(#filter3643)" />
    <path
       class=""
       d="M -42.483868,138.83821 C -42.483868,138.83821 -42.563243,137.25071 -42.563243,136.19238 C -42.563243,135.76905 -42.536784,135.45155 -42.510326,135.34571 C -42.325118,134.81655 -41.266784,134.04926 -40.658243,134.04926 C -39.890951,134.04926 -39.573451,134.92238 -39.573451,135.58384 C -39.573451,137.01259 -40.790534,138.44134 -41.928243,139.15571 C -42.034076,139.20863 -42.113451,139.23509 -42.192826,139.23509 C -42.430951,139.23509 -42.483868,138.97051 -42.483868,138.83821 M -43.409909,141.19301 C -43.330534,141.29884 -43.251159,141.3253 -43.171784,141.3253 C -43.092409,141.3253 -43.013034,141.27238 -43.013034,141.27238 C -42.219284,140.82259 -41.584284,140.10821 -40.922826,139.65842 C -38.568034,138.01801 -37.747826,136.40405 -37.747826,135.18696 C -37.747826,133.67884 -38.911993,132.72634 -40.129076,132.64696 C -40.578868,132.64696 -41.213868,132.85863 -41.584284,133.09676 C -41.743034,133.22905 -42.034076,133.46717 -42.166368,133.46717 C -42.219284,133.46717 -42.245743,133.46717 -42.298659,133.44071 C -42.483868,133.36134 -42.589701,133.17613 -42.589701,132.99092 C -42.563243,132.40884 -42.404493,126.05884 -42.404493,125.52967 C -42.404493,125.23863 -42.642618,125.07988 -42.907201,125.07988 C -43.277618,125.07988 -43.700951,125.34446 -43.727409,125.82071 C -43.727409,125.82071 -43.621576,140.92842 -43.409909,141.19301"
       id="path174"
       style="fill:#6060ff;fill-opacity:0.5574913;stroke-width:0.264583;filter:url(#filter3639)" />
    <path
       class=""
       d="M -49.098451,148.76009 C -49.098451,148.76009 -49.177826,147.17259 -49.177826,146.11426 C -49.177826,145.69092 -49.151368,145.37342 -49.124909,145.26759 C -48.939701,144.73842 -47.881368,143.97113 -47.272826,143.97113 C -46.505534,143.97113 -46.188034,144.84426 -46.188034,145.50571 C -46.188034,146.93446 -47.405118,148.36321 -48.542826,149.07759 C -48.648659,149.13051 -48.728034,149.15696 -48.807409,149.15696 C -49.045534,149.15696 -49.098451,148.89238 -49.098451,148.76009 M -50.024493,151.11488 C -49.945118,151.22071 -49.865743,151.24717 -49.786368,151.24717 C -49.706993,151.24717 -49.627618,151.19426 -49.627618,151.19426 C -48.833868,150.74446 -48.198868,150.03009 -47.537409,149.5803 C -45.182618,147.93988 -44.362409,146.32592 -44.362409,145.10884 C -44.362409,143.60071 -45.526576,142.64821 -46.743659,142.56884 C -47.193451,142.56884 -47.828451,142.78051 -48.198868,143.01863 C -48.357618,143.15092 -48.648659,143.38905 -48.780951,143.38905 C -48.833868,143.38905 -48.860326,143.38905 -48.913243,143.36259 C -49.098451,143.28321 -49.204284,143.09801 -49.204284,142.9128 C -49.177826,142.33071 -49.019076,135.98071 -49.019076,135.45155 C -49.019076,135.16051 -49.257201,135.00176 -49.521784,135.00176 C -49.892201,135.00176 -50.315534,135.26634 -50.341993,135.74259 C -50.341993,135.74259 -50.236159,150.8503 -50.024493,151.11488"
       id="path176"
       style="stroke-width:0.264583" />
  </g>
</svg>
