<?xml version="1.0" encoding="UTF-8" standalone="no"?>
<svg
   width="252.99112"
   height="190.3004"
   viewBox="0 0 252.99112 190.3004"
   version="1.2"
   id="svg332"
   sodipodi:docname="F--&gt;D.svg"
   inkscape:version="1.1-dev (0486c1a, 2020-10-10)"
   xmlns:inkscape="http://www.inkscape.org/namespaces/inkscape"
   xmlns:sodipodi="http://sodipodi.sourceforge.net/DTD/sodipodi-0.dtd"
   xmlns="http://www.w3.org/2000/svg"
   xmlns:svg="http://www.w3.org/2000/svg"
   xmlns:rdf="http://www.w3.org/1999/02/22-rdf-syntax-ns#"
   xmlns:cc="http://creativecommons.org/ns#"
   xmlns:dc="http://purl.org/dc/elements/1.1/">
  <defs
     id="defs336" />
  <sodipodi:namedview
     pagecolor="#ffffff"
     bordercolor="#666666"
     borderopacity="1"
     objecttolerance="10"
     gridtolerance="10"
     guidetolerance="10"
     inkscape:pageopacity="0"
     inkscape:pageshadow="2"
     inkscape:window-width="833"
     inkscape:window-height="480"
     id="namedview334"
     showgrid="false"
     inkscape:zoom="0.62021468"
     inkscape:cx="122.53821"
     inkscape:cy="38.696278"
     inkscape:window-x="188"
     inkscape:window-y="33"
     inkscape:window-maximized="0"
     inkscape:current-layer="g2608"
     lock-margins="true"
     fit-margin-top="1"
     fit-margin-left="1"
     fit-margin-right="1"
     fit-margin-bottom="1" />
  <title
     id="title200">Unbenannt</title>
  <desc
     id="desc202">Generated by MuseScore 3.5.2</desc>
  <metadata
     id="metadata2309">
    <rdf:RDF>
      <cc:Work
         rdf:about="">
        <dc:title>Unbenannt</dc:title>
      </cc:Work>
    </rdf:RDF>
  </metadata>
  <g
     id="g2608"
     transform="translate(-19.5809,-98.2646)">
    <path
       id="polyline242-5"
       style="stroke:#000000;stroke-width:3.25;stroke-linejoin:bevel"
       d="M 20.5809,146.765 H 271.57202"
       class=""
       sodipodi:nodetypes="cc" />
    <path
       id="polyline244-8"
       style="stroke:#000000;stroke-width:3.25;stroke-linejoin:bevel"
       d="M 20.5809,171.765 H 271.57202"
       class=""
       sodipodi:nodetypes="cc" />
    <path
       id="polyline246-5"
       style="stroke:#000000;stroke-width:3.25;stroke-linejoin:bevel"
       d="M 20.5809,196.765 H 271.57202"
       class=""
       sodipodi:nodetypes="cc" />
    <path
       id="polyline248-6"
       style="stroke:#000000;stroke-width:3.25;stroke-linejoin:bevel"
       d="M 20.5809,221.765 H 271.57202"
       class=""
       sodipodi:nodetypes="cc" />
    <path
       id="polyline250-7"
       style="stroke:#000000;stroke-width:3.25;stroke-linejoin:bevel"
       d="M 20.5809,246.765 H 271.57202"
       class=""
       sodipodi:nodetypes="cc" />
    <path
       class=""
       d="M 87.5809,127.465 C 90.8809,127.465 93.5809,130.165 93.5809,135.665 C 93.5809,146.765 84.0809,155.765 76.1809,162.665 C 75.8809,162.865 75.6809,163.065 75.4809,163.065 C 75.1809,163.065 74.9809,162.665 74.8809,161.865 C 74.4809,159.265 74.2809,155.865 74.2809,152.665 C 74.2809,137.065 81.4809,127.465 87.5809,127.465 M 83.5809,211.465 C 83.3809,210.365 83.4809,210.065 84.2809,210.065 C 84.3809,210.065 84.5809,210.065 84.6809,210.065 C 92.7809,210.765 99.4809,217.565 99.4809,226.365 C 99.4809,232.665 95.6809,237.765 90.0809,240.565 C 89.5809,240.765 89.2809,240.965 89.0809,240.965 C 88.6809,240.965 88.5809,240.665 88.4809,239.965 L 83.5809,211.465 M 76.6809,195.565 C 76.9809,197.465 76.9809,197.365 75.1809,197.965 C 66.3809,200.965 60.6809,208.865 60.6809,217.365 C 60.6809,226.365 65.3809,232.765 72.1809,235.065 C 72.9809,235.365 74.1809,235.665 74.8809,235.665 C 75.6809,235.665 76.0809,235.165 76.0809,234.565 C 76.0809,233.865 75.2809,233.565 74.5809,233.265 C 70.3809,231.465 67.3809,227.165 67.3809,222.565 C 67.3809,216.865 71.2809,212.565 77.3809,210.865 C 77.8809,210.765 78.2809,210.665 78.5809,210.665 C 79.0809,210.665 79.2809,210.965 79.3809,211.665 L 84.3809,241.465 C 84.5809,242.565 84.4809,242.565 82.9809,242.865 C 81.3809,243.165 79.3809,243.365 77.3809,243.365 C 59.8809,243.365 48.5809,233.665 48.5809,219.765 C 48.5809,202.765 61.0809,192.165 73.1809,182.365 C 73.5809,182.065 73.8809,181.865 74.0809,181.865 C 74.3809,181.865 74.4809,182.165 74.5809,182.765 L 76.6809,195.565 M 78.1809,180.265 C 77.9809,179.065 78.1809,178.965 78.7809,178.365 C 89.5809,168.265 97.7809,155.565 97.7809,140.265 C 97.7809,131.565 95.3809,122.965 91.2809,116.965 C 89.7809,114.765 87.1809,111.965 86.0809,111.965 C 84.6809,111.965 81.5809,114.565 79.5809,116.765 C 72.1809,124.965 69.7809,137.465 69.7809,147.865 C 69.7809,153.665 70.4809,160.165 71.1809,164.265 C 71.3809,165.465 71.4809,165.665 70.2809,166.665 C 55.8809,178.565 40.5809,192.865 40.5809,213.065 C 40.5809,230.465 52.4809,246.965 76.9809,246.965 C 79.2809,246.965 81.8809,246.765 83.8809,246.365 C 84.2809,246.265 84.4809,246.265 84.6809,246.265 C 85.0809,246.265 85.2809,246.465 85.3809,247.265 C 86.5809,253.965 88.0809,262.665 88.0809,267.365 C 88.0809,282.165 78.0809,283.965 72.1809,283.965 C 66.7809,283.965 64.1809,282.365 64.1809,281.065 C 64.1809,280.365 65.0809,280.065 67.3809,279.365 C 70.4809,278.465 74.0809,275.765 74.0809,269.965 C 74.0809,264.465 70.5809,259.765 64.4809,259.765 C 57.7809,259.765 53.7809,265.065 53.7809,271.265 C 53.7809,277.765 57.6809,287.565 72.7809,287.565 C 79.4809,287.565 92.4809,284.565 92.4809,267.565 C 92.4809,261.865 90.6809,252.365 89.5809,246.165 C 89.3809,244.965 89.4809,245.065 90.8809,244.465 C 100.981,240.465 107.681,231.965 107.681,220.665 C 107.681,207.865 98.2809,196.565 83.5809,196.565 C 80.9809,196.565 80.9809,196.565 80.6809,194.765 L 78.1809,180.265"
       id="path310-9" />
    <path
       class=""
       d="M 175.07636,245.2773 C 160.57636,245.2773 151.57636,251.3773 151.57636,258.7773 C 151.57636,266.0773 157.77636,272.5773 173.97636,272.5773 C 191.77636,272.5773 197.47636,266.3773 197.47636,258.7773 C 197.47636,251.0773 185.17636,245.2773 175.07636,245.2773 M 172.27636,247.7773 C 179.67636,247.7773 185.67636,255.7773 185.67636,262.3773 C 185.67636,267.7773 182.27636,270.0773 177.37636,270.0773 C 170.17636,270.0773 163.27636,261.7773 163.27636,254.7773 C 163.27636,249.1773 167.17636,247.7773 172.27636,247.7773"
       id="path2188"
       style="fill:#ff00ff" />
    <path
       class=""
       d="M 175.07636,220.72044 C 160.57636,220.72044 151.57636,226.82044 151.57636,234.22044 C 151.57636,241.52044 157.77636,248.02044 173.97636,248.02044 C 191.77636,248.02044 197.47636,241.82044 197.47636,234.22044 C 197.47636,226.52044 185.17636,220.72044 175.07636,220.72044 M 172.27636,223.22044 C 179.67636,223.22044 185.67636,231.22044 185.67636,237.82044 C 185.67636,243.22044 182.27636,245.52044 177.37636,245.52044 C 170.17636,245.52044 163.27636,237.22044 163.27636,230.22044 C 163.27636,224.62044 167.17636,223.22044 172.27636,223.22044"
       id="path2385"
       style="fill:#0000ff" />
  </g>
</svg>
