<?xml version="1.0" encoding="UTF-8" standalone="no"?>
<svg
   width="62mm"
   height="50.460831mm"
   viewBox="0 0 62 50.460831"
   version="1.1"
   id="svg3045"
   sodipodi:docname="F-Dur_(Es-minus-B-Dur).svg"
   inkscape:version="1.1-dev (0486c1a, 2020-10-10)"
   xmlns:inkscape="http://www.inkscape.org/namespaces/inkscape"
   xmlns:sodipodi="http://sodipodi.sourceforge.net/DTD/sodipodi-0.dtd"
   xmlns="http://www.w3.org/2000/svg"
   xmlns:svg="http://www.w3.org/2000/svg">
  <defs
     id="defs3041" />
  <sodipodi:namedview
     id="base"
     pagecolor="#ffffff"
     bordercolor="#666666"
     borderopacity="1.0"
     inkscape:pageopacity="0.0"
     inkscape:pageshadow="2"
     inkscape:zoom="0.25370275"
     inkscape:cx="640.51336"
     inkscape:cy="155.69402"
     inkscape:document-units="mm"
     inkscape:current-layer="layer1"
     showgrid="false"
     lock-margins="true"
     fit-margin-top="2"
     fit-margin-left="2"
     fit-margin-right="2"
     fit-margin-bottom="2"
     inkscape:window-width="1256"
     inkscape:window-height="755"
     inkscape:window-x="0"
     inkscape:window-y="23"
     inkscape:window-maximized="0" />
  <g
     inkscape:label="Ebene 1"
     inkscape:groupmode="layer"
     id="layer1"
     transform="translate(82,-122.1803)">
    <g
       id="g3221"
       transform="translate(-160)">
      <polyline
         class=""
         stroke="#000000"
         stroke-width="3.25"
         stroke-linejoin="bevel"
         points="6.73374,138.536 527.478,138.536"
         id="polyline3086"
         transform="matrix(0.11137905,0,0,0.26598649,79.250002,96.468936)" />
      <polyline
         class=""
         stroke="#000000"
         stroke-width="3.25"
         stroke-linejoin="bevel"
         points="6.73374,163.536 527.478,163.536"
         id="polyline3088"
         transform="matrix(0.11137905,0,0,0.26598649,79.250002,96.468936)" />
      <polyline
         class=""
         stroke="#000000"
         stroke-width="3.25"
         stroke-linejoin="bevel"
         points="6.73374,188.536 527.478,188.536"
         id="polyline3090"
         transform="matrix(0.11137905,0,0,0.26598649,79.250002,96.468936)" />
      <polyline
         class=""
         stroke="#000000"
         stroke-width="3.25"
         stroke-linejoin="bevel"
         points="6.73374,213.536 527.478,213.536"
         id="polyline3092"
         transform="matrix(0.11137905,0,0,0.26598649,79.250002,96.468936)" />
      <polyline
         class=""
         stroke="#000000"
         stroke-width="3.25"
         stroke-linejoin="bevel"
         points="6.73374,238.536 527.478,238.536"
         id="polyline3094"
         transform="matrix(0.11137905,0,0,0.26598649,79.250002,96.468936)" />
      <path
         class=""
         d="M 97.727073,128.28134 C 98.600198,128.28134 99.314573,128.99571 99.314573,130.45092 C 99.314573,133.3878 96.801031,135.76905 94.710823,137.59467 C 94.631448,137.64759 94.578531,137.70051 94.525614,137.70051 C 94.446239,137.70051 94.393323,137.59467 94.366864,137.38301 C 94.261031,136.69509 94.208114,135.79551 94.208114,134.94884 C 94.208114,130.82134 96.113114,128.28134 97.727073,128.28134 M 96.668739,150.50634 C 96.615823,150.2153 96.642281,150.13592 96.853948,150.13592 C 96.880406,150.13592 96.933323,150.13592 96.959781,150.13592 C 99.102906,150.32113 100.87561,152.1203 100.87561,154.44863 C 100.87561,156.11551 99.870198,157.46488 98.388531,158.20571 C 98.256239,158.25863 98.176864,158.31155 98.123948,158.31155 C 98.018114,158.31155 97.991656,158.23217 97.965198,158.04696 L 96.668739,150.50634 M 94.843114,146.29946 C 94.922489,146.80217 94.922489,146.77571 94.446239,146.93446 C 92.117906,147.72821 90.609781,149.81842 90.609781,152.06738 C 90.609781,154.44863 91.853323,156.14196 93.652489,156.75051 C 93.864156,156.82988 94.181656,156.90926 94.366864,156.90926 C 94.578531,156.90926 94.684364,156.77696 94.684364,156.61821 C 94.684364,156.43301 94.472698,156.35363 94.287489,156.27426 C 93.176239,155.79801 92.382489,154.6603 92.382489,153.44321 C 92.382489,151.93509 93.414364,150.79738 95.028323,150.34759 C 95.160614,150.32113 95.266448,150.29467 95.345823,150.29467 C 95.478114,150.29467 95.531031,150.37405 95.557489,150.55926 L 96.880406,158.44384 C 96.933323,158.73488 96.906864,158.73488 96.509989,158.81426 C 96.086656,158.89363 95.557489,158.94655 95.028323,158.94655 C 90.398114,158.94655 87.408323,156.38009 87.408323,152.70238 C 87.408323,148.20446 90.715614,145.39988 93.917073,142.80696 C 94.022906,142.72759 94.102281,142.67467 94.155198,142.67467 C 94.234573,142.67467 94.261031,142.75405 94.287489,142.9128 L 94.843114,146.29946 M 95.239989,142.25134 C 95.187073,141.93384 95.239989,141.90738 95.398739,141.74863 C 98.256239,139.07634 100.42582,135.71613 100.42582,131.66801 C 100.42582,129.36613 99.790823,127.09071 98.706031,125.50321 C 98.309156,124.92113 97.621239,124.1803 97.330198,124.1803 C 96.959781,124.1803 96.139573,124.86821 95.610406,125.4503 C 93.652489,127.61988 93.017489,130.92717 93.017489,133.67884 C 93.017489,135.21342 93.202698,136.93321 93.387906,138.01801 C 93.440823,138.33551 93.467281,138.38842 93.149781,138.65301 C 89.339781,141.80155 85.291656,145.58509 85.291656,150.92967 C 85.291656,155.53342 88.440198,159.89905 94.922489,159.89905 C 95.531031,159.89905 96.218948,159.84613 96.748114,159.7403 C 96.853948,159.71384 96.906864,159.71384 96.959781,159.71384 C 97.065614,159.71384 97.118531,159.76676 97.144989,159.97842 C 97.462489,161.75113 97.859364,164.05301 97.859364,165.29655 C 97.859364,169.21238 95.213531,169.68863 93.652489,169.68863 C 92.223739,169.68863 91.535823,169.2653 91.535823,168.92134 C 91.535823,168.73613 91.773948,168.65676 92.382489,168.47155 C 93.202698,168.23342 94.155198,167.51905 94.155198,165.98446 C 94.155198,164.52926 93.229156,163.28571 91.615198,163.28571 C 89.842489,163.28571 88.784156,164.68801 88.784156,166.32842 C 88.784156,168.04821 89.816031,170.64113 93.811239,170.64113 C 95.583948,170.64113 99.023531,169.84738 99.023531,165.34946 C 99.023531,163.84134 98.547281,161.3278 98.256239,159.68738 C 98.203323,159.36988 98.229781,159.39634 98.600198,159.23759 C 101.27249,158.17926 103.0452,155.9303 103.0452,152.94051 C 103.0452,149.55384 100.55811,146.56405 96.668739,146.56405 C 95.980823,146.56405 95.980823,146.56405 95.901448,146.0878 L 95.239989,142.25134"
         id="path3096"
         style="stroke-width:0.264583" />
      <path
         class=""
         d="M 110.90155,148.76009 C 110.90155,148.76009 110.82217,147.17259 110.82217,146.11426 C 110.82217,145.69092 110.84863,145.37342 110.87509,145.26759 C 111.0603,144.73842 112.11863,143.97113 112.72717,143.97113 C 113.49447,143.97113 113.81197,144.84426 113.81197,145.50571 C 113.81197,146.93446 112.59488,148.36321 111.45717,149.07759 C 111.35134,149.13051 111.27197,149.15696 111.19259,149.15696 C 110.95447,149.15696 110.90155,148.89238 110.90155,148.76009 M 109.97551,151.11488 C 110.05488,151.22071 110.13426,151.24717 110.21363,151.24717 C 110.29301,151.24717 110.37238,151.19426 110.37238,151.19426 C 111.16613,150.74446 111.80113,150.03009 112.46259,149.5803 C 114.81738,147.93988 115.63759,146.32592 115.63759,145.10884 C 115.63759,143.60071 114.47342,142.64821 113.25634,142.56884 C 112.80655,142.56884 112.17155,142.78051 111.80113,143.01863 C 111.64238,143.15092 111.35134,143.38905 111.21905,143.38905 C 111.16613,143.38905 111.13967,143.38905 111.08676,143.36259 C 110.90155,143.28321 110.79572,143.09801 110.79572,142.9128 C 110.82217,142.33071 110.98092,135.98071 110.98092,135.45155 C 110.98092,135.16051 110.7428,135.00176 110.47822,135.00176 C 110.1078,135.00176 109.68447,135.26634 109.65801,135.74259 C 109.65801,135.74259 109.76384,150.8503 109.97551,151.11488"
         id="path3102"
         style="stroke-width:0.264583" />
    </g>
  </g>
</svg>
