<?xml version="1.0" encoding="UTF-8" standalone="no"?>
<svg
   width="252.99112"
   height="193.39876"
   viewBox="0 0 252.99112 193.39876"
   version="1.2"
   id="svg332"
   sodipodi:docname="G-_+_A-Dur.svg"
   inkscape:version="1.1-dev (0486c1a, 2020-10-10)"
   xmlns:inkscape="http://www.inkscape.org/namespaces/inkscape"
   xmlns:sodipodi="http://sodipodi.sourceforge.net/DTD/sodipodi-0.dtd"
   xmlns="http://www.w3.org/2000/svg"
   xmlns:svg="http://www.w3.org/2000/svg"
   xmlns:rdf="http://www.w3.org/1999/02/22-rdf-syntax-ns#"
   xmlns:cc="http://creativecommons.org/ns#"
   xmlns:dc="http://purl.org/dc/elements/1.1/">
  <defs
     id="defs336">
    <filter
       inkscape:collect="always"
       style="color-interpolation-filters:sRGB"
       id="filter2473"
       x="-0.12443208"
       width="1.2488642"
       y="-0.044389095"
       height="1.0887783">
      <feGaussianBlur
         inkscape:collect="always"
         stdDeviation="1.2909829"
         id="feGaussianBlur2475" />
    </filter>
    <filter
       inkscape:collect="always"
       style="color-interpolation-filters:sRGB"
       id="filter2477"
       x="-0.12443208"
       width="1.2488642"
       y="-0.044388842"
       height="1.0887777">
      <feGaussianBlur
         inkscape:collect="always"
         stdDeviation="1.2909829"
         id="feGaussianBlur2479" />
    </filter>
    <filter
       inkscape:collect="always"
       style="color-interpolation-filters:sRGB"
       id="filter2481"
       x="-0.12443208"
       width="1.2488642"
       y="-0.044389095"
       height="1.0887783">
      <feGaussianBlur
         inkscape:collect="always"
         stdDeviation="1.2909829"
         id="feGaussianBlur2483" />
    </filter>
  </defs>
  <sodipodi:namedview
     pagecolor="#ffffff"
     bordercolor="#666666"
     borderopacity="1"
     objecttolerance="10"
     gridtolerance="10"
     guidetolerance="10"
     inkscape:pageopacity="0"
     inkscape:pageshadow="2"
     inkscape:window-width="833"
     inkscape:window-height="480"
     id="namedview334"
     showgrid="false"
     inkscape:zoom="0.2098972"
     inkscape:cx="390.66743"
     inkscape:cy="414.48861"
     inkscape:window-x="188"
     inkscape:window-y="77"
     inkscape:window-maximized="0"
     inkscape:current-layer="svg332"
     lock-margins="true"
     fit-margin-top="1"
     fit-margin-left="1"
     fit-margin-right="1"
     fit-margin-bottom="1" />
  <title
     id="title200">Unbenannt</title>
  <desc
     id="desc202">Generated by MuseScore 3.5.2</desc>
  <path
     id="polyline242"
     style="stroke:#000000;stroke-width:3.25;stroke-linejoin:bevel"
     d="M 1,51.598759 H 251.99112"
     class=""
     sodipodi:nodetypes="cc" />
  <path
     id="polyline244"
     style="stroke:#000000;stroke-width:3.25;stroke-linejoin:bevel"
     d="M 1,76.598759 H 251.99112"
     class=""
     sodipodi:nodetypes="cc" />
  <path
     id="polyline246"
     style="stroke:#000000;stroke-width:3.25;stroke-linejoin:bevel"
     d="M 1,101.59876 H 251.99112"
     class=""
     sodipodi:nodetypes="cc" />
  <path
     id="polyline248"
     style="stroke:#000000;stroke-width:3.25;stroke-linejoin:bevel"
     d="M 1,126.59876 H 251.99112"
     class=""
     sodipodi:nodetypes="cc" />
  <path
     id="polyline250"
     style="stroke:#000000;stroke-width:3.25;stroke-linejoin:bevel"
     d="M 1,151.59876 H 251.99112"
     class=""
     sodipodi:nodetypes="cc" />
  <path
     class=""
     d="M 68,32.298759 C 71.3,32.298759 74,34.998759 74,40.498759 C 74,51.598759 64.5,60.598759 56.6,67.498759 C 56.3,67.698759 56.1,67.898759 55.9,67.898759 C 55.6,67.898759 55.4,67.498759 55.3,66.698759 C 54.9,64.098759 54.7,60.698759 54.7,57.498759 C 54.7,41.898759 61.9,32.298759 68,32.298759 M 64,116.29876 C 63.8,115.19876 63.9,114.89876 64.7,114.89876 C 64.8,114.89876 65,114.89876 65.1,114.89876 C 73.2,115.59876 79.9,122.39876 79.9,131.19876 C 79.9,137.49876 76.1,142.59876 70.5,145.39876 C 70,145.59876 69.7,145.79876 69.5,145.79876 C 69.1,145.79876 69,145.49876 68.9,144.79876 L 64,116.29876 M 57.1,100.39876 C 57.4,102.29876 57.4,102.19876 55.6,102.79876 C 46.8,105.79876 41.1,113.69876 41.1,122.19876 C 41.1,131.19876 45.8,137.59876 52.6,139.89876 C 53.4,140.19876 54.6,140.49876 55.3,140.49876 C 56.1,140.49876 56.5,139.99876 56.5,139.39876 C 56.5,138.69876 55.7,138.39876 55,138.09876 C 50.8,136.29876 47.8,131.99876 47.8,127.39876 C 47.8,121.69876 51.7,117.39876 57.8,115.69876 C 58.3,115.59876 58.7,115.49876 59,115.49876 C 59.5,115.49876 59.7,115.79876 59.8,116.49876 L 64.8,146.29876 C 65,147.39876 64.9,147.39876 63.4,147.69876 C 61.8,147.99876 59.8,148.19876 57.8,148.19876 C 40.3,148.19876 29,138.49876 29,124.59876 C 29,107.59876 41.5,96.998759 53.6,87.198759 C 54,86.898759 54.3,86.698759 54.5,86.698759 C 54.8,86.698759 54.9,86.998759 55,87.598759 L 57.1,100.39876 M 58.6,85.098759 C 58.4,83.898759 58.6,83.798759 59.2,83.198759 C 70,73.098759 78.2,60.398759 78.2,45.098759 C 78.2,36.398759 75.8,27.798759 71.7,21.798759 C 70.2,19.598759 67.6,16.798759 66.5,16.798759 C 65.1,16.798759 62,19.398759 60,21.598759 C 52.6,29.798759 50.2,42.298759 50.2,52.698759 C 50.2,58.498759 50.9,64.998759 51.6,69.098759 C 51.8,70.298759 51.9,70.498759 50.7,71.498759 C 36.3,83.398759 21,97.698759 21,117.89876 C 21,135.29876 32.9,151.79876 57.4,151.79876 C 59.7,151.79876 62.3,151.59876 64.3,151.19876 C 64.7,151.09876 64.9,151.09876 65.1,151.09876 C 65.5,151.09876 65.7,151.29876 65.8,152.09876 C 67,158.79876 68.5,167.49876 68.5,172.19876 C 68.5,186.99876 58.5,188.79876 52.6,188.79876 C 47.2,188.79876 44.6,187.19876 44.6,185.89876 C 44.6,185.19876 45.5,184.89876 47.8,184.19876 C 50.9,183.29876 54.5,180.59876 54.5,174.79876 C 54.5,169.29876 51,164.59876 44.9,164.59876 C 38.2,164.59876 34.2,169.89876 34.2,176.09876 C 34.2,182.59876 38.1,192.39876 53.2,192.39876 C 59.9,192.39876 72.9,189.39876 72.9,172.39876 C 72.9,166.69876 71.1,157.19876 70,150.99876 C 69.8,149.79876 69.9,149.89876 71.3,149.29876 C 81.4001,145.29876 88.1001,136.79876 88.1001,125.49876 C 88.1001,112.69876 78.7,101.39876 64,101.39876 C 61.4,101.39876 61.4,101.39876 61.1,99.598759 L 58.6,85.098759"
     id="path310" />
  <path
     class=""
     d="M 188.8941,97.498759 C 188.9941,97.498759 189.1941,97.398759 189.2941,97.398759 C 189.2941,97.398759 190.6941,96.798759 191.5941,96.498759 C 191.6941,96.398759 191.7941,96.398759 191.8941,96.398759 C 192.5941,96.398759 193.0941,97.498759 193.0941,97.998759 V 110.29876 C 193.0941,110.89876 193.6941,111.39876 194.3941,111.39876 C 195.3941,111.39876 196.0941,110.89876 196.0941,110.29876 V 96.398759 C 196.0941,95.098759 196.5941,94.398759 197.0941,94.198759 L 203.1941,91.698759 C 203.2941,91.698759 203.4941,91.598759 203.5941,91.598759 C 204.3941,91.598759 204.8941,92.798759 204.8941,93.398759 V 105.89876 C 204.8941,106.49876 205.4941,106.99876 206.1941,106.99876 C 207.2941,106.99876 207.8941,106.49876 207.8941,105.89876 V 91.698759 C 207.8941,90.898759 208.2941,89.698759 208.9941,89.398759 C 209.6941,89.098759 211.7941,88.298759 211.7941,88.298759 C 212.4941,87.998759 212.9941,87.198759 212.9941,86.598759 V 79.498759 C 212.9941,78.998759 212.6941,78.698759 212.2941,78.698759 C 212.0941,78.698759 211.9941,78.698759 211.7941,78.798759 L 209.1941,79.798759 C 208.5941,79.798759 207.8941,79.198759 207.8941,77.998759 V 68.698759 C 207.8941,67.998759 208.3941,66.098759 209.1941,65.798759 L 211.7941,64.798759 C 212.4941,64.498759 212.9941,63.698759 212.9941,63.098759 V 55.998759 C 212.9941,55.498759 212.6941,55.198759 212.2941,55.198759 C 212.0941,55.198759 211.9941,55.198759 211.7941,55.298759 C 211.7941,55.298759 209.7941,56.098759 209.2941,56.198759 C 208.5941,56.198759 207.8941,55.698759 207.8941,54.898759 V 42.698759 C 207.8941,42.098759 207.2941,41.598759 206.4941,41.598759 C 205.4941,41.598759 204.8941,42.098759 204.8941,42.698759 V 55.698759 C 204.7941,56.698759 204.4941,57.998759 203.5941,58.598759 C 202.3941,59.298759 198.9941,60.698759 197.2941,61.098759 C 196.3941,61.098759 196.0941,59.898759 196.0941,59.098759 V 47.098759 C 196.0941,46.498759 195.3941,45.998759 194.6941,45.998759 C 193.6941,45.998759 193.0941,46.498759 193.0941,47.098759 V 60.598759 C 193.0941,61.998759 192.4941,62.998759 191.8941,63.298759 C 191.2941,63.598759 189.2941,64.398759 189.2941,64.398759 C 188.5941,64.598759 188.0941,65.398759 188.0941,65.998759 V 73.098759 C 188.0941,73.698759 188.3941,73.998759 188.8941,73.998759 C 189.2941,73.998759 191.1941,73.098759 191.4941,72.898759 C 192.4941,72.898759 193.0941,73.398759 193.0941,74.598759 V 84.498759 C 193.0941,85.598759 192.5941,86.498759 191.9941,86.798759 C 191.3941,86.998759 189.2941,87.898759 189.2941,87.898759 C 188.5941,88.098759 188.0941,88.898759 188.0941,89.498759 V 96.598759 C 188.0941,97.198759 188.3941,97.498759 188.8941,97.498759 M 196.0941,72.198759 C 196.2941,70.498759 200.8941,68.398759 203.3941,68.398759 C 204.0941,68.398759 204.6941,68.598759 204.8941,68.998759 C 205.0941,69.498759 205.2941,71.998759 205.2941,74.698759 C 205.2941,77.398759 205.0941,80.198759 204.8941,81.098759 C 204.2941,83.098759 199.5941,85.098759 197.2941,85.098759 C 196.6941,85.098759 196.1941,84.898759 196.0941,84.598759 C 195.8941,84.198759 195.7941,81.998759 195.7941,79.598759 C 195.7941,76.498759 195.8941,72.998759 196.0941,72.198759"
     id="path312"
     style="fill:#ff00ff;fill-opacity:0.421603;filter:url(#filter2481)" />
  <path
     class=""
     d="M 163.8941,59.998759 C 163.9941,59.998759 164.1941,59.898759 164.2941,59.898759 C 164.2941,59.898759 165.6941,59.298759 166.5941,58.998759 C 166.6941,58.898759 166.7941,58.898759 166.8941,58.898759 C 167.5941,58.898759 168.0941,59.998759 168.0941,60.498759 V 72.798759 C 168.0941,73.398759 168.6941,73.898759 169.3941,73.898759 C 170.3941,73.898759 171.0941,73.398759 171.0941,72.798759 V 58.898759 C 171.0941,57.598759 171.5941,56.898759 172.0941,56.698759 L 178.1941,54.198759 C 178.2941,54.198759 178.4941,54.098759 178.5941,54.098759 C 179.3941,54.098759 179.8941,55.298759 179.8941,55.898759 V 68.398759 C 179.8941,68.998759 180.4941,69.498759 181.1941,69.498759 C 182.2941,69.498759 182.8941,68.998759 182.8941,68.398759 V 54.198759 C 182.8941,53.398759 183.2941,52.198759 183.9941,51.898759 C 184.6941,51.598759 186.7941,50.798759 186.7941,50.798759 C 187.4941,50.498759 187.9941,49.698759 187.9941,49.098759 V 41.998759 C 187.9941,41.498759 187.6941,41.198759 187.2941,41.198759 C 187.0941,41.198759 186.9941,41.198759 186.7941,41.298759 L 184.1941,42.298759 C 183.5941,42.298759 182.8941,41.698759 182.8941,40.498759 V 31.198759 C 182.8941,30.498759 183.3941,28.598759 184.1941,28.298759 L 186.7941,27.298759 C 187.4941,26.998759 187.9941,26.198759 187.9941,25.598759 V 18.498759 C 187.9941,17.998759 187.6941,17.698759 187.2941,17.698759 C 187.0941,17.698759 186.9941,17.698759 186.7941,17.798759 C 186.7941,17.798759 184.7941,18.598759 184.2941,18.698759 C 183.5941,18.698759 182.8941,18.198759 182.8941,17.398759 V 5.1987589 C 182.8941,4.5983589 182.2941,4.0983589 181.4941,4.0983589 C 180.4941,4.0983589 179.8941,4.5983589 179.8941,5.1987589 V 18.198759 C 179.7941,19.198759 179.4941,20.498759 178.5941,21.098759 C 177.3941,21.798759 173.9941,23.198759 172.2941,23.598759 C 171.3941,23.598759 171.0941,22.398759 171.0941,21.598759 V 9.5987589 C 171.0941,8.9987589 170.3941,8.4987589 169.6941,8.4987589 C 168.6941,8.4987589 168.0941,8.9987589 168.0941,9.5987589 V 23.098759 C 168.0941,24.498759 167.4941,25.498759 166.8941,25.798759 C 166.2941,26.098759 164.2941,26.898759 164.2941,26.898759 C 163.5941,27.098759 163.0941,27.898759 163.0941,28.498759 V 35.598759 C 163.0941,36.198759 163.3941,36.498759 163.8941,36.498759 C 164.2941,36.498759 166.1941,35.598759 166.4941,35.398759 C 167.4941,35.398759 168.0941,35.898759 168.0941,37.098759 V 46.998759 C 168.0941,48.098759 167.5941,48.998759 166.9941,49.298759 C 166.3941,49.498759 164.2941,50.398759 164.2941,50.398759 C 163.5941,50.598759 163.0941,51.398759 163.0941,51.998759 V 59.098759 C 163.0941,59.698759 163.3941,59.998759 163.8941,59.998759 M 171.0941,34.698759 C 171.2941,32.998759 175.8941,30.898759 178.3941,30.898759 C 179.0941,30.898759 179.6941,31.098759 179.8941,31.498759 C 180.0941,31.998759 180.2941,34.498759 180.2941,37.198759 C 180.2941,39.898759 180.0941,42.698759 179.8941,43.598759 C 179.2941,45.598759 174.5941,47.598759 172.2941,47.598759 C 171.6941,47.598759 171.1941,47.398759 171.0941,47.098759 C 170.8941,46.698759 170.7941,44.498759 170.7941,42.098759 C 170.7941,38.998759 170.8941,35.498759 171.0941,34.698759"
     id="path314"
     style="fill:#ff00ff;fill-opacity:0.421603;filter:url(#filter2477)" />
  <path
     class=""
     d="M 138.8941,109.99876 C 138.9941,109.99876 139.1941,109.89876 139.2941,109.89876 C 139.2941,109.89876 140.6941,109.29876 141.5941,108.99876 C 141.6941,108.89876 141.7941,108.89876 141.8941,108.89876 C 142.5941,108.89876 143.0941,109.99876 143.0941,110.49876 V 122.79876 C 143.0941,123.39876 143.6941,123.89876 144.3941,123.89876 C 145.3941,123.89876 146.0941,123.39876 146.0941,122.79876 V 108.89876 C 146.0941,107.59876 146.5941,106.89876 147.0941,106.69876 L 153.1941,104.19876 C 153.2941,104.19876 153.4941,104.09876 153.5941,104.09876 C 154.3941,104.09876 154.8941,105.29876 154.8941,105.89876 V 118.39876 C 154.8941,118.99876 155.4941,119.49876 156.1941,119.49876 C 157.2941,119.49876 157.8941,118.99876 157.8941,118.39876 V 104.19876 C 157.8941,103.39876 158.2941,102.19876 158.9941,101.89876 C 159.6941,101.59876 161.7941,100.79876 161.7941,100.79876 C 162.4941,100.49876 162.9941,99.698759 162.9941,99.098759 V 91.998759 C 162.9941,91.498759 162.6941,91.198759 162.2941,91.198759 C 162.0941,91.198759 161.9941,91.198759 161.7941,91.298759 L 159.1941,92.298759 C 158.5941,92.298759 157.8941,91.698759 157.8941,90.498759 V 81.198759 C 157.8941,80.498759 158.3941,78.598759 159.1941,78.298759 L 161.7941,77.298759 C 162.4941,76.998759 162.9941,76.198759 162.9941,75.598759 V 68.498759 C 162.9941,67.998759 162.6941,67.698759 162.2941,67.698759 C 162.0941,67.698759 161.9941,67.698759 161.7941,67.798759 C 161.7941,67.798759 159.7941,68.598759 159.2941,68.698759 C 158.5941,68.698759 157.8941,68.198759 157.8941,67.398759 V 55.198759 C 157.8941,54.598759 157.2941,54.098759 156.4941,54.098759 C 155.4941,54.098759 154.8941,54.598759 154.8941,55.198759 V 68.198759 C 154.7941,69.198759 154.4941,70.498759 153.5941,71.098759 C 152.3941,71.798759 148.9941,73.198759 147.2941,73.598759 C 146.3941,73.598759 146.0941,72.398759 146.0941,71.598759 V 59.598759 C 146.0941,58.998759 145.3941,58.498759 144.6941,58.498759 C 143.6941,58.498759 143.0941,58.998759 143.0941,59.598759 V 73.098759 C 143.0941,74.498759 142.4941,75.498759 141.8941,75.798759 C 141.2941,76.098759 139.2941,76.898759 139.2941,76.898759 C 138.5941,77.098759 138.0941,77.898759 138.0941,78.498759 V 85.598759 C 138.0941,86.198759 138.3941,86.498759 138.8941,86.498759 C 139.2941,86.498759 141.1941,85.598759 141.4941,85.398759 C 142.4941,85.398759 143.0941,85.898759 143.0941,87.098759 V 96.998759 C 143.0941,98.098759 142.5941,98.998759 141.9941,99.298759 C 141.3941,99.498759 139.2941,100.39876 139.2941,100.39876 C 138.5941,100.59876 138.0941,101.39876 138.0941,101.99876 V 109.09876 C 138.0941,109.69876 138.3941,109.99876 138.8941,109.99876 M 146.0941,84.698759 C 146.2941,82.998759 150.8941,80.898759 153.3941,80.898759 C 154.0941,80.898759 154.6941,81.098759 154.8941,81.498759 C 155.0941,81.998759 155.2941,84.498759 155.2941,87.198759 C 155.2941,89.898759 155.0941,92.698759 154.8941,93.598759 C 154.2941,95.598759 149.5941,97.598759 147.2941,97.598759 C 146.6941,97.598759 146.1941,97.398759 146.0941,97.098759 C 145.8941,96.698759 145.7941,94.498759 145.7941,92.098759 C 145.7941,88.998759 145.8941,85.498759 146.0941,84.698759"
     id="path316"
     style="fill:#ff00ff;fill-opacity:0.421603;filter:url(#filter2473)" />
  <path
     class=""
     d="M 113.8941,72.498759 C 113.9941,72.498759 114.1941,72.398759 114.2941,72.398759 C 114.2941,72.398759 115.6941,71.798759 116.5941,71.498759 C 116.6941,71.398759 116.7941,71.398759 116.8941,71.398759 C 117.5941,71.398759 118.0941,72.498759 118.0941,72.998759 V 85.298759 C 118.0941,85.898759 118.6941,86.398759 119.3941,86.398759 C 120.3941,86.398759 121.0941,85.898759 121.0941,85.298759 V 71.398759 C 121.0941,70.098759 121.5941,69.398759 122.0941,69.198759 L 128.1941,66.698759 C 128.2941,66.698759 128.4941,66.598759 128.5941,66.598759 C 129.3941,66.598759 129.8941,67.798759 129.8941,68.398759 V 80.898759 C 129.8941,81.498759 130.4941,81.998759 131.1941,81.998759 C 132.2941,81.998759 132.8941,81.498759 132.8941,80.898759 V 66.698759 C 132.8941,65.898759 133.2941,64.698759 133.9941,64.398759 C 134.6941,64.098759 136.7941,63.298759 136.7941,63.298759 C 137.4941,62.998759 137.9941,62.198759 137.9941,61.598759 V 54.498759 C 137.9941,53.998759 137.6941,53.698759 137.2941,53.698759 C 137.0941,53.698759 136.9941,53.698759 136.7941,53.798759 L 134.1941,54.798759 C 133.5941,54.798759 132.8941,54.198759 132.8941,52.998759 V 43.698759 C 132.8941,42.998759 133.3941,41.098759 134.1941,40.798759 L 136.7941,39.798759 C 137.4941,39.498759 137.9941,38.698759 137.9941,38.098759 V 30.998759 C 137.9941,30.498759 137.6941,30.198759 137.2941,30.198759 C 137.0941,30.198759 136.9941,30.198759 136.7941,30.298759 C 136.7941,30.298759 134.7941,31.098759 134.2941,31.198759 C 133.5941,31.198759 132.8941,30.698759 132.8941,29.898759 V 17.698759 C 132.8941,17.098759 132.2941,16.598759 131.4941,16.598759 C 130.4941,16.598759 129.8941,17.098759 129.8941,17.698759 V 30.698759 C 129.7941,31.698759 129.4941,32.998759 128.5941,33.598759 C 127.3941,34.298759 123.9941,35.698759 122.2941,36.098759 C 121.3941,36.098759 121.0941,34.898759 121.0941,34.098759 V 22.098759 C 121.0941,21.498759 120.3941,20.998759 119.6941,20.998759 C 118.6941,20.998759 118.0941,21.498759 118.0941,22.098759 V 35.598759 C 118.0941,36.998759 117.4941,37.998759 116.8941,38.298759 C 116.2941,38.598759 114.2941,39.398759 114.2941,39.398759 C 113.5941,39.598759 113.0941,40.398759 113.0941,40.998759 V 48.098759 C 113.0941,48.698759 113.3941,48.998759 113.8941,48.998759 C 114.2941,48.998759 116.1941,48.098759 116.4941,47.898759 C 117.4941,47.898759 118.0941,48.398759 118.0941,49.598759 V 59.498759 C 118.0941,60.598759 117.5941,61.498759 116.9941,61.798759 C 116.3941,61.998759 114.2941,62.898759 114.2941,62.898759 C 113.5941,63.098759 113.0941,63.898759 113.0941,64.498759 V 71.598759 C 113.0941,72.198759 113.3941,72.498759 113.8941,72.498759 M 121.0941,47.198759 C 121.2941,45.498759 125.8941,43.398759 128.3941,43.398759 C 129.0941,43.398759 129.6941,43.598759 129.8941,43.998759 C 130.0941,44.498759 130.2941,46.998759 130.2941,49.698759 C 130.2941,52.398759 130.0941,55.198759 129.8941,56.098759 C 129.2941,58.098759 124.5941,60.098759 122.2941,60.098759 C 121.6941,60.098759 121.1941,59.898759 121.0941,59.598759 C 120.8941,59.198759 120.7941,56.998759 120.7941,54.598759 C 120.7941,51.498759 120.8941,47.998759 121.0941,47.198759"
     id="path318"
     style="fill:#0000ff" />
  <metadata
     id="metadata2309">
    <rdf:RDF>
      <cc:Work
         rdf:about="">
        <dc:title>Unbenannt</dc:title>
      </cc:Work>
    </rdf:RDF>
  </metadata>
</svg>
