<?xml version="1.0" encoding="UTF-8" standalone="no"?>
<svg
   width="251.24306"
   height="203.98634"
   viewBox="0 0 251.24306 203.98635"
   version="1.2"
   id="svg3388"
   sodipodi:docname="g-Moll_(e-Moll_-_A-Dur).svg"
   inkscape:version="1.1-dev (0486c1a, 2020-10-10)"
   xmlns:inkscape="http://www.inkscape.org/namespaces/inkscape"
   xmlns:sodipodi="http://sodipodi.sourceforge.net/DTD/sodipodi-0.dtd"
   xmlns="http://www.w3.org/2000/svg"
   xmlns:svg="http://www.w3.org/2000/svg"
   xmlns:rdf="http://www.w3.org/1999/02/22-rdf-syntax-ns#"
   xmlns:cc="http://creativecommons.org/ns#"
   xmlns:dc="http://purl.org/dc/elements/1.1/">
  <defs
     id="defs3392" />
  <sodipodi:namedview
     pagecolor="#ffffff"
     bordercolor="#666666"
     borderopacity="1"
     objecttolerance="10"
     gridtolerance="10"
     guidetolerance="10"
     inkscape:pageopacity="0"
     inkscape:pageshadow="2"
     inkscape:window-width="1262"
     inkscape:window-height="696"
     id="namedview3390"
     showgrid="false"
     inkscape:zoom="1.5821297"
     inkscape:cx="67.314329"
     inkscape:cy="111.24246"
     inkscape:window-x="17"
     inkscape:window-y="23"
     inkscape:window-maximized="0"
     inkscape:current-layer="svg3388"
     lock-margins="true"
     fit-margin-top="1"
     fit-margin-left="1"
     fit-margin-right="1"
     fit-margin-bottom="1"
     inkscape:snap-global="false" />
  <title
     id="title3222">Unbenannt</title>
  <desc
     id="desc3224">Generated by MuseScore 3.5.2</desc>
  <path
     class=""
     d="M 68.00005,42.886338 C 71.30005,42.886338 74.00005,45.586338 74.00005,51.086338 C 74.00005,62.186338 64.50005,71.186338 56.60005,78.086338 C 56.30005,78.286338 56.10005,78.486338 55.90005,78.486338 C 55.60005,78.486338 55.40005,78.086338 55.30005,77.286338 C 54.90005,74.686338 54.70005,71.286338 54.70005,68.086338 C 54.70005,52.486338 61.90005,42.886338 68.00005,42.886338 M 64.00005,126.88634 C 63.80005,125.78634 63.90005,125.48634 64.70005,125.48634 C 64.80005,125.48634 65.00005,125.48634 65.10005,125.48634 C 73.20005,126.18634 79.90005,132.98634 79.90005,141.78634 C 79.90005,148.08634 76.10005,153.18634 70.50005,155.98634 C 70.00005,156.18634 69.70005,156.38634 69.50005,156.38634 C 69.10005,156.38634 69.00005,156.08634 68.90005,155.38634 L 64.00005,126.88634 M 57.10005,110.98634 C 57.40005,112.88634 57.40005,112.78634 55.60005,113.38634 C 46.80005,116.38634 41.10005,124.28634 41.10005,132.78634 C 41.10005,141.78634 45.80005,148.18634 52.60005,150.48634 C 53.40005,150.78634 54.60005,151.08634 55.30005,151.08634 C 56.10005,151.08634 56.50005,150.58634 56.50005,149.98634 C 56.50005,149.28634 55.70005,148.98634 55.00005,148.68634 C 50.80005,146.88634 47.80005,142.58634 47.80005,137.98634 C 47.80005,132.28634 51.70005,127.98634 57.80005,126.28634 C 58.30005,126.18634 58.70005,126.08634 59.00005,126.08634 C 59.50005,126.08634 59.70005,126.38634 59.80005,127.08634 L 64.80005,156.88634 C 65.00005,157.98634 64.90005,157.98634 63.40005,158.28634 C 61.80005,158.58634 59.80005,158.78634 57.80005,158.78634 C 40.30005,158.78634 29.00005,149.08634 29.00005,135.18634 C 29.00005,118.18634 41.50005,107.58634 53.60005,97.786338 C 54.00005,97.486338 54.30005,97.286338 54.50005,97.286338 C 54.80005,97.286338 54.90005,97.586338 55.00005,98.186338 L 57.10005,110.98634 M 58.60005,95.686338 C 58.40005,94.486338 58.60005,94.386338 59.20005,93.786338 C 70.00005,83.686338 78.20005,70.986338 78.20005,55.686338 C 78.20005,46.986338 75.80005,38.386338 71.70005,32.386338 C 70.20005,30.186338 67.60005,27.386338 66.50005,27.386338 C 65.10005,27.386338 62.00005,29.986338 60.00005,32.186338 C 52.60005,40.386338 50.20005,52.886338 50.20005,63.286338 C 50.20005,69.086338 50.90005,75.586338 51.60005,79.686338 C 51.80005,80.886338 51.90005,81.086338 50.70005,82.086338 C 36.30005,93.986338 21.00005,108.28634 21.00005,128.48634 C 21.00005,145.88634 32.90005,162.38634 57.40005,162.38634 C 59.70005,162.38634 62.30005,162.18634 64.30005,161.78634 C 64.70005,161.68634 64.90005,161.68634 65.10005,161.68634 C 65.50005,161.68634 65.70005,161.88634 65.80005,162.68634 C 67.00005,169.38634 68.50005,178.08634 68.50005,182.78634 C 68.50005,197.58634 58.50005,199.38634 52.60005,199.38634 C 47.20005,199.38634 44.60005,197.78634 44.60005,196.48634 C 44.60005,195.78634 45.50005,195.48634 47.80005,194.78634 C 50.90005,193.88634 54.50005,191.18634 54.50005,185.38634 C 54.50005,179.88634 51.00005,175.18634 44.90005,175.18634 C 38.20005,175.18634 34.20005,180.48634 34.20005,186.68634 C 34.20005,193.18634 38.10005,202.98634 53.20005,202.98634 C 59.90005,202.98634 72.90005,199.98634 72.90005,182.98634 C 72.90005,177.28634 71.10005,167.78634 70.00005,161.58634 C 69.80005,160.38634 69.90005,160.48634 71.30005,159.88634 C 81.40005,155.88634 88.10005,147.38634 88.10005,136.08634 C 88.10005,123.28634 78.70005,111.98634 64.00005,111.98634 C 61.40005,111.98634 61.40005,111.98634 61.10005,110.18634 L 58.60005,95.686338"
     id="path3346" />
  <path
     id="polyline3272"
     style="stroke:#000000;stroke-width:3.25;stroke-linejoin:bevel"
     d="M 1,162.18634 H 250.24306"
     class=""
     sodipodi:nodetypes="cc" />
  <path
     id="polyline3264"
     style="stroke:#000000;stroke-width:3.25;stroke-linejoin:bevel"
     d="M 1,62.186338 H 250.24306"
     class=""
     sodipodi:nodetypes="cc" />
  <path
     id="polyline3266"
     style="stroke:#000000;stroke-width:3.25;stroke-linejoin:bevel"
     d="M 1,87.186338 H 250.24306"
     class=""
     sodipodi:nodetypes="cc" />
  <path
     id="polyline3268"
     style="stroke:#000000;stroke-width:3.25;stroke-linejoin:bevel"
     d="M 1,112.18634 H 250.24306"
     class=""
     sodipodi:nodetypes="cc" />
  <path
     id="polyline3270"
     style="stroke:#000000;stroke-width:3.25;stroke-linejoin:bevel"
     d="M 1,137.18634 H 250.24306"
     class=""
     sodipodi:nodetypes="cc" />
  <metadata
     id="metadata3464">
    <rdf:RDF>
      <cc:Work
         rdf:about="">
        <dc:title>Unbenannt</dc:title>
      </cc:Work>
    </rdf:RDF>
  </metadata>
  <path
     class=""
     d="M 148.83218,82.786108 C 148.83218,82.786108 148.53218,76.786108 148.53218,72.786108 C 148.53218,71.186108 148.63218,69.986108 148.73218,69.586108 C 149.43218,67.586108 153.43218,64.686108 155.73218,64.686108 C 158.63218,64.686108 159.83218,67.986108 159.83218,70.486108 C 159.83218,75.886108 155.23218,81.286108 150.93218,83.986108 C 150.53218,84.186108 150.23218,84.286108 149.93218,84.286108 C 149.03218,84.286108 148.83218,83.286108 148.83218,82.786108 M 145.33218,91.686108 C 145.63218,92.086108 145.93218,92.186108 146.23218,92.186108 C 146.53218,92.186108 146.83218,91.986108 146.83218,91.986108 C 149.83218,90.286108 152.23218,87.586108 154.73218,85.886108 C 163.63218,79.686108 166.73218,73.586108 166.73218,68.986108 C 166.73218,63.286108 162.33218,59.686108 157.73218,59.386108 C 156.03218,59.386108 153.63218,60.186108 152.23218,61.086108 C 151.63218,61.586108 150.53218,62.486108 150.03218,62.486108 C 149.83218,62.486108 149.73218,62.486108 149.53218,62.386108 C 148.83218,62.086108 148.43218,61.386108 148.43218,60.686108 C 148.53218,58.486108 149.13218,34.486308 149.13218,32.486308 C 149.13218,31.386308 148.23218,30.786308 147.23218,30.786308 C 145.83218,30.786308 144.23218,31.786308 144.13218,33.586308 C 144.13218,33.586308 144.53218,90.686108 145.33218,91.686108"
     id="path4095"
     style="fill:#000000" />
  <path
     class=""
     d="M 119.83218,120.28611 C 119.83218,120.28611 119.53218,114.28611 119.53218,110.28611 C 119.53218,108.68611 119.63218,107.48611 119.73218,107.08611 C 120.43218,105.08611 124.43218,102.18611 126.73218,102.18611 C 129.63218,102.18611 130.83218,105.48611 130.83218,107.98611 C 130.83218,113.38611 126.23218,118.78611 121.93218,121.48611 C 121.53218,121.68611 121.23218,121.78611 120.93218,121.78611 C 120.03218,121.78611 119.83218,120.78611 119.83218,120.28611 M 116.33218,129.18611 C 116.63218,129.58611 116.93218,129.68611 117.23218,129.68611 C 117.53218,129.68611 117.83218,129.48611 117.83218,129.48611 C 120.83218,127.78611 123.23218,125.08611 125.73218,123.38611 C 134.63218,117.18611 137.73218,111.08611 137.73218,106.48611 C 137.73218,100.78611 133.33218,97.186108 128.73218,96.886108 C 127.03218,96.886108 124.63218,97.686108 123.23218,98.586108 C 122.63218,99.086108 121.53218,99.986108 121.03218,99.986108 C 120.83218,99.986108 120.73218,99.986108 120.53218,99.886108 C 119.83218,99.586108 119.43218,98.886108 119.43218,98.186108 C 119.53218,95.986108 120.13218,71.986108 120.13218,69.986108 C 120.13218,68.886108 119.23218,68.286108 118.23218,68.286108 C 116.83218,68.286108 115.23218,69.286108 115.13218,71.086108 C 115.13218,71.086108 115.53218,128.18611 116.33218,129.18611"
     id="path4097"
     style="fill:#000000" />
</svg>
