<?xml version="1.0" encoding="UTF-8" standalone="no"?>
<svg
   xmlns:dc="http://purl.org/dc/elements/1.1/"
   xmlns:cc="http://creativecommons.org/ns#"
   xmlns:rdf="http://www.w3.org/1999/02/22-rdf-syntax-ns#"
   xmlns:svg="http://www.w3.org/2000/svg"
   xmlns="http://www.w3.org/2000/svg"
   xmlns:sodipodi="http://sodipodi.sourceforge.net/DTD/sodipodi-0.dtd"
   xmlns:inkscape="http://www.inkscape.org/namespaces/inkscape"
   width="1408.3157"
   height="230.95396"
   viewBox="0 0 1408.3157 230.95396"
   version="1.2"
   id="svg240"
   sodipodi:docname="Halbtöne_dorische_Oktave.svg"
   inkscape:version="1.0.1 (c497b03c, 2020-09-10)">
  <metadata
     id="metadata246">
    <rdf:RDF>
      <cc:Work
         rdf:about="">
        <dc:format>image/svg+xml</dc:format>
        <dc:type
           rdf:resource="http://purl.org/dc/dcmitype/StillImage" />
        <dc:title>Unbenannt</dc:title>
      </cc:Work>
    </rdf:RDF>
  </metadata>
  <defs
     id="defs244" />
  <sodipodi:namedview
     pagecolor="#ffffff"
     bordercolor="#666666"
     borderopacity="1"
     objecttolerance="10"
     gridtolerance="10"
     guidetolerance="10"
     inkscape:pageopacity="0"
     inkscape:pageshadow="2"
     inkscape:window-width="1066"
     inkscape:window-height="480"
     id="namedview242"
     showgrid="false"
     inkscape:snap-global="false"
     fit-margin-top="0"
     fit-margin-left="0"
     fit-margin-right="0"
     fit-margin-bottom="0"
     inkscape:zoom="0.22136104"
     inkscape:cx="469.11814"
     inkscape:cy="451.55927"
     inkscape:window-x="0"
     inkscape:window-y="23"
     inkscape:window-maximized="0"
     inkscape:current-layer="g1230" />
  <title
     id="title138">Unbenannt</title>
  <desc
     id="desc140">Generated by MuseScore 3.5.2</desc>
  <g
     id="g1230"
     transform="translate(-26.5143,10.558971)">
    <polyline
       class=""
       fill="none"
       stroke="#000000"
       stroke-width="3.25"
       stroke-linejoin="bevel"
       points="1110.87,79.5946 1272.85,79.5946"
       id="polyline142" />
    <polyline
       class=""
       fill="none"
       stroke="#000000"
       stroke-width="3.25"
       stroke-linejoin="bevel"
       points="1110.87,104.595 1272.85,104.595"
       id="polyline144" />
    <polyline
       class=""
       fill="none"
       stroke="#000000"
       stroke-width="3.25"
       stroke-linejoin="bevel"
       points="1110.87,129.595 1272.85,129.595"
       id="polyline146" />
    <polyline
       class=""
       fill="none"
       stroke="#000000"
       stroke-width="3.25"
       stroke-linejoin="bevel"
       points="1110.87,154.595 1272.85,154.595"
       id="polyline148" />
    <polyline
       class=""
       fill="none"
       stroke="#000000"
       stroke-width="3.25"
       stroke-linejoin="bevel"
       points="1110.87,179.595 1272.85,179.595"
       id="polyline150" />
    <polyline
       class=""
       fill="none"
       stroke="#000000"
       stroke-width="3.25"
       stroke-linejoin="bevel"
       points="1272.85,79.5946 1434.83,79.5946"
       id="polyline152" />
    <polyline
       class=""
       fill="none"
       stroke="#000000"
       stroke-width="3.25"
       stroke-linejoin="bevel"
       points="1272.85,104.595 1434.83,104.595"
       id="polyline154" />
    <polyline
       class=""
       fill="none"
       stroke="#000000"
       stroke-width="3.25"
       stroke-linejoin="bevel"
       points="1272.85,129.595 1434.83,129.595"
       id="polyline156" />
    <polyline
       class=""
       fill="none"
       stroke="#000000"
       stroke-width="3.25"
       stroke-linejoin="bevel"
       points="1272.85,154.595 1434.83,154.595"
       id="polyline158" />
    <polyline
       class=""
       fill="none"
       stroke="#000000"
       stroke-width="3.25"
       stroke-linejoin="bevel"
       points="1272.85,179.595 1434.83,179.595"
       id="polyline160" />
    <polyline
       class=""
       fill="none"
       stroke="#000000"
       stroke-width="3.25"
       stroke-linejoin="bevel"
       points="785.617,79.5946 948.895,79.5946"
       id="polyline162" />
    <polyline
       class=""
       fill="none"
       stroke="#000000"
       stroke-width="3.25"
       stroke-linejoin="bevel"
       points="785.617,104.595 948.895,104.595"
       id="polyline164" />
    <polyline
       class=""
       fill="none"
       stroke="#000000"
       stroke-width="3.25"
       stroke-linejoin="bevel"
       points="785.617,129.595 948.895,129.595"
       id="polyline166" />
    <polyline
       class=""
       fill="none"
       stroke="#000000"
       stroke-width="3.25"
       stroke-linejoin="bevel"
       points="785.617,154.595 948.895,154.595"
       id="polyline168" />
    <polyline
       class=""
       fill="none"
       stroke="#000000"
       stroke-width="3.25"
       stroke-linejoin="bevel"
       points="785.617,179.595 948.895,179.595"
       id="polyline170" />
    <polyline
       class=""
       fill="none"
       stroke="#000000"
       stroke-width="3.25"
       stroke-linejoin="bevel"
       points="948.895,79.5946 1110.87,79.5946"
       id="polyline172" />
    <polyline
       class=""
       fill="none"
       stroke="#000000"
       stroke-width="3.25"
       stroke-linejoin="bevel"
       points="948.895,104.595 1110.87,104.595"
       id="polyline174" />
    <polyline
       class=""
       fill="none"
       stroke="#000000"
       stroke-width="3.25"
       stroke-linejoin="bevel"
       points="948.895,129.595 1110.87,129.595"
       id="polyline176" />
    <polyline
       class=""
       fill="none"
       stroke="#000000"
       stroke-width="3.25"
       stroke-linejoin="bevel"
       points="948.895,154.595 1110.87,154.595"
       id="polyline178" />
    <polyline
       class=""
       fill="none"
       stroke="#000000"
       stroke-width="3.25"
       stroke-linejoin="bevel"
       points="948.895,179.595 1110.87,179.595"
       id="polyline180" />
    <polyline
       class=""
       fill="none"
       stroke="#000000"
       stroke-width="3.25"
       stroke-linejoin="bevel"
       points="295.784,79.5946 459.062,79.5946"
       id="polyline182" />
    <polyline
       class=""
       fill="none"
       stroke="#000000"
       stroke-width="3.25"
       stroke-linejoin="bevel"
       points="295.784,104.595 459.062,104.595"
       id="polyline184" />
    <polyline
       class=""
       fill="none"
       stroke="#000000"
       stroke-width="3.25"
       stroke-linejoin="bevel"
       points="295.784,129.595 459.062,129.595"
       id="polyline186" />
    <polyline
       class=""
       fill="none"
       stroke="#000000"
       stroke-width="3.25"
       stroke-linejoin="bevel"
       points="295.784,154.595 459.062,154.595"
       id="polyline188" />
    <polyline
       class=""
       fill="none"
       stroke="#000000"
       stroke-width="3.25"
       stroke-linejoin="bevel"
       points="295.784,179.595 459.062,179.595"
       id="polyline190" />
    <polyline
       class=""
       fill="none"
       stroke="#000000"
       stroke-width="3.25"
       stroke-linejoin="bevel"
       points="459.062,79.5946 622.34,79.5946"
       id="polyline192" />
    <polyline
       class=""
       fill="none"
       stroke="#000000"
       stroke-width="3.25"
       stroke-linejoin="bevel"
       points="459.062,104.595 622.34,104.595"
       id="polyline194" />
    <polyline
       class=""
       fill="none"
       stroke="#000000"
       stroke-width="3.25"
       stroke-linejoin="bevel"
       points="459.062,129.595 622.34,129.595"
       id="polyline196" />
    <polyline
       class=""
       fill="none"
       stroke="#000000"
       stroke-width="3.25"
       stroke-linejoin="bevel"
       points="459.062,154.595 622.34,154.595"
       id="polyline198" />
    <polyline
       class=""
       fill="none"
       stroke="#000000"
       stroke-width="3.25"
       stroke-linejoin="bevel"
       points="459.062,179.595 622.34,179.595"
       id="polyline200" />
    <polyline
       class=""
       fill="none"
       stroke="#000000"
       stroke-width="3.25"
       stroke-linejoin="bevel"
       points="622.34,79.5946 785.617,79.5946"
       id="polyline202" />
    <polyline
       class=""
       fill="none"
       stroke="#000000"
       stroke-width="3.25"
       stroke-linejoin="bevel"
       points="622.34,104.595 785.617,104.595"
       id="polyline204" />
    <polyline
       class=""
       fill="none"
       stroke="#000000"
       stroke-width="3.25"
       stroke-linejoin="bevel"
       points="622.34,129.595 785.617,129.595"
       id="polyline206" />
    <polyline
       class=""
       fill="none"
       stroke="#000000"
       stroke-width="3.25"
       stroke-linejoin="bevel"
       points="622.34,154.595 785.617,154.595"
       id="polyline208" />
    <polyline
       class=""
       fill="none"
       stroke="#000000"
       stroke-width="3.25"
       stroke-linejoin="bevel"
       points="622.34,179.595 785.617,179.595"
       id="polyline210" />
    <polyline
       class=""
       fill="none"
       stroke="#000000"
       stroke-width="3.25"
       stroke-linejoin="bevel"
       points="26.5143,79.5946 295.784,79.5946"
       id="polyline212" />
    <polyline
       class=""
       fill="none"
       stroke="#000000"
       stroke-width="3.25"
       stroke-linejoin="bevel"
       points="26.5143,104.595 295.784,104.595"
       id="polyline214" />
    <polyline
       class=""
       fill="none"
       stroke="#000000"
       stroke-width="3.25"
       stroke-linejoin="bevel"
       points="26.5143,129.595 295.784,129.595"
       id="polyline216" />
    <polyline
       class=""
       fill="none"
       stroke="#000000"
       stroke-width="3.25"
       stroke-linejoin="bevel"
       points="26.5143,154.595 295.784,154.595"
       id="polyline218" />
    <polyline
       class=""
       fill="none"
       stroke="#000000"
       stroke-width="3.25"
       stroke-linejoin="bevel"
       points="26.5143,179.595 295.784,179.595"
       id="polyline220" />
    <path
       class=""
       d="M 1157.87,103.395 C 1143.37,103.395 1134.37,109.495 1134.37,116.895 C 1134.37,124.195 1140.57,130.695 1156.77,130.695 C 1174.57,130.695 1180.27,124.495 1180.27,116.895 C 1180.27,109.195 1167.97,103.395 1157.87,103.395 M 1155.07,105.895 C 1162.47,105.895 1168.47,113.895 1168.47,120.495 C 1168.47,125.895 1165.07,128.195 1160.17,128.195 C 1152.97,128.195 1146.07,119.895 1146.07,112.895 C 1146.07,107.295 1149.97,105.895 1155.07,105.895"
       id="path222"
       style="fill:#ff0000" />
    <path
       class=""
       d="M 1319.85,90.8946 C 1305.35,90.8946 1296.35,96.9946 1296.35,104.395 C 1296.35,111.695 1302.55,118.195 1318.75,118.195 C 1336.55,118.195 1342.25,111.995 1342.25,104.395 C 1342.25,96.6946 1329.95,90.8946 1319.85,90.8946 M 1317.05,93.3946 C 1324.45,93.3946 1330.45,101.395 1330.45,107.995 C 1330.45,113.395 1327.05,115.695 1322.15,115.695 C 1314.95,115.695 1308.05,107.395 1308.05,100.395 C 1308.05,94.7946 1311.95,93.3946 1317.05,93.3946"
       id="path224" />
    <path
       class=""
       d="M 670.84,140.895 C 656.34,140.895 647.34,146.995 647.34,154.395 C 647.34,161.695 653.54,168.195 669.74,168.195 C 687.54,168.195 693.24,161.995 693.24,154.395 C 693.24,146.695 680.94,140.895 670.84,140.895 M 668.04,143.395 C 675.44,143.395 681.44,151.395 681.44,157.995 C 681.44,163.395 678.04,165.695 673.14,165.695 C 665.94,165.695 659.04,157.395 659.04,150.395 C 659.04,144.795 662.94,143.395 668.04,143.395"
       id="path226" />
    <path
       class=""
       d="M 834.117,128.395 C 819.617,128.395 810.617,134.495 810.617,141.895 C 810.617,149.195 816.817,155.695 833.017,155.695 C 850.817,155.695 856.517,149.495 856.517,141.895 C 856.517,134.195 844.217,128.395 834.117,128.395 M 831.317,130.895 C 838.717,130.895 844.717,138.895 844.717,145.495 C 844.717,150.895 841.317,153.195 836.417,153.195 C 829.217,153.195 822.317,144.895 822.317,137.895 C 822.317,132.295 826.217,130.895 831.317,130.895"
       id="path228" />
    <path
       class=""
       d="M 995.89,115.895 C 981.395,115.895 972.395,121.995 972.395,129.395 C 972.395,136.695 978.595,143.195 994.79,143.195 C 1012.59,143.195 1018.29,136.995 1018.29,129.395 C 1018.29,121.695 1005.99,115.895 995.89,115.895 M 993.09,118.395 C 1000.49,118.395 1006.49,126.395 1006.49,132.995 C 1006.49,138.395 1003.09,140.695 998.19,140.695 C 990.995,140.695 984.095,132.395 984.095,125.395 C 984.095,119.795 987.995,118.395 993.09,118.395"
       id="path230"
       style="fill:#ff0000" />
    <path
       class=""
       d="M 344.284,165.895 C 329.784,165.895 320.784,171.995 320.784,179.395 C 320.784,186.695 326.984,193.195 343.184,193.195 C 360.984,193.195 366.684,186.995 366.684,179.395 C 366.684,171.695 354.384,165.895 344.284,165.895 M 341.484,168.395 C 348.884,168.395 354.884,176.395 354.884,182.995 C 354.884,188.395 351.484,190.695 346.584,190.695 C 339.384,190.695 332.484,182.395 332.484,175.395 C 332.484,169.795 336.384,168.395 341.484,168.395"
       id="path232"
       style="fill:#ff0000" />
    <path
       class=""
       d="M 507.562,153.395 C 493.062,153.395 484.062,159.495 484.062,166.895 C 484.062,174.195 490.262,180.695 506.462,180.695 C 524.262,180.695 529.962,174.495 529.962,166.895 C 529.962,159.195 517.662,153.395 507.562,153.395 M 504.762,155.895 C 512.162,155.895 518.162,163.895 518.162,170.495 C 518.162,175.895 514.762,178.195 509.862,178.195 C 502.662,178.195 495.762,169.895 495.762,162.895 C 495.762,157.295 499.662,155.895 504.762,155.895"
       id="path234"
       style="fill:#ff0000" />
    <path
       class=""
       d="M 199.608,178.395 C 185.108,178.395 176.108,184.495 176.108,191.895 C 176.108,199.195 182.308,205.695 198.508,205.695 C 216.308,205.695 222.008,199.495 222.008,191.895 C 222.008,184.195 209.708,178.395 199.608,178.395 M 196.808,180.895 C 204.208,180.895 210.208,188.895 210.208,195.495 C 210.208,200.895 206.808,203.195 201.908,203.195 C 194.708,203.195 187.808,194.895 187.808,187.895 C 187.808,182.295 191.708,180.895 196.808,180.895"
       id="path236" />
    <path
       class=""
       d="M 93.5143,60.2946 C 96.8143,60.2946 99.5143,62.9946 99.5143,68.4946 C 99.5143,79.5946 90.0143,88.5946 82.1143,95.4946 C 81.8143,95.6946 81.6143,95.8946 81.4143,95.8946 C 81.1143,95.8946 80.9143,95.4946 80.8143,94.6946 C 80.4143,92.0946 80.2143,88.6946 80.2143,85.4946 C 80.2143,69.8946 87.4143,60.2946 93.5143,60.2946 M 89.5143,144.295 C 89.3143,143.195 89.4143,142.895 90.2143,142.895 C 90.3143,142.895 90.5143,142.895 90.6143,142.895 C 98.7143,143.595 105.414,150.395 105.414,159.195 C 105.414,165.495 101.614,170.595 96.0143,173.395 C 95.5143,173.595 95.2143,173.795 95.0143,173.795 C 94.6143,173.795 94.5143,173.495 94.4143,172.795 L 89.5143,144.295 M 82.6143,128.395 C 82.9143,130.295 82.9143,130.195 81.1143,130.795 C 72.3143,133.795 66.6143,141.695 66.6143,150.195 C 66.6143,159.195 71.3143,165.595 78.1143,167.895 C 78.9143,168.195 80.1143,168.495 80.8143,168.495 C 81.6143,168.495 82.0143,167.995 82.0143,167.395 C 82.0143,166.695 81.2143,166.395 80.5143,166.095 C 76.3143,164.295 73.3143,159.995 73.3143,155.395 C 73.3143,149.695 77.2143,145.395 83.3143,143.695 C 83.8143,143.595 84.2143,143.495 84.5143,143.495 C 85.0143,143.495 85.2143,143.795 85.3143,144.495 L 90.3143,174.295 C 90.5143,175.395 90.4143,175.395 88.9143,175.695 C 87.3143,175.995 85.3143,176.195 83.3143,176.195 C 65.8143,176.195 54.5143,166.495 54.5143,152.595 C 54.5143,135.595 67.0143,124.995 79.1143,115.195 C 79.5143,114.895 79.8143,114.695 80.0143,114.695 C 80.3143,114.695 80.4143,114.995 80.5143,115.595 L 82.6143,128.395 M 84.1143,113.095 C 83.9143,111.895 84.1143,111.795 84.7143,111.195 C 95.5143,101.095 103.714,88.3946 103.714,73.0946 C 103.714,64.3946 101.314,55.7946 97.2143,49.7946 C 95.7143,47.5946 93.1143,44.7946 92.0143,44.7946 C 90.6143,44.7946 87.5143,47.3946 85.5143,49.5946 C 78.1143,57.7946 75.7143,70.2946 75.7143,80.6946 C 75.7143,86.4946 76.4143,92.9946 77.1143,97.0946 C 77.3143,98.2946 77.4143,98.4946 76.2143,99.4946 C 61.8143,111.395 46.5143,125.695 46.5143,145.895 C 46.5143,163.295 58.4143,179.795 82.9143,179.795 C 85.2143,179.795 87.8143,179.595 89.8143,179.195 C 90.2143,179.095 90.4143,179.095 90.6143,179.095 C 91.0143,179.095 91.2143,179.295 91.3143,180.095 C 92.5143,186.795 94.0143,195.495 94.0143,200.195 C 94.0143,214.995 84.0143,216.795 78.1143,216.795 C 72.7143,216.795 70.1143,215.195 70.1143,213.895 C 70.1143,213.195 71.0143,212.895 73.3143,212.195 C 76.4143,211.295 80.0143,208.595 80.0143,202.795 C 80.0143,197.295 76.5143,192.595 70.4143,192.595 C 63.7143,192.595 59.7143,197.895 59.7143,204.095 C 59.7143,210.595 63.6143,220.395 78.7143,220.395 C 85.4143,220.395 98.4143,217.395 98.4143,200.395 C 98.4143,194.695 96.6143,185.195 95.5143,178.995 C 95.3143,177.795 95.4143,177.895 96.8143,177.295 C 106.914,173.295 113.614,164.795 113.614,153.495 C 113.614,140.695 104.214,129.395 89.5143,129.395 C 86.9143,129.395 86.9143,129.395 86.6143,127.595 L 84.1143,113.095"
       id="path238" />
  </g>
  <path
     style="fill:none;stroke:#0000ff;stroke-width:6;stroke-linecap:butt;stroke-linejoin:miter;stroke-miterlimit:4;stroke-dasharray:none;stroke-opacity:1"
     d="M 163.65418,163.59842 V 118.0592 L 316.49334,100.69213 V 146.23136"
     id="path299"
     sodipodi:nodetypes="cccc" />
  <path
     style="fill:none;stroke:#0000ff;stroke-width:6;stroke-linecap:butt;stroke-linejoin:miter;stroke-miterlimit:4;stroke-dasharray:none;stroke-opacity:1"
     d="M 479.35477,132.45579 V 86.916568 L 632.19393,69.549502 V 115.08873"
     id="path1124"
     sodipodi:nodetypes="cccc" />
  <path
     style="fill:none;stroke:#0000ff;stroke-width:6;stroke-linecap:butt;stroke-linejoin:miter;stroke-miterlimit:4;stroke-dasharray:none;stroke-opacity:1"
     d="M 644.77559,114.45658 V 68.917354 L 797.61475,51.550288 V 97.089514"
     id="path1126"
     sodipodi:nodetypes="cccc" />
  <path
     style="fill:none;stroke:#0000ff;stroke-width:6;stroke-linecap:butt;stroke-linejoin:miter;stroke-miterlimit:4;stroke-dasharray:none;stroke-opacity:1"
     d="M 809.71629,97.39375 V 51.854523 L 962.55545,34.487457 V 80.026683"
     id="path1128"
     sodipodi:nodetypes="cccc" />
  <path
     style="fill:none;stroke:#0000ff;stroke-width:6;stroke-linecap:butt;stroke-linejoin:miter;stroke-miterlimit:4;stroke-dasharray:none;stroke-opacity:1"
     d="M 1133.3462,66.266487 V 20.72726 L 1286.1854,3.3601944 V 48.89942"
     id="path1179"
     sodipodi:nodetypes="cccc" />
  <path
     style="fill:none;stroke:#ff0000;stroke-width:6;stroke-linecap:butt;stroke-linejoin:miter;stroke-miterlimit:4;stroke-dasharray:none;stroke-opacity:1"
     d="M 336.56992,167.81919 L 391.66587,102.44813 L 457.03694,157.54406"
     id="path1241" />
  <path
     style="fill:none;stroke:#ff0000;stroke-width:6;stroke-linecap:butt;stroke-linejoin:miter;stroke-miterlimit:4;stroke-dasharray:none;stroke-opacity:1"
     d="M 988.7083,112.7089 L 1043.8042,47.337844 L 1109.1752,102.43377"
     id="path1243" />
</svg>
