<?xml version="1.0" encoding="UTF-8" standalone="no"?>
<svg
   width="1402"
   height="312"
   viewBox="0 0 1402 312"
   version="1.2"
   id="svg144"
   sodipodi:docname="Haydn_104_Kl._in_A_Klang.svg"
   inkscape:version="1.1-dev (0486c1a, 2020-10-10)"
   xmlns:inkscape="http://www.inkscape.org/namespaces/inkscape"
   xmlns:sodipodi="http://sodipodi.sourceforge.net/DTD/sodipodi-0.dtd"
   xmlns="http://www.w3.org/2000/svg"
   xmlns:svg="http://www.w3.org/2000/svg"
   xmlns:rdf="http://www.w3.org/1999/02/22-rdf-syntax-ns#"
   xmlns:cc="http://creativecommons.org/ns#"
   xmlns:dc="http://purl.org/dc/elements/1.1/">
  <defs
     id="defs148" />
  <sodipodi:namedview
     pagecolor="#ffffff"
     bordercolor="#666666"
     borderopacity="1"
     objecttolerance="10"
     gridtolerance="10"
     guidetolerance="10"
     inkscape:pageopacity="0"
     inkscape:pageshadow="2"
     inkscape:window-width="1061"
     inkscape:window-height="539"
     id="namedview146"
     showgrid="false"
     height="312px"
     inkscape:zoom="0.46481683"
     inkscape:cx="965.9719"
     inkscape:cy="117.25049"
     inkscape:window-x="0"
     inkscape:window-y="23"
     inkscape:window-maximized="0"
     inkscape:current-layer="svg144" />
  <title
     id="title8">Unbenannt</title>
  <desc
     id="desc10">Generated by MuseScore 3.5.2</desc>
  <circle
     style="fill:#ffbf00;fill-opacity:1;stroke:none;stroke-width:1.9;stroke-linecap:round;stroke-linejoin:round"
     id="circle622"
     cx="1194.4652"
     cy="205.19577"
     r="56.692913" />
  <circle
     style="fill:#ff00ff;fill-opacity:0.620209;stroke:none;stroke-width:1.90001;stroke-linecap:round;stroke-linejoin:round"
     id="path865"
     cx="161.48613"
     cy="168.01196"
     r="37.795277" />
  <path
     class=""
     stroke="#000000"
     stroke-width="2.5"
     stroke-linecap="round"
     stroke-linejoin="round"
     fill-rule="evenodd"
     d="M 532.493,278.513 C 582.841,313.99 678.491,307.74 723.794,266.013 C 678.883,313.727 583.232,319.977 532.493,278.513"
     id="path12" />
  <path
     class=""
     stroke="#000000"
     stroke-width="2.5"
     stroke-linecap="round"
     stroke-linejoin="round"
     fill-rule="evenodd"
     d="M 313.51,253.513 C 341.053,285.468 402.047,291.718 435.499,266.013 C 401.436,297.687 340.441,291.437 313.51,253.513"
     id="path14" />
  <polyline
     class=""
     stroke="#000000"
     stroke-width="4"
     stroke-linejoin="bevel"
     points="1298.28,159.388 1298.28,262.638"
     id="polyline16"
     transform="translate(0,-30)" />
  <polyline
     class=""
     stroke="#000000"
     stroke-width="4"
     stroke-linejoin="bevel"
     points="1064.18,159.388 1064.18,262.638"
     id="polyline18"
     transform="translate(0,-30)" />
  <polyline
     class=""
     stroke="#000000"
     stroke-width="4"
     stroke-linejoin="bevel"
     points="773.112,159.388 773.112,262.638"
     id="polyline20"
     transform="translate(0,-30)" />
  <polyline
     class=""
     stroke="#000000"
     stroke-width="4"
     stroke-linejoin="bevel"
     points="482.044,159.388 482.044,262.638"
     id="polyline22"
     transform="translate(0,-30)" />
  <path
     id="polyline24"
     transform="translate(0,-30)"
     style="stroke:#000000;stroke-width:3.25;stroke-linejoin:bevel"
     d="M 1300.28,161.013 L 1383.7861,161.013"
     class=""
     sodipodi:nodetypes="cc" />
  <path
     id="polyline26"
     transform="translate(0,-30)"
     style="stroke:#000000;stroke-width:3.25;stroke-linejoin:bevel"
     d="M 1300.28,186.013 L 1383.7861,186.013"
     class=""
     sodipodi:nodetypes="cc" />
  <path
     id="polyline28"
     transform="translate(0,-30)"
     style="stroke:#000000;stroke-width:3.25;stroke-linejoin:bevel"
     d="M 1300.28,211.013 L 1383.7861,211.013"
     class=""
     sodipodi:nodetypes="cc" />
  <path
     id="polyline30"
     transform="translate(0,-30)"
     style="stroke:#000000;stroke-width:3.25;stroke-linejoin:bevel"
     d="M 1300.28,236.013 L 1383.7861,236.013"
     class=""
     sodipodi:nodetypes="cc" />
  <path
     id="polyline32"
     transform="translate(0,-30)"
     style="stroke:#000000;stroke-width:3.25;stroke-linejoin:bevel"
     d="M 1300.28,261.013 L 1383.7861,261.013"
     class=""
     sodipodi:nodetypes="cc" />
  <polyline
     class=""
     stroke="#000000"
     stroke-width="3.25"
     stroke-linejoin="bevel"
     points="1066.18,161.013 1300.28,161.013"
     id="polyline34"
     transform="translate(0,-30)" />
  <polyline
     class=""
     stroke="#000000"
     stroke-width="3.25"
     stroke-linejoin="bevel"
     points="1066.18,186.013 1300.28,186.013"
     id="polyline36"
     transform="translate(0,-30)" />
  <polyline
     class=""
     stroke="#000000"
     stroke-width="3.25"
     stroke-linejoin="bevel"
     points="1066.18,211.013 1300.28,211.013"
     id="polyline38"
     transform="translate(0,-30)" />
  <polyline
     class=""
     stroke="#000000"
     stroke-width="3.25"
     stroke-linejoin="bevel"
     points="1066.18,236.013 1300.28,236.013"
     id="polyline40"
     transform="translate(0,-30)" />
  <polyline
     class=""
     stroke="#000000"
     stroke-width="3.25"
     stroke-linejoin="bevel"
     points="1066.18,261.013 1300.28,261.013"
     id="polyline42"
     transform="translate(0,-30)" />
  <polyline
     class=""
     stroke="#000000"
     stroke-width="3.25"
     stroke-linejoin="bevel"
     points="775.112,161.013 1066.18,161.013"
     id="polyline44"
     transform="translate(0,-30)" />
  <polyline
     class=""
     stroke="#000000"
     stroke-width="3.25"
     stroke-linejoin="bevel"
     points="775.112,186.013 1066.18,186.013"
     id="polyline46"
     transform="translate(0,-30)" />
  <polyline
     class=""
     stroke="#000000"
     stroke-width="3.25"
     stroke-linejoin="bevel"
     points="775.112,211.013 1066.18,211.013"
     id="polyline48"
     transform="translate(0,-30)" />
  <polyline
     class=""
     stroke="#000000"
     stroke-width="3.25"
     stroke-linejoin="bevel"
     points="775.112,236.013 1066.18,236.013"
     id="polyline50"
     transform="translate(0,-30)" />
  <polyline
     class=""
     stroke="#000000"
     stroke-width="3.25"
     stroke-linejoin="bevel"
     points="775.112,261.013 1066.18,261.013"
     id="polyline52"
     transform="translate(0,-30)" />
  <polyline
     class=""
     stroke="#000000"
     stroke-width="3.25"
     stroke-linejoin="bevel"
     points="484.044,161.013 775.112,161.013"
     id="polyline54"
     transform="translate(0,-30)" />
  <polyline
     class=""
     stroke="#000000"
     stroke-width="3.25"
     stroke-linejoin="bevel"
     points="484.044,186.013 775.112,186.013"
     id="polyline56"
     transform="translate(0,-30)" />
  <polyline
     class=""
     stroke="#000000"
     stroke-width="3.25"
     stroke-linejoin="bevel"
     points="484.044,211.013 775.112,211.013"
     id="polyline58"
     transform="translate(0,-30)" />
  <polyline
     class=""
     stroke="#000000"
     stroke-width="3.25"
     stroke-linejoin="bevel"
     points="484.044,236.013 775.112,236.013"
     id="polyline60"
     transform="translate(0,-30)" />
  <polyline
     class=""
     stroke="#000000"
     stroke-width="3.25"
     stroke-linejoin="bevel"
     points="484.044,261.013 775.112,261.013"
     id="polyline62"
     transform="translate(0,-30)" />
  <polyline
     class=""
     stroke="#000000"
     stroke-width="3.25"
     stroke-linejoin="bevel"
     points="11.5739,161.013 484.044,161.013"
     id="polyline64"
     transform="translate(0,-30)" />
  <polyline
     class=""
     stroke="#000000"
     stroke-width="3.25"
     stroke-linejoin="bevel"
     points="11.5739,186.013 484.044,186.013"
     id="polyline66"
     transform="translate(0,-30)" />
  <polyline
     class=""
     stroke="#000000"
     stroke-width="3.25"
     stroke-linejoin="bevel"
     points="11.5739,211.013 484.044,211.013"
     id="polyline68"
     transform="translate(0,-30)" />
  <polyline
     class=""
     stroke="#000000"
     stroke-width="3.25"
     stroke-linejoin="bevel"
     points="11.5739,236.013 484.044,236.013"
     id="polyline70"
     transform="translate(0,-30)" />
  <polyline
     class=""
     stroke="#000000"
     stroke-width="3.25"
     stroke-linejoin="bevel"
     points="11.5739,261.013 484.044,261.013"
     id="polyline72"
     transform="translate(0,-30)" />
  <path
     class=""
     d="M 1164.13,226.913 C 1164.23,226.913 1164.43,226.813 1164.53,226.813 C 1164.53,226.813 1165.93,226.213 1166.83,225.913 C 1166.93,225.813 1167.03,225.813 1167.13,225.813 C 1167.83,225.813 1168.33,226.913 1168.33,227.413 V 239.713 C 1168.33,240.313 1168.93,240.813 1169.63,240.813 C 1170.63,240.813 1171.33,240.313 1171.33,239.713 V 225.813 C 1171.33,224.513 1171.83,223.813 1172.33,223.613 L 1178.43,221.113 C 1178.53,221.113 1178.73,221.013 1178.83,221.013 C 1179.63,221.013 1180.13,222.213 1180.13,222.813 V 235.313 C 1180.13,235.913 1180.73,236.413 1181.43,236.413 C 1182.53,236.413 1183.13,235.913 1183.13,235.313 V 221.113 C 1183.13,220.313 1183.53,219.113 1184.23,218.813 C 1184.93,218.513 1187.03,217.713 1187.03,217.713 C 1187.73,217.413 1188.23,216.613 1188.23,216.013 V 208.913 C 1188.23,208.413 1187.93,208.113 1187.53,208.113 C 1187.33,208.113 1187.23,208.113 1187.03,208.213 L 1184.43,209.213 C 1183.83,209.213 1183.13,208.613 1183.13,207.413 V 198.113 C 1183.13,197.413 1183.63,195.513 1184.43,195.213 L 1187.03,194.213 C 1187.73,193.913 1188.23,193.113 1188.23,192.513 V 185.413 C 1188.23,184.913 1187.93,184.613 1187.53,184.613 C 1187.33,184.613 1187.23,184.613 1187.03,184.713 C 1187.03,184.713 1185.03,185.513 1184.53,185.613 C 1183.83,185.613 1183.13,185.113 1183.13,184.313 V 172.113 C 1183.13,171.513 1182.53,171.013 1181.73,171.013 C 1180.73,171.013 1180.13,171.513 1180.13,172.113 V 185.113 C 1180.03,186.113 1179.73,187.413 1178.83,188.013 C 1177.63,188.713 1174.23,190.113 1172.53,190.513 C 1171.63,190.513 1171.33,189.313 1171.33,188.513 V 176.513 C 1171.33,175.913 1170.63,175.413 1169.93,175.413 C 1168.93,175.413 1168.33,175.913 1168.33,176.513 V 190.013 C 1168.33,191.413 1167.73,192.413 1167.13,192.713 C 1166.53,193.013 1164.53,193.813 1164.53,193.813 C 1163.83,194.013 1163.33,194.813 1163.33,195.413 V 202.513 C 1163.33,203.113 1163.63,203.413 1164.13,203.413 C 1164.53,203.413 1166.43,202.513 1166.73,202.313 C 1167.73,202.313 1168.33,202.813 1168.33,204.013 V 213.913 C 1168.33,215.013 1167.83,215.913 1167.23,216.213 C 1166.63,216.413 1164.53,217.313 1164.53,217.313 C 1163.83,217.513 1163.33,218.313 1163.33,218.913 V 226.013 C 1163.33,226.613 1163.63,226.913 1164.13,226.913 M 1171.33,201.613 C 1171.53,199.913 1176.13,197.813 1178.63,197.813 C 1179.33,197.813 1179.93,198.013 1180.13,198.413 C 1180.33,198.913 1180.53,201.413 1180.53,204.113 C 1180.53,206.813 1180.33,209.613 1180.13,210.513 C 1179.53,212.513 1174.83,214.513 1172.53,214.513 C 1171.93,214.513 1171.43,214.313 1171.33,214.013 C 1171.13,213.613 1171.03,211.413 1171.03,209.013 C 1171.03,205.913 1171.13,202.413 1171.33,201.613"
     id="path74" />
  <polyline
     class=""
     stroke="#000000"
     stroke-width="4"
     stroke-linecap="square"
     stroke-linejoin="bevel"
     points="802.112,286.013 845.01,286.013"
     id="polyline76"
     transform="translate(0,-30)" />
  <polyline
     class=""
     stroke="#000000"
     stroke-width="4"
     stroke-linecap="square"
     stroke-linejoin="bevel"
     points="511.044,286.013 553.943,286.013"
     id="polyline78"
     transform="translate(0,-30)" />
  <polyline
     class=""
     stroke="#000000"
     stroke-width="3"
     stroke-linecap="round"
     stroke-linejoin="bevel"
     points="1225.13,232.653 1225.13,151.638"
     id="polyline80"
     transform="translate(0,-30)" />
  <polyline
     class=""
     stroke="#000000"
     stroke-width="3"
     stroke-linecap="round"
     stroke-linejoin="bevel"
     points="1356.68,220.153 1356.68,142.263"
     id="polyline82"
     transform="translate(0,-30)" />
  <polyline
     class=""
     stroke="#000000"
     stroke-width="3"
     stroke-linecap="round"
     stroke-linejoin="bevel"
     points="999.913,214.373 999.913,289.138"
     id="polyline84"
     transform="translate(0,-30)" />
  <polyline
     class=""
     stroke="#000000"
     stroke-width="3"
     stroke-linecap="round"
     stroke-linejoin="bevel"
     points="1122.58,220.153 1122.58,142.263"
     id="polyline86"
     transform="translate(0,-30)" />
  <polyline
     class=""
     stroke="#000000"
     stroke-width="3"
     stroke-linecap="round"
     stroke-linejoin="bevel"
     points="902.277,257.653 902.277,173.513"
     id="polyline88"
     transform="translate(0,-30)" />
  <polyline
     class=""
     stroke="#000000"
     stroke-width="3"
     stroke-linecap="round"
     stroke-linejoin="bevel"
     points="966.044,245.153 966.044,161.013"
     id="polyline90"
     transform="translate(0,-30)" />
  <polyline
     class=""
     stroke="#000000"
     stroke-width="3"
     stroke-linecap="round"
     stroke-linejoin="bevel"
     points="838.51,282.653 838.51,198.513"
     id="polyline92"
     transform="translate(0,-30)" />
  <polyline
     class=""
     stroke="#000000"
     stroke-width="3"
     stroke-linecap="round"
     stroke-linejoin="bevel"
     points="738.743,270.153 738.743,186.013"
     id="polyline94"
     transform="translate(0,-30)" />
  <polyline
     class=""
     stroke="#000000"
     stroke-width="3"
     stroke-linecap="round"
     stroke-linejoin="bevel"
     points="674.977,245.153 674.977,161.013"
     id="polyline96"
     transform="translate(0,-30)" />
  <polyline
     class=""
     stroke="#000000"
     stroke-width="3"
     stroke-linecap="round"
     stroke-linejoin="bevel"
     points="547.443,282.653 547.443,198.513"
     id="polyline98"
     transform="translate(0,-30)" />
  <polyline
     class=""
     stroke="#000000"
     stroke-width="3"
     stroke-linecap="round"
     stroke-linejoin="bevel"
     points="611.21,257.653 611.21,173.513"
     id="polyline100"
     transform="translate(0,-30)" />
  <polyline
     class=""
     stroke="#000000"
     stroke-width="3"
     stroke-linecap="round"
     stroke-linejoin="bevel"
     points="450.448,270.153 450.448,186.013"
     id="polyline102"
     transform="translate(0,-30)" />
  <polyline
     class=""
     stroke="#000000"
     stroke-width="3"
     stroke-linecap="round"
     stroke-linejoin="bevel"
     points="389.454,245.153 389.454,161.013"
     id="polyline104"
     transform="translate(0,-30)" />
  <polyline
     class=""
     stroke="#000000"
     stroke-width="3"
     stroke-linecap="round"
     stroke-linejoin="bevel"
     points="328.459,257.653 328.459,173.513"
     id="polyline106"
     transform="translate(0,-30)" />
  <path
     class=""
     d="M 1336.08,207.513 C 1345.98,207.513 1358.18,198.313 1358.18,188.813 C 1358.18,183.213 1353.68,179.513 1347.28,179.513 C 1335.08,179.513 1325.28,188.613 1325.28,198.213 C 1325.28,204.013 1330.08,207.513 1336.08,207.513"
     id="path108" />
  <path
     class=""
     d="M 1204.53,220.013 C 1222.93,220.013 1226.63,205.013 1226.63,201.413 C 1226.63,195.713 1222.13,192.013 1215.63,192.013 C 1198.93,192.013 1193.73,204.913 1193.73,210.713 C 1193.73,216.613 1198.43,220.013 1204.53,220.013 M 1213.03,211.113 C 1208.03,214.513 1204.53,215.713 1202.13,215.713 C 1199.83,215.713 1198.43,214.513 1197.73,213.113 C 1197.33,212.513 1197.03,211.713 1197.03,210.913 C 1197.03,205.513 1213.13,196.613 1218.43,196.613 C 1220.53,196.613 1221.73,197.613 1222.53,199.013 C 1222.83,199.613 1223.13,200.313 1223.13,201.113 C 1223.13,203.313 1220.83,206.013 1213.03,211.113"
     id="path110" />
  <path
     class=""
     d="M 1101.98,207.513 C 1120.38,207.513 1124.08,192.513 1124.08,188.913 C 1124.08,183.213 1119.58,179.513 1113.08,179.513 C 1096.38,179.513 1091.18,192.413 1091.18,198.213 C 1091.18,204.113 1095.88,207.513 1101.98,207.513 M 1110.48,198.613 C 1105.48,202.013 1101.98,203.213 1099.58,203.213 C 1097.28,203.213 1095.88,202.013 1095.18,200.613 C 1094.78,200.013 1094.48,199.213 1094.48,198.413 C 1094.48,193.013 1110.58,184.113 1115.88,184.113 C 1117.98,184.113 1119.18,185.113 1119.98,186.513 C 1120.28,187.113 1120.58,187.813 1120.58,188.613 C 1120.58,190.813 1118.28,193.513 1110.48,198.613"
     id="path112" />
  <path
     class=""
     d="M 1009.21,195.013 C 1019.11,195.013 1031.31,185.813 1031.31,176.313 C 1031.31,170.713 1026.81,167.013 1020.41,167.013 C 1008.21,167.013 998.413,176.113 998.413,185.713 C 998.413,191.513 1003.21,195.013 1009.21,195.013"
     id="path114" />
  <path
     class=""
     d="M 945.446,232.513 C 955.346,232.513 967.546,223.313 967.546,213.813 C 967.546,208.213 963.046,204.513 956.646,204.513 C 944.446,204.513 934.646,213.613 934.646,223.213 C 934.646,229.013 939.446,232.513 945.446,232.513"
     id="path116" />
  <path
     class=""
     d="M 817.912,270.013 C 827.812,270.013 840.012,260.813 840.012,251.313 C 840.012,245.713 835.512,242.013 829.112,242.013 C 816.912,242.013 807.112,251.113 807.112,260.713 C 807.112,266.513 811.912,270.013 817.912,270.013"
     id="path118" />
  <path
     class=""
     d="M 881.679,245.013 C 891.579,245.013 903.779,235.813 903.779,226.313 C 903.779,220.713 899.279,217.013 892.879,217.013 C 880.679,217.013 870.879,226.113 870.879,235.713 C 870.879,241.513 875.679,245.013 881.679,245.013"
     id="path120" />
  <path
     class=""
     d="M 718.145,257.513 C 728.045,257.513 740.245,248.313 740.245,238.813 C 740.245,233.213 735.745,229.513 729.345,229.513 C 717.145,229.513 707.345,238.613 707.345,248.213 C 707.345,254.013 712.145,257.513 718.145,257.513"
     id="path122" />
  <path
     class=""
     d="M 654.378,232.513 C 664.278,232.513 676.478,223.313 676.478,213.813 C 676.478,208.213 671.978,204.513 665.578,204.513 C 653.378,204.513 643.578,213.613 643.578,223.213 C 643.578,229.013 648.378,232.513 654.378,232.513"
     id="path124" />
  <path
     class=""
     d="M 590.611,245.013 C 600.511,245.013 612.711,235.813 612.711,226.313 C 612.711,220.713 608.211,217.013 601.811,217.013 C 589.611,217.013 579.811,226.113 579.811,235.713 C 579.811,241.513 584.611,245.013 590.611,245.013"
     id="path126" />
  <path
     class=""
     d="M 526.844,270.013 C 536.744,270.013 548.944,260.813 548.944,251.313 C 548.944,245.713 544.444,242.013 538.044,242.013 C 525.844,242.013 516.044,251.113 516.044,260.713 C 516.044,266.513 520.844,270.013 526.844,270.013"
     id="path128" />
  <path
     class=""
     d="M 368.855,232.513 C 378.755,232.513 390.955,223.313 390.955,213.813 C 390.955,208.213 386.455,204.513 380.055,204.513 C 367.855,204.513 358.055,213.613 358.055,223.213 C 358.055,229.013 362.855,232.513 368.855,232.513"
     id="path130" />
  <path
     class=""
     d="M 429.85,257.513 C 439.75,257.513 451.95,248.313 451.95,238.813 C 451.95,233.213 447.45,229.513 441.05,229.513 C 428.85,229.513 419.05,238.613 419.05,248.213 C 419.05,254.013 423.85,257.513 429.85,257.513"
     id="path132" />
  <path
     class=""
     d="M 307.861,245.013 C 317.761,245.013 329.961,235.813 329.961,226.313 C 329.961,220.713 325.461,217.013 319.061,217.013 C 306.861,217.013 297.061,226.113 297.061,235.713 C 297.061,241.513 301.861,245.013 307.861,245.013"
     id="path134" />
  <path
     class=""
     d="M 78.5739,111.713 C 81.8739,111.713 84.5739,114.413 84.5739,119.913 C 84.5739,131.013 75.0739,140.013 67.1739,146.913 C 66.8739,147.113 66.6739,147.313 66.4739,147.313 C 66.1739,147.313 65.9739,146.913 65.8739,146.113 C 65.4739,143.513 65.2739,140.113 65.2739,136.913 C 65.2739,121.313 72.4739,111.713 78.5739,111.713 M 74.5739,195.713 C 74.3739,194.613 74.4739,194.313 75.2739,194.313 C 75.3739,194.313 75.5739,194.313 75.6739,194.313 C 83.7739,195.013 90.4739,201.813 90.4739,210.613 C 90.4739,216.913 86.6739,222.013 81.0739,224.813 C 80.5739,225.013 80.2739,225.213 80.0739,225.213 C 79.6739,225.213 79.5739,224.913 79.4739,224.213 L 74.5739,195.713 M 67.6739,179.813 C 67.9739,181.713 67.9739,181.613 66.1739,182.213 C 57.3739,185.213 51.6739,193.113 51.6739,201.613 C 51.6739,210.613 56.3739,217.013 63.1739,219.313 C 63.9739,219.613 65.1739,219.913 65.8739,219.913 C 66.6739,219.913 67.0739,219.413 67.0739,218.813 C 67.0739,218.113 66.2739,217.813 65.5739,217.513 C 61.3739,215.713 58.3739,211.413 58.3739,206.813 C 58.3739,201.113 62.2739,196.813 68.3739,195.113 C 68.8739,195.013 69.2739,194.913 69.5739,194.913 C 70.0739,194.913 70.2739,195.213 70.3739,195.913 L 75.3739,225.713 C 75.5739,226.813 75.4739,226.813 73.9739,227.113 C 72.3739,227.413 70.3739,227.613 68.3739,227.613 C 50.8739,227.613 39.5739,217.913 39.5739,204.013 C 39.5739,187.013 52.0739,176.413 64.1739,166.613 C 64.5739,166.313 64.8739,166.113 65.0739,166.113 C 65.3739,166.113 65.4739,166.413 65.5739,167.013 L 67.6739,179.813 M 69.1739,164.513 C 68.9739,163.313 69.1739,163.213 69.7739,162.613 C 80.5739,152.513 88.7739,139.813 88.7739,124.513 C 88.7739,115.813 86.3739,107.213 82.2739,101.213 C 80.7739,99.013 78.1739,96.213 77.0739,96.213 C 75.6739,96.213 72.5739,98.813 70.5739,101.013 C 63.1739,109.213 60.7739,121.713 60.7739,132.113 C 60.7739,137.913 61.4739,144.413 62.1739,148.513 C 62.3739,149.713 62.4739,149.913 61.2739,150.913 C 46.8739,162.813 31.5739,177.113 31.5739,197.313 C 31.5739,214.713 43.4739,231.213 67.9739,231.213 C 70.2739,231.213 72.8739,231.013 74.8739,230.613 C 75.2739,230.513 75.4739,230.513 75.6739,230.513 C 76.0739,230.513 76.2739,230.713 76.3739,231.513 C 77.5739,238.213 79.0739,246.913 79.0739,251.613 C 79.0739,266.413 69.0739,268.213 63.1739,268.213 C 57.7739,268.213 55.1739,266.613 55.1739,265.313 C 55.1739,264.613 56.0739,264.313 58.3739,263.613 C 61.4739,262.713 65.0739,260.013 65.0739,254.213 C 65.0739,248.713 61.5739,244.013 55.4739,244.013 C 48.7739,244.013 44.7739,249.313 44.7739,255.513 C 44.7739,262.013 48.6739,271.813 63.7739,271.813 C 70.4739,271.813 83.4739,268.813 83.4739,251.813 C 83.4739,246.113 81.6739,236.613 80.5739,230.413 C 80.3739,229.213 80.4739,229.313 81.8739,228.713 C 91.9739,224.713 98.6739,216.213 98.6739,204.913 C 98.6739,192.113 89.2739,180.813 74.5739,180.813 C 71.9739,180.813 71.9739,180.813 71.6739,179.013 L 69.1739,164.513"
     id="path136" />
  <path
     class=""
     d="M 149.468,189.413 C 149.568,189.413 149.768,189.313 149.868,189.313 C 149.868,189.313 151.268,188.713 152.168,188.413 C 152.268,188.313 152.368,188.313 152.468,188.313 C 153.168,188.313 153.668,189.413 153.668,189.913 V 202.213 C 153.668,202.813 154.268,203.313 154.968,203.313 C 155.968,203.313 156.668,202.813 156.668,202.213 V 188.313 C 156.668,187.013 157.168,186.313 157.668,186.113 L 163.768,183.613 C 163.868,183.613 164.068,183.513 164.168,183.513 C 164.968,183.513 165.468,184.713 165.468,185.313 V 197.813 C 165.468,198.413 166.068,198.913 166.768,198.913 C 167.868,198.913 168.468,198.413 168.468,197.813 V 183.613 C 168.468,182.813 168.868,181.613 169.568,181.313 C 170.268,181.013 172.368,180.213 172.368,180.213 C 173.068,179.913 173.568,179.113 173.568,178.513 V 171.413 C 173.568,170.913 173.268,170.613 172.868,170.613 C 172.668,170.613 172.568,170.613 172.368,170.713 L 169.768,171.713 C 169.168,171.713 168.468,171.113 168.468,169.913 V 160.613 C 168.468,159.913 168.968,158.013 169.768,157.713 L 172.368,156.713 C 173.068,156.413 173.568,155.613 173.568,155.013 V 147.913 C 173.568,147.413 173.268,147.113 172.868,147.113 C 172.668,147.113 172.568,147.113 172.368,147.213 C 172.368,147.213 170.368,148.013 169.868,148.113 C 169.168,148.113 168.468,147.613 168.468,146.813 V 134.613 C 168.468,134.013 167.868,133.513 167.068,133.513 C 166.068,133.513 165.468,134.013 165.468,134.613 V 147.613 C 165.368,148.613 165.068,149.913 164.168,150.513 C 162.968,151.213 159.568,152.613 157.868,153.013 C 156.968,153.013 156.668,151.813 156.668,151.013 V 139.013 C 156.668,138.413 155.968,137.913 155.268,137.913 C 154.268,137.913 153.668,138.413 153.668,139.013 V 152.513 C 153.668,153.913 153.068,154.913 152.468,155.213 C 151.868,155.513 149.868,156.313 149.868,156.313 C 149.168,156.513 148.668,157.313 148.668,157.913 V 165.013 C 148.668,165.613 148.968,165.913 149.468,165.913 C 149.868,165.913 151.768,165.013 152.068,164.813 C 153.068,164.813 153.668,165.313 153.668,166.513 V 176.413 C 153.668,177.513 153.168,178.413 152.568,178.713 C 151.968,178.913 149.868,179.813 149.868,179.813 C 149.168,180.013 148.668,180.813 148.668,181.413 V 188.513 C 148.668,189.113 148.968,189.413 149.468,189.413 M 156.668,164.113 C 156.868,162.413 161.468,160.313 163.968,160.313 C 164.668,160.313 165.268,160.513 165.468,160.913 C 165.668,161.413 165.868,163.913 165.868,166.613 C 165.868,169.313 165.668,172.113 165.468,173.013 C 164.868,175.013 160.168,177.013 157.868,177.013 C 157.268,177.013 156.768,176.813 156.668,176.513 C 156.468,176.113 156.368,173.913 156.368,171.513 C 156.368,168.413 156.468,164.913 156.668,164.113"
     id="path138" />
  <path
     class=""
     d="M 112.468,151.913 C 112.568,151.913 112.768,151.813 112.868,151.813 C 112.868,151.813 114.268,151.213 115.168,150.913 C 115.268,150.813 115.368,150.813 115.468,150.813 C 116.168,150.813 116.668,151.913 116.668,152.413 V 164.713 C 116.668,165.313 117.268,165.813 117.968,165.813 C 118.968,165.813 119.668,165.313 119.668,164.713 V 150.813 C 119.668,149.513 120.168,148.813 120.668,148.613 L 126.768,146.113 C 126.868,146.113 127.068,146.013 127.168,146.013 C 127.968,146.013 128.468,147.213 128.468,147.813 V 160.313 C 128.468,160.913 129.068,161.413 129.768,161.413 C 130.868,161.413 131.468,160.913 131.468,160.313 V 146.113 C 131.468,145.313 131.868,144.113 132.568,143.813 C 133.268,143.513 135.368,142.713 135.368,142.713 C 136.068,142.413 136.568,141.613 136.568,141.013 V 133.913 C 136.568,133.413 136.268,133.113 135.868,133.113 C 135.668,133.113 135.568,133.113 135.368,133.213 L 132.768,134.213 C 132.168,134.213 131.468,133.613 131.468,132.413 V 123.113 C 131.468,122.413 131.968,120.513 132.768,120.213 L 135.368,119.213 C 136.068,118.913 136.568,118.113 136.568,117.513 V 110.413 C 136.568,109.913 136.268,109.613 135.868,109.613 C 135.668,109.613 135.568,109.613 135.368,109.713 C 135.368,109.713 133.368,110.513 132.868,110.613 C 132.168,110.613 131.468,110.113 131.468,109.313 V 97.113 C 131.468,96.513 130.868,96.013 130.068,96.013 C 129.068,96.013 128.468,96.513 128.468,97.113 V 110.113 C 128.368,111.113 128.068,112.413 127.168,113.013 C 125.968,113.713 122.568,115.113 120.868,115.513 C 119.968,115.513 119.668,114.313 119.668,113.513 V 101.513 C 119.668,100.913 118.968,100.413 118.268,100.413 C 117.268,100.413 116.668,100.913 116.668,101.513 V 115.013 C 116.668,116.413 116.068,117.413 115.468,117.713 C 114.868,118.013 112.868,118.813 112.868,118.813 C 112.168,119.013 111.668,119.813 111.668,120.413 V 127.513 C 111.668,128.113 111.968,128.413 112.468,128.413 C 112.868,128.413 114.768,127.513 115.068,127.313 C 116.068,127.313 116.668,127.813 116.668,129.013 V 138.913 C 116.668,140.013 116.168,140.913 115.568,141.213 C 114.968,141.413 112.868,142.313 112.868,142.313 C 112.168,142.513 111.668,143.313 111.668,143.913 V 151.013 C 111.668,151.613 111.968,151.913 112.468,151.913 M 119.668,126.613 C 119.868,124.913 124.468,122.813 126.968,122.813 C 127.668,122.813 128.268,123.013 128.468,123.413 C 128.668,123.913 128.868,126.413 128.868,129.113 C 128.868,131.813 128.668,134.613 128.468,135.513 C 127.868,137.513 123.168,139.513 120.868,139.513 C 120.268,139.513 119.768,139.313 119.668,139.013 C 119.468,138.613 119.368,136.413 119.368,134.013 C 119.368,130.913 119.468,127.413 119.668,126.613"
     id="path140" />
  <path
     class=""
     d="M 243.866,184.813 C 245.466,186.813 246.866,188.713 248.166,190.813 C 248.366,191.213 248.766,192.013 248.766,192.213 C 248.766,192.313 248.766,192.513 248.666,192.613 C 248.466,193.013 248.066,193.113 247.566,193.113 C 247.166,193.113 246.366,192.913 245.966,192.813 C 245.466,192.813 244.866,192.513 244.366,192.513 C 240.066,192.513 236.166,196.813 236.166,202.113 C 236.166,207.113 240.466,212.013 247.766,217.613 C 248.566,218.213 249.566,218.513 250.366,218.513 C 251.066,218.513 251.766,218.313 251.866,217.913 C 251.966,217.613 252.066,217.413 252.066,217.213 C 252.066,216.313 251.266,215.513 250.466,214.813 C 249.166,214.813 248.066,212.113 247.866,211.213 C 247.566,210.413 247.466,209.513 247.466,208.613 C 247.466,204.513 249.566,201.313 253.766,201.313 C 256.666,201.313 259.966,202.413 261.566,203.013 C 261.666,203.013 261.766,203.113 261.866,203.113 C 262.166,203.213 262.366,203.213 262.566,203.213 C 262.866,203.213 263.066,203.113 263.066,202.813 C 263.066,201.613 260.466,198.313 259.366,197.113 C 255.566,192.513 252.466,188.813 252.466,183.213 C 252.466,182.813 252.566,182.313 252.566,181.913 C 252.966,176.113 256.566,171.313 259.166,167.213 C 259.466,166.713 259.566,166.213 259.566,165.713 C 259.566,164.713 259.166,163.813 259.166,163.813 C 259.166,163.813 244.366,146.213 242.666,144.513 C 242.166,144.013 241.466,143.713 240.866,143.713 C 239.866,143.713 238.866,144.413 238.866,145.813 C 238.866,146.313 238.966,146.813 239.266,147.413 C 239.666,148.513 245.366,153.613 245.366,160.813 C 245.366,164.513 243.866,168.813 239.366,173.513 C 238.366,174.513 237.966,175.613 237.966,176.413 C 237.966,177.813 238.966,178.813 238.966,178.813 L 243.866,184.813"
     id="path142" />
  <text
     xml:space="preserve"
     style="font-size:53.3341px;line-height:1.25;font-family:'Libertinus Sans';-inkscape-font-specification:'Libertinus Sans';letter-spacing:0px;word-spacing:0px;fill:#ff00ff;stroke-width:1.00001"
     x="13.462669"
     y="47.456699"
     id="text650"><tspan
       sodipodi:role="line"
       id="tspan648"
       x="13.462669"
       y="47.456699"
       style="fill:#ff00ff;stroke-width:1.00001">D-Dur: der letzte ♯ entspricht dem Leitton der Dur-Tonart </tspan></text>
  <metadata
     id="metadata413">
    <rdf:RDF>
      <cc:Work
         rdf:about="">
        <dc:title>Unbenannt</dc:title>
      </cc:Work>
    </rdf:RDF>
  </metadata>
</svg>
