<?xml version="1.0" encoding="UTF-8" standalone="no"?>
<svg
   width="1402"
   height="312"
   viewBox="0 0 1402 312"
   version="1.2"
   id="svg1567"
   sodipodi:docname="Haydn_104_Kl._in_A_notiert.svg"
   inkscape:version="1.1-dev (0486c1a, 2020-10-10)"
   xmlns:inkscape="http://www.inkscape.org/namespaces/inkscape"
   xmlns:sodipodi="http://sodipodi.sourceforge.net/DTD/sodipodi-0.dtd"
   xmlns="http://www.w3.org/2000/svg"
   xmlns:svg="http://www.w3.org/2000/svg"
   xmlns:rdf="http://www.w3.org/1999/02/22-rdf-syntax-ns#"
   xmlns:cc="http://creativecommons.org/ns#"
   xmlns:dc="http://purl.org/dc/elements/1.1/">
  <defs
     id="defs1571" />
  <sodipodi:namedview
     pagecolor="#ffffff"
     bordercolor="#666666"
     borderopacity="1"
     objecttolerance="10"
     gridtolerance="10"
     guidetolerance="10"
     inkscape:pageopacity="0"
     inkscape:pageshadow="2"
     inkscape:window-width="1266"
     inkscape:window-height="651"
     id="namedview1569"
     showgrid="false"
     height="312px"
     inkscape:zoom="1.6316379"
     inkscape:cx="1069.7839"
     inkscape:cy="223.39516"
     inkscape:window-x="0"
     inkscape:window-y="166"
     inkscape:window-maximized="0"
     inkscape:current-layer="svg1567" />
  <title
     id="title1437">Unbenannt</title>
  <desc
     id="desc1439">Generated by MuseScore 3.5.2</desc>
  <circle
     style="fill:#ffbf00;fill-opacity:1;stroke:none;stroke-width:1.9;stroke-linecap:round;stroke-linejoin:round"
     id="circle622"
     cx="1167.0951"
     cy="174.87624"
     r="56.692913" />
  <circle
     style="fill:#00ffff;fill-opacity:0.620209;stroke:none;stroke-width:1.90001;stroke-linecap:round;stroke-linejoin:round"
     id="path865"
     cx="149.98245"
     cy="159.9053"
     r="37.795277" />
  <path
     class=""
     stroke="#000000"
     stroke-width="2.5"
     stroke-linecap="round"
     stroke-linejoin="round"
     fill-rule="evenodd"
     d="M 525.836,246.865 C 575.916,282.217 671.02,275.967 716.044,234.365 C 671.414,281.954 576.31,288.204 525.836,246.865"
     id="path1441" />
  <path
     class=""
     stroke="#000000"
     stroke-width="2.5"
     stroke-linecap="round"
     stroke-linejoin="round"
     fill-rule="evenodd"
     d="M 306.627,221.865 C 335.404,254.66 398.807,260.91 433.433,234.365 C 398.218,266.881 334.816,260.631 306.627,221.865"
     id="path1443" />
  <polyline
     class=""
     stroke="#000000"
     stroke-width="4"
     stroke-linejoin="bevel"
     points="1257.5,122.74 1257.5,225.99"
     id="polyline1445" />
  <polyline
     class=""
     stroke="#000000"
     stroke-width="4"
     stroke-linejoin="bevel"
     points="1047.61,122.74 1047.61,225.99"
     id="polyline1447" />
  <polyline
     class=""
     stroke="#000000"
     stroke-width="4"
     stroke-linejoin="bevel"
     points="764.997,122.74 764.997,225.99"
     id="polyline1449" />
  <polyline
     class=""
     stroke="#000000"
     stroke-width="4"
     stroke-linejoin="bevel"
     points="482.386,122.74 482.386,225.99"
     id="polyline1451" />
  <path
     id="polyline1453"
     style="stroke:#000000;stroke-width:3.25;stroke-linejoin:bevel"
     d="M 1259.5,124.365 H 1376.4701"
     class=""
     sodipodi:nodetypes="cc" />
  <path
     id="polyline1455"
     style="stroke:#000000;stroke-width:3.25;stroke-linejoin:bevel"
     d="M 1259.5,149.365 H 1376.4701"
     class=""
     sodipodi:nodetypes="cc" />
  <path
     id="polyline1457"
     style="stroke:#000000;stroke-width:3.25;stroke-linejoin:bevel"
     d="M 1259.5,174.365 H 1376.4701"
     class=""
     sodipodi:nodetypes="cc" />
  <path
     id="polyline1459"
     style="stroke:#000000;stroke-width:3.25;stroke-linejoin:bevel"
     d="M 1259.5,199.365 H 1376.4701"
     class=""
     sodipodi:nodetypes="cc" />
  <path
     id="polyline1461"
     style="stroke:#000000;stroke-width:3.25;stroke-linejoin:bevel"
     d="M 1259.5,224.365 H 1376.4701"
     class=""
     sodipodi:nodetypes="cc" />
  <polyline
     class=""
     stroke="#000000"
     stroke-width="3.25"
     stroke-linejoin="bevel"
     points="1049.61,124.365 1259.5,124.365"
     id="polyline1463" />
  <polyline
     class=""
     stroke="#000000"
     stroke-width="3.25"
     stroke-linejoin="bevel"
     points="1049.61,149.365 1259.5,149.365"
     id="polyline1465" />
  <polyline
     class=""
     stroke="#000000"
     stroke-width="3.25"
     stroke-linejoin="bevel"
     points="1049.61,174.365 1259.5,174.365"
     id="polyline1467" />
  <polyline
     class=""
     stroke="#000000"
     stroke-width="3.25"
     stroke-linejoin="bevel"
     points="1049.61,199.365 1259.5,199.365"
     id="polyline1469" />
  <polyline
     class=""
     stroke="#000000"
     stroke-width="3.25"
     stroke-linejoin="bevel"
     points="1049.61,224.365 1259.5,224.365"
     id="polyline1471" />
  <polyline
     class=""
     stroke="#000000"
     stroke-width="3.25"
     stroke-linejoin="bevel"
     points="766.997,124.365 1049.61,124.365"
     id="polyline1473" />
  <polyline
     class=""
     stroke="#000000"
     stroke-width="3.25"
     stroke-linejoin="bevel"
     points="766.997,149.365 1049.61,149.365"
     id="polyline1475" />
  <polyline
     class=""
     stroke="#000000"
     stroke-width="3.25"
     stroke-linejoin="bevel"
     points="766.997,174.365 1049.61,174.365"
     id="polyline1477" />
  <polyline
     class=""
     stroke="#000000"
     stroke-width="3.25"
     stroke-linejoin="bevel"
     points="766.997,199.365 1049.61,199.365"
     id="polyline1479" />
  <polyline
     class=""
     stroke="#000000"
     stroke-width="3.25"
     stroke-linejoin="bevel"
     points="766.997,224.365 1049.61,224.365"
     id="polyline1481" />
  <polyline
     class=""
     stroke="#000000"
     stroke-width="3.25"
     stroke-linejoin="bevel"
     points="484.386,124.365 766.997,124.365"
     id="polyline1483" />
  <polyline
     class=""
     stroke="#000000"
     stroke-width="3.25"
     stroke-linejoin="bevel"
     points="484.386,149.365 766.997,149.365"
     id="polyline1485" />
  <polyline
     class=""
     stroke="#000000"
     stroke-width="3.25"
     stroke-linejoin="bevel"
     points="484.386,174.365 766.997,174.365"
     id="polyline1487" />
  <polyline
     class=""
     stroke="#000000"
     stroke-width="3.25"
     stroke-linejoin="bevel"
     points="484.386,199.365 766.997,199.365"
     id="polyline1489" />
  <polyline
     class=""
     stroke="#000000"
     stroke-width="3.25"
     stroke-linejoin="bevel"
     points="484.386,224.365 766.997,224.365"
     id="polyline1491" />
  <polyline
     class=""
     stroke="#000000"
     stroke-width="3.25"
     stroke-linejoin="bevel"
     points="29.588,124.365 484.386,124.365"
     id="polyline1493" />
  <polyline
     class=""
     stroke="#000000"
     stroke-width="3.25"
     stroke-linejoin="bevel"
     points="29.588,149.365 484.386,149.365"
     id="polyline1495" />
  <polyline
     class=""
     stroke="#000000"
     stroke-width="3.25"
     stroke-linejoin="bevel"
     points="29.588,174.365 484.386,174.365"
     id="polyline1497" />
  <polyline
     class=""
     stroke="#000000"
     stroke-width="3.25"
     stroke-linejoin="bevel"
     points="29.588,199.365 484.386,199.365"
     id="polyline1499" />
  <polyline
     class=""
     stroke="#000000"
     stroke-width="3.25"
     stroke-linejoin="bevel"
     points="29.588,224.365 484.386,224.365"
     id="polyline1501" />
  <path
     class=""
     d="M 1143.56,193.865 C 1143.66,193.865 1144.16,193.765 1144.26,193.665 C 1145.66,193.065 1151.26,190.665 1154.16,190.665 C 1155.16,190.665 1155.86,190.965 1155.86,191.765 V 206.665 C 1155.86,207.365 1156.36,207.865 1157.06,207.865 H 1158.36 C 1158.96,207.865 1159.56,207.365 1159.56,206.665 V 156.465 C 1159.56,155.965 1159.16,155.665 1158.76,155.665 C 1158.66,155.665 1158.46,155.665 1158.36,155.765 L 1156.86,156.265 C 1156.66,156.265 1156.56,156.365 1156.46,156.365 C 1156.46,156.365 1150.06,158.665 1147.46,158.665 C 1146.86,158.665 1146.46,158.565 1146.46,158.165 V 141.465 C 1146.46,140.765 1145.86,140.265 1145.26,140.265 H 1143.96 C 1143.26,140.265 1142.76,140.765 1142.76,141.465 V 192.965 C 1142.76,193.565 1143.06,193.865 1143.56,193.865 M 1146.46,170.465 C 1146.46,169.065 1152.56,166.465 1154.96,166.465 C 1155.56,166.465 1155.86,166.565 1155.86,166.965 V 177.265 C 1155.86,179.065 1150.16,181.365 1147.66,181.365 C 1146.96,181.365 1146.46,181.165 1146.46,180.765 V 170.465"
     id="path1503" />
  <polyline
     class=""
     stroke="#000000"
     stroke-width="3"
     stroke-linecap="round"
     stroke-linejoin="bevel"
     points="1286,165.225 1286,243.115"
     id="polyline1505" />
  <polyline
     class=""
     stroke="#000000"
     stroke-width="3"
     stroke-linecap="round"
     stroke-linejoin="bevel"
     points="1166.55,177.725 1166.55,252.49"
     id="polyline1507" />
  <polyline
     class=""
     stroke="#000000"
     stroke-width="3"
     stroke-linecap="round"
     stroke-linejoin="bevel"
     points="1076.11,165.225 1076.11,243.115"
     id="polyline1509" />
  <polyline
     class=""
     stroke="#000000"
     stroke-width="3"
     stroke-linecap="round"
     stroke-linejoin="bevel"
     points="983.706,152.725 983.706,233.74"
     id="polyline1511" />
  <polyline
     class=""
     stroke="#000000"
     stroke-width="3"
     stroke-linecap="round"
     stroke-linejoin="bevel"
     points="823.396,221.005 823.396,136.865"
     id="polyline1513" />
  <polyline
     class=""
     stroke="#000000"
     stroke-width="3"
     stroke-linecap="round"
     stroke-linejoin="bevel"
     points="950.201,183.505 950.201,105.615"
     id="polyline1515" />
  <polyline
     class=""
     stroke="#000000"
     stroke-width="3"
     stroke-linecap="round"
     stroke-linejoin="bevel"
     points="886.799,196.005 886.799,114.99"
     id="polyline1517" />
  <polyline
     class=""
     stroke="#000000"
     stroke-width="3"
     stroke-linecap="round"
     stroke-linejoin="bevel"
     points="730.993,208.505 730.993,124.365"
     id="polyline1519" />
  <polyline
     class=""
     stroke="#000000"
     stroke-width="3"
     stroke-linecap="round"
     stroke-linejoin="bevel"
     points="667.59,183.505 667.59,105.615"
     id="polyline1521" />
  <polyline
     class=""
     stroke="#000000"
     stroke-width="3"
     stroke-linecap="round"
     stroke-linejoin="bevel"
     points="540.785,221.005 540.785,136.865"
     id="polyline1523" />
  <polyline
     class=""
     stroke="#000000"
     stroke-width="3"
     stroke-linecap="round"
     stroke-linejoin="bevel"
     points="604.188,196.005 604.188,114.99"
     id="polyline1525" />
  <polyline
     class=""
     stroke="#000000"
     stroke-width="3"
     stroke-linecap="round"
     stroke-linejoin="bevel"
     points="448.382,208.505 448.382,124.365"
     id="polyline1527" />
  <polyline
     class=""
     stroke="#000000"
     stroke-width="3"
     stroke-linecap="round"
     stroke-linejoin="bevel"
     points="384.979,183.505 384.979,105.615"
     id="polyline1529" />
  <polyline
     class=""
     stroke="#000000"
     stroke-width="3"
     stroke-linecap="round"
     stroke-linejoin="bevel"
     points="321.577,196.005 321.577,114.99"
     id="polyline1531" />
  <path
     class=""
     d="M 1295.3,175.865 C 1305.2,175.865 1317.4,166.665 1317.4,157.165 C 1317.4,151.565 1312.9,147.865 1306.5,147.865 C 1294.3,147.865 1284.5,156.965 1284.5,166.565 C 1284.5,172.365 1289.3,175.865 1295.3,175.865"
     id="path1533" />
  <path
     class=""
     d="M 1175.85,188.365 C 1194.25,188.365 1197.95,173.365 1197.95,169.765 C 1197.95,164.065 1193.45,160.365 1186.95,160.365 C 1170.25,160.365 1165.05,173.265 1165.05,179.065 C 1165.05,184.965 1169.75,188.365 1175.85,188.365 M 1184.35,179.465 C 1179.35,182.865 1175.85,184.065 1173.45,184.065 C 1171.15,184.065 1169.75,182.865 1169.05,181.465 C 1168.65,180.865 1168.35,180.065 1168.35,179.265 C 1168.35,173.865 1184.45,164.965 1189.75,164.965 C 1191.85,164.965 1193.05,165.965 1193.85,167.365 C 1194.15,167.965 1194.45,168.665 1194.45,169.465 C 1194.45,171.665 1192.15,174.365 1184.35,179.465"
     id="path1535" />
  <path
     class=""
     d="M 1085.41,175.865 C 1103.81,175.865 1107.51,160.865 1107.51,157.265 C 1107.51,151.565 1103.01,147.865 1096.51,147.865 C 1079.81,147.865 1074.61,160.765 1074.61,166.565 C 1074.61,172.465 1079.31,175.865 1085.41,175.865 M 1093.91,166.965 C 1088.91,170.365 1085.41,171.565 1083.01,171.565 C 1080.71,171.565 1079.31,170.365 1078.61,168.965 C 1078.21,168.365 1077.91,167.565 1077.91,166.765 C 1077.91,161.365 1094.01,152.465 1099.31,152.465 C 1101.41,152.465 1102.61,153.465 1103.41,154.865 C 1103.71,155.465 1104.01,156.165 1104.01,156.965 C 1104.01,159.165 1101.71,161.865 1093.91,166.965"
     id="path1537" />
  <path
     class=""
     d="M 929.603,200.865 C 939.503,200.865 951.703,191.665 951.703,182.165 C 951.703,176.565 947.203,172.865 940.803,172.865 C 928.603,172.865 918.803,181.965 918.803,191.565 C 918.803,197.365 923.603,200.865 929.603,200.865"
     id="path1539" />
  <path
     class=""
     d="M 993.006,163.365 C 1002.91,163.365 1015.11,154.165 1015.11,144.665 C 1015.11,139.065 1010.61,135.365 1004.21,135.365 C 992.006,135.365 982.206,144.465 982.206,154.065 C 982.206,159.865 987.006,163.365 993.006,163.365"
     id="path1541" />
  <path
     class=""
     d="M 866.2,213.365 C 876.1,213.365 888.3,204.165 888.3,194.665 C 888.3,189.065 883.8,185.365 877.4,185.365 C 865.2,185.365 855.4,194.465 855.4,204.065 C 855.4,209.865 860.2,213.365 866.2,213.365"
     id="path1543" />
  <path
     class=""
     d="M 802.797,238.365 C 812.697,238.365 824.897,229.165 824.897,219.665 C 824.897,214.065 820.397,210.365 813.997,210.365 C 801.797,210.365 791.997,219.465 791.997,229.065 C 791.997,234.865 796.797,238.365 802.797,238.365"
     id="path1545" />
  <path
     class=""
     d="M 646.992,200.865 C 656.892,200.865 669.092,191.665 669.092,182.165 C 669.092,176.565 664.592,172.865 658.192,172.865 C 645.992,172.865 636.192,181.965 636.192,191.565 C 636.192,197.365 640.992,200.865 646.992,200.865"
     id="path1547" />
  <path
     class=""
     d="M 710.395,225.865 C 720.295,225.865 732.495,216.665 732.495,207.165 C 732.495,201.565 727.995,197.865 721.595,197.865 C 709.395,197.865 699.595,206.965 699.595,216.565 C 699.595,222.365 704.395,225.865 710.395,225.865"
     id="path1549" />
  <path
     class=""
     d="M 583.589,213.365 C 593.489,213.365 605.689,204.165 605.689,194.665 C 605.689,189.065 601.189,185.365 594.789,185.365 C 582.589,185.365 572.789,194.465 572.789,204.065 C 572.789,209.865 577.589,213.365 583.589,213.365"
     id="path1551" />
  <path
     class=""
     d="M 520.186,238.365 C 530.086,238.365 542.286,229.165 542.286,219.665 C 542.286,214.065 537.786,210.365 531.386,210.365 C 519.186,210.365 509.386,219.465 509.386,229.065 C 509.386,234.865 514.186,238.365 520.186,238.365"
     id="path1553" />
  <path
     class=""
     d="M 364.381,200.865 C 374.281,200.865 386.481,191.665 386.481,182.165 C 386.481,176.565 381.981,172.865 375.581,172.865 C 363.381,172.865 353.581,181.965 353.581,191.565 C 353.581,197.365 358.381,200.865 364.381,200.865"
     id="path1555" />
  <path
     class=""
     d="M 427.784,225.865 C 437.684,225.865 449.884,216.665 449.884,207.165 C 449.884,201.565 445.384,197.865 438.984,197.865 C 426.784,197.865 416.984,206.965 416.984,216.565 C 416.984,222.365 421.784,225.865 427.784,225.865"
     id="path1557" />
  <path
     class=""
     d="M 300.978,213.365 C 310.878,213.365 323.078,204.165 323.078,194.665 C 323.078,189.065 318.578,185.365 312.178,185.365 C 299.978,185.365 290.178,194.465 290.178,204.065 C 290.178,209.865 294.978,213.365 300.978,213.365"
     id="path1559" />
  <path
     class=""
     d="M 96.588,105.065 C 99.888,105.065 102.588,107.765 102.588,113.265 C 102.588,124.365 93.088,133.365 85.188,140.265 C 84.888,140.465 84.688,140.665 84.488,140.665 C 84.188,140.665 83.988,140.265 83.888,139.465 C 83.488,136.865 83.288,133.465 83.288,130.265 C 83.288,114.665 90.488,105.065 96.588,105.065 M 92.588,189.065 C 92.388,187.965 92.488,187.665 93.288,187.665 C 93.388,187.665 93.588,187.665 93.688,187.665 C 101.788,188.365 108.488,195.165 108.488,203.965 C 108.488,210.265 104.688,215.365 99.088,218.165 C 98.588,218.365 98.288,218.565 98.088,218.565 C 97.688,218.565 97.588,218.265 97.488,217.565 L 92.588,189.065 M 85.688,173.165 C 85.988,175.065 85.988,174.965 84.188,175.565 C 75.388,178.565 69.688,186.465 69.688,194.965 C 69.688,203.965 74.388,210.365 81.188,212.665 C 81.988,212.965 83.188,213.265 83.888,213.265 C 84.688,213.265 85.088,212.765 85.088,212.165 C 85.088,211.465 84.288,211.165 83.588,210.865 C 79.388,209.065 76.388,204.765 76.388,200.165 C 76.388,194.465 80.288,190.165 86.388,188.465 C 86.888,188.365 87.288,188.265 87.588,188.265 C 88.088,188.265 88.288,188.565 88.388,189.265 L 93.388,219.065 C 93.588,220.165 93.488,220.165 91.988,220.465 C 90.388,220.765 88.388,220.965 86.388,220.965 C 68.888,220.965 57.588,211.265 57.588,197.365 C 57.588,180.365 70.088,169.765 82.188,159.965 C 82.588,159.665 82.888,159.465 83.088,159.465 C 83.388,159.465 83.488,159.765 83.588,160.365 L 85.688,173.165 M 87.188,157.865 C 86.988,156.665 87.188,156.565 87.788,155.965 C 98.588,145.865 106.788,133.165 106.788,117.865 C 106.788,109.165 104.388,100.565 100.288,94.5654 C 98.788,92.3654 96.188,89.5654 95.088,89.5654 C 93.688,89.5654 90.588,92.1654 88.588,94.3654 C 81.188,102.565 78.788,115.065 78.788,125.465 C 78.788,131.265 79.488,137.765 80.188,141.865 C 80.388,143.065 80.488,143.265 79.288,144.265 C 64.888,156.165 49.588,170.465 49.588,190.665 C 49.588,208.065 61.488,224.565 85.988,224.565 C 88.288,224.565 90.888,224.365 92.888,223.965 C 93.288,223.865 93.488,223.865 93.688,223.865 C 94.088,223.865 94.288,224.065 94.388,224.865 C 95.588,231.565 97.088,240.265 97.088,244.965 C 97.088,259.765 87.088,261.565 81.188,261.565 C 75.788,261.565 73.188,259.965 73.188,258.665 C 73.188,257.965 74.088,257.665 76.388,256.965 C 79.488,256.065 83.088,253.365 83.088,247.565 C 83.088,242.065 79.588,237.365 73.488,237.365 C 66.788,237.365 62.788,242.665 62.788,248.865 C 62.788,255.365 66.688,265.165 81.788,265.165 C 88.488,265.165 101.488,262.165 101.488,245.165 C 101.488,239.465 99.688,229.965 98.588,223.765 C 98.388,222.565 98.488,222.665 99.888,222.065 C 109.988,218.065 116.688,209.565 116.688,198.265 C 116.688,185.465 107.288,174.165 92.588,174.165 C 89.988,174.165 89.988,174.165 89.688,172.365 L 87.188,157.865"
     id="path1561" />
  <path
     class=""
     d="M 146.382,182.465 C 146.382,182.465 146.082,176.465 146.082,172.465 C 146.082,170.865 146.182,169.665 146.282,169.265 C 146.982,167.265 150.982,164.365 153.282,164.365 C 156.182,164.365 157.382,167.665 157.382,170.165 C 157.382,175.565 152.782,180.965 148.482,183.665 C 148.082,183.865 147.782,183.965 147.482,183.965 C 146.582,183.965 146.382,182.965 146.382,182.465 M 142.882,191.365 C 143.182,191.765 143.482,191.865 143.782,191.865 C 144.082,191.865 144.382,191.665 144.382,191.665 C 147.382,189.965 149.782,187.265 152.282,185.565 C 161.182,179.365 164.282,173.265 164.282,168.665 C 164.282,162.965 159.882,159.365 155.282,159.065 C 153.582,159.065 151.182,159.865 149.782,160.765 C 149.182,161.265 148.082,162.165 147.582,162.165 C 147.382,162.165 147.282,162.165 147.082,162.065 C 146.382,161.765 145.982,161.065 145.982,160.365 C 146.082,158.165 146.682,134.165 146.682,132.165 C 146.682,131.065 145.782,130.465 144.782,130.465 C 143.382,130.465 141.782,131.465 141.682,133.265 C 141.682,133.265 142.082,190.365 142.882,191.365"
     id="path1563" />
  <path
     class=""
     d="M 234.576,178.165 C 236.176,180.165 237.576,182.065 238.876,184.165 C 239.076,184.565 239.476,185.365 239.476,185.565 C 239.476,185.665 239.476,185.865 239.376,185.965 C 239.176,186.365 238.776,186.465 238.276,186.465 C 237.876,186.465 237.076,186.265 236.676,186.165 C 236.176,186.165 235.576,185.865 235.076,185.865 C 230.776,185.865 226.876,190.165 226.876,195.465 C 226.876,200.465 231.176,205.365 238.476,210.965 C 239.276,211.565 240.276,211.865 241.076,211.865 C 241.776,211.865 242.476,211.665 242.576,211.265 C 242.676,210.965 242.776,210.765 242.776,210.565 C 242.776,209.665 241.976,208.865 241.176,208.165 C 239.876,208.165 238.776,205.465 238.576,204.565 C 238.276,203.765 238.176,202.865 238.176,201.965 C 238.176,197.865 240.276,194.665 244.476,194.665 C 247.376,194.665 250.676,195.765 252.276,196.365 C 252.376,196.365 252.476,196.465 252.576,196.465 C 252.876,196.565 253.076,196.565 253.276,196.565 C 253.576,196.565 253.776,196.465 253.776,196.165 C 253.776,194.965 251.176,191.665 250.076,190.465 C 246.276,185.865 243.176,182.165 243.176,176.565 C 243.176,176.165 243.276,175.665 243.276,175.265 C 243.676,169.465 247.276,164.665 249.876,160.565 C 250.176,160.065 250.276,159.565 250.276,159.065 C 250.276,158.065 249.876,157.165 249.876,157.165 C 249.876,157.165 235.076,139.565 233.376,137.865 C 232.876,137.365 232.176,137.065 231.576,137.065 C 230.576,137.065 229.576,137.765 229.576,139.165 C 229.576,139.665 229.676,140.165 229.976,140.765 C 230.376,141.865 236.076,146.965 236.076,154.165 C 236.076,157.865 234.576,162.165 230.076,166.865 C 229.076,167.865 228.676,168.965 228.676,169.765 C 228.676,171.165 229.676,172.165 229.676,172.165 L 234.576,178.165"
     id="path1565" />
  <text
     xml:space="preserve"
     style="font-size:53.3341px;line-height:1.25;font-family:'Libertinus Sans';-inkscape-font-specification:'Libertinus Sans';letter-spacing:0px;word-spacing:0px;fill:#008080;stroke-width:1.00001"
     x="26.044004"
     y="59.273758"
     id="text650"><tspan
       sodipodi:role="line"
       id="tspan648"
       x="26.044004"
       y="59.273758"
       style="fill:#008080;stroke-width:1.00001">D-Dur: der letzte ♯ entspricht dem Leitton der Dur-Tonart </tspan></text>
  <metadata
     id="metadata1599">
    <rdf:RDF>
      <cc:Work
         rdf:about="">
        <dc:title>Unbenannt</dc:title>
      </cc:Work>
    </rdf:RDF>
  </metadata>
</svg>
