<?xml version="1.0" encoding="UTF-8" standalone="no"?>
<svg
   width="1614px"
   height="359px"
   viewBox="0 0 1614 359"
   version="1.2"
   id="svg3807"
   sodipodi:docname="Hummel_Klavierkonzert_Op._85_A-Kl._klingend.svg"
   inkscape:version="1.1-dev (0486c1a, 2020-10-10)"
   xmlns:inkscape="http://www.inkscape.org/namespaces/inkscape"
   xmlns:sodipodi="http://sodipodi.sourceforge.net/DTD/sodipodi-0.dtd"
   xmlns="http://www.w3.org/2000/svg"
   xmlns:svg="http://www.w3.org/2000/svg"
   xmlns:rdf="http://www.w3.org/1999/02/22-rdf-syntax-ns#"
   xmlns:cc="http://creativecommons.org/ns#"
   xmlns:dc="http://purl.org/dc/elements/1.1/">
  <defs
     id="defs3811" />
  <sodipodi:namedview
     pagecolor="#ffffff"
     bordercolor="#666666"
     borderopacity="1"
     objecttolerance="10"
     gridtolerance="10"
     guidetolerance="10"
     inkscape:pageopacity="0"
     inkscape:pageshadow="2"
     inkscape:window-width="1044"
     inkscape:window-height="480"
     id="namedview3809"
     showgrid="false"
     inkscape:zoom="0.17482773"
     inkscape:cx="523.37236"
     inkscape:cy="777.90865"
     inkscape:window-x="133"
     inkscape:window-y="74"
     inkscape:window-maximized="0"
     inkscape:current-layer="svg3807" />
  <title
     id="title3647">Unbenannt</title>
  <desc
     id="desc3649">Generated by MuseScore 3.5.2</desc>
  <circle
     style="fill:#00ff00;fill-opacity:1;stroke:none;stroke-width:1.9;stroke-linecap:round;stroke-linejoin:round"
     id="circle1609"
     cx="1470.3531"
     cy="153.14093"
     r="56.692913" />
  <g
     id="g4750">
    <path
       id="polyline3663"
       style="stroke:#000000;stroke-width:3.25;stroke-linejoin:bevel;stroke-miterlimit:4;stroke-dasharray:none"
       d="M 1310.11,108.729 H 1582.6796"
       class="" />
    <path
       id="polyline3665"
       style="stroke:#000000;stroke-width:3.25;stroke-linejoin:bevel;stroke-miterlimit:4;stroke-dasharray:none"
       d="M 1310.11,133.729 H 1582.6796"
       class="" />
    <path
       id="polyline3667"
       style="stroke:#000000;stroke-width:3.25;stroke-linejoin:bevel;stroke-miterlimit:4;stroke-dasharray:none"
       d="M 1310.11,158.729 H 1582.6796"
       class="" />
    <path
       id="polyline3669"
       style="stroke:#000000;stroke-width:3.25;stroke-linejoin:bevel;stroke-miterlimit:4;stroke-dasharray:none"
       d="M 1310.11,183.729 H 1582.6796"
       class="" />
    <path
       id="polyline3671"
       style="stroke:#000000;stroke-width:3.25;stroke-linejoin:bevel;stroke-miterlimit:4;stroke-dasharray:none"
       d="M 1310.11,208.729 H 1582.6796"
       class="" />
    <polyline
       class=""
       stroke="#000000"
       stroke-width="3.25"
       stroke-linejoin="bevel"
       points="1001.34,108.729 1310.11,108.729"
       id="polyline3673" />
    <polyline
       class=""
       stroke="#000000"
       stroke-width="3.25"
       stroke-linejoin="bevel"
       points="1001.34,133.729 1310.11,133.729"
       id="polyline3675" />
    <polyline
       class=""
       stroke="#000000"
       stroke-width="3.25"
       stroke-linejoin="bevel"
       points="1001.34,158.729 1310.11,158.729"
       id="polyline3677" />
    <polyline
       class=""
       stroke="#000000"
       stroke-width="3.25"
       stroke-linejoin="bevel"
       points="1001.34,183.729 1310.11,183.729"
       id="polyline3679" />
    <polyline
       class=""
       stroke="#000000"
       stroke-width="3.25"
       stroke-linejoin="bevel"
       points="1001.34,208.729 1310.11,208.729"
       id="polyline3681" />
    <polyline
       class=""
       stroke="#000000"
       stroke-width="3.25"
       stroke-linejoin="bevel"
       points="771.18,108.729 1001.34,108.729"
       id="polyline3683" />
    <polyline
       class=""
       stroke="#000000"
       stroke-width="3.25"
       stroke-linejoin="bevel"
       points="771.18,133.729 1001.34,133.729"
       id="polyline3685" />
    <polyline
       class=""
       stroke="#000000"
       stroke-width="3.25"
       stroke-linejoin="bevel"
       points="771.18,158.729 1001.34,158.729"
       id="polyline3687" />
    <polyline
       class=""
       stroke="#000000"
       stroke-width="3.25"
       stroke-linejoin="bevel"
       points="771.18,183.729 1001.34,183.729"
       id="polyline3689" />
    <polyline
       class=""
       stroke="#000000"
       stroke-width="3.25"
       stroke-linejoin="bevel"
       points="771.18,208.729 1001.34,208.729"
       id="polyline3691" />
    <polyline
       class=""
       stroke="#000000"
       stroke-width="3.25"
       stroke-linejoin="bevel"
       points="14.7547,108.729 771.18,108.729"
       id="polyline3693" />
    <polyline
       class=""
       stroke="#000000"
       stroke-width="3.25"
       stroke-linejoin="bevel"
       points="14.7547,133.729 771.18,133.729"
       id="polyline3695" />
    <polyline
       class=""
       stroke="#000000"
       stroke-width="3.25"
       stroke-linejoin="bevel"
       points="14.7547,158.729 771.18,158.729"
       id="polyline3697" />
    <polyline
       class=""
       stroke="#000000"
       stroke-width="3.25"
       stroke-linejoin="bevel"
       points="14.7547,183.729 771.18,183.729"
       id="polyline3699" />
    <polyline
       class=""
       stroke="#000000"
       stroke-width="3.25"
       stroke-linejoin="bevel"
       points="14.7547,208.729 771.18,208.729"
       id="polyline3701" />
  </g>
  <path
     class=""
     d="M81.7547,89.4293 C85.0547,89.4293 87.7547,92.1293 87.7547,97.6293 C87.7547,108.729 78.2547,117.729 70.3547,124.629 C70.0547,124.829 69.8547,125.029 69.6547,125.029 C69.3547,125.029 69.1547,124.629 69.0547,123.829 C68.6547,121.229 68.4547,117.829 68.4547,114.629 C68.4547,99.0293 75.6547,89.4293 81.7547,89.4293 M77.7547,173.429 C77.5547,172.329 77.6547,172.029 78.4547,172.029 C78.5547,172.029 78.7547,172.029 78.8547,172.029 C86.9547,172.729 93.6547,179.529 93.6547,188.329 C93.6547,194.629 89.8547,199.729 84.2547,202.529 C83.7547,202.729 83.4547,202.929 83.2547,202.929 C82.8547,202.929 82.7547,202.629 82.6547,201.929 L77.7547,173.429 M70.8547,157.529 C71.1547,159.429 71.1547,159.329 69.3547,159.929 C60.5547,162.929 54.8547,170.829 54.8547,179.329 C54.8547,188.329 59.5547,194.729 66.3547,197.029 C67.1547,197.329 68.3547,197.629 69.0547,197.629 C69.8547,197.629 70.2547,197.129 70.2547,196.529 C70.2547,195.829 69.4547,195.529 68.7547,195.229 C64.5547,193.429 61.5547,189.129 61.5547,184.529 C61.5547,178.829 65.4547,174.529 71.5547,172.829 C72.0547,172.729 72.4547,172.629 72.7547,172.629 C73.2547,172.629 73.4547,172.929 73.5547,173.629 L78.5547,203.429 C78.7547,204.529 78.6547,204.529 77.1547,204.829 C75.5547,205.129 73.5547,205.329 71.5547,205.329 C54.0547,205.329 42.7547,195.629 42.7547,181.729 C42.7547,164.729 55.2547,154.129 67.3547,144.329 C67.7547,144.029 68.0547,143.829 68.2547,143.829 C68.5547,143.829 68.6547,144.129 68.7547,144.729 L70.8547,157.529 M72.3547,142.229 C72.1547,141.029 72.3547,140.929 72.9547,140.329 C83.7547,130.229 91.9547,117.529 91.9547,102.229 C91.9547,93.5293 89.5547,84.9293 85.4547,78.9293 C83.9547,76.7293 81.3547,73.9293 80.2547,73.9293 C78.8547,73.9293 75.7547,76.5293 73.7547,78.7293 C66.3547,86.9293 63.9547,99.4293 63.9547,109.829 C63.9547,115.629 64.6547,122.129 65.3547,126.229 C65.5547,127.429 65.6547,127.629 64.4547,128.629 C50.0547,140.529 34.7547,154.829 34.7547,175.029 C34.7547,192.429 46.6547,208.929 71.1547,208.929 C73.4547,208.929 76.0547,208.729 78.0547,208.329 C78.4547,208.229 78.6547,208.229 78.8547,208.229 C79.2547,208.229 79.4547,208.429 79.5547,209.229 C80.7547,215.929 82.2547,224.629 82.2547,229.329 C82.2547,244.129 72.2547,245.929 66.3547,245.929 C60.9547,245.929 58.3547,244.329 58.3547,243.029 C58.3547,242.329 59.2547,242.029 61.5547,241.329 C64.6547,240.429 68.2547,237.729 68.2547,231.929 C68.2547,226.429 64.7547,221.729 58.6547,221.729 C51.9547,221.729 47.9547,227.029 47.9547,233.229 C47.9547,239.729 51.8547,249.529 66.9547,249.529 C73.6547,249.529 86.6547,246.529 86.6547,229.529 C86.6547,223.829 84.8547,214.329 83.7547,208.129 C83.5547,206.929 83.6547,207.029 85.0547,206.429 C95.1547,202.429 101.855,193.929 101.855,182.629 C101.855,169.829 92.4547,158.529 77.7547,158.529 C75.1547,158.529 75.1547,158.529 74.8547,156.729 L72.3547,142.229 "
     id="path3775" />
  <path
     class=""
     stroke="#000000"
     stroke-width="2.5"
     stroke-linecap="round"
     stroke-linejoin="round"
     fill-rule="evenodd"
     d="M 1370.6538,136.9297 C 1410.4038,91.6147 1496.0738,85.3647 1541.9938,124.4297 C 1496.5138,91.3487 1410.8438,97.5987 1370.6538,136.9297"
     id="path4263" />
  <path
     class=""
     stroke="#000000"
     stroke-width="2.5"
     stroke-linecap="round"
     stroke-linejoin="round"
     fill-rule="evenodd"
     d="M 978.29379,111.9297 C 1037.5738,57.7838 1215.4138,57.7838 1274.6938,111.9297 C 1215.4138,63.7837 1037.5738,63.7837 978.29379,111.9297"
     id="path4265" />
  <path
     class=""
     stroke="#000000"
     stroke-width="2.5"
     stroke-linecap="round"
     stroke-linejoin="round"
     fill-rule="evenodd"
     d="M 497.9268,169.4297 C 508.5078,183.4847 534.8538,189.7347 550.6198,181.9297 C 533.4688,195.5727 507.1228,189.3227 497.9268,169.4297"
     id="path4267" />
  <polyline
     class=""
     stroke="#000000"
     stroke-width="4"
     stroke-linejoin="bevel"
     points="1333.03,145.14 1333.03,248.39"
     id="polyline4269"
     transform="translate(-5.8262,-37.3353)" />
  <polyline
     class=""
     stroke="#000000"
     stroke-width="4"
     stroke-linejoin="bevel"
     points="1036.21,145.14 1036.21,248.39"
     id="polyline4271"
     transform="translate(-5.8262,-37.3353)" />
  <polyline
     class=""
     stroke="#000000"
     stroke-width="4"
     stroke-linejoin="bevel"
     points="810.857,145.14 810.857,248.39"
     id="polyline4273"
     transform="translate(-5.8262,-37.3353)" />
  <polyline
     class=""
     stroke="#000000"
     stroke-width="3"
     stroke-linejoin="bevel"
     points="533.888,143.015 501.648,163.015"
     id="polyline4315"
     transform="translate(-5.8262,-37.3353)" />
  <path
     class=""
     d="M 1437.8838,180.3297 C 1437.9838,180.3297 1438.1838,180.2297 1438.2838,180.2297 C 1438.2838,180.2297 1439.6838,179.6297 1440.5838,179.3297 C 1440.6838,179.2297 1440.7838,179.2297 1440.8838,179.2297 C 1441.5838,179.2297 1442.0838,180.3297 1442.0838,180.8297 V 193.1297 C 1442.0838,193.7297 1442.6838,194.2297 1443.3838,194.2297 C 1444.3838,194.2297 1445.0838,193.7297 1445.0838,193.1297 V 179.2297 C 1445.0838,177.9297 1445.5838,177.2297 1446.0838,177.0297 L 1452.1838,174.5297 C 1452.2838,174.5297 1452.4838,174.4297 1452.5838,174.4297 C 1453.3838,174.4297 1453.8838,175.6297 1453.8838,176.2297 V 188.7297 C 1453.8838,189.3297 1454.4838,189.8297 1455.1838,189.8297 C 1456.2838,189.8297 1456.8838,189.3297 1456.8838,188.7297 V 174.5297 C 1456.8838,173.7297 1457.2838,172.5297 1457.9838,172.2297 C 1458.6838,171.9297 1460.7838,171.1297 1460.7838,171.1297 C 1461.4838,170.8297 1461.9838,170.0297 1461.9838,169.4297 V 162.3297 C 1461.9838,161.8297 1461.6838,161.5297 1461.2838,161.5297 C 1461.0838,161.5297 1460.9838,161.5297 1460.7838,161.6297 L 1458.1838,162.6297 C 1457.5838,162.6297 1456.8838,162.0297 1456.8838,160.8297 V 151.5297 C 1456.8838,150.8297 1457.3838,148.9297 1458.1838,148.6297 L 1460.7838,147.6297 C 1461.4838,147.3297 1461.9838,146.5297 1461.9838,145.9297 V 138.8297 C 1461.9838,138.3297 1461.6838,138.0297 1461.2838,138.0297 C 1461.0838,138.0297 1460.9838,138.0297 1460.7838,138.1297 C 1460.7838,138.1297 1458.7838,138.9297 1458.2838,139.0297 C 1457.5838,139.0297 1456.8838,138.5297 1456.8838,137.7297 V 125.5297 C 1456.8838,124.9297 1456.2838,124.4297 1455.4838,124.4297 C 1454.4838,124.4297 1453.8838,124.9297 1453.8838,125.5297 V 138.5297 C 1453.7838,139.5297 1453.4838,140.8297 1452.5838,141.4297 C 1451.3838,142.1297 1447.9838,143.5297 1446.2838,143.9297 C 1445.3838,143.9297 1445.0838,142.7297 1445.0838,141.9297 V 129.9297 C 1445.0838,129.3297 1444.3838,128.8297 1443.6838,128.8297 C 1442.6838,128.8297 1442.0838,129.3297 1442.0838,129.9297 V 143.4297 C 1442.0838,144.8297 1441.4838,145.8297 1440.8838,146.1297 C 1440.2838,146.4297 1438.2838,147.2297 1438.2838,147.2297 C 1437.5838,147.4297 1437.0838,148.2297 1437.0838,148.8297 V 155.9297 C 1437.0838,156.5297 1437.3838,156.8297 1437.8838,156.8297 C 1438.2838,156.8297 1440.1838,155.9297 1440.4838,155.7297 C 1441.4838,155.7297 1442.0838,156.2297 1442.0838,157.4297 V 167.3297 C 1442.0838,168.4297 1441.5838,169.3297 1440.9838,169.6297 C 1440.3838,169.8297 1438.2838,170.7297 1438.2838,170.7297 C 1437.5838,170.9297 1437.0838,171.7297 1437.0838,172.3297 V 179.4297 C 1437.0838,180.0297 1437.3838,180.3297 1437.8838,180.3297 M 1445.0838,155.0297 C 1445.2838,153.3297 1449.8838,151.2297 1452.3838,151.2297 C 1453.0838,151.2297 1453.6838,151.4297 1453.8838,151.8297 C 1454.0838,152.3297 1454.2838,154.8297 1454.2838,157.5297 C 1454.2838,160.2297 1454.0838,163.0297 1453.8838,163.9297 C 1453.2838,165.9297 1448.5838,167.9297 1446.2838,167.9297 C 1445.6838,167.9297 1445.1838,167.7297 1445.0838,167.4297 C 1444.8838,167.0297 1444.7838,164.8297 1444.7838,162.4297 C 1444.7838,159.3297 1444.8838,155.8297 1445.0838,155.0297"
     id="path4317" />
  <polyline
     class=""
     stroke="#000000"
     stroke-width="3"
     stroke-linecap="round"
     stroke-linejoin="bevel"
     points="1474.8,200.125 1474.8,284.265"
     id="polyline4319"
     transform="translate(-5.8262,-37.3353)" />
  <polyline
     class=""
     stroke="#000000"
     stroke-width="3"
     stroke-linecap="round"
     stroke-linejoin="bevel"
     points="1532.87,187.625 1532.87,271.765"
     id="polyline4321"
     transform="translate(-5.8262,-37.3353)" />
  <polyline
     class=""
     stroke="#000000"
     stroke-width="3"
     stroke-linecap="round"
     stroke-linejoin="bevel"
     points="1361.53,200.125 1361.53,274.89"
     id="polyline4323"
     transform="translate(-5.8262,-37.3353)" />
  <polyline
     class=""
     stroke="#000000"
     stroke-width="3"
     stroke-linecap="round"
     stroke-linejoin="bevel"
     points="1198.62,162.625 1198.62,246.765"
     id="polyline4325"
     transform="translate(-5.8262,-37.3353)" />
  <polyline
     class=""
     stroke="#000000"
     stroke-width="3"
     stroke-linecap="round"
     stroke-linejoin="bevel"
     points="1265.57,175.125 1265.57,256.14"
     id="polyline4327"
     transform="translate(-5.8262,-37.3353)" />
  <polyline
     class=""
     stroke="#000000"
     stroke-width="3"
     stroke-linecap="round"
     stroke-linejoin="bevel"
     points="1131.66,200.125 1131.66,274.89"
     id="polyline4329"
     transform="translate(-5.8262,-37.3353)" />
  <polyline
     class=""
     stroke="#000000"
     stroke-width="3"
     stroke-linecap="round"
     stroke-linejoin="bevel"
     points="1064.71,187.625 1064.71,265.515"
     id="polyline4331"
     transform="translate(-5.8262,-37.3353)" />
  <polyline
     class=""
     stroke="#000000"
     stroke-width="3"
     stroke-linecap="round"
     stroke-linejoin="bevel"
     points="969.171,175.125 969.171,256.14"
     id="polyline4333"
     transform="translate(-5.8262,-37.3353)" />
  <polyline
     class=""
     stroke="#000000"
     stroke-width="3"
     stroke-linecap="round"
     stroke-linejoin="bevel"
     points="839.357,175.125 839.357,256.14"
     id="polyline4335"
     transform="translate(-5.8262,-37.3353)" />
  <polyline
     class=""
     stroke="#000000"
     stroke-width="3"
     stroke-linecap="round"
     stroke-linejoin="bevel"
     points="752.458,187.625 752.458,265.515"
     id="polyline4337"
     transform="translate(-5.8262,-37.3353)" />
  <polyline
     class=""
     stroke="#000000"
     stroke-width="3"
     stroke-linecap="round"
     stroke-linejoin="bevel"
     points="655.358,205.905 655.358,128.015"
     id="polyline4339"
     transform="translate(-5.8262,-37.3353)" />
  <polyline
     class=""
     stroke="#000000"
     stroke-width="3"
     stroke-linecap="round"
     stroke-linejoin="bevel"
     points="668.495,200.125 668.495,271.765"
     id="polyline4341"
     transform="translate(-5.8262,-37.3353)" />
  <polyline
     class=""
     stroke="#000000"
     stroke-width="3"
     stroke-linecap="round"
     stroke-linejoin="bevel"
     points="571.395,193.405 571.395,121.765"
     id="polyline4343"
     transform="translate(-5.8262,-37.3353)" />
  <polyline
     class=""
     stroke="#000000"
     stroke-width="3"
     stroke-linecap="round"
     stroke-linejoin="bevel"
     points="450.215,200.125 450.215,271.765"
     id="polyline4345"
     transform="translate(-5.8262,-37.3353)" />
  <polyline
     class=""
     stroke="#000000"
     stroke-width="2.1"
     stroke-linecap="round"
     stroke-linejoin="bevel"
     points="514.218,181.913 514.218,123.015"
     id="polyline4347"
     transform="translate(-5.8262,-37.3353)" />
  <polyline
     class=""
     stroke="#000000"
     stroke-width="3"
     stroke-linecap="round"
     stroke-linejoin="bevel"
     points="366.253,200.125 366.253,271.765"
     id="polyline4349"
     transform="translate(-5.8262,-37.3353)" />
  <polyline
     class=""
     stroke="#000000"
     stroke-width="3"
     stroke-linecap="round"
     stroke-linejoin="bevel"
     points="271.573,200.125 271.573,274.89"
     id="polyline4351"
     transform="translate(-5.8262,-37.3353)" />
  <path
     class=""
     d="M 1478.2738,173.4297 C 1488.1738,173.4297 1500.3738,164.2297 1500.3738,154.7297 C 1500.3738,149.1297 1495.8738,145.4297 1489.4738,145.4297 C 1477.2738,145.4297 1467.4738,154.5297 1467.4738,164.1297 C 1467.4738,169.9297 1472.2738,173.4297 1478.2738,173.4297"
     id="path4353" />
  <path
     class=""
     d="M 1536.3438,160.9297 C 1546.2438,160.9297 1558.4438,151.7297 1558.4438,142.2297 C 1558.4438,136.6297 1553.9438,132.9297 1547.5438,132.9297 C 1535.3438,132.9297 1525.5438,142.0297 1525.5438,151.6297 C 1525.5438,157.4297 1530.3438,160.9297 1536.3438,160.9297"
     id="path4355" />
  <path
     class=""
     d="M 1365.0038,173.4297 C 1374.9038,173.4297 1387.1038,164.2297 1387.1038,154.7297 C 1387.1038,149.1297 1382.6038,145.4297 1376.2038,145.4297 C 1364.0038,145.4297 1354.2038,154.5297 1354.2038,164.1297 C 1354.2038,169.9297 1359.0038,173.4297 1365.0038,173.4297"
     id="path4357" />
  <path
     class=""
     d="M 1202.0938,135.9297 C 1211.9938,135.9297 1224.1938,126.7297 1224.1938,117.2297 C 1224.1938,111.6297 1219.6938,107.9297 1213.2938,107.9297 C 1201.0938,107.9297 1191.2938,117.0297 1191.2938,126.6297 C 1191.2938,132.4297 1196.0938,135.9297 1202.0938,135.9297"
     id="path4359" />
  <path
     class=""
     d="M 1269.0438,148.4297 C 1278.9438,148.4297 1291.1438,139.2297 1291.1438,129.7297 C 1291.1438,124.1297 1286.6438,120.4297 1280.2438,120.4297 C 1268.0438,120.4297 1258.2438,129.5297 1258.2438,139.1297 C 1258.2438,144.9297 1263.0438,148.4297 1269.0438,148.4297"
     id="path4361" />
  <path
     class=""
     d="M 1135.1338,173.4297 C 1145.0338,173.4297 1157.2338,164.2297 1157.2338,154.7297 C 1157.2338,149.1297 1152.7338,145.4297 1146.3338,145.4297 C 1134.1338,145.4297 1124.3338,154.5297 1124.3338,164.1297 C 1124.3338,169.9297 1129.1338,173.4297 1135.1338,173.4297"
     id="path4363" />
  <path
     class=""
     d="M 1068.1838,160.9297 C 1078.0838,160.9297 1090.2838,151.7297 1090.2838,142.2297 C 1090.2838,136.6297 1085.7838,132.9297 1079.3838,132.9297 C 1067.1838,132.9297 1057.3838,142.0297 1057.3838,151.6297 C 1057.3838,157.4297 1062.1838,160.9297 1068.1838,160.9297"
     id="path4365" />
  <path
     class=""
     d="M 972.64479,148.4297 C 982.54479,148.4297 994.74379,139.2297 994.74379,129.7297 C 994.74379,124.1297 990.24479,120.4297 983.84479,120.4297 C 971.64479,120.4297 961.84479,129.5297 961.84479,139.1297 C 961.84479,144.9297 966.64479,148.4297 972.64479,148.4297"
     id="path4367" />
  <path
     class=""
     d="M 842.83079,148.4297 C 861.23079,148.4297 864.93079,133.4297 864.93079,129.8297 C 864.93079,124.1297 860.43079,120.4297 853.93079,120.4297 C 837.23079,120.4297 832.03079,133.3297 832.03079,139.1297 C 832.03079,145.0297 836.73079,148.4297 842.83079,148.4297 M 851.33079,139.5297 C 846.33079,142.9297 842.83079,144.1297 840.43079,144.1297 C 838.13079,144.1297 836.73079,142.9297 836.03079,141.5297 C 835.63079,140.9297 835.33079,140.1297 835.33079,139.3297 C 835.33079,133.9297 851.43079,125.0297 856.73079,125.0297 C 858.83079,125.0297 860.03079,126.0297 860.83079,127.4297 C 861.13079,128.0297 861.43079,128.7297 861.43079,129.5297 C 861.43079,131.7297 859.13079,134.4297 851.33079,139.5297"
     id="path4369" />
  <path
     class=""
     d="M 755.93179,160.9297 C 765.83179,160.9297 778.03179,151.7297 778.03179,142.2297 C 778.03179,136.6297 773.53179,132.9297 767.13179,132.9297 C 754.93179,132.9297 745.13179,142.0297 745.13179,151.6297 C 745.13179,157.4297 749.93179,160.9297 755.93179,160.9297"
     id="path4371" />
  <path
     class=""
     d="M 628.93279,185.9297 C 638.83279,185.9297 651.03279,176.7297 651.03279,167.2297 C 651.03279,161.6297 646.53279,157.9297 640.13279,157.9297 C 627.93279,157.9297 618.13279,167.0297 618.13279,176.6297 C 618.13279,182.4297 622.93279,185.9297 628.93279,185.9297"
     id="path4373" />
  <path
     class=""
     d="M 671.96879,173.4297 C 681.86879,173.4297 694.06879,164.2297 694.06879,154.7297 C 694.06879,149.1297 689.56879,145.4297 683.16879,145.4297 C 670.96879,145.4297 661.16879,154.5297 661.16879,164.1297 C 661.16879,169.9297 665.96879,173.4297 671.96879,173.4297"
     id="path4375" />
  <path
     class=""
     d="M 544.9708,173.4297 C 554.8708,173.4297 567.0708,164.2297 567.0708,154.7297 C 567.0708,149.1297 562.5708,145.4297 556.1708,145.4297 C 543.9708,145.4297 534.1708,154.5297 534.1708,164.1297 C 534.1708,169.9297 538.9708,173.4297 544.9708,173.4297"
     id="path4377" />
  <path
     class=""
     d="M 453.6888,173.4297 C 463.5888,173.4297 475.7888,164.2297 475.7888,154.7297 C 475.7888,149.1297 471.2888,145.4297 464.8888,145.4297 C 452.6888,145.4297 442.8888,154.5297 442.8888,164.1297 C 442.8888,169.9297 447.6888,173.4297 453.6888,173.4297"
     id="path4379" />
  <path
     class=""
     d="M 493.9728,156.7297 C 500.9028,156.7297 509.4428,150.2897 509.4428,143.6397 C 509.4428,139.7197 506.2928,137.1297 501.8128,137.1297 C 493.2728,137.1297 486.4128,143.4997 486.4128,150.2197 C 486.4128,154.2797 489.7728,156.7297 493.9728,156.7297"
     id="path4381"
     style="stroke-width:0.7" />
  <path
     class=""
     d="M 369.7268,173.4297 C 379.6268,173.4297 391.8268,164.2297 391.8268,154.7297 C 391.8268,149.1297 387.3268,145.4297 380.9268,145.4297 C 368.7268,145.4297 358.9268,154.5297 358.9268,164.1297 C 358.9268,169.9297 363.7268,173.4297 369.7268,173.4297"
     id="path4383" />
  <path
     class=""
     d="M 275.0468,173.4297 C 284.9468,173.4297 297.1468,164.2297 297.1468,154.7297 C 297.1468,149.1297 292.6468,145.4297 286.2468,145.4297 C 274.0468,145.4297 264.2468,154.5297 264.2468,164.1297 C 264.2468,169.9297 269.0468,173.4297 275.0468,173.4297"
     id="path4385" />
  <path
     class=""
     d="M 177.6488,117.8297 C 177.7488,117.8297 177.9488,117.7297 178.0488,117.7297 C 178.0488,117.7297 179.4488,117.1297 180.3488,116.8297 C 180.4488,116.7297 180.5488,116.7297 180.6488,116.7297 C 181.3488,116.7297 181.8488,117.8297 181.8488,118.3297 V 130.6297 C 181.8488,131.2297 182.4488,131.7297 183.1488,131.7297 C 184.1488,131.7297 184.8488,131.2297 184.8488,130.6297 V 116.7297 C 184.8488,115.4297 185.3488,114.7297 185.8488,114.5297 L 191.9488,112.0297 C 192.0488,112.0297 192.2488,111.9297 192.3488,111.9297 C 193.1488,111.9297 193.6488,113.1297 193.6488,113.7297 V 126.2297 C 193.6488,126.8297 194.2488,127.3297 194.9488,127.3297 C 196.0488,127.3297 196.6488,126.8297 196.6488,126.2297 V 112.0297 C 196.6488,111.2297 197.0488,110.0297 197.7488,109.7297 C 198.4488,109.4297 200.5488,108.6297 200.5488,108.6297 C 201.2488,108.3297 201.7488,107.5297 201.7488,106.9297 V 99.8297 C 201.7488,99.3297 201.4488,99.0297 201.0488,99.0297 C 200.8488,99.0297 200.7488,99.0297 200.5488,99.1297 L 197.9488,100.1297 C 197.3488,100.1297 196.6488,99.5297 196.6488,98.3297 V 89.0297 C 196.6488,88.3297 197.1488,86.4297 197.9488,86.1297 L 200.5488,85.1297 C 201.2488,84.8297 201.7488,84.0297 201.7488,83.4297 V 76.3297 C 201.7488,75.8297 201.4488,75.5297 201.0488,75.5297 C 200.8488,75.5297 200.7488,75.5297 200.5488,75.6297 C 200.5488,75.6297 198.5488,76.4297 198.0488,76.5297 C 197.3488,76.5297 196.6488,76.0297 196.6488,75.2297 V 63.0297 C 196.6488,62.4293 196.0488,61.9293 195.2488,61.9293 C 194.2488,61.9293 193.6488,62.4293 193.6488,63.0297 V 76.0297 C 193.5488,77.0297 193.2488,78.3297 192.3488,78.9297 C 191.1488,79.6297 187.7488,81.0297 186.0488,81.4297 C 185.1488,81.4297 184.8488,80.2297 184.8488,79.4297 V 67.4297 C 184.8488,66.8297 184.1488,66.3297 183.4488,66.3297 C 182.4488,66.3297 181.8488,66.8297 181.8488,67.4297 V 80.9297 C 181.8488,82.3297 181.2488,83.3297 180.6488,83.6297 C 180.0488,83.9297 178.0488,84.7297 178.0488,84.7297 C 177.3488,84.9297 176.8488,85.7297 176.8488,86.3297 V 93.4297 C 176.8488,94.0297 177.1488,94.3297 177.6488,94.3297 C 178.0488,94.3297 179.9488,93.4297 180.2488,93.2297 C 181.2488,93.2297 181.8488,93.7297 181.8488,94.9297 V 104.8297 C 181.8488,105.9297 181.3488,106.8297 180.7488,107.1297 C 180.1488,107.3297 178.0488,108.2297 178.0488,108.2297 C 177.3488,108.4297 176.8488,109.2297 176.8488,109.8297 V 116.9297 C 176.8488,117.5297 177.1488,117.8297 177.6488,117.8297 M 184.8488,92.5297 C 185.0488,90.8297 189.6488,88.7297 192.1488,88.7297 C 192.8488,88.7297 193.4488,88.9297 193.6488,89.3297 C 193.8488,89.8297 194.0488,92.3297 194.0488,95.0297 C 194.0488,97.7297 193.8488,100.5297 193.6488,101.4297 C 193.0488,103.4297 188.3488,105.4297 186.0488,105.4297 C 185.4488,105.4297 184.9488,105.2297 184.8488,104.9297 C 184.6488,104.5297 184.5488,102.3297 184.5488,99.9297 C 184.5488,96.8297 184.6488,93.3297 184.8488,92.5297"
     id="path4389" />
  <path
     class=""
     d="M 152.6488,167.8297 C 152.7488,167.8297 152.9488,167.7297 153.0488,167.7297 C 153.0488,167.7297 154.4488,167.1297 155.3488,166.8297 C 155.4488,166.7297 155.5488,166.7297 155.6488,166.7297 C 156.3488,166.7297 156.8488,167.8297 156.8488,168.3297 V 180.6297 C 156.8488,181.2297 157.4488,181.7297 158.1488,181.7297 C 159.1488,181.7297 159.8488,181.2297 159.8488,180.6297 V 166.7297 C 159.8488,165.4297 160.3488,164.7297 160.8488,164.5297 L 166.9488,162.0297 C 167.0488,162.0297 167.2488,161.9297 167.3488,161.9297 C 168.1488,161.9297 168.6488,163.1297 168.6488,163.7297 V 176.2297 C 168.6488,176.8297 169.2488,177.3297 169.9488,177.3297 C 171.0488,177.3297 171.6488,176.8297 171.6488,176.2297 V 162.0297 C 171.6488,161.2297 172.0488,160.0297 172.7488,159.7297 C 173.4488,159.4297 175.5488,158.6297 175.5488,158.6297 C 176.2488,158.3297 176.7488,157.5297 176.7488,156.9297 V 149.8297 C 176.7488,149.3297 176.4488,149.0297 176.0488,149.0297 C 175.8488,149.0297 175.7488,149.0297 175.5488,149.1297 L 172.9488,150.1297 C 172.3488,150.1297 171.6488,149.5297 171.6488,148.3297 V 139.0297 C 171.6488,138.3297 172.1488,136.4297 172.9488,136.1297 L 175.5488,135.1297 C 176.2488,134.8297 176.7488,134.0297 176.7488,133.4297 V 126.3297 C 176.7488,125.8297 176.4488,125.5297 176.0488,125.5297 C 175.8488,125.5297 175.7488,125.5297 175.5488,125.6297 C 175.5488,125.6297 173.5488,126.4297 173.0488,126.5297 C 172.3488,126.5297 171.6488,126.0297 171.6488,125.2297 V 113.0297 C 171.6488,112.4297 171.0488,111.9297 170.2488,111.9297 C 169.2488,111.9297 168.6488,112.4297 168.6488,113.0297 V 126.0297 C 168.5488,127.0297 168.2488,128.3297 167.3488,128.9297 C 166.1488,129.6297 162.7488,131.0297 161.0488,131.4297 C 160.1488,131.4297 159.8488,130.2297 159.8488,129.4297 V 117.4297 C 159.8488,116.8297 159.1488,116.3297 158.4488,116.3297 C 157.4488,116.3297 156.8488,116.8297 156.8488,117.4297 V 130.9297 C 156.8488,132.3297 156.2488,133.3297 155.6488,133.6297 C 155.0488,133.9297 153.0488,134.7297 153.0488,134.7297 C 152.3488,134.9297 151.8488,135.7297 151.8488,136.3297 V 143.4297 C 151.8488,144.0297 152.1488,144.3297 152.6488,144.3297 C 153.0488,144.3297 154.9488,143.4297 155.2488,143.2297 C 156.2488,143.2297 156.8488,143.7297 156.8488,144.9297 V 154.8297 C 156.8488,155.9297 156.3488,156.8297 155.7488,157.1297 C 155.1488,157.3297 153.0488,158.2297 153.0488,158.2297 C 152.3488,158.4297 151.8488,159.2297 151.8488,159.8297 V 166.9297 C 151.8488,167.5297 152.1488,167.8297 152.6488,167.8297 M 159.8488,142.5297 C 160.0488,140.8297 164.6488,138.7297 167.1488,138.7297 C 167.8488,138.7297 168.4488,138.9297 168.6488,139.3297 C 168.8488,139.8297 169.0488,142.3297 169.0488,145.0297 C 169.0488,147.7297 168.8488,150.5297 168.6488,151.4297 C 168.0488,153.4297 163.3488,155.4297 161.0488,155.4297 C 160.4488,155.4297 159.9488,155.2297 159.8488,154.9297 C 159.6488,154.5297 159.5488,152.3297 159.5488,149.9297 C 159.5488,146.8297 159.6488,143.3297 159.8488,142.5297"
     id="path4391" />
  <path
     class=""
     d="M 127.6488,130.3297 C 127.7488,130.3297 127.9488,130.2297 128.0488,130.2297 C 128.0488,130.2297 129.4488,129.6297 130.3488,129.3297 C 130.4488,129.2297 130.5488,129.2297 130.6488,129.2297 C 131.3488,129.2297 131.8488,130.3297 131.8488,130.8297 V 143.1297 C 131.8488,143.7297 132.4488,144.2297 133.1488,144.2297 C 134.1488,144.2297 134.8488,143.7297 134.8488,143.1297 V 129.2297 C 134.8488,127.9297 135.3488,127.2297 135.8488,127.0297 L 141.9488,124.5297 C 142.0488,124.5297 142.2488,124.4297 142.3488,124.4297 C 143.1488,124.4297 143.6488,125.6297 143.6488,126.2297 V 138.7297 C 143.6488,139.3297 144.2488,139.8297 144.9488,139.8297 C 146.0488,139.8297 146.6488,139.3297 146.6488,138.7297 V 124.5297 C 146.6488,123.7297 147.0488,122.5297 147.7488,122.2297 C 148.4488,121.9297 150.5488,121.1297 150.5488,121.1297 C 151.2488,120.8297 151.7488,120.0297 151.7488,119.4297 V 112.3297 C 151.7488,111.8297 151.4488,111.5297 151.0488,111.5297 C 150.8488,111.5297 150.7488,111.5297 150.5488,111.6297 L 147.9488,112.6297 C 147.3488,112.6297 146.6488,112.0297 146.6488,110.8297 V 101.5297 C 146.6488,100.8297 147.1488,98.9297 147.9488,98.6297 L 150.5488,97.6297 C 151.2488,97.3297 151.7488,96.5297 151.7488,95.9297 V 88.8297 C 151.7488,88.3297 151.4488,88.0297 151.0488,88.0297 C 150.8488,88.0297 150.7488,88.0297 150.5488,88.1297 C 150.5488,88.1297 148.5488,88.9297 148.0488,89.0297 C 147.3488,89.0297 146.6488,88.5297 146.6488,87.7297 V 75.5297 C 146.6488,74.9297 146.0488,74.4297 145.2488,74.4297 C 144.2488,74.4297 143.6488,74.9297 143.6488,75.5297 V 88.5297 C 143.5488,89.5297 143.2488,90.8297 142.3488,91.4297 C 141.1488,92.1297 137.7488,93.5297 136.0488,93.9297 C 135.1488,93.9297 134.8488,92.7297 134.8488,91.9297 V 79.9297 C 134.8488,79.3297 134.1488,78.8297 133.4488,78.8297 C 132.4488,78.8297 131.8488,79.3297 131.8488,79.9297 V 93.4297 C 131.8488,94.8297 131.2488,95.8297 130.6488,96.1297 C 130.0488,96.4297 128.0488,97.2297 128.0488,97.2297 C 127.3488,97.4297 126.8488,98.2297 126.8488,98.8297 V 105.9297 C 126.8488,106.5297 127.1488,106.8297 127.6488,106.8297 C 128.0488,106.8297 129.9488,105.9297 130.2488,105.7297 C 131.2488,105.7297 131.8488,106.2297 131.8488,107.4297 V 117.3297 C 131.8488,118.4297 131.3488,119.3297 130.7488,119.6297 C 130.1488,119.8297 128.0488,120.7297 128.0488,120.7297 C 127.3488,120.9297 126.8488,121.7297 126.8488,122.3297 V 129.4297 C 126.8488,130.0297 127.1488,130.3297 127.6488,130.3297 M 134.8488,105.0297 C 135.0488,103.3297 139.6488,101.2297 142.1488,101.2297 C 142.8488,101.2297 143.4488,101.4297 143.6488,101.8297 C 143.8488,102.3297 144.0488,104.8297 144.0488,107.5297 C 144.0488,110.2297 143.8488,113.0297 143.6488,113.9297 C 143.0488,115.9297 138.3488,117.9297 136.0488,117.9297 C 135.4488,117.9297 134.9488,117.7297 134.8488,117.4297 C 134.6488,117.0297 134.5488,114.8297 134.5488,112.4297 C 134.5488,109.3297 134.6488,105.8297 134.8488,105.0297"
     id="path4393" />
  <path
     class=""
     d="M 1542.0538,66.0047 C 1539.4538,66.0047 1537.2538,66.9047 1537.1538,68.2047 C 1537.1538,69.7047 1539.7538,95.5047 1542.0538,95.5047 C 1544.5538,95.5047 1547.0538,70.6047 1547.0538,68.3047 C 1547.0538,66.8047 1544.7538,66.0047 1542.0538,66.0047"
     id="path4395" />
  <path
     class=""
     fill-rule="evenodd"
     d="M 661.16879,228.1617 L 748.13179,221.6887 V 234.2237 L 661.16879,240.6967 V 228.1617"
     id="path4397" />
  <path
     class=""
     fill-rule="evenodd"
     d="M 748.13179,206.0637 L 715.13179,208.5197 V 221.0547 L 748.13179,218.5987 V 206.0637"
     id="path4399" />
  <path
     class=""
     fill-rule="evenodd"
     d="M 564.0688,77.9387 L 651.03179,84.4117 V 96.9467 L 564.0688,90.4737 V 77.9387"
     id="path4401" />
  <path
     class=""
     fill-rule="evenodd"
     d="M 651.03179,100.0367 L 618.03179,97.5807 V 110.1147 L 651.03179,112.5717 V 100.0367"
     id="path4403" />
  <path
     class=""
     fill-rule="evenodd"
     d="M 358.9268,228.1797 H 445.8888 V 240.6797 H 358.9268 V 228.1797"
     id="path4405" />
  <path
     class=""
     fill-rule="evenodd"
     d="M 445.8888,212.5547 H 412.8888 V 225.0547 H 445.8888 V 212.5547"
     id="path4407" />
  <path
     class=""
     d="M 1491.4738,169.4297 C 1492.8738,173.6297 1493.5738,178.6297 1493.5738,183.1297 C 1493.5738,189.0297 1491.0738,197.4297 1489.5738,200.8297 C 1485.8738,209.2297 1480.8738,217.3297 1467.4738,221.8297 V 245.32975 C 1467.4738,246.52975 1467.9738,246.82975 1468.5738,246.82975 C 1470.4738,246.82975 1471.2738,246.22975 1471.4738,244.62975 C 1473.1738,235.1297 1480.5738,226.4297 1485.6738,218.5297 C 1491.9738,208.6297 1498.0738,196.7297 1498.0738,184.2297 C 1498.0738,176.4297 1496.0738,169.3297 1495.2738,166.1297 C 1494.9738,165.0297 1494.3738,164.6297 1493.6738,164.6297 C 1492.1738,164.6297 1490.4738,166.5297 1491.4738,169.4297"
     id="path4409" />
  <path
     class=""
     d="M 1549.5438,156.9297 C 1550.9438,161.1297 1551.6438,166.1297 1551.6438,170.6297 C 1551.6438,176.5297 1549.1438,184.9297 1547.6438,188.3297 C 1543.9438,196.7297 1538.9438,204.8297 1525.5438,209.3297 V 232.8297 C 1525.5438,234.0297 1526.0438,234.3297 1526.6438,234.3297 C 1528.5438,234.3297 1529.3438,233.7297 1529.5438,232.1297 C 1531.2438,222.6297 1538.6438,213.9297 1543.7438,206.0297 C 1550.0438,196.1297 1556.1438,184.2297 1556.1438,171.7297 C 1556.1438,163.9297 1554.1438,156.8297 1553.3438,153.6297 C 1553.0438,152.5297 1552.4438,152.1297 1551.7438,152.1297 C 1550.2438,152.1297 1548.5438,154.0297 1549.5438,156.9297"
     id="path4411" />
  <path
     class=""
     d="M 524.0018,141.6077 C 524.0018,141.6077 525.8218,134.9577 525.8218,129.4977 C 525.8218,120.7477 522.1818,112.4877 517.7718,105.4877 C 514.2018,99.9577 511.2618,93.9377 510.1418,87.2177 C 509.9318,86.0977 509.3718,85.6777 508.0418,85.6777 C 507.6218,85.6777 507.3418,85.8877 507.3418,86.7277 V 103.4577 C 511.9618,104.2977 518.6118,113.8177 521.1318,119.7677 C 522.1818,122.1477 522.8118,126.1377 522.8118,130.2677 C 522.8118,133.4177 522.3218,136.7077 521.1318,139.8577 C 520.9918,140.2777 520.9218,140.6277 520.9218,140.9077 C 520.9218,142.0277 521.6218,142.6577 522.0418,142.9377 C 522.1118,143.0077 522.2518,143.0077 522.3918,143.0077 C 522.8818,143.0077 523.7218,142.5877 524.0018,141.6077"
     id="path4413"
     style="stroke-width:0.7" />
  <path
     class=""
     d="M 1405.8538,146.9297 C 1405.8538,144.1297 1403.6538,141.9297 1400.8538,141.9297 C 1398.0538,141.9297 1395.8538,144.1297 1395.8538,146.9297 C 1395.8538,149.7297 1398.0538,151.9297 1400.8538,151.9297 C 1403.6538,151.9297 1405.8538,149.7297 1405.8538,146.9297"
     id="path4415" />
  <path
     class=""
     d="M 883.67879,121.9297 C 883.67879,119.1297 881.47879,116.9297 878.67879,116.9297 C 875.87879,116.9297 873.67879,119.1297 873.67879,121.9297 C 873.67879,124.7297 875.87879,126.9297 878.67879,126.9297 C 881.47879,126.9297 883.67879,124.7297 883.67879,121.9297"
     id="path4417" />
  <path
     class=""
     d="M 712.81779,146.9297 C 712.81779,144.1297 710.61779,141.9297 707.81779,141.9297 C 705.01779,141.9297 702.81779,144.1297 702.81779,146.9297 C 702.81779,149.7297 705.01779,151.9297 707.81779,151.9297 C 710.61779,151.9297 712.81779,149.7297 712.81779,146.9297"
     id="path4419" />
  <path
     class=""
     d="M 585.81879,146.9297 C 585.81879,144.1297 583.61879,141.9297 580.81879,141.9297 C 578.01879,141.9297 575.81879,144.1297 575.81879,146.9297 C 575.81879,149.7297 578.01879,151.9297 580.81879,151.9297 C 583.61879,151.9297 585.81879,149.7297 585.81879,146.9297"
     id="path4421" />
  <path
     class=""
     d="M 410.5748,146.9297 C 410.5748,144.1297 408.3748,141.9297 405.5748,141.9297 C 402.7748,141.9297 400.5748,144.1297 400.5748,146.9297 C 400.5748,149.7297 402.7748,151.9297 405.5748,151.9297 C 408.3748,151.9297 410.5748,149.7297 410.5748,146.9297"
     id="path4423" />
  <metadata
     id="metadata5236">
    <rdf:RDF>
      <cc:Work
         rdf:about="">
        <dc:title>Unbenannt</dc:title>
      </cc:Work>
    </rdf:RDF>
  </metadata>
</svg>
