<?xml version="1.0" encoding="UTF-8" standalone="no"?>
<svg
   width="1614px"
   height="359px"
   viewBox="0 0 1614 359"
   version="1.2"
   id="svg3807"
   sodipodi:docname="Hummel_Klavierkonzert_Op._85_A-Kl._notiert.svg"
   inkscape:version="1.1-dev (0486c1a, 2020-10-10)"
   xmlns:inkscape="http://www.inkscape.org/namespaces/inkscape"
   xmlns:sodipodi="http://sodipodi.sourceforge.net/DTD/sodipodi-0.dtd"
   xmlns="http://www.w3.org/2000/svg"
   xmlns:svg="http://www.w3.org/2000/svg">
  <defs
     id="defs3811" />
  <sodipodi:namedview
     pagecolor="#ffffff"
     bordercolor="#666666"
     borderopacity="1"
     objecttolerance="10"
     gridtolerance="10"
     guidetolerance="10"
     inkscape:pageopacity="0"
     inkscape:pageshadow="2"
     inkscape:window-width="1044"
     inkscape:window-height="480"
     id="namedview3809"
     showgrid="false"
     inkscape:zoom="0.22614522"
     inkscape:cx="585.90671"
     inkscape:cy="61.907124"
     inkscape:window-x="133"
     inkscape:window-y="74"
     inkscape:window-maximized="0"
     inkscape:current-layer="svg3807" />
  <title
     id="title3647">Unbenannt</title>
  <desc
     id="desc3649">Generated by MuseScore 3.5.2</desc>
  <circle
     style="fill:#00ff00;fill-opacity:1;stroke:none;stroke-width:1.9;stroke-linecap:round;stroke-linejoin:round"
     id="circle1609"
     cx="1468.3531"
     cy="127.14094"
     r="56.692913" />
  <path
     class=""
     stroke="#000000"
     stroke-width="2.50"
     stroke-linecap="round"
     stroke-linejoin="round"
     fill-rule="evenodd"
     d="M1351.56,111.229 C1394.02,64.6253 1484.91,58.3753 1533.35,98.7293 C1485.32,64.3611 1394.43,70.6111 1351.56,111.229"
     id="path3651" />
  <path
     class=""
     stroke="#000000"
     stroke-width="2.50"
     stroke-linecap="round"
     stroke-linejoin="round"
     fill-rule="evenodd"
     d="M945.62,86.2293 C1007.02,31.3213 1191.22,31.3213 1252.61,86.2293 C1191.22,37.3213 1007.02,37.3213 945.62,86.2293"
     id="path3653" />
  <path
     class=""
     stroke="#000000"
     stroke-width="2.50"
     stroke-linecap="round"
     stroke-linejoin="round"
     fill-rule="evenodd"
     d="M440.933,143.729 C444.155,152.04 461.401,159.54 469.677,156.229 C460.205,162.291 442.959,154.791 440.933,143.729"
     id="path3655" />
  <polyline
     class=""
     stroke="#000000"
     stroke-width="4.00"
     stroke-linejoin="bevel"
     points="1308.11,107.104 1308.11,210.354"
     id="polyline3657" />
  <polyline
     class=""
     stroke="#000000"
     stroke-width="4.00"
     stroke-linejoin="bevel"
     points="999.337,107.104 999.337,210.354"
     id="polyline3659" />
  <polyline
     class=""
     stroke="#000000"
     stroke-width="4.00"
     stroke-linejoin="bevel"
     points="769.18,107.104 769.18,210.354"
     id="polyline3661" />
  <polyline
     class=""
     stroke="#000000"
     stroke-width="3.25"
     stroke-linejoin="bevel"
     points="1310.11,108.729 1742.68,108.729"
     id="polyline3663"
     transform="matrix(0.63011767,0,0,0.95668237,484.58612,6.8757631)" />
  <polyline
     class=""
     stroke="#000000"
     stroke-width="3.25"
     stroke-linejoin="bevel"
     points="1310.11,133.729 1742.68,133.729"
     id="polyline3665"
     transform="matrix(0.63011767,0,0,0.95668237,484.58612,6.8757631)" />
  <polyline
     class=""
     stroke="#000000"
     stroke-width="3.25"
     stroke-linejoin="bevel"
     points="1310.11,158.729 1742.68,158.729"
     id="polyline3667"
     transform="matrix(0.63011767,0,0,0.95668237,484.58612,6.8757631)" />
  <polyline
     class=""
     stroke="#000000"
     stroke-width="3.25"
     stroke-linejoin="bevel"
     points="1310.11,183.729 1742.68,183.729"
     id="polyline3669"
     transform="matrix(0.63011767,0,0,0.95668237,484.58612,6.8757631)" />
  <polyline
     class=""
     stroke="#000000"
     stroke-width="3.25"
     stroke-linejoin="bevel"
     points="1310.11,208.729 1742.68,208.729"
     id="polyline3671"
     transform="matrix(0.63011767,0,0,0.95668237,484.58612,6.8757631)" />
  <polyline
     class=""
     stroke="#000000"
     stroke-width="3.25"
     stroke-linejoin="bevel"
     points="1001.34,108.729 1310.11,108.729"
     id="polyline3673" />
  <polyline
     class=""
     stroke="#000000"
     stroke-width="3.25"
     stroke-linejoin="bevel"
     points="1001.34,133.729 1310.11,133.729"
     id="polyline3675" />
  <polyline
     class=""
     stroke="#000000"
     stroke-width="3.25"
     stroke-linejoin="bevel"
     points="1001.34,158.729 1310.11,158.729"
     id="polyline3677" />
  <polyline
     class=""
     stroke="#000000"
     stroke-width="3.25"
     stroke-linejoin="bevel"
     points="1001.34,183.729 1310.11,183.729"
     id="polyline3679" />
  <polyline
     class=""
     stroke="#000000"
     stroke-width="3.25"
     stroke-linejoin="bevel"
     points="1001.34,208.729 1310.11,208.729"
     id="polyline3681" />
  <polyline
     class=""
     stroke="#000000"
     stroke-width="3.25"
     stroke-linejoin="bevel"
     points="771.18,108.729 1001.34,108.729"
     id="polyline3683" />
  <polyline
     class=""
     stroke="#000000"
     stroke-width="3.25"
     stroke-linejoin="bevel"
     points="771.18,133.729 1001.34,133.729"
     id="polyline3685" />
  <polyline
     class=""
     stroke="#000000"
     stroke-width="3.25"
     stroke-linejoin="bevel"
     points="771.18,158.729 1001.34,158.729"
     id="polyline3687" />
  <polyline
     class=""
     stroke="#000000"
     stroke-width="3.25"
     stroke-linejoin="bevel"
     points="771.18,183.729 1001.34,183.729"
     id="polyline3689" />
  <polyline
     class=""
     stroke="#000000"
     stroke-width="3.25"
     stroke-linejoin="bevel"
     points="771.18,208.729 1001.34,208.729"
     id="polyline3691" />
  <polyline
     class=""
     stroke="#000000"
     stroke-width="3.25"
     stroke-linejoin="bevel"
     points="14.7547,108.729 771.18,108.729"
     id="polyline3693" />
  <polyline
     class=""
     stroke="#000000"
     stroke-width="3.25"
     stroke-linejoin="bevel"
     points="14.7547,133.729 771.18,133.729"
     id="polyline3695" />
  <polyline
     class=""
     stroke="#000000"
     stroke-width="3.25"
     stroke-linejoin="bevel"
     points="14.7547,158.729 771.18,158.729"
     id="polyline3697" />
  <polyline
     class=""
     stroke="#000000"
     stroke-width="3.25"
     stroke-linejoin="bevel"
     points="14.7547,183.729 771.18,183.729"
     id="polyline3699" />
  <polyline
     class=""
     stroke="#000000"
     stroke-width="3.25"
     stroke-linejoin="bevel"
     points="14.7547,208.729 771.18,208.729"
     id="polyline3701" />
  <polyline
     class=""
     stroke="#000000"
     stroke-width="3.00"
     stroke-linejoin="bevel"
     points="471.068,79.9793 438.827,99.9793"
     id="polyline3703" />
  <path
     class=""
     d="M1425.7,154.629 C1425.8,154.629 1426,154.529 1426.1,154.529 C1426.1,154.529 1427.5,153.929 1428.4,153.629 C1428.5,153.529 1428.6,153.529 1428.7,153.529 C1429.4,153.529 1429.9,154.629 1429.9,155.129 L1429.9,167.429 C1429.9,168.029 1430.5,168.529 1431.2,168.529 C1432.2,168.529 1432.9,168.029 1432.9,167.429 L1432.9,153.529 C1432.9,152.229 1433.4,151.529 1433.9,151.329 L1440,148.829 C1440.1,148.829 1440.3,148.729 1440.4,148.729 C1441.2,148.729 1441.7,149.929 1441.7,150.529 L1441.7,163.029 C1441.7,163.629 1442.3,164.129 1443,164.129 C1444.1,164.129 1444.7,163.629 1444.7,163.029 L1444.7,148.829 C1444.7,148.029 1445.1,146.829 1445.8,146.529 C1446.5,146.229 1448.6,145.429 1448.6,145.429 C1449.3,145.129 1449.8,144.329 1449.8,143.729 L1449.8,136.629 C1449.8,136.129 1449.5,135.829 1449.1,135.829 C1448.9,135.829 1448.8,135.829 1448.6,135.929 L1446,136.929 C1445.4,136.929 1444.7,136.329 1444.7,135.129 L1444.7,125.829 C1444.7,125.129 1445.2,123.229 1446,122.929 L1448.6,121.929 C1449.3,121.629 1449.8,120.829 1449.8,120.229 L1449.8,113.129 C1449.8,112.629 1449.5,112.329 1449.1,112.329 C1448.9,112.329 1448.8,112.329 1448.6,112.429 C1448.6,112.429 1446.6,113.229 1446.1,113.329 C1445.4,113.329 1444.7,112.829 1444.7,112.029 L1444.7,99.8293 C1444.7,99.2293 1444.1,98.7293 1443.3,98.7293 C1442.3,98.7293 1441.7,99.2293 1441.7,99.8293 L1441.7,112.829 C1441.6,113.829 1441.3,115.129 1440.4,115.729 C1439.2,116.429 1435.8,117.829 1434.1,118.229 C1433.2,118.229 1432.9,117.029 1432.9,116.229 L1432.9,104.229 C1432.9,103.629 1432.2,103.129 1431.5,103.129 C1430.5,103.129 1429.9,103.629 1429.9,104.229 L1429.9,117.729 C1429.9,119.129 1429.3,120.129 1428.7,120.429 C1428.1,120.729 1426.1,121.529 1426.1,121.529 C1425.4,121.729 1424.9,122.529 1424.9,123.129 L1424.9,130.229 C1424.9,130.829 1425.2,131.129 1425.7,131.129 C1426.1,131.129 1428,130.229 1428.3,130.029 C1429.3,130.029 1429.9,130.529 1429.9,131.729 L1429.9,141.629 C1429.9,142.729 1429.4,143.629 1428.8,143.929 C1428.2,144.129 1426.1,145.029 1426.1,145.029 C1425.4,145.229 1424.9,146.029 1424.9,146.629 L1424.9,153.729 C1424.9,154.329 1425.2,154.629 1425.7,154.629 M1432.9,129.329 C1433.1,127.629 1437.7,125.529 1440.2,125.529 C1440.9,125.529 1441.5,125.729 1441.7,126.129 C1441.9,126.629 1442.1,129.129 1442.1,131.829 C1442.1,134.529 1441.9,137.329 1441.7,138.229 C1441.1,140.229 1436.4,142.229 1434.1,142.229 C1433.5,142.229 1433,142.029 1432.9,141.729 C1432.7,141.329 1432.6,139.129 1432.6,136.729 C1432.6,133.629 1432.7,130.129 1432.9,129.329"
     id="path3705" />
  <polyline
     class=""
     stroke="#000000"
     stroke-width="3.00"
     stroke-linecap="round"
     stroke-linejoin="bevel"
     points="1456.8,137.089 1456.8,221.229"
     id="polyline3707" />
  <polyline
     class=""
     stroke="#000000"
     stroke-width="3.00"
     stroke-linecap="round"
     stroke-linejoin="bevel"
     points="1518.4,124.589 1518.4,208.729"
     id="polyline3709" />
  <polyline
     class=""
     stroke="#000000"
     stroke-width="3.00"
     stroke-linecap="round"
     stroke-linejoin="bevel"
     points="1336.61,137.089 1336.61,218.104"
     id="polyline3711" />
  <polyline
     class=""
     stroke="#000000"
     stroke-width="3.00"
     stroke-linecap="round"
     stroke-linejoin="bevel"
     points="1237.66,112.089 1237.66,196.229"
     id="polyline3713" />
  <polyline
     class=""
     stroke="#000000"
     stroke-width="3.00"
     stroke-linecap="round"
     stroke-linejoin="bevel"
     points="1097.78,137.089 1097.78,218.104"
     id="polyline3715" />
  <polyline
     class=""
     stroke="#000000"
     stroke-width="3.00"
     stroke-linecap="round"
     stroke-linejoin="bevel"
     points="1167.72,99.5893 1167.72,183.729"
     id="polyline3717" />
  <polyline
     class=""
     stroke="#000000"
     stroke-width="3.00"
     stroke-linecap="round"
     stroke-linejoin="bevel"
     points="1027.84,124.589 1027.84,208.729"
     id="polyline3719" />
  <polyline
     class=""
     stroke="#000000"
     stroke-width="3.00"
     stroke-linecap="round"
     stroke-linejoin="bevel"
     points="930.671,112.089 930.671,196.229"
     id="polyline3721" />
  <polyline
     class=""
     stroke="#000000"
     stroke-width="3.00"
     stroke-linecap="round"
     stroke-linejoin="bevel"
     points="797.68,112.089 797.68,196.229"
     id="polyline3723" />
  <polyline
     class=""
     stroke="#000000"
     stroke-width="3.00"
     stroke-linecap="round"
     stroke-linejoin="bevel"
     points="710.782,124.589 710.782,202.479"
     id="polyline3725" />
  <polyline
     class=""
     stroke="#000000"
     stroke-width="3.00"
     stroke-linecap="round"
     stroke-linejoin="bevel"
     points="571.054,149.589 571.054,214.64"
     id="polyline3727" />
  <polyline
     class=""
     stroke="#000000"
     stroke-width="3.00"
     stroke-linecap="round"
     stroke-linejoin="bevel"
     points="618.404,137.089 618.404,208.729"
     id="polyline3729" />
  <polyline
     class=""
     stroke="#000000"
     stroke-width="3.00"
     stroke-linecap="round"
     stroke-linejoin="bevel"
     points="478.677,137.089 478.677,208.39"
     id="polyline3731" />
  <polyline
     class=""
     stroke="#000000"
     stroke-width="2.10"
     stroke-linecap="round"
     stroke-linejoin="bevel"
     points="451.398,118.877 451.398,59.9793"
     id="polyline3733" />
  <polyline
     class=""
     stroke="#000000"
     stroke-width="3.00"
     stroke-linecap="round"
     stroke-linejoin="bevel"
     points="387.395,137.089 387.395,208.729"
     id="polyline3735" />
  <polyline
     class=""
     stroke="#000000"
     stroke-width="3.00"
     stroke-linecap="round"
     stroke-linejoin="bevel"
     points="295.017,137.089 295.017,208.729"
     id="polyline3737" />
  <polyline
     class=""
     stroke="#000000"
     stroke-width="3.00"
     stroke-linecap="round"
     stroke-linejoin="bevel"
     points="190.848,137.089 190.848,218.104"
     id="polyline3739" />
  <path
     class=""
     d="M1466.1,147.729 C1476,147.729 1488.2,138.529 1488.2,129.029 C1488.2,123.429 1483.7,119.729 1477.3,119.729 C1465.1,119.729 1455.3,128.829 1455.3,138.429 C1455.3,144.229 1460.1,147.729 1466.1,147.729"
     id="path3741" />
  <path
     class=""
     d="M1527.7,135.229 C1537.6,135.229 1549.8,126.029 1549.8,116.529 C1549.8,110.929 1545.3,107.229 1538.9,107.229 C1526.7,107.229 1516.9,116.329 1516.9,125.929 C1516.9,131.729 1521.7,135.229 1527.7,135.229"
     id="path3743" />
  <path
     class=""
     d="M1345.91,147.729 C1355.81,147.729 1368.01,138.529 1368.01,129.029 C1368.01,123.429 1363.51,119.729 1357.11,119.729 C1344.91,119.729 1335.11,128.829 1335.11,138.429 C1335.11,144.229 1339.91,147.729 1345.91,147.729"
     id="path3745" />
  <path
     class=""
     d="M1246.96,122.729 C1256.86,122.729 1269.06,113.529 1269.06,104.029 C1269.06,98.4293 1264.56,94.7293 1258.16,94.7293 C1245.96,94.7293 1236.16,103.829 1236.16,113.429 C1236.16,119.229 1240.96,122.729 1246.96,122.729"
     id="path3747" />
  <path
     class=""
     d="M1107.08,147.729 C1116.98,147.729 1129.18,138.529 1129.18,129.029 C1129.18,123.429 1124.68,119.729 1118.28,119.729 C1106.08,119.729 1096.28,128.829 1096.28,138.429 C1096.28,144.229 1101.08,147.729 1107.08,147.729"
     id="path3749" />
  <path
     class=""
     d="M1177.02,110.229 C1186.92,110.229 1199.12,101.029 1199.12,91.5293 C1199.12,85.9293 1194.62,82.2293 1188.22,82.2293 C1176.02,82.2293 1166.22,91.3293 1166.22,100.929 C1166.22,106.729 1171.02,110.229 1177.02,110.229"
     id="path3751" />
  <path
     class=""
     d="M1037.14,135.229 C1047.04,135.229 1059.24,126.029 1059.24,116.529 C1059.24,110.929 1054.74,107.229 1048.34,107.229 C1036.14,107.229 1026.34,116.329 1026.34,125.929 C1026.34,131.729 1031.14,135.229 1037.14,135.229"
     id="path3753" />
  <path
     class=""
     d="M939.971,122.729 C949.871,122.729 962.071,113.529 962.071,104.029 C962.071,98.4293 957.571,94.7293 951.171,94.7293 C938.971,94.7293 929.171,103.829 929.171,113.429 C929.171,119.229 933.971,122.729 939.971,122.729"
     id="path3755" />
  <path
     class=""
     d="M806.98,122.729 C825.38,122.729 829.08,107.729 829.08,104.129 C829.08,98.4293 824.58,94.7293 818.08,94.7293 C801.38,94.7293 796.18,107.629 796.18,113.429 C796.18,119.329 800.88,122.729 806.98,122.729 M815.48,113.829 C810.48,117.229 806.98,118.429 804.58,118.429 C802.28,118.429 800.88,117.229 800.18,115.829 C799.78,115.229 799.48,114.429 799.48,113.629 C799.48,108.229 815.58,99.3293 820.88,99.3293 C822.98,99.3293 824.18,100.329 824.98,101.729 C825.28,102.329 825.58,103.029 825.58,103.829 C825.58,106.029 823.28,108.729 815.48,113.829"
     id="path3757" />
  <path
     class=""
     d="M720.082,135.229 C729.982,135.229 742.182,126.029 742.182,116.529 C742.182,110.929 737.682,107.229 731.282,107.229 C719.082,107.229 709.282,116.329 709.282,125.929 C709.282,131.729 714.082,135.229 720.082,135.229"
     id="path3759" />
  <path
     class=""
     d="M580.354,160.229 C590.254,160.229 602.454,151.029 602.454,141.529 C602.454,135.929 597.954,132.229 591.554,132.229 C579.354,132.229 569.554,141.329 569.554,150.929 C569.554,156.729 574.354,160.229 580.354,160.229"
     id="path3761" />
  <path
     class=""
     d="M627.704,147.729 C637.604,147.729 649.804,138.529 649.804,129.029 C649.804,123.429 645.304,119.729 638.904,119.729 C626.704,119.729 616.904,128.829 616.904,138.429 C616.904,144.229 621.704,147.729 627.704,147.729"
     id="path3763" />
  <path
     class=""
     d="M487.977,147.729 C497.877,147.729 510.077,138.529 510.077,129.029 C510.077,123.429 505.577,119.729 499.177,119.729 C486.977,119.729 477.177,128.829 477.177,138.429 C477.177,144.229 481.977,147.729 487.977,147.729"
     id="path3765" />
  <path
     class=""
     d="M396.695,147.729 C406.595,147.729 418.795,138.529 418.795,129.029 C418.795,123.429 414.295,119.729 407.895,119.729 C395.695,119.729 385.895,128.829 385.895,138.429 C385.895,144.229 390.695,147.729 396.695,147.729"
     id="path3767" />
  <path
     class=""
     transform="matrix(0.7,0,0,0.7,429.419,121.229)"
     d="M10.8,14 C20.7,14 32.9,4.8 32.9,-4.7 C32.9,-10.3 28.4,-14 22,-14 C9.8,-14 0,-4.9 0,4.7 C0,10.5 4.8,14 10.8,14"
     id="path3769" />
  <path
     class=""
     d="M304.317,147.729 C314.217,147.729 326.417,138.529 326.417,129.029 C326.417,123.429 321.917,119.729 315.517,119.729 C303.317,119.729 293.517,128.829 293.517,138.429 C293.517,144.229 298.317,147.729 304.317,147.729"
     id="path3771" />
  <path
     class=""
     d="M200.148,147.729 C210.048,147.729 222.248,138.529 222.248,129.029 C222.248,123.429 217.748,119.729 211.348,119.729 C199.148,119.729 189.348,128.829 189.348,138.429 C189.348,144.229 194.148,147.729 200.148,147.729"
     id="path3773" />
  <path
     class=""
     d="M81.7547,89.4293 C85.0547,89.4293 87.7547,92.1293 87.7547,97.6293 C87.7547,108.729 78.2547,117.729 70.3547,124.629 C70.0547,124.829 69.8547,125.029 69.6547,125.029 C69.3547,125.029 69.1547,124.629 69.0547,123.829 C68.6547,121.229 68.4547,117.829 68.4547,114.629 C68.4547,99.0293 75.6547,89.4293 81.7547,89.4293 M77.7547,173.429 C77.5547,172.329 77.6547,172.029 78.4547,172.029 C78.5547,172.029 78.7547,172.029 78.8547,172.029 C86.9547,172.729 93.6547,179.529 93.6547,188.329 C93.6547,194.629 89.8547,199.729 84.2547,202.529 C83.7547,202.729 83.4547,202.929 83.2547,202.929 C82.8547,202.929 82.7547,202.629 82.6547,201.929 L77.7547,173.429 M70.8547,157.529 C71.1547,159.429 71.1547,159.329 69.3547,159.929 C60.5547,162.929 54.8547,170.829 54.8547,179.329 C54.8547,188.329 59.5547,194.729 66.3547,197.029 C67.1547,197.329 68.3547,197.629 69.0547,197.629 C69.8547,197.629 70.2547,197.129 70.2547,196.529 C70.2547,195.829 69.4547,195.529 68.7547,195.229 C64.5547,193.429 61.5547,189.129 61.5547,184.529 C61.5547,178.829 65.4547,174.529 71.5547,172.829 C72.0547,172.729 72.4547,172.629 72.7547,172.629 C73.2547,172.629 73.4547,172.929 73.5547,173.629 L78.5547,203.429 C78.7547,204.529 78.6547,204.529 77.1547,204.829 C75.5547,205.129 73.5547,205.329 71.5547,205.329 C54.0547,205.329 42.7547,195.629 42.7547,181.729 C42.7547,164.729 55.2547,154.129 67.3547,144.329 C67.7547,144.029 68.0547,143.829 68.2547,143.829 C68.5547,143.829 68.6547,144.129 68.7547,144.729 L70.8547,157.529 M72.3547,142.229 C72.1547,141.029 72.3547,140.929 72.9547,140.329 C83.7547,130.229 91.9547,117.529 91.9547,102.229 C91.9547,93.5293 89.5547,84.9293 85.4547,78.9293 C83.9547,76.7293 81.3547,73.9293 80.2547,73.9293 C78.8547,73.9293 75.7547,76.5293 73.7547,78.7293 C66.3547,86.9293 63.9547,99.4293 63.9547,109.829 C63.9547,115.629 64.6547,122.129 65.3547,126.229 C65.5547,127.429 65.6547,127.629 64.4547,128.629 C50.0547,140.529 34.7547,154.829 34.7547,175.029 C34.7547,192.429 46.6547,208.929 71.1547,208.929 C73.4547,208.929 76.0547,208.729 78.0547,208.329 C78.4547,208.229 78.6547,208.229 78.8547,208.229 C79.2547,208.229 79.4547,208.429 79.5547,209.229 C80.7547,215.929 82.2547,224.629 82.2547,229.329 C82.2547,244.129 72.2547,245.929 66.3547,245.929 C60.9547,245.929 58.3547,244.329 58.3547,243.029 C58.3547,242.329 59.2547,242.029 61.5547,241.329 C64.6547,240.429 68.2547,237.729 68.2547,231.929 C68.2547,226.429 64.7547,221.729 58.6547,221.729 C51.9547,221.729 47.9547,227.029 47.9547,233.229 C47.9547,239.729 51.8547,249.529 66.9547,249.529 C73.6547,249.529 86.6547,246.529 86.6547,229.529 C86.6547,223.829 84.8547,214.329 83.7547,208.129 C83.5547,206.929 83.6547,207.029 85.0547,206.429 C95.1547,202.429 101.855,193.929 101.855,182.629 C101.855,169.829 92.4547,158.529 77.7547,158.529 C75.1547,158.529 75.1547,158.529 74.8547,156.729 L72.3547,142.229 "
     id="path3775" />
  <path
     class=""
     d="M1533.41,47.4939 C1530.81,47.4939 1528.61,48.3939 1528.51,49.6939 C1528.51,51.1939 1531.11,76.9939 1533.41,76.9939 C1535.91,76.9939 1538.41,52.0939 1538.41,49.7939 C1538.41,48.2939 1536.11,47.4939 1533.41,47.4939"
     id="path3777" />
  <path
     class=""
     fill-rule="evenodd"
     d="M616.904,202.465 L712.282,196.012 L712.282,208.541 L616.904,214.994 L616.904,202.465 "
     id="path3779" />
  <path
     class=""
     fill-rule="evenodd"
     d="M712.282,180.387 L679.282,182.62 L679.282,195.148 L712.282,192.916 L712.282,180.387 "
     id="path3781" />
  <path
     class=""
     fill-rule="evenodd"
     d="M477.177,202.126 L572.554,208.579 L572.554,221.108 L477.177,214.655 L477.177,202.126 "
     id="path3783" />
  <path
     class=""
     fill-rule="evenodd"
     d="M572.554,192.954 L539.554,190.721 L539.554,203.25 L572.554,205.483 L572.554,192.954 "
     id="path3785" />
  <path
     class=""
     fill-rule="evenodd"
     d="M293.517,202.479 L388.895,202.479 L388.895,214.979 L293.517,214.979 L293.517,202.479 "
     id="path3787" />
  <path
     class=""
     fill-rule="evenodd"
     d="M388.895,186.854 L355.895,186.854 L355.895,199.354 L388.895,199.354 L388.895,186.854 "
     id="path3789" />
  <path
     class=""
     d="M1479.3,143.729 C1480.7,147.929 1481.4,152.929 1481.4,157.429 C1481.4,163.329 1478.9,171.729 1477.4,175.129 C1473.7,183.529 1468.7,191.629 1455.3,196.129 L1455.3,219.629 C1455.3,220.829 1455.8,221.129 1456.4,221.129 C1458.3,221.129 1459.1,220.529 1459.3,218.929 C1461,209.429 1468.4,200.729 1473.5,192.829 C1479.8,182.929 1485.9,171.029 1485.9,158.529 C1485.9,150.729 1483.9,143.629 1483.1,140.429 C1482.8,139.329 1482.2,138.929 1481.5,138.929 C1480,138.929 1478.3,140.829 1479.3,143.729"
     id="path3791" />
  <path
     class=""
     d="M1540.9,131.229 C1542.3,135.429 1543,140.429 1543,144.929 C1543,150.829 1540.5,159.229 1539,162.629 C1535.3,171.029 1530.3,179.129 1516.9,183.629 L1516.9,207.129 C1516.9,208.329 1517.4,208.629 1518,208.629 C1519.9,208.629 1520.7,208.029 1520.9,206.429 C1522.6,196.929 1530,188.229 1535.1,180.329 C1541.4,170.429 1547.5,158.529 1547.5,146.029 C1547.5,138.229 1545.5,131.129 1544.7,127.929 C1544.4,126.829 1543.8,126.429 1543.1,126.429 C1541.6,126.429 1539.9,128.329 1540.9,131.229"
     id="path3793" />
  <path
     class=""
     transform="matrix(0.7,0,0,0.7,450.348,60.6082)"
     d="M23.8,79 C23.8,79 26.4,69.5 26.4,61.7 C26.4,49.2 21.2,37.4 14.9,27.4 C9.8,19.5 5.6,10.9 4,1.3 C3.7,-0.3 2.9,-0.9 1,-0.9 C0.4,-0.9 0,-0.6 0,0.6 L0,24.5 C6.6,25.7 16.1,39.3 19.7,47.8 C21.2,51.2 22.1,56.9 22.1,62.8 C22.1,67.3 21.4,72 19.7,76.5 C19.5,77.1 19.4,77.6 19.4,78 C19.4,79.6 20.4,80.5 21,80.9 C21.1,81 21.3,81 21.5,81 C22.2,81 23.4,80.4 23.8,79"
     id="path3795" />
  <path
     class=""
     d="M1386.76,121.229 C1386.76,118.429 1384.56,116.229 1381.76,116.229 C1378.96,116.229 1376.76,118.429 1376.76,121.229 C1376.76,124.029 1378.96,126.229 1381.76,126.229 C1384.56,126.229 1386.76,124.029 1386.76,121.229"
     id="path3797" />
  <path
     class=""
     d="M847.829,96.2293 C847.829,93.4293 845.629,91.2293 842.829,91.2293 C840.029,91.2293 837.829,93.4293 837.829,96.2293 C837.829,99.0293 840.029,101.229 842.829,101.229 C845.629,101.229 847.829,99.0293 847.829,96.2293"
     id="path3799" />
  <path
     class=""
     d="M668.552,121.229 C668.552,118.429 666.352,116.229 663.552,116.229 C660.752,116.229 658.552,118.429 658.552,121.229 C658.552,124.029 660.752,126.229 663.552,126.229 C666.352,126.229 668.552,124.029 668.552,121.229"
     id="path3801" />
  <path
     class=""
     d="M528.825,121.229 C528.825,118.429 526.625,116.229 523.825,116.229 C521.025,116.229 518.825,118.429 518.825,121.229 C518.825,124.029 521.025,126.229 523.825,126.229 C526.625,126.229 528.825,124.029 528.825,121.229"
     id="path3803" />
  <path
     class=""
     d="M345.166,121.229 C345.166,118.429 342.966,116.229 340.166,116.229 C337.366,116.229 335.166,118.429 335.166,121.229 C335.166,124.029 337.366,126.229 340.166,126.229 C342.966,126.229 345.166,124.029 345.166,121.229"
     id="path3805" />
</svg>
