<?xml version="1.0" encoding="UTF-8" standalone="no"?>
<svg
   width="22.608397mm"
   height="20.65218mm"
   viewBox="0 0 267.02858 243.92338"
   version="1.2"
   id="svg60"
   sodipodi:docname="Klang_Trans_f1_Barsax_falsch(A).svg"
   inkscape:version="1.1-dev (0486c1a, 2020-10-10)"
   xmlns:inkscape="http://www.inkscape.org/namespaces/inkscape"
   xmlns:sodipodi="http://sodipodi.sourceforge.net/DTD/sodipodi-0.dtd"
   xmlns="http://www.w3.org/2000/svg"
   xmlns:svg="http://www.w3.org/2000/svg"
   xmlns:rdf="http://www.w3.org/1999/02/22-rdf-syntax-ns#"
   xmlns:cc="http://creativecommons.org/ns#"
   xmlns:dc="http://purl.org/dc/elements/1.1/">
  <sodipodi:namedview
     pagecolor="#ffffff"
     bordercolor="#666666"
     borderopacity="1"
     objecttolerance="10"
     gridtolerance="10"
     guidetolerance="10"
     inkscape:pageopacity="0"
     inkscape:pageshadow="2"
     inkscape:window-width="1165"
     inkscape:window-height="480"
     id="namedview62"
     showgrid="false"
     lock-margins="true"
     fit-margin-top="1"
     fit-margin-left="1"
     fit-margin-right="1"
     fit-margin-bottom="1"
     inkscape:zoom="2.4606834"
     inkscape:cx="31.698511"
     inkscape:cy="51.611679"
     inkscape:window-x="207"
     inkscape:window-y="416"
     inkscape:window-maximized="0"
     inkscape:current-layer="svg60" />
  <title
     id="title8">Qt Svg Document</title>
  <desc
     id="desc10">created with MuseScore 2.0.0</desc>
  <defs
     id="defs12" />
  <g
     fill="none"
     stroke="#000000"
     stroke-opacity="1"
     stroke-width="1"
     stroke-linecap="square"
     stroke-linejoin="bevel"
     transform="matrix(3.125,0,0,3.125,120.97733,55.417326)"
     font-family="Bravura"
     font-size="27px"
     font-weight="400"
     font-style="normal"
     id="g26"
     style="fill-rule:evenodd" />
  <g
     fill="none"
     stroke="#000000"
     stroke-opacity="1"
     stroke-width="1"
     stroke-linecap="square"
     stroke-linejoin="bevel"
     transform="matrix(3.125,0,0,3.125,120.97733,55.417326)"
     font-family="Bravura"
     font-size="27px"
     font-weight="400"
     font-style="normal"
     id="g32"
     style="fill-rule:evenodd" />
  <g
     fill="none"
     stroke="#000000"
     stroke-opacity="1"
     stroke-width="1"
     stroke-linecap="square"
     stroke-linejoin="bevel"
     transform="matrix(3.125,0,0,3.125,25.14443,76.250326)"
     font-family="Bravura"
     font-size="27px"
     font-weight="400"
     font-style="normal"
     id="g34"
     style="fill-rule:evenodd" />
  <g
     fill="none"
     stroke="#000000"
     stroke-opacity="1"
     stroke-width="1"
     stroke-linecap="square"
     stroke-linejoin="bevel"
     transform="matrix(3.125,0,0,3.125,25.14443,76.250326)"
     font-family="Bravura"
     font-size="27px"
     font-weight="400"
     font-style="normal"
     id="g40"
     style="fill-rule:evenodd" />
  <g
     fill="none"
     stroke="#000000"
     stroke-opacity="1"
     stroke-width="1"
     stroke-linecap="square"
     stroke-linejoin="bevel"
     transform="matrix(3.125,0,0,3.125,-106.29967,594.97733)"
     font-family="Cantarell"
     font-size="15px"
     font-weight="400"
     font-style="normal"
     id="g42"
     style="fill-rule:evenodd" />
  <g
     fill="none"
     stroke="#000000"
     stroke-opacity="1"
     stroke-width="1"
     stroke-linecap="square"
     stroke-linejoin="bevel"
     transform="matrix(3.125,0,0,3.125,-106.29967,594.97733)"
     font-family="Cantarell"
     font-size="15px"
     font-weight="400"
     font-style="normal"
     id="g48"
     style="fill-rule:evenodd" />
  <g
     fill="none"
     stroke="#000000"
     stroke-opacity="1"
     stroke-width="1"
     stroke-linecap="square"
     stroke-linejoin="bevel"
     transform="matrix(3.125,0,0,3.125,-106.29967,594.97733)"
     font-family="Cantarell"
     font-size="15px"
     font-weight="400"
     font-style="normal"
     id="g50"
     style="fill-rule:evenodd" />
  <g
     fill="none"
     stroke="#000000"
     stroke-opacity="1"
     stroke-width="1"
     stroke-linecap="square"
     stroke-linejoin="bevel"
     transform="matrix(3.125,0,0,3.125,-106.29967,594.97733)"
     font-family="Cantarell"
     font-size="15px"
     font-weight="400"
     font-style="normal"
     id="g56"
     style="fill-rule:evenodd" />
  <metadata
     id="metadata86">
    <rdf:RDF>
      <cc:Work
         rdf:about="">
        <dc:title>Qt Svg Document</dc:title>
      </cc:Work>
    </rdf:RDF>
  </metadata>
  <g
     fill="none"
     stroke="#000000"
     stroke-opacity="1"
     stroke-width="0.533333"
     stroke-linecap="butt"
     stroke-linejoin="bevel"
     transform="matrix(0.33895417,0,0,3.2064633,11.81103,114.48005)"
     font-family="Cantarell"
     font-size="45.8333px"
     font-weight="400"
     font-style="normal"
     id="g24"
     style="fill-rule:evenodd">
    <polyline
       fill="none"
       vector-effect="none"
       points="0,0 718.11,0 "
       id="polyline14" />
    <polyline
       fill="none"
       vector-effect="none"
       points="0,6.66667 718.11,6.66667 "
       id="polyline16" />
    <polyline
       fill="none"
       vector-effect="none"
       points="0,13.3333 718.11,13.3333 "
       id="polyline18" />
    <polyline
       fill="none"
       vector-effect="none"
       points="0,20 718.11,20 "
       id="polyline20" />
    <polyline
       fill="none"
       vector-effect="none"
       points="0,26.6667 718.11,26.6667 "
       id="polyline22" />
  </g>
  <g
     fill="#000000"
     fill-opacity="1"
     stroke="none"
     transform="matrix(3.125,0,0,3.125,149.88712,188.88641)"
     font-family="Bravura"
     font-size="27px"
     font-weight="400"
     font-style="normal"
     id="g30"
     style="fill-rule:evenodd;stroke-width:1;stroke-linecap:square;stroke-linejoin:bevel">
    <path
       vector-effect="none"
       fill-rule="nonzero"
       d="M 6.34375,-3.70312 C 2.42188,-3.70312 0,-2.04688 0,-0.046875 C 0,1.92188 1.67188,3.67188 6.04688,3.67188 C 10.8438,3.67188 12.3906,2 12.3906,-0.046875 C 12.3906,-2.125 9.0625,-3.70312 6.34375,-3.70312 M 3.26562,-1.85938 C 3.59375,-2.85938 4.67188,-3.01562 5.59375,-3.01562 C 7.57812,-3.01562 9.20312,-0.859375 9.20312,0.921875 C 9.20312,1.10938 9.17188,1.29688 9.15625,1.45312 C 9.01562,2.1875 8.57812,2.70312 7.85938,2.89062 C 7.5625,2.96875 7.26562,3 6.96875,3 C 6.6875,3 6.45312,2.96875 6.1875,2.89062 C 5.70312,2.71875 5.20312,2.45312 4.8125,2.10938 C 4.59375,1.92188 4.375,1.70312 4.1875,1.45312 C 3.60938,0.78125 3.15625,-0.21875 3.15625,-1.14062 C 3.15625,-1.375 3.1875,-1.625 3.26562,-1.85938"
       id="path28" />
  </g>
  <path
     class=""
     d="M 74.906134,128.29173 C 74.082464,127.46781 73.670463,126.45152 73.670463,125.24301 C 73.670463,124.03451 74.082464,123.01829 74.906134,122.19437 C 75.730479,121.37037 76.746354,120.95836 77.955449,120.95836 C 79.163699,120.95836 80.179574,121.37037 81.003919,122.19437 C 81.827419,123.01829 82.240015,124.03451 82.240015,125.24301 C 82.240015,126.45152 81.827419,127.46781 81.003919,128.29173 C 80.179574,129.11574 79.163699,129.52774 77.955449,129.52774 C 76.746354,129.52774 75.730479,129.11574 74.906134,128.29173 M 74.906134,149.38549 C 74.082464,148.56157 73.670463,147.54527 73.670463,146.33677 C 73.670463,145.12827 74.082464,144.11205 74.906134,143.28813 C 75.730479,142.46413 76.746354,142.05212 77.955449,142.05212 C 79.163699,142.05212 80.179574,142.46413 81.003919,143.28813 C 81.827419,144.11205 82.240015,145.12827 82.240015,146.33677 C 82.240015,147.54527 81.827419,148.56157 81.003919,149.38549 C 80.179574,150.2095 79.163699,150.62151 77.955449,150.62151 C 76.746354,150.62151 75.730479,150.2095 74.906134,149.38549 M 46.314469,113.62499 C 53.62042,113.62499 59.607926,115.46521 64.277157,119.14565 C 68.781519,122.99087 71.033743,128.20938 71.033743,134.80119 C 71.033743,139.25062 70.154806,143.31555 68.397023,146.99599 C 66.749091,150.84122 64.579304,154.24693 61.887571,157.21331 C 59.140993,160.23452 55.817631,163.09096 51.917478,165.78252 C 48.127267,168.41924 44.227115,170.78174 40.217106,172.86918 C 32.032222,176.98837 27.527858,179.0488 26.703853,179.0488 C 25.989786,179.0488 25.632711,178.6919 25.632711,177.97724 C 25.632711,177.70303 25.742566,177.45581 25.962279,177.23559 C 28.763785,175.58774 32.197005,173.4733 36.262026,170.89143 C 38.898746,169.18874 41.974892,166.82624 45.490547,163.80477 C 48.896261,160.94859 51.532981,158.25694 53.400707,155.73016 C 55.323277,153.25823 57.081064,150.18199 58.674147,146.50164 C 60.047435,142.8212 60.73408,139.19569 60.73408,135.62511 C 60.73408,130.29674 59.415721,125.65501 56.778998,121.69993 C 54.142278,117.74485 50.654046,115.76736 46.314469,115.76736 C 43.238324,115.76736 40.601603,116.75606 38.404308,118.73365 C 36.042229,120.76616 34.339372,123.32044 33.295652,126.39659 C 34.339372,125.95716 35.300655,125.73745 36.179592,125.73745 C 38.486743,125.73745 40.464241,126.56137 42.11217,128.20938 C 43.760183,129.96717 44.584105,131.97217 44.584105,134.2244 C 44.584105,136.58648 43.787605,138.70134 42.194604,140.56898 C 40.491747,142.27183 38.486743,143.12326 36.179592,143.12326 C 33.707655,143.12326 31.482939,142.27183 29.505357,140.56898 C 27.637715,138.70134 26.703853,136.58648 26.703853,134.2244 C 26.703853,128.56638 28.626507,123.73244 32.47173,119.72244 C 36.262026,115.6575 40.876244,113.62499 46.314469,113.62499"
     id="path318"
     style="stroke-width:0.84375" />
  <text
     xml:space="preserve"
     style="font-style:normal;font-weight:400;font-size:100px;line-height:1.25;font-family:'Libertinus Sans';-inkscape-font-specification:'Libertinus Sans';letter-spacing:0px;word-spacing:0px;fill:#ff0000;fill-rule:evenodd;stroke:#000000;stroke-width:1.66667;stroke-linecap:butt;stroke-linejoin:bevel;stroke-opacity:1"
     x="131.62488"
     y="83.248856"
     id="text3528"><tspan
       sodipodi:role="line"
       id="tspan3526"
       x="131.62488"
       y="83.248856"
       style="stroke-width:1.66667">✖</tspan></text>
</svg>
