<?xml version="1.0" encoding="UTF-8" standalone="no"?>
<svg
   width="1766"
   height="312"
   viewBox="0 0 1766 312"
   version="1.2"
   id="svg852"
   sodipodi:docname="Mahler_9_Finale_Baßklar_notiert.svg"
   inkscape:version="1.1-dev (0486c1a, 2020-10-10)"
   xmlns:inkscape="http://www.inkscape.org/namespaces/inkscape"
   xmlns:sodipodi="http://sodipodi.sourceforge.net/DTD/sodipodi-0.dtd"
   xmlns="http://www.w3.org/2000/svg"
   xmlns:svg="http://www.w3.org/2000/svg"
   xmlns:rdf="http://www.w3.org/1999/02/22-rdf-syntax-ns#"
   xmlns:cc="http://creativecommons.org/ns#"
   xmlns:dc="http://purl.org/dc/elements/1.1/">
  <defs
     id="defs856" />
  <sodipodi:namedview
     pagecolor="#ffffff"
     bordercolor="#666666"
     borderopacity="1"
     objecttolerance="10"
     gridtolerance="10"
     guidetolerance="10"
     inkscape:pageopacity="0"
     inkscape:pageshadow="2"
     inkscape:window-width="1155"
     inkscape:window-height="480"
     id="namedview854"
     showgrid="false"
     height="312px"
     inkscape:zoom="0.73162373"
     inkscape:cx="269.26409"
     inkscape:cy="92.94395"
     inkscape:window-x="0"
     inkscape:window-y="23"
     inkscape:window-maximized="0"
     inkscape:current-layer="svg852" />
  <title
     id="title642">Trans_misc.</title>
  <desc
     id="desc644">Generated by MuseScore 3.5.2</desc>
  <circle
     style="fill:#00ff00;fill-opacity:1;stroke:none;stroke-width:1.9;stroke-linecap:round;stroke-linejoin:round"
     id="circle622"
     cx="1684.3101"
     cy="250.927"
     r="56.692913" />
  <circle
     style="fill:#ffbf00;fill-opacity:1;stroke:none;stroke-width:1.9;stroke-linecap:round;stroke-linejoin:round"
     id="circle628"
     cx="1587.4"
     cy="250.427"
     r="56.692913" />
  <circle
     style="fill:#00ff00;fill-opacity:1;stroke:none;stroke-width:1.9;stroke-linecap:round;stroke-linejoin:round"
     id="circle624"
     cx="1423.95"
     cy="233.427"
     r="56.692913" />
  <path
     class=""
     d="M 1418.3,247.427 C 1428.2,247.427 1440.4,238.227 1440.4,228.727 C 1440.4,223.127 1435.9,219.427 1429.5,219.427 C 1417.3,219.427 1407.5,228.527 1407.5,238.127 C 1407.5,243.927 1412.3,247.427 1418.3,247.427"
     id="path626" />
  <circle
     style="fill:#00ff00;fill-opacity:1;stroke:none;stroke-width:1.9;stroke-linecap:round;stroke-linejoin:round"
     id="circle618"
     cx="1177.62"
     cy="220.927"
     r="56.692913" />
  <circle
     style="fill:#ffbf00;fill-opacity:1;stroke:none;stroke-width:1.9;stroke-linecap:round;stroke-linejoin:round"
     id="circle620"
     cx="1279.26"
     cy="208.427"
     r="56.692913" />
  <circle
     style="fill:#00ff00;fill-opacity:1;stroke:none;stroke-width:1.9;stroke-linecap:round;stroke-linejoin:round"
     id="circle616"
     cx="1065.97"
     cy="250.927"
     r="56.692913" />
  <circle
     style="fill:#ffbf00;fill-opacity:1;stroke:none;stroke-width:1.9;stroke-linecap:round;stroke-linejoin:round"
     id="circle614"
     cx="822.354"
     cy="250.427"
     r="56.692913" />
  <circle
     style="fill:#00ff00;fill-opacity:1;stroke:none;stroke-width:1.9;stroke-linecap:round;stroke-linejoin:round"
     id="circle612"
     cx="679.159"
     cy="233.427"
     r="56.692913" />
  <circle
     style="fill:#00ff00;fill-opacity:1;stroke:none;stroke-width:1.9;stroke-linecap:round;stroke-linejoin:round"
     id="circle466"
     cx="472.91699"
     cy="220.927"
     r="56.692913" />
  <circle
     style="fill:#ffbf00;fill-opacity:1;stroke:none;stroke-width:1.9;stroke-linecap:round;stroke-linejoin:round"
     id="circle259"
     cx="554.46399"
     cy="208.427"
     r="56.692913" />
  <circle
     style="fill:#00ffff;stroke:none;stroke-width:1.9;stroke-linecap:round;stroke-linejoin:round"
     id="path865"
     cx="171.52742"
     cy="82.446877"
     r="33" />
  <path
     class=""
     stroke="#000000"
     stroke-width="2.5"
     stroke-linecap="round"
     stroke-linejoin="round"
     fill-rule="evenodd"
     d="M 1587.4,280.927 C 1608.55,307.903 1657,314.153 1684.31,293.427 C 1656.24,320.104 1607.78,313.854 1587.4,280.927"
     id="path646" />
  <path
     class=""
     stroke="#000000"
     stroke-width="2.5"
     stroke-linecap="round"
     stroke-linejoin="round"
     fill-rule="evenodd"
     d="M 954.331,268.427 C 976.238,301.487 1032.06,313.987 1065.97,293.427 C 1030.75,319.842 974.927,307.342 954.331,268.427"
     id="path648" />
  <path
     class=""
     stroke="#000000"
     stroke-width="2.5"
     stroke-linecap="round"
     stroke-linejoin="round"
     fill-rule="evenodd"
     d="M 1177.62,243.427 C 1209.15,267.691 1266.22,261.441 1291.76,230.927 C 1266.88,267.406 1209.8,273.656 1177.62,243.427"
     id="path650" />
  <path
     class=""
     stroke="#000000"
     stroke-width="2.5"
     stroke-linecap="round"
     stroke-linejoin="round"
     fill-rule="evenodd"
     d="M 472.916,243.427 C 537.272,302.475 746.934,324.975 822.354,280.927 C 746.294,330.941 536.631,308.441 472.916,243.427"
     id="path652" />
  <path
     class=""
     stroke="#000000"
     stroke-width="2.5"
     stroke-linecap="round"
     stroke-linejoin="round"
     fill-rule="evenodd"
     d="M 280.961,205.927 C 295.784,238.776 343.772,257.526 376.939,243.427 C 341.589,263.115 293.6,244.364 280.961,205.927"
     id="path654" />
  <polyline
     class=""
     stroke="#000000"
     stroke-width="4"
     stroke-linejoin="bevel"
     points="1520.55,59.8015 1520.55,163.052"
     id="polyline656"
     transform="translate(0,22)" />
  <polyline
     class=""
     stroke="#000000"
     stroke-width="4"
     stroke-linejoin="bevel"
     points="903.882,59.8015 903.882,163.052"
     id="polyline658"
     transform="translate(0,22)" />
  <path
     id="polyline660"
     style="stroke:#000000;stroke-width:3.25;stroke-linejoin:bevel"
     d="M 1522.55,83.4265 H 1739.0361"
     class=""
     sodipodi:nodetypes="cc" />
  <path
     id="polyline662"
     style="stroke:#000000;stroke-width:3.25;stroke-linejoin:bevel"
     d="M 1522.55,108.4266 H 1739.0361"
     class=""
     sodipodi:nodetypes="cc" />
  <path
     id="polyline664"
     style="stroke:#000000;stroke-width:3.25;stroke-linejoin:bevel"
     d="M 1522.55,133.427 H 1739.0361"
     class=""
     sodipodi:nodetypes="cc" />
  <path
     id="polyline666"
     style="stroke:#000000;stroke-width:3.25;stroke-linejoin:bevel"
     d="M 1522.55,158.427 H 1739.0361"
     class=""
     sodipodi:nodetypes="cc" />
  <path
     id="polyline668"
     style="stroke:#000000;stroke-width:3.25;stroke-linejoin:bevel"
     d="M 1522.55,183.427 H 1739.0361"
     class=""
     sodipodi:nodetypes="cc" />
  <polyline
     class=""
     stroke="#000000"
     stroke-width="3.25"
     stroke-linejoin="bevel"
     points="905.882,61.4265 1522.55,61.4265"
     id="polyline670"
     transform="translate(0,22)" />
  <polyline
     class=""
     stroke="#000000"
     stroke-width="3.25"
     stroke-linejoin="bevel"
     points="905.882,86.4266 1522.55,86.4266"
     id="polyline672"
     transform="translate(0,22)" />
  <polyline
     class=""
     stroke="#000000"
     stroke-width="3.25"
     stroke-linejoin="bevel"
     points="905.882,111.427 1522.55,111.427"
     id="polyline674"
     transform="translate(0,22)" />
  <polyline
     class=""
     stroke="#000000"
     stroke-width="3.25"
     stroke-linejoin="bevel"
     points="905.882,136.427 1522.55,136.427"
     id="polyline676"
     transform="translate(0,22)" />
  <polyline
     class=""
     stroke="#000000"
     stroke-width="3.25"
     stroke-linejoin="bevel"
     points="905.882,161.427 1522.55,161.427"
     id="polyline678"
     transform="translate(0,22)" />
  <polyline
     class=""
     stroke="#000000"
     stroke-width="3.25"
     stroke-linejoin="bevel"
     points="27.418,61.4265 905.882,61.4265"
     id="polyline680"
     transform="translate(0,22)" />
  <polyline
     class=""
     stroke="#000000"
     stroke-width="3.25"
     stroke-linejoin="bevel"
     points="27.418,86.4266 905.882,86.4266"
     id="polyline682"
     transform="translate(0,22)" />
  <polyline
     class=""
     stroke="#000000"
     stroke-width="3.25"
     stroke-linejoin="bevel"
     points="27.418,111.427 905.882,111.427"
     id="polyline684"
     transform="translate(0,22)" />
  <polyline
     class=""
     stroke="#000000"
     stroke-width="3.25"
     stroke-linejoin="bevel"
     points="27.418,136.427 905.882,136.427"
     id="polyline686"
     transform="translate(0,22)" />
  <polyline
     class=""
     stroke="#000000"
     stroke-width="3.25"
     stroke-linejoin="bevel"
     points="27.418,161.427 905.882,161.427"
     id="polyline688"
     transform="translate(0,22)" />
  <path
     class=""
     d="M 1641.36,290.427 C 1641.46,290.427 1641.96,290.327 1642.06,290.227 C 1643.46,289.627 1649.06,287.227 1651.96,287.227 C 1652.96,287.227 1653.66,287.527 1653.66,288.327 V 303.227 C 1653.66,303.927 1654.16,304.427 1654.86,304.427 H 1656.16 C 1656.76,304.427 1657.36,303.927 1657.36,303.227 V 253.027 C 1657.36,252.527 1656.96,252.227 1656.56,252.227 C 1656.46,252.227 1656.26,252.227 1656.16,252.327 L 1654.66,252.827 C 1654.46,252.827 1654.36,252.927 1654.26,252.927 C 1654.26,252.927 1647.86,255.227 1645.26,255.227 C 1644.66,255.227 1644.26,255.127 1644.26,254.727 V 238.027 C 1644.26,237.327 1643.66,236.827 1643.06,236.827 H 1641.76 C 1641.06,236.827 1640.56,237.327 1640.56,238.027 V 289.527 C 1640.56,290.127 1640.86,290.427 1641.36,290.427 M 1644.26,267.027 C 1644.26,265.627 1650.36,263.027 1652.76,263.027 C 1653.36,263.027 1653.66,263.127 1653.66,263.527 V 273.827 C 1653.66,275.627 1647.96,277.927 1645.46,277.927 C 1644.76,277.927 1644.26,277.727 1644.26,277.327 V 267.027"
     id="path690" />
  <path
     class=""
     d="M 1536.35,279.327 C 1536.45,279.327 1536.65,279.227 1536.75,279.227 C 1536.75,279.227 1538.15,278.627 1539.05,278.327 C 1539.15,278.227 1539.25,278.227 1539.35,278.227 C 1540.05,278.227 1540.55,279.327 1540.55,279.827 V 292.127 C 1540.55,292.727 1541.15,293.227 1541.85,293.227 C 1542.85,293.227 1543.55,292.727 1543.55,292.127 V 278.227 C 1543.55,276.927 1544.05,276.227 1544.55,276.027 L 1550.65,273.527 C 1550.75,273.527 1550.95,273.427 1551.05,273.427 C 1551.85,273.427 1552.35,274.627 1552.35,275.227 V 287.727 C 1552.35,288.327 1552.95,288.827 1553.65,288.827 C 1554.75,288.827 1555.35,288.327 1555.35,287.727 V 273.527 C 1555.35,272.727 1555.75,271.527 1556.45,271.227 C 1557.15,270.927 1559.25,270.127 1559.25,270.127 C 1559.95,269.827 1560.45,269.027 1560.45,268.427 V 261.327 C 1560.45,260.827 1560.15,260.527 1559.75,260.527 C 1559.55,260.527 1559.45,260.527 1559.25,260.627 L 1556.65,261.627 C 1556.05,261.627 1555.35,261.027 1555.35,259.827 V 250.527 C 1555.35,249.827 1555.85,247.927 1556.65,247.627 L 1559.25,246.627 C 1559.95,246.327 1560.45,245.527 1560.45,244.927 V 237.827 C 1560.45,237.327 1560.15,237.027 1559.75,237.027 C 1559.55,237.027 1559.45,237.027 1559.25,237.127 C 1559.25,237.127 1557.25,237.927 1556.75,238.027 C 1556.05,238.027 1555.35,237.527 1555.35,236.727 V 224.527 C 1555.35,223.927 1554.75,223.427 1553.95,223.427 C 1552.95,223.427 1552.35,223.927 1552.35,224.527 V 237.527 C 1552.25,238.527 1551.95,239.827 1551.05,240.427 C 1549.85,241.127 1546.45,242.527 1544.75,242.927 C 1543.85,242.927 1543.55,241.727 1543.55,240.927 V 228.927 C 1543.55,228.327 1542.85,227.827 1542.15,227.827 C 1541.15,227.827 1540.55,228.327 1540.55,228.927 V 242.427 C 1540.55,243.827 1539.95,244.827 1539.35,245.127 C 1538.75,245.427 1536.75,246.227 1536.75,246.227 C 1536.05,246.427 1535.55,247.227 1535.55,247.827 V 254.927 C 1535.55,255.527 1535.85,255.827 1536.35,255.827 C 1536.75,255.827 1538.65,254.927 1538.95,254.727 C 1539.95,254.727 1540.55,255.227 1540.55,256.427 V 266.327 C 1540.55,267.427 1540.05,268.327 1539.45,268.627 C 1538.85,268.827 1536.75,269.727 1536.75,269.727 C 1536.05,269.927 1535.55,270.727 1535.55,271.327 V 278.427 C 1535.55,279.027 1535.85,279.327 1536.35,279.327 M 1543.55,254.027 C 1543.75,252.327 1548.35,250.227 1550.85,250.227 C 1551.55,250.227 1552.15,250.427 1552.35,250.827 C 1552.55,251.327 1552.75,253.827 1552.75,256.527 C 1552.75,259.227 1552.55,262.027 1552.35,262.927 C 1551.75,264.927 1547.05,266.927 1544.75,266.927 C 1544.15,266.927 1543.65,266.727 1543.55,266.427 C 1543.35,266.027 1543.25,263.827 1543.25,261.427 C 1543.25,258.327 1543.35,254.827 1543.55,254.027"
     id="path692" />
  <path
     class=""
     d="M 1372.91,254.327 C 1373.01,254.327 1373.21,254.227 1373.31,254.227 C 1373.31,254.227 1374.71,253.627 1375.61,253.327 C 1375.71,253.227 1375.81,253.227 1375.91,253.227 C 1376.61,253.227 1377.11,254.327 1377.11,254.827 V 267.127 C 1377.11,267.727 1377.71,268.227 1378.41,268.227 C 1379.41,268.227 1380.11,267.727 1380.11,267.127 V 253.227 C 1380.11,251.927 1380.61,251.227 1381.11,251.027 L 1387.21,248.527 C 1387.31,248.527 1387.51,248.427 1387.61,248.427 C 1388.41,248.427 1388.91,249.627 1388.91,250.227 V 262.727 C 1388.91,263.327 1389.51,263.827 1390.21,263.827 C 1391.31,263.827 1391.91,263.327 1391.91,262.727 V 248.527 C 1391.91,247.727 1392.31,246.527 1393.01,246.227 C 1393.71,245.927 1395.81,245.127 1395.81,245.127 C 1396.51,244.827 1397.01,244.027 1397.01,243.427 V 236.327 C 1397.01,235.827 1396.71,235.527 1396.31,235.527 C 1396.11,235.527 1396.01,235.527 1395.81,235.627 L 1393.21,236.627 C 1392.61,236.627 1391.91,236.027 1391.91,234.827 V 225.527 C 1391.91,224.827 1392.41,222.927 1393.21,222.627 L 1395.81,221.627 C 1396.51,221.327 1397.01,220.527 1397.01,219.927 V 212.827 C 1397.01,212.327 1396.71,212.027 1396.31,212.027 C 1396.11,212.027 1396.01,212.027 1395.81,212.127 C 1395.81,212.127 1393.81,212.927 1393.31,213.027 C 1392.61,213.027 1391.91,212.527 1391.91,211.727 V 199.527 C 1391.91,198.927 1391.31,198.427 1390.51,198.427 C 1389.51,198.427 1388.91,198.927 1388.91,199.527 V 212.527 C 1388.81,213.527 1388.51,214.827 1387.61,215.427 C 1386.41,216.127 1383.01,217.527 1381.31,217.927 C 1380.41,217.927 1380.11,216.727 1380.11,215.927 V 203.927 C 1380.11,203.327 1379.41,202.827 1378.71,202.827 C 1377.71,202.827 1377.11,203.327 1377.11,203.927 V 217.427 C 1377.11,218.827 1376.51,219.827 1375.91,220.127 C 1375.31,220.427 1373.31,221.227 1373.31,221.227 C 1372.61,221.427 1372.11,222.227 1372.11,222.827 V 229.927 C 1372.11,230.527 1372.41,230.827 1372.91,230.827 C 1373.31,230.827 1375.21,229.927 1375.51,229.727 C 1376.51,229.727 1377.11,230.227 1377.11,231.427 V 241.327 C 1377.11,242.427 1376.61,243.327 1376.01,243.627 C 1375.41,243.827 1373.31,244.727 1373.31,244.727 C 1372.61,244.927 1372.11,245.727 1372.11,246.327 V 253.427 C 1372.11,254.027 1372.41,254.327 1372.91,254.327 M 1380.11,229.027 C 1380.31,227.327 1384.91,225.227 1387.41,225.227 C 1388.11,225.227 1388.71,225.427 1388.91,225.827 C 1389.11,226.327 1389.31,228.827 1389.31,231.527 C 1389.31,234.227 1389.11,237.027 1388.91,237.927 C 1388.31,239.927 1383.61,241.927 1381.31,241.927 C 1380.71,241.927 1380.21,241.727 1380.11,241.427 C 1379.91,241.027 1379.81,238.827 1379.81,236.427 C 1379.81,233.327 1379.91,229.827 1380.11,229.027"
     id="path694" />
  <path
     class=""
     d="M 1238.21,229.327 C 1238.31,229.327 1238.51,229.227 1238.61,229.227 C 1238.61,229.227 1240.01,228.627 1240.91,228.327 C 1241.01,228.227 1241.11,228.227 1241.21,228.227 C 1241.91,228.227 1242.41,229.327 1242.41,229.827 V 242.127 C 1242.41,242.727 1243.01,243.227 1243.71,243.227 C 1244.71,243.227 1245.41,242.727 1245.41,242.127 V 228.227 C 1245.41,226.927 1245.91,226.227 1246.41,226.027 L 1252.51,223.527 C 1252.61,223.527 1252.81,223.427 1252.91,223.427 C 1253.71,223.427 1254.21,224.627 1254.21,225.227 V 237.727 C 1254.21,238.327 1254.81,238.827 1255.51,238.827 C 1256.61,238.827 1257.21,238.327 1257.21,237.727 V 223.527 C 1257.21,222.727 1257.61,221.527 1258.31,221.227 C 1259.01,220.927 1261.11,220.127 1261.11,220.127 C 1261.81,219.827 1262.31,219.027 1262.31,218.427 V 211.327 C 1262.31,210.827 1262.01,210.527 1261.61,210.527 C 1261.41,210.527 1261.31,210.527 1261.11,210.627 L 1258.51,211.627 C 1257.91,211.627 1257.21,211.027 1257.21,209.827 V 200.527 C 1257.21,199.827 1257.71,197.927 1258.51,197.627 L 1261.11,196.627 C 1261.81,196.327 1262.31,195.527 1262.31,194.927 V 187.827 C 1262.31,187.327 1262.01,187.027 1261.61,187.027 C 1261.41,187.027 1261.31,187.027 1261.11,187.127 C 1261.11,187.127 1259.11,187.927 1258.61,188.027 C 1257.91,188.027 1257.21,187.527 1257.21,186.727 V 174.527 C 1257.21,173.927 1256.61,173.427 1255.81,173.427 C 1254.81,173.427 1254.21,173.927 1254.21,174.527 V 187.527 C 1254.11,188.527 1253.81,189.827 1252.91,190.427 C 1251.71,191.127 1248.31,192.527 1246.61,192.927 C 1245.71,192.927 1245.41,191.727 1245.41,190.927 V 178.927 C 1245.41,178.327 1244.71,177.827 1244.01,177.827 C 1243.01,177.827 1242.41,178.327 1242.41,178.927 V 192.427 C 1242.41,193.827 1241.81,194.827 1241.21,195.127 C 1240.61,195.427 1238.61,196.227 1238.61,196.227 C 1237.91,196.427 1237.41,197.227 1237.41,197.827 V 204.927 C 1237.41,205.527 1237.71,205.827 1238.21,205.827 C 1238.61,205.827 1240.51,204.927 1240.81,204.727 C 1241.81,204.727 1242.41,205.227 1242.41,206.427 V 216.327 C 1242.41,217.427 1241.91,218.327 1241.31,218.627 C 1240.71,218.827 1238.61,219.727 1238.61,219.727 C 1237.91,219.927 1237.41,220.727 1237.41,221.327 V 228.427 C 1237.41,229.027 1237.71,229.327 1238.21,229.327 M 1245.41,204.027 C 1245.61,202.327 1250.21,200.227 1252.71,200.227 C 1253.41,200.227 1254.01,200.427 1254.21,200.827 C 1254.41,201.327 1254.61,203.827 1254.61,206.527 C 1254.61,209.227 1254.41,212.027 1254.21,212.927 C 1253.61,214.927 1248.91,216.927 1246.61,216.927 C 1246.01,216.927 1245.51,216.727 1245.41,216.427 C 1245.21,216.027 1245.11,213.827 1245.11,211.427 C 1245.11,208.327 1245.21,204.827 1245.41,204.027"
     id="path696" />
  <path
     class=""
     d="M 1134.67,240.427 C 1134.77,240.427 1135.27,240.327 1135.37,240.227 C 1136.77,239.627 1142.37,237.227 1145.27,237.227 C 1146.27,237.227 1146.97,237.527 1146.97,238.327 V 253.227 C 1146.97,253.927 1147.47,254.427 1148.17,254.427 H 1149.47 C 1150.07,254.427 1150.67,253.927 1150.67,253.227 V 203.027 C 1150.67,202.527 1150.27,202.227 1149.87,202.227 C 1149.77,202.227 1149.57,202.227 1149.47,202.327 L 1147.97,202.827 C 1147.77,202.827 1147.67,202.927 1147.57,202.927 C 1147.57,202.927 1141.17,205.227 1138.57,205.227 C 1137.97,205.227 1137.57,205.127 1137.57,204.727 V 188.027 C 1137.57,187.327 1136.97,186.827 1136.37,186.827 H 1135.07 C 1134.37,186.827 1133.87,187.327 1133.87,188.027 V 239.527 C 1133.87,240.127 1134.17,240.427 1134.67,240.427 M 1137.57,217.027 C 1137.57,215.627 1143.67,213.027 1146.07,213.027 C 1146.67,213.027 1146.97,213.127 1146.97,213.527 V 223.827 C 1146.97,225.627 1141.27,227.927 1138.77,227.927 C 1138.07,227.927 1137.57,227.727 1137.57,227.327 V 217.027"
     id="path698" />
  <path
     class=""
     d="M 1023.03,290.427 C 1023.13,290.427 1023.63,290.327 1023.73,290.227 C 1025.13,289.627 1030.73,287.227 1033.63,287.227 C 1034.63,287.227 1035.33,287.527 1035.33,288.327 V 303.227 C 1035.33,303.927 1035.83,304.427 1036.53,304.427 H 1037.83 C 1038.43,304.427 1039.03,303.927 1039.03,303.227 V 253.027 C 1039.03,252.527 1038.63,252.227 1038.23,252.227 C 1038.13,252.227 1037.93,252.227 1037.83,252.327 L 1036.33,252.827 C 1036.13,252.827 1036.03,252.927 1035.93,252.927 C 1035.93,252.927 1029.53,255.227 1026.93,255.227 C 1026.33,255.227 1025.93,255.127 1025.93,254.727 V 238.027 C 1025.93,237.327 1025.33,236.827 1024.73,236.827 H 1023.43 C 1022.73,236.827 1022.23,237.327 1022.23,238.027 V 289.527 C 1022.23,290.127 1022.53,290.427 1023.03,290.427 M 1025.93,267.027 C 1025.93,265.627 1032.03,263.027 1034.43,263.027 C 1035.03,263.027 1035.33,263.127 1035.33,263.527 V 273.827 C 1035.33,275.627 1029.63,277.927 1027.13,277.927 C 1026.43,277.927 1025.93,277.727 1025.93,277.327 V 267.027"
     id="path700" />
  <path
     class=""
     d="M 771.306,279.327 C 771.406,279.327 771.606,279.227 771.706,279.227 C 771.706,279.227 773.106,278.627 774.006,278.327 C 774.106,278.227 774.206,278.227 774.306,278.227 C 775.006,278.227 775.506,279.327 775.506,279.827 V 292.127 C 775.506,292.727 776.106,293.227 776.806,293.227 C 777.806,293.227 778.506,292.727 778.506,292.127 V 278.227 C 778.506,276.927 779.006,276.227 779.506,276.027 L 785.606,273.527 C 785.706,273.527 785.906,273.427 786.006,273.427 C 786.806,273.427 787.306,274.627 787.306,275.227 V 287.727 C 787.306,288.327 787.906,288.827 788.606,288.827 C 789.706,288.827 790.306,288.327 790.306,287.727 V 273.527 C 790.306,272.727 790.706,271.527 791.406,271.227 C 792.106,270.927 794.206,270.127 794.206,270.127 C 794.906,269.827 795.406,269.027 795.406,268.427 V 261.327 C 795.406,260.827 795.106,260.527 794.706,260.527 C 794.506,260.527 794.406,260.527 794.206,260.627 L 791.606,261.627 C 791.006,261.627 790.306,261.027 790.306,259.827 V 250.527 C 790.306,249.827 790.806,247.927 791.606,247.627 L 794.206,246.627 C 794.906,246.327 795.406,245.527 795.406,244.927 V 237.827 C 795.406,237.327 795.106,237.027 794.706,237.027 C 794.506,237.027 794.406,237.027 794.206,237.127 C 794.206,237.127 792.206,237.927 791.706,238.027 C 791.006,238.027 790.306,237.527 790.306,236.727 V 224.527 C 790.306,223.927 789.706,223.427 788.906,223.427 C 787.906,223.427 787.306,223.927 787.306,224.527 V 237.527 C 787.206,238.527 786.906,239.827 786.006,240.427 C 784.806,241.127 781.406,242.527 779.706,242.927 C 778.806,242.927 778.506,241.727 778.506,240.927 V 228.927 C 778.506,228.327 777.806,227.827 777.106,227.827 C 776.106,227.827 775.506,228.327 775.506,228.927 V 242.427 C 775.506,243.827 774.906,244.827 774.306,245.127 C 773.706,245.427 771.706,246.227 771.706,246.227 C 771.006,246.427 770.506,247.227 770.506,247.827 V 254.927 C 770.506,255.527 770.806,255.827 771.306,255.827 C 771.706,255.827 773.606,254.927 773.906,254.727 C 774.906,254.727 775.506,255.227 775.506,256.427 V 266.327 C 775.506,267.427 775.006,268.327 774.406,268.627 C 773.806,268.827 771.706,269.727 771.706,269.727 C 771.006,269.927 770.506,270.727 770.506,271.327 V 278.427 C 770.506,279.027 770.806,279.327 771.306,279.327 M 778.506,254.027 C 778.706,252.327 783.306,250.227 785.806,250.227 C 786.506,250.227 787.106,250.427 787.306,250.827 C 787.506,251.327 787.706,253.827 787.706,256.527 C 787.706,259.227 787.506,262.027 787.306,262.927 C 786.706,264.927 782.006,266.927 779.706,266.927 C 779.106,266.927 778.606,266.727 778.506,266.427 C 778.306,266.027 778.206,263.827 778.206,261.427 C 778.206,258.327 778.306,254.827 778.506,254.027"
     id="path702" />
  <path
     class=""
     d="M 638.111,254.327 C 638.211,254.327 638.411,254.227 638.511,254.227 C 638.511,254.227 639.911,253.627 640.811,253.327 C 640.911,253.227 641.011,253.227 641.111,253.227 C 641.811,253.227 642.311,254.327 642.311,254.827 V 267.127 C 642.311,267.727 642.911,268.227 643.611,268.227 C 644.611,268.227 645.311,267.727 645.311,267.127 V 253.227 C 645.311,251.927 645.811,251.227 646.311,251.027 L 652.411,248.527 C 652.511,248.527 652.711,248.427 652.811,248.427 C 653.611,248.427 654.111,249.627 654.111,250.227 V 262.727 C 654.111,263.327 654.711,263.827 655.411,263.827 C 656.511,263.827 657.111,263.327 657.111,262.727 V 248.527 C 657.111,247.727 657.511,246.527 658.211,246.227 C 658.911,245.927 661.011,245.127 661.011,245.127 C 661.711,244.827 662.211,244.027 662.211,243.427 V 236.327 C 662.211,235.827 661.911,235.527 661.511,235.527 C 661.311,235.527 661.211,235.527 661.011,235.627 L 658.411,236.627 C 657.811,236.627 657.111,236.027 657.111,234.827 V 225.527 C 657.111,224.827 657.611,222.927 658.411,222.627 L 661.011,221.627 C 661.711,221.327 662.211,220.527 662.211,219.927 V 212.827 C 662.211,212.327 661.911,212.027 661.511,212.027 C 661.311,212.027 661.211,212.027 661.011,212.127 C 661.011,212.127 659.011,212.927 658.511,213.027 C 657.811,213.027 657.111,212.527 657.111,211.727 V 199.527 C 657.111,198.927 656.511,198.427 655.711,198.427 C 654.711,198.427 654.111,198.927 654.111,199.527 V 212.527 C 654.011,213.527 653.711,214.827 652.811,215.427 C 651.611,216.127 648.211,217.527 646.511,217.927 C 645.611,217.927 645.311,216.727 645.311,215.927 V 203.927 C 645.311,203.327 644.611,202.827 643.911,202.827 C 642.911,202.827 642.311,203.327 642.311,203.927 V 217.427 C 642.311,218.827 641.711,219.827 641.111,220.127 C 640.511,220.427 638.511,221.227 638.511,221.227 C 637.811,221.427 637.311,222.227 637.311,222.827 V 229.927 C 637.311,230.527 637.611,230.827 638.111,230.827 C 638.511,230.827 640.411,229.927 640.711,229.727 C 641.711,229.727 642.311,230.227 642.311,231.427 V 241.327 C 642.311,242.427 641.811,243.327 641.211,243.627 C 640.611,243.827 638.511,244.727 638.511,244.727 C 637.811,244.927 637.311,245.727 637.311,246.327 V 253.427 C 637.311,254.027 637.611,254.327 638.111,254.327 M 645.311,229.027 C 645.511,227.327 650.111,225.227 652.611,225.227 C 653.311,225.227 653.911,225.427 654.111,225.827 C 654.311,226.327 654.511,228.827 654.511,231.527 C 654.511,234.227 654.311,237.027 654.111,237.927 C 653.511,239.927 648.811,241.927 646.511,241.927 C 645.911,241.927 645.411,241.727 645.311,241.427 C 645.111,241.027 645.011,238.827 645.011,236.427 C 645.011,233.327 645.111,229.827 645.311,229.027"
     id="path704" />
  <path
     class=""
     d="M 503.415,229.327 C 503.515,229.327 503.715,229.227 503.815,229.227 C 503.815,229.227 505.215,228.627 506.115,228.327 C 506.215,228.227 506.315,228.227 506.415,228.227 C 507.115,228.227 507.615,229.327 507.615,229.827 V 242.127 C 507.615,242.727 508.215,243.227 508.915,243.227 C 509.915,243.227 510.615,242.727 510.615,242.127 V 228.227 C 510.615,226.927 511.115,226.227 511.615,226.027 L 517.715,223.527 C 517.815,223.527 518.015,223.427 518.115,223.427 C 518.915,223.427 519.415,224.627 519.415,225.227 V 237.727 C 519.415,238.327 520.015,238.827 520.715,238.827 C 521.815,238.827 522.415,238.327 522.415,237.727 V 223.527 C 522.415,222.727 522.815,221.527 523.515,221.227 C 524.215,220.927 526.315,220.127 526.315,220.127 C 527.015,219.827 527.515,219.027 527.515,218.427 V 211.327 C 527.515,210.827 527.215,210.527 526.815,210.527 C 526.615,210.527 526.515,210.527 526.315,210.627 L 523.715,211.627 C 523.115,211.627 522.415,211.027 522.415,209.827 V 200.527 C 522.415,199.827 522.915,197.927 523.715,197.627 L 526.315,196.627 C 527.015,196.327 527.515,195.527 527.515,194.927 V 187.827 C 527.515,187.327 527.215,187.027 526.815,187.027 C 526.615,187.027 526.515,187.027 526.315,187.127 C 526.315,187.127 524.315,187.927 523.815,188.027 C 523.115,188.027 522.415,187.527 522.415,186.727 V 174.527 C 522.415,173.927 521.815,173.427 521.015,173.427 C 520.015,173.427 519.415,173.927 519.415,174.527 V 187.527 C 519.315,188.527 519.015,189.827 518.115,190.427 C 516.915,191.127 513.515,192.527 511.815,192.927 C 510.915,192.927 510.615,191.727 510.615,190.927 V 178.927 C 510.615,178.327 509.915,177.827 509.215,177.827 C 508.215,177.827 507.615,178.327 507.615,178.927 V 192.427 C 507.615,193.827 507.015,194.827 506.415,195.127 C 505.815,195.427 503.815,196.227 503.815,196.227 C 503.115,196.427 502.615,197.227 502.615,197.827 V 204.927 C 502.615,205.527 502.915,205.827 503.415,205.827 C 503.815,205.827 505.715,204.927 506.015,204.727 C 507.015,204.727 507.615,205.227 507.615,206.427 V 216.327 C 507.615,217.427 507.115,218.327 506.515,218.627 C 505.915,218.827 503.815,219.727 503.815,219.727 C 503.115,219.927 502.615,220.727 502.615,221.327 V 228.427 C 502.615,229.027 502.915,229.327 503.415,229.327 M 510.615,204.027 C 510.815,202.327 515.415,200.227 517.915,200.227 C 518.615,200.227 519.215,200.427 519.415,200.827 C 519.615,201.327 519.815,203.827 519.815,206.527 C 519.815,209.227 519.615,212.027 519.415,212.927 C 518.815,214.927 514.115,216.927 511.815,216.927 C 511.215,216.927 510.715,216.727 510.615,216.427 C 510.415,216.027 510.315,213.827 510.315,211.427 C 510.315,208.327 510.415,204.827 510.615,204.027"
     id="path706" />
  <path
     class=""
     d="M 429.97,240.427 C 430.07,240.427 430.57,240.327 430.67,240.227 C 432.07,239.627 437.67,237.227 440.57,237.227 C 441.57,237.227 442.27,237.527 442.27,238.327 V 253.227 C 442.27,253.927 442.77,254.427 443.47,254.427 H 444.77 C 445.37,254.427 445.97,253.927 445.97,253.227 V 203.027 C 445.97,202.527 445.57,202.227 445.17,202.227 C 445.07,202.227 444.87,202.227 444.77,202.327 L 443.27,202.827 C 443.07,202.827 442.97,202.927 442.87,202.927 C 442.87,202.927 436.47,205.227 433.87,205.227 C 433.27,205.227 432.87,205.127 432.87,204.727 V 188.027 C 432.87,187.327 432.27,186.827 431.67,186.827 H 430.37 C 429.67,186.827 429.17,187.327 429.17,188.027 V 239.527 C 429.17,240.127 429.47,240.427 429.97,240.427 M 432.87,217.027 C 432.87,215.627 438.97,213.027 441.37,213.027 C 441.97,213.027 442.27,213.127 442.27,213.527 V 223.827 C 442.27,225.627 436.57,227.927 434.07,227.927 C 433.37,227.927 432.87,227.727 432.87,227.327 V 217.027"
     id="path708" />
  <polyline
     class=""
     stroke="#000000"
     stroke-width="4"
     stroke-linecap="square"
     stroke-linejoin="bevel"
     points="1662.86,236.427 1705.76,236.427"
     id="polyline710"
     transform="translate(0,22)" />
  <polyline
     class=""
     stroke="#000000"
     stroke-width="4"
     stroke-linecap="square"
     stroke-linejoin="bevel"
     points="1662.86,211.427 1705.76,211.427"
     id="polyline712"
     transform="translate(0,22)" />
  <polyline
     class=""
     stroke="#000000"
     stroke-width="4"
     stroke-linecap="square"
     stroke-linejoin="bevel"
     points="1662.86,186.427 1705.76,186.427"
     id="polyline714"
     transform="translate(0,22)" />
  <polyline
     class=""
     stroke="#000000"
     stroke-width="4"
     stroke-linecap="square"
     stroke-linejoin="bevel"
     points="1565.95,236.427 1608.85,236.427"
     id="polyline716"
     transform="translate(0,22)" />
  <polyline
     class=""
     stroke="#000000"
     stroke-width="4"
     stroke-linecap="square"
     stroke-linejoin="bevel"
     points="1565.95,211.427 1608.85,211.427"
     id="polyline718"
     transform="translate(0,22)" />
  <polyline
     class=""
     stroke="#000000"
     stroke-width="4"
     stroke-linecap="square"
     stroke-linejoin="bevel"
     points="1565.95,186.427 1608.85,186.427"
     id="polyline720"
     transform="translate(0,22)" />
  <polyline
     class=""
     stroke="#000000"
     stroke-width="4"
     stroke-linecap="square"
     stroke-linejoin="bevel"
     points="1402.5,211.427 1445.4,211.427"
     id="polyline722"
     transform="translate(0,22)" />
  <polyline
     class=""
     stroke="#000000"
     stroke-width="4"
     stroke-linecap="square"
     stroke-linejoin="bevel"
     points="1402.5,186.427 1445.4,186.427"
     id="polyline724"
     transform="translate(0,22)" />
  <polyline
     class=""
     stroke="#000000"
     stroke-width="4"
     stroke-linecap="square"
     stroke-linejoin="bevel"
     points="1455.65,186.427 1498.55,186.427"
     id="polyline726"
     transform="translate(0,22)" />
  <polyline
     class=""
     stroke="#000000"
     stroke-width="4"
     stroke-linecap="square"
     stroke-linejoin="bevel"
     points="1320.96,186.427 1363.86,186.427"
     id="polyline728"
     transform="translate(0,22)" />
  <polyline
     class=""
     stroke="#000000"
     stroke-width="4"
     stroke-linecap="square"
     stroke-linejoin="bevel"
     points="1267.81,186.427 1310.71,186.427"
     id="polyline730"
     transform="translate(0,22)" />
  <polyline
     class=""
     stroke="#000000"
     stroke-width="4"
     stroke-linecap="square"
     stroke-linejoin="bevel"
     points="1156.17,186.427 1199.07,186.427"
     id="polyline732"
     transform="translate(0,22)" />
  <polyline
     class=""
     stroke="#000000"
     stroke-width="4"
     stroke-linecap="square"
     stroke-linejoin="bevel"
     points="1044.52,236.427 1087.42,236.427"
     id="polyline734"
     transform="translate(0,22)" />
  <polyline
     class=""
     stroke="#000000"
     stroke-width="4"
     stroke-linecap="square"
     stroke-linejoin="bevel"
     points="1044.52,211.427 1087.42,211.427"
     id="polyline736"
     transform="translate(0,22)" />
  <polyline
     class=""
     stroke="#000000"
     stroke-width="4"
     stroke-linecap="square"
     stroke-linejoin="bevel"
     points="1044.52,186.427 1087.42,186.427"
     id="polyline738"
     transform="translate(0,22)" />
  <polyline
     class=""
     stroke="#000000"
     stroke-width="4"
     stroke-linecap="square"
     stroke-linejoin="bevel"
     points="932.882,211.427 975.78,211.427"
     id="polyline740"
     transform="translate(0,22)" />
  <polyline
     class=""
     stroke="#000000"
     stroke-width="4"
     stroke-linecap="square"
     stroke-linejoin="bevel"
     points="932.882,186.427 975.78,186.427"
     id="polyline742"
     transform="translate(0,22)" />
  <polyline
     class=""
     stroke="#000000"
     stroke-width="4"
     stroke-linecap="square"
     stroke-linejoin="bevel"
     points="800.904,236.427 843.803,236.427"
     id="polyline744"
     transform="translate(0,22)" />
  <polyline
     class=""
     stroke="#000000"
     stroke-width="4"
     stroke-linecap="square"
     stroke-linejoin="bevel"
     points="800.904,211.427 843.803,211.427"
     id="polyline746"
     transform="translate(0,22)" />
  <polyline
     class=""
     stroke="#000000"
     stroke-width="4"
     stroke-linecap="square"
     stroke-linejoin="bevel"
     points="800.904,186.427 843.803,186.427"
     id="polyline748"
     transform="translate(0,22)" />
  <polyline
     class=""
     stroke="#000000"
     stroke-width="4"
     stroke-linecap="square"
     stroke-linejoin="bevel"
     points="667.709,211.427 710.607,211.427"
     id="polyline750"
     transform="translate(0,22)" />
  <polyline
     class=""
     stroke="#000000"
     stroke-width="4"
     stroke-linecap="square"
     stroke-linejoin="bevel"
     points="667.709,186.427 710.607,186.427"
     id="polyline752"
     transform="translate(0,22)" />
  <polyline
     class=""
     stroke="#000000"
     stroke-width="4"
     stroke-linecap="square"
     stroke-linejoin="bevel"
     points="720.857,186.427 763.756,186.427"
     id="polyline754"
     transform="translate(0,22)" />
  <polyline
     class=""
     stroke="#000000"
     stroke-width="4"
     stroke-linecap="square"
     stroke-linejoin="bevel"
     points="586.162,186.427 629.061,186.427"
     id="polyline756"
     transform="translate(0,22)" />
  <polyline
     class=""
     stroke="#000000"
     stroke-width="4"
     stroke-linecap="square"
     stroke-linejoin="bevel"
     points="451.467,186.427 494.365,186.427"
     id="polyline758"
     transform="translate(0,22)" />
  <polyline
     class=""
     stroke="#000000"
     stroke-width="4"
     stroke-linecap="square"
     stroke-linejoin="bevel"
     points="533.014,186.427 575.912,186.427"
     id="polyline760"
     transform="translate(0,22)" />
  <polyline
     class=""
     stroke="#000000"
     stroke-width="4"
     stroke-linecap="square"
     stroke-linejoin="bevel"
     points="355.489,186.427 398.388,186.427"
     id="polyline762"
     transform="translate(0,22)" />
  <polyline
     class=""
     stroke="#000000"
     stroke-width="3"
     stroke-linecap="round"
     stroke-linejoin="bevel"
     points="1699.26,245.567 1699.26,111.427"
     id="polyline764"
     transform="translate(0,22)" />
  <polyline
     class=""
     stroke="#000000"
     stroke-width="3"
     stroke-linecap="round"
     stroke-linejoin="bevel"
     points="1602.35,233.067 1602.35,111.427"
     id="polyline766"
     transform="translate(0,22)" />
  <polyline
     class=""
     stroke="#000000"
     stroke-width="3"
     stroke-linecap="round"
     stroke-linejoin="bevel"
     points="1492.05,195.567 1492.05,117.677"
     id="polyline768"
     transform="translate(0,22)" />
  <polyline
     class=""
     stroke="#000000"
     stroke-width="3"
     stroke-linecap="round"
     stroke-linejoin="bevel"
     points="1438.9,208.067 1438.9,115.908"
     id="polyline770"
     transform="translate(0,22)" />
  <polyline
     class=""
     stroke="#000000"
     stroke-width="3"
     stroke-linecap="round"
     stroke-linejoin="bevel"
     points="1304.21,183.067 1304.21,111.427"
     id="polyline772"
     transform="translate(0,22)" />
  <polyline
     class=""
     stroke="#000000"
     stroke-width="3"
     stroke-linecap="round"
     stroke-linejoin="bevel"
     points="1357.36,195.567 1357.36,113.195"
     id="polyline774"
     transform="translate(0,22)" />
  <polyline
     class=""
     stroke="#000000"
     stroke-width="3"
     stroke-linecap="round"
     stroke-linejoin="bevel"
     points="1192.57,195.567 1192.57,111.427"
     id="polyline776"
     transform="translate(0,22)" />
  <polyline
     class=""
     stroke="#000000"
     stroke-width="3"
     stroke-linecap="round"
     stroke-linejoin="bevel"
     points="1080.92,245.567 1080.92,111.427"
     id="polyline778"
     transform="translate(0,22)" />
  <polyline
     class=""
     stroke="#000000"
     stroke-width="3"
     stroke-linecap="round"
     stroke-linejoin="bevel"
     points="969.28,220.567 969.28,111.427"
     id="polyline780"
     transform="translate(0,22)" />
  <polyline
     class=""
     stroke="#000000"
     stroke-width="3"
     stroke-linecap="round"
     stroke-linejoin="bevel"
     points="837.303,233.067 837.303,111.427"
     id="polyline782"
     transform="translate(0,22)" />
  <polyline
     class=""
     stroke="#000000"
     stroke-width="3"
     stroke-linecap="round"
     stroke-linejoin="bevel"
     points="757.256,195.567 757.256,92.6766"
     id="polyline784"
     transform="translate(0,22)" />
  <polyline
     class=""
     stroke="#000000"
     stroke-width="3"
     stroke-linecap="round"
     stroke-linejoin="bevel"
     points="704.107,208.067 704.107,92.6766"
     id="polyline786"
     transform="translate(0,22)" />
  <polyline
     class=""
     stroke="#000000"
     stroke-width="3"
     stroke-linecap="round"
     stroke-linejoin="bevel"
     points="569.412,183.067 569.412,92.6766"
     id="polyline788"
     transform="translate(0,22)" />
  <polyline
     class=""
     stroke="#000000"
     stroke-width="3"
     stroke-linecap="round"
     stroke-linejoin="bevel"
     points="622.561,195.567 622.561,92.6766"
     id="polyline790"
     transform="translate(0,22)" />
  <polyline
     class=""
     stroke="#000000"
     stroke-width="3"
     stroke-linecap="round"
     stroke-linejoin="bevel"
     points="487.865,195.567 487.865,92.6766"
     id="polyline792"
     transform="translate(0,22)" />
  <polyline
     class=""
     stroke="#000000"
     stroke-width="3"
     stroke-linecap="round"
     stroke-linejoin="bevel"
     points="391.888,195.567 391.888,111.427"
     id="polyline794"
     transform="translate(0,22)" />
  <polyline
     class=""
     stroke="#000000"
     stroke-width="3"
     stroke-linecap="round"
     stroke-linejoin="bevel"
     points="295.91,158.067 295.91,73.9265"
     id="polyline796"
     transform="translate(0,22)" />
  <path
     class=""
     d="M 1678.66,284.927 C 1688.56,284.927 1700.76,275.727 1700.76,266.227 C 1700.76,260.627 1696.26,256.927 1689.86,256.927 C 1677.66,256.927 1667.86,266.027 1667.86,275.627 C 1667.86,281.427 1672.66,284.927 1678.66,284.927"
     id="path798" />
  <path
     class=""
     d="M 1581.75,272.427 C 1600.15,272.427 1603.85,257.427 1603.85,253.827 C 1603.85,248.127 1599.35,244.427 1592.85,244.427 C 1576.15,244.427 1570.95,257.327 1570.95,263.127 C 1570.95,269.027 1575.65,272.427 1581.75,272.427 M 1590.25,263.527 C 1585.25,266.927 1581.75,268.127 1579.35,268.127 C 1577.05,268.127 1575.65,266.927 1574.95,265.527 C 1574.55,264.927 1574.25,264.127 1574.25,263.327 C 1574.25,257.927 1590.35,249.027 1595.65,249.027 C 1597.75,249.027 1598.95,250.027 1599.75,251.427 C 1600.05,252.027 1600.35,252.727 1600.35,253.527 C 1600.35,255.727 1598.05,258.427 1590.25,263.527"
     id="path800" />
  <path
     class=""
     d="M 1471.45,234.927 C 1481.35,234.927 1493.55,225.727 1493.55,216.227 C 1493.55,210.627 1489.05,206.927 1482.65,206.927 C 1470.45,206.927 1460.65,216.027 1460.65,225.627 C 1460.65,231.427 1465.45,234.927 1471.45,234.927"
     id="path804" />
  <path
     class=""
     d="M 1060.32,284.927 C 1070.22,284.927 1082.42,275.727 1082.42,266.227 C 1082.42,260.627 1077.92,256.927 1071.52,256.927 C 1059.32,256.927 1049.52,266.027 1049.52,275.627 C 1049.52,281.427 1054.32,284.927 1060.32,284.927"
     id="path806" />
  <path
     class=""
     d="M 1336.76,234.927 C 1346.66,234.927 1358.86,225.727 1358.86,216.227 C 1358.86,210.627 1354.36,206.927 1347.96,206.927 C 1335.76,206.927 1325.96,216.027 1325.96,225.627 C 1325.96,231.427 1330.76,234.927 1336.76,234.927"
     id="path808" />
  <path
     class=""
     d="M 1283.61,222.427 C 1293.51,222.427 1305.71,213.227 1305.71,203.727 C 1305.71,198.127 1301.21,194.427 1294.81,194.427 C 1282.61,194.427 1272.81,203.527 1272.81,213.127 C 1272.81,218.927 1277.61,222.427 1283.61,222.427"
     id="path810" />
  <path
     class=""
     d="M 1171.97,234.927 C 1181.87,234.927 1194.07,225.727 1194.07,216.227 C 1194.07,210.627 1189.57,206.927 1183.17,206.927 C 1170.97,206.927 1161.17,216.027 1161.17,225.627 C 1161.17,231.427 1165.97,234.927 1171.97,234.927"
     id="path812" />
  <path
     class=""
     d="M 948.682,259.927 C 958.582,259.927 970.782,250.727 970.782,241.227 C 970.782,235.627 966.282,231.927 959.882,231.927 C 947.682,231.927 937.882,241.027 937.882,250.627 C 937.882,256.427 942.682,259.927 948.682,259.927"
     id="path814" />
  <path
     class=""
     d="M 736.657,234.927 C 746.557,234.927 758.757,225.727 758.757,216.227 C 758.757,210.627 754.257,206.927 747.857,206.927 C 735.657,206.927 725.857,216.027 725.857,225.627 C 725.857,231.427 730.657,234.927 736.657,234.927"
     id="path816" />
  <path
     class=""
     d="M 816.704,272.427 C 826.604,272.427 838.804,263.227 838.804,253.727 C 838.804,248.127 834.304,244.427 827.904,244.427 C 815.704,244.427 805.904,253.527 805.904,263.127 C 805.904,268.927 810.704,272.427 816.704,272.427"
     id="path818" />
  <path
     class=""
     d="M 683.509,247.427 C 693.409,247.427 705.609,238.227 705.609,228.727 C 705.609,223.127 701.109,219.427 694.709,219.427 C 682.509,219.427 672.709,228.527 672.709,238.127 C 672.709,243.927 677.509,247.427 683.509,247.427"
     id="path820" />
  <path
     class=""
     d="M 548.814,222.427 C 558.714,222.427 570.914,213.227 570.914,203.727 C 570.914,198.127 566.414,194.427 560.014,194.427 C 547.814,194.427 538.014,203.527 538.014,213.127 C 538.014,218.927 542.814,222.427 548.814,222.427"
     id="path822" />
  <path
     class=""
     d="M 601.962,234.927 C 611.862,234.927 624.062,225.727 624.062,216.227 C 624.062,210.627 619.562,206.927 613.162,206.927 C 600.962,206.927 591.162,216.027 591.162,225.627 C 591.162,231.427 595.962,234.927 601.962,234.927"
     id="path824" />
  <path
     class=""
     d="M 467.267,234.927 C 477.167,234.927 489.367,225.727 489.367,216.227 C 489.367,210.627 484.867,206.927 478.467,206.927 C 466.267,206.927 456.467,216.027 456.467,225.627 C 456.467,231.427 461.267,234.927 467.267,234.927"
     id="path826" />
  <path
     class=""
     d="M 371.289,234.927 C 381.189,234.927 393.389,225.727 393.389,216.227 C 393.389,210.627 388.889,206.927 382.489,206.927 C 370.289,206.927 360.489,216.027 360.489,225.627 C 360.489,231.427 365.289,234.927 371.289,234.927"
     id="path828" />
  <path
     class=""
     d="M 275.312,197.427 C 285.212,197.427 297.412,188.227 297.412,178.727 C 297.412,173.127 292.912,169.427 286.512,169.427 C 274.312,169.427 264.512,178.527 264.512,188.127 C 264.512,193.927 269.312,197.427 275.312,197.427"
     id="path830" />
  <path
     class=""
     d="M 94.418,64.1266 C 97.718,64.1266 100.418,66.8266 100.418,72.3266 C 100.418,83.4266 90.918,92.4266 83.018,99.3266 C 82.718,99.5266 82.518,99.7266 82.318,99.7266 C 82.018,99.7266 81.818,99.3266 81.718,98.5266 C 81.318,95.9266 81.118,92.5266 81.118,89.3266 C 81.118,73.7266 88.318,64.1266 94.418,64.1266 M 90.418,148.127 C 90.218,147.027 90.318,146.727 91.118,146.727 C 91.218,146.727 91.418,146.727 91.518,146.727 C 99.618,147.427 106.318,154.227 106.318,163.027 C 106.318,169.327 102.518,174.427 96.918,177.227 C 96.418,177.427 96.118,177.627 95.918,177.627 C 95.518,177.627 95.418,177.327 95.318,176.627 L 90.418,148.127 M 83.518,132.227 C 83.818,134.127 83.818,134.027 82.018,134.627 C 73.218,137.627 67.518,145.527 67.518,154.027 C 67.518,163.027 72.218,169.427 79.018,171.727 C 79.818,172.027 81.018,172.327 81.718,172.327 C 82.518,172.327 82.918,171.827 82.918,171.227 C 82.918,170.527 82.118,170.227 81.418,169.927 C 77.218,168.127 74.218,163.827 74.218,159.227 C 74.218,153.527 78.118,149.227 84.218,147.527 C 84.718,147.427 85.118,147.327 85.418,147.327 C 85.918,147.327 86.118,147.627 86.218,148.327 L 91.218,178.127 C 91.418,179.227 91.318,179.227 89.818,179.527 C 88.218,179.827 86.218,180.027 84.218,180.027 C 66.718,180.027 55.418,170.327 55.418,156.427 C 55.418,139.427 67.918,128.827 80.018,119.0266 C 80.418,118.7266 80.718,118.5266 80.918,118.5266 C 81.218,118.5266 81.318,118.8266 81.418,119.4266 L 83.518,132.227 M 85.018,116.9266 C 84.818,115.7266 85.018,115.6266 85.618,115.0266 C 96.418,104.9266 104.618,92.2266 104.618,76.9266 C 104.618,68.2266 102.218,59.6266 98.118,53.6266 C 96.618,51.4266 94.018,48.6266 92.918,48.6266 C 91.518,48.6266 88.418,51.2266 86.418,53.4266 C 79.018,61.6266 76.618,74.1266 76.618,84.5266 C 76.618,90.3266 77.318,96.8266 78.018,100.9266 C 78.218,102.1266 78.318,102.3266 77.118,103.3266 C 62.718,115.2266 47.418,129.527 47.418,149.727 C 47.418,167.127 59.318,183.627 83.818,183.627 C 86.118,183.627 88.718,183.427 90.718,183.027 C 91.118,182.927 91.318,182.927 91.518,182.927 C 91.918,182.927 92.118,183.127 92.218,183.927 C 93.418,190.627 94.918,199.327 94.918,204.027 C 94.918,218.827 84.918,220.627 79.018,220.627 C 73.618,220.627 71.018,219.027 71.018,217.727 C 71.018,217.027 71.918,216.727 74.218,216.027 C 77.318,215.127 80.918,212.427 80.918,206.627 C 80.918,201.127 77.418,196.427 71.318,196.427 C 64.618,196.427 60.618,201.727 60.618,207.927 C 60.618,214.427 64.518,224.227 79.618,224.227 C 86.318,224.227 99.318,221.227 99.318,204.227 C 99.318,198.527 97.518,189.027 96.418,182.827 C 96.218,181.627 96.318,181.727 97.718,181.127 C 107.818,177.127 114.518,168.627 114.518,157.327 C 114.518,144.527 105.118,133.227 90.418,133.227 C 87.818,133.227 87.818,133.227 87.518,131.427 L 85.018,116.9266"
     id="path832" />
  <path
     class=""
     d="M 194.212,154.027 C 194.212,154.027 193.912,148.027 193.912,144.027 C 193.912,142.427 194.012,141.227 194.112,140.827 C 194.812,138.827 198.812,135.927 201.112,135.927 C 204.012,135.927 205.212,139.227 205.212,141.727 C 205.212,147.127 200.612,152.527 196.312,155.227 C 195.912,155.427 195.612,155.527 195.312,155.527 C 194.412,155.527 194.212,154.527 194.212,154.027 M 190.712,162.927 C 191.012,163.327 191.312,163.427 191.612,163.427 C 191.912,163.427 192.212,163.227 192.212,163.227 C 195.212,161.527 197.612,158.827 200.112,157.127 C 209.012,150.927 212.112,144.827 212.112,140.227 C 212.112,134.527 207.712,130.927 203.112,130.627 C 201.412,130.627 199.012,131.427 197.612,132.327 C 197.012,132.827 195.912,133.727 195.412,133.727 C 195.212,133.727 195.112,133.727 194.912,133.627 C 194.212,133.327 193.812,132.627 193.812,131.927 C 193.912,129.727 194.512,105.7266 194.512,103.7266 C 194.512,102.6266 193.612,102.0266 192.612,102.0266 C 191.212,102.0266 189.612,103.0266 189.512,104.8266 C 189.512,104.8266 189.912,161.927 190.712,162.927"
     id="path834" />
  <path
     class=""
     d="M 169.212,104.0265 C 169.212,104.0265 168.912,98.0265 168.912,94.0265 C 168.912,92.4265 169.012,91.2265 169.112,90.8265 C 169.812,88.8265 173.812,85.9265 176.112,85.9265 C 179.012,85.9265 180.212,89.2265 180.212,91.7265 C 180.212,97.1265 175.612,102.5265 171.312,105.2265 C 170.912,105.4265 170.612,105.5265 170.312,105.5265 C 169.412,105.5265 169.212,104.5265 169.212,104.0265 M 165.712,112.9265 C 166.012,113.3265 166.312,113.4265 166.612,113.4265 C 166.912,113.4265 167.212,113.2265 167.212,113.2265 C 170.212,111.5265 172.612,108.8265 175.112,107.1265 C 184.012,100.9265 187.112,94.8265 187.112,90.2265 C 187.112,84.5265 182.712,80.9265 178.112,80.6265 C 176.412,80.6265 174.012,81.4265 172.612,82.3265 C 172.012,82.8265 170.912,83.7265 170.412,83.7265 C 170.212,83.7265 170.112,83.7265 169.912,83.6265 C 169.212,83.3265 168.812,82.6265 168.812,81.9265 C 168.912,79.7265 169.512,55.7265 169.512,53.7265 C 169.512,52.6265 168.612,52.0265 167.612,52.0265 C 166.212,52.0265 164.612,53.0265 164.512,54.8265 C 164.512,54.8265 164.912,111.9265 165.712,112.9265"
     id="path836" />
  <path
     class=""
     d="M 144.212,141.527 C 144.212,141.527 143.912,135.527 143.912,131.527 C 143.912,129.927 144.012,128.727 144.112,128.327 C 144.812,126.327 148.812,123.427 151.112,123.427 C 154.012,123.427 155.212,126.727 155.212,129.227 C 155.212,134.627 150.612,140.027 146.312,142.727 C 145.912,142.927 145.612,143.027 145.312,143.027 C 144.412,143.027 144.212,142.027 144.212,141.527 M 140.712,150.427 C 141.012,150.827 141.312,150.927 141.612,150.927 C 141.912,150.927 142.212,150.727 142.212,150.727 C 145.212,149.027 147.612,146.327 150.112,144.627 C 159.012,138.427 162.112,132.327 162.112,127.727 C 162.112,122.027 157.712,118.4266 153.112,118.1266 C 151.412,118.1266 149.012,118.9266 147.612,119.8266 C 147.012,120.3266 145.912,121.2266 145.412,121.2266 C 145.212,121.2266 145.112,121.2266 144.912,121.1266 C 144.212,120.8266 143.812,120.1266 143.812,119.4266 C 143.912,117.2266 144.512,93.2266 144.512,91.2266 C 144.512,90.1266 143.612,89.5266 142.612,89.5266 C 141.212,89.5266 139.612,90.5266 139.512,92.3266 C 139.512,92.3266 139.912,149.427 140.712,150.427"
     id="path838" />
  <path
     class=""
     fill-rule="evenodd"
     d="M 1302.71,127.073 L 1493.55,133.423 V 145.93 L 1302.71,139.58 V 127.073"
     id="path840" />
  <path
     class=""
     fill-rule="evenodd"
     d="M 1302.71,142.698 L 1493.55,149.048 V 161.555 L 1302.71,155.205 V 142.698"
     id="path842" />
  <path
     class=""
     fill-rule="evenodd"
     d="M 486.365,108.4266 H 758.756 V 120.9266 H 486.365 V 108.4266"
     id="path844" />
  <path
     class=""
     fill-rule="evenodd"
     d="M 567.912,124.052 H 758.756 V 136.552 H 567.912 V 124.052"
     id="path846" />
  <path
     class=""
     fill-rule="evenodd"
     d="M 567.912,139.677 H 758.756 V 152.177 H 567.912 V 139.677"
     id="path848" />
  <path
     class=""
     d="M 27.457,1076.85 C 27.5903,1076.24 27.7236,1075.71 27.857,1075.25 C 27.9903,1074.8 28.277,1074.14 28.717,1073.27 C 29.157,1072.41 29.6503,1071.69 30.197,1071.11 C 30.7436,1070.54 31.5036,1070.03 32.477,1069.57 C 33.4503,1069.12 34.5503,1068.89 35.777,1068.89 C 37.857,1068.89 39.6103,1069.57 41.037,1070.93 C 42.4636,1072.29 43.177,1073.97 43.177,1075.97 C 43.177,1078.99 41.4703,1082.28 38.057,1085.85 L 31.337,1092.89 H 40.897 C 41.8036,1092.89 42.477,1092.74 42.917,1092.43 C 43.357,1092.13 43.9503,1091.4 44.697,1090.25 L 45.217,1090.45 L 43.017,1095.93 H 27.417 V 1095.45 L 34.537,1087.89 C 38.0036,1084.21 39.737,1080.75 39.737,1077.49 C 39.737,1075.81 39.217,1074.45 38.177,1073.41 C 37.137,1072.37 35.777,1071.85 34.097,1071.85 C 32.7103,1071.85 31.597,1072.23 30.757,1072.99 C 29.917,1073.75 29.097,1075.11 28.297,1077.05 L 27.457,1076.85"
     id="path850" />
  <metadata
     id="metadata863">
    <rdf:RDF>
      <cc:Work
         rdf:about="">
        <dc:title>Trans_misc.</dc:title>
      </cc:Work>
    </rdf:RDF>
  </metadata>
  <text
     xml:space="preserve"
     style="font-size:53.3339px;line-height:1.25;font-family:'Libertinus Sans';-inkscape-font-specification:'Libertinus Sans';letter-spacing:0px;word-spacing:0px;fill:#008080;stroke-width:1.00001"
     x="19.349474"
     y="37.273022"
     id="text650"><tspan
       sodipodi:role="line"
       id="tspan648"
       x="19.349474"
       y="37.273022"
       style="stroke-width:1.00001">Es-Dur: das vorletzte ♭ entspricht der Tonika der Dur-Tonart </tspan></text>
</svg>
