<?xml version="1.0" encoding="UTF-8" standalone="no"?>
<svg
   width="1766"
   height="312"
   viewBox="0 0 1766 312"
   version="1.2"
   id="svg2414"
   sodipodi:docname="Mahler_9_Finale_Baßklar_Klang.svg"
   inkscape:version="1.1-dev (0486c1a, 2020-10-10)"
   xmlns:inkscape="http://www.inkscape.org/namespaces/inkscape"
   xmlns:sodipodi="http://sodipodi.sourceforge.net/DTD/sodipodi-0.dtd"
   xmlns="http://www.w3.org/2000/svg"
   xmlns:svg="http://www.w3.org/2000/svg"
   xmlns:rdf="http://www.w3.org/1999/02/22-rdf-syntax-ns#"
   xmlns:cc="http://creativecommons.org/ns#"
   xmlns:dc="http://purl.org/dc/elements/1.1/">
  <defs
     id="defs2418" />
  <sodipodi:namedview
     pagecolor="#ffffff"
     bordercolor="#666666"
     borderopacity="1"
     objecttolerance="10"
     gridtolerance="10"
     guidetolerance="10"
     inkscape:pageopacity="0"
     inkscape:pageshadow="2"
     inkscape:window-width="1280"
     inkscape:window-height="480"
     id="namedview2416"
     showgrid="false"
     height="312px"
     inkscape:zoom="0.2535148"
     inkscape:cx="648.87731"
     inkscape:cy="-43.389972"
     inkscape:window-x="0"
     inkscape:window-y="23"
     inkscape:window-maximized="0"
     inkscape:current-layer="layer1" />
  <title
     id="title2246">Trans_misc.</title>
  <desc
     id="desc2248">Generated by MuseScore 3.5.2</desc>
  <g
     inkscape:groupmode="layer"
     id="layer1"
     inkscape:label="Akzidenzien">
    <circle
       style="fill:#00ff00;fill-opacity:1;stroke:none;stroke-width:1.9;stroke-linecap:round;stroke-linejoin:round"
       id="circle622"
       cx="1691.0918"
       cy="226.24269"
       r="56.692913" />
    <circle
       style="fill:#ffbf00;fill-opacity:1;stroke:none;stroke-width:1.9;stroke-linecap:round;stroke-linejoin:round"
       id="circle628"
       cx="1578.2748"
       cy="218.92538"
       r="56.692913" />
    <circle
       style="fill:#00ff00;fill-opacity:1;stroke:none;stroke-width:1.9;stroke-linecap:round;stroke-linejoin:round"
       id="circle624"
       cx="1433.0042"
       cy="197.38052"
       r="56.692913" />
    <circle
       style="fill:#00ff00;fill-opacity:1;stroke:none;stroke-width:1.9;stroke-linecap:round;stroke-linejoin:round"
       id="circle618"
       cx="1195.7639"
       cy="178.06322"
       r="56.692913" />
    <circle
       style="fill:#ffbf00;fill-opacity:1;stroke:none;stroke-width:1.9;stroke-linecap:round;stroke-linejoin:round"
       id="circle620"
       cx="1306.4937"
       cy="163.29077"
       r="56.692913" />
    <circle
       style="fill:#00ff00;fill-opacity:1;stroke:none;stroke-width:1.9;stroke-linecap:round;stroke-linejoin:round"
       id="circle616"
       cx="1086.6523"
       cy="220.33565"
       r="56.692913" />
    <circle
       style="fill:#ffbf00;fill-opacity:1;stroke:none;stroke-width:1.9;stroke-linecap:round;stroke-linejoin:round"
       id="circle614"
       cx="847.03644"
       cy="209.83565"
       r="56.692913" />
    <circle
       style="fill:#00ff00;fill-opacity:1;stroke:none;stroke-width:1.9;stroke-linecap:round;stroke-linejoin:round"
       id="circle612"
       cx="729.84143"
       cy="192.83565"
       r="56.692913" />
    <circle
       style="fill:#00ff00;fill-opacity:1;stroke:none;stroke-width:1.9;stroke-linecap:round;stroke-linejoin:round"
       id="circle466"
       cx="545.59949"
       cy="180.33565"
       r="56.692913" />
    <circle
       style="fill:#ffbf00;fill-opacity:1;stroke:none;stroke-width:1.9;stroke-linecap:round;stroke-linejoin:round"
       id="circle259"
       cx="613.14642"
       cy="167.83565"
       r="56.692913" />
    <circle
       style="fill:#ff00ff;stroke:none;stroke-width:1.9;stroke-linecap:round;stroke-linejoin:round"
       id="path865"
       cx="221.48555"
       cy="128.20807"
       r="33" />
    <text
       xml:space="preserve"
       style="font-size:53.3339px;line-height:1.25;font-family:'Libertinus Sans';-inkscape-font-specification:'Libertinus Sans';letter-spacing:0px;word-spacing:0px;fill:#ff00ff;stroke-width:1.00001"
       x="18.560266"
       y="44.322224"
       id="text650"><tspan
         sodipodi:role="line"
         id="tspan648"
         x="18.560266"
         y="44.322224"
         style="fill:#ff00ff;stroke-width:1.00001">Des-Dur: das vorletzte ♭ entspricht der Tonika der Dur-Tonart </tspan></text>
  </g>
  <g
     inkscape:groupmode="layer"
     id="layer2"
     inkscape:label="Noten"
     sodipodi:insensitive="true">
    <g
       id="g2791"
       transform="translate(189.44928,-150.28674)">
      <path
         class=""
         stroke="#000000"
         stroke-width="2.5"
         stroke-linecap="round"
         stroke-linejoin="round"
         fill-rule="evenodd"
         d="M 1405.3776,388.58694 C 1428.9176,417.56894 1482.0876,423.81894 1511.7176,401.08694 C 1481.3876,429.77794 1428.2176,423.52794 1405.3776,388.58694"
         id="path2250" />
      <path
         class=""
         stroke="#000000"
         stroke-width="2.5"
         stroke-linecap="round"
         stroke-linejoin="round"
         fill-rule="evenodd"
         d="M 1017.2476,351.08694 C 1048.4976,375.12594 1104.9776,368.87594 1130.2076,338.58694 C 1105.6376,374.83994 1049.1576,381.08994 1017.2476,351.08694"
         id="path2252" />
      <path
         class=""
         stroke="#000000"
         stroke-width="2.5"
         stroke-linecap="round"
         stroke-linejoin="round"
         fill-rule="evenodd"
         d="M 796.32264,376.08694 C 817.91764,408.91894 873.15764,421.41894 906.78764,401.08694 C 871.82764,427.27094 816.59764,414.77094 796.32264,376.08694"
         id="path2254" />
      <path
         class=""
         stroke="#000000"
         stroke-width="2.5"
         stroke-linecap="round"
         stroke-linejoin="round"
         fill-rule="evenodd"
         d="M 357.53264,351.08694 C 412.87064,407.25594 596.75264,429.75594 664.00164,388.58694 C 596.02364,435.71194 412.14264,413.21194 357.53264,351.08694"
         id="path2256" />
      <path
         class=""
         stroke="#000000"
         stroke-width="2.5"
         stroke-linecap="round"
         stroke-linejoin="round"
         fill-rule="evenodd"
         d="M 150.89164,268.58694 C 182.36564,242.16954 234.02664,251.54454 254.21164,287.33694 C 232.95464,257.44804 181.29464,248.07304 150.89164,268.58694"
         id="path2258" />
      <polyline
         class=""
         stroke="#000000"
         stroke-width="4"
         stroke-linejoin="bevel"
         points="1534.31,75.9537 1534.31,179.204"
         id="polyline2260"
         transform="translate(-187.68236,163.50794)" />
      <polyline
         class=""
         stroke="#000000"
         stroke-width="4"
         stroke-linejoin="bevel"
         points="940.556,75.9537 940.556,179.204"
         id="polyline2262"
         transform="translate(-187.68236,163.50794)" />
      <path
         id="polyline2264"
         style="stroke:#000000;stroke-width:3.25;stroke-linejoin:bevel"
         d="M 1348.6276,241.08664 H 1551.6518"
         class=""
         sodipodi:nodetypes="cc" />
      <path
         id="polyline2266"
         style="stroke:#000000;stroke-width:3.25;stroke-linejoin:bevel"
         d="M 1348.6276,266.08694 H 1551.6518"
         class=""
         sodipodi:nodetypes="cc" />
      <path
         id="polyline2268"
         style="stroke:#000000;stroke-width:3.25;stroke-linejoin:bevel"
         d="M 1348.6276,291.08694 H 1551.6518"
         class=""
         sodipodi:nodetypes="cc" />
      <path
         id="polyline2270"
         style="stroke:#000000;stroke-width:3.25;stroke-linejoin:bevel"
         d="M 1348.6276,316.08694 H 1551.6518"
         class=""
         sodipodi:nodetypes="cc" />
      <path
         id="polyline2272"
         style="stroke:#000000;stroke-width:3.25;stroke-linejoin:bevel"
         d="M 1348.6276,341.08694 H 1551.6518"
         class=""
         sodipodi:nodetypes="cc" />
      <polyline
         class=""
         stroke="#000000"
         stroke-width="3.25"
         stroke-linejoin="bevel"
         points="942.556,77.5787 1536.31,77.5787"
         id="polyline2274"
         transform="translate(-187.68236,163.50794)" />
      <polyline
         class=""
         stroke="#000000"
         stroke-width="3.25"
         stroke-linejoin="bevel"
         points="942.556,102.579 1536.31,102.579"
         id="polyline2276"
         transform="translate(-187.68236,163.50794)" />
      <polyline
         class=""
         stroke="#000000"
         stroke-width="3.25"
         stroke-linejoin="bevel"
         points="942.556,127.579 1536.31,127.579"
         id="polyline2278"
         transform="translate(-187.68236,163.50794)" />
      <polyline
         class=""
         stroke="#000000"
         stroke-width="3.25"
         stroke-linejoin="bevel"
         points="942.556,152.579 1536.31,152.579"
         id="polyline2280"
         transform="translate(-187.68236,163.50794)" />
      <polyline
         class=""
         stroke="#000000"
         stroke-width="3.25"
         stroke-linejoin="bevel"
         points="942.556,177.579 1536.31,177.579"
         id="polyline2282"
         transform="translate(-187.68236,163.50794)" />
      <polyline
         class=""
         stroke="#000000"
         stroke-width="3.25"
         stroke-linejoin="bevel"
         points="23.132,77.5787 942.556,77.5787"
         id="polyline2284"
         transform="translate(-187.68236,163.50794)" />
      <polyline
         class=""
         stroke="#000000"
         stroke-width="3.25"
         stroke-linejoin="bevel"
         points="23.132,102.579 942.556,102.579"
         id="polyline2286"
         transform="translate(-187.68236,163.50794)" />
      <polyline
         class=""
         stroke="#000000"
         stroke-width="3.25"
         stroke-linejoin="bevel"
         points="23.132,127.579 942.556,127.579"
         id="polyline2288"
         transform="translate(-187.68236,163.50794)" />
      <polyline
         class=""
         stroke="#000000"
         stroke-width="3.25"
         stroke-linejoin="bevel"
         points="23.132,152.579 942.556,152.579"
         id="polyline2290"
         transform="translate(-187.68236,163.50794)" />
      <polyline
         class=""
         stroke="#000000"
         stroke-width="3.25"
         stroke-linejoin="bevel"
         points="23.132,177.579 942.556,177.579"
         id="polyline2292"
         transform="translate(-187.68236,163.50794)" />
      <path
         class=""
         d="M 1468.7676,398.08694 C 1468.8676,398.08694 1469.3676,397.98694 1469.4676,397.88694 C 1470.8676,397.28694 1476.4676,394.88694 1479.3676,394.88694 C 1480.3676,394.88694 1481.0676,395.18694 1481.0676,395.98694 V 410.88694 C 1481.0676,411.58694 1481.5676,412.08694 1482.2676,412.08694 H 1483.5676 C 1484.1676,412.08694 1484.7676,411.58694 1484.7676,410.88694 V 360.68694 C 1484.7676,360.18694 1484.3676,359.88694 1483.9676,359.88694 C 1483.8676,359.88694 1483.6676,359.88694 1483.5676,359.98694 L 1482.0676,360.48694 C 1481.8676,360.48694 1481.7676,360.58694 1481.6676,360.58694 C 1481.6676,360.58694 1475.2676,362.88694 1472.6676,362.88694 C 1472.0676,362.88694 1471.6676,362.78694 1471.6676,362.38694 V 345.68694 C 1471.6676,344.98694 1471.0676,344.48694 1470.4676,344.48694 H 1469.1676 C 1468.4676,344.48694 1467.9676,344.98694 1467.9676,345.68694 V 397.18694 C 1467.9676,397.78694 1468.2676,398.08694 1468.7676,398.08694 M 1471.6676,374.68694 C 1471.6676,373.28694 1477.7676,370.68694 1480.1676,370.68694 C 1480.7676,370.68694 1481.0676,370.78694 1481.0676,371.18694 V 381.48694 C 1481.0676,383.28694 1475.3676,385.58694 1472.8676,385.58694 C 1472.1676,385.58694 1471.6676,385.38694 1471.6676,384.98694 V 374.68694"
         id="path2294" />
      <path
         class=""
         d="M 1362.4276,385.58694 C 1362.5276,385.58694 1363.0276,385.48694 1363.1276,385.38694 C 1364.5276,384.78694 1370.1276,382.38694 1373.0276,382.38694 C 1374.0276,382.38694 1374.7276,382.68694 1374.7276,383.48694 V 398.38694 C 1374.7276,399.08694 1375.2276,399.58694 1375.9276,399.58694 H 1377.2276 C 1377.8276,399.58694 1378.4276,399.08694 1378.4276,398.38694 V 348.18694 C 1378.4276,347.68694 1378.0276,347.38694 1377.6276,347.38694 C 1377.5276,347.38694 1377.3276,347.38694 1377.2276,347.48694 L 1375.7276,347.98694 C 1375.5276,347.98694 1375.4276,348.08694 1375.3276,348.08694 C 1375.3276,348.08694 1368.9276,350.38694 1366.3276,350.38694 C 1365.7276,350.38694 1365.3276,350.28694 1365.3276,349.88694 V 333.18694 C 1365.3276,332.48694 1364.7276,331.98694 1364.1276,331.98694 H 1362.8276 C 1362.1276,331.98694 1361.6276,332.48694 1361.6276,333.18694 V 384.68694 C 1361.6276,385.28694 1361.9276,385.58694 1362.4276,385.58694 M 1365.3276,362.18694 C 1365.3276,360.78694 1371.4276,358.18694 1373.8276,358.18694 C 1374.4276,358.18694 1374.7276,358.28694 1374.7276,358.68694 V 368.98694 C 1374.7276,370.78694 1369.0276,373.08694 1366.5276,373.08694 C 1365.8276,373.08694 1365.3276,372.88694 1365.3276,372.48694 V 362.18694"
         id="path2296" />
      <path
         class=""
         d="M 1206.9176,361.98694 C 1207.0176,361.98694 1207.2176,361.88694 1207.3176,361.88694 C 1207.3176,361.88694 1208.7176,361.28694 1209.6176,360.98694 C 1209.7176,360.88694 1209.8176,360.88694 1209.9176,360.88694 C 1210.6176,360.88694 1211.1176,361.98694 1211.1176,362.48694 V 374.78694 C 1211.1176,375.38694 1211.7176,375.88694 1212.4176,375.88694 C 1213.4176,375.88694 1214.1176,375.38694 1214.1176,374.78694 V 360.88694 C 1214.1176,359.58694 1214.6176,358.88694 1215.1176,358.68694 L 1221.2176,356.18694 C 1221.3176,356.18694 1221.5176,356.08694 1221.6176,356.08694 C 1222.4176,356.08694 1222.9176,357.28694 1222.9176,357.88694 V 370.38694 C 1222.9176,370.98694 1223.5176,371.48694 1224.2176,371.48694 C 1225.3176,371.48694 1225.9176,370.98694 1225.9176,370.38694 V 356.18694 C 1225.9176,355.38694 1226.3176,354.18694 1227.0176,353.88694 C 1227.7176,353.58694 1229.8176,352.78694 1229.8176,352.78694 C 1230.5176,352.48694 1231.0176,351.68694 1231.0176,351.08694 V 343.98694 C 1231.0176,343.48694 1230.7176,343.18694 1230.3176,343.18694 C 1230.1176,343.18694 1230.0176,343.18694 1229.8176,343.28694 L 1227.2176,344.28694 C 1226.6176,344.28694 1225.9176,343.68694 1225.9176,342.48694 V 333.18694 C 1225.9176,332.48694 1226.4176,330.58694 1227.2176,330.28694 L 1229.8176,329.28694 C 1230.5176,328.98694 1231.0176,328.18694 1231.0176,327.58694 V 320.48694 C 1231.0176,319.98694 1230.7176,319.68694 1230.3176,319.68694 C 1230.1176,319.68694 1230.0176,319.68694 1229.8176,319.78694 C 1229.8176,319.78694 1227.8176,320.58694 1227.3176,320.68694 C 1226.6176,320.68694 1225.9176,320.18694 1225.9176,319.38694 V 307.18694 C 1225.9176,306.58694 1225.3176,306.08694 1224.5176,306.08694 C 1223.5176,306.08694 1222.9176,306.58694 1222.9176,307.18694 V 320.18694 C 1222.8176,321.18694 1222.5176,322.48694 1221.6176,323.08694 C 1220.4176,323.78694 1217.0176,325.18694 1215.3176,325.58694 C 1214.4176,325.58694 1214.1176,324.38694 1214.1176,323.58694 V 311.58694 C 1214.1176,310.98694 1213.4176,310.48694 1212.7176,310.48694 C 1211.7176,310.48694 1211.1176,310.98694 1211.1176,311.58694 V 325.08694 C 1211.1176,326.48694 1210.5176,327.48694 1209.9176,327.78694 C 1209.3176,328.08694 1207.3176,328.88694 1207.3176,328.88694 C 1206.6176,329.08694 1206.1176,329.88694 1206.1176,330.48694 V 337.58694 C 1206.1176,338.18694 1206.4176,338.48694 1206.9176,338.48694 C 1207.3176,338.48694 1209.2176,337.58694 1209.5176,337.38694 C 1210.5176,337.38694 1211.1176,337.88694 1211.1176,339.08694 V 348.98694 C 1211.1176,350.08694 1210.6176,350.98694 1210.0176,351.28694 C 1209.4176,351.48694 1207.3176,352.38694 1207.3176,352.38694 C 1206.6176,352.58694 1206.1176,353.38694 1206.1176,353.98694 V 361.08694 C 1206.1176,361.68694 1206.4176,361.98694 1206.9176,361.98694 M 1214.1176,336.68694 C 1214.3176,334.98694 1218.9176,332.88694 1221.4176,332.88694 C 1222.1176,332.88694 1222.7176,333.08694 1222.9176,333.48694 C 1223.1176,333.98694 1223.3176,336.48694 1223.3176,339.18694 C 1223.3176,341.88694 1223.1176,344.68694 1222.9176,345.58694 C 1222.3176,347.58694 1217.6176,349.58694 1215.3176,349.58694 C 1214.7176,349.58694 1214.2176,349.38694 1214.1176,349.08694 C 1213.9176,348.68694 1213.8176,346.48694 1213.8176,344.08694 C 1213.8176,340.98694 1213.9176,337.48694 1214.1176,336.68694"
         id="path2298" />
      <path
         class=""
         d="M 863.83764,398.08694 C 863.93764,398.08694 864.43764,397.98694 864.53764,397.88694 C 865.93764,397.28694 871.53764,394.88694 874.43764,394.88694 C 875.43764,394.88694 876.13764,395.18694 876.13764,395.98694 V 410.88694 C 876.13764,411.58694 876.63764,412.08694 877.33764,412.08694 H 878.63764 C 879.23764,412.08694 879.83764,411.58694 879.83764,410.88694 V 360.68694 C 879.83764,360.18694 879.43764,359.88694 879.03764,359.88694 C 878.93764,359.88694 878.73764,359.88694 878.63764,359.98694 L 877.13764,360.48694 C 876.93764,360.48694 876.83764,360.58694 876.73764,360.58694 C 876.73764,360.58694 870.33764,362.88694 867.73764,362.88694 C 867.13764,362.88694 866.73764,362.78694 866.73764,362.38694 V 345.68694 C 866.73764,344.98694 866.13764,344.48694 865.53764,344.48694 H 864.23764 C 863.53764,344.48694 863.03764,344.98694 863.03764,345.68694 V 397.18694 C 863.03764,397.78694 863.33764,398.08694 863.83764,398.08694 M 866.73764,374.68694 C 866.73764,373.28694 872.83764,370.68694 875.23764,370.68694 C 875.83764,370.68694 876.13764,370.78694 876.13764,371.18694 V 381.48694 C 876.13764,383.28694 870.43764,385.58694 867.93764,385.58694 C 867.23764,385.58694 866.73764,385.38694 866.73764,384.98694 V 374.68694"
         id="path2300" />
      <path
         class=""
         d="M 1089.7676,335.58694 C 1089.8676,335.58694 1090.3676,335.48694 1090.4676,335.38694 C 1091.8676,334.78694 1097.4676,332.38694 1100.3676,332.38694 C 1101.3676,332.38694 1102.0676,332.68694 1102.0676,333.48694 V 348.38694 C 1102.0676,349.08694 1102.5676,349.58694 1103.2676,349.58694 H 1104.5676 C 1105.1676,349.58694 1105.7676,349.08694 1105.7676,348.38694 V 298.18694 C 1105.7676,297.68694 1105.3676,297.38694 1104.9676,297.38694 C 1104.8676,297.38694 1104.6676,297.38694 1104.5676,297.48694 L 1103.0676,297.98694 C 1102.8676,297.98694 1102.7676,298.08694 1102.6676,298.08694 C 1102.6676,298.08694 1096.2676,300.38694 1093.6676,300.38694 C 1093.0676,300.38694 1092.6676,300.28694 1092.6676,299.88694 V 283.18694 C 1092.6676,282.48694 1092.0676,281.98694 1091.4676,281.98694 H 1090.1676 C 1089.4676,281.98694 1088.9676,282.48694 1088.9676,283.18694 V 334.68694 C 1088.9676,335.28694 1089.2676,335.58694 1089.7676,335.58694 M 1092.6676,312.18694 C 1092.6676,310.78694 1098.7676,308.18694 1101.1676,308.18694 C 1101.7676,308.18694 1102.0676,308.28694 1102.0676,308.68694 V 318.98694 C 1102.0676,320.78694 1096.3676,323.08694 1093.8676,323.08694 C 1093.1676,323.08694 1092.6676,322.88694 1092.6676,322.48694 V 312.18694"
         id="path2302" />
      <path
         class=""
         d="M 979.29764,348.08694 C 979.39764,348.08694 979.89764,347.98694 979.99764,347.88694 C 981.39764,347.28694 986.99764,344.88694 989.89764,344.88694 C 990.89764,344.88694 991.59764,345.18694 991.59764,345.98694 V 360.88694 C 991.59764,361.58694 992.09764,362.08694 992.79764,362.08694 H 994.09764 C 994.69764,362.08694 995.29764,361.58694 995.29764,360.88694 V 310.68694 C 995.29764,310.18694 994.89764,309.88694 994.49764,309.88694 C 994.39764,309.88694 994.19764,309.88694 994.09764,309.98694 L 992.59764,310.48694 C 992.39764,310.48694 992.29764,310.58694 992.19764,310.58694 C 992.19764,310.58694 985.79764,312.88694 983.19764,312.88694 C 982.59764,312.88694 982.19764,312.78694 982.19764,312.38694 V 295.68694 C 982.19764,294.98694 981.59764,294.48694 980.99764,294.48694 H 979.69764 C 978.99764,294.48694 978.49764,294.98694 978.49764,295.68694 V 347.18694 C 978.49764,347.78694 978.79764,348.08694 979.29764,348.08694 M 982.19764,324.68694 C 982.19764,323.28694 988.29764,320.68694 990.69764,320.68694 C 991.29764,320.68694 991.59764,320.78694 991.59764,321.18694 V 331.48694 C 991.59764,333.28694 985.89764,335.58694 983.39764,335.58694 C 982.69764,335.58694 982.19764,335.38694 982.19764,334.98694 V 324.68694"
         id="path2304" />
      <path
         class=""
         d="M 621.05564,385.58694 C 621.15564,385.58694 621.65564,385.48694 621.75564,385.38694 C 623.15564,384.78694 628.75564,382.38694 631.65564,382.38694 C 632.65564,382.38694 633.35564,382.68694 633.35564,383.48694 V 398.38694 C 633.35564,399.08694 633.85564,399.58694 634.55564,399.58694 H 635.85564 C 636.45564,399.58694 637.05564,399.08694 637.05564,398.38694 V 348.18694 C 637.05564,347.68694 636.65564,347.38694 636.25564,347.38694 C 636.15564,347.38694 635.95564,347.38694 635.85564,347.48694 L 634.35564,347.98694 C 634.15564,347.98694 634.05564,348.08694 633.95564,348.08694 C 633.95564,348.08694 627.55564,350.38694 624.95564,350.38694 C 624.35564,350.38694 623.95564,350.28694 623.95564,349.88694 V 333.18694 C 623.95564,332.48694 623.35564,331.98694 622.75564,331.98694 H 621.45564 C 620.75564,331.98694 620.25564,332.48694 620.25564,333.18694 V 384.68694 C 620.25564,385.28694 620.55564,385.58694 621.05564,385.58694 M 623.95564,362.18694 C 623.95564,360.78694 630.05564,358.18694 632.45564,358.18694 C 633.05564,358.18694 633.35564,358.28694 633.35564,358.68694 V 368.98694 C 633.35564,370.78694 627.65564,373.08694 625.15564,373.08694 C 624.45564,373.08694 623.95564,372.88694 623.95564,372.48694 V 362.18694"
         id="path2306" />
      <path
         class=""
         d="M 506.86064,361.98694 C 506.96064,361.98694 507.16064,361.88694 507.26064,361.88694 C 507.26064,361.88694 508.66064,361.28694 509.56064,360.98694 C 509.66064,360.88694 509.76064,360.88694 509.86064,360.88694 C 510.56064,360.88694 511.06064,361.98694 511.06064,362.48694 V 374.78694 C 511.06064,375.38694 511.66064,375.88694 512.36064,375.88694 C 513.36064,375.88694 514.06064,375.38694 514.06064,374.78694 V 360.88694 C 514.06064,359.58694 514.56064,358.88694 515.06064,358.68694 L 521.16064,356.18694 C 521.26064,356.18694 521.46064,356.08694 521.56064,356.08694 C 522.36064,356.08694 522.86064,357.28694 522.86064,357.88694 V 370.38694 C 522.86064,370.98694 523.46064,371.48694 524.16064,371.48694 C 525.26064,371.48694 525.86064,370.98694 525.86064,370.38694 V 356.18694 C 525.86064,355.38694 526.26064,354.18694 526.96064,353.88694 C 527.66064,353.58694 529.76064,352.78694 529.76064,352.78694 C 530.46064,352.48694 530.96064,351.68694 530.96064,351.08694 V 343.98694 C 530.96064,343.48694 530.66064,343.18694 530.26064,343.18694 C 530.06064,343.18694 529.96064,343.18694 529.76064,343.28694 L 527.16064,344.28694 C 526.56064,344.28694 525.86064,343.68694 525.86064,342.48694 V 333.18694 C 525.86064,332.48694 526.36064,330.58694 527.16064,330.28694 L 529.76064,329.28694 C 530.46064,328.98694 530.96064,328.18694 530.96064,327.58694 V 320.48694 C 530.96064,319.98694 530.66064,319.68694 530.26064,319.68694 C 530.06064,319.68694 529.96064,319.68694 529.76064,319.78694 C 529.76064,319.78694 527.76064,320.58694 527.26064,320.68694 C 526.56064,320.68694 525.86064,320.18694 525.86064,319.38694 V 307.18694 C 525.86064,306.58694 525.26064,306.08694 524.46064,306.08694 C 523.46064,306.08694 522.86064,306.58694 522.86064,307.18694 V 320.18694 C 522.76064,321.18694 522.46064,322.48694 521.56064,323.08694 C 520.36064,323.78694 516.96064,325.18694 515.26064,325.58694 C 514.36064,325.58694 514.06064,324.38694 514.06064,323.58694 V 311.58694 C 514.06064,310.98694 513.36064,310.48694 512.66064,310.48694 C 511.66064,310.48694 511.06064,310.98694 511.06064,311.58694 V 325.08694 C 511.06064,326.48694 510.46064,327.48694 509.86064,327.78694 C 509.26064,328.08694 507.26064,328.88694 507.26064,328.88694 C 506.56064,329.08694 506.06064,329.88694 506.06064,330.48694 V 337.58694 C 506.06064,338.18694 506.36064,338.48694 506.86064,338.48694 C 507.26064,338.48694 509.16064,337.58694 509.46064,337.38694 C 510.46064,337.38694 511.06064,337.88694 511.06064,339.08694 V 348.98694 C 511.06064,350.08694 510.56064,350.98694 509.96064,351.28694 C 509.36064,351.48694 507.26064,352.38694 507.26064,352.38694 C 506.56064,352.58694 506.06064,353.38694 506.06064,353.98694 V 361.08694 C 506.06064,361.68694 506.36064,361.98694 506.86064,361.98694 M 514.06064,336.68694 C 514.26064,334.98694 518.86064,332.88694 521.36064,332.88694 C 522.06064,332.88694 522.66064,333.08694 522.86064,333.48694 C 523.06064,333.98694 523.26064,336.48694 523.26064,339.18694 C 523.26064,341.88694 523.06064,344.68694 522.86064,345.58694 C 522.26064,347.58694 517.56064,349.58694 515.26064,349.58694 C 514.66064,349.58694 514.16064,349.38694 514.06064,349.08694 C 513.86064,348.68694 513.76064,346.48694 513.76064,344.08694 C 513.76064,340.98694 513.86064,337.48694 514.06064,336.68694"
         id="path2308" />
      <path
         class=""
         d="M 400.76664,335.58694 C 400.86664,335.58694 401.36664,335.48694 401.46664,335.38694 C 402.86664,334.78694 408.46664,332.38694 411.36664,332.38694 C 412.36664,332.38694 413.06664,332.68694 413.06664,333.48694 V 348.38694 C 413.06664,349.08694 413.56664,349.58694 414.26664,349.58694 H 415.56664 C 416.16664,349.58694 416.76664,349.08694 416.76664,348.38694 V 298.18694 C 416.76664,297.68694 416.36664,297.38694 415.96664,297.38694 C 415.86664,297.38694 415.66664,297.38694 415.56664,297.48694 L 414.06664,297.98694 C 413.86664,297.98694 413.76664,298.08694 413.66664,298.08694 C 413.66664,298.08694 407.26664,300.38694 404.66664,300.38694 C 404.06664,300.38694 403.66664,300.28694 403.66664,299.88694 V 283.18694 C 403.66664,282.48694 403.06664,281.98694 402.46664,281.98694 H 401.16664 C 400.46664,281.98694 399.96664,282.48694 399.96664,283.18694 V 334.68694 C 399.96664,335.28694 400.26664,335.58694 400.76664,335.58694 M 403.66664,312.18694 C 403.66664,310.78694 409.76664,308.18694 412.16664,308.18694 C 412.76664,308.18694 413.06664,308.28694 413.06664,308.68694 V 318.98694 C 413.06664,320.78694 407.36664,323.08694 404.86664,323.08694 C 404.16664,323.08694 403.66664,322.88694 403.66664,322.48694 V 312.18694"
         id="path2310" />
      <path
         class=""
         d="M 319.58664,348.08694 C 319.68664,348.08694 320.18664,347.98694 320.28664,347.88694 C 321.68664,347.28694 327.28664,344.88694 330.18664,344.88694 C 331.18664,344.88694 331.88664,345.18694 331.88664,345.98694 V 360.88694 C 331.88664,361.58694 332.38664,362.08694 333.08664,362.08694 H 334.38664 C 334.98664,362.08694 335.58664,361.58694 335.58664,360.88694 V 310.68694 C 335.58664,310.18694 335.18664,309.88694 334.78664,309.88694 C 334.68664,309.88694 334.48664,309.88694 334.38664,309.98694 L 332.88664,310.48694 C 332.68664,310.48694 332.58664,310.58694 332.48664,310.58694 C 332.48664,310.58694 326.08664,312.88694 323.48664,312.88694 C 322.88664,312.88694 322.48664,312.78694 322.48664,312.38694 V 295.68694 C 322.48664,294.98694 321.88664,294.48694 321.28664,294.48694 H 319.98664 C 319.28664,294.48694 318.78664,294.98694 318.78664,295.68694 V 347.18694 C 318.78664,347.78694 319.08664,348.08694 319.58664,348.08694 M 322.48664,324.68694 C 322.48664,323.28694 328.58664,320.68694 330.98664,320.68694 C 331.58664,320.68694 331.88664,320.78694 331.88664,321.18694 V 331.48694 C 331.88664,333.28694 326.18664,335.58694 323.68664,335.58694 C 322.98664,335.58694 322.48664,335.38694 322.48664,334.98694 V 324.68694"
         id="path2312" />
      <polyline
         class=""
         stroke="#000000"
         stroke-width="4"
         stroke-linecap="square"
         stroke-linejoin="bevel"
         points="1677.95,202.579 1720.85,202.579"
         id="polyline2314"
         transform="translate(-187.68236,163.50794)" />
      <polyline
         class=""
         stroke="#000000"
         stroke-width="4"
         stroke-linecap="square"
         stroke-linejoin="bevel"
         points="1571.61,202.579 1614.51,202.579"
         id="polyline2316"
         transform="translate(-187.68236,163.50794)" />
      <polyline
         class=""
         stroke="#000000"
         stroke-width="4"
         stroke-linecap="square"
         stroke-linejoin="bevel"
         points="1073.02,202.579 1115.92,202.579"
         id="polyline2318"
         transform="translate(-187.68236,163.50794)" />
      <polyline
         class=""
         stroke="#000000"
         stroke-width="4"
         stroke-linecap="square"
         stroke-linejoin="bevel"
         points="830.235,202.579 873.134,202.579"
         id="polyline2320"
         transform="translate(-187.68236,163.50794)" />
      <polyline
         class=""
         stroke="#000000"
         stroke-width="3"
         stroke-linecap="round"
         stroke-linejoin="bevel"
         points="1714.35,211.719 1714.35,127.579"
         id="polyline2322"
         transform="translate(-187.68236,163.50794)" />
      <polyline
         class=""
         stroke="#000000"
         stroke-width="3"
         stroke-linecap="round"
         stroke-linejoin="bevel"
         points="1608.01,199.219 1608.01,115.079"
         id="polyline2324"
         transform="translate(-187.68236,163.50794)" />
      <polyline
         class=""
         stroke="#000000"
         stroke-width="3"
         stroke-linecap="round"
         stroke-linejoin="bevel"
         points="1505.81,161.719 1505.81,83.8287"
         id="polyline2326"
         transform="translate(-187.68236,163.50794)" />
      <polyline
         class=""
         stroke="#000000"
         stroke-width="3"
         stroke-linecap="round"
         stroke-linejoin="bevel"
         points="1380.55,161.719 1380.55,79.3671"
         id="polyline2328"
         transform="translate(-187.68236,163.50794)" />
      <polyline
         class=""
         stroke="#000000"
         stroke-width="3"
         stroke-linecap="round"
         stroke-linejoin="bevel"
         points="1455.6,174.219 1455.6,82.0402"
         id="polyline2330"
         transform="translate(-187.68236,163.50794)" />
      <polyline
         class=""
         stroke="#000000"
         stroke-width="3"
         stroke-linecap="round"
         stroke-linejoin="bevel"
         points="1330.34,149.219 1330.34,77.5787"
         id="polyline2332"
         transform="translate(-187.68236,163.50794)" />
      <polyline
         class=""
         stroke="#000000"
         stroke-width="3"
         stroke-linecap="round"
         stroke-linejoin="bevel"
         points="1219.88,161.719 1219.88,77.5787"
         id="polyline2334"
         transform="translate(-187.68236,163.50794)" />
      <polyline
         class=""
         stroke="#000000"
         stroke-width="3"
         stroke-linecap="round"
         stroke-linejoin="bevel"
         points="1109.42,211.719 1109.42,127.579"
         id="polyline2336"
         transform="translate(-187.68236,163.50794)" />
      <polyline
         class=""
         stroke="#000000"
         stroke-width="3"
         stroke-linecap="round"
         stroke-linejoin="bevel"
         points="998.954,186.719 998.954,102.579"
         id="polyline2338"
         transform="translate(-187.68236,163.50794)" />
      <polyline
         class=""
         stroke="#000000"
         stroke-width="3"
         stroke-linecap="round"
         stroke-linejoin="bevel"
         points="866.634,199.219 866.634,115.079"
         id="polyline2340"
         transform="translate(-187.68236,163.50794)" />
      <polyline
         class=""
         stroke="#000000"
         stroke-width="3"
         stroke-linecap="round"
         stroke-linejoin="bevel"
         points="755.54,174.219 755.54,58.8286"
         id="polyline2342"
         transform="translate(-187.68236,163.50794)" />
      <polyline
         class=""
         stroke="#000000"
         stroke-width="3"
         stroke-linecap="round"
         stroke-linejoin="bevel"
         points="794.688,161.719 794.688,58.8286"
         id="polyline2344"
         transform="translate(-187.68236,163.50794)" />
      <polyline
         class=""
         stroke="#000000"
         stroke-width="3"
         stroke-linecap="round"
         stroke-linejoin="bevel"
         points="641.344,149.219 641.344,58.8286"
         id="polyline2346"
         transform="translate(-187.68236,163.50794)" />
      <polyline
         class=""
         stroke="#000000"
         stroke-width="3"
         stroke-linecap="round"
         stroke-linejoin="bevel"
         points="680.493,161.719 680.493,58.8286"
         id="polyline2348"
         transform="translate(-187.68236,163.50794)" />
      <polyline
         class=""
         stroke="#000000"
         stroke-width="3"
         stroke-linecap="round"
         stroke-linejoin="bevel"
         points="560.164,161.719 560.164,58.8286"
         id="polyline2350"
         transform="translate(-187.68236,163.50794)" />
      <polyline
         class=""
         stroke="#000000"
         stroke-width="3"
         stroke-linecap="round"
         stroke-linejoin="bevel"
         points="456.843,161.719 456.843,77.5787"
         id="polyline2352"
         transform="translate(-187.68236,163.50794)" />
      <polyline
         class=""
         stroke="#000000"
         stroke-width="3"
         stroke-linecap="round"
         stroke-linejoin="bevel"
         points="323.624,130.939 323.624,205.704"
         id="polyline2354"
         transform="translate(-187.68236,163.50794)" />
      <path
         class=""
         d="M 1506.0676,392.58694 C 1515.9676,392.58694 1528.1676,383.38694 1528.1676,373.88694 C 1528.1676,368.28694 1523.6676,364.58694 1517.2676,364.58694 C 1505.0676,364.58694 1495.2676,373.68694 1495.2676,383.28694 C 1495.2676,389.08694 1500.0676,392.58694 1506.0676,392.58694"
         id="path2356" />
      <path
         class=""
         d="M 1399.7276,380.08694 C 1418.1276,380.08694 1421.8276,365.08694 1421.8276,361.48694 C 1421.8276,355.78694 1417.3276,352.08694 1410.8276,352.08694 C 1394.1276,352.08694 1388.9276,364.98694 1388.9276,370.78694 C 1388.9276,376.68694 1393.6276,380.08694 1399.7276,380.08694 M 1408.2276,371.18694 C 1403.2276,374.58694 1399.7276,375.78694 1397.3276,375.78694 C 1395.0276,375.78694 1393.6276,374.58694 1392.9276,373.18694 C 1392.5276,372.58694 1392.2276,371.78694 1392.2276,370.98694 C 1392.2276,365.58694 1408.3276,356.68694 1413.6276,356.68694 C 1415.7276,356.68694 1416.9276,357.68694 1417.7276,359.08694 C 1418.0276,359.68694 1418.3276,360.38694 1418.3276,361.18694 C 1418.3276,363.38694 1416.0276,366.08694 1408.2276,371.18694"
         id="path2358" />
      <path
         class=""
         d="M 1297.5276,342.58694 C 1307.4276,342.58694 1319.6276,333.38694 1319.6276,323.88694 C 1319.6276,318.28694 1315.1276,314.58694 1308.7276,314.58694 C 1296.5276,314.58694 1286.7276,323.68694 1286.7276,333.28694 C 1286.7276,339.08694 1291.5276,342.58694 1297.5276,342.58694"
         id="path2360" />
      <path
         class=""
         d="M 1247.3176,355.08694 C 1257.2176,355.08694 1269.4176,345.88694 1269.4176,336.38694 C 1269.4176,330.78694 1264.9176,327.08694 1258.5176,327.08694 C 1246.3176,327.08694 1236.5176,336.18694 1236.5176,345.78694 C 1236.5176,351.58694 1241.3176,355.08694 1247.3176,355.08694"
         id="path2362" />
      <path
         class=""
         d="M 901.13764,392.58694 C 911.03764,392.58694 923.23764,383.38694 923.23764,373.88694 C 923.23764,368.28694 918.73764,364.58694 912.33764,364.58694 C 900.13764,364.58694 890.33764,373.68694 890.33764,383.28694 C 890.33764,389.08694 895.13764,392.58694 901.13764,392.58694"
         id="path2364" />
      <path
         class=""
         d="M 1122.0576,330.08694 C 1131.9576,330.08694 1144.1576,320.88694 1144.1576,311.38694 C 1144.1576,305.78694 1139.6576,302.08694 1133.2576,302.08694 C 1121.0576,302.08694 1111.2576,311.18694 1111.2576,320.78694 C 1111.2576,326.58694 1116.0576,330.08694 1122.0576,330.08694"
         id="path2366" />
      <path
         class=""
         d="M 1172.2776,342.58694 C 1182.1776,342.58694 1194.3776,333.38694 1194.3776,323.88694 C 1194.3776,318.28694 1189.8776,314.58694 1183.4776,314.58694 C 1171.2776,314.58694 1161.4776,323.68694 1161.4776,333.28694 C 1161.4776,339.08694 1166.2776,342.58694 1172.2776,342.58694"
         id="path2368" />
      <path
         class=""
         d="M 1011.5976,342.58694 C 1021.4976,342.58694 1033.6976,333.38694 1033.6976,323.88694 C 1033.6976,318.28694 1029.1976,314.58694 1022.7976,314.58694 C 1010.5976,314.58694 1000.7976,323.68694 1000.7976,333.28694 C 1000.7976,339.08694 1005.5976,342.58694 1011.5976,342.58694"
         id="path2370" />
      <path
         class=""
         d="M 658.35264,380.08694 C 668.25264,380.08694 680.45264,370.88694 680.45264,361.38694 C 680.45264,355.78694 675.95264,352.08694 669.55264,352.08694 C 657.35264,352.08694 647.55264,361.18694 647.55264,370.78694 C 647.55264,376.58694 652.35264,380.08694 658.35264,380.08694"
         id="path2372" />
      <path
         class=""
         d="M 790.67364,367.58694 C 800.57364,367.58694 812.77764,358.38694 812.77764,348.88694 C 812.77764,343.28694 808.27364,339.58694 801.87364,339.58694 C 789.67364,339.58694 779.87364,348.68694 779.87364,358.28694 C 779.87364,364.08694 784.67364,367.58694 790.67364,367.58694"
         id="path2374" />
      <path
         class=""
         d="M 547.25864,355.08694 C 557.15864,355.08694 569.35864,345.88694 569.35864,336.38694 C 569.35864,330.78694 564.85864,327.08694 558.45864,327.08694 C 546.25864,327.08694 536.45864,336.18694 536.45864,345.78694 C 536.45864,351.58694 541.25864,355.08694 547.25864,355.08694"
         id="path2376" />
      <path
         class=""
         d="M 586.40764,342.58694 C 596.30764,342.58694 608.50764,333.38694 608.50764,323.88694 C 608.50764,318.28694 604.00764,314.58694 597.60764,314.58694 C 585.40764,314.58694 575.60764,323.68694 575.60764,333.28694 C 575.60764,339.08694 580.40764,342.58694 586.40764,342.58694"
         id="path2378" />
      <path
         class=""
         d="M 472.21164,342.58694 C 482.11164,342.58694 494.31164,333.38694 494.31164,323.88694 C 494.31164,318.28694 489.81164,314.58694 483.41164,314.58694 C 471.21164,314.58694 461.41164,323.68694 461.41164,333.28694 C 461.41164,339.08694 466.21164,342.58694 472.21164,342.58694"
         id="path2380" />
      <path
         class=""
         d="M 433.06364,330.08694 C 442.96364,330.08694 455.16364,320.88694 455.16364,311.38694 C 455.16364,305.78694 450.66364,302.08694 444.26364,302.08694 C 432.06364,302.08694 422.26364,311.18694 422.26364,320.78694 C 422.26364,326.58694 427.06364,330.08694 433.06364,330.08694"
         id="path2382" />
      <path
         class=""
         d="M 351.88264,342.58694 C 361.78264,342.58694 373.98264,333.38694 373.98264,323.88694 C 373.98264,318.28694 369.48264,314.58694 363.08264,314.58694 C 350.88264,314.58694 341.08264,323.68694 341.08264,333.28694 C 341.08264,339.08694 345.88264,342.58694 351.88264,342.58694"
         id="path2384" />
      <path
         class=""
         d="M 248.56264,342.58694 C 258.46264,342.58694 270.66264,333.38694 270.66264,323.88694 C 270.66264,318.28694 266.16264,314.58694 259.76264,314.58694 C 247.56264,314.58694 237.76264,323.68694 237.76264,333.28694 C 237.76264,339.08694 242.56264,342.58694 248.56264,342.58694"
         id="path2386" />
      <path
         class=""
         d="M 145.24164,305.08694 C 155.14164,305.08694 167.34164,295.88694 167.34164,286.38694 C 167.34164,280.78694 162.84164,277.08694 156.44164,277.08694 C 144.24164,277.08694 134.44164,286.18694 134.44164,295.78694 C 134.44164,301.58694 139.24164,305.08694 145.24164,305.08694"
         id="path2388" />
      <path
         class=""
         d="M -118.85036,239.88664 C -136.25036,239.88664 -144.05036,252.58664 -144.05036,262.18664 C -144.05036,270.18694 -139.85036,277.08694 -131.75036,277.08694 C -125.45036,277.08694 -121.15036,272.68694 -121.15036,266.48694 C -121.15036,260.08664 -125.85036,256.08664 -130.75036,256.08664 C -133.45036,256.08664 -134.45036,256.78664 -135.75036,256.78664 C -137.05036,256.78664 -137.35036,255.98664 -137.35036,254.98664 C -137.35036,250.98664 -131.35036,243.68664 -121.15036,243.68664 C -110.55036,243.68664 -105.95036,254.08664 -105.95036,269.78694 C -105.95036,297.68694 -119.75036,313.28694 -143.05036,326.58694 C -143.95036,327.08694 -144.55036,327.58694 -144.55036,328.38694 C -144.55036,328.98694 -144.15036,329.58694 -143.25036,329.58694 C -142.75036,329.58694 -142.15036,329.38694 -141.55036,329.08694 C -116.95036,317.08694 -90.950361,299.28694 -90.950361,268.88694 C -90.950361,251.48664 -101.55036,239.88664 -118.85036,239.88664 M -81.050361,273.18694 C -84.150361,273.18694 -86.450361,275.48694 -86.450361,278.58694 C -86.450361,281.68694 -84.150361,283.98694 -81.050361,283.98694 C -77.950361,283.98694 -75.650361,281.68694 -75.650361,278.58694 C -75.650361,275.48694 -77.950361,273.18694 -81.050361,273.18694 M -81.150361,248.08664 C -84.250361,248.08664 -86.650361,250.48664 -86.650361,253.58664 C -86.650361,256.68664 -84.250361,259.08664 -81.150361,259.08664 C -78.050361,259.08664 -75.650361,256.68664 -75.650361,253.58664 C -75.650361,250.48664 -78.050361,248.08664 -81.150361,248.08664"
         id="path2390" />
      <path
         class=""
         d="M 54.048639,349.18694 C 54.048639,349.18694 53.748639,343.18694 53.748639,339.18694 C 53.748639,337.58694 53.848639,336.38694 53.948639,335.98694 C 54.648639,333.98694 58.648639,331.08694 60.948639,331.08694 C 63.848639,331.08694 65.048639,334.38694 65.048639,336.88694 C 65.048639,342.28694 60.448639,347.68694 56.148639,350.38694 C 55.748639,350.58694 55.448639,350.68694 55.148639,350.68694 C 54.248639,350.68694 54.048639,349.68694 54.048639,349.18694 M 50.548639,358.08694 C 50.848639,358.48694 51.148639,358.58694 51.448639,358.58694 C 51.748639,358.58694 52.048639,358.38694 52.048639,358.38694 C 55.048639,356.68694 57.448639,353.98694 59.948639,352.28694 C 68.848639,346.08694 71.948639,339.98694 71.948639,335.38694 C 71.948639,329.68694 67.548639,326.08694 62.948639,325.78694 C 61.248639,325.78694 58.848639,326.58694 57.448639,327.48694 C 56.848639,327.98694 55.748639,328.88694 55.248639,328.88694 C 55.048639,328.88694 54.948639,328.88694 54.748639,328.78694 C 54.048639,328.48694 53.648639,327.78694 53.648639,327.08694 C 53.748639,324.88694 54.348639,300.88694 54.348639,298.88694 C 54.348639,297.78694 53.448639,297.18694 52.448639,297.18694 C 51.048639,297.18694 49.448639,298.18694 49.348639,299.98694 C 49.348639,299.98694 49.748639,357.08694 50.548639,358.08694"
         id="path2392" />
      <path
         class=""
         d="M 29.048639,299.18694 C 29.048639,299.18694 28.748639,293.18694 28.748639,289.18694 C 28.748639,287.58694 28.848639,286.38694 28.948639,285.98694 C 29.648639,283.98694 33.648639,281.08694 35.948639,281.08694 C 38.848639,281.08694 40.048639,284.38694 40.048639,286.88694 C 40.048639,292.28694 35.448639,297.68694 31.148639,300.38694 C 30.748639,300.58694 30.448639,300.68694 30.148639,300.68694 C 29.248639,300.68694 29.048639,299.68694 29.048639,299.18694 M 25.548639,308.08694 C 25.848639,308.48694 26.148639,308.58694 26.448639,308.58694 C 26.748639,308.58694 27.048639,308.38694 27.048639,308.38694 C 30.048639,306.68694 32.448639,303.98694 34.948639,302.28694 C 43.848639,296.08694 46.948639,289.98694 46.948639,285.38694 C 46.948639,279.68694 42.548639,276.08694 37.948639,275.78694 C 36.248639,275.78694 33.848639,276.58694 32.448639,277.48694 C 31.848639,277.98694 30.748639,278.88694 30.248639,278.88694 C 30.048639,278.88694 29.948639,278.88694 29.748639,278.78694 C 29.048639,278.48694 28.648639,277.78694 28.648639,277.08694 C 28.748639,274.88694 29.348639,250.88664 29.348639,248.88664 C 29.348639,247.78664 28.448639,247.18664 27.448639,247.18664 C 26.048639,247.18664 24.448639,248.18664 24.348639,249.98664 C 24.348639,249.98664 24.748639,307.08694 25.548639,308.08694"
         id="path2394" />
      <path
         class=""
         d="M 4.047639,336.68694 C 4.047639,336.68694 3.747639,330.68694 3.747639,326.68694 C 3.747639,325.08694 3.847639,323.88694 3.947639,323.48694 C 4.647639,321.48694 8.647639,318.58694 10.947639,318.58694 C 13.847639,318.58694 15.047639,321.88694 15.047639,324.38694 C 15.047639,329.78694 10.447639,335.18694 6.147639,337.88694 C 5.747639,338.08694 5.447639,338.18694 5.147639,338.18694 C 4.247639,338.18694 4.047639,337.18694 4.047639,336.68694 M 0.54763897,345.58694 C 0.84763897,345.98694 1.147639,346.08694 1.447639,346.08694 C 1.747639,346.08694 2.047639,345.88694 2.047639,345.88694 C 5.047639,344.18694 7.447639,341.48694 9.947639,339.78694 C 18.847639,333.58694 21.947639,327.48694 21.947639,322.88694 C 21.947639,317.18694 17.547639,313.58694 12.947639,313.28694 C 11.247639,313.28694 8.847639,314.08694 7.447639,314.98694 C 6.847639,315.48694 5.747639,316.38694 5.247639,316.38694 C 5.047639,316.38694 4.947639,316.38694 4.747639,316.28694 C 4.047639,315.98694 3.647639,315.28694 3.647639,314.58694 C 3.747639,312.38694 4.347639,288.38694 4.347639,286.38694 C 4.347639,285.28694 3.447639,284.68694 2.447639,284.68694 C 1.047639,284.68694 -0.55236103,285.68694 -0.65236103,287.48694 C -0.65236103,287.48694 -0.25236103,344.58694 0.54763897,345.58694"
         id="path2396" />
      <path
         class=""
         d="M -20.952361,286.68694 C -20.952361,286.68694 -21.252361,280.68694 -21.252361,276.68694 C -21.252361,275.08694 -21.152361,273.88694 -21.052361,273.48694 C -20.352361,271.48694 -16.352361,268.58694 -14.052361,268.58694 C -11.152361,268.58694 -9.952361,271.88694 -9.952361,274.38694 C -9.952361,279.78694 -14.552361,285.18694 -18.852361,287.88694 C -19.252361,288.08694 -19.552361,288.18694 -19.852361,288.18694 C -20.752361,288.18694 -20.952361,287.18694 -20.952361,286.68694 M -24.452361,295.58694 C -24.152361,295.98694 -23.852361,296.08694 -23.552361,296.08694 C -23.252361,296.08694 -22.952361,295.88694 -22.952361,295.88694 C -19.952361,294.18694 -17.552361,291.48694 -15.052361,289.78694 C -6.152361,283.58694 -3.052361,277.48694 -3.052361,272.88694 C -3.052361,267.18694 -7.452361,263.58694 -12.052361,263.28664 C -13.752361,263.28664 -16.152361,264.08694 -17.552361,264.98694 C -18.152361,265.48694 -19.252361,266.38694 -19.752361,266.38694 C -19.952361,266.38694 -20.052361,266.38694 -20.252361,266.28694 C -20.952361,265.98694 -21.352361,265.28694 -21.352361,264.58694 C -21.252361,262.38664 -20.652361,238.38664 -20.652361,236.38664 C -20.652361,235.28664 -21.552361,234.68664 -22.552361,234.68664 C -23.952361,234.68664 -25.552361,235.68664 -25.652361,237.48664 C -25.652361,237.48664 -25.252361,294.58694 -24.452361,295.58694"
         id="path2398" />
      <path
         class=""
         d="M -45.952361,324.18694 C -45.952361,324.18694 -46.252361,318.18694 -46.252361,314.18694 C -46.252361,312.58694 -46.152361,311.38694 -46.052361,310.98694 C -45.352361,308.98694 -41.352361,306.08694 -39.052361,306.08694 C -36.152361,306.08694 -34.952361,309.38694 -34.952361,311.88694 C -34.952361,317.28694 -39.552361,322.68694 -43.852361,325.38694 C -44.252361,325.58694 -44.552361,325.68694 -44.852361,325.68694 C -45.752361,325.68694 -45.952361,324.68694 -45.952361,324.18694 M -49.452361,333.08694 C -49.152361,333.48694 -48.852361,333.58694 -48.552361,333.58694 C -48.252361,333.58694 -47.952361,333.38694 -47.952361,333.38694 C -44.952361,331.68694 -42.552361,328.98694 -40.052361,327.28694 C -31.152361,321.08694 -28.052361,314.98694 -28.052361,310.38694 C -28.052361,304.68694 -32.452361,301.08694 -37.052361,300.78694 C -38.752361,300.78694 -41.152361,301.58694 -42.552361,302.48694 C -43.152361,302.98694 -44.252361,303.88694 -44.752361,303.88694 C -44.952361,303.88694 -45.052361,303.88694 -45.252361,303.78694 C -45.952361,303.48694 -46.352361,302.78694 -46.352361,302.08694 C -46.252361,299.88694 -45.652361,275.88694 -45.652361,273.88694 C -45.652361,272.78694 -46.552361,272.18694 -47.552361,272.18694 C -48.952361,272.18694 -50.552361,273.18694 -50.652361,274.98694 C -50.652361,274.98694 -50.252361,332.08694 -49.452361,333.08694"
         id="path2400" />
      <path
         class=""
         fill-rule="evenodd"
         d="M 1141.1576,234.72574 L 1319.6276,241.08264 V 253.59054 L 1141.1576,247.23374 V 234.72574"
         id="path2402" />
      <path
         class=""
         fill-rule="evenodd"
         d="M 1141.1576,250.35074 L 1319.6276,256.70764 V 269.21594 L 1141.1576,262.85874 V 250.35074"
         id="path2404" />
      <path
         class=""
         fill-rule="evenodd"
         d="M 370.98164,216.08654 H 608.50564 V 228.58654 H 370.98164 V 216.08654"
         id="path2406" />
      <path
         class=""
         fill-rule="evenodd"
         d="M 452.16164,231.71154 H 608.50564 V 244.21164 H 452.16164 V 231.71154"
         id="path2408" />
      <path
         class=""
         fill-rule="evenodd"
         d="M 452.16164,247.33664 H 608.50564 V 259.83664 H 452.16164 V 247.33664"
         id="path2410" />
    </g>
  </g>
  <metadata
     id="metadata2425">
    <rdf:RDF>
      <cc:Work
         rdf:about="">
        <dc:title>Trans_misc.</dc:title>
      </cc:Work>
    </rdf:RDF>
  </metadata>
</svg>
