<?xml version="1.0" encoding="UTF-8" standalone="no"?>
<svg
   width="22.608385mm"
   height="20.652178mm"
   viewBox="0 0 267.02844 243.92337"
   version="1.2"
   id="svg3491"
   sodipodi:docname="Notation_trans_h1_richtig_(cis2).svg"
   inkscape:version="1.1-dev (0486c1a, 2020-10-10)"
   xmlns:inkscape="http://www.inkscape.org/namespaces/inkscape"
   xmlns:sodipodi="http://sodipodi.sourceforge.net/DTD/sodipodi-0.dtd"
   xmlns="http://www.w3.org/2000/svg"
   xmlns:svg="http://www.w3.org/2000/svg"
   xmlns:rdf="http://www.w3.org/1999/02/22-rdf-syntax-ns#"
   xmlns:cc="http://creativecommons.org/ns#"
   xmlns:dc="http://purl.org/dc/elements/1.1/">
  <sodipodi:namedview
     pagecolor="#ffffff"
     bordercolor="#666666"
     borderopacity="1"
     objecttolerance="10"
     gridtolerance="10"
     guidetolerance="10"
     inkscape:pageopacity="0"
     inkscape:pageshadow="2"
     inkscape:window-width="1016"
     inkscape:window-height="480"
     id="namedview3493"
     showgrid="false"
     lock-margins="true"
     fit-margin-top="1"
     fit-margin-left="1"
     fit-margin-right="1"
     fit-margin-bottom="1"
     inkscape:zoom="0.86698205"
     inkscape:cx="39.793211"
     inkscape:cy="-5.7671321"
     inkscape:window-x="87"
     inkscape:window-y="70"
     inkscape:window-maximized="0"
     inkscape:current-layer="g3447" />
  <title
     id="title3431">Qt Svg Document</title>
  <desc
     id="desc3433">created with MuseScore 2.0.0</desc>
  <defs
     id="defs3435" />
  <g
     fill="none"
     stroke="#000000"
     stroke-opacity="1"
     stroke-width="0.533333"
     stroke-linecap="butt"
     stroke-linejoin="bevel"
     transform="matrix(3.125,0,0,3.125,11.811036,114.09497)"
     font-family="Cantarell"
     font-size="45.8333px"
     font-weight="400"
     font-style="normal"
     id="g3447"
     style="fill-rule:evenodd">
    <path
       id="polyline3437"
       style="vector-effect:none;fill:none;stroke-width:0.410176"
       d="M 0,-0.0615781 H 77.890041" />
    <path
       id="polyline3439"
       style="vector-effect:none;fill:none;stroke-width:0.410176"
       d="M 0,6.6358762 H 77.890041" />
    <path
       id="polyline3441"
       style="vector-effect:none;fill:none;stroke-width:0.410176"
       d="M 0,13.333291 H 77.890041" />
    <path
       id="polyline3443"
       style="vector-effect:none;fill:none;stroke-width:0.410176"
       d="M 0,20.030775 H 77.890041" />
    <path
       id="polyline3445"
       style="vector-effect:none;fill:none;stroke-width:0.410176"
       d="M 0,26.728259 H 77.890041" />
    <text
       xml:space="preserve"
       style="font-size:32px;line-height:1.25;font-family:'Libertinus Sans';-inkscape-font-specification:'Libertinus Sans';letter-spacing:0px;word-spacing:0px;fill:#00aa00"
       x="42.953747"
       y="-9.8704767"
       id="text3528"><tspan
         sodipodi:role="line"
         id="tspan3526"
         x="42.953747"
         y="-9.8704767">✓</tspan></text>
  </g>
  <g
     fill="none"
     stroke="#000000"
     stroke-opacity="1"
     stroke-width="1"
     stroke-linecap="square"
     stroke-linejoin="bevel"
     transform="matrix(3.125,0,0,3.125,125.56084,145.34497)"
     font-family="Bravura"
     font-size="27px"
     font-weight="400"
     font-style="normal"
     id="g3449"
     style="fill-rule:evenodd" />
  <g
     fill="#000000"
     fill-opacity="1"
     stroke="none"
     transform="matrix(3.125,0,0,3.125,125.56084,145.34497)"
     font-family="Bravura"
     font-size="27px"
     font-weight="400"
     font-style="normal"
     id="g3453"
     style="fill-rule:evenodd;stroke-width:1;stroke-linecap:square;stroke-linejoin:bevel">
    <path
       vector-effect="none"
       fill-rule="nonzero"
       d="M 6.39062,-3.1875 C 6.59375,-3.26562 6.71875,-3.48438 6.71875,-3.64062 V -5.5625 C 6.71875,-5.70312 6.64062,-5.78125 6.53125,-5.78125 C 6.48438,-5.78125 6.45312,-5.78125 6.39062,-5.75 C 6.39062,-5.75 5.85938,-5.53125 5.71875,-5.5 C 5.53125,-5.5 5.34375,-5.64062 5.34375,-5.85938 C 5.34375,-6.125 5.34375,-9.15625 5.34375,-9.15625 C 5.34375,-9.3125 5.1875,-9.45312 4.96875,-9.45312 C 4.70312,-9.45312 4.53125,-9.3125 4.53125,-9.15625 C 4.53125,-9.15625 4.53125,-5.90625 4.53125,-5.64062 C 4.5,-5.375 4.42188,-5.01562 4.1875,-4.85938 C 3.85938,-4.67188 2.9375,-4.29688 2.48438,-4.1875 C 2.23438,-4.1875 2.15625,-4.5 2.15625,-4.71875 C 2.15625,-5 2.15625,-7.96875 2.15625,-7.96875 C 2.15625,-8.125 1.96875,-8.26562 1.78125,-8.26562 C 1.51562,-8.26562 1.34375,-8.125 1.34375,-7.96875 C 1.34375,-7.96875 1.34375,-6.5 1.34375,-5.42188 V -4.3125 C 1.34375,-3.9375 1.1875,-3.67188 1.03125,-3.59375 C 0.859375,-3.51562 0.328125,-3.29688 0.328125,-3.29688 C 0.140625,-3.23438 0,-3.01562 0,-2.85938 V -0.9375 C 0,-0.78125 0.078125,-0.703125 0.21875,-0.703125 C 0.25,-0.703125 0.296875,-0.734375 0.328125,-0.734375 C 0.328125,-0.734375 0.734375,-0.890625 0.921875,-1 C 0.9375,-1 0.96875,-1.03125 1,-1.03125 C 1.1875,-1.03125 1.34375,-0.75 1.34375,-0.546875 V 2.125 C 1.34375,2.42188 1.21875,2.67188 1.04688,2.75 C 0.890625,2.8125 0.328125,3.04688 0.328125,3.04688 C 0.140625,3.10938 0,3.3125 0,3.48438 V 5.40625 C 0,5.5625 0.078125,5.64062 0.21875,5.64062 C 0.25,5.64062 0.296875,5.60938 0.328125,5.60938 C 0.328125,5.60938 0.703125,5.45312 0.9375,5.375 C 0.96875,5.34375 1,5.34375 1.03125,5.34375 C 1.21875,5.34375 1.34375,5.64062 1.34375,5.78125 C 1.34375,5.9375 1.34375,9.09375 1.34375,9.09375 C 1.34375,9.26562 1.51562,9.39062 1.70312,9.39062 C 1.96875,9.39062 2.15625,9.26562 2.15625,9.09375 C 2.15625,9.09375 2.15625,5.67188 2.15625,5.34375 C 2.15625,5 2.29688,4.8125 2.42188,4.75 L 4.07812,4.07812 C 4.10938,4.07812 4.15625,4.04688 4.1875,4.04688 C 4.40625,4.04688 4.53125,4.375 4.53125,4.53125 C 4.53125,4.71875 4.53125,7.90625 4.53125,7.90625 C 4.53125,8.07812 4.70312,8.20312 4.89062,8.20312 C 5.1875,8.20312 5.34375,8.07812 5.34375,7.90625 C 5.34375,7.90625 5.34375,4.26562 5.34375,4.07812 C 5.34375,3.85938 5.45312,3.53125 5.64062,3.45312 C 5.82812,3.375 6.39062,3.15625 6.39062,3.15625 C 6.59375,3.07812 6.71875,2.85938 6.71875,2.70312 V 0.78125 C 6.71875,0.640625 6.64062,0.5625 6.53125,0.5625 C 6.48438,0.5625 6.45312,0.5625 6.39062,0.59375 C 6.39062,0.59375 5.82812,0.8125 5.70312,0.859375 C 5.53125,0.859375 5.34375,0.703125 5.34375,0.375 V -2.125 C 5.34375,-2.32812 5.48438,-2.82812 5.70312,-2.92188 C 5.90625,-3 6.39062,-3.1875 6.39062,-3.1875 M 4.53125,1.21875 C 4.375,1.75 3.10938,2.29688 2.48438,2.29688 C 2.32812,2.29688 2.1875,2.23438 2.15625,2.15625 C 2.10938,2.04688 2.07812,1.45312 2.07812,0.8125 C 2.07812,-0.03125 2.10938,-0.96875 2.15625,-1.1875 C 2.21875,-1.64062 3.45312,-2.21875 4.125,-2.21875 C 4.3125,-2.21875 4.48438,-2.15625 4.53125,-2.04688 C 4.59375,-1.92188 4.64062,-1.23438 4.64062,-0.515625 C 4.64062,0.21875 4.59375,0.96875 4.53125,1.21875"
       id="path3451" />
  </g>
  <g
     fill="none"
     stroke="#000000"
     stroke-opacity="1"
     stroke-width="1"
     stroke-linecap="square"
     stroke-linejoin="bevel"
     transform="matrix(3.125,0,0,3.125,125.56084,145.34497)"
     font-family="Bravura"
     font-size="27px"
     font-weight="400"
     font-style="normal"
     id="g3455"
     style="fill-rule:evenodd" />
  <g
     fill="none"
     stroke="#000000"
     stroke-opacity="1"
     stroke-width="1"
     stroke-linecap="square"
     stroke-linejoin="bevel"
     transform="matrix(3.125,0,0,3.125,152.01984,145.34497)"
     font-family="Bravura"
     font-size="27px"
     font-weight="400"
     font-style="normal"
     id="g3457"
     style="fill-rule:evenodd" />
  <g
     fill="#000000"
     fill-opacity="1"
     stroke="none"
     transform="matrix(3.125,0,0,3.125,152.01984,145.34497)"
     font-family="Bravura"
     font-size="27px"
     font-weight="400"
     font-style="normal"
     id="g3461"
     style="fill-rule:evenodd;stroke-width:1;stroke-linecap:square;stroke-linejoin:bevel">
    <path
       vector-effect="none"
       fill-rule="nonzero"
       d="M 6.34375,-3.70312 C 2.42188,-3.70312 0,-2.04688 0,-0.046875 C 0,1.92188 1.67188,3.67188 6.04688,3.67188 C 10.8438,3.67188 12.3906,2 12.3906,-0.046875 C 12.3906,-2.125 9.0625,-3.70312 6.34375,-3.70312 M 3.26562,-1.85938 C 3.59375,-2.85938 4.67188,-3.01562 5.59375,-3.01562 C 7.57812,-3.01562 9.20312,-0.859375 9.20312,0.921875 C 9.20312,1.10938 9.17188,1.29688 9.15625,1.45312 C 9.01562,2.1875 8.57812,2.70312 7.85938,2.89062 C 7.5625,2.96875 7.26562,3 6.96875,3 C 6.6875,3 6.45312,2.96875 6.1875,2.89062 C 5.70312,2.71875 5.20312,2.45312 4.8125,2.10938 C 4.59375,1.92188 4.375,1.70312 4.1875,1.45312 C 3.60938,0.78125 3.15625,-0.21875 3.15625,-1.14062 C 3.15625,-1.375 3.1875,-1.625 3.26562,-1.85938"
       id="path3459" />
  </g>
  <g
     fill="none"
     stroke="#000000"
     stroke-opacity="1"
     stroke-width="1"
     stroke-linecap="square"
     stroke-linejoin="bevel"
     transform="matrix(3.125,0,0,3.125,152.01984,145.34497)"
     font-family="Bravura"
     font-size="27px"
     font-weight="400"
     font-style="normal"
     id="g3463"
     style="fill-rule:evenodd" />
  <g
     fill="none"
     stroke="#000000"
     stroke-opacity="1"
     stroke-width="1"
     stroke-linecap="square"
     stroke-linejoin="bevel"
     transform="matrix(3.125,0,0,3.125,25.144436,176.59497)"
     font-family="Bravura"
     font-size="27px"
     font-weight="400"
     font-style="normal"
     id="g3465"
     style="fill-rule:evenodd" />
  <g
     fill="#000000"
     fill-opacity="1"
     stroke="none"
     transform="matrix(3.125,0,0,3.125,25.144436,176.59497)"
     font-family="Bravura"
     font-size="27px"
     font-weight="400"
     font-style="normal"
     id="g3469"
     style="fill-rule:evenodd;stroke-width:1;stroke-linecap:square;stroke-linejoin:bevel">
    <path
       vector-effect="none"
       fill-rule="nonzero"
       d="M 18.2812,-0.671875 C 18.0625,-4.15625 15.1406,-6.89062 11.6875,-6.89062 H 11.3906 C 11.2812,-6.89062 11.1406,-6.89062 11.0469,-6.82812 C 10.75,-8.57812 10.4531,-9.98438 10.1719,-11.4375 C 13.7969,-14.7969 15.625,-18.3281 15.625,-22 C 15.625,-23.7031 15.2188,-25.4219 14.4688,-27.1875 C 13.4219,-29.5781 12.4375,-29.75 12.4375,-29.75 C 9.85938,-28.6094 8.07812,-24.5312 8.07812,-19.6562 C 8.07812,-18.7656 8.125,-17.8438 8.26562,-16.8906 L 8.57812,-15.2031 C 4.60938,-11.7969 0.15625,-7.82812 0.15625,-2.625 C 0.15625,-2.34375 0.15625,-2.07812 0.1875,-1.8125 C 0.703125,4.71875 5.79688,6.79688 10.2344,6.79688 C 10.8438,6.79688 11.4688,6.78125 12.0625,6.6875 C 12.0625,6.6875 12.1406,6.6875 12.2031,6.6875 L 12.8281,10.4688 C 12.9219,11.1406 12.9844,11.7656 12.9844,12.3125 C 12.9844,16.7031 9.6875,16.7656 9.35938,16.7656 H 8.85938 C 7.9375,16.7656 7.1875,16.625 6.60938,16.2188 C 6.45312,16.1094 6.375,16 6.375,15.9219 C 6.375,15.8125 6.48438,15.7656 6.60938,15.7031 C 6.85938,15.6562 7.04688,15.6562 7.28125,15.5469 C 8.39062,15.2031 9.17188,14.2188 9.17188,13.0156 V 12.8281 C 9.04688,11.4219 7.875,10.25 6.42188,10.25 H 6.23438 C 5,10.3438 3.9375,11.3125 3.78125,12.5312 C 3.75,12.5312 3.67188,12.9219 3.67188,13.5 C 3.67188,14.9844 4.34375,17.7656 8.79688,17.7656 C 8.98438,17.7656 9.20312,17.7344 9.42188,17.7344 C 11.3438,17.625 14.2031,16.4375 14.2031,12.2031 C 14.2031,11.6406 14.1406,11.0156 14.0312,10.3438 C 14.0312,10.3438 13.7188,8.75 13.3594,6.3125 C 16.3906,5.1875 18.2812,2.71875 18.2812,-0.296875 V -0.671875 M 12.625,-25.4531 C 13.5156,-25.4531 14.4219,-24.75 14.4219,-23.2969 C 14.4219,-23.1094 14.3906,-22.9219 14.3594,-22.7031 C 14.0312,-20.4531 12.3594,-18.1719 9.46875,-15.9844 C 9.35938,-16.625 9.26562,-17.1406 9.26562,-17.2969 C 9.20312,-17.5938 9.20312,-17.9219 9.20312,-18.2812 C 9.20312,-21.0469 10.5,-25.3438 12.625,-25.4531 M 2.32812,-0.4375 C 2.32812,-4.9375 5.75,-8.23438 9.28125,-10.8438 L 9.95312,-6.64062 C 7.53125,-5.90625 5.60938,-3.60938 5.60938,-1.1875 C 5.60938,-0.78125 5.67188,-0.375 5.78125,0 C 6.20312,1.82812 7.42188,3.1875 8.6875,3.59375 C 8.9375,3.67188 9.125,3.70312 9.26562,3.70312 C 9.46875,3.70312 9.57812,3.59375 9.57812,3.48438 C 9.57812,3.3125 9.39062,3.10938 9.17188,3 C 8.64062,2.75 7.42188,1.4375 7.375,0.328125 V 0.046875 C 7.375,-1.82812 8.76562,-2.71875 10.5469,-3.01562 L 12.0156,5.60938 C 11.6094,5.75 10.9844,5.82812 10.2344,5.82812 C 7.28125,5.82812 2.48438,4.5 2.32812,-0.21875 V -0.4375 M 13.1719,5.3125 C 12.7344,2.85938 12.2031,-0.078125 11.6406,-3.125 H 11.7344 C 14.0156,-3.125 15.9531,-1.32812 16.0625,0.9375 V 1.23438 C 16.0625,3.125 15.0625,4.5 13.1719,5.3125"
       id="path3467" />
  </g>
  <g
     fill="none"
     stroke="#000000"
     stroke-opacity="1"
     stroke-width="1"
     stroke-linecap="square"
     stroke-linejoin="bevel"
     transform="matrix(3.125,0,0,3.125,25.144436,176.59497)"
     font-family="Bravura"
     font-size="27px"
     font-weight="400"
     font-style="normal"
     id="g3471"
     style="fill-rule:evenodd" />
  <g
     fill="none"
     stroke="#000000"
     stroke-opacity="1"
     stroke-width="1"
     stroke-linecap="square"
     stroke-linejoin="bevel"
     transform="matrix(3.125,0,0,3.125,-106.29916,386.69197)"
     font-family="Cantarell"
     font-size="15px"
     font-weight="400"
     font-style="normal"
     id="g3473"
     style="fill-rule:evenodd" />
  <g
     fill="none"
     stroke="#000000"
     stroke-opacity="1"
     stroke-width="1"
     stroke-linecap="square"
     stroke-linejoin="bevel"
     transform="matrix(3.125,0,0,3.125,-106.29916,386.69197)"
     font-family="Cantarell"
     font-size="15px"
     font-weight="400"
     font-style="normal"
     id="g3479"
     style="fill-rule:evenodd" />
  <g
     fill="none"
     stroke="#000000"
     stroke-opacity="1"
     stroke-width="1"
     stroke-linecap="square"
     stroke-linejoin="bevel"
     transform="matrix(3.125,0,0,3.125,-106.29916,386.69197)"
     font-family="Cantarell"
     font-size="15px"
     font-weight="400"
     font-style="normal"
     id="g3481"
     style="fill-rule:evenodd" />
  <g
     fill="none"
     stroke="#000000"
     stroke-opacity="1"
     stroke-width="1"
     stroke-linecap="square"
     stroke-linejoin="bevel"
     transform="matrix(3.125,0,0,3.125,-106.29916,386.69197)"
     font-family="Cantarell"
     font-size="15px"
     font-weight="400"
     font-style="normal"
     id="g3487"
     style="fill-rule:evenodd" />
  <metadata
     id="metadata3530">
    <rdf:RDF>
      <cc:Work
         rdf:about="">
        <dc:title>Qt Svg Document</dc:title>
      </cc:Work>
    </rdf:RDF>
  </metadata>
</svg>
