<?xml version="1.0" encoding="UTF-8" standalone="no"?>
<svg
   width="466.05481mm"
   height="112.24911mm"
   viewBox="0 0 1761.467 424.24862"
   version="1.2"
   id="svg2220"
   sodipodi:docname="Sibelius_Tuonella_Engl.-Hn_notiert.svg"
   inkscape:version="1.1-dev (0486c1a, 2020-10-10)"
   xmlns:inkscape="http://www.inkscape.org/namespaces/inkscape"
   xmlns:sodipodi="http://sodipodi.sourceforge.net/DTD/sodipodi-0.dtd"
   xmlns="http://www.w3.org/2000/svg"
   xmlns:svg="http://www.w3.org/2000/svg"
   xmlns:rdf="http://www.w3.org/1999/02/22-rdf-syntax-ns#"
   xmlns:cc="http://creativecommons.org/ns#"
   xmlns:dc="http://purl.org/dc/elements/1.1/">
  <defs
     id="defs2224" />
  <sodipodi:namedview
     pagecolor="#ffffff"
     bordercolor="#666666"
     borderopacity="1"
     objecttolerance="10"
     gridtolerance="10"
     guidetolerance="10"
     inkscape:pageopacity="0"
     inkscape:pageshadow="2"
     inkscape:window-width="984"
     inkscape:window-height="480"
     id="namedview2222"
     showgrid="false"
     showguides="false"
     inkscape:snap-global="false"
     units="mm"
     fit-margin-top="1"
     lock-margins="true"
     fit-margin-left="1"
     fit-margin-right="1"
     fit-margin-bottom="1"
     inkscape:zoom="0.21620173"
     inkscape:cx="1172.5161"
     inkscape:cy="407.02727"
     inkscape:window-x="69"
     inkscape:window-y="96"
     inkscape:window-maximized="0"
     inkscape:current-layer="svg2220" />
  <title
     id="title2114">Trans_misc.</title>
  <desc
     id="desc2116">Generated by MuseScore 3.5.2</desc>
  <circle
     style="fill:#00ffff;fill-opacity:1;stroke:none;stroke-width:1.34991;stroke-linecap:round;stroke-linejoin:round"
     id="circle364"
     cx="128.32323"
     cy="267.01111"
     r="37.795277" />
  <circle
     style="fill:#00ff00;fill-opacity:1;stroke:none;stroke-width:1.9;stroke-linecap:round;stroke-linejoin:round"
     id="circle1886"
     cx="1251.3936"
     cy="315.94724"
     r="56.692913" />
  <circle
     style="fill:#00ff00;fill-opacity:1;stroke:none;stroke-width:1.9;stroke-linecap:round;stroke-linejoin:round"
     id="circle1880"
     cx="884.2085"
     cy="328.39722"
     r="56.692913" />
  <circle
     style="fill:#ffbf00;fill-opacity:1;stroke:none;stroke-width:1.9;stroke-linecap:round;stroke-linejoin:round"
     id="circle1609"
     cx="605.79541"
     cy="353.44727"
     r="56.692913" />
  <rect
     style="fill:none;stroke-width:9.32363;stroke-linecap:round;stroke-linejoin:round"
     id="rect1905"
     width="1757.4803"
     height="306.97324"
     x="-44.878815"
     y="28.393557" />
  <text
     xml:space="preserve"
     style="font-size:53.3333px;line-height:1.25;font-family:'Libertinus Sans';-inkscape-font-specification:'Libertinus Sans';text-align:justify;letter-spacing:0px;word-spacing:0px;white-space:pre;shape-inside:url(#rect1905);fill:#008080"
     x="1.3795295"
     y="-25.445202"
     id="text650"
     transform="matrix(1,0,0,1.0000502,46.845102,-23.179446)"><tspan
       x="-44.878906"
       y="76.88573"><tspan
         dx="0 0 0 0 0 0 0 0 3.4359617 0 0 0 3.4359465 0 0 0 0 0 0 3.4359617 0 0 0 0 0 3.4359617 0 0 0 3.4359617 0 0 0 3.4359617 0 0 0 0 0 0 0 0 0 0 0 0 0 0 0 0 3.4359617 0 -0.00011253357 0 0 0 0 3.4359617 0 0 0 0 0 -0.00011062622 3.4359617 0 0 0 3.4359617 0 0 0 0 0 0 0 3.4359617 0 0 3.4359617"
         style="fill:#008080">e-Moll: der letzte Kreuz bei den Tonartvorzeichen (fis), bildet den Leitton in G-</tspan></tspan><tspan
       x="-44.878906"
       y="143.55236"><tspan
         style="fill:#008080">Dur, der parallelen Dur-Tonart.</tspan></tspan></text>
  <path
     class=""
     stroke="#000000"
     stroke-width="2.5"
     stroke-linecap="round"
     stroke-linejoin="round"
     fill-rule="evenodd"
     d="M 226.22123,259.5381 C 381.75423,178.8775 1106.0302,181.8201 1260.9102,263.7421 C 1106.0102,187.82 381.73023,184.8774 226.22123,259.5381"
     id="path2118" />
  <path
     class=""
     stroke="#000000"
     stroke-width="2.5"
     stroke-linecap="round"
     stroke-linejoin="round"
     fill-rule="evenodd"
     d="M 1399.7702,285.8611 C 1437.0502,254.5281 1548.8902,254.5281 1586.1802,285.8611 C 1548.8902,260.5281 1437.0502,260.5281 1399.7702,285.8611"
     id="path2120" />
  <path
     class=""
     stroke="#000000"
     stroke-width="2.5"
     stroke-linecap="round"
     stroke-linejoin="round"
     fill-rule="evenodd"
     d="M 894.28423,348.3611 C 937.82823,377.8611 1068.4602,377.8611 1112.0002,348.3611 C 1068.4602,383.8611 937.82823,383.8611 894.28423,348.3611"
     id="path2122" />
  <polyline
     class=""
     stroke="#000000"
     stroke-width="4"
     stroke-linejoin="bevel"
     points="1347.16,133.324 1347.16,236.574"
     id="polyline2124"
     transform="translate(-10.719772,132.1621)" />
  <polyline
     class=""
     stroke="#000000"
     stroke-width="4"
     stroke-linejoin="bevel"
     points="837.577,133.324 837.577,236.574"
     id="polyline2126"
     transform="translate(-10.719772,132.1621)" />
  <polyline
     class=""
     stroke="#000000"
     stroke-width="3.25"
     stroke-linejoin="bevel"
     points="1349.16,134.949 1713.27,134.949"
     id="polyline2128"
     transform="translate(-10.719772,132.1621)" />
  <polyline
     class=""
     stroke="#000000"
     stroke-width="3.25"
     stroke-linejoin="bevel"
     points="1349.16,159.949 1713.27,159.949"
     id="polyline2130"
     transform="translate(-10.719772,132.1621)" />
  <polyline
     class=""
     stroke="#000000"
     stroke-width="3.25"
     stroke-linejoin="bevel"
     points="1349.16,184.949 1713.27,184.949"
     id="polyline2132"
     transform="translate(-10.719772,132.1621)" />
  <polyline
     class=""
     stroke="#000000"
     stroke-width="3.25"
     stroke-linejoin="bevel"
     points="1349.16,209.949 1713.27,209.949"
     id="polyline2134"
     transform="translate(-10.719772,132.1621)" />
  <polyline
     class=""
     stroke="#000000"
     stroke-width="3.25"
     stroke-linejoin="bevel"
     points="1349.16,234.949 1713.27,234.949"
     id="polyline2136"
     transform="translate(-10.719772,132.1621)" />
  <polyline
     class=""
     stroke="#000000"
     stroke-width="3.25"
     stroke-linejoin="bevel"
     points="839.577,134.949 1349.16,134.949"
     id="polyline2138"
     transform="translate(-10.719772,132.1621)" />
  <polyline
     class=""
     stroke="#000000"
     stroke-width="3.25"
     stroke-linejoin="bevel"
     points="839.577,159.949 1349.16,159.949"
     id="polyline2140"
     transform="translate(-10.719772,132.1621)" />
  <polyline
     class=""
     stroke="#000000"
     stroke-width="3.25"
     stroke-linejoin="bevel"
     points="839.577,184.949 1349.16,184.949"
     id="polyline2142"
     transform="translate(-10.719772,132.1621)" />
  <polyline
     class=""
     stroke="#000000"
     stroke-width="3.25"
     stroke-linejoin="bevel"
     points="839.577,209.949 1349.16,209.949"
     id="polyline2144"
     transform="translate(-10.719772,132.1621)" />
  <polyline
     class=""
     stroke="#000000"
     stroke-width="3.25"
     stroke-linejoin="bevel"
     points="839.577,234.949 1349.16,234.949"
     id="polyline2146"
     transform="translate(-10.719772,132.1621)" />
  <polyline
     class=""
     stroke="#000000"
     stroke-width="3.25"
     stroke-linejoin="bevel"
     points="14.4993,134.949 839.577,134.949"
     id="polyline2148"
     transform="translate(-10.719772,132.1621)" />
  <polyline
     class=""
     stroke="#000000"
     stroke-width="3.25"
     stroke-linejoin="bevel"
     points="14.4993,159.949 839.577,159.949"
     id="polyline2150"
     transform="matrix(1,0,0,1.0000502,-10.719772,132.16856)" />
  <polyline
     class=""
     stroke="#000000"
     stroke-width="3.25"
     stroke-linejoin="bevel"
     points="14.4993,184.949 839.577,184.949"
     id="polyline2152"
     transform="translate(-10.719772,132.1621)" />
  <polyline
     class=""
     stroke="#000000"
     stroke-width="3.25"
     stroke-linejoin="bevel"
     points="14.4993,209.949 839.577,209.949"
     id="polyline2154"
     transform="translate(-10.719772,132.1621)" />
  <polyline
     class=""
     stroke="#000000"
     stroke-width="3.25"
     stroke-linejoin="bevel"
     points="14.4993,234.949 839.577,234.949"
     id="polyline2156"
     transform="translate(-10.719772,132.1621)" />
  <path
     class=""
     d="M 1221.0602,325.2111 C 1221.0602,325.2111 1220.7602,319.2111 1220.7602,315.2111 C 1220.7602,313.6111 1220.8602,312.4111 1220.9602,312.0111 C 1221.6602,310.0111 1225.6602,307.1111 1227.9602,307.1111 C 1230.8602,307.1111 1232.0602,310.4111 1232.0602,312.9111 C 1232.0602,318.3111 1227.4602,323.7111 1223.1602,326.4111 C 1222.7602,326.6111 1222.4602,326.7111 1222.1602,326.7111 C 1221.2602,326.7111 1221.0602,325.7111 1221.0602,325.2111 M 1217.5602,334.1111 C 1217.8602,334.5111 1218.1602,334.6111 1218.4602,334.6111 C 1218.7602,334.6111 1219.0602,334.4111 1219.0602,334.4111 C 1222.0602,332.7111 1224.4602,330.0111 1226.9602,328.3111 C 1235.8602,322.1111 1238.9602,316.0111 1238.9602,311.4111 C 1238.9602,305.7111 1234.5602,302.1111 1229.9602,301.8111 C 1228.2602,301.8111 1225.8602,302.6111 1224.4602,303.5111 C 1223.8602,304.0111 1222.7602,304.9111 1222.2602,304.9111 C 1222.0602,304.9111 1221.9602,304.9111 1221.7602,304.8111 C 1221.0602,304.5111 1220.6602,303.8111 1220.6602,303.1111 C 1220.7602,300.9111 1221.3602,276.9111 1221.3602,274.9111 C 1221.3602,273.8111 1220.4602,273.2111 1219.4602,273.2111 C 1218.0602,273.2111 1216.4602,274.2111 1216.3602,276.0111 C 1216.3602,276.0111 1216.7602,333.1111 1217.5602,334.1111"
     id="path2158" />
  <path
     class=""
     d="M 841.05723,337.7111 C 841.05723,337.7111 840.75723,331.7111 840.75723,327.7111 C 840.75723,326.1111 840.85723,324.9111 840.95723,324.5111 C 841.65723,322.5111 845.65723,319.6111 847.95723,319.6111 C 850.85723,319.6111 852.05723,322.9111 852.05723,325.4111 C 852.05723,330.8111 847.45723,336.2111 843.15723,338.9111 C 842.75723,339.1111 842.45723,339.2111 842.15723,339.2111 C 841.25723,339.2111 841.05723,338.2111 841.05723,337.7111 M 837.55723,346.6111 C 837.85723,347.0111 838.15723,347.1111 838.45723,347.1111 C 838.75723,347.1111 839.05723,346.9111 839.05723,346.9111 C 842.05723,345.2111 844.45723,342.5111 846.95723,340.8111 C 855.85723,334.6111 858.95723,328.5111 858.95723,323.9111 C 858.95723,318.2111 854.55723,314.6111 849.95723,314.3111 C 848.25723,314.3111 845.85723,315.1111 844.45723,316.0111 C 843.85723,316.5111 842.75723,317.4111 842.25723,317.4111 C 842.05723,317.4111 841.95723,317.4111 841.75723,317.3111 C 841.05723,317.0111 840.65723,316.3111 840.65723,315.6111 C 840.75723,313.4111 841.35723,289.4111 841.35723,287.4111 C 841.35723,286.3111 840.45723,285.7111 839.45723,285.7111 C 838.05723,285.7111 836.45723,286.7111 836.35723,288.5111 C 836.35723,288.5111 836.75723,345.6111 837.55723,346.6111"
     id="path2160" />
  <path
     class=""
     d="M 575.92123,374.1111 C 576.02123,374.1111 576.52123,374.0111 576.62123,373.9111 C 578.02123,373.3111 583.62123,370.9111 586.52123,370.9111 C 587.52123,370.9111 588.22123,371.2111 588.22123,372.0111 V 386.9111 C 588.22123,387.6111 588.72123,388.1111 589.42123,388.1111 H 590.72123 C 591.32123,388.1111 591.92123,387.6111 591.92123,386.9111 V 336.7111 C 591.92123,336.2111 591.52123,335.9111 591.12123,335.9111 C 591.02123,335.9111 590.82123,335.9111 590.72123,336.0111 L 589.22123,336.5111 C 589.02123,336.5111 588.92123,336.6111 588.82123,336.6111 C 588.82123,336.6111 582.42123,338.9111 579.82123,338.9111 C 579.22123,338.9111 578.82123,338.8111 578.82123,338.4111 V 321.7111 C 578.82123,321.0111 578.22123,320.5111 577.62123,320.5111 H 576.32123 C 575.62123,320.5111 575.12123,321.0111 575.12123,321.7111 V 373.2111 C 575.12123,373.8111 575.42123,374.1111 575.92123,374.1111 M 578.82123,350.7111 C 578.82123,349.3111 584.92123,346.7111 587.32123,346.7111 C 587.92123,346.7111 588.22123,346.8111 588.22123,347.2111 V 357.5111 C 588.22123,359.3111 582.52123,361.6111 580.02123,361.6111 C 579.32123,361.6111 578.82123,361.4111 578.82123,361.0111 V 350.7111"
     id="path2162" />
  <polyline
     class=""
     stroke="#000000"
     stroke-width="3"
     stroke-linecap="round"
     stroke-linejoin="bevel"
     points="1586.88,175.809 1586.88,253.699"
     id="polyline2164"
     transform="translate(-10.719772,132.1621)" />
  <polyline
     class=""
     stroke="#000000"
     stroke-width="3"
     stroke-linecap="round"
     stroke-linejoin="bevel"
     points="1256.68,188.309 1256.68,263.074"
     id="polyline2166"
     transform="translate(-10.719772,132.1621)" />
  <polyline
     class=""
     stroke="#000000"
     stroke-width="3"
     stroke-linecap="round"
     stroke-linejoin="bevel"
     points="1142.61,194.089 1142.61,116.199"
     id="polyline2168"
     transform="translate(-10.719772,132.1621)" />
  <polyline
     class=""
     stroke="#000000"
     stroke-width="3"
     stroke-linecap="round"
     stroke-linejoin="bevel"
     points="639.536,219.089 639.536,134.949"
     id="polyline2170"
     transform="translate(-10.719772,132.1621)" />
  <polyline
     class=""
     stroke="#000000"
     stroke-width="3"
     stroke-linecap="round"
     stroke-linejoin="bevel"
     points="753.256,206.589 753.256,125.574"
     id="polyline2172"
     transform="translate(-10.719772,132.1621)" />
  <polyline
     class=""
     stroke="#000000"
     stroke-width="3"
     stroke-linecap="round"
     stroke-linejoin="bevel"
     points="484.404,163.309 484.404,241.199"
     id="polyline2174"
     transform="translate(-10.719772,132.1621)" />
  <polyline
     class=""
     stroke="#000000"
     stroke-width="3"
     stroke-linecap="round"
     stroke-linejoin="bevel"
     points="542.692,175.809 542.692,241.199"
     id="polyline2176"
     transform="translate(-10.719772,132.1621)" />
  <polyline
     class=""
     stroke="#000000"
     stroke-width="3"
     stroke-linecap="round"
     stroke-linejoin="bevel"
     points="426.115,175.809 426.115,241.199"
     id="polyline2178"
     transform="translate(-10.719772,132.1621)" />
  <path
     class=""
     d="M 1585.4602,318.6111 C 1603.8602,318.6111 1607.5602,303.6111 1607.5602,300.0111 C 1607.5602,294.3111 1603.0602,290.6111 1596.5602,290.6111 C 1579.8602,290.6111 1574.6602,303.5111 1574.6602,309.3111 C 1574.6602,315.2111 1579.3602,318.6111 1585.4602,318.6111 M 1593.9602,309.7111 C 1588.9602,313.1111 1585.4602,314.3111 1583.0602,314.3111 C 1580.7602,314.3111 1579.3602,313.1111 1578.6602,311.7111 C 1578.2602,311.1111 1577.9602,310.3111 1577.9602,309.5111 C 1577.9602,304.1111 1594.0602,295.2111 1599.3602,295.2111 C 1601.4602,295.2111 1602.6602,296.2111 1603.4602,297.6111 C 1603.7602,298.2111 1604.0602,298.9111 1604.0602,299.7111 C 1604.0602,301.9111 1601.7602,304.6111 1593.9602,309.7111"
     id="path2180" />
  <path
     class=""
     d="M 1393.4402,290.9111 C 1378.9402,290.9111 1369.9402,297.0111 1369.9402,304.4111 C 1369.9402,311.7111 1376.1402,318.2111 1392.3402,318.2111 C 1410.1402,318.2111 1415.8402,312.0111 1415.8402,304.4111 C 1415.8402,296.7111 1403.5402,290.9111 1393.4402,290.9111 M 1390.6402,293.4111 C 1398.0402,293.4111 1404.0402,301.4111 1404.0402,308.0111 C 1404.0402,313.4111 1400.6402,315.7111 1395.7402,315.7111 C 1388.5402,315.7111 1381.6402,307.4111 1381.6402,300.4111 C 1381.6402,294.8111 1385.5402,293.4111 1390.6402,293.4111"
     id="path2182" />
  <path
     class=""
     d="M 1255.2602,331.1111 C 1265.1602,331.1111 1277.3602,321.9111 1277.3602,312.4111 C 1277.3602,306.8111 1272.8602,303.1111 1266.4602,303.1111 C 1254.2602,303.1111 1244.4602,312.2111 1244.4602,321.8111 C 1244.4602,327.6111 1249.2602,331.1111 1255.2602,331.1111"
     id="path2184" />
  <path
     class=""
     d="M 1111.2902,343.6111 C 1129.6902,343.6111 1133.3902,328.6111 1133.3902,325.0111 C 1133.3902,319.3111 1128.8902,315.6111 1122.3902,315.6111 C 1105.6902,315.6111 1100.4902,328.5111 1100.4902,334.3111 C 1100.4902,340.2111 1105.1902,343.6111 1111.2902,343.6111 M 1119.7902,334.7111 C 1114.7902,338.1111 1111.2902,339.3111 1108.8902,339.3111 C 1106.5902,339.3111 1105.1902,338.1111 1104.4902,336.7111 C 1104.0902,336.1111 1103.7902,335.3111 1103.7902,334.5111 C 1103.7902,329.1111 1119.8902,320.2111 1125.1902,320.2111 C 1127.2902,320.2111 1128.4902,321.2111 1129.2902,322.6111 C 1129.5902,323.2111 1129.8902,323.9111 1129.8902,324.7111 C 1129.8902,326.9111 1127.5902,329.6111 1119.7902,334.7111"
     id="path2186" />
  <path
     class=""
     d="M 887.95023,315.9111 C 873.45023,315.9111 864.45023,322.0111 864.45023,329.4111 C 864.45023,336.7111 870.65023,343.2111 886.85023,343.2111 C 904.65023,343.2111 910.35023,337.0111 910.35023,329.4111 C 910.35023,321.7111 898.05023,315.9111 887.95023,315.9111 M 885.15023,318.4111 C 892.55023,318.4111 898.55023,326.4111 898.55023,333.0111 C 898.55023,338.4111 895.15023,340.7111 890.25023,340.7111 C 883.05023,340.7111 876.15023,332.4111 876.15023,325.4111 C 876.15023,319.8111 880.05023,318.4111 885.15023,318.4111"
     id="path2188" />
  <path
     class=""
     d="M 721.93723,356.1111 C 731.83723,356.1111 744.03723,346.9111 744.03723,337.4111 C 744.03723,331.8111 739.53723,328.1111 733.13723,328.1111 C 720.93723,328.1111 711.13723,337.2111 711.13723,346.8111 C 711.13723,352.6111 715.93723,356.1111 721.93723,356.1111"
     id="path2190" />
  <path
     class=""
     d="M 482.98423,306.1111 C 492.88423,306.1111 505.08423,296.9111 505.08423,287.4111 C 505.08423,281.8111 500.58423,278.1111 494.18423,278.1111 C 481.98423,278.1111 472.18423,287.2111 472.18423,296.8111 C 472.18423,302.6111 476.98423,306.1111 482.98423,306.1111"
     id="path2192" />
  <path
     class=""
     d="M 541.27223,318.6111 C 551.17223,318.6111 563.37223,309.4111 563.37223,299.9111 C 563.37223,294.3111 558.87223,290.6111 552.47223,290.6111 C 540.27223,290.6111 530.47223,299.7111 530.47223,309.3111 C 530.47223,315.1111 535.27223,318.6111 541.27223,318.6111"
     id="path2194" />
  <path
     class=""
     d="M 608.21823,368.6111 C 618.11823,368.6111 630.31823,359.4111 630.31823,349.9111 C 630.31823,344.3111 625.81823,340.6111 619.41823,340.6111 C 607.21823,340.6111 597.41823,349.7111 597.41823,359.3111 C 597.41823,365.1111 602.21823,368.6111 608.21823,368.6111"
     id="path2196" />
  <path
     class=""
     d="M 424.69523,318.6111 C 434.59523,318.6111 446.79523,309.4111 446.79523,299.9111 C 446.79523,294.3111 442.29523,290.6111 435.89523,290.6111 C 423.69523,290.6111 413.89523,299.7111 413.89523,309.3111 C 413.89523,315.1111 418.69523,318.6111 424.69523,318.6111"
     id="path2198" />
  <path
     class=""
     d="M 226.77223,278.4111 C 212.27223,278.4111 203.27223,284.5111 203.27223,291.9111 C 203.27223,299.2111 209.47223,305.7111 225.67223,305.7111 C 243.47223,305.7111 249.17223,299.5111 249.17223,291.9111 C 249.17223,284.2111 236.87223,278.4111 226.77223,278.4111 M 223.97223,280.9111 C 231.37223,280.9111 237.37223,288.9111 237.37223,295.5111 C 237.37223,300.9111 233.97223,303.2111 229.07223,303.2111 C 221.87223,303.2111 214.97223,294.9111 214.97223,287.9111 C 214.97223,282.3111 218.87223,280.9111 223.97223,280.9111"
     id="path2200" />
  <path
     class=""
     d="M 70.779528,247.8111 C 74.079528,247.8111 76.779528,250.5111 76.779528,256.0111 C 76.779528,267.1111 67.279528,276.1111 59.379528,283.0111 C 59.079528,283.2111 58.879528,283.4111 58.679528,283.4111 C 58.379528,283.4111 58.179528,283.0111 58.079528,282.2111 C 57.679528,279.6111 57.479528,276.2111 57.479528,273.0111 C 57.479528,257.4111 64.679528,247.8111 70.779528,247.8111 M 66.779528,331.8111 C 66.579528,330.7111 66.679528,330.4111 67.479528,330.4111 C 67.579528,330.4111 67.779528,330.4111 67.879528,330.4111 C 75.979528,331.1111 82.679528,337.9111 82.679528,346.7111 C 82.679528,353.0111 78.879528,358.1111 73.279528,360.9111 C 72.779528,361.1111 72.479528,361.3111 72.279528,361.3111 C 71.879528,361.3111 71.779528,361.0111 71.679528,360.3111 L 66.779528,331.8111 M 59.879528,315.9111 C 60.179528,317.8111 60.179528,317.7111 58.379528,318.3111 C 49.579528,321.3111 43.879528,329.2111 43.879528,337.7111 C 43.879528,346.7111 48.579528,353.1111 55.379528,355.4111 C 56.179528,355.7111 57.379528,356.0111 58.079528,356.0111 C 58.879528,356.0111 59.279528,355.5111 59.279528,354.9111 C 59.279528,354.2111 58.479528,353.9111 57.779528,353.6111 C 53.579528,351.8111 50.579528,347.5111 50.579528,342.9111 C 50.579528,337.2111 54.479528,332.9111 60.579528,331.2111 C 61.079528,331.1111 61.479528,331.0111 61.779528,331.0111 C 62.279528,331.0111 62.479528,331.3111 62.579528,332.0111 L 67.579528,361.8111 C 67.779528,362.9111 67.679528,362.9111 66.179528,363.2111 C 64.579528,363.5111 62.579528,363.7111 60.579528,363.7111 C 43.079528,363.7111 31.779528,354.0111 31.779528,340.1111 C 31.779528,323.1111 44.279528,312.5111 56.379528,302.7111 C 56.779528,302.4111 57.079528,302.2111 57.279528,302.2111 C 57.579528,302.2111 57.679528,302.5111 57.779528,303.1111 L 59.879528,315.9111 M 61.379528,300.6111 C 61.179528,299.4111 61.379528,299.3111 61.979528,298.7111 C 72.779528,288.6111 80.979528,275.9111 80.979528,260.6111 C 80.979528,251.9111 78.579528,243.3111 74.479528,237.3111 C 72.979528,235.1111 70.379528,232.3111 69.279528,232.3111 C 67.879528,232.3111 64.779528,234.9111 62.779528,237.1111 C 55.379528,245.3111 52.979528,257.8111 52.979528,268.2111 C 52.979528,274.0111 53.679528,280.5111 54.379528,284.6111 C 54.579528,285.8111 54.679528,286.0111 53.479528,287.0111 C 39.079528,298.9111 23.779528,313.2111 23.779528,333.4111 C 23.779528,350.8111 35.679528,367.3111 60.179528,367.3111 C 62.479528,367.3111 65.079528,367.1111 67.079528,366.7111 C 67.479528,366.6111 67.679528,366.6111 67.879528,366.6111 C 68.279528,366.6111 68.479528,366.8111 68.579528,367.6111 C 69.779528,374.3111 71.279528,383.0111 71.279528,387.7111 C 71.279528,402.5111 61.279528,404.3111 55.379528,404.3111 C 49.979528,404.3111 47.379528,402.7111 47.379528,401.4111 C 47.379528,400.7111 48.279528,400.4111 50.579528,399.7111 C 53.679528,398.8111 57.279528,396.1111 57.279528,390.3111 C 57.279528,384.8111 53.779528,380.1111 47.679528,380.1111 C 40.979528,380.1111 36.979528,385.4111 36.979528,391.6111 C 36.979528,398.1111 40.879528,407.9111 55.979528,407.9111 C 62.679528,407.9111 75.679528,404.9111 75.679528,387.9111 C 75.679528,382.2111 73.879528,372.7111 72.779528,366.5111 C 72.579528,365.3111 72.679528,365.4111 74.079528,364.8111 C 84.179528,360.8111 90.879228,352.3111 90.879228,341.0111 C 90.879228,328.2111 81.479528,316.9111 66.779528,316.9111 C 64.179528,316.9111 64.179528,316.9111 63.879528,315.1111 L 61.379528,300.6111"
     id="path2202" />
  <path
     class=""
     d="M 116.67323,288.0111 C 116.77323,288.0111 116.97323,287.9111 117.07323,287.9111 C 117.07323,287.9111 118.47323,287.3111 119.37323,287.0111 C 119.47323,286.9111 119.57323,286.9111 119.67323,286.9111 C 120.37323,286.9111 120.87323,288.0111 120.87323,288.5111 V 300.8111 C 120.87323,301.4111 121.47323,301.9111 122.17323,301.9111 C 123.17323,301.9111 123.87323,301.4111 123.87323,300.8111 V 286.9111 C 123.87323,285.6111 124.37323,284.9111 124.87323,284.7111 L 130.97323,282.2111 C 131.07323,282.2111 131.27323,282.1111 131.37323,282.1111 C 132.17323,282.1111 132.67323,283.3111 132.67323,283.9111 V 296.4111 C 132.67323,297.0111 133.27323,297.5111 133.97323,297.5111 C 135.07323,297.5111 135.67323,297.0111 135.67323,296.4111 V 282.2111 C 135.67323,281.4111 136.07323,280.2111 136.77323,279.9111 C 137.47323,279.6111 139.57323,278.8111 139.57323,278.8111 C 140.27323,278.5111 140.77323,277.7111 140.77323,277.1111 V 270.0111 C 140.77323,269.5111 140.47323,269.2111 140.07323,269.2111 C 139.87323,269.2111 139.77323,269.2111 139.57323,269.3111 L 136.97323,270.3111 C 136.37323,270.3111 135.67323,269.7111 135.67323,268.5111 V 259.2111 C 135.67323,258.5111 136.17323,256.6111 136.97323,256.3111 L 139.57323,255.3111 C 140.27323,255.0111 140.77323,254.2111 140.77323,253.6111 V 246.5111 C 140.77323,246.0111 140.47323,245.7111 140.07323,245.7111 C 139.87323,245.7111 139.77323,245.7111 139.57323,245.8111 C 139.57323,245.8111 137.57323,246.6111 137.07323,246.7111 C 136.37323,246.7111 135.67323,246.2111 135.67323,245.4111 V 233.2111 C 135.67323,232.6111 135.07323,232.1111 134.27323,232.1111 C 133.27323,232.1111 132.67323,232.6111 132.67323,233.2111 V 246.2111 C 132.57323,247.2111 132.27323,248.5111 131.37323,249.1111 C 130.17323,249.8111 126.77323,251.2111 125.07323,251.6111 C 124.17323,251.6111 123.87323,250.4111 123.87323,249.6111 V 237.6111 C 123.87323,237.0111 123.17323,236.5111 122.47323,236.5111 C 121.47323,236.5111 120.87323,237.0111 120.87323,237.6111 V 251.1111 C 120.87323,252.5111 120.27323,253.5111 119.67323,253.8111 C 119.07323,254.1111 117.07323,254.9111 117.07323,254.9111 C 116.37323,255.1111 115.87323,255.9111 115.87323,256.5111 V 263.6111 C 115.87323,264.2111 116.17323,264.5111 116.67323,264.5111 C 117.07323,264.5111 118.97323,263.6111 119.27323,263.4111 C 120.27323,263.4111 120.87323,263.9111 120.87323,265.1111 V 275.0111 C 120.87323,276.1111 120.37323,277.0111 119.77323,277.3111 C 119.17323,277.5111 117.07323,278.4111 117.07323,278.4111 C 116.37323,278.6111 115.87323,279.4111 115.87323,280.0111 V 287.1111 C 115.87323,287.7111 116.17323,288.0111 116.67323,288.0111 M 123.87323,262.7111 C 124.07323,261.0111 128.67323,258.9111 131.17323,258.9111 C 131.87323,258.9111 132.47323,259.1111 132.67323,259.5111 C 132.87323,260.0111 133.07323,262.5111 133.07323,265.2111 C 133.07323,267.9111 132.87323,270.7111 132.67323,271.6111 C 132.07323,273.6111 127.37323,275.6111 125.07323,275.6111 C 124.47323,275.6111 123.97323,275.4111 123.87323,275.1111 C 123.67323,274.7111 123.57323,272.5111 123.57323,270.1111 C 123.57323,267.0111 123.67323,263.5111 123.87323,262.7111"
     id="path2204" />
  <path
     class=""
     fill-rule="evenodd"
     d="M 413.89523,367.1111 H 533.47223 V 379.6111 H 413.89523 V 367.1111"
     id="path2206" />
  <path
     class=""
     d="M 469.70123,401.2691 C 477.66823,399.9691 481.65123,397.2031 481.65123,392.9691 C 481.65123,391.6031 481.24323,390.5031 480.42623,389.6691 C 479.60923,388.8361 478.53423,388.4191 477.20123,388.4191 C 475.16823,388.4191 473.30123,389.5361 471.60123,391.7691 L 470.80123,391.5191 C 471.63423,389.9191 472.77623,388.6531 474.22623,387.7191 C 475.67623,386.7861 477.26823,386.3191 479.00123,386.3191 C 481.00123,386.3191 482.66823,386.9191 484.00123,388.1191 C 485.33423,389.3191 486.00123,390.8361 486.00123,392.6691 C 486.00123,394.3691 485.45923,395.7361 484.37623,396.7691 C 483.29323,397.8031 481.23423,398.9031 478.20123,400.0691 V 400.2191 C 481.40123,401.6861 483.00123,404.1691 483.00123,407.6691 C 483.00123,411.1361 481.71823,414.1361 479.15123,416.6691 C 476.58423,419.2031 473.21823,420.4691 469.05123,420.4691 C 465.31823,420.4691 463.45123,419.4861 463.45123,417.5191 C 463.45123,416.2191 464.18423,415.5691 465.65123,415.5691 C 466.48423,415.5691 467.60123,416.0691 469.00123,417.0691 C 470.40123,418.0691 471.55123,418.5691 472.45123,418.5691 C 474.25123,418.5691 475.79323,417.8111 477.07623,416.2941 C 478.35923,414.7781 479.00123,412.8031 479.00123,410.3691 C 479.00123,407.2361 478.21823,405.0691 476.65123,403.8691 C 475.08423,402.6691 472.76823,402.0691 469.70123,402.0691 V 401.2691"
     id="path2208" />
  <path
     class=""
     d="M 1626.3102,304.6111 C 1626.3102,301.8111 1624.1102,299.6111 1621.3102,299.6111 C 1618.5102,299.6111 1616.3102,301.8111 1616.3102,304.6111 C 1616.3102,307.4111 1618.5102,309.6111 1621.3102,309.6111 C 1624.1102,309.6111 1626.3102,307.4111 1626.3102,304.6111"
     id="path2210" />
  <path
     class=""
     d="M 1434.5902,304.6111 C 1434.5902,301.8111 1432.3902,299.6111 1429.5902,299.6111 C 1426.7902,299.6111 1424.5902,301.8111 1424.5902,304.6111 C 1424.5902,307.4111 1426.7902,309.6111 1429.5902,309.6111 C 1432.3902,309.6111 1434.5902,307.4111 1434.5902,304.6111"
     id="path2212" />
  <path
     class=""
     d="M 929.09923,329.6111 C 929.09923,326.8111 926.89923,324.6111 924.09923,324.6111 C 921.29923,324.6111 919.09923,326.8111 919.09923,329.6111 C 919.09923,332.4111 921.29923,334.6111 924.09923,334.6111 C 926.89923,334.6111 929.09923,332.4111 929.09923,329.6111"
     id="path2214" />
  <path
     class=""
     d="M 267.92023,279.6111 C 267.92023,276.8111 265.72023,274.6111 262.92023,274.6111 C 260.12023,274.6111 257.92023,276.8111 257.92023,279.6111 C 257.92023,282.4111 260.12023,284.6111 262.92023,284.6111 C 265.72023,284.6111 267.92023,282.4111 267.92023,279.6111"
     id="path2216" />
  <path
     class=""
     d="M 3.8185276,1334.6121 C 3.9518276,1333.9921 4.0852276,1333.4621 4.2185276,1333.0121 C 4.3518276,1332.5521 4.6385276,1331.8921 5.0785276,1331.0321 C 5.5185276,1330.1621 6.0118276,1329.4421 6.5585276,1328.8721 C 7.1052276,1328.2921 7.8652276,1327.7821 8.8385276,1327.3321 C 9.8118276,1326.8721 10.911828,1326.6521 12.138528,1326.6521 C 14.218528,1326.6521 15.971828,1327.3321 17.398528,1328.6921 C 18.825228,1330.0521 19.538528,1331.7321 19.538528,1333.7321 C 19.538528,1336.7421 17.831828,1340.0321 14.418528,1343.6121 L 7.6985276,1350.6521 H 17.258528 C 18.165228,1350.6521 18.838528,1350.4921 19.278528,1350.1921 C 19.718528,1349.8821 20.311828,1349.1521 21.058528,1348.0121 L 21.578528,1348.2121 L 19.378528,1353.6921 H 3.7785276 V 1353.2121 L 10.898528,1345.6521 C 14.365228,1341.9721 16.098528,1338.5021 16.098528,1335.2521 C 16.098528,1333.5721 15.578528,1332.2121 14.538528,1331.1721 C 13.498528,1330.1321 12.138528,1329.6121 10.458528,1329.6121 C 9.0718276,1329.6121 7.9585276,1329.9921 7.1185276,1330.7521 C 6.2785276,1331.5121 5.4585276,1332.8621 4.6585276,1334.8121 L 3.8185276,1334.6121"
     id="path2218" />
  <metadata
     id="metadata2314">
    <rdf:RDF>
      <cc:Work
         rdf:about="">
        <dc:title>Trans_misc.</dc:title>
      </cc:Work>
    </rdf:RDF>
  </metadata>
</svg>
