<?xml version="1.0" encoding="UTF-8" standalone="no"?>
<svg
   width="467.00003mm"
   height="118.01527mm"
   viewBox="0 0 1765.0396 446.04199"
   version="1.2"
   id="svg1862"
   sodipodi:docname="Sibelius_Tuonella_Engl.-Hn_Klang.svg"
   inkscape:version="1.1-dev (0486c1a, 2020-10-10)"
   xmlns:inkscape="http://www.inkscape.org/namespaces/inkscape"
   xmlns:sodipodi="http://sodipodi.sourceforge.net/DTD/sodipodi-0.dtd"
   xmlns="http://www.w3.org/2000/svg"
   xmlns:svg="http://www.w3.org/2000/svg"
   xmlns:rdf="http://www.w3.org/1999/02/22-rdf-syntax-ns#"
   xmlns:cc="http://creativecommons.org/ns#"
   xmlns:dc="http://purl.org/dc/elements/1.1/">
  <defs
     id="defs1866" />
  <sodipodi:namedview
     pagecolor="#ffffff"
     bordercolor="#666666"
     borderopacity="1"
     objecttolerance="10"
     gridtolerance="10"
     guidetolerance="10"
     inkscape:pageopacity="0"
     inkscape:pageshadow="2"
     inkscape:window-width="1158"
     inkscape:window-height="529"
     id="namedview1864"
     showgrid="false"
     units="mm"
     lock-margins="true"
     fit-margin-top="1"
     fit-margin-left="1"
     fit-margin-right="1"
     fit-margin-bottom="1"
     inkscape:zoom="0.2061278"
     inkscape:cx="366.27762"
     inkscape:cy="395.38578"
     inkscape:window-x="0"
     inkscape:window-y="23"
     inkscape:window-maximized="0"
     inkscape:current-layer="svg1862" />
  <title
     id="title1754">Trans_misc.</title>
  <desc
     id="desc1756">Generated by MuseScore 3.5.2</desc>
  <circle
     style="fill:#00ff00;fill-opacity:1;stroke:none;stroke-width:1.9;stroke-linecap:round;stroke-linejoin:round"
     id="circle1886"
     cx="1312.0518"
     cy="348.06955"
     r="56.692913" />
  <circle
     style="fill:#00ff00;fill-opacity:1;stroke:none;stroke-width:1.9;stroke-linecap:round;stroke-linejoin:round"
     id="circle1880"
     cx="954.86682"
     cy="360.51953"
     r="56.692913" />
  <circle
     style="fill:#ffbf00;fill-opacity:1;stroke:none;stroke-width:1.9;stroke-linecap:round;stroke-linejoin:round"
     id="circle1609"
     cx="644.4538"
     cy="385.56955"
     r="56.692913" />
  <path
     class=""
     stroke="#000000"
     stroke-width="2.5"
     stroke-linecap="round"
     stroke-linejoin="round"
     fill-rule="evenodd"
     d="M 194.00876,300.56954 C 357.31776,157.30478 1145.3417,133.67974 1319.7517,266.81954 C 1145.5217,139.67708 357.49676,163.30204 194.00876,300.56954"
     id="path1758" />
  <path
     class=""
     stroke="#000000"
     stroke-width="2.5"
     stroke-linecap="round"
     stroke-linejoin="round"
     fill-rule="evenodd"
     d="M 1440.4917,354.31954 C 1479.4517,380.93054 1596.3417,380.93054 1635.3017,354.31954 C 1596.3417,386.93054 1479.4517,386.93054 1440.4917,354.31954"
     id="path1760" />
  <path
     class=""
     stroke="#000000"
     stroke-width="2.5"
     stroke-linecap="round"
     stroke-linejoin="round"
     fill-rule="evenodd"
     d="M 961.75076,379.31954 C 1003.2918,407.88854 1127.9017,407.88854 1169.4417,379.31954 C 1127.9017,413.88854 1003.2918,413.88854 961.75076,379.31954"
     id="path1762" />
  <polyline
     class=""
     stroke="#000000"
     stroke-width="4"
     stroke-linejoin="bevel"
     points="1394.67,98.6307 1394.67,201.881"
     id="polyline1764"
     transform="translate(-11.018244,147.81354)" />
  <polyline
     class=""
     stroke="#000000"
     stroke-width="4"
     stroke-linejoin="bevel"
     points="905.341,98.6307 905.341,201.881"
     id="polyline1766"
     transform="translate(-11.018244,147.81354)" />
  <polyline
     class=""
     stroke="#000000"
     stroke-width="3.25"
     stroke-linejoin="bevel"
     points="1396.67,100.256 1767.95,100.256"
     id="polyline1768"
     transform="translate(-11.018244,147.81354)" />
  <polyline
     class=""
     stroke="#000000"
     stroke-width="3.25"
     stroke-linejoin="bevel"
     points="1396.67,125.256 1767.95,125.256"
     id="polyline1770"
     transform="translate(-11.018244,147.81354)" />
  <polyline
     class=""
     stroke="#000000"
     stroke-width="3.25"
     stroke-linejoin="bevel"
     points="1396.67,150.256 1767.95,150.256"
     id="polyline1772"
     transform="translate(-11.018244,147.81354)" />
  <polyline
     class=""
     stroke="#000000"
     stroke-width="3.25"
     stroke-linejoin="bevel"
     points="1396.67,175.256 1767.95,175.256"
     id="polyline1774"
     transform="translate(-11.018244,147.81354)" />
  <polyline
     class=""
     stroke="#000000"
     stroke-width="3.25"
     stroke-linejoin="bevel"
     points="1396.67,200.256 1767.95,200.256"
     id="polyline1776"
     transform="translate(-11.018244,147.81354)" />
  <polyline
     class=""
     stroke="#000000"
     stroke-width="3.25"
     stroke-linejoin="bevel"
     points="907.341,100.256 1396.67,100.256"
     id="polyline1778"
     transform="translate(-11.018244,147.81354)" />
  <polyline
     class=""
     stroke="#000000"
     stroke-width="3.25"
     stroke-linejoin="bevel"
     points="907.341,125.256 1396.67,125.256"
     id="polyline1780"
     transform="translate(-11.018244,147.81354)" />
  <polyline
     class=""
     stroke="#000000"
     stroke-width="3.25"
     stroke-linejoin="bevel"
     points="907.341,150.256 1396.67,150.256"
     id="polyline1782"
     transform="translate(-11.018244,147.81354)" />
  <polyline
     class=""
     stroke="#000000"
     stroke-width="3.25"
     stroke-linejoin="bevel"
     points="907.341,175.256 1396.67,175.256"
     id="polyline1784"
     transform="translate(-11.018244,147.81354)" />
  <polyline
     class=""
     stroke="#000000"
     stroke-width="3.25"
     stroke-linejoin="bevel"
     points="907.341,200.256 1396.67,200.256"
     id="polyline1786"
     transform="translate(-11.018244,147.81354)" />
  <polyline
     class=""
     stroke="#000000"
     stroke-width="3.25"
     stroke-linejoin="bevel"
     points="18.5773,100.256 907.341,100.256"
     id="polyline1788"
     transform="translate(-11.018244,147.81354)" />
  <polyline
     class=""
     stroke="#000000"
     stroke-width="3.25"
     stroke-linejoin="bevel"
     points="18.5773,125.256 907.341,125.256"
     id="polyline1790"
     transform="translate(-11.018244,147.81354)" />
  <polyline
     class=""
     stroke="#000000"
     stroke-width="3.25"
     stroke-linejoin="bevel"
     points="18.5773,150.256 907.341,150.256"
     id="polyline1792"
     transform="translate(-11.018244,147.81354)" />
  <polyline
     class=""
     stroke="#000000"
     stroke-width="3.25"
     stroke-linejoin="bevel"
     points="18.5773,175.256 907.341,175.256"
     id="polyline1794"
     transform="translate(-11.018244,147.81354)" />
  <polyline
     class=""
     stroke="#000000"
     stroke-width="3.25"
     stroke-linejoin="bevel"
     points="18.5773,200.256 907.341,200.256"
     id="polyline1796"
     transform="translate(-11.018244,147.81354)" />
  <path
     class=""
     d="M 1272.2117,356.16954 C 1272.2117,356.16954 1271.9117,350.16954 1271.9117,346.16954 C 1271.9117,344.56954 1272.0117,343.36954 1272.1117,342.96954 C 1272.8117,340.96954 1276.8117,338.06954 1279.1117,338.06954 C 1282.0117,338.06954 1283.2117,341.36954 1283.2117,343.86954 C 1283.2117,349.26954 1278.6117,354.66954 1274.3117,357.36954 C 1273.9117,357.56954 1273.6117,357.66954 1273.3117,357.66954 C 1272.4117,357.66954 1272.2117,356.66954 1272.2117,356.16954 M 1268.7117,365.06954 C 1269.0117,365.46954 1269.3117,365.56954 1269.6117,365.56954 C 1269.9117,365.56954 1270.2117,365.36954 1270.2117,365.36954 C 1273.2117,363.66954 1275.6117,360.96954 1278.1117,359.26954 C 1287.0117,353.06954 1290.1117,346.96954 1290.1117,342.36954 C 1290.1117,336.66954 1285.7117,333.06954 1281.1117,332.76954 C 1279.4117,332.76954 1277.0117,333.56954 1275.6117,334.46954 C 1275.0117,334.96954 1273.9117,335.86954 1273.4117,335.86954 C 1273.2117,335.86954 1273.1117,335.86954 1272.9117,335.76954 C 1272.2117,335.46954 1271.8117,334.76954 1271.8117,334.06954 C 1271.9117,331.86954 1272.5117,307.86954 1272.5117,305.86954 C 1272.5117,304.76954 1271.6117,304.16954 1270.6117,304.16954 C 1269.2117,304.16954 1267.6117,305.16954 1267.5117,306.96954 C 1267.5117,306.96954 1267.9117,364.06954 1268.7117,365.06954"
     id="path1798" />
  <path
     class=""
     d="M 908.52276,368.66954 C 908.52276,368.66954 908.22276,362.66954 908.22276,358.66954 C 908.22276,357.06954 908.32276,355.86954 908.42276,355.46954 C 909.12276,353.46954 913.12276,350.56954 915.42276,350.56954 C 918.32276,350.56954 919.52276,353.86954 919.52276,356.36954 C 919.52276,361.76954 914.92276,367.16954 910.62276,369.86954 C 910.22276,370.06954 909.92276,370.16954 909.62276,370.16954 C 908.72276,370.16954 908.52276,369.16954 908.52276,368.66954 M 905.02276,377.56954 C 905.32276,377.96954 905.62276,378.06954 905.92276,378.06954 C 906.22276,378.06954 906.52276,377.86954 906.52276,377.86954 C 909.52276,376.16954 911.92276,373.46954 914.42276,371.76954 C 923.32276,365.56954 926.42276,359.46954 926.42276,354.86954 C 926.42276,349.16954 922.02276,345.56954 917.42276,345.26954 C 915.72276,345.26954 913.32276,346.06954 911.92276,346.96954 C 911.32276,347.46954 910.22276,348.36954 909.72276,348.36954 C 909.52276,348.36954 909.42276,348.36954 909.22276,348.26954 C 908.52276,347.96954 908.12276,347.26954 908.12276,346.56954 C 908.22276,344.36954 908.82276,320.36954 908.82276,318.36954 C 908.82276,317.26954 907.92276,316.66954 906.92276,316.66954 C 905.52276,316.66954 903.92276,317.66954 903.82276,319.46954 C 903.82276,319.46954 904.22276,376.56954 905.02276,377.56954"
     id="path1800" />
  <path
     class=""
     d="M 599.61076,393.66954 C 599.61076,393.66954 599.31076,387.66954 599.31076,383.66954 C 599.31076,382.06954 599.41076,380.86954 599.51076,380.46954 C 600.21076,378.46954 604.21076,375.56954 606.51076,375.56954 C 609.41076,375.56954 610.61076,378.86954 610.61076,381.36954 C 610.61076,386.76954 606.01076,392.16954 601.71076,394.86954 C 601.31076,395.06954 601.01076,395.16954 600.71076,395.16954 C 599.81076,395.16954 599.61076,394.16954 599.61076,393.66954 M 596.11076,402.56954 C 596.41076,402.96954 596.71076,403.06954 597.01076,403.06954 C 597.31076,403.06954 597.61076,402.86954 597.61076,402.86954 C 600.61076,401.16954 603.01076,398.46954 605.51076,396.76954 C 614.41076,390.56954 617.51076,384.46954 617.51076,379.86954 C 617.51076,374.16954 613.11076,370.56954 608.51076,370.26954 C 606.81076,370.26954 604.41076,371.06954 603.01076,371.96954 C 602.41076,372.46954 601.31076,373.36954 600.81076,373.36954 C 600.61076,373.36954 600.51076,373.36954 600.31076,373.26954 C 599.61076,372.96954 599.21076,372.26954 599.21076,371.56954 C 599.31076,369.36954 599.91076,345.36954 599.91076,343.36954 C 599.91076,342.26954 599.01076,341.66954 598.01076,341.66954 C 596.61076,341.66954 595.01076,342.66954 594.91076,344.46954 C 594.91076,344.46954 595.31076,401.56954 596.11076,402.56954"
     id="path1802" />
  <polyline
     class=""
     stroke="#000000"
     stroke-width="4"
     stroke-linecap="square"
     stroke-linejoin="bevel"
     points="634.022,225.256 676.921,225.256"
     id="polyline1804"
     transform="translate(-11.018244,147.81354)" />
  <polyline
     class=""
     stroke="#000000"
     stroke-width="4"
     stroke-linecap="square"
     stroke-linejoin="bevel"
     points="766.182,225.256 809.08,225.256"
     id="polyline1806"
     transform="translate(-11.018244,147.81354)" />
  <polyline
     class=""
     stroke="#000000"
     stroke-width="3"
     stroke-linecap="round"
     stroke-linejoin="bevel"
     points="1666.2,184.396 1666.2,100.256"
     id="polyline1808"
     transform="translate(-11.018244,147.81354)" />
  <polyline
     class=""
     stroke="#000000"
     stroke-width="3"
     stroke-linecap="round"
     stroke-linejoin="bevel"
     points="1200.34,209.396 1200.34,125.256"
     id="polyline1810"
     transform="translate(-11.018244,147.81354)" />
  <polyline
     class=""
     stroke="#000000"
     stroke-width="3"
     stroke-linecap="round"
     stroke-linejoin="bevel"
     points="1338.02,196.896 1338.02,112.756"
     id="polyline1812"
     transform="translate(-11.018244,147.81354)" />
  <polyline
     class=""
     stroke="#000000"
     stroke-width="3"
     stroke-linecap="round"
     stroke-linejoin="bevel"
     points="670.421,234.396 670.421,150.256"
     id="polyline1814"
     transform="translate(-11.018244,147.81354)" />
  <polyline
     class=""
     stroke="#000000"
     stroke-width="3"
     stroke-linecap="round"
     stroke-linejoin="bevel"
     points="802.58,221.896 802.58,137.756"
     id="polyline1816"
     transform="translate(-11.018244,147.81354)" />
  <polyline
     class=""
     stroke="#000000"
     stroke-width="3"
     stroke-linecap="round"
     stroke-linejoin="bevel"
     points="457.199,184.396 457.199,117.688"
     id="polyline1818"
     transform="translate(-11.018244,147.81354)" />
  <polyline
     class=""
     stroke="#000000"
     stroke-width="3"
     stroke-linecap="round"
     stroke-linejoin="bevel"
     points="524.939,171.896 524.939,117.688"
     id="polyline1820"
     transform="translate(-11.018244,147.81354)" />
  <polyline
     class=""
     stroke="#000000"
     stroke-width="3"
     stroke-linecap="round"
     stroke-linejoin="bevel"
     points="592.679,184.396 592.679,117.688"
     id="polyline1822"
     transform="translate(-11.018244,147.81354)" />
  <path
     class=""
     d="M 1634.5917,349.56954 C 1652.9917,349.56954 1656.6917,334.56954 1656.6917,330.96954 C 1656.6917,325.26954 1652.1917,321.56954 1645.6917,321.56954 C 1628.9917,321.56954 1623.7917,334.46954 1623.7917,340.26954 C 1623.7917,346.16954 1628.4917,349.56954 1634.5917,349.56954 M 1643.0917,340.66954 C 1638.0917,344.06954 1634.5917,345.26954 1632.1917,345.26954 C 1629.8917,345.26954 1628.4917,344.06954 1627.7917,342.66954 C 1627.3917,342.06954 1627.0917,341.26954 1627.0917,340.46954 C 1627.0917,335.06954 1643.1917,326.16954 1648.4917,326.16954 C 1650.5917,326.16954 1651.7917,327.16954 1652.5917,328.56954 C 1652.8917,329.16954 1653.1917,329.86954 1653.1917,330.66954 C 1653.1917,332.86954 1650.8917,335.56954 1643.0917,340.66954"
     id="path1824" />
  <path
     class=""
     d="M 1434.1517,321.86954 C 1419.6517,321.86954 1410.6517,327.96954 1410.6517,335.36954 C 1410.6517,342.66954 1416.8517,349.16954 1433.0517,349.16954 C 1450.8517,349.16954 1456.5517,342.96954 1456.5517,335.36954 C 1456.5517,327.66954 1444.2517,321.86954 1434.1517,321.86954 M 1431.3517,324.36954 C 1438.7517,324.36954 1444.7517,332.36954 1444.7517,338.96954 C 1444.7517,344.36954 1441.3517,346.66954 1436.4517,346.66954 C 1429.2517,346.66954 1422.3517,338.36954 1422.3517,331.36954 C 1422.3517,325.76954 1426.2517,324.36954 1431.3517,324.36954"
     id="path1826" />
  <path
     class=""
     d="M 1168.7217,374.56954 C 1187.1217,374.56954 1190.8217,359.56954 1190.8217,355.96954 C 1190.8217,350.26954 1186.3217,346.56954 1179.8217,346.56954 C 1163.1217,346.56954 1157.9217,359.46954 1157.9217,365.26954 C 1157.9217,371.16954 1162.6217,374.56954 1168.7217,374.56954 M 1177.2217,365.66954 C 1172.2217,369.06954 1168.7217,370.26954 1166.3217,370.26954 C 1164.0217,370.26954 1162.6217,369.06954 1161.9217,367.66954 C 1161.5217,367.06954 1161.2217,366.26954 1161.2217,365.46954 C 1161.2217,360.06954 1177.3217,351.16954 1182.6217,351.16954 C 1184.7217,351.16954 1185.9217,352.16954 1186.7217,353.56954 C 1187.0217,354.16954 1187.3217,354.86954 1187.3217,355.66954 C 1187.3217,357.86954 1185.0217,360.56954 1177.2217,365.66954"
     id="path1828" />
  <path
     class=""
     d="M 955.41676,346.86954 C 940.91676,346.86954 931.91676,352.96954 931.91676,360.36954 C 931.91676,367.66954 938.11676,374.16954 954.31676,374.16954 C 972.11676,374.16954 977.81676,367.96954 977.81676,360.36954 C 977.81676,352.66954 965.51676,346.86954 955.41676,346.86954 M 952.61676,349.36954 C 960.01676,349.36954 966.01676,357.36954 966.01676,363.96954 C 966.01676,369.36954 962.61676,371.66954 957.71676,371.66954 C 950.51676,371.66954 943.61676,363.36954 943.61676,356.36954 C 943.61676,350.76954 947.51676,349.36954 952.61676,349.36954"
     id="path1830" />
  <path
     class=""
     d="M 638.80376,399.56954 C 648.70376,399.56954 660.90376,390.36954 660.90376,380.86954 C 660.90376,375.26954 656.40376,371.56954 650.00376,371.56954 C 637.80376,371.56954 628.00376,380.66954 628.00376,390.26954 C 628.00376,396.06954 632.80376,399.56954 638.80376,399.56954"
     id="path1832" />
  <path
     class=""
     d="M 770.96376,387.06954 C 780.86376,387.06954 793.06376,377.86954 793.06376,368.36954 C 793.06376,362.76954 788.56376,359.06954 782.16376,359.06954 C 769.96376,359.06954 760.16376,368.16954 760.16376,377.76954 C 760.16376,383.56954 764.96376,387.06954 770.96376,387.06954"
     id="path1834" />
  <path
     class=""
     d="M 1306.4017,362.06954 C 1316.3017,362.06954 1328.5017,352.86954 1328.5017,343.36954 C 1328.5017,337.76954 1324.0017,334.06954 1317.6017,334.06954 C 1305.4017,334.06954 1295.6017,343.16954 1295.6017,352.76954 C 1295.6017,358.56954 1300.4017,362.06954 1306.4017,362.06954"
     id="path1836" />
  <path
     class=""
     d="M 493.32176,337.06954 C 503.22176,337.06954 515.42176,327.86954 515.42176,318.36954 C 515.42176,312.76954 510.92176,309.06954 504.52176,309.06954 C 492.32176,309.06954 482.52176,318.16954 482.52176,327.76954 C 482.52176,333.56954 487.32176,337.06954 493.32176,337.06954"
     id="path1838" />
  <path
     class=""
     d="M 561.06176,349.56954 C 570.96176,349.56954 583.16176,340.36954 583.16176,330.86954 C 583.16176,325.26954 578.66176,321.56954 572.26176,321.56954 C 560.06176,321.56954 550.26176,330.66954 550.26176,340.26954 C 550.26176,346.06954 555.06176,349.56954 561.06176,349.56954"
     id="path1840" />
  <path
     class=""
     d="M 425.58176,349.56954 C 435.48176,349.56954 447.68176,340.36954 447.68176,330.86954 C 447.68176,325.26954 443.18176,321.56954 436.78176,321.56954 C 424.58176,321.56954 414.78176,330.66954 414.78176,340.26954 C 414.78176,346.06954 419.58176,349.56954 425.58176,349.56954"
     id="path1842" />
  <path
     class=""
     d="M 194.55876,309.36954 C 180.05876,309.36954 171.05876,315.46954 171.05876,322.86954 C 171.05876,330.16954 177.25876,336.66954 193.45876,336.66954 C 211.25876,336.66954 216.95876,330.46954 216.95876,322.86954 C 216.95876,315.16954 204.65876,309.36954 194.55876,309.36954 M 191.75876,311.86954 C 199.15876,311.86954 205.15876,319.86954 205.15876,326.46954 C 205.15876,331.86954 201.75876,334.16954 196.85876,334.16954 C 189.65876,334.16954 182.75876,325.86954 182.75876,318.86954 C 182.75876,313.26954 186.65876,311.86954 191.75876,311.86954"
     id="path1844" />
  <path
     class=""
     d="M 74.559056,228.76924 C 77.859056,228.76924 80.559056,231.46924 80.559056,236.96924 C 80.559056,248.06954 71.059056,257.06954 63.159056,263.96954 C 62.859056,264.16954 62.659056,264.36954 62.459056,264.36954 C 62.159056,264.36954 61.959056,263.96954 61.859056,263.16954 C 61.459056,260.56954 61.259056,257.16954 61.259056,253.96954 C 61.259056,238.36924 68.459056,228.76924 74.559056,228.76924 M 70.559056,312.76954 C 70.359056,311.66954 70.459056,311.36954 71.259056,311.36954 C 71.359056,311.36954 71.559056,311.36954 71.659056,311.36954 C 79.759056,312.06954 86.459056,318.86954 86.459056,327.66954 C 86.459056,333.96954 82.659056,339.06954 77.059056,341.86954 C 76.559056,342.06954 76.259056,342.26954 76.059056,342.26954 C 75.659056,342.26954 75.559056,341.96954 75.459056,341.26954 L 70.559056,312.76954 M 63.659056,296.86954 C 63.959056,298.76954 63.959056,298.66954 62.159056,299.26954 C 53.359056,302.26954 47.659056,310.16954 47.659056,318.66954 C 47.659056,327.66954 52.359056,334.06954 59.159056,336.36954 C 59.959056,336.66954 61.159056,336.96954 61.859056,336.96954 C 62.659056,336.96954 63.059056,336.46954 63.059056,335.86954 C 63.059056,335.16954 62.259056,334.86954 61.559056,334.56954 C 57.359056,332.76954 54.359056,328.46954 54.359056,323.86954 C 54.359056,318.16954 58.259056,313.86954 64.359056,312.16954 C 64.859056,312.06954 65.259056,311.96954 65.559056,311.96954 C 66.059056,311.96954 66.259056,312.26954 66.359056,312.96954 L 71.359056,342.76954 C 71.559056,343.86954 71.459056,343.86954 69.959056,344.16954 C 68.359056,344.46954 66.359056,344.66954 64.359056,344.66954 C 46.859056,344.66954 35.559056,334.96954 35.559056,321.06954 C 35.559056,304.06954 48.059056,293.46954 60.159056,283.66954 C 60.559056,283.36954 60.859056,283.16954 61.059056,283.16954 C 61.359056,283.16954 61.459056,283.46954 61.559056,284.06954 L 63.659056,296.86954 M 65.159056,281.56954 C 64.959056,280.36954 65.159056,280.26954 65.759056,279.66954 C 76.559056,269.56954 84.759056,256.86954 84.759056,241.56924 C 84.759056,232.86924 82.359056,224.26924 78.259056,218.26924 C 76.759056,216.06924 74.159056,213.26924 73.059056,213.26924 C 71.659056,213.26924 68.559056,215.86924 66.559056,218.06924 C 59.159056,226.26924 56.759056,238.76924 56.759056,249.16954 C 56.759056,254.96954 57.459056,261.46954 58.159056,265.56954 C 58.359056,266.76954 58.459056,266.96954 57.259056,267.96954 C 42.859056,279.86954 27.559056,294.16954 27.559056,314.36954 C 27.559056,331.76954 39.459056,348.26954 63.959056,348.26954 C 66.259056,348.26954 68.859056,348.06954 70.859056,347.66954 C 71.259056,347.56954 71.459056,347.56954 71.659056,347.56954 C 72.059056,347.56954 72.259056,347.76954 72.359056,348.56954 C 73.559056,355.26954 75.059056,363.96954 75.059056,368.66954 C 75.059056,383.46954 65.059056,385.26954 59.159056,385.26954 C 53.759056,385.26954 51.159056,383.66954 51.159056,382.36954 C 51.159056,381.66954 52.059056,381.36954 54.359056,380.66954 C 57.459056,379.76954 61.059056,377.06954 61.059056,371.26954 C 61.059056,365.76954 57.559056,361.06954 51.459056,361.06954 C 44.759056,361.06954 40.759056,366.36954 40.759056,372.56954 C 40.759056,379.06954 44.659056,388.86954 59.759056,388.86954 C 66.459056,388.86954 79.459056,385.86954 79.459056,368.86954 C 79.459056,363.16954 77.659056,353.66954 76.559056,347.46954 C 76.359056,346.26954 76.459056,346.36954 77.859056,345.76954 C 87.959056,341.76954 94.658756,333.26954 94.658756,321.96954 C 94.658756,309.16954 85.259056,297.86954 70.559056,297.86954 C 67.959056,297.86954 67.959056,297.86954 67.659056,296.06954 L 65.159056,281.56954"
     id="path1846" />
  <path
     class=""
     fill-rule="evenodd"
     d="M 444.68076,259.25154 H 583.16076 V 271.75154 H 444.68076 V 259.25154"
     id="path1848" />
  <path
     class=""
     d="M 511.87776,225.87784 C 519.84376,224.57784 523.82776,221.81114 523.82776,217.57784 C 523.82776,216.21114 523.41876,215.11114 522.60276,214.27784 C 521.78576,213.44454 520.71076,213.02784 519.37776,213.02784 C 517.34376,213.02784 515.47776,214.14454 513.77776,216.37784 L 512.97776,216.12784 C 513.81076,214.52784 514.95276,213.26114 516.40276,212.32784 C 517.85276,211.39454 519.44376,210.92784 521.17776,210.92784 C 523.17776,210.92784 524.84376,211.52784 526.17776,212.72784 C 527.51076,213.92784 528.17776,215.44454 528.17776,217.27784 C 528.17776,218.97784 527.63576,220.34454 526.55276,221.37784 C 525.46876,222.41114 523.41076,223.51114 520.37776,224.67784 V 224.82784 C 523.57776,226.29454 525.17776,228.77784 525.17776,232.27784 C 525.17776,235.74454 523.89376,238.74454 521.32776,241.27784 C 518.76076,243.81114 515.39376,245.07784 511.22776,245.07784 C 507.49376,245.07784 505.62776,244.09454 505.62776,242.12784 C 505.62776,240.82784 506.36076,240.17784 507.82776,240.17784 C 508.66076,240.17784 509.77776,240.67784 511.17776,241.67784 C 512.57776,242.67784 513.72776,243.17784 514.62776,243.17784 C 516.42776,243.17784 517.96876,242.41954 519.25276,240.90284 C 520.53576,239.38614 521.17776,237.41114 521.17776,234.97784 C 521.17776,231.84454 520.39376,229.67784 518.82776,228.47784 C 517.26076,227.27784 514.94376,226.67784 511.87776,226.67784 V 225.87784"
     id="path1850" />
  <path
     class=""
     d="M 1675.4317,335.56954 C 1675.4317,332.76954 1673.2317,330.56954 1670.4317,330.56954 C 1667.6317,330.56954 1665.4317,332.76954 1665.4317,335.56954 C 1665.4317,338.36954 1667.6317,340.56954 1670.4317,340.56954 C 1673.2317,340.56954 1675.4317,338.36954 1675.4317,335.56954"
     id="path1852" />
  <path
     class=""
     d="M 1475.3017,335.56954 C 1475.3017,332.76954 1473.1017,330.56954 1470.3017,330.56954 C 1467.5017,330.56954 1465.3017,332.76954 1465.3017,335.56954 C 1465.3017,338.36954 1467.5017,340.56954 1470.3017,340.56954 C 1473.1017,340.56954 1475.3017,338.36954 1475.3017,335.56954"
     id="path1854" />
  <path
     class=""
     d="M 996.56176,360.56954 C 996.56176,357.76954 994.36176,355.56954 991.56176,355.56954 C 988.76476,355.56954 986.56476,357.76954 986.56476,360.56954 C 986.56476,363.36954 988.76476,365.56954 991.56176,365.56954 C 994.36176,365.56954 996.56176,363.36954 996.56176,360.56954"
     id="path1856" />
  <path
     class=""
     d="M 235.70776,310.56954 C 235.70776,307.76954 233.50776,305.56954 230.70776,305.56954 C 227.90776,305.56954 225.70776,307.76954 225.70776,310.56954 C 225.70776,313.36954 227.90776,315.56954 230.70776,315.56954 C 233.50776,315.56954 235.70776,313.36954 235.70776,310.56954"
     id="path1858" />
  <metadata
     id="metadata1888">
    <rdf:RDF>
      <cc:Work
         rdf:about="">
        <dc:title>Trans_misc.</dc:title>
      </cc:Work>
    </rdf:RDF>
  </metadata>
  <rect
     style="fill:none;stroke-width:9.32363;stroke-linecap:round;stroke-linejoin:round"
     id="rect1905"
     width="1757.4803"
     height="306.97324"
     x="3.7795277"
     y="60.515858" />
  <text
     xml:space="preserve"
     style="font-size:53.3333px;line-height:1.25;font-family:'Libertinus Sans';-inkscape-font-specification:'Libertinus Sans';text-align:justify;letter-spacing:0px;word-spacing:0px;white-space:pre;shape-inside:url(#rect1905);fill:#ff00ff"
     x="1.3795295"
     y="-25.445202"
     id="text650"
     transform="translate(3.7795276,-59.78018)"><tspan
       x="3.7792969"
       y="109.00682"><tspan
         dx="0 0 0 0 0 0 0 0 6.8960905 0 0 0 6.8961058 0 0 0 6.8960752 0 0 0 0 0 0 0 0 0 0 0 0 0 6.8961058 0 0 0 0 0 0 6.8961058 0 0 0 6.8961058 0 0 0 0 0 0 0 0 0 0 0 0 0 0 6.8960447 0 0 0 0 0 0 0 -0.00011444092 6.8961668 0 0 0 0 0 6.8961668">a-Moll: Bei der Transposition spielt die Unterscheidung Dur/Moll keine Rolle, </tspan></tspan><tspan
       x="3.7792969"
       y="175.67345"><tspan
         dx="0 0 0 0 0 0 0 0 14.824328 0 0 0 0 0 0 0 0 0 14.824328 0 0 0 14.824328 0 0 0 0 0 0 0 0 0 0 0 0 0 0 0 0 0 14.824328 0 0 0 0 0 14.824389 0 0 0 14.824389 0 0 0 0 0 0 14.824267 0 0 0 0 0 0 14.824389 0 -0.00011444092 0 14.824389">sondern lediglich die Tonartvorzeichen. C-Dur und a-Moll können als eine </tspan></tspan><tspan
       x="3.7792969"
       y="242.34008"><tspan>Tonart behandelt werden.</tspan></tspan></text>
</svg>
