<?xml version="1.0" encoding="UTF-8" standalone="no"?>
<svg
   xmlns:dc="http://purl.org/dc/elements/1.1/"
   xmlns:cc="http://creativecommons.org/ns#"
   xmlns:rdf="http://www.w3.org/1999/02/22-rdf-syntax-ns#"
   xmlns:svg="http://www.w3.org/2000/svg"
   xmlns="http://www.w3.org/2000/svg"
   xmlns:sodipodi="http://sodipodi.sourceforge.net/DTD/sodipodi-0.dtd"
   xmlns:inkscape="http://www.inkscape.org/namespaces/inkscape"
   width="77.739113"
   height="44.545826"
   viewBox="0 0 259.13066 148.48609"
   version="1.2"
   id="svg3603"
   inkscape:version="1.0.1 (c497b03c, 2020-09-10)"
   sodipodi:docname="Trans_C1.svg">
  <metadata
     id="metadata3663">
    <rdf:RDF>
      <cc:Work
         rdf:about="">
        <dc:format>image/svg+xml</dc:format>
        <dc:type
           rdf:resource="http://purl.org/dc/dcmitype/StillImage" />
        <dc:title>Qt Svg Document</dc:title>
      </cc:Work>
    </rdf:RDF>
  </metadata>
  <sodipodi:namedview
     pagecolor="#ffffff"
     bordercolor="#666666"
     borderopacity="1"
     objecttolerance="10"
     gridtolerance="10"
     guidetolerance="10"
     inkscape:pageopacity="0"
     inkscape:pageshadow="2"
     inkscape:window-width="1280"
     inkscape:window-height="755"
     id="namedview3661"
     showgrid="false"
     fit-margin-top="0"
     fit-margin-left="0"
     fit-margin-right="0"
     fit-margin-bottom="0"
     inkscape:zoom="1.3899752"
     inkscape:cx="123.77401"
     inkscape:cy="59.115923"
     inkscape:window-x="0"
     inkscape:window-y="23"
     inkscape:window-maximized="1"
     inkscape:current-layer="svg3603"
     inkscape:document-rotation="0" />
  <title
     id="title3605">Qt Svg Document</title>
  <desc
     id="desc3607">created with MuseScore 2.0.0</desc>
  <defs
     id="defs3609" />
  <g
     style="font-style:normal;font-weight:400;font-size:45.8333px;font-family:Cantarell;fill:none;stroke:#000000;stroke-width:0.533333;stroke-linecap:butt;stroke-linejoin:bevel;stroke-opacity:1"
     id="g3613"
     font-style="normal"
     font-weight="400"
     font-size="45.8333"
     transform="matrix(3.125,0,0,3.125,0,30.468872)" />
  <g
     style="font-style:normal;font-weight:400;font-size:27px;font-family:Bravura;fill:none;stroke:#000000;stroke-width:1;stroke-linecap:square;stroke-linejoin:bevel;stroke-opacity:1"
     id="g3629"
     font-style="normal"
     font-weight="400"
     font-size="27"
     transform="matrix(3.125,0,0,3.125,135.2083,134.63567)" />
  <g
     style="font-style:normal;font-weight:400;font-size:27px;font-family:Bravura;fill:none;stroke:#000000;stroke-width:1;stroke-linecap:square;stroke-linejoin:bevel;stroke-opacity:1"
     id="g3635"
     font-style="normal"
     font-weight="400"
     font-size="27"
     transform="matrix(3.125,0,0,3.125,135.2083,134.63567)" />
  <g
     style="font-style:normal;font-weight:400;font-size:27px;font-family:Bravura;fill:none;stroke:#000000;stroke-width:1;stroke-linecap:square;stroke-linejoin:bevel;stroke-opacity:1"
     id="g3637"
     font-style="normal"
     font-weight="400"
     font-size="27"
     transform="matrix(3.125,0,0,3.125,13.3334,92.968672)" />
  <g
     id="g57"
     transform="translate(0,6.9794042e-5)">
    <path
       id="polyline3615"
       style="font-style:normal;font-weight:400;font-size:45.8333px;font-family:Cantarell;vector-effect:none;fill:none;stroke:#000000;stroke-width:0.533333;stroke-linecap:butt;stroke-linejoin:bevel;stroke-opacity:1"
       d="M 0,0 H 82.921806"
       sodipodi:nodetypes="cc"
       transform="matrix(3.125,0,0,3.125,0,30.468802)" />
    <path
       id="polyline3617"
       style="font-style:normal;font-weight:400;font-size:45.8333px;font-family:Cantarell;vector-effect:none;fill:none;stroke:#000000;stroke-width:0.533333;stroke-linecap:butt;stroke-linejoin:bevel;stroke-opacity:1"
       d="M 0,6.66667 H 82.921806"
       sodipodi:nodetypes="cc"
       transform="matrix(3.125,0,0,3.125,0,30.468802)" />
    <path
       id="polyline3619"
       style="font-style:normal;font-weight:400;font-size:45.8333px;font-family:Cantarell;vector-effect:none;fill:none;stroke:#000000;stroke-width:0.533333;stroke-linecap:butt;stroke-linejoin:bevel;stroke-opacity:1"
       d="M 0,13.3333 H 82.921806"
       sodipodi:nodetypes="cc"
       transform="matrix(3.125,0,0,3.125,0,30.468802)" />
    <path
       id="polyline3621"
       style="font-style:normal;font-weight:400;font-size:45.8333px;font-family:Cantarell;vector-effect:none;fill:none;stroke:#000000;stroke-width:0.533333;stroke-linecap:butt;stroke-linejoin:bevel;stroke-opacity:1"
       d="M 0,20 H 82.921806"
       sodipodi:nodetypes="cc"
       transform="matrix(3.125,0,0,3.125,0,30.468802)" />
    <path
       id="polyline3623"
       style="font-style:normal;font-weight:400;font-size:45.8333px;font-family:Cantarell;vector-effect:none;fill:none;stroke:#000000;stroke-width:0.533333;stroke-linecap:butt;stroke-linejoin:bevel;stroke-opacity:1"
       d="M 0,26.6667 H 82.921806"
       sodipodi:nodetypes="cc"
       transform="matrix(3.125,0,0,3.125,0,30.468802)" />
    <g
       style="font-style:normal;font-weight:400;font-size:45.8333px;font-family:Cantarell;fill:none;stroke:#000000;stroke-width:1.06667;stroke-linecap:square;stroke-linejoin:bevel;stroke-opacity:1"
       id="g3625"
       font-style="normal"
       font-weight="400"
       font-size="45.8333"
       transform="matrix(3.125,0,0,3.125,128.9583,134.6356)">
      <polyline
         style="fill:none"
         id="polyline3627"
         points="0,0 16.39,0 "
         vector-effect="none" />
    </g>
    <g
       style="font-style:normal;font-weight:400;font-size:27px;font-family:Bravura;fill:#000000;fill-opacity:1;fill-rule:evenodd;stroke:none"
       id="g3631"
       font-style="normal"
       font-weight="400"
       font-size="27"
       transform="matrix(3.125,0,0,3.125,135.2083,134.6356)">
      <path
         style="fill-rule:nonzero"
         inkscape:connector-curvature="0"
         id="path3633"
         d="M 6.34375,-3.70312 C 2.42188,-3.70312 0,-2.04688 0,-0.046875 C 0,1.92188 1.67188,3.67188 6.04688,3.67188 C 10.8438,3.67188 12.3906,2 12.3906,-0.046875 C 12.3906,-2.125 9.0625,-3.70312 6.34375,-3.70312 M 3.26562,-1.85938 C 3.59375,-2.85938 4.67188,-3.01562 5.59375,-3.01562 C 7.57812,-3.01562 9.20312,-0.859375 9.20312,0.921875 C 9.20312,1.10938 9.17188,1.29688 9.15625,1.45312 C 9.01562,2.1875 8.57812,2.70312 7.85938,2.89062 C 7.5625,2.96875 7.26562,3 6.96875,3 C 6.6875,3 6.45312,2.96875 6.1875,2.89062 C 5.70312,2.71875 5.20312,2.45312 4.8125,2.10938 C 4.59375,1.92188 4.375,1.70312 4.1875,1.45312 C 3.60938,0.78125 3.15625,-0.21875 3.15625,-1.14062 C 3.15625,-1.375 3.1875,-1.625 3.26562,-1.85938"
         vector-effect="none" />
    </g>
    <g
       style="font-style:normal;font-weight:400;font-size:27px;font-family:Bravura;fill:#000000;fill-opacity:1;fill-rule:evenodd;stroke:none"
       id="g3639"
       font-style="normal"
       font-weight="400"
       font-size="27"
       transform="matrix(3.125,0,0,3.125,13.3334,92.968602)">
      <path
         style="fill-rule:nonzero"
         inkscape:connector-curvature="0"
         id="path3641"
         d="M 18.2812,-0.671875 C 18.0625,-4.15625 15.1406,-6.89062 11.6875,-6.89062 H 11.3906 C 11.2812,-6.89062 11.1406,-6.89062 11.0469,-6.82812 C 10.75,-8.57812 10.4531,-9.98438 10.1719,-11.4375 C 13.7969,-14.7969 15.625,-18.3281 15.625,-22 C 15.625,-23.7031 15.2188,-25.4219 14.4688,-27.1875 C 13.4219,-29.5781 12.4375,-29.75 12.4375,-29.75 C 9.85938,-28.6094 8.07812,-24.5312 8.07812,-19.6562 C 8.07812,-18.7656 8.125,-17.8438 8.26562,-16.8906 L 8.57812,-15.2031 C 4.60938,-11.7969 0.15625,-7.82812 0.15625,-2.625 C 0.15625,-2.34375 0.15625,-2.07812 0.1875,-1.8125 C 0.703125,4.71875 5.79688,6.79688 10.2344,6.79688 C 10.8438,6.79688 11.4688,6.78125 12.0625,6.6875 C 12.0625,6.6875 12.1406,6.6875 12.2031,6.6875 L 12.8281,10.4688 C 12.9219,11.1406 12.9844,11.7656 12.9844,12.3125 C 12.9844,16.7031 9.6875,16.7656 9.35938,16.7656 H 8.85938 C 7.9375,16.7656 7.1875,16.625 6.60938,16.2188 C 6.45312,16.1094 6.375,16 6.375,15.9219 C 6.375,15.8125 6.48438,15.7656 6.60938,15.7031 C 6.85938,15.6562 7.04688,15.6562 7.28125,15.5469 C 8.39062,15.2031 9.17188,14.2188 9.17188,13.0156 V 12.8281 C 9.04688,11.4219 7.875,10.25 6.42188,10.25 H 6.23438 C 5,10.3438 3.9375,11.3125 3.78125,12.5312 C 3.75,12.5312 3.67188,12.9219 3.67188,13.5 C 3.67188,14.9844 4.34375,17.7656 8.79688,17.7656 C 8.98438,17.7656 9.20312,17.7344 9.42188,17.7344 C 11.3438,17.625 14.2031,16.4375 14.2031,12.2031 C 14.2031,11.6406 14.1406,11.0156 14.0312,10.3438 C 14.0312,10.3438 13.7188,8.75 13.3594,6.3125 C 16.3906,5.1875 18.2812,2.71875 18.2812,-0.296875 V -0.671875 M 12.625,-25.4531 C 13.5156,-25.4531 14.4219,-24.75 14.4219,-23.2969 C 14.4219,-23.1094 14.3906,-22.9219 14.3594,-22.7031 C 14.0312,-20.4531 12.3594,-18.1719 9.46875,-15.9844 C 9.35938,-16.625 9.26562,-17.1406 9.26562,-17.2969 C 9.20312,-17.5938 9.20312,-17.9219 9.20312,-18.2812 C 9.20312,-21.0469 10.5,-25.3438 12.625,-25.4531 M 2.32812,-0.4375 C 2.32812,-4.9375 5.75,-8.23438 9.28125,-10.8438 L 9.95312,-6.64062 C 7.53125,-5.90625 5.60938,-3.60938 5.60938,-1.1875 C 5.60938,-0.78125 5.67188,-0.375 5.78125,0 C 6.20312,1.82812 7.42188,3.1875 8.6875,3.59375 C 8.9375,3.67188 9.125,3.70312 9.26562,3.70312 C 9.46875,3.70312 9.57812,3.59375 9.57812,3.48438 C 9.57812,3.3125 9.39062,3.10938 9.17188,3 C 8.64062,2.75 7.42188,1.4375 7.375,0.328125 V 0.046875 C 7.375,-1.82812 8.76562,-2.71875 10.5469,-3.01562 L 12.0156,5.60938 C 11.6094,5.75 10.9844,5.82812 10.2344,5.82812 C 7.28125,5.82812 2.48438,4.5 2.32812,-0.21875 V -0.4375 M 13.1719,5.3125 C 12.7344,2.85938 12.2031,-0.078125 11.6406,-3.125 H 11.7344 C 14.0156,-3.125 15.9531,-1.32812 16.0625,0.9375 V 1.23438 C 16.0625,3.125 15.0625,4.5 13.1719,5.3125"
         vector-effect="none" />
    </g>
  </g>
  <g
     style="font-style:normal;font-weight:400;font-size:27px;font-family:Bravura;fill:none;stroke:#000000;stroke-width:1;stroke-linecap:square;stroke-linejoin:bevel;stroke-opacity:1"
     id="g3643"
     font-style="normal"
     font-weight="400"
     font-size="27"
     transform="matrix(3.125,0,0,3.125,13.3334,92.968672)" />
  <g
     style="font-style:normal;font-weight:400;font-size:15px;font-family:Cantarell;fill:none;stroke:#000000;stroke-width:1;stroke-linecap:square;stroke-linejoin:bevel;stroke-opacity:1"
     id="g3645"
     font-style="normal"
     font-weight="400"
     font-size="15"
     transform="matrix(3.125,0,0,3.125,-118.1107,1537.5807)" />
  <g
     style="font-style:normal;font-weight:400;font-size:15px;font-family:Cantarell;fill:none;stroke:#000000;stroke-width:1;stroke-linecap:square;stroke-linejoin:bevel;stroke-opacity:1"
     id="g3651"
     font-style="normal"
     font-weight="400"
     font-size="15"
     transform="matrix(3.125,0,0,3.125,-118.1107,1537.5807)" />
  <g
     style="font-style:normal;font-weight:400;font-size:15px;font-family:Cantarell;fill:none;stroke:#000000;stroke-width:1;stroke-linecap:square;stroke-linejoin:bevel;stroke-opacity:1"
     id="g3653"
     font-style="normal"
     font-weight="400"
     font-size="15"
     transform="matrix(3.125,0,0,3.125,-118.1107,1537.5807)" />
  <g
     style="font-style:normal;font-weight:400;font-size:15px;font-family:Cantarell;fill:none;stroke:#000000;stroke-width:1;stroke-linecap:square;stroke-linejoin:bevel;stroke-opacity:1"
     id="g3659"
     font-style="normal"
     font-weight="400"
     font-size="15"
     transform="matrix(3.125,0,0,3.125,-118.1107,1537.5807)" />
</svg>
