<?xml version="1.0" encoding="UTF-8" standalone="no"?>
<svg
   width="2796px"
   height="333px"
   viewBox="0 0 2796 333"
   version="1.2"
   id="svg2123"
   sodipodi:docname="Trans_Paradise_gis.svg"
   inkscape:version="1.1-dev (0486c1a, 2020-10-10)"
   xmlns:inkscape="http://www.inkscape.org/namespaces/inkscape"
   xmlns:sodipodi="http://sodipodi.sourceforge.net/DTD/sodipodi-0.dtd"
   xmlns="http://www.w3.org/2000/svg"
   xmlns:svg="http://www.w3.org/2000/svg"
   xmlns:rdf="http://www.w3.org/1999/02/22-rdf-syntax-ns#"
   xmlns:cc="http://creativecommons.org/ns#"
   xmlns:dc="http://purl.org/dc/elements/1.1/">
  <defs
     id="defs2127" />
  <sodipodi:namedview
     pagecolor="#ffffff"
     bordercolor="#666666"
     borderopacity="1"
     objecttolerance="10"
     gridtolerance="10"
     guidetolerance="10"
     inkscape:pageopacity="0"
     inkscape:pageshadow="2"
     inkscape:window-width="1115"
     inkscape:window-height="480"
     id="namedview2125"
     showgrid="false"
     inkscape:zoom="0.25752212"
     inkscape:cx="1122.2337"
     inkscape:cy="438.79725"
     inkscape:window-x="78"
     inkscape:window-y="136"
     inkscape:window-maximized="0"
     inkscape:current-layer="svg2123" />
  <title
     id="title1827">Trans_misc.</title>
  <desc
     id="desc1829">Generated by MuseScore 3.5.2</desc>
  <circle
     style="fill:#00ffff;stroke:none;stroke-width:1.9;stroke-linecap:round;stroke-linejoin:round"
     id="path5222"
     cx="178.47577"
     cy="137.23706"
     r="32" />
  <circle
     style="fill:#ffbf00;fill-opacity:1;stroke:none;stroke-width:1.9;stroke-linecap:round;stroke-linejoin:round"
     id="circle2258"
     cx="2383.1589"
     cy="60.4231"
     r="56.692913" />
  <circle
     style="fill:#ffbf00;fill-opacity:1;stroke:none;stroke-width:1.9;stroke-linecap:round;stroke-linejoin:round"
     id="circle614"
     cx="1862.0699"
     cy="58.4231"
     r="56.692913" />
  <circle
     style="fill:#00ff00;fill-opacity:1;stroke:none;stroke-width:1.9;stroke-linecap:round;stroke-linejoin:round"
     id="circle2244"
     cx="2269.72"
     cy="100.42305"
     r="56.692913" />
  <circle
     style="fill:#00ff00;fill-opacity:1;stroke:none;stroke-width:1.9;stroke-linecap:round;stroke-linejoin:round"
     id="circle466"
     cx="1721.6982"
     cy="96.688026"
     r="56.692913" />
  <polyline
     class=""
     fill="none"
     stroke="#000000"
     stroke-width="4.00"
     stroke-linejoin="bevel"
     points="2746.3,136.298 2746.3,239.548"
     id="polyline1831" />
  <polyline
     class=""
     fill="none"
     stroke="#000000"
     stroke-width="4.00"
     stroke-linejoin="bevel"
     points="2603.43,136.298 2603.43,239.548"
     id="polyline1833" />
  <polyline
     class=""
     fill="none"
     stroke="#000000"
     stroke-width="4.00"
     stroke-linejoin="bevel"
     points="2324.51,136.298 2324.51,239.548"
     id="polyline1835" />
  <polyline
     class=""
     fill="none"
     stroke="#000000"
     stroke-width="4.00"
     stroke-linejoin="bevel"
     points="2060.83,136.298 2060.83,239.548"
     id="polyline1837" />
  <polyline
     class=""
     fill="none"
     stroke="#000000"
     stroke-width="4.00"
     stroke-linejoin="bevel"
     points="1618.28,136.298 1618.28,239.548"
     id="polyline1839" />
  <polyline
     class=""
     fill="none"
     stroke="#000000"
     stroke-width="4.00"
     stroke-linejoin="bevel"
     points="1474.11,136.298 1474.11,239.548"
     id="polyline1841" />
  <polyline
     class=""
     fill="none"
     stroke="#000000"
     stroke-width="4.00"
     stroke-linejoin="bevel"
     points="1064.2,136.298 1064.2,239.548"
     id="polyline1843" />
  <polyline
     class=""
     fill="none"
     stroke="#000000"
     stroke-width="4.00"
     stroke-linejoin="bevel"
     points="780.615,136.298 780.615,239.548"
     id="polyline1845" />
  <polyline
     class=""
     fill="none"
     stroke="#000000"
     stroke-width="3.25"
     stroke-linejoin="bevel"
     points="2605.43,137.923 2748.3,137.923"
     id="polyline1847" />
  <polyline
     class=""
     fill="none"
     stroke="#000000"
     stroke-width="3.25"
     stroke-linejoin="bevel"
     points="2605.43,162.923 2748.3,162.923"
     id="polyline1849" />
  <polyline
     class=""
     fill="none"
     stroke="#000000"
     stroke-width="3.25"
     stroke-linejoin="bevel"
     points="2605.43,187.923 2748.3,187.923"
     id="polyline1851" />
  <polyline
     class=""
     fill="none"
     stroke="#000000"
     stroke-width="3.25"
     stroke-linejoin="bevel"
     points="2605.43,212.923 2748.3,212.923"
     id="polyline1853" />
  <polyline
     class=""
     fill="none"
     stroke="#000000"
     stroke-width="3.25"
     stroke-linejoin="bevel"
     points="2605.43,237.923 2748.3,237.923"
     id="polyline1855" />
  <polyline
     class=""
     fill="none"
     stroke="#000000"
     stroke-width="3.25"
     stroke-linejoin="bevel"
     points="2326.51,137.923 2605.43,137.923"
     id="polyline1857" />
  <polyline
     class=""
     fill="none"
     stroke="#000000"
     stroke-width="3.25"
     stroke-linejoin="bevel"
     points="2326.51,162.923 2605.43,162.923"
     id="polyline1859" />
  <polyline
     class=""
     fill="none"
     stroke="#000000"
     stroke-width="3.25"
     stroke-linejoin="bevel"
     points="2326.51,187.923 2605.43,187.923"
     id="polyline1861" />
  <polyline
     class=""
     fill="none"
     stroke="#000000"
     stroke-width="3.25"
     stroke-linejoin="bevel"
     points="2326.51,212.923 2605.43,212.923"
     id="polyline1863" />
  <polyline
     class=""
     fill="none"
     stroke="#000000"
     stroke-width="3.25"
     stroke-linejoin="bevel"
     points="2326.51,237.923 2605.43,237.923"
     id="polyline1865" />
  <polyline
     class=""
     fill="none"
     stroke="#000000"
     stroke-width="3.25"
     stroke-linejoin="bevel"
     points="2062.83,137.923 2326.51,137.923"
     id="polyline1867" />
  <polyline
     class=""
     fill="none"
     stroke="#000000"
     stroke-width="3.25"
     stroke-linejoin="bevel"
     points="2062.83,162.923 2326.51,162.923"
     id="polyline1869" />
  <polyline
     class=""
     fill="none"
     stroke="#000000"
     stroke-width="3.25"
     stroke-linejoin="bevel"
     points="2062.83,187.923 2326.51,187.923"
     id="polyline1871" />
  <polyline
     class=""
     fill="none"
     stroke="#000000"
     stroke-width="3.25"
     stroke-linejoin="bevel"
     points="2062.83,212.923 2326.51,212.923"
     id="polyline1873" />
  <polyline
     class=""
     fill="none"
     stroke="#000000"
     stroke-width="3.25"
     stroke-linejoin="bevel"
     points="2062.83,237.923 2326.51,237.923"
     id="polyline1875" />
  <polyline
     class=""
     fill="none"
     stroke="#000000"
     stroke-width="3.25"
     stroke-linejoin="bevel"
     points="1620.28,137.923 2062.83,137.923"
     id="polyline1877" />
  <polyline
     class=""
     fill="none"
     stroke="#000000"
     stroke-width="3.25"
     stroke-linejoin="bevel"
     points="1620.28,162.923 2062.83,162.923"
     id="polyline1879" />
  <polyline
     class=""
     fill="none"
     stroke="#000000"
     stroke-width="3.25"
     stroke-linejoin="bevel"
     points="1620.28,187.923 2062.83,187.923"
     id="polyline1881" />
  <polyline
     class=""
     fill="none"
     stroke="#000000"
     stroke-width="3.25"
     stroke-linejoin="bevel"
     points="1620.28,212.923 2062.83,212.923"
     id="polyline1883" />
  <polyline
     class=""
     fill="none"
     stroke="#000000"
     stroke-width="3.25"
     stroke-linejoin="bevel"
     points="1620.28,237.923 2062.83,237.923"
     id="polyline1885" />
  <polyline
     class=""
     fill="none"
     stroke="#000000"
     stroke-width="3.25"
     stroke-linejoin="bevel"
     points="1476.11,137.923 1620.28,137.923"
     id="polyline1887" />
  <polyline
     class=""
     fill="none"
     stroke="#000000"
     stroke-width="3.25"
     stroke-linejoin="bevel"
     points="1476.11,162.923 1620.28,162.923"
     id="polyline1889" />
  <polyline
     class=""
     fill="none"
     stroke="#000000"
     stroke-width="3.25"
     stroke-linejoin="bevel"
     points="1476.11,187.923 1620.28,187.923"
     id="polyline1891" />
  <polyline
     class=""
     fill="none"
     stroke="#000000"
     stroke-width="3.25"
     stroke-linejoin="bevel"
     points="1476.11,212.923 1620.28,212.923"
     id="polyline1893" />
  <polyline
     class=""
     fill="none"
     stroke="#000000"
     stroke-width="3.25"
     stroke-linejoin="bevel"
     points="1476.11,237.923 1620.28,237.923"
     id="polyline1895" />
  <polyline
     class=""
     fill="none"
     stroke="#000000"
     stroke-width="3.25"
     stroke-linejoin="bevel"
     points="1066.2,137.923 1476.11,137.923"
     id="polyline1897" />
  <polyline
     class=""
     fill="none"
     stroke="#000000"
     stroke-width="3.25"
     stroke-linejoin="bevel"
     points="1066.2,162.923 1476.11,162.923"
     id="polyline1899" />
  <polyline
     class=""
     fill="none"
     stroke="#000000"
     stroke-width="3.25"
     stroke-linejoin="bevel"
     points="1066.2,187.923 1476.11,187.923"
     id="polyline1901" />
  <polyline
     class=""
     fill="none"
     stroke="#000000"
     stroke-width="3.25"
     stroke-linejoin="bevel"
     points="1066.2,212.923 1476.11,212.923"
     id="polyline1903" />
  <polyline
     class=""
     fill="none"
     stroke="#000000"
     stroke-width="3.25"
     stroke-linejoin="bevel"
     points="1066.2,237.923 1476.11,237.923"
     id="polyline1905" />
  <polyline
     class=""
     fill="none"
     stroke="#000000"
     stroke-width="3.25"
     stroke-linejoin="bevel"
     points="782.615,137.923 1066.2,137.923"
     id="polyline1907" />
  <polyline
     class=""
     fill="none"
     stroke="#000000"
     stroke-width="3.25"
     stroke-linejoin="bevel"
     points="782.615,162.923 1066.2,162.923"
     id="polyline1909" />
  <polyline
     class=""
     fill="none"
     stroke="#000000"
     stroke-width="3.25"
     stroke-linejoin="bevel"
     points="782.615,187.923 1066.2,187.923"
     id="polyline1911" />
  <polyline
     class=""
     fill="none"
     stroke="#000000"
     stroke-width="3.25"
     stroke-linejoin="bevel"
     points="782.615,212.923 1066.2,212.923"
     id="polyline1913" />
  <polyline
     class=""
     fill="none"
     stroke="#000000"
     stroke-width="3.25"
     stroke-linejoin="bevel"
     points="782.615,237.923 1066.2,237.923"
     id="polyline1915" />
  <polyline
     class=""
     fill="none"
     stroke="#000000"
     stroke-width="3.25"
     stroke-linejoin="bevel"
     points="54.5615,137.923 782.615,137.923"
     id="polyline1917" />
  <polyline
     class=""
     fill="none"
     stroke="#000000"
     stroke-width="3.25"
     stroke-linejoin="bevel"
     points="54.5615,162.923 782.615,162.923"
     id="polyline1919" />
  <polyline
     class=""
     fill="none"
     stroke="#000000"
     stroke-width="3.25"
     stroke-linejoin="bevel"
     points="54.5615,187.923 782.615,187.923"
     id="polyline1921" />
  <polyline
     class=""
     fill="none"
     stroke="#000000"
     stroke-width="3.25"
     stroke-linejoin="bevel"
     points="54.5615,212.923 782.615,212.923"
     id="polyline1923" />
  <polyline
     class=""
     fill="none"
     stroke="#000000"
     stroke-width="3.25"
     stroke-linejoin="bevel"
     points="54.5615,237.923 782.615,237.923"
     id="polyline1925" />
  <path
     class=""
     d="M2363.51,71.3231 C2363.61,71.3231 2363.81,71.2231 2363.91,71.2231 C2363.91,71.2231 2365.31,70.6231 2366.21,70.3231 C2366.31,70.2231 2366.41,70.2231 2366.51,70.2231 C2367.21,70.2231 2367.71,71.3231 2367.71,71.8231 L2367.71,84.1231 C2367.71,84.7231 2368.31,85.2231 2369.01,85.2231 C2370.01,85.2231 2370.71,84.7231 2370.71,84.1231 L2370.71,70.2231 C2370.71,68.9231 2371.21,68.2231 2371.71,68.0231 L2377.81,65.5231 C2377.91,65.5231 2378.11,65.4231 2378.21,65.4231 C2379.01,65.4231 2379.51,66.6231 2379.51,67.2231 L2379.51,79.7231 C2379.51,80.3231 2380.11,80.8231 2380.81,80.8231 C2381.91,80.8231 2382.51,80.3231 2382.51,79.7231 L2382.51,65.5231 C2382.51,64.7231 2382.91,63.5231 2383.61,63.2231 C2384.31,62.9231 2386.41,62.1231 2386.41,62.1231 C2387.11,61.8231 2387.61,61.0231 2387.61,60.4231 L2387.61,53.3231 C2387.61,52.8231 2387.31,52.5231 2386.91,52.5231 C2386.71,52.5231 2386.61,52.5231 2386.41,52.6231 L2383.81,53.6231 C2383.21,53.6231 2382.51,53.0231 2382.51,51.8231 L2382.51,42.5231 C2382.51,41.8231 2383.01,39.9231 2383.81,39.6231 L2386.41,38.6231 C2387.11,38.3231 2387.61,37.5231 2387.61,36.9231 L2387.61,29.8231 C2387.61,29.3231 2387.31,29.0231 2386.91,29.0231 C2386.71,29.0231 2386.61,29.0231 2386.41,29.1231 C2386.41,29.1231 2384.41,29.9231 2383.91,30.0231 C2383.21,30.0231 2382.51,29.5231 2382.51,28.7231 L2382.51,16.5231 C2382.51,15.9231 2381.91,15.4231 2381.11,15.4231 C2380.11,15.4231 2379.51,15.9231 2379.51,16.5231 L2379.51,29.5231 C2379.41,30.5231 2379.11,31.8231 2378.21,32.4231 C2377.01,33.1231 2373.61,34.5231 2371.91,34.9231 C2371.01,34.9231 2370.71,33.7231 2370.71,32.9231 L2370.71,20.9231 C2370.71,20.3231 2370.01,19.8231 2369.31,19.8231 C2368.31,19.8231 2367.71,20.3231 2367.71,20.9231 L2367.71,34.4231 C2367.71,35.8231 2367.11,36.8231 2366.51,37.1231 C2365.91,37.4231 2363.91,38.2231 2363.91,38.2231 C2363.21,38.4231 2362.71,39.2231 2362.71,39.8231 L2362.71,46.9231 C2362.71,47.5231 2363.01,47.8231 2363.51,47.8231 C2363.91,47.8231 2365.81,46.9231 2366.11,46.7231 C2367.11,46.7231 2367.71,47.2231 2367.71,48.4231 L2367.71,58.3231 C2367.71,59.4231 2367.21,60.3231 2366.61,60.6231 C2366.01,60.8231 2363.91,61.7231 2363.91,61.7231 C2363.21,61.9231 2362.71,62.7231 2362.71,63.3231 L2362.71,70.4231 C2362.71,71.0231 2363.01,71.3231 2363.51,71.3231 M2340.31,69.9231 C2340.41,69.9231 2340.91,69.8231 2341.01,69.7231 C2342.41,69.1231 2348.01,66.7231 2350.91,66.7231 C2351.91,66.7231 2352.61,67.0231 2352.61,67.8231 L2352.61,82.7231 C2352.61,83.4231 2353.11,83.9231 2353.81,83.9231 L2355.11,83.9231 C2355.71,83.9231 2356.31,83.4231 2356.31,82.7231 L2356.31,32.5231 C2356.31,32.0231 2355.91,31.7231 2355.51,31.7231 C2355.41,31.7231 2355.21,31.7231 2355.11,31.8231 L2353.61,32.3231 C2353.41,32.3231 2353.31,32.4231 2353.21,32.4231 C2353.21,32.4231 2346.81,34.7231 2344.21,34.7231 C2343.61,34.7231 2343.21,34.6231 2343.21,34.2231 L2343.21,17.5231 C2343.21,16.8231 2342.61,16.3231 2342.01,16.3231 L2340.71,16.3231 C2340.01,16.3231 2339.51,16.8231 2339.51,17.5231 L2339.51,69.0231 C2339.51,69.6231 2339.81,69.9231 2340.31,69.9231 M2370.41,53.4231 C2370.41,50.3231 2370.51,46.8231 2370.71,46.0231 C2370.91,44.3231 2375.51,42.2231 2378.01,42.2231 C2378.71,42.2231 2379.31,42.4231 2379.51,42.8231 C2379.71,43.3231 2379.91,45.8231 2379.91,48.5231 C2379.91,51.2231 2379.71,54.0231 2379.51,54.9231 C2378.91,56.9231 2374.21,58.9231 2371.91,58.9231 C2371.31,58.9231 2370.81,58.7231 2370.71,58.4231 C2370.51,58.0231 2370.41,55.8231 2370.41,53.4231 M2351.71,42.5231 C2352.31,42.5231 2352.61,42.6231 2352.61,43.0231 L2352.61,53.3231 C2352.61,55.1231 2346.91,57.4231 2344.41,57.4231 C2343.71,57.4231 2343.21,57.2231 2343.21,56.8231 L2343.21,46.5231 C2343.21,45.1231 2349.31,42.5231 2351.71,42.5231"
     id="path1927" />
  <path
     class=""
     d="M2232.77,119.923 C2232.87,119.923 2233.37,119.823 2233.47,119.723 C2234.87,119.123 2240.47,116.723 2243.37,116.723 C2244.37,116.723 2245.07,117.023 2245.07,117.823 L2245.07,132.723 C2245.07,133.423 2245.57,133.923 2246.27,133.923 L2247.57,133.923 C2248.17,133.923 2248.77,133.423 2248.77,132.723 L2248.77,82.5231 C2248.77,82.0231 2248.37,81.7231 2247.97,81.7231 C2247.87,81.7231 2247.67,81.7231 2247.57,81.8231 L2246.07,82.3231 C2245.87,82.3231 2245.77,82.4231 2245.67,82.4231 C2245.67,82.4231 2239.27,84.7231 2236.67,84.7231 C2236.07,84.7231 2235.67,84.6231 2235.67,84.2231 L2235.67,67.5231 C2235.67,66.8231 2235.07,66.3231 2234.47,66.3231 L2233.17,66.3231 C2232.47,66.3231 2231.97,66.8231 2231.97,67.5231 L2231.97,119.023 C2231.97,119.623 2232.27,119.923 2232.77,119.923 M2235.67,96.5231 C2235.67,95.1231 2241.77,92.5231 2244.17,92.5231 C2244.77,92.5231 2245.07,92.6231 2245.07,93.0231 L2245.07,103.323 C2245.07,105.123 2239.37,107.423 2236.87,107.423 C2236.17,107.423 2235.67,107.223 2235.67,106.823 L2235.67,96.5231 "
     id="path1929" />
  <path
     class=""
     d="M1839.02,71.3231 C1839.12,71.3231 1839.32,71.2231 1839.42,71.2231 C1839.42,71.2231 1840.82,70.6231 1841.72,70.3231 C1841.82,70.2231 1841.92,70.2231 1842.02,70.2231 C1842.72,70.2231 1843.22,71.3231 1843.22,71.8231 L1843.22,84.1231 C1843.22,84.7231 1843.82,85.2231 1844.52,85.2231 C1845.52,85.2231 1846.22,84.7231 1846.22,84.1231 L1846.22,70.2231 C1846.22,68.9231 1846.72,68.2231 1847.22,68.0231 L1853.32,65.5231 C1853.42,65.5231 1853.62,65.4231 1853.72,65.4231 C1854.52,65.4231 1855.02,66.6231 1855.02,67.2231 L1855.02,79.7231 C1855.02,80.3231 1855.62,80.8231 1856.32,80.8231 C1857.42,80.8231 1858.02,80.3231 1858.02,79.7231 L1858.02,65.5231 C1858.02,64.7231 1858.42,63.5231 1859.12,63.2231 C1859.82,62.9231 1861.92,62.1231 1861.92,62.1231 C1862.62,61.8231 1863.12,61.0231 1863.12,60.4231 L1863.12,53.3231 C1863.12,52.8231 1862.82,52.5231 1862.42,52.5231 C1862.22,52.5231 1862.12,52.5231 1861.92,52.6231 L1859.32,53.6231 C1858.72,53.6231 1858.02,53.0231 1858.02,51.8231 L1858.02,42.5231 C1858.02,41.8231 1858.52,39.9231 1859.32,39.6231 L1861.92,38.6231 C1862.62,38.3231 1863.12,37.5231 1863.12,36.9231 L1863.12,29.8231 C1863.12,29.3231 1862.82,29.0231 1862.42,29.0231 C1862.22,29.0231 1862.12,29.0231 1861.92,29.1231 C1861.92,29.1231 1859.92,29.9231 1859.42,30.0231 C1858.72,30.0231 1858.02,29.5231 1858.02,28.7231 L1858.02,16.5231 C1858.02,15.9231 1857.42,15.4231 1856.62,15.4231 C1855.62,15.4231 1855.02,15.9231 1855.02,16.5231 L1855.02,29.5231 C1854.92,30.5231 1854.62,31.8231 1853.72,32.4231 C1852.52,33.1231 1849.12,34.5231 1847.42,34.9231 C1846.52,34.9231 1846.22,33.7231 1846.22,32.9231 L1846.22,20.9231 C1846.22,20.3231 1845.52,19.8231 1844.82,19.8231 C1843.82,19.8231 1843.22,20.3231 1843.22,20.9231 L1843.22,34.4231 C1843.22,35.8231 1842.62,36.8231 1842.02,37.1231 C1841.42,37.4231 1839.42,38.2231 1839.42,38.2231 C1838.72,38.4231 1838.22,39.2231 1838.22,39.8231 L1838.22,46.9231 C1838.22,47.5231 1838.52,47.8231 1839.02,47.8231 C1839.42,47.8231 1841.32,46.9231 1841.62,46.7231 C1842.62,46.7231 1843.22,47.2231 1843.22,48.4231 L1843.22,58.3231 C1843.22,59.4231 1842.72,60.3231 1842.12,60.6231 C1841.52,60.8231 1839.42,61.7231 1839.42,61.7231 C1838.72,61.9231 1838.22,62.7231 1838.22,63.3231 L1838.22,70.4231 C1838.22,71.0231 1838.52,71.3231 1839.02,71.3231 M1815.82,69.9231 C1815.92,69.9231 1816.42,69.8231 1816.52,69.7231 C1817.92,69.1231 1823.52,66.7231 1826.42,66.7231 C1827.42,66.7231 1828.12,67.0231 1828.12,67.8231 L1828.12,82.7231 C1828.12,83.4231 1828.62,83.9231 1829.32,83.9231 L1830.62,83.9231 C1831.22,83.9231 1831.82,83.4231 1831.82,82.7231 L1831.82,32.5231 C1831.82,32.0231 1831.42,31.7231 1831.02,31.7231 C1830.92,31.7231 1830.72,31.7231 1830.62,31.8231 L1829.12,32.3231 C1828.92,32.3231 1828.82,32.4231 1828.72,32.4231 C1828.72,32.4231 1822.32,34.7231 1819.72,34.7231 C1819.12,34.7231 1818.72,34.6231 1818.72,34.2231 L1818.72,17.5231 C1818.72,16.8231 1818.12,16.3231 1817.52,16.3231 L1816.22,16.3231 C1815.52,16.3231 1815.02,16.8231 1815.02,17.5231 L1815.02,69.0231 C1815.02,69.6231 1815.32,69.9231 1815.82,69.9231 M1845.92,53.4231 C1845.92,50.3231 1846.02,46.8231 1846.22,46.0231 C1846.42,44.3231 1851.02,42.2231 1853.52,42.2231 C1854.22,42.2231 1854.82,42.4231 1855.02,42.8231 C1855.22,43.3231 1855.42,45.8231 1855.42,48.5231 C1855.42,51.2231 1855.22,54.0231 1855.02,54.9231 C1854.42,56.9231 1849.72,58.9231 1847.42,58.9231 C1846.82,58.9231 1846.32,58.7231 1846.22,58.4231 C1846.02,58.0231 1845.92,55.8231 1845.92,53.4231 M1827.22,42.5231 C1827.82,42.5231 1828.12,42.6231 1828.12,43.0231 L1828.12,53.3231 C1828.12,55.1231 1822.42,57.4231 1819.92,57.4231 C1819.22,57.4231 1818.72,57.2231 1818.72,56.8231 L1818.72,46.5231 C1818.72,45.1231 1824.82,42.5231 1827.22,42.5231"
     id="path1931" />
  <path
     class=""
     d="M1690.73,119.923 C1690.83,119.923 1691.33,119.823 1691.43,119.723 C1692.83,119.123 1698.43,116.723 1701.33,116.723 C1702.33,116.723 1703.03,117.023 1703.03,117.823 L1703.03,132.723 C1703.03,133.423 1703.53,133.923 1704.23,133.923 L1705.53,133.923 C1706.13,133.923 1706.73,133.423 1706.73,132.723 L1706.73,82.5231 C1706.73,82.0231 1706.33,81.7231 1705.93,81.7231 C1705.83,81.7231 1705.63,81.7231 1705.53,81.8231 L1704.03,82.3231 C1703.83,82.3231 1703.73,82.4231 1703.63,82.4231 C1703.63,82.4231 1697.23,84.7231 1694.63,84.7231 C1694.03,84.7231 1693.63,84.6231 1693.63,84.2231 L1693.63,67.5231 C1693.63,66.8231 1693.03,66.3231 1692.43,66.3231 L1691.13,66.3231 C1690.43,66.3231 1689.93,66.8231 1689.93,67.5231 L1689.93,119.023 C1689.93,119.623 1690.23,119.923 1690.73,119.923 M1693.63,96.5231 C1693.63,95.1231 1699.73,92.5231 1702.13,92.5231 C1702.73,92.5231 1703.03,92.6231 1703.03,93.0231 L1703.03,103.323 C1703.03,105.123 1697.33,107.423 1694.83,107.423 C1694.13,107.423 1693.63,107.223 1693.63,106.823 L1693.63,96.5231 "
     id="path1933" />
  <polyline
     class=""
     fill="none"
     stroke="#000000"
     stroke-width="4.00"
     stroke-linecap="square"
     stroke-linejoin="bevel"
     points="2632.43,112.923 2688.33,112.923"
     id="polyline1935" />
  <polyline
     class=""
     fill="none"
     stroke="#000000"
     stroke-width="4.00"
     stroke-linecap="square"
     stroke-linejoin="bevel"
     points="2632.43,87.9231 2688.33,87.9231"
     id="polyline1937" />
  <polyline
     class=""
     fill="none"
     stroke="#000000"
     stroke-width="4.00"
     stroke-linecap="square"
     stroke-linejoin="bevel"
     points="2632.43,62.9231 2688.33,62.9231"
     id="polyline1939" />
  <polyline
     class=""
     fill="none"
     stroke="#000000"
     stroke-width="4.00"
     stroke-linecap="square"
     stroke-linejoin="bevel"
     points="2538.53,112.923 2581.43,112.923"
     id="polyline1941" />
  <polyline
     class=""
     fill="none"
     stroke="#000000"
     stroke-width="4.00"
     stroke-linecap="square"
     stroke-linejoin="bevel"
     points="2538.53,87.9231 2581.43,87.9231"
     id="polyline1943" />
  <polyline
     class=""
     fill="none"
     stroke="#000000"
     stroke-width="4.00"
     stroke-linecap="square"
     stroke-linejoin="bevel"
     points="2538.53,62.9231 2581.43,62.9231"
     id="polyline1945" />
  <polyline
     class=""
     fill="none"
     stroke="#000000"
     stroke-width="4.00"
     stroke-linecap="square"
     stroke-linejoin="bevel"
     points="2632.43,37.9231 2688.33,37.9231"
     id="polyline1947" />
  <polyline
     class=""
     fill="none"
     stroke="#000000"
     stroke-width="4.00"
     stroke-linecap="square"
     stroke-linejoin="bevel"
     points="2449.04,112.923 2491.94,112.923"
     id="polyline1949" />
  <polyline
     class=""
     fill="none"
     stroke="#000000"
     stroke-width="4.00"
     stroke-linecap="square"
     stroke-linejoin="bevel"
     points="2449.04,87.9231 2491.94,87.9231"
     id="polyline1951" />
  <polyline
     class=""
     fill="none"
     stroke="#000000"
     stroke-width="4.00"
     stroke-linecap="square"
     stroke-linejoin="bevel"
     points="2449.04,62.9231 2491.94,62.9231"
     id="polyline1953" />
  <polyline
     class=""
     fill="none"
     stroke="#000000"
     stroke-width="4.00"
     stroke-linecap="square"
     stroke-linejoin="bevel"
     points="2393.1,112.923 2436,112.923"
     id="polyline1955" />
  <polyline
     class=""
     fill="none"
     stroke="#000000"
     stroke-width="4.00"
     stroke-linecap="square"
     stroke-linejoin="bevel"
     points="2393.1,87.9231 2436,87.9231"
     id="polyline1957" />
  <polyline
     class=""
     fill="none"
     stroke="#000000"
     stroke-width="4.00"
     stroke-linecap="square"
     stroke-linejoin="bevel"
     points="2393.1,62.9231 2436,62.9231"
     id="polyline1959" />
  <polyline
     class=""
     fill="none"
     stroke="#000000"
     stroke-width="4.00"
     stroke-linecap="square"
     stroke-linejoin="bevel"
     points="2254.27,112.923 2297.16,112.923"
     id="polyline1961" />
  <polyline
     class=""
     fill="none"
     stroke="#000000"
     stroke-width="4.00"
     stroke-linecap="square"
     stroke-linejoin="bevel"
     points="2153.08,112.923 2195.97,112.923"
     id="polyline1963" />
  <polyline
     class=""
     fill="none"
     stroke="#000000"
     stroke-width="4.00"
     stroke-linecap="square"
     stroke-linejoin="bevel"
     points="2153.08,87.9231 2195.97,87.9231"
     id="polyline1965" />
  <polyline
     class=""
     fill="none"
     stroke="#000000"
     stroke-width="4.00"
     stroke-linecap="square"
     stroke-linejoin="bevel"
     points="2089.83,112.923 2132.73,112.923"
     id="polyline1967" />
  <polyline
     class=""
     fill="none"
     stroke="#000000"
     stroke-width="4.00"
     stroke-linecap="square"
     stroke-linejoin="bevel"
     points="2089.83,87.9231 2132.73,87.9231"
     id="polyline1969" />
  <polyline
     class=""
     fill="none"
     stroke="#000000"
     stroke-width="4.00"
     stroke-linecap="square"
     stroke-linejoin="bevel"
     points="2089.83,62.9231 2132.73,62.9231"
     id="polyline1971" />
  <polyline
     class=""
     fill="none"
     stroke="#000000"
     stroke-width="4.00"
     stroke-linecap="square"
     stroke-linejoin="bevel"
     points="1973.57,112.923 2016.46,112.923"
     id="polyline1973" />
  <polyline
     class=""
     fill="none"
     stroke="#000000"
     stroke-width="4.00"
     stroke-linecap="square"
     stroke-linejoin="bevel"
     points="1973.57,87.9231 2016.46,87.9231"
     id="polyline1975" />
  <polyline
     class=""
     fill="none"
     stroke="#000000"
     stroke-width="4.00"
     stroke-linecap="square"
     stroke-linejoin="bevel"
     points="1973.57,62.9231 2016.46,62.9231"
     id="polyline1977" />
  <polyline
     class=""
     fill="none"
     stroke="#000000"
     stroke-width="4.00"
     stroke-linecap="square"
     stroke-linejoin="bevel"
     points="1868.62,112.923 1911.52,112.923"
     id="polyline1979" />
  <polyline
     class=""
     fill="none"
     stroke="#000000"
     stroke-width="4.00"
     stroke-linecap="square"
     stroke-linejoin="bevel"
     points="1868.62,87.9231 1911.52,87.9231"
     id="polyline1981" />
  <polyline
     class=""
     fill="none"
     stroke="#000000"
     stroke-width="4.00"
     stroke-linecap="square"
     stroke-linejoin="bevel"
     points="1868.62,62.9231 1911.52,62.9231"
     id="polyline1983" />
  <polyline
     class=""
     fill="none"
     stroke="#000000"
     stroke-width="4.00"
     stroke-linecap="square"
     stroke-linejoin="bevel"
     points="1712.23,112.923 1755.13,112.923"
     id="polyline1985" />
  <polyline
     class=""
     fill="none"
     stroke="#000000"
     stroke-width="4.00"
     stroke-linecap="square"
     stroke-linejoin="bevel"
     points="1765.38,112.923 1808.27,112.923"
     id="polyline1987" />
  <polyline
     class=""
     fill="none"
     stroke="#000000"
     stroke-width="4.00"
     stroke-linecap="square"
     stroke-linejoin="bevel"
     points="1765.38,87.9231 1808.27,87.9231"
     id="polyline1989" />
  <polyline
     class=""
     fill="none"
     stroke="#000000"
     stroke-width="4.00"
     stroke-linecap="square"
     stroke-linejoin="bevel"
     points="1368.05,112.923 1410.95,112.923"
     id="polyline1991" />
  <polyline
     class=""
     fill="none"
     stroke="#000000"
     stroke-width="3.00"
     stroke-linecap="round"
     stroke-linejoin="bevel"
     points="2545.03,66.2831 2545.03,187.923"
     id="polyline1993" />
  <polyline
     class=""
     fill="none"
     stroke="#000000"
     stroke-width="3.00"
     stroke-linecap="round"
     stroke-linejoin="bevel"
     points="2455.54,53.7831 2455.54,187.923"
     id="polyline1995" />
  <polyline
     class=""
     fill="none"
     stroke="#000000"
     stroke-width="3.00"
     stroke-linecap="round"
     stroke-linejoin="bevel"
     points="2399.6,53.7831 2399.6,187.923"
     id="polyline1997" />
  <polyline
     class=""
     fill="none"
     stroke="#000000"
     stroke-width="3.00"
     stroke-linecap="round"
     stroke-linejoin="bevel"
     points="2260.77,103.783 2260.77,187.923"
     id="polyline1999" />
  <polyline
     class=""
     fill="none"
     stroke="#000000"
     stroke-width="3.00"
     stroke-linecap="round"
     stroke-linejoin="bevel"
     points="2159.58,78.7831 2159.58,187.923"
     id="polyline2001" />
  <polyline
     class=""
     fill="none"
     stroke="#000000"
     stroke-width="3.00"
     stroke-linecap="round"
     stroke-linejoin="bevel"
     points="2096.33,66.2831 2096.33,187.923"
     id="polyline2003" />
  <polyline
     class=""
     fill="none"
     stroke="#000000"
     stroke-width="3.00"
     stroke-linecap="round"
     stroke-linejoin="bevel"
     points="1980.07,66.2831 1980.07,187.923"
     id="polyline2005" />
  <polyline
     class=""
     fill="none"
     stroke="#000000"
     stroke-width="3.00"
     stroke-linecap="round"
     stroke-linejoin="bevel"
     points="1875.12,53.7831 1875.12,187.923"
     id="polyline2007" />
  <polyline
     class=""
     fill="none"
     stroke="#000000"
     stroke-width="3.00"
     stroke-linecap="round"
     stroke-linejoin="bevel"
     points="1718.73,103.783 1718.73,186.984"
     id="polyline2009" />
  <polyline
     class=""
     fill="none"
     stroke="#000000"
     stroke-width="3.00"
     stroke-linecap="round"
     stroke-linejoin="bevel"
     points="1771.88,78.7831 1771.88,181.673"
     id="polyline2011" />
  <polyline
     class=""
     fill="none"
     stroke="#000000"
     stroke-width="3.00"
     stroke-linecap="round"
     stroke-linejoin="bevel"
     points="1646.78,128.783 1646.78,194.173"
     id="polyline2013" />
  <polyline
     class=""
     fill="none"
     stroke="#000000"
     stroke-width="3.00"
     stroke-linecap="round"
     stroke-linejoin="bevel"
     points="992.982,191.283 992.982,266.048"
     id="polyline2015" />
  <polyline
     class=""
     fill="none"
     stroke="#000000"
     stroke-width="3.00"
     stroke-linecap="round"
     stroke-linejoin="bevel"
     points="1374.55,116.283 1374.55,200.423"
     id="polyline2017" />
  <polyline
     class=""
     fill="none"
     stroke="#000000"
     stroke-width="3.00"
     stroke-linecap="round"
     stroke-linejoin="bevel"
     points="1224.15,172.063 1224.15,94.1731"
     id="polyline2019" />
  <polyline
     class=""
     fill="none"
     stroke="#000000"
     stroke-width="3.00"
     stroke-linecap="round"
     stroke-linejoin="bevel"
     points="1245.03,128.783 1245.03,212.923"
     id="polyline2021" />
  <polyline
     class=""
     fill="none"
     stroke="#000000"
     stroke-width="3.00"
     stroke-linecap="round"
     stroke-linejoin="bevel"
     points="1173.37,197.063 1173.37,106.673"
     id="polyline2023" />
  <polyline
     class=""
     fill="none"
     stroke="#000000"
     stroke-width="3.00"
     stroke-linecap="round"
     stroke-linejoin="bevel"
     points="1122.6,209.563 1122.6,119.173"
     id="polyline2025" />
  <polyline
     class=""
     fill="none"
     stroke="#000000"
     stroke-width="3.00"
     stroke-linecap="round"
     stroke-linejoin="bevel"
     points="952.162,197.063 952.162,119.173"
     id="polyline2027" />
  <polyline
     class=""
     fill="none"
     stroke="#000000"
     stroke-width="3.00"
     stroke-linecap="round"
     stroke-linejoin="bevel"
     points="809.115,153.783 809.115,237.923"
     id="polyline2029" />
  <polyline
     class=""
     fill="none"
     stroke="#000000"
     stroke-width="3.00"
     stroke-linecap="round"
     stroke-linejoin="bevel"
     points="684.112,153.783 684.112,237.923"
     id="polyline2031" />
  <polyline
     class=""
     fill="none"
     stroke="#000000"
     stroke-width="3.00"
     stroke-linecap="round"
     stroke-linejoin="bevel"
     points="490.069,234.563 490.069,153.548"
     id="polyline2033" />
  <polyline
     class=""
     fill="none"
     stroke="#000000"
     stroke-width="3.00"
     stroke-linecap="round"
     stroke-linejoin="bevel"
     points="539.276,209.563 539.276,137.923"
     id="polyline2035" />
  <polyline
     class=""
     fill="none"
     stroke="#000000"
     stroke-width="3.00"
     stroke-linecap="round"
     stroke-linejoin="bevel"
     points="558.585,166.283 558.585,247.298"
     id="polyline2037" />
  <polyline
     class=""
     fill="none"
     stroke="#000000"
     stroke-width="3.00"
     stroke-linecap="round"
     stroke-linejoin="bevel"
     points="440.861,247.063 440.861,169.173"
     id="polyline2039" />
  <path
     class=""
     d="M2554.33,76.9231 C2564.23,76.9231 2576.43,67.7231 2576.43,58.2231 C2576.43,52.6231 2571.93,48.9231 2565.53,48.9231 C2553.33,48.9231 2543.53,58.0231 2543.53,67.6231 C2543.53,73.4231 2548.33,76.9231 2554.33,76.9231"
     id="path2041" />
  <path
     class=""
     d="M2660.93,24.2231 C2646.43,24.2231 2637.43,30.3231 2637.43,37.7231 C2637.43,45.0231 2643.63,51.5231 2659.83,51.5231 C2677.63,51.5231 2683.33,45.3231 2683.33,37.7231 C2683.33,30.0231 2671.03,24.2231 2660.93,24.2231 M2658.13,26.7231 C2665.53,26.7231 2671.53,34.7231 2671.53,41.3231 C2671.53,46.7231 2668.13,49.0231 2663.23,49.0231 C2656.03,49.0231 2649.13,40.7231 2649.13,33.7231 C2649.13,28.1231 2653.03,26.7231 2658.13,26.7231"
     id="path2043" />
  <path
     class=""
     d="M2464.84,64.4231 C2483.24,64.4231 2486.94,49.4231 2486.94,45.8231 C2486.94,40.1231 2482.44,36.4231 2475.94,36.4231 C2459.24,36.4231 2454.04,49.3231 2454.04,55.1231 C2454.04,61.0231 2458.74,64.4231 2464.84,64.4231 M2473.34,55.5231 C2468.34,58.9231 2464.84,60.1231 2462.44,60.1231 C2460.14,60.1231 2458.74,58.9231 2458.04,57.5231 C2457.64,56.9231 2457.34,56.1231 2457.34,55.3231 C2457.34,49.9231 2473.44,41.0231 2478.74,41.0231 C2480.84,41.0231 2482.04,42.0231 2482.84,43.4231 C2483.14,44.0231 2483.44,44.7231 2483.44,45.5231 C2483.44,47.7231 2481.14,50.4231 2473.34,55.5231"
     id="path2045" />
  <path
     class=""
     d="M2408.9,64.4231 C2418.8,64.4231 2431,55.2231 2431,45.7231 C2431,40.1231 2426.5,36.4231 2420.1,36.4231 C2407.9,36.4231 2398.1,45.5231 2398.1,55.1231 C2398.1,60.9231 2402.9,64.4231 2408.9,64.4231"
     id="path2047" />
  <path
     class=""
     d="M2270.07,114.423 C2279.97,114.423 2292.17,105.223 2292.17,95.7231 C2292.17,90.1231 2287.67,86.4231 2281.27,86.4231 C2269.07,86.4231 2259.27,95.5231 2259.27,105.123 C2259.27,110.923 2264.07,114.423 2270.07,114.423"
     id="path2049" />
  <path
     class=""
     d="M2168.88,89.4231 C2187.28,89.4231 2190.98,74.4231 2190.98,70.8231 C2190.98,65.1231 2186.48,61.4231 2179.98,61.4231 C2163.28,61.4231 2158.08,74.3231 2158.08,80.1231 C2158.08,86.0231 2162.78,89.4231 2168.88,89.4231 M2177.38,80.5231 C2172.38,83.9231 2168.88,85.1231 2166.48,85.1231 C2164.18,85.1231 2162.78,83.9231 2162.08,82.5231 C2161.68,81.9231 2161.38,81.1231 2161.38,80.3231 C2161.38,74.9231 2177.48,66.0231 2182.78,66.0231 C2184.88,66.0231 2186.08,67.0231 2186.88,68.4231 C2187.18,69.0231 2187.48,69.7231 2187.48,70.5231 C2187.48,72.7231 2185.18,75.4231 2177.38,80.5231"
     id="path2051" />
  <path
     class=""
     d="M2105.63,76.9231 C2115.53,76.9231 2127.73,67.7231 2127.73,58.2231 C2127.73,52.6231 2123.23,48.9231 2116.83,48.9231 C2104.63,48.9231 2094.83,58.0231 2094.83,67.6231 C2094.83,73.4231 2099.63,76.9231 2105.63,76.9231"
     id="path2053" />
  <path
     class=""
     d="M1989.37,76.9231 C1999.27,76.9231 2011.47,67.7231 2011.47,58.2231 C2011.47,52.6231 2006.97,48.9231 2000.57,48.9231 C1988.37,48.9231 1978.57,58.0231 1978.57,67.6231 C1978.57,73.4231 1983.37,76.9231 1989.37,76.9231"
     id="path2055" />
  <path
     class=""
     d="M1884.42,64.4231 C1902.82,64.4231 1906.52,49.4231 1906.52,45.8231 C1906.52,40.1231 1902.02,36.4231 1895.52,36.4231 C1878.82,36.4231 1873.62,49.3231 1873.62,55.1231 C1873.62,61.0231 1878.32,64.4231 1884.42,64.4231 M1892.92,55.5231 C1887.92,58.9231 1884.42,60.1231 1882.02,60.1231 C1879.72,60.1231 1878.32,58.9231 1877.62,57.5231 C1877.22,56.9231 1876.92,56.1231 1876.92,55.3231 C1876.92,49.9231 1893.02,41.0231 1898.32,41.0231 C1900.42,41.0231 1901.62,42.0231 1902.42,43.4231 C1902.72,44.0231 1903.02,44.7231 1903.02,45.5231 C1903.02,47.7231 1900.72,50.4231 1892.92,55.5231"
     id="path2057" />
  <path
     class=""
     d="M1728.03,114.423 C1737.93,114.423 1750.13,105.223 1750.13,95.7231 C1750.13,90.1231 1745.63,86.4231 1739.23,86.4231 C1727.03,86.4231 1717.23,95.5231 1717.23,105.123 C1717.23,110.923 1722.03,114.423 1728.03,114.423"
     id="path2059" />
  <path
     class=""
     d="M1781.18,89.4231 C1791.08,89.4231 1803.28,80.2231 1803.28,70.7231 C1803.28,65.1231 1798.78,61.4231 1792.38,61.4231 C1780.18,61.4231 1770.38,70.5231 1770.38,80.1231 C1770.38,85.9231 1775.18,89.4231 1781.18,89.4231"
     id="path2061" />
  <path
     class=""
     d="M1656.08,139.423 C1665.98,139.423 1678.18,130.223 1678.18,120.723 C1678.18,115.123 1673.68,111.423 1667.28,111.423 C1655.08,111.423 1645.28,120.523 1645.28,130.123 C1645.28,135.923 1650.08,139.423 1656.08,139.423"
     id="path2063" />
  <path
     class=""
     d="M1531.11,149.223 C1516.61,149.223 1507.61,155.323 1507.61,162.723 C1507.61,170.023 1513.81,176.523 1530.01,176.523 C1547.81,176.523 1553.51,170.323 1553.51,162.723 C1553.51,155.023 1541.21,149.223 1531.11,149.223 M1528.31,151.723 C1535.71,151.723 1541.71,159.723 1541.71,166.323 C1541.71,171.723 1538.31,174.023 1533.41,174.023 C1526.21,174.023 1519.31,165.723 1519.31,158.723 C1519.31,153.123 1523.21,151.723 1528.31,151.723"
     id="path2065" />
  <path
     class=""
     d="M1152.78,214.423 C1162.68,214.423 1174.88,205.223 1174.88,195.723 C1174.88,190.123 1170.38,186.423 1163.98,186.423 C1151.78,186.423 1141.98,195.523 1141.98,205.123 C1141.98,210.923 1146.78,214.423 1152.78,214.423"
     id="path2067" />
  <path
     class=""
     d="M1102,226.923 C1111.9,226.923 1124.1,217.723 1124.1,208.223 C1124.1,202.623 1119.6,198.923 1113.2,198.923 C1101,198.923 1091.2,208.023 1091.2,217.623 C1091.2,223.423 1096,226.923 1102,226.923"
     id="path2069" />
  <path
     class=""
     d="M1002.28,201.923 C1012.18,201.923 1024.38,192.723 1024.38,183.223 C1024.38,177.623 1019.88,173.923 1013.48,173.923 C1001.28,173.923 991.482,183.023 991.482,192.623 C991.482,198.423 996.282,201.923 1002.28,201.923"
     id="path2071" />
  <path
     class=""
     d="M931.564,214.423 C941.464,214.423 953.664,205.223 953.664,195.723 C953.664,190.123 949.164,186.423 942.764,186.423 C930.564,186.423 920.764,195.523 920.764,205.123 C920.764,210.923 925.564,214.423 931.564,214.423"
     id="path2073" />
  <path
     class=""
     d="M1383.85,126.923 C1393.75,126.923 1405.95,117.723 1405.95,108.223 C1405.95,102.623 1401.45,98.9231 1395.05,98.9231 C1382.85,98.9231 1373.05,108.023 1373.05,117.623 C1373.05,123.423 1377.85,126.923 1383.85,126.923"
     id="path2075" />
  <path
     class=""
     d="M1254.33,139.423 C1272.73,139.423 1276.43,124.423 1276.43,120.823 C1276.43,115.123 1271.93,111.423 1265.43,111.423 C1248.73,111.423 1243.53,124.323 1243.53,130.123 C1243.53,136.023 1248.23,139.423 1254.33,139.423 M1262.83,130.523 C1257.83,133.923 1254.33,135.123 1251.93,135.123 C1249.63,135.123 1248.23,133.923 1247.53,132.523 C1247.13,131.923 1246.83,131.123 1246.83,130.323 C1246.83,124.923 1262.93,116.023 1268.23,116.023 C1270.33,116.023 1271.53,117.023 1272.33,118.423 C1272.63,119.023 1272.93,119.723 1272.93,120.523 C1272.93,122.723 1270.63,125.423 1262.83,130.523"
     id="path2077" />
  <path
     class=""
     d="M1203.55,189.423 C1213.45,189.423 1225.65,180.223 1225.65,170.723 C1225.65,165.123 1221.15,161.423 1214.75,161.423 C1202.55,161.423 1192.75,170.523 1192.75,180.123 C1192.75,185.923 1197.55,189.423 1203.55,189.423"
     id="path2079" />
  <path
     class=""
     d="M818.415,164.423 C836.815,164.423 840.515,149.423 840.515,145.823 C840.515,140.123 836.015,136.423 829.515,136.423 C812.815,136.423 807.615,149.323 807.615,155.123 C807.615,161.023 812.315,164.423 818.415,164.423 M826.915,155.523 C821.915,158.923 818.415,160.123 816.015,160.123 C813.715,160.123 812.315,158.923 811.615,157.523 C811.215,156.923 810.915,156.123 810.915,155.323 C810.915,149.923 827.015,141.023 832.315,141.023 C834.415,141.023 835.615,142.023 836.415,143.423 C836.715,144.023 837.015,144.723 837.015,145.523 C837.015,147.723 834.715,150.423 826.915,155.523"
     id="path2081" />
  <path
     class=""
     d="M693.412,164.423 C703.312,164.423 715.512,155.223 715.512,145.723 C715.512,140.123 711.012,136.423 704.612,136.423 C692.412,136.423 682.612,145.523 682.612,155.123 C682.612,160.923 687.412,164.423 693.412,164.423"
     id="path2083" />
  <path
     class=""
     d="M518.678,226.923 C528.578,226.923 540.778,217.723 540.778,208.223 C540.778,202.623 536.278,198.923 529.878,198.923 C517.678,198.923 507.878,208.023 507.878,217.623 C507.878,223.423 512.678,226.923 518.678,226.923"
     id="path2085" />
  <path
     class=""
     d="M420.263,264.423 C430.163,264.423 442.363,255.223 442.363,245.723 C442.363,240.123 437.863,236.423 431.463,236.423 C419.263,236.423 409.463,245.523 409.463,255.123 C409.463,260.923 414.263,264.423 420.263,264.423"
     id="path2087" />
  <path
     class=""
     d="M469.47,251.923 C479.37,251.923 491.57,242.723 491.57,233.223 C491.57,227.623 487.07,223.923 480.67,223.923 C468.47,223.923 458.67,233.023 458.67,242.623 C458.67,248.423 463.47,251.923 469.47,251.923"
     id="path2089" />
  <path
     class=""
     d="M567.885,176.923 C586.285,176.923 589.985,161.923 589.985,158.323 C589.985,152.623 585.485,148.923 578.985,148.923 C562.285,148.923 557.085,161.823 557.085,167.623 C557.085,173.523 561.785,176.923 567.885,176.923 M576.385,168.023 C571.385,171.423 567.885,172.623 565.485,172.623 C563.185,172.623 561.785,171.423 561.085,170.023 C560.685,169.423 560.385,168.623 560.385,167.823 C560.385,162.423 576.485,153.523 581.785,153.523 C583.885,153.523 585.085,154.523 585.885,155.923 C586.185,156.523 586.485,157.223 586.485,158.023 C586.485,160.223 584.185,162.923 576.385,168.023"
     id="path2091" />
  <path
     class=""
     d="M121.561,118.623 C124.861,118.623 127.561,121.323 127.561,126.823 C127.561,137.923 118.061,146.923 110.161,153.823 C109.861,154.023 109.661,154.223 109.461,154.223 C109.161,154.223 108.961,153.823 108.861,153.023 C108.461,150.423 108.261,147.023 108.261,143.823 C108.261,128.223 115.461,118.623 121.561,118.623 M117.561,202.623 C117.361,201.523 117.461,201.223 118.261,201.223 C118.361,201.223 118.561,201.223 118.661,201.223 C126.761,201.923 133.461,208.723 133.461,217.523 C133.461,223.823 129.661,228.923 124.061,231.723 C123.561,231.923 123.261,232.123 123.061,232.123 C122.661,232.123 122.561,231.823 122.461,231.123 L117.561,202.623 M110.661,186.723 C110.961,188.623 110.961,188.523 109.161,189.123 C100.361,192.123 94.6615,200.023 94.6615,208.523 C94.6615,217.523 99.3615,223.923 106.161,226.223 C106.961,226.523 108.161,226.823 108.861,226.823 C109.661,226.823 110.061,226.323 110.061,225.723 C110.061,225.023 109.261,224.723 108.561,224.423 C104.361,222.623 101.361,218.323 101.361,213.723 C101.361,208.023 105.261,203.723 111.361,202.023 C111.861,201.923 112.261,201.823 112.561,201.823 C113.061,201.823 113.261,202.123 113.361,202.823 L118.361,232.623 C118.561,233.723 118.461,233.723 116.961,234.023 C115.361,234.323 113.361,234.523 111.361,234.523 C93.8615,234.523 82.5615,224.823 82.5615,210.923 C82.5615,193.923 95.0615,183.323 107.161,173.523 C107.561,173.223 107.861,173.023 108.061,173.023 C108.361,173.023 108.461,173.323 108.561,173.923 L110.661,186.723 M112.161,171.423 C111.961,170.223 112.161,170.123 112.761,169.523 C123.561,159.423 131.761,146.723 131.761,131.423 C131.761,122.723 129.361,114.123 125.261,108.123 C123.761,105.923 121.161,103.123 120.061,103.123 C118.661,103.123 115.561,105.723 113.561,107.923 C106.161,116.123 103.761,128.623 103.761,139.023 C103.761,144.823 104.461,151.323 105.161,155.423 C105.361,156.623 105.461,156.823 104.261,157.823 C89.8615,169.723 74.5615,184.023 74.5615,204.223 C74.5615,221.623 86.4615,238.123 110.961,238.123 C113.261,238.123 115.861,237.923 117.861,237.523 C118.261,237.423 118.461,237.423 118.661,237.423 C119.061,237.423 119.261,237.623 119.361,238.423 C120.561,245.123 122.061,253.823 122.061,258.523 C122.061,273.323 112.061,275.123 106.161,275.123 C100.761,275.123 98.1615,273.523 98.1615,272.223 C98.1615,271.523 99.0615,271.223 101.361,270.523 C104.461,269.623 108.061,266.923 108.061,261.123 C108.061,255.623 104.561,250.923 98.4615,250.923 C91.7615,250.923 87.7615,256.223 87.7615,262.423 C87.7615,268.923 91.6615,278.723 106.761,278.723 C113.461,278.723 126.461,275.723 126.461,258.723 C126.461,253.023 124.661,243.523 123.561,237.323 C123.361,236.123 123.461,236.223 124.861,235.623 C134.961,231.623 141.661,223.123 141.661,211.823 C141.661,199.023 132.261,187.723 117.561,187.723 C114.961,187.723 114.961,187.723 114.661,185.923 L112.161,171.423 "
     id="path2093" />
  <path
     class=""
     d="M166.655,129.623 C166.655,131.423 166.855,133.223 167.155,133.523 C167.855,134.123 169.655,134.523 171.355,134.523 C171.755,134.523 172.055,134.423 172.355,134.423 C173.455,135.023 177.055,137.023 177.055,137.723 C177.055,139.023 173.855,140.623 172.455,141.123 L171.455,141.123 C169.655,141.123 167.755,141.323 167.155,141.823 C166.855,142.123 166.655,143.823 166.655,145.623 C166.655,147.423 166.855,149.223 167.155,149.423 C167.855,150.023 169.455,150.423 171.155,150.423 C172.655,150.423 174.255,150.123 174.855,149.423 C175.455,148.923 175.655,147.223 175.655,145.623 C175.655,145.523 175.755,145.323 175.855,145.223 C176.355,144.023 177.355,141.623 178.555,141.123 C178.655,141.023 178.855,141.023 178.955,141.023 C179.055,141.023 179.255,141.023 179.355,141.123 C180.555,141.723 181.955,144.323 182.355,145.623 C182.355,147.423 182.455,149.123 182.855,149.423 C183.555,150.023 185.155,150.423 186.855,150.423 C190.655,150.423 191.355,149.423 191.355,145.823 C191.355,144.123 191.055,142.323 190.655,141.823 C190.155,141.323 188.355,141.123 186.655,141.123 L185.655,141.123 C184.555,140.523 180.955,138.523 180.955,137.823 C180.955,136.423 184.255,134.923 185.655,134.423 C186.055,134.423 186.455,134.523 186.855,134.523 C188.455,134.523 189.955,134.123 190.655,133.523 C191.155,133.023 191.355,131.523 191.355,129.923 C191.355,125.823 191.055,125.223 186.955,125.223 C185.155,125.223 183.355,125.423 182.855,125.923 C182.455,126.223 182.355,128.023 182.355,129.823 C181.855,130.923 180.255,134.523 179.055,134.523 C177.655,134.523 176.055,131.223 175.655,129.823 C175.655,128.123 175.355,126.323 174.855,125.923 C174.455,125.423 172.855,125.223 171.255,125.223 C169.555,125.223 167.755,125.423 167.155,125.923 C166.855,126.123 166.655,127.823 166.655,129.623"
     id="path2095" />
  <path
     class=""
     d="M195.987,196.323 C196.087,196.323 196.287,196.223 196.387,196.223 C196.387,196.223 197.787,195.623 198.687,195.323 C198.787,195.223 198.887,195.223 198.987,195.223 C199.687,195.223 200.187,196.323 200.187,196.823 L200.187,209.123 C200.187,209.723 200.787,210.223 201.487,210.223 C202.487,210.223 203.187,209.723 203.187,209.123 L203.187,195.223 C203.187,193.923 203.687,193.223 204.187,193.023 L210.287,190.523 C210.387,190.523 210.587,190.423 210.687,190.423 C211.487,190.423 211.987,191.623 211.987,192.223 L211.987,204.723 C211.987,205.323 212.587,205.823 213.287,205.823 C214.387,205.823 214.987,205.323 214.987,204.723 L214.987,190.523 C214.987,189.723 215.387,188.523 216.087,188.223 C216.787,187.923 218.887,187.123 218.887,187.123 C219.587,186.823 220.087,186.023 220.087,185.423 L220.087,178.323 C220.087,177.823 219.787,177.523 219.387,177.523 C219.187,177.523 219.087,177.523 218.887,177.623 L216.287,178.623 C215.687,178.623 214.987,178.023 214.987,176.823 L214.987,167.523 C214.987,166.823 215.487,164.923 216.287,164.623 L218.887,163.623 C219.587,163.323 220.087,162.523 220.087,161.923 L220.087,154.823 C220.087,154.323 219.787,154.023 219.387,154.023 C219.187,154.023 219.087,154.023 218.887,154.123 C218.887,154.123 216.887,154.923 216.387,155.023 C215.687,155.023 214.987,154.523 214.987,153.723 L214.987,141.523 C214.987,140.923 214.387,140.423 213.587,140.423 C212.587,140.423 211.987,140.923 211.987,141.523 L211.987,154.523 C211.887,155.523 211.587,156.823 210.687,157.423 C209.487,158.123 206.087,159.523 204.387,159.923 C203.487,159.923 203.187,158.723 203.187,157.923 L203.187,145.923 C203.187,145.323 202.487,144.823 201.787,144.823 C200.787,144.823 200.187,145.323 200.187,145.923 L200.187,159.423 C200.187,160.823 199.587,161.823 198.987,162.123 C198.387,162.423 196.387,163.223 196.387,163.223 C195.687,163.423 195.187,164.223 195.187,164.823 L195.187,171.923 C195.187,172.523 195.487,172.823 195.987,172.823 C196.387,172.823 198.287,171.923 198.587,171.723 C199.587,171.723 200.187,172.223 200.187,173.423 L200.187,183.323 C200.187,184.423 199.687,185.323 199.087,185.623 C198.487,185.823 196.387,186.723 196.387,186.723 C195.687,186.923 195.187,187.723 195.187,188.323 L195.187,195.423 C195.187,196.023 195.487,196.323 195.987,196.323 M203.187,171.023 C203.387,169.323 207.987,167.223 210.487,167.223 C211.187,167.223 211.787,167.423 211.987,167.823 C212.187,168.323 212.387,170.823 212.387,173.523 C212.387,176.223 212.187,179.023 211.987,179.923 C211.387,181.923 206.687,183.923 204.387,183.923 C203.787,183.923 203.287,183.723 203.187,183.423 C202.987,183.023 202.887,180.823 202.887,178.423 C202.887,175.323 202.987,171.823 203.187,171.023"
     id="path2097" />
  <path
     class=""
     d="M221.362,146.323 C221.462,146.323 221.662,146.223 221.762,146.223 C221.762,146.223 223.162,145.623 224.062,145.323 C224.162,145.223 224.262,145.223 224.362,145.223 C225.062,145.223 225.562,146.323 225.562,146.823 L225.562,159.123 C225.562,159.723 226.162,160.223 226.862,160.223 C227.862,160.223 228.562,159.723 228.562,159.123 L228.562,145.223 C228.562,143.923 229.062,143.223 229.562,143.023 L235.662,140.523 C235.762,140.523 235.962,140.423 236.062,140.423 C236.862,140.423 237.362,141.623 237.362,142.223 L237.362,154.723 C237.362,155.323 237.962,155.823 238.662,155.823 C239.762,155.823 240.362,155.323 240.362,154.723 L240.362,140.523 C240.362,139.723 240.762,138.523 241.462,138.223 C242.162,137.923 244.262,137.123 244.262,137.123 C244.962,136.823 245.462,136.023 245.462,135.423 L245.462,128.323 C245.462,127.823 245.162,127.523 244.762,127.523 C244.562,127.523 244.462,127.523 244.262,127.623 L241.662,128.623 C241.062,128.623 240.362,128.023 240.362,126.823 L240.362,117.523 C240.362,116.823 240.862,114.923 241.662,114.623 L244.262,113.623 C244.962,113.323 245.462,112.523 245.462,111.923 L245.462,104.823 C245.462,104.323 245.162,104.023 244.762,104.023 C244.562,104.023 244.462,104.023 244.262,104.123 C244.262,104.123 242.262,104.923 241.762,105.023 C241.062,105.023 240.362,104.523 240.362,103.723 L240.362,91.5231 C240.362,90.9231 239.762,90.4231 238.962,90.4231 C237.962,90.4231 237.362,90.9231 237.362,91.5231 L237.362,104.523 C237.262,105.523 236.962,106.823 236.062,107.423 C234.862,108.123 231.462,109.523 229.762,109.923 C228.862,109.923 228.562,108.723 228.562,107.923 L228.562,95.9231 C228.562,95.3231 227.862,94.8231 227.162,94.8231 C226.162,94.8231 225.562,95.3231 225.562,95.9231 L225.562,109.423 C225.562,110.823 224.962,111.823 224.362,112.123 C223.762,112.423 221.762,113.223 221.762,113.223 C221.062,113.423 220.562,114.223 220.562,114.823 L220.562,121.923 C220.562,122.523 220.862,122.823 221.362,122.823 C221.762,122.823 223.662,121.923 223.962,121.723 C224.962,121.723 225.562,122.223 225.562,123.423 L225.562,133.323 C225.562,134.423 225.062,135.323 224.462,135.623 C223.862,135.823 221.762,136.723 221.762,136.723 C221.062,136.923 220.562,137.723 220.562,138.323 L220.562,145.423 C220.562,146.023 220.862,146.323 221.362,146.323 M228.562,121.023 C228.762,119.323 233.362,117.223 235.862,117.223 C236.562,117.223 237.162,117.423 237.362,117.823 C237.562,118.323 237.762,120.823 237.762,123.523 C237.762,126.223 237.562,129.023 237.362,129.923 C236.762,131.923 232.062,133.923 229.762,133.923 C229.162,133.923 228.662,133.723 228.562,133.423 C228.362,133.023 228.262,130.823 228.262,128.423 C228.262,125.323 228.362,121.823 228.562,121.023"
     id="path2099" />
  <path
     class=""
     d="M246.737,183.823 C246.837,183.823 247.037,183.723 247.137,183.723 C247.137,183.723 248.537,183.123 249.437,182.823 C249.537,182.723 249.637,182.723 249.737,182.723 C250.437,182.723 250.937,183.823 250.937,184.323 L250.937,196.623 C250.937,197.223 251.537,197.723 252.237,197.723 C253.237,197.723 253.937,197.223 253.937,196.623 L253.937,182.723 C253.937,181.423 254.437,180.723 254.937,180.523 L261.037,178.023 C261.137,178.023 261.337,177.923 261.437,177.923 C262.237,177.923 262.737,179.123 262.737,179.723 L262.737,192.223 C262.737,192.823 263.337,193.323 264.037,193.323 C265.137,193.323 265.737,192.823 265.737,192.223 L265.737,178.023 C265.737,177.223 266.137,176.023 266.837,175.723 C267.537,175.423 269.637,174.623 269.637,174.623 C270.337,174.323 270.837,173.523 270.837,172.923 L270.837,165.823 C270.837,165.323 270.537,165.023 270.137,165.023 C269.937,165.023 269.837,165.023 269.637,165.123 L267.037,166.123 C266.437,166.123 265.737,165.523 265.737,164.323 L265.737,155.023 C265.737,154.323 266.237,152.423 267.037,152.123 L269.637,151.123 C270.337,150.823 270.837,150.023 270.837,149.423 L270.837,142.323 C270.837,141.823 270.537,141.523 270.137,141.523 C269.937,141.523 269.837,141.523 269.637,141.623 C269.637,141.623 267.637,142.423 267.137,142.523 C266.437,142.523 265.737,142.023 265.737,141.223 L265.737,129.023 C265.737,128.423 265.137,127.923 264.337,127.923 C263.337,127.923 262.737,128.423 262.737,129.023 L262.737,142.023 C262.637,143.023 262.337,144.323 261.437,144.923 C260.237,145.623 256.837,147.023 255.137,147.423 C254.237,147.423 253.937,146.223 253.937,145.423 L253.937,133.423 C253.937,132.823 253.237,132.323 252.537,132.323 C251.537,132.323 250.937,132.823 250.937,133.423 L250.937,146.923 C250.937,148.323 250.337,149.323 249.737,149.623 C249.137,149.923 247.137,150.723 247.137,150.723 C246.437,150.923 245.937,151.723 245.937,152.323 L245.937,159.423 C245.937,160.023 246.237,160.323 246.737,160.323 C247.137,160.323 249.037,159.423 249.337,159.223 C250.337,159.223 250.937,159.723 250.937,160.923 L250.937,170.823 C250.937,171.923 250.437,172.823 249.837,173.123 C249.237,173.323 247.137,174.223 247.137,174.223 C246.437,174.423 245.937,175.223 245.937,175.823 L245.937,182.923 C245.937,183.523 246.237,183.823 246.737,183.823 M253.937,158.523 C254.137,156.823 258.737,154.723 261.237,154.723 C261.937,154.723 262.537,154.923 262.737,155.323 C262.937,155.823 263.137,158.323 263.137,161.023 C263.137,163.723 262.937,166.523 262.737,167.423 C262.137,169.423 257.437,171.423 255.137,171.423 C254.537,171.423 254.037,171.223 253.937,170.923 C253.737,170.523 253.637,168.323 253.637,165.923 C253.637,162.823 253.737,159.323 253.937,158.523"
     id="path2101" />
  <path
     class=""
     d="M272.112,221.323 C272.212,221.323 272.412,221.223 272.512,221.223 C272.512,221.223 273.912,220.623 274.812,220.323 C274.912,220.223 275.012,220.223 275.112,220.223 C275.812,220.223 276.312,221.323 276.312,221.823 L276.312,234.123 C276.312,234.723 276.912,235.223 277.612,235.223 C278.612,235.223 279.312,234.723 279.312,234.123 L279.312,220.223 C279.312,218.923 279.812,218.223 280.312,218.023 L286.412,215.523 C286.512,215.523 286.712,215.423 286.812,215.423 C287.612,215.423 288.112,216.623 288.112,217.223 L288.112,229.723 C288.112,230.323 288.712,230.823 289.412,230.823 C290.512,230.823 291.112,230.323 291.112,229.723 L291.112,215.523 C291.112,214.723 291.512,213.523 292.212,213.223 C292.912,212.923 295.012,212.123 295.012,212.123 C295.712,211.823 296.212,211.023 296.212,210.423 L296.212,203.323 C296.212,202.823 295.912,202.523 295.512,202.523 C295.312,202.523 295.212,202.523 295.012,202.623 L292.412,203.623 C291.812,203.623 291.112,203.023 291.112,201.823 L291.112,192.523 C291.112,191.823 291.612,189.923 292.412,189.623 L295.012,188.623 C295.712,188.323 296.212,187.523 296.212,186.923 L296.212,179.823 C296.212,179.323 295.912,179.023 295.512,179.023 C295.312,179.023 295.212,179.023 295.012,179.123 C295.012,179.123 293.012,179.923 292.512,180.023 C291.812,180.023 291.112,179.523 291.112,178.723 L291.112,166.523 C291.112,165.923 290.512,165.423 289.712,165.423 C288.712,165.423 288.112,165.923 288.112,166.523 L288.112,179.523 C288.012,180.523 287.712,181.823 286.812,182.423 C285.612,183.123 282.212,184.523 280.512,184.923 C279.612,184.923 279.312,183.723 279.312,182.923 L279.312,170.923 C279.312,170.323 278.612,169.823 277.912,169.823 C276.912,169.823 276.312,170.323 276.312,170.923 L276.312,184.423 C276.312,185.823 275.712,186.823 275.112,187.123 C274.512,187.423 272.512,188.223 272.512,188.223 C271.812,188.423 271.312,189.223 271.312,189.823 L271.312,196.923 C271.312,197.523 271.612,197.823 272.112,197.823 C272.512,197.823 274.412,196.923 274.712,196.723 C275.712,196.723 276.312,197.223 276.312,198.423 L276.312,208.323 C276.312,209.423 275.812,210.323 275.212,210.623 C274.612,210.823 272.512,211.723 272.512,211.723 C271.812,211.923 271.312,212.723 271.312,213.323 L271.312,220.423 C271.312,221.023 271.612,221.323 272.112,221.323 M279.312,196.023 C279.512,194.323 284.112,192.223 286.612,192.223 C287.312,192.223 287.912,192.423 288.112,192.823 C288.312,193.323 288.512,195.823 288.512,198.523 C288.512,201.223 288.312,204.023 288.112,204.923 C287.512,206.923 282.812,208.923 280.512,208.923 C279.912,208.923 279.412,208.723 279.312,208.423 C279.112,208.023 279.012,205.823 279.012,203.423 C279.012,200.323 279.112,196.823 279.312,196.023"
     id="path2103" />
  <path
     class=""
     d="M297.487,171.323 C297.587,171.323 297.787,171.223 297.887,171.223 C297.887,171.223 299.287,170.623 300.187,170.323 C300.287,170.223 300.387,170.223 300.487,170.223 C301.187,170.223 301.687,171.323 301.687,171.823 L301.687,184.123 C301.687,184.723 302.287,185.223 302.987,185.223 C303.987,185.223 304.687,184.723 304.687,184.123 L304.687,170.223 C304.687,168.923 305.187,168.223 305.687,168.023 L311.787,165.523 C311.887,165.523 312.087,165.423 312.187,165.423 C312.987,165.423 313.487,166.623 313.487,167.223 L313.487,179.723 C313.487,180.323 314.087,180.823 314.787,180.823 C315.887,180.823 316.487,180.323 316.487,179.723 L316.487,165.523 C316.487,164.723 316.887,163.523 317.587,163.223 C318.287,162.923 320.387,162.123 320.387,162.123 C321.087,161.823 321.587,161.023 321.587,160.423 L321.587,153.323 C321.587,152.823 321.287,152.523 320.887,152.523 C320.687,152.523 320.587,152.523 320.387,152.623 L317.787,153.623 C317.187,153.623 316.487,153.023 316.487,151.823 L316.487,142.523 C316.487,141.823 316.987,139.923 317.787,139.623 L320.387,138.623 C321.087,138.323 321.587,137.523 321.587,136.923 L321.587,129.823 C321.587,129.323 321.287,129.023 320.887,129.023 C320.687,129.023 320.587,129.023 320.387,129.123 C320.387,129.123 318.387,129.923 317.887,130.023 C317.187,130.023 316.487,129.523 316.487,128.723 L316.487,116.523 C316.487,115.923 315.887,115.423 315.087,115.423 C314.087,115.423 313.487,115.923 313.487,116.523 L313.487,129.523 C313.387,130.523 313.087,131.823 312.187,132.423 C310.987,133.123 307.587,134.523 305.887,134.923 C304.987,134.923 304.687,133.723 304.687,132.923 L304.687,120.923 C304.687,120.323 303.987,119.823 303.287,119.823 C302.287,119.823 301.687,120.323 301.687,120.923 L301.687,134.423 C301.687,135.823 301.087,136.823 300.487,137.123 C299.887,137.423 297.887,138.223 297.887,138.223 C297.187,138.423 296.687,139.223 296.687,139.823 L296.687,146.923 C296.687,147.523 296.987,147.823 297.487,147.823 C297.887,147.823 299.787,146.923 300.087,146.723 C301.087,146.723 301.687,147.223 301.687,148.423 L301.687,158.323 C301.687,159.423 301.187,160.323 300.587,160.623 C299.987,160.823 297.887,161.723 297.887,161.723 C297.187,161.923 296.687,162.723 296.687,163.323 L296.687,170.423 C296.687,171.023 296.987,171.323 297.487,171.323 M304.687,146.023 C304.887,144.323 309.487,142.223 311.987,142.223 C312.687,142.223 313.287,142.423 313.487,142.823 C313.687,143.323 313.887,145.823 313.887,148.523 C313.887,151.223 313.687,154.023 313.487,154.923 C312.887,156.923 308.187,158.923 305.887,158.923 C305.287,158.923 304.787,158.723 304.687,158.423 C304.487,158.023 304.387,155.823 304.387,153.423 C304.387,150.323 304.487,146.823 304.687,146.023"
     id="path2105" />
  <path
     class=""
     d="M322.862,208.823 C322.962,208.823 323.162,208.723 323.262,208.723 C323.262,208.723 324.662,208.123 325.562,207.823 C325.662,207.723 325.762,207.723 325.862,207.723 C326.562,207.723 327.062,208.823 327.062,209.323 L327.062,221.623 C327.062,222.223 327.662,222.723 328.362,222.723 C329.362,222.723 330.062,222.223 330.062,221.623 L330.062,207.723 C330.062,206.423 330.562,205.723 331.062,205.523 L337.162,203.023 C337.262,203.023 337.462,202.923 337.562,202.923 C338.362,202.923 338.862,204.123 338.862,204.723 L338.862,217.223 C338.862,217.823 339.462,218.323 340.162,218.323 C341.262,218.323 341.862,217.823 341.862,217.223 L341.862,203.023 C341.862,202.223 342.262,201.023 342.962,200.723 C343.662,200.423 345.762,199.623 345.762,199.623 C346.462,199.323 346.962,198.523 346.962,197.923 L346.962,190.823 C346.962,190.323 346.662,190.023 346.262,190.023 C346.062,190.023 345.962,190.023 345.762,190.123 L343.162,191.123 C342.562,191.123 341.862,190.523 341.862,189.323 L341.862,180.023 C341.862,179.323 342.362,177.423 343.162,177.123 L345.762,176.123 C346.462,175.823 346.962,175.023 346.962,174.423 L346.962,167.323 C346.962,166.823 346.662,166.523 346.262,166.523 C346.062,166.523 345.962,166.523 345.762,166.623 C345.762,166.623 343.762,167.423 343.262,167.523 C342.562,167.523 341.862,167.023 341.862,166.223 L341.862,154.023 C341.862,153.423 341.262,152.923 340.462,152.923 C339.462,152.923 338.862,153.423 338.862,154.023 L338.862,167.023 C338.762,168.023 338.462,169.323 337.562,169.923 C336.362,170.623 332.962,172.023 331.262,172.423 C330.362,172.423 330.062,171.223 330.062,170.423 L330.062,158.423 C330.062,157.823 329.362,157.323 328.662,157.323 C327.662,157.323 327.062,157.823 327.062,158.423 L327.062,171.923 C327.062,173.323 326.462,174.323 325.862,174.623 C325.262,174.923 323.262,175.723 323.262,175.723 C322.562,175.923 322.062,176.723 322.062,177.323 L322.062,184.423 C322.062,185.023 322.362,185.323 322.862,185.323 C323.262,185.323 325.162,184.423 325.462,184.223 C326.462,184.223 327.062,184.723 327.062,185.923 L327.062,195.823 C327.062,196.923 326.562,197.823 325.962,198.123 C325.362,198.323 323.262,199.223 323.262,199.223 C322.562,199.423 322.062,200.223 322.062,200.823 L322.062,207.923 C322.062,208.523 322.362,208.823 322.862,208.823 M330.062,183.523 C330.262,181.823 334.862,179.723 337.362,179.723 C338.062,179.723 338.662,179.923 338.862,180.323 C339.062,180.823 339.262,183.323 339.262,186.023 C339.262,188.723 339.062,191.523 338.862,192.423 C338.262,194.423 333.562,196.423 331.262,196.423 C330.662,196.423 330.162,196.223 330.062,195.923 C329.862,195.523 329.762,193.323 329.762,190.923 C329.762,187.823 329.862,184.323 330.062,183.523"
     id="path2107" />
  <path
     class=""
     fill-rule="evenodd"
     d="M1645.28,187.892 L1773.38,175.092 L1773.38,187.655 L1645.28,200.454 L1645.28,187.892 "
     id="path2109" />
  <path
     class=""
     fill-rule="evenodd"
     d="M1121.1,113.475 L1225.65,87.7365 L1225.65,100.61 L1121.1,126.348 L1121.1,113.475 "
     id="path2111" />
  <path
     class=""
     fill-rule="evenodd"
     d="M439.361,163.568 L540.776,131.366 L540.776,144.481 L439.361,176.683 L439.361,163.568 "
     id="path2113" />
  <path
     class=""
     d="M1702.81,267.05 C1710.78,265.75 1714.76,262.983 1714.76,258.75 C1714.76,257.383 1714.35,256.283 1713.54,255.45 C1712.72,254.616 1711.65,254.2 1710.31,254.2 C1708.28,254.2 1706.41,255.316 1704.71,257.55 L1703.91,257.3 C1704.75,255.7 1705.89,254.433 1707.34,253.5 C1708.79,252.566 1710.38,252.1 1712.11,252.1 C1714.11,252.1 1715.78,252.7 1717.11,253.9 C1718.45,255.1 1719.11,256.616 1719.11,258.45 C1719.11,260.15 1718.57,261.516 1717.49,262.55 C1716.4,263.583 1714.35,264.683 1711.31,265.85 L1711.31,266 C1714.51,267.466 1716.11,269.95 1716.11,273.45 C1716.11,276.916 1714.83,279.916 1712.26,282.45 C1709.7,284.983 1706.33,286.25 1702.16,286.25 C1698.43,286.25 1696.56,285.266 1696.56,283.3 C1696.56,282 1697.3,281.35 1698.76,281.35 C1699.6,281.35 1700.71,281.85 1702.11,282.85 C1703.51,283.85 1704.66,284.35 1705.56,284.35 C1707.36,284.35 1708.9,283.591 1710.19,282.075 C1711.47,280.558 1712.11,278.583 1712.11,276.15 C1712.11,273.016 1711.33,270.85 1709.76,269.65 C1708.2,268.45 1705.88,267.85 1702.81,267.85 L1702.81,267.05 "
     id="path2115" />
  <path
     class=""
     d="M1166.86,53.0497 C1174.83,51.7497 1178.81,48.983 1178.81,44.7497 C1178.81,43.383 1178.4,42.283 1177.58,41.4497 C1176.77,40.6163 1175.69,40.1997 1174.36,40.1997 C1172.33,40.1997 1170.46,41.3163 1168.76,43.5497 L1167.96,43.2997 C1168.79,41.6997 1169.93,40.433 1171.38,39.4997 C1172.83,38.5663 1174.43,38.0997 1176.16,38.0997 C1178.16,38.0997 1179.83,38.6997 1181.16,39.8997 C1182.49,41.0997 1183.16,42.6163 1183.16,44.4497 C1183.16,46.1497 1182.62,47.5163 1181.53,48.5497 C1180.45,49.583 1178.39,50.683 1175.36,51.8497 L1175.36,51.9997 C1178.56,53.4663 1180.16,55.9497 1180.16,59.4497 C1180.16,62.9163 1178.88,65.9163 1176.31,68.4497 C1173.74,70.983 1170.38,72.2497 1166.21,72.2497 C1162.48,72.2497 1160.61,71.2663 1160.61,69.2997 C1160.61,67.9997 1161.34,67.3497 1162.81,67.3497 C1163.64,67.3497 1164.76,67.8497 1166.16,68.8497 C1167.56,69.8497 1168.71,70.3497 1169.61,70.3497 C1171.41,70.3497 1172.95,69.5913 1174.23,68.0747 C1175.52,66.558 1176.16,64.583 1176.16,62.1497 C1176.16,59.0163 1175.38,56.8497 1173.81,55.6497 C1172.24,54.4497 1169.93,53.8497 1166.86,53.8497 L1166.86,53.0497 "
     id="path2117" />
  <path
     class=""
     d="M483.553,96.7997 C491.52,95.4997 495.503,92.733 495.503,88.4997 C495.503,87.133 495.095,86.033 494.278,85.1997 C493.461,84.3664 492.386,83.9497 491.053,83.9497 C489.02,83.9497 487.153,85.0664 485.453,87.2997 L484.653,87.0497 C485.486,85.4497 486.628,84.183 488.078,83.2497 C489.528,82.3164 491.12,81.8497 492.853,81.8497 C494.853,81.8497 496.52,82.4497 497.853,83.6497 C499.186,84.8497 499.853,86.3664 499.853,88.1997 C499.853,89.8997 499.311,91.2664 498.228,92.2997 C497.145,93.333 495.086,94.433 492.053,95.5997 L492.053,95.7497 C495.253,97.2164 496.853,99.6997 496.853,103.2 C496.853,106.666 495.57,109.666 493.003,112.2 C490.436,114.733 487.07,116 482.903,116 C479.17,116 477.303,115.016 477.303,113.05 C477.303,111.75 478.036,111.1 479.503,111.1 C480.336,111.1 481.453,111.6 482.853,112.6 C484.253,113.6 485.403,114.1 486.303,114.1 C488.103,114.1 489.645,113.341 490.928,111.825 C492.211,110.308 492.853,108.333 492.853,105.9 C492.853,102.766 492.07,100.6 490.503,99.3997 C488.936,98.1997 486.62,97.5997 483.553,97.5997 L483.553,96.7997 "
     id="path2119" />
  <text
     xml:space="preserve"
     style="font-size:53.3339px;line-height:1.25;font-family:'Libertinus Sans';-inkscape-font-specification:'Libertinus Sans';letter-spacing:0px;word-spacing:0px;fill:#008080;stroke-width:1.00001"
     x="60.632797"
     y="74.946022"
     id="text650"><tspan
       sodipodi:role="line"
       id="tspan648"
       x="60.632797"
       y="74.946022"
       style="fill:#008080;stroke-width:1.00001">Gis-Dur*</tspan></text>
  <metadata
     id="metadata2663">
    <rdf:RDF>
      <cc:Work
         rdf:about="">
        <dc:title>Trans_misc.</dc:title>
      </cc:Work>
    </rdf:RDF>
  </metadata>
</svg>
