<?xml version="1.0" encoding="UTF-8" standalone="no"?>
<svg
   width="439.07706mm"
   height="75.209969mm"
   viewBox="0 0 1659.5039 284.25816"
   version="1.2"
   id="svg3817"
   sodipodi:docname="transponiertes_Beispiel_(mit_Tonart)_vom_Ausgang_h-moll.svg"
   inkscape:version="1.1-dev (0486c1a, 2020-10-10)"
   xmlns:inkscape="http://www.inkscape.org/namespaces/inkscape"
   xmlns:sodipodi="http://sodipodi.sourceforge.net/DTD/sodipodi-0.dtd"
   xmlns="http://www.w3.org/2000/svg"
   xmlns:svg="http://www.w3.org/2000/svg"
   xmlns:rdf="http://www.w3.org/1999/02/22-rdf-syntax-ns#"
   xmlns:cc="http://creativecommons.org/ns#"
   xmlns:dc="http://purl.org/dc/elements/1.1/">
  <defs
     id="defs3821" />
  <sodipodi:namedview
     pagecolor="#ffffff"
     bordercolor="#666666"
     borderopacity="1"
     objecttolerance="10"
     gridtolerance="10"
     guidetolerance="10"
     inkscape:pageopacity="0"
     inkscape:pageshadow="2"
     inkscape:window-width="1039"
     inkscape:window-height="480"
     id="namedview3819"
     showgrid="false"
     units="mm"
     lock-margins="false"
     fit-margin-top="6"
     fit-margin-left="6"
     fit-margin-right="6"
     fit-margin-bottom="1"
     inkscape:zoom="0.32802903"
     inkscape:cx="1149.2885"
     inkscape:cy="182.91064"
     inkscape:window-x="241"
     inkscape:window-y="170"
     inkscape:window-maximized="0"
     inkscape:current-layer="svg3817" />
  <title
     id="title3717">Unbenannt</title>
  <desc
     id="desc3719">Generated by MuseScore 3.5.2</desc>
  <metadata
     id="metadata3823">
    <rdf:RDF>
      <cc:Work
         rdf:about="">
        <dc:title>Unbenannt</dc:title>
      </cc:Work>
    </rdf:RDF>
  </metadata>
  <circle
     style="fill:#00ff00;fill-opacity:1;stroke:none;stroke-width:1.9;stroke-linecap:round;stroke-linejoin:round"
     id="path790"
     cx="967.86456"
     cy="72.847458"
     r="56.692913" />
  <circle
     style="fill:#00ff00;fill-opacity:1;stroke:none;stroke-width:1.9;stroke-linecap:round;stroke-linejoin:round"
     id="circle1607"
     cx="1151.3866"
     cy="58.730366"
     r="56.692913" />
  <circle
     style="fill:#00ff00;fill-opacity:1;stroke:none;stroke-width:1.9;stroke-linecap:round;stroke-linejoin:round"
     id="circle1609"
     cx="1300.2273"
     cy="136.37431"
     r="56.692913" />
  <g
     id="g4334"
     transform="translate(-688.35618,1309.2052)">
    <path
       class=""
       stroke="#000000"
       stroke-width="2.5"
       stroke-linecap="round"
       stroke-linejoin="round"
       fill-rule="evenodd"
       d="M 1855.2969,-1272.8032 C 1942.3069,-1319.7553 2174.5669,-1282.2553 2242.3969,-1210.3032 C 2173.6169,-1276.332 1941.3569,-1313.832 1855.2969,-1272.8032"
       id="path3043" />
    <path
       class=""
       stroke="#000000"
       stroke-width="2.5"
       stroke-linecap="round"
       stroke-linejoin="round"
       fill-rule="evenodd"
       d="M 1491.6459,-1235.3032 C 1551.4159,-1288.7691 1676.0039,-1295.0191 1740.8269,-1247.8032 C 1676.3049,-1289.0267 1551.7159,-1282.7767 1491.6459,-1235.3032"
       id="path3045" />
    <path
       class=""
       stroke="#000000"
       stroke-width="2.5"
       stroke-linecap="round"
       stroke-linejoin="round"
       fill-rule="evenodd"
       d="M 1098.2799,-1172.8034 C 1127.4129,-1212.1814 1192.6269,-1218.4314 1228.7079,-1185.3034 C 1193.1989,-1212.4588 1127.9849,-1206.2084 1098.2799,-1172.8034"
       id="path3047" />
    <polyline
       class=""
       stroke="#000000"
       stroke-width="3.25"
       stroke-linejoin="bevel"
       points="1076.05,83.9552 1656.33,83.9552"
       id="polyline3049"
       transform="matrix(0.86902874,0,0,1.0030192,863.42847,-1309.6628)" />
    <polyline
       class=""
       stroke="#000000"
       stroke-width="3.25"
       stroke-linejoin="bevel"
       points="1076.05,108.955 1656.33,108.955"
       id="polyline3051"
       transform="matrix(0.86902874,0,0,1.0030192,863.42847,-1309.6628)" />
    <polyline
       class=""
       stroke="#000000"
       stroke-width="3.25"
       stroke-linejoin="bevel"
       points="1076.05,133.955 1656.33,133.955"
       id="polyline3053"
       transform="matrix(0.86902874,0,0,1.0030192,863.42847,-1309.6628)" />
    <polyline
       class=""
       stroke="#000000"
       stroke-width="3.25"
       stroke-linejoin="bevel"
       points="1076.05,158.955 1656.33,158.955"
       id="polyline3055"
       transform="matrix(0.86902874,0,0,1.0030192,863.42847,-1309.6628)" />
    <polyline
       class=""
       stroke="#000000"
       stroke-width="3.25"
       stroke-linejoin="bevel"
       points="1076.05,183.955 1656.33,183.955"
       id="polyline3057"
       transform="matrix(0.86902874,0,0,1.0030192,863.42847,-1309.6628)" />
    <polyline
       class=""
       stroke="#000000"
       stroke-width="3.25"
       stroke-linejoin="bevel"
       points="10.8925,83.9552 1076.05,83.9552"
       id="polyline3059"
       transform="translate(722.49686,-1309.2584)" />
    <polyline
       class=""
       stroke="#000000"
       stroke-width="3.25"
       stroke-linejoin="bevel"
       points="10.8925,108.955 1076.05,108.955"
       id="polyline3061"
       transform="translate(722.49686,-1309.2584)" />
    <polyline
       class=""
       stroke="#000000"
       stroke-width="3.25"
       stroke-linejoin="bevel"
       points="10.8925,133.955 1076.05,133.955"
       id="polyline3063"
       transform="translate(722.49686,-1309.2584)" />
    <polyline
       class=""
       stroke="#000000"
       stroke-width="3.25"
       stroke-linejoin="bevel"
       points="10.8925,158.955 1076.05,158.955"
       id="polyline3065"
       transform="translate(722.49686,-1309.2584)" />
    <polyline
       class=""
       stroke="#000000"
       stroke-width="3.25"
       stroke-linejoin="bevel"
       points="10.8925,183.955 1076.05,183.955"
       id="polyline3067"
       transform="translate(722.49686,-1309.2584)" />
    <path
       class=""
       d="M 1958.1269,-1154.4034 C 1958.2269,-1154.4034 1958.4269,-1154.5034 1958.5269,-1154.5034 C 1958.5269,-1154.5034 1959.9269,-1155.1034 1960.8269,-1155.4034 C 1960.9269,-1155.5034 1961.0269,-1155.5034 1961.1269,-1155.5034 C 1961.8269,-1155.5034 1962.3269,-1154.4034 1962.3269,-1153.9034 V -1141.6034 C 1962.3269,-1141.0034 1962.9269,-1140.5034 1963.6269,-1140.5034 C 1964.6269,-1140.5034 1965.3269,-1141.0034 1965.3269,-1141.6034 V -1155.5034 C 1965.3269,-1156.8034 1965.8269,-1157.5034 1966.3269,-1157.7034 L 1972.4269,-1160.2034 C 1972.5269,-1160.2034 1972.7269,-1160.3034 1972.8269,-1160.3034 C 1973.6269,-1160.3034 1974.1269,-1159.1034 1974.1269,-1158.5034 V -1146.0034 C 1974.1269,-1145.4034 1974.7269,-1144.9034 1975.4269,-1144.9034 C 1976.5269,-1144.9034 1977.1269,-1145.4034 1977.1269,-1146.0034 V -1160.2034 C 1977.1269,-1161.0034 1977.5269,-1162.2034 1978.2269,-1162.5034 C 1978.9269,-1162.8034 1981.0269,-1163.6034 1981.0269,-1163.6034 C 1981.7269,-1163.9034 1982.2269,-1164.7034 1982.2269,-1165.3034 V -1172.4034 C 1982.2269,-1172.9034 1981.9269,-1173.2034 1981.5269,-1173.2034 C 1981.3269,-1173.2034 1981.2269,-1173.2034 1981.0269,-1173.1034 L 1978.4269,-1172.1034 C 1977.8269,-1172.1034 1977.1269,-1172.7034 1977.1269,-1173.9034 V -1183.2034 C 1977.1269,-1183.9034 1977.6269,-1185.8034 1978.4269,-1186.1034 L 1981.0269,-1187.1034 C 1981.7269,-1187.4034 1982.2269,-1188.2034 1982.2269,-1188.8034 V -1195.9034 C 1982.2269,-1196.4034 1981.9269,-1196.7034 1981.5269,-1196.7034 C 1981.3269,-1196.7034 1981.2269,-1196.7034 1981.0269,-1196.6034 C 1981.0269,-1196.6034 1979.0269,-1195.8034 1978.5269,-1195.7034 C 1977.8269,-1195.7034 1977.1269,-1196.2034 1977.1269,-1197.0034 V -1209.2034 C 1977.1269,-1209.8032 1976.5269,-1210.3032 1975.7269,-1210.3032 C 1974.7269,-1210.3032 1974.1269,-1209.8032 1974.1269,-1209.2034 V -1196.2034 C 1974.0269,-1195.2034 1973.7269,-1193.9034 1972.8269,-1193.3034 C 1971.6269,-1192.6034 1968.2269,-1191.2034 1966.5269,-1190.8034 C 1965.6269,-1190.8034 1965.3269,-1192.0034 1965.3269,-1192.8034 V -1204.8034 C 1965.3269,-1205.4034 1964.6269,-1205.9034 1963.9269,-1205.9034 C 1962.9269,-1205.9034 1962.3269,-1205.4034 1962.3269,-1204.8034 V -1191.3034 C 1962.3269,-1189.9034 1961.7269,-1188.9034 1961.1269,-1188.6034 C 1960.5269,-1188.3034 1958.5269,-1187.5034 1958.5269,-1187.5034 C 1957.8269,-1187.3034 1957.3269,-1186.5034 1957.3269,-1185.9034 V -1178.8034 C 1957.3269,-1178.2034 1957.6269,-1177.9034 1958.1269,-1177.9034 C 1958.5269,-1177.9034 1960.4269,-1178.8034 1960.7269,-1179.0034 C 1961.7269,-1179.0034 1962.3269,-1178.5034 1962.3269,-1177.3034 V -1167.4034 C 1962.3269,-1166.3034 1961.8269,-1165.4034 1961.2269,-1165.1034 C 1960.6269,-1164.9034 1958.5269,-1164.0034 1958.5269,-1164.0034 C 1957.8269,-1163.8034 1957.3269,-1163.0034 1957.3269,-1162.4034 V -1155.3034 C 1957.3269,-1154.7034 1957.6269,-1154.4034 1958.1269,-1154.4034 M 1965.3269,-1179.7034 C 1965.5269,-1181.4034 1970.1269,-1183.5034 1972.6269,-1183.5034 C 1973.3269,-1183.5034 1973.9269,-1183.3034 1974.1269,-1182.9034 C 1974.3269,-1182.4034 1974.5269,-1179.9034 1974.5269,-1177.2034 C 1974.5269,-1174.5034 1974.3269,-1171.7034 1974.1269,-1170.8034 C 1973.5269,-1168.8034 1968.8269,-1166.8034 1966.5269,-1166.8034 C 1965.9269,-1166.8034 1965.4269,-1167.0034 1965.3269,-1167.3034 C 1965.1269,-1167.7034 1965.0269,-1169.9034 1965.0269,-1172.3034 C 1965.0269,-1175.4034 1965.1269,-1178.9034 1965.3269,-1179.7034"
       id="path3069" />
    <path
       class=""
       d="M 1812.3469,-1230.8032 C 1812.4469,-1230.8032 1812.9469,-1230.9032 1813.0469,-1231.0032 C 1814.4469,-1231.6032 1820.0469,-1234.0032 1822.9469,-1234.0032 C 1823.9469,-1234.0032 1824.6469,-1233.7032 1824.6469,-1232.9032 V -1218.0032 C 1824.6469,-1217.3032 1825.1469,-1216.8032 1825.8469,-1216.8032 H 1827.1469 C 1827.7469,-1216.8032 1828.3469,-1217.3032 1828.3469,-1218.0032 V -1268.2032 C 1828.3469,-1268.7032 1827.9469,-1269.0032 1827.5469,-1269.0032 C 1827.4469,-1269.0032 1827.2469,-1269.0032 1827.1469,-1268.9032 L 1825.6469,-1268.4032 C 1825.4469,-1268.4032 1825.3469,-1268.3032 1825.2469,-1268.3032 C 1825.2469,-1268.3032 1818.8469,-1266.0032 1816.2469,-1266.0032 C 1815.6469,-1266.0032 1815.2469,-1266.1032 1815.2469,-1266.5032 V -1283.2032 C 1815.2469,-1283.9032 1814.6469,-1284.4032 1814.0469,-1284.4032 H 1812.7469 C 1812.0469,-1284.4032 1811.5469,-1283.9032 1811.5469,-1283.2032 V -1231.7032 C 1811.5469,-1231.1032 1811.8469,-1230.8032 1812.3469,-1230.8032 M 1815.2469,-1254.2032 C 1815.2469,-1255.6032 1821.3469,-1258.2032 1823.7469,-1258.2032 C 1824.3469,-1258.2032 1824.6469,-1258.1032 1824.6469,-1257.7032 V -1247.4032 C 1824.6469,-1245.6032 1818.9469,-1243.3032 1816.4469,-1243.3032 C 1815.7469,-1243.3032 1815.2469,-1243.5032 1815.2469,-1243.9032 V -1254.2032"
       id="path3071" />
    <path
       class=""
       d="M 1632.7069,-1218.3032 C 1632.8069,-1218.3032 1633.3069,-1218.4032 1633.4069,-1218.5032 C 1634.8069,-1219.1032 1640.4069,-1221.5032 1643.3069,-1221.5032 C 1644.3069,-1221.5032 1645.0069,-1221.2032 1645.0069,-1220.4032 V -1205.5034 C 1645.0069,-1204.8034 1645.5069,-1204.3034 1646.2069,-1204.3034 H 1647.5069 C 1648.1069,-1204.3034 1648.7069,-1204.8034 1648.7069,-1205.5034 V -1255.7032 C 1648.7069,-1256.2032 1648.3069,-1256.5032 1647.9069,-1256.5032 C 1647.8069,-1256.5032 1647.6069,-1256.5032 1647.5069,-1256.4032 L 1646.0069,-1255.9032 C 1645.8069,-1255.9032 1645.7069,-1255.8032 1645.6069,-1255.8032 C 1645.6069,-1255.8032 1639.2069,-1253.5032 1636.6069,-1253.5032 C 1636.0069,-1253.5032 1635.6069,-1253.6032 1635.6069,-1254.0032 V -1270.7032 C 1635.6069,-1271.4032 1635.0069,-1271.9032 1634.4069,-1271.9032 H 1633.1069 C 1632.4069,-1271.9032 1631.9069,-1271.4032 1631.9069,-1270.7032 V -1219.2032 C 1631.9069,-1218.6032 1632.2069,-1218.3032 1632.7069,-1218.3032 M 1635.6069,-1241.7032 C 1635.6069,-1243.1032 1641.7069,-1245.7032 1644.1069,-1245.7032 C 1644.7069,-1245.7032 1645.0069,-1245.6032 1645.0069,-1245.2032 V -1234.9032 C 1645.0069,-1233.1032 1639.3069,-1230.8032 1636.8069,-1230.8032 C 1636.1069,-1230.8032 1635.6069,-1231.0032 1635.6069,-1231.4032 V -1241.7032"
       id="path3073" />
    <polyline
       class=""
       stroke="#000000"
       stroke-width="4"
       stroke-linecap="square"
       stroke-linejoin="bevel"
       points="1111.35,58.9552 1154.25,58.9552"
       id="polyline3075"
       transform="translate(722.49686,-1309.2584)" />
    <polyline
       class=""
       stroke="#000000"
       stroke-width="3"
       stroke-linecap="round"
       stroke-linejoin="bevel"
       points="1504.95,124.815 1504.95,202.705"
       id="polyline3077"
       transform="translate(722.49686,-1309.2584)" />
    <polyline
       class=""
       stroke="#000000"
       stroke-width="3"
       stroke-linecap="round"
       stroke-linejoin="bevel"
       points="1266.73,137.315 1266.73,212.08"
       id="polyline3079"
       transform="translate(722.49686,-1309.2584)" />
    <polyline
       class=""
       stroke="#000000"
       stroke-width="3"
       stroke-linecap="round"
       stroke-linejoin="bevel"
       points="491.262,149.815 491.262,215.205"
       id="polyline3081"
       transform="translate(722.49686,-1309.2584)" />
    <polyline
       class=""
       stroke="#000000"
       stroke-width="3"
       stroke-linecap="round"
       stroke-linejoin="bevel"
       points="1003.38,87.3152 1003.38,158.955"
       id="polyline3083"
       transform="translate(722.49686,-1309.2584)" />
    <polyline
       class=""
       stroke="#000000"
       stroke-width="3"
       stroke-linecap="round"
       stroke-linejoin="bevel"
       points="1117.85,62.3152 1117.85,146.455"
       id="polyline3085"
       transform="translate(722.49686,-1309.2584)" />
    <polyline
       class=""
       stroke="#000000"
       stroke-width="3"
       stroke-linecap="round"
       stroke-linejoin="bevel"
       points="933.206,74.8152 933.206,152.705"
       id="polyline3087"
       transform="translate(722.49686,-1309.2584)" />
    <polyline
       class=""
       stroke="#000000"
       stroke-width="3"
       stroke-linecap="round"
       stroke-linejoin="bevel"
       points="666.554,87.3152 666.554,183.955"
       id="polyline3089"
       transform="translate(722.49686,-1309.2584)" />
    <polyline
       class=""
       stroke="#000000"
       stroke-width="3"
       stroke-linecap="round"
       stroke-linejoin="bevel"
       points="754.2,99.8152 754.2,183.955"
       id="polyline3091"
       transform="translate(722.49686,-1309.2584)" />
    <polyline
       class=""
       stroke="#000000"
       stroke-width="3"
       stroke-linecap="round"
       stroke-linejoin="bevel"
       points="578.908,124.815 578.908,199.58"
       id="polyline3093"
       transform="translate(722.49686,-1309.2584)" />
    <polyline
       class=""
       stroke="#000000"
       stroke-width="3"
       stroke-linecap="round"
       stroke-linejoin="bevel"
       points="366.783,168.095 366.783,83.9552"
       id="polyline3095"
       transform="translate(722.49686,-1309.2584)" />
    <path
       class=""
       d="M 2236.7469,-1173.8034 C 2246.6469,-1173.8034 2258.8469,-1183.0034 2258.8469,-1192.5034 C 2258.8469,-1198.1034 2254.3469,-1201.8034 2247.9469,-1201.8034 C 2235.7469,-1201.8034 2225.9469,-1192.7034 2225.9469,-1183.1034 C 2225.9469,-1177.3034 2230.7469,-1173.8034 2236.7469,-1173.8034"
       id="path3097" />
    <path
       class=""
       d="M 1223.0589,-1148.8034 C 1232.9589,-1148.8034 1245.1589,-1158.0034 1245.1589,-1167.5034 C 1245.1589,-1173.1034 1240.6589,-1176.8034 1234.2589,-1176.8034 C 1222.0589,-1176.8034 1212.2589,-1167.7034 1212.2589,-1158.1034 C 1212.2589,-1152.3034 1217.0589,-1148.8034 1223.0589,-1148.8034"
       id="path3099" />
    <path
       class=""
       d="M 1068.6819,-1123.8034 C 1078.5819,-1123.8034 1090.7819,-1133.0034 1090.7819,-1142.5034 C 1090.7819,-1148.1034 1086.2819,-1151.8034 1079.8819,-1151.8034 C 1067.6819,-1151.8034 1057.8819,-1142.7034 1057.8819,-1133.1034 C 1057.8819,-1127.3034 1062.6819,-1123.8034 1068.6819,-1123.8034"
       id="path3101" />
    <path
       class=""
       d="M 1998.5269,-1161.3034 C 2016.9269,-1161.3034 2020.6269,-1176.3034 2020.6269,-1179.9034 C 2020.6269,-1185.6034 2016.1269,-1189.3034 2009.6269,-1189.3034 C 1992.9269,-1189.3034 1987.7269,-1176.4034 1987.7269,-1170.6034 C 1987.7269,-1164.7034 1992.4269,-1161.3034 1998.5269,-1161.3034 M 2007.0269,-1170.2034 C 2002.0269,-1166.8034 1998.5269,-1165.6034 1996.1269,-1165.6034 C 1993.8269,-1165.6034 1992.4269,-1166.8034 1991.7269,-1168.2034 C 1991.3269,-1168.8034 1991.0269,-1169.6034 1991.0269,-1170.4034 C 1991.0269,-1175.8034 2007.1269,-1184.7034 2012.4269,-1184.7034 C 2014.5269,-1184.7034 2015.7269,-1183.7034 2016.5269,-1182.3034 C 2016.8269,-1181.7034 2017.1269,-1181.0034 2017.1269,-1180.2034 C 2017.1269,-1178.0034 2014.8269,-1175.3034 2007.0269,-1170.2034"
       id="path3103" />
    <path
       class=""
       d="M 1735.1769,-1211.3032 C 1745.0769,-1211.3032 1757.2769,-1220.5032 1757.2769,-1230.0032 C 1757.2769,-1235.6032 1752.7769,-1239.3032 1746.3769,-1239.3032 C 1734.1769,-1239.3032 1724.3769,-1230.2032 1724.3769,-1220.6032 C 1724.3769,-1214.8032 1729.1769,-1211.3032 1735.1769,-1211.3032"
       id="path3105" />
    <path
       class=""
       d="M 1849.6469,-1236.3032 C 1859.5469,-1236.3032 1871.7469,-1245.5032 1871.7469,-1255.0032 C 1871.7469,-1260.6032 1867.2469,-1264.3032 1860.8469,-1264.3032 C 1848.6469,-1264.3032 1838.8469,-1255.2032 1838.8469,-1245.6032 C 1838.8469,-1239.8032 1843.6469,-1236.3032 1849.6469,-1236.3032"
       id="path3107" />
    <path
       class=""
       d="M 1665.0029,-1223.8032 C 1674.9029,-1223.8032 1687.1029,-1233.0032 1687.1029,-1242.5032 C 1687.1029,-1248.1032 1682.6029,-1251.8032 1676.2029,-1251.8032 C 1664.0029,-1251.8032 1654.2029,-1242.7032 1654.2029,-1233.1032 C 1654.2029,-1227.3032 1659.0029,-1223.8032 1665.0029,-1223.8032"
       id="path3109" />
    <path
       class=""
       d="M 1398.3509,-1211.3032 C 1408.2509,-1211.3032 1420.4509,-1220.5032 1420.4509,-1230.0032 C 1420.4509,-1235.6032 1415.9509,-1239.3032 1409.5509,-1239.3032 C 1397.3509,-1239.3032 1387.5509,-1230.2032 1387.5509,-1220.6032 C 1387.5509,-1214.8032 1392.3509,-1211.3032 1398.3509,-1211.3032"
       id="path3111" />
    <path
       class=""
       d="M 1485.9969,-1198.8034 C 1495.8969,-1198.8034 1508.0969,-1208.0034 1508.0969,-1217.5032 C 1508.0969,-1223.1032 1503.5969,-1226.8032 1497.1969,-1226.8032 C 1484.9969,-1226.8032 1475.1969,-1217.7032 1475.1969,-1208.1034 C 1475.1969,-1202.3034 1479.9969,-1198.8034 1485.9969,-1198.8034"
       id="path3113" />
    <path
       class=""
       d="M 1310.7049,-1173.8034 C 1320.6049,-1173.8034 1332.8049,-1183.0034 1332.8049,-1192.5034 C 1332.8049,-1198.1034 1328.3049,-1201.8034 1321.9049,-1201.8034 C 1309.7049,-1201.8034 1299.9049,-1192.7034 1299.9049,-1183.1034 C 1299.9049,-1177.3034 1304.7049,-1173.8034 1310.7049,-1173.8034"
       id="path3115" />
    <path
       class=""
       d="M 800.38936,-1244.6032 C 803.68936,-1244.6032 806.38936,-1241.9032 806.38936,-1236.4032 C 806.38936,-1225.3032 796.88936,-1216.3032 788.98936,-1209.4032 C 788.68936,-1209.2034 788.48936,-1209.0034 788.28936,-1209.0034 C 787.98936,-1209.0034 787.78936,-1209.4032 787.68936,-1210.2032 C 787.28936,-1212.8032 787.08936,-1216.2032 787.08936,-1219.4032 C 787.08936,-1235.0032 794.28936,-1244.6032 800.38936,-1244.6032 M 796.38936,-1160.6034 C 796.18936,-1161.7034 796.28936,-1162.0034 797.08936,-1162.0034 C 797.18936,-1162.0034 797.38936,-1162.0034 797.48936,-1162.0034 C 805.58936,-1161.3034 812.28936,-1154.5034 812.28936,-1145.7034 C 812.28936,-1139.4034 808.48936,-1134.3034 802.88936,-1131.5034 C 802.38936,-1131.3034 802.08936,-1131.1034 801.88936,-1131.1034 C 801.48936,-1131.1034 801.38936,-1131.4034 801.28936,-1132.1034 L 796.38936,-1160.6034 M 789.48936,-1176.5034 C 789.78936,-1174.6034 789.78936,-1174.7034 787.98936,-1174.1034 C 779.18936,-1171.1034 773.48936,-1163.2034 773.48936,-1154.7034 C 773.48936,-1145.7034 778.18936,-1139.3034 784.98936,-1137.0034 C 785.78936,-1136.7034 786.98936,-1136.4034 787.68936,-1136.4034 C 788.48936,-1136.4034 788.88936,-1136.9034 788.88936,-1137.5034 C 788.88936,-1138.2034 788.08936,-1138.5034 787.38936,-1138.8034 C 783.18936,-1140.6034 780.18936,-1144.9034 780.18936,-1149.5034 C 780.18936,-1155.2034 784.08936,-1159.5034 790.18936,-1161.2034 C 790.68936,-1161.3034 791.08936,-1161.4034 791.38936,-1161.4034 C 791.88936,-1161.4034 792.08936,-1161.1034 792.18936,-1160.4034 L 797.18936,-1130.6034 C 797.38936,-1129.5034 797.28936,-1129.5034 795.78936,-1129.2034 C 794.18936,-1128.9034 792.18936,-1128.7034 790.18936,-1128.7034 C 772.68936,-1128.7034 761.38936,-1138.4034 761.38936,-1152.3034 C 761.38936,-1169.3034 773.88936,-1179.9034 785.98936,-1189.7034 C 786.38936,-1190.0034 786.68936,-1190.2034 786.88936,-1190.2034 C 787.18936,-1190.2034 787.28936,-1189.9034 787.38936,-1189.3034 L 789.48936,-1176.5034 M 790.98936,-1191.8034 C 790.78936,-1193.0034 790.98936,-1193.1034 791.58936,-1193.7034 C 802.38936,-1203.8034 810.58936,-1216.5032 810.58936,-1231.8032 C 810.58936,-1240.5032 808.18936,-1249.1032 804.08936,-1255.1032 C 802.58936,-1257.3032 799.98936,-1260.1032 798.88936,-1260.1032 C 797.48936,-1260.1032 794.38936,-1257.5032 792.38936,-1255.3032 C 784.98936,-1247.1032 782.58936,-1234.6032 782.58936,-1224.2032 C 782.58936,-1218.4032 783.28936,-1211.9032 783.98936,-1207.8034 C 784.18936,-1206.6034 784.28936,-1206.4034 783.08936,-1205.4034 C 768.68936,-1193.5034 753.38936,-1179.2034 753.38936,-1159.0034 C 753.38936,-1141.6034 765.28936,-1125.1034 789.78936,-1125.1034 C 792.08936,-1125.1034 794.68936,-1125.3034 796.68936,-1125.7034 C 797.08936,-1125.8034 797.28936,-1125.8034 797.48936,-1125.8034 C 797.88936,-1125.8034 798.08936,-1125.6034 798.18936,-1124.8034 C 799.38936,-1118.1034 800.88936,-1109.4034 800.88936,-1104.7034 C 800.88936,-1089.9034 790.88936,-1088.1034 784.98936,-1088.1034 C 779.58936,-1088.1034 776.98936,-1089.7034 776.98936,-1091.0034 C 776.98936,-1091.7034 777.88936,-1092.0034 780.18936,-1092.7034 C 783.28936,-1093.6034 786.88936,-1096.3034 786.88936,-1102.1034 C 786.88936,-1107.6034 783.38936,-1112.3034 777.28936,-1112.3034 C 770.58936,-1112.3034 766.58936,-1107.0034 766.58936,-1100.8034 C 766.58936,-1094.3034 770.48936,-1084.5034 785.58936,-1084.5034 C 792.28936,-1084.5034 805.28936,-1087.5034 805.28936,-1104.5034 C 805.28936,-1110.2034 803.48936,-1119.7034 802.38936,-1125.9034 C 802.18936,-1127.1034 802.28936,-1127.0034 803.68936,-1127.6034 C 813.78936,-1131.6034 820.48936,-1140.1034 820.48936,-1151.4034 C 820.48936,-1164.2034 811.08936,-1175.5034 796.38936,-1175.5034 C 793.78936,-1175.5034 793.78936,-1175.5034 793.48936,-1177.3034 L 790.98936,-1191.8034"
       id="path3117" />
    <path
       class=""
       d="M 971.28286,-1191.9034 C 971.38286,-1191.9034 971.58286,-1192.0034 971.68286,-1192.0034 C 971.68286,-1192.0034 973.08286,-1192.6034 973.98286,-1192.9034 C 974.08286,-1193.0034 974.18286,-1193.0034 974.28286,-1193.0034 C 974.98286,-1193.0034 975.48286,-1191.9034 975.48286,-1191.4034 V -1179.1034 C 975.48286,-1178.5034 976.08286,-1178.0034 976.78286,-1178.0034 C 977.78286,-1178.0034 978.48286,-1178.5034 978.48286,-1179.1034 V -1193.0034 C 978.48286,-1194.3034 978.98286,-1195.0034 979.48286,-1195.2034 L 985.58286,-1197.7034 C 985.68286,-1197.7034 985.88286,-1197.8034 985.98286,-1197.8034 C 986.78286,-1197.8034 987.28286,-1196.6034 987.28286,-1196.0034 V -1183.5034 C 987.28286,-1182.9034 987.88286,-1182.4034 988.58286,-1182.4034 C 989.68286,-1182.4034 990.28286,-1182.9034 990.28286,-1183.5034 V -1197.7034 C 990.28286,-1198.5034 990.68286,-1199.7034 991.38286,-1200.0034 C 992.08286,-1200.3034 994.18286,-1201.1034 994.18286,-1201.1034 C 994.88286,-1201.4034 995.38286,-1202.2034 995.38286,-1202.8034 V -1209.9032 C 995.38286,-1210.4032 995.08286,-1210.7032 994.68286,-1210.7032 C 994.48286,-1210.7032 994.38286,-1210.7032 994.18286,-1210.6032 L 991.58286,-1209.6032 C 990.98286,-1209.6032 990.28286,-1210.2032 990.28286,-1211.4032 V -1220.7032 C 990.28286,-1221.4032 990.78286,-1223.3032 991.58286,-1223.6032 L 994.18286,-1224.6032 C 994.88286,-1224.9032 995.38286,-1225.7032 995.38286,-1226.3032 V -1233.4032 C 995.38286,-1233.9032 995.08286,-1234.2032 994.68286,-1234.2032 C 994.48286,-1234.2032 994.38286,-1234.2032 994.18286,-1234.1032 C 994.18286,-1234.1032 992.18286,-1233.3032 991.68286,-1233.2032 C 990.98286,-1233.2032 990.28286,-1233.7032 990.28286,-1234.5032 V -1246.7032 C 990.28286,-1247.3032 989.68286,-1247.8032 988.88286,-1247.8032 C 987.88286,-1247.8032 987.28286,-1247.3032 987.28286,-1246.7032 V -1233.7032 C 987.18286,-1232.7032 986.88286,-1231.4032 985.98286,-1230.8032 C 984.78286,-1230.1032 981.38286,-1228.7032 979.68286,-1228.3032 C 978.78286,-1228.3032 978.48286,-1229.5032 978.48286,-1230.3032 V -1242.3032 C 978.48286,-1242.9032 977.78286,-1243.4032 977.08286,-1243.4032 C 976.08286,-1243.4032 975.48286,-1242.9032 975.48286,-1242.3032 V -1228.8032 C 975.48286,-1227.4032 974.88286,-1226.4032 974.28286,-1226.1032 C 973.68286,-1225.8032 971.68286,-1225.0032 971.68286,-1225.0032 C 970.98286,-1224.8032 970.48286,-1224.0032 970.48286,-1223.4032 V -1216.3032 C 970.48286,-1215.7032 970.78286,-1215.4032 971.28286,-1215.4032 C 971.68286,-1215.4032 973.58286,-1216.3032 973.88286,-1216.5032 C 974.88286,-1216.5032 975.48286,-1216.0032 975.48286,-1214.8032 V -1204.9034 C 975.48286,-1203.8034 974.98286,-1202.9034 974.38286,-1202.6034 C 973.78286,-1202.4034 971.68286,-1201.5034 971.68286,-1201.5034 C 970.98286,-1201.3034 970.48286,-1200.5034 970.48286,-1199.9034 V -1192.8034 C 970.48286,-1192.2034 970.78286,-1191.9034 971.28286,-1191.9034 M 978.48286,-1217.2032 C 978.68286,-1218.9032 983.28286,-1221.0032 985.78286,-1221.0032 C 986.48286,-1221.0032 987.08286,-1220.8032 987.28286,-1220.4032 C 987.48286,-1219.9032 987.68286,-1217.4032 987.68286,-1214.7032 C 987.68286,-1212.0032 987.48286,-1209.2034 987.28286,-1208.3034 C 986.68286,-1206.3034 981.98286,-1204.3034 979.68286,-1204.3034 C 979.08286,-1204.3034 978.58286,-1204.5034 978.48286,-1204.8034 C 978.28286,-1205.2034 978.18286,-1207.4034 978.18286,-1209.8032 C 978.18286,-1212.9032 978.28286,-1216.4032 978.48286,-1217.2032"
       id="path3119" />
    <path
       class=""
       d="M 946.28286,-1141.9034 C 946.38286,-1141.9034 946.58286,-1142.0034 946.68286,-1142.0034 C 946.68286,-1142.0034 948.08286,-1142.6034 948.98286,-1142.9034 C 949.08286,-1143.0034 949.18286,-1143.0034 949.28286,-1143.0034 C 949.98286,-1143.0034 950.48286,-1141.9034 950.48286,-1141.4034 V -1129.1034 C 950.48286,-1128.5034 951.08286,-1128.0034 951.78286,-1128.0034 C 952.78286,-1128.0034 953.48286,-1128.5034 953.48286,-1129.1034 V -1143.0034 C 953.48286,-1144.3034 953.98286,-1145.0034 954.48286,-1145.2034 L 960.58286,-1147.7034 C 960.68286,-1147.7034 960.88286,-1147.8034 960.98286,-1147.8034 C 961.78286,-1147.8034 962.28286,-1146.6034 962.28286,-1146.0034 V -1133.5034 C 962.28286,-1132.9034 962.88286,-1132.4034 963.58286,-1132.4034 C 964.68286,-1132.4034 965.28286,-1132.9034 965.28286,-1133.5034 V -1147.7034 C 965.28286,-1148.5034 965.68286,-1149.7034 966.38286,-1150.0034 C 967.08286,-1150.3034 969.18286,-1151.1034 969.18286,-1151.1034 C 969.88286,-1151.4034 970.38286,-1152.2034 970.38286,-1152.8034 V -1159.9034 C 970.38286,-1160.4034 970.08286,-1160.7034 969.68286,-1160.7034 C 969.48286,-1160.7034 969.38286,-1160.7034 969.18286,-1160.6034 L 966.58286,-1159.6034 C 965.98286,-1159.6034 965.28286,-1160.2034 965.28286,-1161.4034 V -1170.7034 C 965.28286,-1171.4034 965.78286,-1173.3034 966.58286,-1173.6034 L 969.18286,-1174.6034 C 969.88286,-1174.9034 970.38286,-1175.7034 970.38286,-1176.3034 V -1183.4034 C 970.38286,-1183.9034 970.08286,-1184.2034 969.68286,-1184.2034 C 969.48286,-1184.2034 969.38286,-1184.2034 969.18286,-1184.1034 C 969.18286,-1184.1034 967.18286,-1183.3034 966.68286,-1183.2034 C 965.98286,-1183.2034 965.28286,-1183.7034 965.28286,-1184.5034 V -1196.7034 C 965.28286,-1197.3034 964.68286,-1197.8034 963.88286,-1197.8034 C 962.88286,-1197.8034 962.28286,-1197.3034 962.28286,-1196.7034 V -1183.7034 C 962.18286,-1182.7034 961.88286,-1181.4034 960.98286,-1180.8034 C 959.78286,-1180.1034 956.38286,-1178.7034 954.68286,-1178.3034 C 953.78286,-1178.3034 953.48286,-1179.5034 953.48286,-1180.3034 V -1192.3034 C 953.48286,-1192.9034 952.78286,-1193.4034 952.08286,-1193.4034 C 951.08286,-1193.4034 950.48286,-1192.9034 950.48286,-1192.3034 V -1178.8034 C 950.48286,-1177.4034 949.88286,-1176.4034 949.28286,-1176.1034 C 948.68286,-1175.8034 946.68286,-1175.0034 946.68286,-1175.0034 C 945.98286,-1174.8034 945.48286,-1174.0034 945.48286,-1173.4034 V -1166.3034 C 945.48286,-1165.7034 945.78286,-1165.4034 946.28286,-1165.4034 C 946.68286,-1165.4034 948.58286,-1166.3034 948.88286,-1166.5034 C 949.88286,-1166.5034 950.48286,-1166.0034 950.48286,-1164.8034 V -1154.9034 C 950.48286,-1153.8034 949.98286,-1152.9034 949.38286,-1152.6034 C 948.78286,-1152.4034 946.68286,-1151.5034 946.68286,-1151.5034 C 945.98286,-1151.3034 945.48286,-1150.5034 945.48286,-1149.9034 V -1142.8034 C 945.48286,-1142.2034 945.78286,-1141.9034 946.28286,-1141.9034 M 953.48286,-1167.2034 C 953.68286,-1168.9034 958.28286,-1171.0034 960.78286,-1171.0034 C 961.48286,-1171.0034 962.08286,-1170.8034 962.28286,-1170.4034 C 962.48286,-1169.9034 962.68286,-1167.4034 962.68286,-1164.7034 C 962.68286,-1162.0034 962.48286,-1159.2034 962.28286,-1158.3034 C 961.68286,-1156.3034 956.98286,-1154.3034 954.68286,-1154.3034 C 954.08286,-1154.3034 953.58286,-1154.5034 953.48286,-1154.8034 C 953.28286,-1155.2034 953.18286,-1157.4034 953.18286,-1159.8034 C 953.18286,-1162.9034 953.28286,-1166.4034 953.48286,-1167.2034"
       id="path3121" />
    <path
       class=""
       d="M 921.28286,-1179.4034 C 921.38286,-1179.4034 921.58286,-1179.5034 921.68286,-1179.5034 C 921.68286,-1179.5034 923.08286,-1180.1034 923.98286,-1180.4034 C 924.08286,-1180.5034 924.18286,-1180.5034 924.28286,-1180.5034 C 924.98286,-1180.5034 925.48286,-1179.4034 925.48286,-1178.9034 V -1166.6034 C 925.48286,-1166.0034 926.08286,-1165.5034 926.78286,-1165.5034 C 927.78286,-1165.5034 928.48286,-1166.0034 928.48286,-1166.6034 V -1180.5034 C 928.48286,-1181.8034 928.98286,-1182.5034 929.48286,-1182.7034 L 935.58286,-1185.2034 C 935.68286,-1185.2034 935.88286,-1185.3034 935.98286,-1185.3034 C 936.78286,-1185.3034 937.28286,-1184.1034 937.28286,-1183.5034 V -1171.0034 C 937.28286,-1170.4034 937.88286,-1169.9034 938.58286,-1169.9034 C 939.68286,-1169.9034 940.28286,-1170.4034 940.28286,-1171.0034 V -1185.2034 C 940.28286,-1186.0034 940.68286,-1187.2034 941.38286,-1187.5034 C 942.08286,-1187.8034 944.18286,-1188.6034 944.18286,-1188.6034 C 944.88286,-1188.9034 945.38286,-1189.7034 945.38286,-1190.3034 V -1197.4034 C 945.38286,-1197.9034 945.08286,-1198.2034 944.68286,-1198.2034 C 944.48286,-1198.2034 944.38286,-1198.2034 944.18286,-1198.1034 L 941.58286,-1197.1034 C 940.98286,-1197.1034 940.28286,-1197.7034 940.28286,-1198.9034 V -1208.2034 C 940.28286,-1208.9034 940.78286,-1210.8032 941.58286,-1211.1032 L 944.18286,-1212.1032 C 944.88286,-1212.4032 945.38286,-1213.2032 945.38286,-1213.8032 V -1220.9032 C 945.38286,-1221.4032 945.08286,-1221.7032 944.68286,-1221.7032 C 944.48286,-1221.7032 944.38286,-1221.7032 944.18286,-1221.6032 C 944.18286,-1221.6032 942.18286,-1220.8032 941.68286,-1220.7032 C 940.98286,-1220.7032 940.28286,-1221.2032 940.28286,-1222.0032 V -1234.2032 C 940.28286,-1234.8032 939.68286,-1235.3032 938.88286,-1235.3032 C 937.88286,-1235.3032 937.28286,-1234.8032 937.28286,-1234.2032 V -1221.2032 C 937.18286,-1220.2032 936.88286,-1218.9032 935.98286,-1218.3032 C 934.78286,-1217.6032 931.38286,-1216.2032 929.68286,-1215.8032 C 928.78286,-1215.8032 928.48286,-1217.0032 928.48286,-1217.8032 V -1229.8032 C 928.48286,-1230.4032 927.78286,-1230.9032 927.08286,-1230.9032 C 926.08286,-1230.9032 925.48286,-1230.4032 925.48286,-1229.8032 V -1216.3032 C 925.48286,-1214.9032 924.88286,-1213.9032 924.28286,-1213.6032 C 923.68286,-1213.3032 921.68286,-1212.5032 921.68286,-1212.5032 C 920.98286,-1212.3032 920.48286,-1211.5032 920.48286,-1210.9032 V -1203.8034 C 920.48286,-1203.2034 920.78286,-1202.9034 921.28286,-1202.9034 C 921.68286,-1202.9034 923.58286,-1203.8034 923.88286,-1204.0034 C 924.88286,-1204.0034 925.48286,-1203.5034 925.48286,-1202.3034 V -1192.4034 C 925.48286,-1191.3034 924.98286,-1190.4034 924.38286,-1190.1034 C 923.78286,-1189.9034 921.68286,-1189.0034 921.68286,-1189.0034 C 920.98286,-1188.8034 920.48286,-1188.0034 920.48286,-1187.4034 V -1180.3034 C 920.48286,-1179.7034 920.78286,-1179.4034 921.28286,-1179.4034 M 928.48286,-1204.7034 C 928.68286,-1206.4034 933.28286,-1208.5034 935.78286,-1208.5034 C 936.48286,-1208.5034 937.08286,-1208.3034 937.28286,-1207.9034 C 937.48286,-1207.4034 937.68286,-1204.9034 937.68286,-1202.2034 C 937.68286,-1199.5034 937.48286,-1196.7034 937.28286,-1195.8034 C 936.68286,-1193.8034 931.98286,-1191.8034 929.68286,-1191.8034 C 929.08286,-1191.8034 928.58286,-1192.0034 928.48286,-1192.3034 C 928.28286,-1192.7034 928.18286,-1194.9034 928.18286,-1197.3034 C 928.18286,-1200.4034 928.28286,-1203.9034 928.48286,-1204.7034"
       id="path3123" />
    <path
       class=""
       d="M 896.28286,-1216.9032 C 896.38286,-1216.9032 896.58286,-1217.0032 896.68286,-1217.0032 C 896.68286,-1217.0032 898.08286,-1217.6032 898.98286,-1217.9032 C 899.08286,-1218.0032 899.18286,-1218.0032 899.28286,-1218.0032 C 899.98286,-1218.0032 900.48286,-1216.9032 900.48286,-1216.4032 V -1204.1034 C 900.48286,-1203.5034 901.08286,-1203.0034 901.78286,-1203.0034 C 902.78286,-1203.0034 903.48286,-1203.5034 903.48286,-1204.1034 V -1218.0032 C 903.48286,-1219.3032 903.98286,-1220.0032 904.48286,-1220.2032 L 910.58286,-1222.7032 C 910.68286,-1222.7032 910.88286,-1222.8032 910.98286,-1222.8032 C 911.78286,-1222.8032 912.28286,-1221.6032 912.28286,-1221.0032 V -1208.5034 C 912.28286,-1207.9034 912.88286,-1207.4034 913.58286,-1207.4034 C 914.68286,-1207.4034 915.28286,-1207.9034 915.28286,-1208.5034 V -1222.7032 C 915.28286,-1223.5032 915.68286,-1224.7032 916.38286,-1225.0032 C 917.08286,-1225.3032 919.18286,-1226.1032 919.18286,-1226.1032 C 919.88286,-1226.4032 920.38286,-1227.2032 920.38286,-1227.8032 V -1234.9032 C 920.38286,-1235.4032 920.08286,-1235.7032 919.68286,-1235.7032 C 919.48286,-1235.7032 919.38286,-1235.7032 919.18286,-1235.6032 L 916.58286,-1234.6032 C 915.98286,-1234.6032 915.28286,-1235.2032 915.28286,-1236.4032 V -1245.7032 C 915.28286,-1246.4032 915.78286,-1248.3032 916.58286,-1248.6032 L 919.18286,-1249.6032 C 919.88286,-1249.9032 920.38286,-1250.7032 920.38286,-1251.3032 V -1258.4032 C 920.38286,-1258.9032 920.08286,-1259.2032 919.68286,-1259.2032 C 919.48286,-1259.2032 919.38286,-1259.2032 919.18286,-1259.1032 C 919.18286,-1259.1032 917.18286,-1258.3032 916.68286,-1258.2032 C 915.98286,-1258.2032 915.28286,-1258.7032 915.28286,-1259.5032 V -1271.7032 C 915.28286,-1272.3032 914.68286,-1272.8032 913.88286,-1272.8032 C 912.88286,-1272.8032 912.28286,-1272.3032 912.28286,-1271.7032 V -1258.7032 C 912.18286,-1257.7032 911.88286,-1256.4032 910.98286,-1255.8032 C 909.78286,-1255.1032 906.38286,-1253.7032 904.68286,-1253.3032 C 903.78286,-1253.3032 903.48286,-1254.5032 903.48286,-1255.3032 V -1267.3032 C 903.48286,-1267.9032 902.78286,-1268.4032 902.08286,-1268.4032 C 901.08286,-1268.4032 900.48286,-1267.9032 900.48286,-1267.3032 V -1253.8032 C 900.48286,-1252.4032 899.88286,-1251.4032 899.28286,-1251.1032 C 898.68286,-1250.8032 896.68286,-1250.0032 896.68286,-1250.0032 C 895.98286,-1249.8032 895.48286,-1249.0032 895.48286,-1248.4032 V -1241.3032 C 895.48286,-1240.7032 895.78286,-1240.4032 896.28286,-1240.4032 C 896.68286,-1240.4032 898.58286,-1241.3032 898.88286,-1241.5032 C 899.88286,-1241.5032 900.48286,-1241.0032 900.48286,-1239.8032 V -1229.9032 C 900.48286,-1228.8032 899.98286,-1227.9032 899.38286,-1227.6032 C 898.78286,-1227.4032 896.68286,-1226.5032 896.68286,-1226.5032 C 895.98286,-1226.3032 895.48286,-1225.5032 895.48286,-1224.9032 V -1217.8032 C 895.48286,-1217.2032 895.78286,-1216.9032 896.28286,-1216.9032 M 903.48286,-1242.2032 C 903.68286,-1243.9032 908.28286,-1246.0032 910.78286,-1246.0032 C 911.48286,-1246.0032 912.08286,-1245.8032 912.28286,-1245.4032 C 912.48286,-1244.9032 912.68286,-1242.4032 912.68286,-1239.7032 C 912.68286,-1237.0032 912.48286,-1234.2032 912.28286,-1233.3032 C 911.68286,-1231.3032 906.98286,-1229.3032 904.68286,-1229.3032 C 904.08286,-1229.3032 903.58286,-1229.5032 903.48286,-1229.8032 C 903.28286,-1230.2032 903.18286,-1232.4032 903.18286,-1234.8032 C 903.18286,-1237.9032 903.28286,-1241.4032 903.48286,-1242.2032"
       id="path3125" />
    <path
       class=""
       d="M 871.28286,-1166.9034 C 871.38286,-1166.9034 871.58286,-1167.0034 871.68286,-1167.0034 C 871.68286,-1167.0034 873.08286,-1167.6034 873.98286,-1167.9034 C 874.08286,-1168.0034 874.18286,-1168.0034 874.28286,-1168.0034 C 874.98286,-1168.0034 875.48286,-1166.9034 875.48286,-1166.4034 V -1154.1034 C 875.48286,-1153.5034 876.08286,-1153.0034 876.78286,-1153.0034 C 877.78286,-1153.0034 878.48286,-1153.5034 878.48286,-1154.1034 V -1168.0034 C 878.48286,-1169.3034 878.98286,-1170.0034 879.48286,-1170.2034 L 885.58286,-1172.7034 C 885.68286,-1172.7034 885.88286,-1172.8034 885.98286,-1172.8034 C 886.78286,-1172.8034 887.28286,-1171.6034 887.28286,-1171.0034 V -1158.5034 C 887.28286,-1157.9034 887.88286,-1157.4034 888.58286,-1157.4034 C 889.68286,-1157.4034 890.28286,-1157.9034 890.28286,-1158.5034 V -1172.7034 C 890.28286,-1173.5034 890.68286,-1174.7034 891.38286,-1175.0034 C 892.08286,-1175.3034 894.18286,-1176.1034 894.18286,-1176.1034 C 894.88286,-1176.4034 895.38286,-1177.2034 895.38286,-1177.8034 V -1184.9034 C 895.38286,-1185.4034 895.08286,-1185.7034 894.68286,-1185.7034 C 894.48286,-1185.7034 894.38286,-1185.7034 894.18286,-1185.6034 L 891.58286,-1184.6034 C 890.98286,-1184.6034 890.28286,-1185.2034 890.28286,-1186.4034 V -1195.7034 C 890.28286,-1196.4034 890.78286,-1198.3034 891.58286,-1198.6034 L 894.18286,-1199.6034 C 894.88286,-1199.9034 895.38286,-1200.7034 895.38286,-1201.3034 V -1208.4034 C 895.38286,-1208.9034 895.08286,-1209.2034 894.68286,-1209.2034 C 894.48286,-1209.2034 894.38286,-1209.2034 894.18286,-1209.1034 C 894.18286,-1209.1034 892.18286,-1208.3034 891.68286,-1208.2034 C 890.98286,-1208.2034 890.28286,-1208.7034 890.28286,-1209.5032 V -1221.7032 C 890.28286,-1222.3032 889.68286,-1222.8032 888.88286,-1222.8032 C 887.88286,-1222.8032 887.28286,-1222.3032 887.28286,-1221.7032 V -1208.7034 C 887.18286,-1207.7034 886.88286,-1206.4034 885.98286,-1205.8034 C 884.78286,-1205.1034 881.38286,-1203.7034 879.68286,-1203.3034 C 878.78286,-1203.3034 878.48286,-1204.5034 878.48286,-1205.3034 V -1217.3032 C 878.48286,-1217.9032 877.78286,-1218.4032 877.08286,-1218.4032 C 876.08286,-1218.4032 875.48286,-1217.9032 875.48286,-1217.3032 V -1203.8034 C 875.48286,-1202.4034 874.88286,-1201.4034 874.28286,-1201.1034 C 873.68286,-1200.8034 871.68286,-1200.0034 871.68286,-1200.0034 C 870.98286,-1199.8034 870.48286,-1199.0034 870.48286,-1198.4034 V -1191.3034 C 870.48286,-1190.7034 870.78286,-1190.4034 871.28286,-1190.4034 C 871.68286,-1190.4034 873.58286,-1191.3034 873.88286,-1191.5034 C 874.88286,-1191.5034 875.48286,-1191.0034 875.48286,-1189.8034 V -1179.9034 C 875.48286,-1178.8034 874.98286,-1177.9034 874.38286,-1177.6034 C 873.78286,-1177.4034 871.68286,-1176.5034 871.68286,-1176.5034 C 870.98286,-1176.3034 870.48286,-1175.5034 870.48286,-1174.9034 V -1167.8034 C 870.48286,-1167.2034 870.78286,-1166.9034 871.28286,-1166.9034 M 878.48286,-1192.2034 C 878.68286,-1193.9034 883.28286,-1196.0034 885.78286,-1196.0034 C 886.48286,-1196.0034 887.08286,-1195.8034 887.28286,-1195.4034 C 887.48286,-1194.9034 887.68286,-1192.4034 887.68286,-1189.7034 C 887.68286,-1187.0034 887.48286,-1184.2034 887.28286,-1183.3034 C 886.68286,-1181.3034 881.98286,-1179.3034 879.68286,-1179.3034 C 879.08286,-1179.3034 878.58286,-1179.5034 878.48286,-1179.8034 C 878.28286,-1180.2034 878.18286,-1182.4034 878.18286,-1184.8034 C 878.18286,-1187.9034 878.28286,-1191.4034 878.48286,-1192.2034"
       id="path3127" />
    <path
       class=""
       d="M 846.28286,-1204.4034 C 846.38286,-1204.4034 846.58286,-1204.5034 846.68286,-1204.5034 C 846.68286,-1204.5034 848.08286,-1205.1034 848.98286,-1205.4034 C 849.08286,-1205.5034 849.18286,-1205.5034 849.28286,-1205.5034 C 849.98286,-1205.5034 850.48286,-1204.4034 850.48286,-1203.9034 V -1191.6034 C 850.48286,-1191.0034 851.08286,-1190.5034 851.78286,-1190.5034 C 852.78286,-1190.5034 853.48286,-1191.0034 853.48286,-1191.6034 V -1205.5034 C 853.48286,-1206.8034 853.98286,-1207.5034 854.48286,-1207.7034 L 860.58286,-1210.2032 C 860.68286,-1210.2032 860.88286,-1210.3032 860.98286,-1210.3032 C 861.78286,-1210.3032 862.28286,-1209.1034 862.28286,-1208.5034 V -1196.0034 C 862.28286,-1195.4034 862.88286,-1194.9034 863.58286,-1194.9034 C 864.68286,-1194.9034 865.28286,-1195.4034 865.28286,-1196.0034 V -1210.2032 C 865.28286,-1211.0032 865.68286,-1212.2032 866.38286,-1212.5032 C 867.08286,-1212.8032 869.18286,-1213.6032 869.18286,-1213.6032 C 869.88286,-1213.9032 870.38286,-1214.7032 870.38286,-1215.3032 V -1222.4032 C 870.38286,-1222.9032 870.08286,-1223.2032 869.68286,-1223.2032 C 869.48286,-1223.2032 869.38286,-1223.2032 869.18286,-1223.1032 L 866.58286,-1222.1032 C 865.98286,-1222.1032 865.28286,-1222.7032 865.28286,-1223.9032 V -1233.2032 C 865.28286,-1233.9032 865.78286,-1235.8032 866.58286,-1236.1032 L 869.18286,-1237.1032 C 869.88286,-1237.4032 870.38286,-1238.2032 870.38286,-1238.8032 V -1245.9032 C 870.38286,-1246.4032 870.08286,-1246.7032 869.68286,-1246.7032 C 869.48286,-1246.7032 869.38286,-1246.7032 869.18286,-1246.6032 C 869.18286,-1246.6032 867.18286,-1245.8032 866.68286,-1245.7032 C 865.98286,-1245.7032 865.28286,-1246.2032 865.28286,-1247.0032 V -1259.2032 C 865.28286,-1259.8032 864.68286,-1260.3032 863.88286,-1260.3032 C 862.88286,-1260.3032 862.28286,-1259.8032 862.28286,-1259.2032 V -1246.2032 C 862.18286,-1245.2032 861.88286,-1243.9032 860.98286,-1243.3032 C 859.78286,-1242.6032 856.38286,-1241.2032 854.68286,-1240.8032 C 853.78286,-1240.8032 853.48286,-1242.0032 853.48286,-1242.8032 V -1254.8032 C 853.48286,-1255.4032 852.78286,-1255.9032 852.08286,-1255.9032 C 851.08286,-1255.9032 850.48286,-1255.4032 850.48286,-1254.8032 V -1241.3032 C 850.48286,-1239.9032 849.88286,-1238.9032 849.28286,-1238.6032 C 848.68286,-1238.3032 846.68286,-1237.5032 846.68286,-1237.5032 C 845.98286,-1237.3032 845.48286,-1236.5032 845.48286,-1235.9032 V -1228.8032 C 845.48286,-1228.2032 845.78286,-1227.9032 846.28286,-1227.9032 C 846.68286,-1227.9032 848.58286,-1228.8032 848.88286,-1229.0032 C 849.88286,-1229.0032 850.48286,-1228.5032 850.48286,-1227.3032 V -1217.4032 C 850.48286,-1216.3032 849.98286,-1215.4032 849.38286,-1215.1032 C 848.78286,-1214.9032 846.68286,-1214.0032 846.68286,-1214.0032 C 845.98286,-1213.8032 845.48286,-1213.0032 845.48286,-1212.4032 V -1205.3034 C 845.48286,-1204.7034 845.78286,-1204.4034 846.28286,-1204.4034 M 853.48286,-1229.7032 C 853.68286,-1231.4032 858.28286,-1233.5032 860.78286,-1233.5032 C 861.48286,-1233.5032 862.08286,-1233.3032 862.28286,-1232.9032 C 862.48286,-1232.4032 862.68286,-1229.9032 862.68286,-1227.2032 C 862.68286,-1224.5032 862.48286,-1221.7032 862.28286,-1220.8032 C 861.68286,-1218.8032 856.98286,-1216.8032 854.68286,-1216.8032 C 854.08286,-1216.8032 853.58286,-1217.0032 853.48286,-1217.3032 C 853.28286,-1217.7032 853.18286,-1219.9032 853.18286,-1222.3032 C 853.18286,-1225.4032 853.28286,-1228.9032 853.48286,-1229.7032"
       id="path3129" />
    <path
       class=""
       fill-rule="evenodd"
       d="M 1654.2029,-1162.8274 L 1727.3769,-1156.3104 V -1143.7614 L 1654.2029,-1150.2784 V -1162.8274"
       id="path3131" />
    <path
       class=""
       fill-rule="evenodd"
       d="M 1654.2029,-1178.4524 L 1727.3769,-1171.9354 V -1159.3864 L 1654.2029,-1165.9034 V -1178.4524"
       id="path3133" />
    <path
       class=""
       fill-rule="evenodd"
       d="M 1212.2589,-1100.4014 L 1390.5509,-1132.1864 V -1119.4894 L 1212.2589,-1087.7044 V -1100.4014"
       id="path3135" />
    <path
       class=""
       d="M 1294.8899,-1057.9264 C 1302.8559,-1059.2264 1306.8399,-1061.9934 1306.8399,-1066.2264 C 1306.8399,-1067.5934 1306.4309,-1068.6934 1305.6149,-1069.5264 C 1304.7979,-1070.3604 1303.7229,-1070.7764 1302.3899,-1070.7764 C 1300.3559,-1070.7764 1298.4899,-1069.6604 1296.7899,-1067.4264 L 1295.9899,-1067.6764 C 1296.8229,-1069.2764 1297.9649,-1070.5434 1299.4149,-1071.4764 C 1300.8649,-1072.4104 1302.4559,-1072.8764 1304.1899,-1072.8764 C 1306.1899,-1072.8764 1307.8559,-1072.2764 1309.1899,-1071.0764 C 1310.5229,-1069.8764 1311.1899,-1068.3604 1311.1899,-1066.5264 C 1311.1899,-1064.8264 1310.6479,-1063.4604 1309.5649,-1062.4264 C 1308.4809,-1061.3934 1306.4229,-1060.2934 1303.3899,-1059.1264 V -1058.9764 C 1306.5899,-1057.5104 1308.1899,-1055.0264 1308.1899,-1051.5264 C 1308.1899,-1048.0604 1306.9059,-1045.0604 1304.3399,-1042.5264 C 1301.7729,-1039.9934 1298.4059,-1038.7264 1294.2399,-1038.7264 C 1290.5059,-1038.7264 1288.6399,-1039.7104 1288.6399,-1041.6764 C 1288.6399,-1042.9764 1289.3729,-1043.6264 1290.8399,-1043.6264 C 1291.6729,-1043.6264 1292.7899,-1043.1264 1294.1899,-1042.1264 C 1295.5899,-1041.1264 1296.7399,-1040.6264 1297.6399,-1040.6264 C 1299.4399,-1040.6264 1300.9809,-1041.3854 1302.2649,-1042.9014 C 1303.5479,-1044.4184 1304.1899,-1046.3934 1304.1899,-1048.8264 C 1304.1899,-1051.9604 1303.4059,-1054.1264 1301.8399,-1055.3264 C 1300.2729,-1056.5264 1297.9559,-1057.1264 1294.8899,-1057.1264 V -1057.9264"
       id="path3137" />
    <path
       class=""
       d="M 1526.8459,-1212.8032 C 1526.8459,-1215.6032 1524.6459,-1217.8032 1521.8459,-1217.8032 C 1519.0459,-1217.8032 1516.8459,-1215.6032 1516.8459,-1212.8032 C 1516.8459,-1210.0032 1519.0459,-1207.8034 1521.8459,-1207.8034 C 1524.6459,-1207.8034 1526.8459,-1210.0032 1526.8459,-1212.8032"
       id="path3139" />
  </g>
</svg>
