<?xml version="1.0" encoding="UTF-8" standalone="no"?>
<svg
   width="439.07706mm"
   height="75.209969mm"
   viewBox="0 0 1659.5039 284.25816"
   version="1.2"
   id="svg3817"
   sodipodi:docname="transponiertes_Beispiel_(ohne_Tonart)_vom_Ausgang_h-moll.svg"
   inkscape:version="1.1-dev (0486c1a, 2020-10-10)"
   xmlns:inkscape="http://www.inkscape.org/namespaces/inkscape"
   xmlns:sodipodi="http://sodipodi.sourceforge.net/DTD/sodipodi-0.dtd"
   xmlns="http://www.w3.org/2000/svg"
   xmlns:svg="http://www.w3.org/2000/svg"
   xmlns:rdf="http://www.w3.org/1999/02/22-rdf-syntax-ns#"
   xmlns:cc="http://creativecommons.org/ns#"
   xmlns:dc="http://purl.org/dc/elements/1.1/">
  <defs
     id="defs3821" />
  <sodipodi:namedview
     pagecolor="#ffffff"
     bordercolor="#666666"
     borderopacity="1"
     objecttolerance="10"
     gridtolerance="10"
     guidetolerance="10"
     inkscape:pageopacity="0"
     inkscape:pageshadow="2"
     inkscape:window-width="1039"
     inkscape:window-height="480"
     id="namedview3819"
     showgrid="false"
     units="mm"
     lock-margins="false"
     fit-margin-top="6"
     fit-margin-left="6"
     fit-margin-right="6"
     fit-margin-bottom="1"
     inkscape:zoom="0.28424779"
     inkscape:cx="777.49065"
     inkscape:cy="439.75715"
     inkscape:window-x="245"
     inkscape:window-y="214"
     inkscape:window-maximized="0"
     inkscape:current-layer="svg3817" />
  <title
     id="title3717">Unbenannt</title>
  <desc
     id="desc3719">Generated by MuseScore 3.5.2</desc>
  <metadata
     id="metadata3823">
    <rdf:RDF>
      <cc:Work
         rdf:about="">
        <dc:title>Unbenannt</dc:title>
      </cc:Work>
    </rdf:RDF>
  </metadata>
  <g
     id="g4663"
     transform="translate(654.7252,-586.16478)">
    <path
       class=""
       stroke="#000000"
       stroke-width="2.5"
       stroke-linecap="round"
       stroke-linejoin="round"
       fill-rule="evenodd"
       d="M 497.75147,622.56679 C 593.47147,573.06218 853.81147,610.56219 931.66147,685.06639 C 852.96147,616.50089 592.61147,579.00089 497.75147,622.56679"
       id="path3381" />
    <path
       class=""
       stroke="#000000"
       stroke-width="2.5"
       stroke-linecap="round"
       stroke-linejoin="round"
       fill-rule="evenodd"
       d="M 72.741466,660.06679 C 131.19847,602.93289 313.31847,595.43289 376.27147,647.56679 C 313.56547,601.42779 131.44547,608.92779 72.741466,660.06679"
       id="path3383" />
    <path
       class=""
       stroke="#000000"
       stroke-width="2.5"
       stroke-linecap="round"
       stroke-linejoin="round"
       fill-rule="evenodd"
       d="M -411.65753,722.56639 C -373.77353,678.19139 -291.72153,671.94139 -247.55353,710.06639 C -291.26553,677.92339 -373.31753,684.17339 -411.65753,722.56639"
       id="path3385" />
    <polyline
       class=""
       stroke="#a0a0a4"
       stroke-width="4"
       stroke-linejoin="bevel"
       points="1099.3,97.0614 1099.3,200.311"
       id="polyline3387"
       transform="translate(-651.99853,571.38039)" />
    <polyline
       class=""
       stroke="#000000"
       stroke-width="3.25"
       stroke-linejoin="bevel"
       points="1101.3,98.6864 1738.1,98.6864"
       id="polyline3389"
       transform="matrix(0.83668342,0,0,1.0035701,-472.13798,570.84978)" />
    <polyline
       class=""
       stroke="#000000"
       stroke-width="3.25"
       stroke-linejoin="bevel"
       points="1101.3,123.686 1738.1,123.686"
       id="polyline3391"
       transform="matrix(0.83668342,0,0,1.0035701,-472.13798,570.84978)" />
    <polyline
       class=""
       stroke="#000000"
       stroke-width="3.25"
       stroke-linejoin="bevel"
       points="1101.3,148.686 1738.1,148.686"
       id="polyline3393"
       transform="matrix(0.83668342,0,0,1.0035701,-472.13798,570.84978)" />
    <polyline
       class=""
       stroke="#000000"
       stroke-width="3.25"
       stroke-linejoin="bevel"
       points="1101.3,173.686 1738.1,173.686"
       id="polyline3395"
       transform="matrix(0.83668342,0,0,1.0035701,-472.13798,570.84978)" />
    <polyline
       class=""
       stroke="#000000"
       stroke-width="3.25"
       stroke-linejoin="bevel"
       points="1101.3,198.686 1738.1,198.686"
       id="polyline3397"
       transform="matrix(0.83668342,0,0,1.0035701,-472.13798,570.84978)" />
    <polyline
       class=""
       stroke="#000000"
       stroke-width="3.25"
       stroke-linejoin="bevel"
       points="19.9505,98.6864 1101.3,98.6864"
       id="polyline3399"
       transform="translate(-651.99853,571.38039)" />
    <polyline
       class=""
       stroke="#000000"
       stroke-width="3.25"
       stroke-linejoin="bevel"
       points="19.9505,123.686 1101.3,123.686"
       id="polyline3401"
       transform="translate(-651.99853,571.38039)" />
    <polyline
       class=""
       stroke="#000000"
       stroke-width="3.25"
       stroke-linejoin="bevel"
       points="19.9505,148.686 1101.3,148.686"
       id="polyline3403"
       transform="translate(-651.99853,571.38039)" />
    <polyline
       class=""
       stroke="#000000"
       stroke-width="3.25"
       stroke-linejoin="bevel"
       points="19.9505,173.686 1101.3,173.686"
       id="polyline3405"
       transform="translate(-651.99853,571.38039)" />
    <polyline
       class=""
       stroke="#000000"
       stroke-width="3.25"
       stroke-linejoin="bevel"
       points="19.9505,198.686 1101.3,198.686"
       id="polyline3407"
       transform="translate(-651.99853,571.38039)" />
    <path
       class=""
       d="M -481.65453,778.46639 C -481.55453,778.46639 -481.35453,778.36639 -481.25453,778.36639 C -481.25453,778.36639 -479.85453,777.76639 -478.95453,777.46639 C -478.85453,777.36639 -478.75453,777.36639 -478.65453,777.36639 C -477.95453,777.36639 -477.45453,778.46639 -477.45453,778.96639 V 791.26639 C -477.45453,791.86639 -476.85453,792.36639 -476.15453,792.36639 C -475.15453,792.36639 -474.45453,791.86639 -474.45453,791.26639 V 777.36639 C -474.45453,776.06639 -473.95453,775.36639 -473.45453,775.16639 L -467.35453,772.66639 C -467.25453,772.66639 -467.05453,772.56639 -466.95453,772.56639 C -466.15453,772.56639 -465.65453,773.76639 -465.65453,774.36639 V 786.86639 C -465.65453,787.46639 -465.05453,787.96639 -464.35453,787.96639 C -463.25453,787.96639 -462.65453,787.46639 -462.65453,786.86639 V 772.66639 C -462.65453,771.86639 -462.25453,770.66639 -461.55453,770.36639 C -460.85453,770.06639 -458.75453,769.26639 -458.75453,769.26639 C -458.05453,768.96639 -457.55453,768.16639 -457.55453,767.56639 V 760.46639 C -457.55453,759.96639 -457.85453,759.66639 -458.25453,759.66639 C -458.45453,759.66639 -458.55453,759.66639 -458.75453,759.76639 L -461.35453,760.76639 C -461.95453,760.76639 -462.65453,760.16639 -462.65453,758.96639 V 749.66639 C -462.65453,748.96639 -462.15453,747.06639 -461.35453,746.76639 L -458.75453,745.76639 C -458.05453,745.46639 -457.55453,744.66639 -457.55453,744.06639 V 736.96639 C -457.55453,736.46639 -457.85453,736.16639 -458.25453,736.16639 C -458.45453,736.16639 -458.55453,736.16639 -458.75453,736.26639 C -458.75453,736.26639 -460.75453,737.06639 -461.25453,737.16639 C -461.95453,737.16639 -462.65453,736.66639 -462.65453,735.86639 V 723.66639 C -462.65453,723.06639 -463.25453,722.56639 -464.05453,722.56639 C -465.05453,722.56639 -465.65453,723.06639 -465.65453,723.66639 V 736.66639 C -465.75453,737.66639 -466.05453,738.96639 -466.95453,739.56639 C -468.15453,740.26639 -471.55453,741.66639 -473.25453,742.06639 C -474.15453,742.06639 -474.45453,740.86639 -474.45453,740.06639 V 728.06639 C -474.45453,727.46639 -475.15453,726.96639 -475.85453,726.96639 C -476.85453,726.96639 -477.45453,727.46639 -477.45453,728.06639 V 741.56639 C -477.45453,742.96639 -478.05453,743.96639 -478.65453,744.26639 C -479.25453,744.56639 -481.25453,745.36639 -481.25453,745.36639 C -481.95453,745.56639 -482.45453,746.36639 -482.45453,746.96639 V 754.06639 C -482.45453,754.66639 -482.15453,754.96639 -481.65453,754.96639 C -481.25453,754.96639 -479.35453,754.06639 -479.05453,753.86639 C -478.05453,753.86639 -477.45453,754.36639 -477.45453,755.56639 V 765.46639 C -477.45453,766.56639 -477.95453,767.46639 -478.55453,767.76639 C -479.15453,767.96639 -481.25453,768.86639 -481.25453,768.86639 C -481.95453,769.06639 -482.45453,769.86639 -482.45453,770.46639 V 777.56639 C -482.45453,778.16639 -482.15453,778.46639 -481.65453,778.46639 M -474.45453,753.16639 C -474.25453,751.46639 -469.65453,749.36639 -467.15453,749.36639 C -466.45453,749.36639 -465.85453,749.56639 -465.65453,749.96639 C -465.45453,750.46639 -465.25453,752.96639 -465.25453,755.66639 C -465.25453,758.36639 -465.45453,761.16639 -465.65453,762.06639 C -466.25453,764.06639 -470.95453,766.06639 -473.25453,766.06639 C -473.85453,766.06639 -474.35453,765.86639 -474.45453,765.56639 C -474.65453,765.16639 -474.75453,762.96639 -474.75453,760.56639 C -474.75453,757.46639 -474.65453,753.96639 -474.45453,753.16639"
       id="path3409" />
    <path
       class=""
       d="M 885.62147,728.46639 C 885.72147,728.46639 885.92147,728.36639 886.02147,728.36639 C 886.02147,728.36639 887.42147,727.76639 888.32147,727.46639 C 888.42147,727.36639 888.52147,727.36639 888.62147,727.36639 C 889.32147,727.36639 889.82147,728.46639 889.82147,728.96639 V 741.26639 C 889.82147,741.86639 890.42147,742.36639 891.12147,742.36639 C 892.12147,742.36639 892.82147,741.86639 892.82147,741.26639 V 727.36639 C 892.82147,726.06639 893.32147,725.36639 893.82147,725.16639 L 899.92147,722.66639 C 900.02147,722.66639 900.22147,722.56639 900.32147,722.56639 C 901.12147,722.56639 901.62147,723.76639 901.62147,724.36639 V 736.86639 C 901.62147,737.46639 902.22147,737.96639 902.92147,737.96639 C 904.02147,737.96639 904.62147,737.46639 904.62147,736.86639 V 722.66639 C 904.62147,721.86639 905.02147,720.66639 905.72147,720.36639 C 906.42147,720.06639 908.52147,719.26639 908.52147,719.26639 C 909.22147,718.96639 909.72147,718.16639 909.72147,717.56639 V 710.46639 C 909.72147,709.96639 909.42147,709.66639 909.02147,709.66639 C 908.82147,709.66639 908.72147,709.66639 908.52147,709.76639 L 905.92147,710.76639 C 905.32147,710.76639 904.62147,710.16639 904.62147,708.96639 V 699.66639 C 904.62147,698.96639 905.12147,697.06639 905.92147,696.76639 L 908.52147,695.76639 C 909.22147,695.46639 909.72147,694.66639 909.72147,694.06639 V 686.96639 C 909.72147,686.46639 909.42147,686.16639 909.02147,686.16639 C 908.82147,686.16639 908.72147,686.16639 908.52147,686.26639 C 908.52147,686.26639 906.52147,687.06639 906.02147,687.16639 C 905.32147,687.16639 904.62147,686.66639 904.62147,685.86639 V 673.66639 C 904.62147,673.06639 904.02147,672.56639 903.22147,672.56639 C 902.22147,672.56639 901.62147,673.06639 901.62147,673.66639 V 686.66639 C 901.52147,687.66639 901.22147,688.96639 900.32147,689.56639 C 899.12147,690.26639 895.72147,691.66639 894.02147,692.06639 C 893.12147,692.06639 892.82147,690.86639 892.82147,690.06639 V 678.06639 C 892.82147,677.46639 892.12147,676.96639 891.42147,676.96639 C 890.42147,676.96639 889.82147,677.46639 889.82147,678.06639 V 691.56639 C 889.82147,692.96639 889.22147,693.96639 888.62147,694.26639 C 888.02147,694.56639 886.02147,695.36639 886.02147,695.36639 C 885.32147,695.56639 884.82147,696.36639 884.82147,696.96639 V 704.06639 C 884.82147,704.66639 885.12147,704.96639 885.62147,704.96639 C 886.02147,704.96639 887.92147,704.06639 888.22147,703.86639 C 889.22147,703.86639 889.82147,704.36639 889.82147,705.56639 V 715.46639 C 889.82147,716.56639 889.32147,717.46639 888.72147,717.76639 C 888.12147,717.96639 886.02147,718.86639 886.02147,718.86639 C 885.32147,719.06639 884.82147,719.86639 884.82147,720.46639 V 727.56639 C 884.82147,728.16639 885.12147,728.46639 885.62147,728.46639 M 892.82147,703.16639 C 893.02147,701.46639 897.62147,699.36639 900.12147,699.36639 C 900.82147,699.36639 901.42147,699.56639 901.62147,699.96639 C 901.82147,700.46639 902.02147,702.96639 902.02147,705.66639 C 902.02147,708.36639 901.82147,711.16639 901.62147,712.06639 C 901.02147,714.06639 896.32147,716.06639 894.02147,716.06639 C 893.42147,716.06639 892.92147,715.86639 892.82147,715.56639 C 892.62147,715.16639 892.52147,712.96639 892.52147,710.56639 C 892.52147,707.46639 892.62147,703.96639 892.82147,703.16639"
       id="path3411" />
    <path
       class=""
       d="M 618.59147,740.96639 C 618.69147,740.96639 618.89147,740.86639 618.99147,740.86639 C 618.99147,740.86639 620.39147,740.26639 621.29147,739.96639 C 621.39147,739.86639 621.49147,739.86639 621.59147,739.86639 C 622.29147,739.86639 622.79147,740.96639 622.79147,741.46639 V 753.76639 C 622.79147,754.36639 623.39147,754.86639 624.09147,754.86639 C 625.09147,754.86639 625.79147,754.36639 625.79147,753.76639 V 739.86639 C 625.79147,738.56639 626.29147,737.86639 626.79147,737.66639 L 632.89147,735.16639 C 632.99147,735.16639 633.19147,735.06639 633.29147,735.06639 C 634.09147,735.06639 634.59147,736.26639 634.59147,736.86639 V 749.36639 C 634.59147,749.96639 635.19147,750.46639 635.89147,750.46639 C 636.99147,750.46639 637.59147,749.96639 637.59147,749.36639 V 735.16639 C 637.59147,734.36639 637.99147,733.16639 638.69147,732.86639 C 639.39147,732.56639 641.49147,731.76639 641.49147,731.76639 C 642.19147,731.46639 642.69147,730.66639 642.69147,730.06639 V 722.96639 C 642.69147,722.46639 642.39147,722.16639 641.99147,722.16639 C 641.79147,722.16639 641.69147,722.16639 641.49147,722.26639 L 638.89147,723.26639 C 638.29147,723.26639 637.59147,722.66639 637.59147,721.46639 V 712.16639 C 637.59147,711.46639 638.09147,709.56639 638.89147,709.26639 L 641.49147,708.26639 C 642.19147,707.96639 642.69147,707.16639 642.69147,706.56639 V 699.46639 C 642.69147,698.96639 642.39147,698.66639 641.99147,698.66639 C 641.79147,698.66639 641.69147,698.66639 641.49147,698.76639 C 641.49147,698.76639 639.49147,699.56639 638.99147,699.66639 C 638.29147,699.66639 637.59147,699.16639 637.59147,698.36639 V 686.16639 C 637.59147,685.56639 636.99147,685.06639 636.19147,685.06639 C 635.19147,685.06639 634.59147,685.56639 634.59147,686.16639 V 699.16639 C 634.49147,700.16639 634.19147,701.46639 633.29147,702.06639 C 632.09147,702.76639 628.69147,704.16639 626.99147,704.56639 C 626.09147,704.56639 625.79147,703.36639 625.79147,702.56639 V 690.56639 C 625.79147,689.96639 625.09147,689.46639 624.39147,689.46639 C 623.39147,689.46639 622.79147,689.96639 622.79147,690.56639 V 704.06639 C 622.79147,705.46639 622.19147,706.46639 621.59147,706.76639 C 620.99147,707.06639 618.99147,707.86639 618.99147,707.86639 C 618.29147,708.06639 617.79147,708.86639 617.79147,709.46639 V 716.56639 C 617.79147,717.16639 618.09147,717.46639 618.59147,717.46639 C 618.99147,717.46639 620.89147,716.56639 621.19147,716.36639 C 622.19147,716.36639 622.79147,716.86639 622.79147,718.06639 V 727.96639 C 622.79147,729.06639 622.29147,729.96639 621.69147,730.26639 C 621.09147,730.46639 618.99147,731.36639 618.99147,731.36639 C 618.29147,731.56639 617.79147,732.36639 617.79147,732.96639 V 740.06639 C 617.79147,740.66639 618.09147,740.96639 618.59147,740.96639 M 625.79147,715.66639 C 625.99147,713.96639 630.59147,711.86639 633.09147,711.86639 C 633.79147,711.86639 634.39147,712.06639 634.59147,712.46639 C 634.79147,712.96639 634.99147,715.46639 634.99147,718.16639 C 634.99147,720.86639 634.79147,723.66639 634.59147,724.56639 C 633.99147,726.56639 629.29147,728.56639 626.99147,728.56639 C 626.39147,728.56639 625.89147,728.36639 625.79147,728.06639 C 625.59147,727.66639 625.49147,725.46639 625.49147,723.06639 C 625.49147,719.96639 625.59147,716.46639 625.79147,715.66639"
       id="path3413" />
    <path
       class=""
       d="M 26.694466,703.46639 C 26.794466,703.46639 26.994466,703.36639 27.094466,703.36639 C 27.094466,703.36639 28.494466,702.76639 29.394466,702.46639 C 29.494466,702.36639 29.594466,702.36639 29.694466,702.36639 C 30.394466,702.36639 30.894466,703.46639 30.894466,703.96639 V 716.26639 C 30.894466,716.86639 31.494466,717.36639 32.194466,717.36639 C 33.194466,717.36639 33.894466,716.86639 33.894466,716.26639 V 702.36639 C 33.894466,701.06639 34.394466,700.36639 34.894466,700.16639 L 40.994466,697.66639 C 41.094466,697.66639 41.294466,697.56639 41.394466,697.56639 C 42.194466,697.56639 42.694466,698.76639 42.694466,699.36639 V 711.86639 C 42.694466,712.46639 43.294466,712.96639 43.994466,712.96639 C 45.094466,712.96639 45.694466,712.46639 45.694466,711.86639 V 697.66639 C 45.694466,696.86639 46.094466,695.66639 46.794466,695.36639 C 47.494466,695.06639 49.594466,694.26639 49.594466,694.26639 C 50.294466,693.96639 50.794466,693.16639 50.794466,692.56639 V 685.46639 C 50.794466,684.96639 50.494466,684.66639 50.094466,684.66639 C 49.894466,684.66639 49.794466,684.66639 49.594466,684.76639 L 46.994466,685.76639 C 46.394466,685.76639 45.694466,685.16639 45.694466,683.96639 V 674.66639 C 45.694466,673.96639 46.194466,672.06639 46.994466,671.76639 L 49.594466,670.76679 C 50.294466,670.46679 50.794466,669.66679 50.794466,669.06679 V 661.96679 C 50.794466,661.46679 50.494466,661.16679 50.094466,661.16679 C 49.894466,661.16679 49.794466,661.16679 49.594466,661.26679 C 49.594466,661.26679 47.594466,662.06679 47.094466,662.16679 C 46.394466,662.16679 45.694466,661.66679 45.694466,660.86679 V 648.66679 C 45.694466,648.06679 45.094466,647.56679 44.294466,647.56679 C 43.294466,647.56679 42.694466,648.06679 42.694466,648.66679 V 661.66679 C 42.594466,662.66679 42.294466,663.96679 41.394466,664.56679 C 40.194466,665.26679 36.794466,666.66679 35.094466,667.06679 C 34.194466,667.06679 33.894466,665.86679 33.894466,665.06679 V 653.06679 C 33.894466,652.46679 33.194466,651.96679 32.494466,651.96679 C 31.494466,651.96679 30.894466,652.46679 30.894466,653.06679 V 666.56679 C 30.894466,667.96679 30.294466,668.96679 29.694466,669.26679 C 29.094466,669.56679 27.094466,670.36679 27.094466,670.36679 C 26.394466,670.56679 25.894466,671.36679 25.894466,671.96639 V 679.06639 C 25.894466,679.66639 26.194466,679.96639 26.694466,679.96639 C 27.094466,679.96639 28.994466,679.06639 29.294466,678.86639 C 30.294466,678.86639 30.894466,679.36639 30.894466,680.56639 V 690.46639 C 30.894466,691.56639 30.394466,692.46639 29.794466,692.76639 C 29.194466,692.96639 27.094466,693.86639 27.094466,693.86639 C 26.394466,694.06639 25.894466,694.86639 25.894466,695.46639 V 702.56639 C 25.894466,703.16639 26.194466,703.46639 26.694466,703.46639 M 33.894466,678.16639 C 34.094466,676.46639 38.694466,674.36639 41.194466,674.36639 C 41.894466,674.36639 42.494466,674.56639 42.694466,674.96639 C 42.894466,675.46639 43.094466,677.96639 43.094466,680.66639 C 43.094466,683.36639 42.894466,686.16639 42.694466,687.06639 C 42.094466,689.06639 37.394466,691.06639 35.094466,691.06639 C 34.494466,691.06639 33.994466,690.86639 33.894466,690.56639 C 33.694466,690.16639 33.594466,687.96639 33.594466,685.56639 C 33.594466,682.46639 33.694466,678.96639 33.894466,678.16639"
       id="path3415" />
    <path
       class=""
       d="M -186.83553,728.46639 C -186.73553,728.46639 -186.53553,728.36639 -186.43553,728.36639 C -186.43553,728.36639 -185.03553,727.76639 -184.13553,727.46639 C -184.03553,727.36639 -183.93553,727.36639 -183.83553,727.36639 C -183.13553,727.36639 -182.63553,728.46639 -182.63553,728.96639 V 741.26639 C -182.63553,741.86639 -182.03553,742.36639 -181.33553,742.36639 C -180.33553,742.36639 -179.63553,741.86639 -179.63553,741.26639 V 727.36639 C -179.63553,726.06639 -179.13553,725.36639 -178.63553,725.16639 L -172.53553,722.66639 C -172.43553,722.66639 -172.23553,722.56639 -172.13553,722.56639 C -171.33553,722.56639 -170.83553,723.76639 -170.83553,724.36639 V 736.86639 C -170.83553,737.46639 -170.23553,737.96639 -169.53553,737.96639 C -168.43553,737.96639 -167.83553,737.46639 -167.83553,736.86639 V 722.66639 C -167.83553,721.86639 -167.43553,720.66639 -166.73553,720.36639 C -166.03553,720.06639 -163.93553,719.26639 -163.93553,719.26639 C -163.23553,718.96639 -162.73553,718.16639 -162.73553,717.56639 V 710.46639 C -162.73553,709.96639 -163.03553,709.66639 -163.43553,709.66639 C -163.63553,709.66639 -163.73553,709.66639 -163.93553,709.76639 L -166.53553,710.76639 C -167.13553,710.76639 -167.83553,710.16639 -167.83553,708.96639 V 699.66639 C -167.83553,698.96639 -167.33553,697.06639 -166.53553,696.76639 L -163.93553,695.76639 C -163.23553,695.46639 -162.73553,694.66639 -162.73553,694.06639 V 686.96639 C -162.73553,686.46639 -163.03553,686.16639 -163.43553,686.16639 C -163.63553,686.16639 -163.73553,686.16639 -163.93553,686.26639 C -163.93553,686.26639 -165.93553,687.06639 -166.43553,687.16639 C -167.13553,687.16639 -167.83553,686.66639 -167.83553,685.86639 V 673.66639 C -167.83553,673.06639 -168.43553,672.56639 -169.23553,672.56639 C -170.23553,672.56639 -170.83553,673.06639 -170.83553,673.66639 V 686.66639 C -170.93553,687.66639 -171.23553,688.96639 -172.13553,689.56639 C -173.33553,690.26639 -176.73553,691.66639 -178.43553,692.06639 C -179.33553,692.06639 -179.63553,690.86639 -179.63553,690.06639 V 678.06639 C -179.63553,677.46639 -180.33553,676.96639 -181.03553,676.96639 C -182.03553,676.96639 -182.63553,677.46639 -182.63553,678.06639 V 691.56639 C -182.63553,692.96639 -183.23553,693.96639 -183.83553,694.26639 C -184.43553,694.56639 -186.43553,695.36639 -186.43553,695.36639 C -187.13553,695.56639 -187.63553,696.36639 -187.63553,696.96639 V 704.06639 C -187.63553,704.66639 -187.33553,704.96639 -186.83553,704.96639 C -186.43553,704.96639 -184.53553,704.06639 -184.23553,703.86639 C -183.23553,703.86639 -182.63553,704.36639 -182.63553,705.56639 V 715.46639 C -182.63553,716.56639 -183.13553,717.46639 -183.73553,717.76639 C -184.33553,717.96639 -186.43553,718.86639 -186.43553,718.86639 C -187.13553,719.06639 -187.63553,719.86639 -187.63553,720.46639 V 727.56639 C -187.63553,728.16639 -187.33553,728.46639 -186.83553,728.46639 M -179.63553,703.16639 C -179.43553,701.46639 -174.83553,699.36639 -172.33553,699.36639 C -171.63553,699.36639 -171.03553,699.56639 -170.83553,699.96639 C -170.63553,700.46639 -170.43553,702.96639 -170.43553,705.66639 C -170.43553,708.36639 -170.63553,711.16639 -170.83553,712.06639 C -171.43553,714.06639 -176.13553,716.06639 -178.43553,716.06639 C -179.03553,716.06639 -179.53553,715.86639 -179.63553,715.56639 C -179.83553,715.16639 -179.93553,712.96639 -179.93553,710.56639 C -179.93553,707.46639 -179.83553,703.96639 -179.63553,703.16639"
       id="path3417" />
    <path
       class=""
       d="M -80.070534,690.96639 C -79.970534,690.96639 -79.770534,690.86639 -79.670534,690.86639 C -79.670534,690.86639 -78.270534,690.26639 -77.370534,689.96639 C -77.270534,689.86639 -77.170534,689.86639 -77.070534,689.86639 C -76.370534,689.86639 -75.870534,690.96639 -75.870534,691.46639 V 703.76639 C -75.870534,704.36639 -75.270534,704.86639 -74.570534,704.86639 C -73.570534,704.86639 -72.870534,704.36639 -72.870534,703.76639 V 689.86639 C -72.870534,688.56639 -72.370534,687.86639 -71.870534,687.66639 L -65.770534,685.16639 C -65.670534,685.16639 -65.470534,685.06639 -65.370534,685.06639 C -64.570534,685.06639 -64.070534,686.26639 -64.070534,686.86639 V 699.36639 C -64.070534,699.96639 -63.470534,700.46639 -62.770534,700.46639 C -61.670534,700.46639 -61.070534,699.96639 -61.070534,699.36639 V 685.16639 C -61.070534,684.36639 -60.670534,683.16639 -59.970534,682.86639 C -59.270534,682.56639 -57.170534,681.76639 -57.170534,681.76639 C -56.470534,681.46639 -55.970534,680.66639 -55.970534,680.06639 V 672.96639 C -55.970534,672.46639 -56.270534,672.16639 -56.670534,672.16639 C -56.870534,672.16639 -56.970534,672.16639 -57.170534,672.26639 L -59.770534,673.26639 C -60.370534,673.26639 -61.070534,672.66639 -61.070534,671.46639 V 662.16679 C -61.070534,661.46679 -60.570534,659.56679 -59.770534,659.26679 L -57.170534,658.26679 C -56.470534,657.96679 -55.970534,657.16679 -55.970534,656.56679 V 649.46679 C -55.970534,648.96679 -56.270534,648.66679 -56.670534,648.66679 C -56.870534,648.66679 -56.970534,648.66679 -57.170534,648.76679 C -57.170534,648.76679 -59.170534,649.56679 -59.670534,649.66679 C -60.370534,649.66679 -61.070534,649.16679 -61.070534,648.36679 V 636.16679 C -61.070534,635.56679 -61.670534,635.06679 -62.470534,635.06679 C -63.470534,635.06679 -64.070534,635.56679 -64.070534,636.16679 V 649.16679 C -64.170534,650.16679 -64.470534,651.46679 -65.370534,652.06679 C -66.570534,652.76679 -69.970534,654.16679 -71.670534,654.56679 C -72.570534,654.56679 -72.870534,653.36679 -72.870534,652.56679 V 640.56679 C -72.870534,639.96679 -73.570534,639.46679 -74.270534,639.46679 C -75.270534,639.46679 -75.870534,639.96679 -75.870534,640.56679 V 654.06679 C -75.870534,655.46679 -76.470534,656.46679 -77.070534,656.76679 C -77.670534,657.06679 -79.670534,657.86679 -79.670534,657.86679 C -80.370534,658.06679 -80.870534,658.86679 -80.870534,659.46679 V 666.56679 C -80.870534,667.16679 -80.570534,667.46679 -80.070534,667.46679 C -79.670534,667.46679 -77.770534,666.56679 -77.470534,666.36679 C -76.470534,666.36679 -75.870534,666.86679 -75.870534,668.06679 V 677.96639 C -75.870534,679.06639 -76.370534,679.96639 -76.970534,680.26639 C -77.570534,680.46639 -79.670534,681.36639 -79.670534,681.36639 C -80.370534,681.56639 -80.870534,682.36639 -80.870534,682.96639 V 690.06639 C -80.870534,690.66639 -80.570534,690.96639 -80.070534,690.96639 M -72.870534,665.66679 C -72.670534,663.96679 -68.070534,661.86679 -65.570534,661.86679 C -64.870534,661.86679 -64.270534,662.06679 -64.070534,662.46679 C -63.870534,662.96679 -63.670534,665.46679 -63.670534,668.16679 C -63.670534,670.86679 -63.870534,673.66639 -64.070534,674.56639 C -64.670534,676.56639 -69.370534,678.56639 -71.670534,678.56639 C -72.270534,678.56639 -72.770534,678.36639 -72.870534,678.06639 C -73.070534,677.66639 -73.170534,675.46639 -73.170534,673.06639 C -73.170534,669.96679 -73.070534,666.46679 -72.870534,665.66679"
       id="path3419" />
    <path
       class=""
       d="M -293.60053,753.46639 C -293.50053,753.46639 -293.30053,753.36639 -293.20053,753.36639 C -293.20053,753.36639 -291.80053,752.76639 -290.90053,752.46639 C -290.80053,752.36639 -290.70053,752.36639 -290.60053,752.36639 C -289.90053,752.36639 -289.40053,753.46639 -289.40053,753.96639 V 766.26639 C -289.40053,766.86639 -288.80053,767.36639 -288.10053,767.36639 C -287.10053,767.36639 -286.40053,766.86639 -286.40053,766.26639 V 752.36639 C -286.40053,751.06639 -285.90053,750.36639 -285.40053,750.16639 L -279.30053,747.66639 C -279.20053,747.66639 -279.00053,747.56639 -278.90053,747.56639 C -278.10053,747.56639 -277.60053,748.76639 -277.60053,749.36639 V 761.86639 C -277.60053,762.46639 -277.00053,762.96639 -276.30053,762.96639 C -275.20053,762.96639 -274.60053,762.46639 -274.60053,761.86639 V 747.66639 C -274.60053,746.86639 -274.20053,745.66639 -273.50053,745.36639 C -272.80053,745.06639 -270.70053,744.26639 -270.70053,744.26639 C -270.00053,743.96639 -269.50053,743.16639 -269.50053,742.56639 V 735.46639 C -269.50053,734.96639 -269.80053,734.66639 -270.20053,734.66639 C -270.40053,734.66639 -270.50053,734.66639 -270.70053,734.76639 L -273.30053,735.76639 C -273.90053,735.76639 -274.60053,735.16639 -274.60053,733.96639 V 724.66639 C -274.60053,723.96639 -274.10053,722.06639 -273.30053,721.76639 L -270.70053,720.76639 C -270.00053,720.46639 -269.50053,719.66639 -269.50053,719.06639 V 711.96639 C -269.50053,711.46639 -269.80053,711.16639 -270.20053,711.16639 C -270.40053,711.16639 -270.50053,711.16639 -270.70053,711.26639 C -270.70053,711.26639 -272.70053,712.06639 -273.20053,712.16639 C -273.90053,712.16639 -274.60053,711.66639 -274.60053,710.86639 V 698.66639 C -274.60053,698.06639 -275.20053,697.56639 -276.00053,697.56639 C -277.00053,697.56639 -277.60053,698.06639 -277.60053,698.66639 V 711.66639 C -277.70053,712.66639 -278.00053,713.96639 -278.90053,714.56639 C -280.10053,715.26639 -283.50053,716.66639 -285.20053,717.06639 C -286.10053,717.06639 -286.40053,715.86639 -286.40053,715.06639 V 703.06639 C -286.40053,702.46639 -287.10053,701.96639 -287.80053,701.96639 C -288.80053,701.96639 -289.40053,702.46639 -289.40053,703.06639 V 716.56639 C -289.40053,717.96639 -290.00053,718.96639 -290.60053,719.26639 C -291.20053,719.56639 -293.20053,720.36639 -293.20053,720.36639 C -293.90053,720.56639 -294.40053,721.36639 -294.40053,721.96639 V 729.06639 C -294.40053,729.66639 -294.10053,729.96639 -293.60053,729.96639 C -293.20053,729.96639 -291.30053,729.06639 -291.00053,728.86639 C -290.00053,728.86639 -289.40053,729.36639 -289.40053,730.56639 V 740.46639 C -289.40053,741.56639 -289.90053,742.46639 -290.50053,742.76639 C -291.10053,742.96639 -293.20053,743.86639 -293.20053,743.86639 C -293.90053,744.06639 -294.40053,744.86639 -294.40053,745.46639 V 752.56639 C -294.40053,753.16639 -294.10053,753.46639 -293.60053,753.46639 M -286.40053,728.16639 C -286.20053,726.46639 -281.60053,724.36639 -279.10053,724.36639 C -278.40053,724.36639 -277.80053,724.56639 -277.60053,724.96639 C -277.40053,725.46639 -277.20053,727.96639 -277.20053,730.66639 C -277.20053,733.36639 -277.40053,736.16639 -277.60053,737.06639 C -278.20053,739.06639 -282.90053,741.06639 -285.20053,741.06639 C -285.80053,741.06639 -286.30053,740.86639 -286.40053,740.56639 C -286.60053,740.16639 -286.70053,737.96639 -286.70053,735.56639 C -286.70053,732.46639 -286.60053,728.96639 -286.40053,728.16639"
       id="path3421" />
    <polyline
       class=""
       stroke="#000000"
       stroke-width="4"
       stroke-linecap="square"
       stroke-linejoin="bevel"
       points="1128.3,73.6864 1171.2,73.6864"
       id="polyline3423"
       transform="translate(-651.99853,571.38039)" />
    <polyline
       class=""
       stroke="#000000"
       stroke-width="3"
       stroke-linecap="round"
       stroke-linejoin="bevel"
       points="1301.69,152.046 1301.69,226.811"
       id="polyline3425"
       transform="translate(-651.99853,571.38039)" />
    <polyline
       class=""
       stroke="#000000"
       stroke-width="3"
       stroke-linecap="round"
       stroke-linejoin="bevel"
       points="389.496,164.546 389.496,229.936"
       id="polyline3427"
       transform="translate(-651.99853,571.38039)" />
    <polyline
       class=""
       stroke="#000000"
       stroke-width="3"
       stroke-linecap="round"
       stroke-linejoin="bevel"
       points="1568.72,139.546 1568.72,217.436"
       id="polyline3429"
       transform="translate(-651.99853,571.38039)" />
    <polyline
       class=""
       stroke="#000000"
       stroke-width="3"
       stroke-linecap="round"
       stroke-linejoin="bevel"
       points="1013.32,102.046 1013.32,173.686"
       id="polyline3431"
       transform="translate(-651.99853,571.38039)" />
    <polyline
       class=""
       stroke="#000000"
       stroke-width="3"
       stroke-linecap="round"
       stroke-linejoin="bevel"
       points="1134.8,77.0464 1134.8,161.186"
       id="polyline3433"
       transform="translate(-651.99853,571.38039)" />
    <polyline
       class=""
       stroke="#000000"
       stroke-width="3"
       stroke-linecap="round"
       stroke-linejoin="bevel"
       points="927.846,89.5464 927.846,167.436"
       id="polyline3435"
       transform="translate(-651.99853,571.38039)" />
    <polyline
       class=""
       stroke="#000000"
       stroke-width="3"
       stroke-linecap="round"
       stroke-linejoin="bevel"
       points="709.791,114.546 709.791,198.686"
       id="polyline3437"
       transform="translate(-651.99853,571.38039)" />
    <polyline
       class=""
       stroke="#000000"
       stroke-width="3"
       stroke-linecap="round"
       stroke-linejoin="bevel"
       points="496.261,139.546 496.261,214.311"
       id="polyline3439"
       transform="translate(-651.99853,571.38039)" />
    <polyline
       class=""
       stroke="#000000"
       stroke-width="3"
       stroke-linecap="round"
       stroke-linejoin="bevel"
       points="603.026,102.046 603.026,198.686"
       id="polyline3441"
       transform="translate(-651.99853,571.38039)" />
    <polyline
       class=""
       stroke="#000000"
       stroke-width="3"
       stroke-linecap="round"
       stroke-linejoin="bevel"
       points="231.341,182.826 231.341,98.6864"
       id="polyline3443"
       transform="translate(-651.99853,571.38039)" />
    <path
       class=""
       d="M -253.20253,746.56639 C -243.30253,746.56639 -231.10253,737.36639 -231.10253,727.86639 C -231.10253,722.26639 -235.60253,718.56639 -242.00253,718.56639 C -254.20253,718.56639 -264.00253,727.66639 -264.00253,737.26639 C -264.00253,743.06639 -259.20253,746.56639 -253.20253,746.56639"
       id="path3445" />
    <path
       class=""
       d="M -441.25553,771.56639 C -431.35553,771.56639 -419.15553,762.36639 -419.15553,752.86639 C -419.15553,747.26639 -423.65553,743.56639 -430.05553,743.56639 C -442.25553,743.56639 -452.05553,752.66639 -452.05553,762.26639 C -452.05553,768.06639 -447.25553,771.56639 -441.25553,771.56639"
       id="path3447" />
    <path
       class=""
       d="M 926.02147,721.56639 C 935.92147,721.56639 948.12147,712.36639 948.12147,702.86639 C 948.12147,697.26639 943.62147,693.56639 937.22147,693.56639 C 925.02147,693.56639 915.22147,702.66639 915.22147,712.26639 C 915.22147,718.06639 920.02147,721.56639 926.02147,721.56639"
       id="path3449" />
    <path
       class=""
       d="M 658.99147,734.06639 C 677.39147,734.06639 681.09147,719.06639 681.09147,715.46639 C 681.09147,709.76639 676.59147,706.06639 670.09147,706.06639 C 653.39147,706.06639 648.19147,718.96639 648.19147,724.76639 C 648.19147,730.66639 652.89147,734.06639 658.99147,734.06639 M 667.49147,725.16639 C 662.49147,728.56639 658.99147,729.76639 656.59147,729.76639 C 654.29147,729.76639 652.89147,728.56639 652.19147,727.16639 C 651.79147,726.56639 651.49147,725.76639 651.49147,724.96639 C 651.49147,719.56639 667.59147,710.66639 672.89147,710.66639 C 674.99147,710.66639 676.19147,711.66639 676.99147,713.06639 C 677.29147,713.66639 677.59147,714.36639 677.59147,715.16639 C 677.59147,717.36639 675.29147,720.06639 667.49147,725.16639"
       id="path3451" />
    <path
       class=""
       d="M 370.62147,684.06639 C 380.52147,684.06639 392.72147,674.86639 392.72147,665.36679 C 392.72147,659.76679 388.22147,656.06679 381.82147,656.06679 C 369.62147,656.06679 359.82147,665.16679 359.82147,674.76639 C 359.82147,680.56639 364.62144,684.06639 370.62147,684.06639"
       id="path3453" />
    <path
       class=""
       d="M 492.10147,659.06679 C 502.00147,659.06679 514.20147,649.86679 514.20147,640.36679 C 514.20147,634.76679 509.70147,631.06679 503.30147,631.06679 C 491.10147,631.06679 481.30147,640.16679 481.30147,649.76679 C 481.30147,655.56679 486.10147,659.06679 492.10147,659.06679"
       id="path3455" />
    <path
       class=""
       d="M 285.14747,671.56639 C 295.04747,671.56639 307.24747,662.36679 307.24747,652.86679 C 307.24747,647.26679 302.74747,643.56679 296.34747,643.56679 C 284.14747,643.56679 274.34747,652.66679 274.34747,662.26679 C 274.34747,668.06679 279.14747,671.56639 285.14747,671.56639"
       id="path3457" />
    <path
       class=""
       d="M 67.092466,696.56639 C 76.992466,696.56639 89.192466,687.36639 89.192466,677.86639 C 89.192466,672.26639 84.692466,668.56679 78.292466,668.56679 C 66.092466,668.56679 56.292466,677.66639 56.292466,687.26639 C 56.292466,693.06639 61.092466,696.56639 67.092466,696.56639"
       id="path3459" />
    <path
       class=""
       d="M -146.43753,721.56639 C -136.53753,721.56639 -124.33753,712.36639 -124.33753,702.86639 C -124.33753,697.26639 -128.83753,693.56639 -135.23753,693.56639 C -147.43753,693.56639 -157.23753,702.66639 -157.23753,712.26639 C -157.23753,718.06639 -152.43753,721.56639 -146.43753,721.56639"
       id="path3461" />
    <path
       class=""
       d="M -39.672534,684.06639 C -29.772534,684.06639 -17.572534,674.86639 -17.572534,665.36679 C -17.572534,659.76679 -22.072534,656.06679 -28.472534,656.06679 C -40.672534,656.06679 -50.472534,665.16679 -50.472534,674.76639 C -50.472534,680.56639 -45.672534,684.06639 -39.672534,684.06639"
       id="path3463" />
    <path
       class=""
       d="M -565.04803,650.76679 C -561.74803,650.76679 -559.04803,653.46679 -559.04803,658.96679 C -559.04803,670.06679 -568.54803,679.06639 -576.44803,685.96639 C -576.74803,686.16639 -576.94803,686.36639 -577.14803,686.36639 C -577.44803,686.36639 -577.64803,685.96639 -577.74803,685.16639 C -578.14803,682.56639 -578.34803,679.16639 -578.34803,675.96639 C -578.34803,660.36679 -571.14803,650.76679 -565.04803,650.76679 M -569.04803,734.76639 C -569.24803,733.66639 -569.14803,733.36639 -568.34803,733.36639 C -568.24803,733.36639 -568.04803,733.36639 -567.94803,733.36639 C -559.84803,734.06639 -553.14803,740.86639 -553.14803,749.66639 C -553.14803,755.96639 -556.94803,761.06639 -562.54803,763.86639 C -563.04803,764.06639 -563.34803,764.26639 -563.54803,764.26639 C -563.94803,764.26639 -564.04803,763.96639 -564.14803,763.26639 L -569.04803,734.76639 M -575.94803,718.86639 C -575.64803,720.76639 -575.64803,720.66639 -577.44803,721.26639 C -586.24803,724.26639 -591.94803,732.16639 -591.94803,740.66639 C -591.94803,749.66639 -587.24803,756.06639 -580.44803,758.36639 C -579.64803,758.66639 -578.44803,758.96639 -577.74803,758.96639 C -576.94803,758.96639 -576.54803,758.46639 -576.54803,757.86639 C -576.54803,757.16639 -577.34803,756.86639 -578.04803,756.56639 C -582.24803,754.76639 -585.24803,750.46639 -585.24803,745.86639 C -585.24803,740.16639 -581.34803,735.86639 -575.24803,734.16639 C -574.74803,734.06639 -574.34803,733.96639 -574.04803,733.96639 C -573.54803,733.96639 -573.34803,734.26639 -573.24803,734.96639 L -568.24803,764.76639 C -568.04803,765.86639 -568.14803,765.86639 -569.64803,766.16639 C -571.24803,766.46639 -573.24803,766.66639 -575.24803,766.66639 C -592.74803,766.66639 -604.04803,756.96639 -604.04803,743.06639 C -604.04803,726.06639 -591.54803,715.46639 -579.44803,705.66639 C -579.04803,705.36639 -578.74803,705.16639 -578.54803,705.16639 C -578.24803,705.16639 -578.14803,705.46639 -578.04803,706.06639 L -575.94803,718.86639 M -574.44803,703.56639 C -574.64803,702.36639 -574.44803,702.26639 -573.84803,701.66639 C -563.04803,691.56639 -554.84803,678.86639 -554.84803,663.56679 C -554.84803,654.86679 -557.24803,646.26679 -561.34803,640.26679 C -562.84803,638.06679 -565.44803,635.26679 -566.54803,635.26679 C -567.94803,635.26679 -571.04803,637.86679 -573.04803,640.06679 C -580.44803,648.26679 -582.84803,660.76679 -582.84803,671.16679 C -582.84803,676.96639 -582.14803,683.46639 -581.44803,687.56639 C -581.24803,688.76639 -581.14803,688.96639 -582.34803,689.96639 C -596.74803,701.86639 -612.04803,716.16639 -612.04803,736.36639 C -612.04803,753.76639 -600.14803,770.26639 -575.64803,770.26639 C -573.34803,770.26639 -570.74803,770.06639 -568.74803,769.66639 C -568.34803,769.56639 -568.14803,769.56639 -567.94803,769.56639 C -567.54803,769.56639 -567.34803,769.76639 -567.24803,770.56639 C -566.04803,777.26639 -564.54803,785.96639 -564.54803,790.66639 C -564.54803,805.46639 -574.54803,807.26639 -580.44803,807.26639 C -585.84803,807.26639 -588.44803,805.66639 -588.44803,804.36639 C -588.44803,803.66639 -587.54803,803.36639 -585.24803,802.66639 C -582.14803,801.76639 -578.54803,799.06639 -578.54803,793.26639 C -578.54803,787.76639 -582.04803,783.06639 -588.14803,783.06639 C -594.84803,783.06639 -598.84803,788.36639 -598.84803,794.56639 C -598.84803,801.06639 -594.94803,810.86639 -579.84803,810.86639 C -573.14803,810.86639 -560.14803,807.86639 -560.14803,790.86639 C -560.14803,785.16639 -561.94803,775.66639 -563.04803,769.46639 C -563.24803,768.26639 -563.14803,768.36639 -561.74803,767.76639 C -551.64853,763.76639 -544.94853,755.26639 -544.94853,743.96639 C -544.94853,731.16639 -554.34803,719.86639 -569.04803,719.86639 C -571.64803,719.86639 -571.64803,719.86639 -571.94803,718.06639 L -574.44803,703.56639"
       id="path3465" />
    <path
       class=""
       fill-rule="evenodd"
       d="M 274.34747,732.55039 L 362.82147,739.01939 V 751.55239 L 274.34747,745.08339 V 732.55039"
       id="path3467" />
    <path
       class=""
       fill-rule="evenodd"
       d="M 274.34747,716.92539 L 362.82147,723.39439 V 735.92739 L 274.34747,729.45839 V 716.92539"
       id="path3469" />
    <path
       class=""
       fill-rule="evenodd"
       d="M -264.00253,795.00039 L -47.472534,763.31139 V 775.94439 L -264.00253,807.63339 V 795.00039"
       id="path3471" />
    <path
       class=""
       d="M -162.25253,837.44339 C -154.28653,836.14339 -150.30253,833.37639 -150.30253,829.14339 C -150.30253,827.77639 -150.71153,826.67639 -151.52753,825.84339 C -152.34453,825.01039 -153.41953,824.59339 -154.75253,824.59339 C -156.78653,824.59339 -158.65253,825.71039 -160.35253,827.94339 L -161.15253,827.69339 C -160.31953,826.09339 -159.17753,824.82639 -157.72753,823.89339 C -156.27753,822.96039 -154.68653,822.49339 -152.95253,822.49339 C -150.95253,822.49339 -149.28653,823.09339 -147.95253,824.29339 C -146.61953,825.49339 -145.95253,827.01039 -145.95253,828.84339 C -145.95253,830.54339 -146.49453,831.91039 -147.57753,832.94339 C -148.66153,833.97639 -150.71953,835.07639 -153.75253,836.24339 V 836.39339 C -150.55253,837.86039 -148.95253,840.34339 -148.95253,843.84339 C -148.95253,847.31039 -150.23653,850.31039 -152.80253,852.84339 C -155.36953,855.37639 -158.73653,856.64339 -162.90253,856.64339 C -166.63653,856.64339 -168.50253,855.66039 -168.50253,853.69339 C -168.50253,852.39339 -167.76953,851.74339 -166.30253,851.74339 C -165.46953,851.74339 -164.35253,852.24339 -162.95253,853.24339 C -161.55253,854.24339 -160.40253,854.74339 -159.50253,854.74339 C -157.70253,854.74339 -156.16153,853.98539 -154.87753,852.46839 C -153.59453,850.95139 -152.95253,848.97639 -152.95253,846.54339 C -152.95253,843.41039 -153.73653,841.24339 -155.30253,840.04339 C -156.86953,838.84339 -159.18653,838.24339 -162.25253,838.24339 V 837.44339"
       id="path3473" />
    <path
       class=""
       d="M 107.94147,682.56639 C 107.94147,679.76639 105.74147,677.56639 102.94147,677.56639 C 100.14147,677.56639 97.941466,679.76639 97.941466,682.56639 C 97.941466,685.36639 100.14147,687.56639 102.94147,687.56639 C 105.74147,687.56639 107.94147,685.36639 107.94147,682.56639"
       id="path3475" />
  </g>
</svg>
