<?xml version="1.0" encoding="UTF-8" standalone="no"?>
<svg
   xmlns:dc="http://purl.org/dc/elements/1.1/"
   xmlns:cc="http://creativecommons.org/ns#"
   xmlns:rdf="http://www.w3.org/1999/02/22-rdf-syntax-ns#"
   xmlns:svg="http://www.w3.org/2000/svg"
   xmlns="http://www.w3.org/2000/svg"
   xmlns:sodipodi="http://sodipodi.sourceforge.net/DTD/sodipodi-0.dtd"
   xmlns:inkscape="http://www.inkscape.org/namespaces/inkscape"
   width="77.789001mm"
   height="43.513126mm"
   viewBox="0 0 294.00567 164.45908"
   version="1.2"
   id="svg320"
   sodipodi:docname="Trans_B_Basskl.svg"
   inkscape:version="1.0.1 (c497b03c, 2020-09-10)">
  <metadata
     id="metadata326">
    <rdf:RDF>
      <cc:Work
         rdf:about="">
        <dc:format>image/svg+xml</dc:format>
        <dc:type
           rdf:resource="http://purl.org/dc/dcmitype/StillImage" />
        <dc:title>Unbenannt-3</dc:title>
      </cc:Work>
    </rdf:RDF>
  </metadata>
  <defs
     id="defs324" />
  <sodipodi:namedview
     pagecolor="#ffffff"
     bordercolor="#666666"
     borderopacity="1"
     objecttolerance="10"
     gridtolerance="10"
     guidetolerance="10"
     inkscape:pageopacity="0"
     inkscape:pageshadow="2"
     inkscape:window-width="1198"
     inkscape:window-height="480"
     id="namedview322"
     showgrid="false"
     fit-margin-bottom="10"
     units="mm"
     fit-margin-top="6"
     fit-margin-left="0"
     fit-margin-right="0"
     inkscape:zoom="0.48833698"
     inkscape:cx="378.28807"
     inkscape:cy="253.91815"
     inkscape:window-x="1280"
     inkscape:window-y="23"
     inkscape:window-maximized="0"
     inkscape:current-layer="svg320" />
  <title
     id="title300">Unbenannt-3</title>
  <desc
     id="desc302">Generated by MuseScore 3.5.2</desc>
  <g
     id="g341"
     transform="translate(-21.816,-19.665627)">
    <path
       id="polyline304"
       style="fill:none;stroke:#000000;stroke-width:1.24472;stroke-linejoin:bevel"
       d="M 21.816,42.965152 H 315.82167"
       class="" />
    <path
       id="polyline306"
       style="fill:none;stroke:#000000;stroke-width:1.24472;stroke-linejoin:bevel"
       d="M 21.816,68.650679 H 315.82167"
       class="" />
    <path
       id="polyline308"
       style="fill:none;stroke:#000000;stroke-width:1.24472;stroke-linejoin:bevel"
       d="M 21.816,94.336308 H 315.82167"
       class="" />
    <path
       id="polyline310"
       style="fill:none;stroke:#000000;stroke-width:1.24472;stroke-linejoin:bevel"
       d="M 21.816,120.02153 H 315.82167"
       class="" />
    <path
       id="polyline312"
       style="fill:none;stroke:#000000;stroke-width:1.24472;stroke-linejoin:bevel"
       d="M 21.816,145.70705 H 315.82167"
       class="" />
    <path
       class=""
       d="M 176.422,115.235 V 122.95 C 176.422,125.684 176.552,127.865 176.812,129.493 C 178.961,127.67 180.491,126.302 181.402,125.391 C 182.444,124.349 183.485,122.917 184.527,121.094 C 185.569,119.271 186.09,117.448 186.09,115.625 C 186.09,113.802 185.699,112.24 184.918,110.938 C 184.136,109.636 183.095,108.985 181.793,108.985 C 180.23,108.985 178.928,109.571 177.886,110.743 C 176.91,112.045 176.422,113.542 176.422,115.235 M 172.32,133.106 L 171.05,73.6331 C 171.962,73.1123 172.873,72.8519 173.785,72.8519 C 174.696,72.8519 175.608,73.1123 176.519,73.6331 L 175.738,108.106 C 178.407,105.827 181.467,104.688 184.918,104.688 C 187.457,104.688 189.573,105.73 191.265,107.813 C 192.958,109.896 193.804,112.272 193.804,114.942 C 193.804,116.634 193.251,118.425 192.144,120.313 C 191.103,122.071 189.996,123.438 188.824,124.414 C 188.173,124.935 186.513,126.237 183.843,128.321 C 183.062,128.907 182.134,129.59 181.06,130.371 C 179.986,131.153 179.319,131.641 179.058,131.836 C 178.603,132.097 178.179,132.618 177.789,133.399 C 177.333,134.05 176.812,134.603 176.226,135.059 C 175.77,135.45 175.217,135.645 174.566,135.645 C 173.915,135.645 173.394,135.417 173.004,134.961 C 172.548,134.506 172.32,133.887 172.32,133.106"
       id="path314" />
    <path
       class=""
       d="M 220.988,108.106 C 218.644,108.106 216.952,108.92 215.91,110.547 C 214.738,112.11 214.152,114.226 214.152,116.895 C 214.152,119.955 214.966,122.591 216.593,124.805 C 218.221,126.953 220.011,128.451 221.965,129.297 C 223.722,130.144 225.578,130.567 227.531,130.567 C 229.81,130.567 231.535,129.753 232.707,128.125 C 233.813,126.498 234.367,124.382 234.367,121.778 C 234.367,118.718 233.553,116.081 231.925,113.868 C 230.298,111.784 228.54,110.287 226.652,109.375 C 224.764,108.529 222.876,108.106 220.988,108.106 M 224.308,105.567 C 231.34,105.567 237.199,106.934 241.886,109.668 C 246.639,112.403 249.015,115.625 249.015,119.336 C 249.015,123.308 246.574,126.563 241.691,129.102 C 236.808,131.771 231.014,133.106 224.308,133.106 C 217.407,133.106 211.548,131.739 206.73,129.004 C 201.912,126.27 199.504,123.047 199.504,119.336 C 199.504,115.365 201.978,112.11 206.925,109.571 C 211.808,106.901 217.603,105.567 224.308,105.567"
       id="path316" />
    <path
       class=""
       d="M 100.218,60.4495 C 99.2418,59.473 98.7535,58.2685 98.7535,56.8362 C 98.7535,55.4039 99.2418,54.1995 100.218,53.223 C 101.195,52.2464 102.399,51.7581 103.832,51.7581 C 105.264,51.7581 106.468,52.2464 107.445,53.223 C 108.421,54.1995 108.91,55.4039 108.91,56.8362 C 108.91,58.2685 108.421,59.473 107.445,60.4495 C 106.468,61.4261 105.264,61.9144 103.832,61.9144 C 102.399,61.9144 101.195,61.4261 100.218,60.4495 M 100.218,85.4495 C 99.2418,84.473 98.7535,83.2685 98.7535,81.8362 C 98.7535,80.4039 99.2418,79.1995 100.218,78.223 C 101.195,77.2464 102.399,76.7581 103.832,76.7581 C 105.264,76.7581 106.468,77.2464 107.445,78.223 C 108.421,79.1995 108.91,80.4039 108.91,81.8362 C 108.91,83.2685 108.421,84.473 107.445,85.4495 C 106.468,86.4261 105.264,86.9144 103.832,86.9144 C 102.399,86.9144 101.195,86.4261 100.218,85.4495 M 66.3316,43.0667 C 74.9905,43.0667 82.0868,45.2477 87.6207,49.6097 C 92.9592,54.167 95.6285,60.3519 95.6285,68.1644 C 95.6285,73.4378 94.5868,78.2555 92.5035,82.6175 C 90.5504,87.1748 87.9788,91.2112 84.7886,94.7269 C 81.5334,98.3076 77.5946,101.693 72.9722,104.883 C 68.4801,108.008 63.8577,110.808 59.1051,113.282 C 49.4045,118.164 44.066,120.606 43.0894,120.606 C 42.2431,120.606 41.8199,120.183 41.8199,119.336 C 41.8199,119.011 41.9501,118.718 42.2105,118.457 C 45.5308,116.504 49.5998,113.998 54.4176,110.938 C 57.5426,108.92 61.1884,106.12 65.3551,102.539 C 69.3915,99.1539 72.5165,95.9638 74.7301,92.9691 C 77.0087,90.0394 79.092,86.3935 80.9801,82.0316 C 82.6077,77.6696 83.4215,73.3727 83.4215,69.1409 C 83.4215,62.8258 81.859,57.3245 78.734,52.637 C 75.609,47.9495 71.4748,45.6058 66.3316,45.6058 C 62.6858,45.6058 59.5608,46.7776 56.9566,49.1214 C 54.1571,51.5303 52.1389,54.5576 50.9019,58.2034 C 52.1389,57.6826 53.2782,57.4222 54.3199,57.4222 C 57.0543,57.4222 59.398,58.3987 61.3511,60.3519 C 63.3043,62.4352 64.2808,64.8115 64.2808,67.4808 C 64.2808,70.2803 63.3368,72.7868 61.4488,75.0003 C 59.4306,77.0185 57.0543,78.0276 54.3199,78.0276 C 51.3902,78.0276 48.7535,77.0185 46.4097,75.0003 C 44.1962,72.7868 43.0894,70.2803 43.0894,67.4808 C 43.0894,60.775 45.3681,55.0459 49.9254,50.2933 C 54.4176,45.4756 59.8863,43.0667 66.3316,43.0667"
       id="path318" />
  </g>
</svg>
