<?xml version="1.0" encoding="UTF-8" standalone="no"?>
<svg
   xmlns:dc="http://purl.org/dc/elements/1.1/"
   xmlns:cc="http://creativecommons.org/ns#"
   xmlns:rdf="http://www.w3.org/1999/02/22-rdf-syntax-ns#"
   xmlns:svg="http://www.w3.org/2000/svg"
   xmlns="http://www.w3.org/2000/svg"
   xmlns:sodipodi="http://sodipodi.sourceforge.net/DTD/sodipodi-0.dtd"
   xmlns:inkscape="http://www.inkscape.org/namespaces/inkscape"
   version="1.1"
   id="svg206"
   xml:space="preserve"
   width="77.789001"
   height="47.515999"
   viewBox="0 0 77.788992 47.515999"
   sodipodi:docname="Trans_es1.svg"
   inkscape:version="1.0.1 (c497b03c, 2020-09-10)"><metadata
     id="metadata212"><rdf:RDF><cc:Work
         rdf:about=""><dc:format>image/svg+xml</dc:format><dc:type
           rdf:resource="http://purl.org/dc/dcmitype/StillImage" /><dc:title></dc:title></cc:Work></rdf:RDF></metadata><defs
     id="defs210" /><sodipodi:namedview
     pagecolor="#ffffff"
     bordercolor="#666666"
     borderopacity="1"
     objecttolerance="10"
     gridtolerance="10"
     guidetolerance="10"
     inkscape:pageopacity="0"
     inkscape:pageshadow="2"
     inkscape:window-width="1061"
     inkscape:window-height="480"
     id="namedview208"
     showgrid="false"
     fit-margin-top="0"
     fit-margin-left="0"
     fit-margin-right="0"
     fit-margin-bottom="0"
     inkscape:zoom="1.5017837"
     inkscape:cx="87.806751"
     inkscape:cy="62.610293"
     inkscape:window-x="0"
     inkscape:window-y="23"
     inkscape:window-maximized="0"
     inkscape:current-layer="g214" /><g
     id="g214"
     inkscape:groupmode="layer"
     inkscape:label="Trans_es1"
     transform="matrix(1.3333333,0,0,-1.3333333,-9.6093331,51.801332)"><g
       id="g291"><path
         d="M 7.207,31.647725 H 65.548751"
         style="fill:none;stroke:#000000;stroke-width:0.182548;stroke-linecap:butt;stroke-linejoin:bevel;stroke-miterlimit:4;stroke-dasharray:none;stroke-opacity:1"
         id="path220" /><path
         d="M 7.207,26.593363 H 65.548751"
         style="fill:none;stroke:#000000;stroke-width:0.182548;stroke-linecap:butt;stroke-linejoin:bevel;stroke-miterlimit:4;stroke-dasharray:none;stroke-opacity:1"
         id="path222" /><path
         d="M 7.207,21.539 H 65.548751"
         style="fill:none;stroke:#000000;stroke-width:0.182548;stroke-linecap:butt;stroke-linejoin:bevel;stroke-miterlimit:4;stroke-dasharray:none;stroke-opacity:1"
         id="path224" /><path
         d="M 7.207,16.484637 H 65.548751"
         style="fill:none;stroke:#000000;stroke-width:0.182548;stroke-linecap:butt;stroke-linejoin:bevel;stroke-miterlimit:4;stroke-dasharray:none;stroke-opacity:1"
         id="path226" /><path
         d="M 7.207,11.430275 H 65.548751"
         style="fill:none;stroke:#000000;stroke-width:0.182548;stroke-linecap:butt;stroke-linejoin:bevel;stroke-miterlimit:4;stroke-dasharray:none;stroke-opacity:1"
         id="path228" /><path
         d="M 34.754,7.968 C 34.809,7.886 34.871,7.875 34.93,7.875 C 34.984,7.875 35.059,7.91 35.059,7.91 C 35.652,8.261 36.145,8.8 36.648,9.152 C 38.457,10.406 39.078,11.636 39.078,12.562 C 39.078,13.722 38.184,14.449 37.262,14.507 C 37.121,14.507 36.977,14.496 36.84,14.449 C 36.617,14.39 36.371,14.308 36.145,14.168 C 36.027,14.062 35.879,13.886 35.703,13.886 C 35.652,13.886 35.645,13.886 35.598,13.898 C 35.457,13.968 35.375,14.109 35.375,14.25 C 35.395,14.695 35.516,19.546 35.516,19.957 C 35.516,20.179 35.34,20.296 35.141,20.296 C 34.848,20.296 34.527,20.097 34.508,19.734 C 34.508,19.734 34.59,8.179 34.754,7.968 M 35.457,9.773 C 35.457,9.773 35.395,10.992 35.395,11.8 C 35.395,12.117 35.422,12.363 35.434,12.445 C 35.516,12.691 36.043,13.136 36.32,13.3 C 36.512,13.394 36.695,13.441 36.852,13.441 C 37.059,13.441 37.234,13.359 37.367,13.218 C 37.562,12.996 37.684,12.644 37.684,12.269 C 37.684,11.894 37.59,11.472 37.344,11.05 C 37.07,10.558 36.484,9.914 35.879,9.527 C 35.809,9.492 35.734,9.468 35.68,9.468 C 35.504,9.468 35.457,9.668 35.457,9.773"
         style="fill:#000000;fill-opacity:1;fill-rule:nonzero;stroke:none"
         id="path230" /><path
         d="M 46.609,14.191 C 43.672,14.191 41.852,12.949 41.852,11.449 C 41.852,9.972 43.105,8.66 46.391,8.66 C 49.984,8.66 51.145,9.914 51.145,11.449 C 51.145,13.007 48.648,14.191 46.609,14.191 M 44.305,12.808 C 44.551,13.558 45.355,13.675 46.051,13.675 C 47.539,13.675 48.758,12.058 48.758,10.722 C 48.758,10.582 48.73,10.441 48.723,10.324 C 48.617,9.773 48.289,9.386 47.75,9.246 C 47.523,9.187 47.305,9.164 47.082,9.164 C 46.871,9.164 46.691,9.187 46.496,9.246 C 46.133,9.375 45.758,9.574 45.465,9.832 C 45.301,9.972 45.137,10.136 44.996,10.324 C 44.559,10.828 44.223,11.578 44.223,12.269 C 44.223,12.445 44.246,12.632 44.305,12.808"
         style="fill:#000000;fill-opacity:1;fill-rule:nonzero;stroke:none"
         id="path232" /><path
         d="M 24.117,17.043 C 23.953,19.656 21.762,21.707 19.172,21.707 H 18.945 C 18.867,21.707 18.762,21.707 18.688,21.66 C 18.469,22.972 18.246,24.027 18.035,25.117 C 20.754,27.636 22.125,30.285 22.125,33.039 C 22.125,34.316 21.816,35.605 21.258,36.929 C 20.473,38.722 19.73,38.851 19.73,38.851 C 17.801,37.996 16.465,34.937 16.465,31.281 C 16.465,30.613 16.5,29.921 16.602,29.207 L 16.84,27.941 C 13.859,25.386 10.52,22.41 10.52,18.507 C 10.52,18.296 10.52,18.097 10.547,17.898 C 10.934,13 14.754,11.441 18.082,11.441 C 18.539,11.441 19.008,11.453 19.453,11.523 H 19.559 L 20.023,8.687 C 20.098,8.183 20.145,7.714 20.145,7.304 C 20.145,4.011 17.672,3.964 17.426,3.964 H 17.051 C 16.355,3.964 15.797,4.07 15.359,4.375 C 15.246,4.457 15.184,4.539 15.184,4.597 C 15.184,4.679 15.266,4.714 15.359,4.761 C 15.551,4.796 15.688,4.796 15.867,4.878 C 16.695,5.136 17.285,5.875 17.285,6.777 V 6.918 C 17.188,7.972 16.309,8.851 15.223,8.851 H 15.082 C 14.152,8.781 13.355,8.054 13.242,7.14 C 13.219,7.14 13.16,6.847 13.16,6.414 C 13.16,5.3 13.664,3.214 17.004,3.214 C 17.145,3.214 17.309,3.238 17.473,3.238 C 18.914,3.32 21.059,4.211 21.059,7.386 C 21.059,7.808 21.012,8.277 20.93,8.781 C 20.93,8.781 20.691,9.976 20.426,11.804 C 22.695,12.648 24.117,14.5 24.117,16.761 V 17.043 M 19.875,35.628 C 20.543,35.628 21.223,35.101 21.223,34.011 C 21.223,33.871 21.195,33.73 21.176,33.566 C 20.93,31.878 19.676,30.168 17.508,28.527 C 17.426,29.007 17.352,29.394 17.352,29.511 C 17.309,29.734 17.309,29.98 17.309,30.25 C 17.309,32.324 18.277,35.546 19.875,35.628 M 12.148,16.867 C 12.148,20.242 14.719,22.714 17.367,24.671 L 17.871,21.519 C 16.055,20.968 14.609,19.246 14.609,17.429 C 14.609,17.125 14.66,16.82 14.742,16.539 C 15.059,15.168 15.973,14.148 16.922,13.843 C 17.105,13.785 17.25,13.761 17.352,13.761 C 17.508,13.761 17.59,13.843 17.59,13.925 C 17.59,14.054 17.445,14.207 17.285,14.289 C 16.887,14.476 15.973,15.461 15.934,16.293 V 16.503 C 15.934,17.91 16.977,18.578 18.312,18.8 L 19.418,12.332 C 19.109,12.226 18.645,12.168 18.082,12.168 C 15.867,12.168 12.266,13.164 12.148,16.703 V 16.867 M 20.285,12.554 C 19.957,14.394 19.559,16.597 19.137,18.882 H 19.207 C 20.918,18.882 22.371,17.535 22.453,15.836 V 15.613 C 22.453,14.195 21.703,13.164 20.285,12.554"
         style="fill:#000000;fill-opacity:1;fill-rule:nonzero;stroke:none"
         id="path234" /></g></g></svg>
