<?xml version="1.0" encoding="UTF-8"?>
<!DOCTYPE svg PUBLIC "-//W3C//DTD SVG 1.1//EN" "http://www.w3.org/Graphics/SVG/1.1/DTD/svg11.dtd">
<!-- Creator: CorelDRAW Home & Student X7 -->
<svg xmlns="http://www.w3.org/2000/svg" xml:space="preserve" width="380mm" height="200mm" version="1.1" style="shape-rendering:geometricPrecision; text-rendering:geometricPrecision; image-rendering:optimizeQuality; fill-rule:evenodd; clip-rule:evenodd"
viewBox="0 0 38000 20000"
 xmlns:xlink="http://www.w3.org/1999/xlink">
 <defs>
  <style type="text/css">
   <![CDATA[
    .str2 {stroke:black;stroke-width:20}
    .str1 {stroke:black;stroke-width:7.62}
    .str0 {stroke:black;stroke-width:7.62;stroke-linecap:round;stroke-linejoin:round}
    .str3 {stroke:#990000;stroke-width:150;stroke-dasharray:300.000000 750.000000}
    .str4 {stroke:black;stroke-width:20;stroke-dasharray:40.000000 100.000000}
    .fil4 {fill:none}
    .fil8 {fill:black}
    .fil5 {fill:#003399}
    .fil11 {fill:#4D4D4D}
    .fil10 {fill:#990000}
    .fil0 {fill:yellow}
    .fil2 {fill:white}
    .fil9 {fill:black;fill-rule:nonzero}
    .fil1 {fill:#003399;fill-rule:nonzero}
    .fil6 {fill:#4D4D4D;fill-rule:nonzero}
    .fil3 {fill:#990000;fill-rule:nonzero}
    .fil7 {fill:yellow;fill-rule:nonzero}
   ]]>
  </style>
 </defs>
 <g id="Ebene_x0020_1">
  <metadata id="CorelCorpID_0Corel-Layer"/>
  <g id="_628393488">
   <g>
    <g>
     <path class="fil0 str0" d="M28980 18352l-3880 0c2020,-282 1682,-2298 1751,-7166 70,-4868 51,-7831 26,-9737l326 0c-25,1906 -43,4869 26,9737 70,4868 -268,6884 1751,7166z"/>
     <rect class="fil0 str1" x="25046" y="18352" width="3987.98" height="55.64" rx="41" ry="40"/>
    </g>
    <path class="fil0 str1" d="M26922 859l236 0c92,0 167,-75 167,-166l0 -55c0,-25 -20,-45 -45,-45l-494 0c-17,0 -31,13 -31,30l0 70c0,91 75,166 167,166z"/>
    <path class="fil0 str1" d="M27040 1176l0 0c86,0 155,-70 155,-156l0 -161 -310 0 0 161c0,86 70,156 155,156z"/>
    <path class="fil0 str1" d="M26940 1449l200 0 0 -303c-25,18 -57,30 -91,30l0 0c-42,0 -81,-18 -109,-45l0 318z"/>
   </g>
   <path class="fil1" d="M36313 2633l0 0c218,0 413,123 552,323 135,193 218,457 218,747 0,290 -83,554 -218,746 -139,200 -334,323 -552,323l0 0 -1528 0c-64,0 -122,-26 -164,-68l0 0c-42,-42 -68,-100 -68,-164 0,-64 26,-122 68,-163l0 0c42,-42 100,-68 164,-68l1462 0 0 0c76,0 145,-31 195,-81 50,-50 80,-118 80,-194 0,-76 -30,-145 -80,-195 -50,-50 -119,-80 -195,-80l0 0 -109 0 -168 0 0 0c-118,0 -224,-48 -301,-125 -77,-77 -124,-183 -124,-300l0 -138c0,-156 63,-296 165,-398 101,-102 242,-165 398,-165l205 0zm-1528 1989l1528 0 0 0c166,0 318,-99 430,-259 117,-168 190,-401 190,-660 0,-260 -73,-493 -190,-661 -112,-160 -264,-259 -430,-259l0 0 -205 0c-114,0 -218,46 -292,121 -75,74 -121,178 -121,292l0 138c0,76 31,144 80,194 50,50 119,81 195,81l0 0 168 0 109 0 0 0c118,0 224,47 301,124 77,77 124,183 124,301 0,117 -47,223 -124,300 -77,77 -183,125 -301,125l0 0 -1462 0c-23,0 -43,9 -58,23l0 1c-15,14 -24,35 -24,57 0,23 9,44 24,58l0 0c15,15 35,24 58,24z"/>
   <path class="fil1" d="M34785 5226c-23,0 -43,-9 -58,-24l0 0c-15,-15 -24,-35 -24,-58 0,-22 9,-43 24,-58l0 0c15,-15 35,-24 58,-24l832 0c23,0 43,9 58,24l0 0c15,15 24,35 24,58 0,23 -9,43 -24,58l0 0c-15,15 -35,24 -58,24l-832 0zm-232 -82c0,64 26,122 68,164l0 0c42,42 100,68 164,68l832 0c64,0 122,-26 164,-68l0 0c42,-42 68,-100 68,-164 0,-64 -26,-122 -68,-163l0 -1c-42,-42 -100,-68 -164,-68l-832 0c-64,0 -122,26 -164,68l0 0c-42,42 -68,100 -68,164z"/>
   <path class="fil1" d="M34785 5830c-23,0 -43,-9 -58,-24l0 0c-15,-15 -24,-36 -24,-58 0,-23 9,-43 24,-58l0 0c15,-15 35,-24 58,-24l1709 0 0 0c111,0 211,45 284,118 73,72 118,173 118,283l0 261c0,79 -32,149 -83,200 -51,52 -122,83 -200,83l0 0 0 1 -324 -1 0 0c-39,0 -74,-16 -99,-42l0 0c-26,-25 -42,-60 -42,-99l0 -400c0,-66 -26,-126 -70,-170l0 0 0 0c-44,-44 -104,-70 -170,-70l0 0 -1123 0zm-232 -82c0,64 26,122 68,164l0 0c42,42 100,68 164,68l1123 0 0 0c26,0 48,10 64,26l0 0c16,16 26,39 26,64l0 400c0,80 33,152 86,205l0 0c52,53 125,86 205,86l0 -1 324 1 0 0 0 0c119,0 228,-48 306,-126 78,-79 127,-187 127,-307l0 -261c0,-152 -62,-290 -162,-389 -100,-100 -238,-162 -390,-162l0 0 -1709 0c-64,0 -122,26 -164,68l0 0c-42,42 -68,100 -68,164z"/>
   <path class="fil1" d="M34453 5898c-22,0 -43,9 -58,24l0 0c-14,15 -24,35 -24,58l0 1069 0 0c0,217 -88,413 -230,555 -142,143 -338,231 -555,231 -217,0 -414,-88 -556,-231 -142,-142 -230,-338 -230,-555l0 -1065c0,-64 -14,-125 -39,-180 -26,-56 -64,-106 -113,-146l0 0 -555 -451 47 -58 -47 -58 555 -451 0 -1c49,-40 87,-90 113,-146 25,-55 39,-116 39,-179l0 -920c0,-217 88,-413 230,-556 142,-142 339,-230 556,-230 217,0 413,88 555,230 142,143 230,339 230,556l0 0 0 915c0,22 10,43 24,58l0 0c15,14 36,23 58,23l0 150c-64,0 -121,-25 -163,-67l-1 0c-42,-42 -68,-100 -68,-164l0 -915 0 0c0,-176 -71,-335 -186,-450 -115,-115 -274,-186 -449,-186 -176,0 -335,71 -450,186 -115,115 -186,274 -186,450l0 920c0,84 -19,167 -54,243 -35,75 -87,143 -152,197l-485 395 485 394c65,54 117,122 152,198 35,75 54,158 54,243l0 1065c0,175 71,334 186,449 115,115 274,187 450,187 175,0 334,-72 449,-187 115,-115 186,-274 186,-449l0 0 0 -1069c0,-64 26,-122 68,-164l1 0c42,-42 99,-68 163,-68l0 150z"/>
   <path class="fil1" d="M34453 5598c-22,0 -43,-9 -58,-24l0 0c-14,-15 -24,-35 -24,-58l0 -140c0,-23 10,-43 24,-58l0 0c15,-15 36,-24 58,-24l0 -150c-64,0 -121,26 -163,68l-1 0c-42,42 -68,100 -68,164l0 140c0,64 26,122 68,164l1 0c42,42 99,68 163,68l0 -150z"/>
   <path class="fil1" d="M34453 4994c-22,0 -43,-9 -58,-24l0 0c-14,-15 -24,-35 -24,-58l0 -140c0,-22 10,-43 24,-58l0 0c15,-14 36,-24 58,-24l0 -150c-64,0 -121,26 -163,68l-1 0c-42,42 -68,100 -68,164l0 140c0,64 26,122 68,164l1 0c42,42 99,68 163,68l0 -150z"/>
   <circle class="fil2 str2" cx="34553" cy="4540" r="232"/>
   <circle class="fil2 str2" cx="34553" cy="5144" r="232"/>
   <circle class="fil2 str2" cx="34553" cy="5748" r="232"/>
   <path class="fil3" d="M30803 4999c23,0 43,-9 58,-24l0 0c15,-15 24,-35 24,-58l0 -140c0,-22 -9,-43 -24,-58l0 0c-15,-15 -35,-24 -58,-24l0 -150c64,0 122,26 163,68l1 0c42,42 68,100 68,164l0 140c0,64 -26,122 -68,164l-1 0c-41,42 -99,68 -163,68l0 -150z"/>
   <path class="fil3" d="M30803 5603c23,0 43,-9 58,-24l0 0c15,-15 24,-36 24,-58l0 -140c0,-23 -9,-43 -24,-58l0 0c-15,-15 -35,-24 -58,-24l0 -150c64,0 122,26 163,68l1 0c42,42 68,100 68,164l0 140c0,64 -26,122 -68,164l-1 0c-41,42 -99,68 -163,68l0 -150z"/>
   <path class="fil3" d="M30561 5834l-1832 0c-23,0 -43,-9 -58,-24l0 0c-15,-14 -24,-35 -24,-58 0,-22 9,-43 24,-58l0 0c15,-14 35,-23 58,-23l1832 0c45,0 82,36 82,81 0,46 -37,82 -82,82zm0 -313l-1832 0c-64,0 -122,25 -164,67l0 1c-42,42 -68,100 -68,163 0,64 26,122 68,164l0 0c42,42 100,68 164,68l1832 0c128,0 232,-104 232,-232 0,-128 -104,-231 -232,-231z"/>
   <path class="fil3" d="M30561 5231l-692 0c-23,0 -43,-10 -58,-24l0 0c-15,-15 -24,-36 -24,-58 0,-23 9,-44 24,-58l0 0c15,-15 35,-24 58,-24l692 0c45,0 82,36 82,82 0,45 -37,82 -82,82zm0 -314l-692 0c-64,0 -122,26 -164,68l0 0c-42,42 -68,100 -68,164 0,63 26,121 68,163l0 1c42,42 100,68 164,68l692 0c128,0 232,-104 232,-232 0,-128 -104,-232 -232,-232z"/>
   <path class="fil3" d="M30561 4463l-1422 0c-58,0 -110,-23 -148,-61 -38,-38 -62,-90 -62,-148 0,-58 24,-110 62,-148 38,-38 90,-62 148,-62 9,0 19,1 29,3 9,1 19,3 29,6l3 0 233 77 4 1c8,3 16,5 24,6 7,2 15,3 24,3 38,0 71,-16 96,-40 24,-25 40,-58 40,-96 0,-37 -16,-71 -40,-95l0 -1c-24,-24 -58,-39 -96,-39l-310 0c-87,0 -165,35 -221,92 -57,56 -92,134 -92,221l0 200 0 0c0,68 27,129 72,173 44,44 105,72 173,72l1454 0c45,0 82,-37 82,-82 0,-45 -37,-82 -82,-82zm0 314l-1454 0c-109,0 -208,-44 -279,-116 -72,-71 -116,-170 -116,-279l0 0 0 -200c0,-128 52,-244 135,-327 84,-84 200,-136 328,-136l310 0c79,0 150,32 202,84l0 0c52,51 84,122 84,201 0,79 -32,150 -84,202 -52,52 -123,84 -202,84 -16,0 -34,-2 -51,-5 -18,-4 -34,-8 -50,-14l-230 -75 0 0 -1 0c-1,-1 -3,-1 -6,-1 -2,-1 -5,-1 -8,-1 -17,0 -32,7 -42,18 -11,10 -18,25 -18,42 0,16 7,31 18,42 10,11 25,17 42,17l1422 0c128,0 232,104 232,232 0,128 -104,232 -232,232z"/>
   <circle class="fil2 str2" cx="30793" cy="5149" r="232"/>
   <path class="fil3" d="M31281 4311l978 838 -115 99 -957 -820c-26,-21 -59,-33 -94,-33 -83,0 -150,67 -150,150l0 0 -150 0c0,0 0,0 0,0 0,-166 134,-300 300,-300 68,0 134,23 188,66z"/>
   <circle class="fil2 str2" cx="30793" cy="4545" r="232"/>
   <path class="fil3" d="M31291 5987l986 -853 -179 -37 -901 773c-26,20 -59,33 -94,33 -83,0 -150,-67 -150,-150l0 0 -150 0c0,0 0,0 0,0 0,165 134,300 300,300 68,0 134,-24 188,-66z"/>
   <circle class="fil2 str2" cx="30793" cy="5752" r="232"/>
   <line class="fil4 str2" x1="32143" y1="5050" x2="32145" y2= "5248" />
   <circle class="fil2 str2" cx="27044" cy="5149" r="232"/>
   <path class="fil5" d="M28486 2458l2947 0c217,0 413,88 555,230 142,143 230,339 230,556l0 0 0 1865 -150 0 0 -1865 0 0c0,-176 -71,-335 -186,-450 -115,-115 -274,-186 -449,-186l-2947 0c-176,0 -335,71 -450,186 -115,115 -186,274 -186,450l0 1070c0,84 -19,167 -54,243 -35,75 -87,143 -152,197l-485 395 485 394c65,54 117,122 152,198 35,75 54,158 54,243l0 1065c0,175 71,334 186,449 115,115 274,187 450,187l2947 0c175,0 334,-72 449,-187 115,-115 186,-274 186,-449l0 0 0 -1869 150 0 0 1869 0 0c0,217 -88,413 -230,555 -142,143 -338,231 -555,231l-2947 0c-217,0 -414,-88 -556,-231 -142,-142 -230,-338 -230,-555l0 -1065c0,-64 -14,-125 -39,-180 -26,-56 -64,-106 -113,-146l0 0 -555 -451 47 -58 -47 -58 555 -451 0 -1c49,-40 87,-90 113,-146 25,-55 39,-116 39,-179l0 -1070c0,-217 88,-413 230,-556 142,-142 339,-230 556,-230z"/>
   <circle class="fil2 str2" cx="32140" cy="5149" r="232"/>
   <path class="fil6" d="M25703 4999c23,0 43,-9 58,-24l0 0c15,-15 24,-35 24,-58l0 -140c0,-22 -9,-43 -24,-58l0 0c-15,-15 -35,-24 -58,-24l0 -150c64,0 122,26 163,68l1 0c42,42 68,100 68,164l0 140c0,64 -26,122 -68,164l-1 0c-41,42 -99,68 -163,68l0 -150z"/>
   <path class="fil6" d="M25703 5603c23,0 43,-9 58,-24l0 0c15,-15 24,-36 24,-58l0 -140c0,-23 -9,-43 -24,-58l0 0c-15,-15 -35,-24 -58,-24l0 -150c64,0 122,26 163,68l1 0c42,42 68,100 68,164l0 140c0,64 -26,122 -68,164l-1 0c-41,42 -99,68 -163,68l0 -150z"/>
   <path class="fil6" d="M25461 5834l-1032 0c-23,0 -43,-9 -58,-24l0 0c-15,-14 -24,-35 -24,-58 0,-22 9,-43 24,-58l0 0c15,-14 35,-23 58,-23l1032 0c45,0 82,36 82,81 0,46 -37,82 -82,82zm0 -313l-1032 0c-64,0 -122,25 -164,67l0 1c-42,42 -68,100 -68,163 0,64 26,122 68,164l0 0c42,42 100,68 164,68l1032 0c128,0 232,-104 232,-232 0,-128 -104,-231 -232,-231z"/>
   <path class="fil6" d="M25461 5231l-392 0c-23,0 -43,-10 -58,-24l0 0c-15,-15 -24,-36 -24,-58 0,-23 9,-44 24,-58l0 0c15,-15 35,-24 58,-24l392 0c45,0 82,36 82,82 0,45 -37,82 -82,82zm0 -314l-392 0c-64,0 -122,26 -164,68l0 0c-42,42 -68,100 -68,164 0,63 26,121 68,163l0 1c42,42 100,68 164,68l392 0c128,0 232,-104 232,-232 0,-128 -104,-232 -232,-232z"/>
   <circle class="fil2 str2" cx="25693" cy="5149" r="232"/>
   <path class="fil6" d="M26181 4311l978 838 -115 99 -957 -820c-26,-21 -59,-33 -94,-33 -83,0 -150,67 -150,150l0 0 -150 0c0,0 0,0 0,0 0,-166 134,-300 300,-300 68,0 134,23 188,66z"/>
   <path class="fil6" d="M26191 5987l986 -853 -179 -37 -901 773c-26,20 -59,33 -94,33 -83,0 -150,-67 -150,-150l0 0 -150 0c0,0 0,0 0,0 0,165 134,300 300,300 68,0 134,-24 188,-66z"/>
   <circle class="fil2 str2" cx="25693" cy="5752" r="232"/>
   <line class="fil4 str2" x1="27043" y1="5050" x2="27045" y2= "5248" />
   <path class="fil6" d="M25461 4627l-1432 0c-23,0 -43,-9 -58,-24l0 0c-15,-15 -24,-35 -24,-58 0,-23 9,-43 24,-58l0 0c15,-15 35,-24 58,-24l1432 0c45,0 82,37 82,82 0,45 -37,82 -82,82zm0 -314l-1432 0c-64,0 -122,26 -164,68l0 0c-42,42 -68,100 -68,164 0,64 26,122 68,164l0 0c42,42 100,68 164,68l1432 0c128,0 232,-104 232,-232 0,-128 -104,-232 -232,-232z"/>
   <circle class="fil2 str2" cx="25693" cy="4545" r="232"/>
   <path class="fil4 str3" d="M27101 5191c0,1 -1,1 -2,2l0 1 498 404c0,1 0,1 1,1 56,47 101,105 132,171 30,66 46,139 46,211l0 1066c0,189 75,369 208,503 134,134 314,208 504,208l2947 0c189,0 369,-74 503,-208 134,-134 208,-314 208,-503l0 -1796 -2 0 0 1796c0,189 -74,368 -208,502 -133,133 -313,207 -501,207l-2947 0c-189,0 -369,-74 -502,-207 -134,-134 -208,-313 -208,-502l0 -1066c0,-73 -16,-145 -47,-211 -31,-67 -76,-125 -131,-172l-486 -394c-5,-4 -9,-8 -13,-13z"/>
   <path class="fil4 str3" d="M27101 5098c0,0 -1,-1 -2,-2l0 0 498 -405c0,0 0,0 1,-1 56,-47 101,-105 132,-171 30,-66 46,-138 46,-211l0 -1065c0,-190 75,-370 208,-504 134,-134 314,-208 504,-208l2947 0c189,0 369,74 503,208 134,134 208,314 208,504l0 1795 -2 0 0 -1795c0,-189 -74,-369 -208,-502 -133,-134 -313,-208 -501,-208l-2947 0c-189,0 -369,74 -502,208 -134,133 -208,313 -208,502l0 1065c0,73 -16,145 -47,212 -31,66 -76,125 -131,171l-486 394c-5,4 -9,9 -13,13z"/>
   <circle class="fil2 str2" cx="27040" cy="5149" r="232"/>
  </g>
  <g id="_627831992">
   <g>
    <g>
     <path class="fil0" d="M19818 18352l-3880 0c2020,-282 1682,-2298 1751,-7166 70,-4868 51,-7831 26,-9737l326 0c-25,1906 -44,4869 26,9737 69,4868 -269,6884 1751,7166z"/>
     <rect class="fil0" x="15884" y="18352" width="3987.98" height="55.64" rx="41" ry="40"/>
    </g>
    <path class="fil0" d="M17760 859l236 0c92,0 167,-75 167,-166l0 -55c0,-25 -21,-45 -46,-45l-494 0c-16,0 -30,13 -30,30l0 70c0,91 75,166 167,166z"/>
    <path class="fil0" d="M17878 1176l0 0c85,0 155,-70 155,-156l0 -161 -310 0 0 161c0,86 70,156 155,156z"/>
    <path class="fil0" d="M17778 1449l200 0 0 -303c-26,18 -57,30 -91,30l0 0c-42,0 -81,-18 -109,-45l0 318z"/>
   </g>
   <path class="fil1" d="M22051 3106l0 0c217,0 413,124 552,324 135,192 218,456 218,746 0,290 -83,554 -218,746 -139,200 -335,324 -552,324l0 0 -1528 0c-64,0 -122,-26 -164,-68l0 0c-42,-42 -68,-100 -68,-164 0,-64 26,-122 68,-164l0 0c42,-42 100,-68 164,-68l1462 0 0 0c76,0 145,-31 195,-81 49,-49 80,-118 80,-194 0,-76 -31,-145 -80,-195 -50,-49 -119,-80 -195,-80l0 0 -109 0 -168 0 0 0c-118,0 -224,-48 -301,-125 -77,-76 -124,-183 -124,-300l0 -138c0,-155 63,-296 165,-398 101,-102 242,-165 398,-165l205 0zm-1528 1990l1528 0 0 0c166,0 318,-99 430,-260 117,-167 190,-401 190,-660 0,-259 -73,-493 -190,-661 -112,-160 -264,-259 -430,-259l0 0 -205 0c-114,0 -218,46 -292,121 -75,75 -121,178 -121,292l0 138c0,76 30,145 80,194 50,50 119,81 195,81l0 0 168 0 109 0 0 0c118,0 224,47 301,124 77,77 124,184 124,301 0,117 -47,224 -124,300 -77,77 -183,125 -301,125l0 0 -1462 0c-23,0 -43,9 -58,24l0 0c-15,15 -24,35 -24,58 0,22 9,43 24,58l0 0c15,14 35,24 58,24z"/>
   <path class="fil1" d="M20523 5699c-23,0 -43,-9 -58,-24l0 0c-15,-15 -24,-35 -24,-58 0,-22 9,-43 24,-57l0 -1c15,-14 35,-23 58,-23l832 0c23,0 43,9 58,24l0 -1c15,15 24,36 24,58 0,23 -9,44 -24,58l0 0c-15,15 -35,24 -58,24l-832 0zm-232 -82c0,64 26,122 68,164l0 0c42,42 100,68 164,68l832 0c64,0 122,-26 164,-68l0 0c42,-42 68,-100 68,-164 0,-63 -26,-121 -68,-163l0 -1c-42,-41 -100,-67 -164,-67l-832 0c-64,0 -122,26 -164,67l0 0c-42,42 -68,100 -68,164z"/>
   <path class="fil1" d="M20523 6303c-23,0 -43,-9 -58,-24l0 0c-15,-15 -24,-35 -24,-58 0,-23 9,-43 24,-58l0 0c15,-15 35,-24 58,-24l1709 0 0 0c111,0 211,45 284,118 73,72 118,173 118,284l0 261c0,78 -32,149 -83,200 -51,51 -122,83 -200,83l0 0 0 0 -324 -1 0 0c-39,0 -74,-16 -99,-41l-1 0c-25,-26 -41,-61 -41,-100l0 -400c0,-66 -27,-126 -70,-170l0 0 0 0c-44,-43 -104,-70 -170,-70l0 0 -1123 0zm-232 -82c0,64 26,122 68,164l0 0c42,42 100,68 164,68l1123 0 0 0c25,0 48,10 64,26l0 0c16,16 26,39 26,64l0 400c0,80 33,153 86,205l0 1c52,52 125,85 205,85l0 0 324 0 0 1 0 0c119,0 227,-49 306,-127 78,-79 127,-187 127,-306l0 -261c0,-153 -62,-290 -162,-390 -100,-100 -238,-162 -390,-162l0 0 -1709 0c-64,0 -122,26 -164,68l0 0c-42,42 -68,100 -68,164z"/>
   <path class="fil4" d="M18613 2467c0,-392 318,-711 711,-711 392,0 710,319 710,711"/>
   <path class="fil1" d="M20191 4864c-23,0 -43,-9 -58,-24l0 0c-15,-15 -24,-36 -24,-58l0 -2315 0 0c0,-217 -88,-413 -230,-555 -142,-143 -338,-231 -555,-231 -217,0 -414,88 -556,231 -142,142 -230,338 -230,555l0 1852c0,64 -14,125 -40,180 -25,55 -64,106 -112,146l0 0 -555 451 94 116 557 -452c65,-55 117,-122 152,-198 35,-75 54,-158 54,-243l0 -1852c0,-175 71,-334 186,-449 115,-115 274,-187 450,-187 175,0 334,72 449,187 115,115 186,274 186,449l0 0 0 2315c0,64 26,122 68,164l0 0c42,42 100,68 164,68l0 -150z"/>
   <path class="fil1" d="M20191 6371c-23,0 -43,9 -58,24l0 0c-15,15 -24,35 -24,58l0 6188 0 0c0,217 -88,414 -230,556 -142,142 -338,230 -555,230 -217,0 -414,-88 -556,-230 -142,-142 -230,-339 -230,-556l0 -6652c0,-63 -14,-124 -40,-180 -25,-55 -64,-105 -112,-146l0 0 -555 -451 94 -116 557 453c65,54 117,122 152,197 35,76 54,159 54,243l0 6652c0,176 71,335 186,450 115,115 274,186 450,186 175,0 334,-71 449,-186 115,-115 186,-274 186,-450l0 0 0 -6188c0,-64 26,-122 68,-164l0 0c42,-42 100,-68 164,-68l0 150z"/>
   <path class="fil1" d="M20191 6071c-23,0 -43,-9 -58,-24l0 0c-15,-15 -24,-35 -24,-58l0 -140c0,-22 9,-43 24,-58l0 0c15,-14 35,-24 58,-24l0 -150c-64,0 -122,26 -164,68l0 0c-42,42 -68,100 -68,164l0 140c0,64 26,122 68,164l0 0c42,42 100,68 164,68l0 -150z"/>
   <path class="fil1" d="M20191 5467c-23,0 -43,-9 -58,-23l0 -1c-15,-14 -24,-35 -24,-57l0 -140c0,-23 9,-43 24,-58l0 0c15,-15 35,-24 58,-24l0 -150c-64,0 -122,26 -164,68l0 0c-42,42 -68,100 -68,164l0 140c0,64 26,122 68,163l0 0c42,42 100,68 164,68l0 -150z"/>
   <circle class="fil2 str2" cx="20291" cy="5014" r="232"/>
   <circle class="fil2 str2" cx="20291" cy="5617" r="232"/>
   <circle class="fil2 str2" cx="20291" cy="6221" r="232"/>
   <path class="fil3" d="M15565 4864c23,0 43,-9 58,-24l0 0c15,-15 24,-36 24,-58l0 -2315 0 0c0,-217 88,-413 230,-555 142,-143 339,-231 555,-231 217,0 414,88 556,231 142,142 230,338 230,555l0 1852c0,64 14,125 40,180 26,55 64,106 112,146l0 0 555 451 -94 116 -557 -452c-65,-55 -116,-122 -152,-198 -35,-75 -54,-158 -54,-243l0 -1852c0,-175 -71,-334 -186,-449 -115,-115 -274,-187 -450,-187 -175,0 -334,72 -449,187 -115,115 -186,274 -186,449l0 0 0 2315c0,64 -26,122 -68,164l0 0c-42,42 -100,68 -164,68l0 -150z"/>
   <path class="fil3" d="M15565 6371c23,0 43,9 58,24l0 0c15,15 24,35 24,58l0 2188 0 0c0,217 88,414 230,556 142,142 339,230 555,230 217,0 414,-88 556,-230 142,-142 230,-339 230,-556l0 -2652c0,-63 14,-124 40,-180 26,-55 64,-105 112,-146l0 0 555 -451 -94 -116 -557 453c-65,54 -116,122 -152,197 -35,76 -54,159 -54,243l0 2652c0,176 -71,335 -186,450 -115,115 -274,186 -450,186 -175,0 -334,-71 -449,-186 -115,-115 -186,-274 -186,-450l0 0 0 -2188c0,-64 -26,-122 -68,-164l0 0c-42,-42 -100,-68 -164,-68l0 150z"/>
   <path class="fil3" d="M15565 5467c23,0 43,-9 58,-23l0 -1c15,-14 24,-35 24,-57l0 -140c0,-23 -9,-43 -24,-58l0 0c-15,-15 -35,-24 -58,-24l0 -150c64,0 122,26 164,68l0 0c42,42 68,100 68,164l0 140c0,64 -26,122 -68,163l0 0c-42,42 -100,68 -164,68l0 -150z"/>
   <path class="fil3" d="M15565 6071c23,0 43,-9 58,-24l0 0c15,-15 24,-35 24,-58l0 -140c0,-22 -9,-43 -24,-58l0 0c-15,-14 -35,-24 -58,-24l0 -150c64,0 122,26 164,68l0 0c42,42 68,100 68,164l0 140c0,64 -26,122 -68,164l0 0c-42,42 -100,68 -164,68l0 -150z"/>
   <path class="fil3" d="M15323 6303l-1832 0c-23,0 -43,-10 -58,-24l0 0c-15,-15 -24,-36 -24,-58 0,-23 9,-44 24,-58l0 0c15,-15 35,-24 58,-24l1832 0c45,0 82,37 82,82 0,45 -37,82 -82,82zm0 -314l-1832 0c-64,0 -122,26 -164,68l0 0c-42,42 -68,100 -68,164 0,64 26,121 68,163l0 1c42,42 100,68 164,68l1832 0c128,0 232,-104 232,-232 0,-128 -104,-232 -232,-232z"/>
   <path class="fil3" d="M15323 5699l-692 0c-23,0 -43,-9 -58,-24l0 0c-15,-15 -24,-35 -24,-58 0,-23 9,-43 24,-58l0 0c15,-15 35,-24 58,-24l692 0c45,0 82,37 82,82 0,45 -37,82 -82,82zm0 -314l-692 0c-64,0 -122,26 -164,68l0 0c-42,42 -68,100 -68,164 0,64 26,122 68,164l0 0c42,42 100,68 164,68l692 0c128,0 232,-104 232,-232 0,-128 -104,-232 -232,-232z"/>
   <path class="fil3" d="M15323 4932l-1422 0c-58,0 -110,-24 -148,-62 -38,-38 -62,-90 -62,-148 0,-58 24,-110 62,-148 38,-38 90,-61 148,-61 9,0 19,0 29,2 10,1 19,3 29,6l3 1 233 76 4 1c8,3 16,6 24,7 7,1 15,2 24,2 38,0 72,-15 96,-40 24,-24 40,-58 40,-95 0,-38 -16,-72 -40,-96l0 0c-24,-25 -58,-40 -96,-40l-310 0c-87,0 -165,35 -221,92 -57,57 -92,135 -92,221l0 200 0 0c0,68 27,129 72,173 44,45 105,72 173,72l1454 0c45,0 82,-36 82,-82 0,-45 -37,-81 -82,-81zm0 313l-1454 0c-109,0 -208,-44 -279,-115 -72,-72 -116,-171 -116,-280l0 0 0 -200c0,-128 52,-243 136,-327 83,-84 199,-136 327,-136l310 0c79,0 150,32 202,84l0 0c52,52 84,123 84,202 0,78 -32,150 -84,201 -52,52 -123,84 -202,84 -16,0 -33,-2 -51,-5 -18,-3 -34,-8 -50,-14l-230 -75 0 0 0 0c-2,0 -4,-1 -7,-1 -2,0 -5,0 -8,0 -17,0 -31,6 -42,17 -11,11 -18,26 -18,42 0,17 7,31 18,42 11,11 25,18 42,18l1422 0c128,0 232,103 232,231 0,128 -104,232 -232,232z"/>
   <circle class="fil2 str2" cx="15555" cy="5013" r="232"/>
   <circle class="fil2 str2" cx="15555" cy="5617" r="232"/>
   <circle class="fil2 str2" cx="15555" cy="6221" r="232"/>
   <circle class="fil2 str2" cx="17878" cy="5149" r="232"/>
   <g>
    <g>
     <path class="fil0 str0" d="M19818 18352l-3880 0c2020,-282 1682,-2298 1751,-7166 70,-4868 51,-7831 26,-9737l326 0c-25,1906 -44,4869 26,9737 69,4868 -269,6884 1751,7166z"/>
     <rect class="fil0 str1" x="15884" y="18352" width="3987.98" height="55.64" rx="41" ry="40"/>
    </g>
    <path class="fil0 str1" d="M17760 859l236 0c92,0 167,-75 167,-166l0 -55c0,-25 -21,-45 -46,-45l-494 0c-16,0 -30,13 -30,30l0 70c0,91 75,166 167,166z"/>
    <path class="fil0 str1" d="M17878 1176l0 0c85,0 155,-70 155,-156l0 -161 -310 0 0 161c0,86 70,156 155,156z"/>
    <path class="fil0 str1" d="M17778 1449l200 0 0 -303c-26,18 -57,30 -91,30l0 0c-42,0 -81,-18 -109,-45l0 318z"/>
   </g>
   <path class="fil1" d="M22051 3106l0 0c217,0 413,124 552,324 135,192 218,456 218,746 0,290 -83,554 -218,746 -139,200 -335,324 -552,324l0 0 -1528 0c-64,0 -122,-26 -164,-68l0 0c-42,-42 -68,-100 -68,-164 0,-64 26,-122 68,-164l0 0c42,-42 100,-68 164,-68l1462 0 0 0c76,0 145,-31 195,-81 49,-49 80,-118 80,-194 0,-76 -31,-145 -80,-195 -50,-49 -119,-80 -195,-80l0 0 -109 0 -168 0 0 0c-118,0 -224,-48 -301,-125 -77,-76 -124,-183 -124,-300l0 -138c0,-155 63,-296 165,-398 101,-102 242,-165 398,-165l205 0zm-1528 1990l1528 0 0 0c166,0 318,-99 430,-260 117,-167 190,-401 190,-660 0,-259 -73,-493 -190,-661 -112,-160 -264,-259 -430,-259l0 0 -205 0c-114,0 -218,46 -292,121 -75,75 -121,178 -121,292l0 138c0,76 30,145 80,194 50,50 119,81 195,81l0 0 168 0 109 0 0 0c118,0 224,47 301,124 77,77 124,184 124,301 0,117 -47,224 -124,300 -77,77 -183,125 -301,125l0 0 -1462 0c-23,0 -43,9 -58,24l0 0c-15,15 -24,35 -24,58 0,22 9,43 24,58l0 0c15,14 35,24 58,24z"/>
   <path class="fil1" d="M20523 5699c-23,0 -43,-9 -58,-24l0 0c-15,-15 -24,-35 -24,-58 0,-22 9,-43 24,-57l0 -1c15,-14 35,-23 58,-23l832 0c23,0 43,9 58,24l0 -1c15,15 24,36 24,58 0,23 -9,44 -24,58l0 0c-15,15 -35,24 -58,24l-832 0zm-232 -82c0,64 26,122 68,164l0 0c42,42 100,68 164,68l832 0c64,0 122,-26 164,-68l0 0c42,-42 68,-100 68,-164 0,-63 -26,-121 -68,-163l0 -1c-42,-41 -100,-67 -164,-67l-832 0c-64,0 -122,26 -164,67l0 0c-42,42 -68,100 -68,164z"/>
   <path class="fil1" d="M20523 6303c-23,0 -43,-9 -58,-24l0 0c-15,-15 -24,-35 -24,-58 0,-23 9,-43 24,-58l0 0c15,-15 35,-24 58,-24l1709 0 0 0c111,0 211,45 284,118 73,72 118,173 118,284l0 261c0,78 -32,149 -83,200 -51,51 -122,83 -200,83l0 0 0 0 -324 -1 0 0c-39,0 -74,-16 -99,-41l-1 0c-25,-26 -41,-61 -41,-100l0 -400c0,-66 -27,-126 -70,-170l0 0 0 0c-44,-43 -104,-70 -170,-70l0 0 -1123 0zm-232 -82c0,64 26,122 68,164l0 0c42,42 100,68 164,68l1123 0 0 0c25,0 48,10 64,26l0 0c16,16 26,39 26,64l0 400c0,80 33,153 86,205l0 1c52,52 125,85 205,85l0 0 324 0 0 1 0 0c119,0 227,-49 306,-127 78,-79 127,-187 127,-306l0 -261c0,-153 -62,-290 -162,-390 -100,-100 -238,-162 -390,-162l0 0 -1709 0c-64,0 -122,26 -164,68l0 0c-42,42 -68,100 -68,164z"/>
   <path class="fil4" d="M18613 2467c0,-392 318,-711 711,-711 392,0 710,319 710,711"/>
   <path class="fil1" d="M20191 4864c-23,0 -43,-9 -58,-24l0 0c-15,-15 -24,-36 -24,-58l0 -2315 0 0c0,-217 -88,-413 -230,-555 -142,-143 -338,-231 -555,-231 -217,0 -414,88 -556,231 -142,142 -230,338 -230,555l0 1852c0,64 -14,125 -40,180 -25,55 -64,106 -112,146l0 0 -555 451 94 116 557 -452c65,-55 117,-122 152,-198 35,-75 54,-158 54,-243l0 -1852c0,-175 71,-334 186,-449 115,-115 274,-187 450,-187 175,0 334,72 449,187 115,115 186,274 186,449l0 0 0 2315c0,64 26,122 68,164l0 0c42,42 100,68 164,68l0 -150z"/>
   <path class="fil1" d="M20191 6371c-23,0 -43,9 -58,24l0 0c-15,15 -24,35 -24,58l0 6188 0 0c0,217 -88,414 -230,556 -142,142 -338,230 -555,230 -217,0 -414,-88 -556,-230 -142,-142 -230,-339 -230,-556l0 -6652c0,-63 -14,-124 -40,-180 -25,-55 -64,-105 -112,-146l0 0 -555 -451 94 -116 557 453c65,54 117,122 152,197 35,76 54,159 54,243l0 6652c0,176 71,335 186,450 115,115 274,186 450,186 175,0 334,-71 449,-186 115,-115 186,-274 186,-450l0 0 0 -6188c0,-64 26,-122 68,-164l0 0c42,-42 100,-68 164,-68l0 150z"/>
   <path class="fil1" d="M20191 6071c-23,0 -43,-9 -58,-24l0 0c-15,-15 -24,-35 -24,-58l0 -140c0,-22 9,-43 24,-58l0 0c15,-14 35,-24 58,-24l0 -150c-64,0 -122,26 -164,68l0 0c-42,42 -68,100 -68,164l0 140c0,64 26,122 68,164l0 0c42,42 100,68 164,68l0 -150z"/>
   <path class="fil1" d="M20191 5467c-23,0 -43,-9 -58,-23l0 -1c-15,-14 -24,-35 -24,-57l0 -140c0,-23 9,-43 24,-58l0 0c15,-15 35,-24 58,-24l0 -150c-64,0 -122,26 -164,68l0 0c-42,42 -68,100 -68,164l0 140c0,64 26,122 68,163l0 0c42,42 100,68 164,68l0 -150z"/>
   <circle class="fil2 str2" cx="20291" cy="5014" r="232"/>
   <circle class="fil2 str2" cx="20291" cy="5617" r="232"/>
   <circle class="fil2 str2" cx="20291" cy="6221" r="232"/>
   <path class="fil3" d="M15565 4864c23,0 43,-9 58,-24l0 0c15,-15 24,-36 24,-58l0 -2315 0 0c0,-217 88,-413 230,-555 142,-143 339,-231 555,-231 217,0 414,88 556,231 142,142 230,338 230,555l0 1852c0,64 14,125 40,180 26,55 64,106 112,146l0 0 555 451 -94 116 -557 -452c-65,-55 -116,-122 -152,-198 -35,-75 -54,-158 -54,-243l0 -1852c0,-175 -71,-334 -186,-449 -115,-115 -274,-187 -450,-187 -175,0 -334,72 -449,187 -115,115 -186,274 -186,449l0 0 0 2315c0,64 -26,122 -68,164l0 0c-42,42 -100,68 -164,68l0 -150z"/>
   <path class="fil3" d="M15565 6371c23,0 43,9 58,24l0 0c15,15 24,35 24,58l0 2188 0 0c0,217 88,414 230,556 142,142 339,230 555,230 217,0 414,-88 556,-230 142,-142 230,-339 230,-556l0 -2652c0,-63 14,-124 40,-180 26,-55 64,-105 112,-146l0 0 555 -451 -94 -116 -557 453c-65,54 -116,122 -152,197 -35,76 -54,159 -54,243l0 2652c0,176 -71,335 -186,450 -115,115 -274,186 -450,186 -175,0 -334,-71 -449,-186 -115,-115 -186,-274 -186,-450l0 0 0 -2188c0,-64 -26,-122 -68,-164l0 0c-42,-42 -100,-68 -164,-68l0 150z"/>
   <path class="fil3" d="M15565 5467c23,0 43,-9 58,-23l0 -1c15,-14 24,-35 24,-57l0 -140c0,-23 -9,-43 -24,-58l0 0c-15,-15 -35,-24 -58,-24l0 -150c64,0 122,26 164,68l0 0c42,42 68,100 68,164l0 140c0,64 -26,122 -68,163l0 0c-42,42 -100,68 -164,68l0 -150z"/>
   <path class="fil3" d="M15565 6071c23,0 43,-9 58,-24l0 0c15,-15 24,-35 24,-58l0 -140c0,-22 -9,-43 -24,-58l0 0c-15,-14 -35,-24 -58,-24l0 -150c64,0 122,26 164,68l0 0c42,42 68,100 68,164l0 140c0,64 -26,122 -68,164l0 0c-42,42 -100,68 -164,68l0 -150z"/>
   <path class="fil3" d="M15323 6303l-1832 0c-23,0 -43,-10 -58,-24l0 0c-15,-15 -24,-36 -24,-58 0,-23 9,-44 24,-58l0 0c15,-15 35,-24 58,-24l1832 0c45,0 82,37 82,82 0,45 -37,82 -82,82zm0 -314l-1832 0c-64,0 -122,26 -164,68l0 0c-42,42 -68,100 -68,164 0,64 26,121 68,163l0 1c42,42 100,68 164,68l1832 0c128,0 232,-104 232,-232 0,-128 -104,-232 -232,-232z"/>
   <path class="fil3" d="M15323 5699l-692 0c-23,0 -43,-9 -58,-24l0 0c-15,-15 -24,-35 -24,-58 0,-23 9,-43 24,-58l0 0c15,-15 35,-24 58,-24l692 0c45,0 82,37 82,82 0,45 -37,82 -82,82zm0 -314l-692 0c-64,0 -122,26 -164,68l0 0c-42,42 -68,100 -68,164 0,64 26,122 68,164l0 0c42,42 100,68 164,68l692 0c128,0 232,-104 232,-232 0,-128 -104,-232 -232,-232z"/>
   <path class="fil3" d="M15323 4932l-1422 0c-58,0 -110,-24 -148,-62 -38,-38 -62,-90 -62,-148 0,-58 24,-110 62,-148 38,-38 90,-61 148,-61 9,0 19,0 29,2 10,1 19,3 29,6l3 1 233 76 4 1c8,3 16,6 24,7 7,1 15,2 24,2 38,0 72,-15 96,-40 24,-24 40,-58 40,-95 0,-38 -16,-72 -40,-96l0 0c-24,-25 -58,-40 -96,-40l-310 0c-87,0 -165,35 -221,92 -57,57 -92,135 -92,221l0 200 0 0c0,68 27,129 72,173 44,45 105,72 173,72l1454 0c45,0 82,-36 82,-82 0,-45 -37,-81 -82,-81zm0 313l-1454 0c-109,0 -208,-44 -279,-115 -72,-72 -116,-171 -116,-280l0 0 0 -200c0,-128 52,-243 136,-327 83,-84 199,-136 327,-136l310 0c79,0 150,32 202,84l0 0c52,52 84,123 84,202 0,78 -32,150 -84,201 -52,52 -123,84 -202,84 -16,0 -33,-2 -51,-5 -18,-3 -34,-8 -50,-14l-230 -75 0 0 0 0c-2,0 -4,-1 -7,-1 -2,0 -5,0 -8,0 -17,0 -31,6 -42,17 -11,11 -18,26 -18,42 0,17 7,31 18,42 11,11 25,18 42,18l1422 0c128,0 232,103 232,231 0,128 -104,232 -232,232z"/>
   <circle class="fil2 str2" cx="15555" cy="5013" r="232"/>
   <circle class="fil2 str2" cx="15555" cy="5617" r="232"/>
   <circle class="fil2 str2" cx="15555" cy="6221" r="232"/>
   <circle class="fil2 str2" cx="17878" cy="5149" r="232"/>
  </g>
  <g id="_627822992">
   <path class="fil4 str1" d="M7923 13569c2,-36 67,-65 147,-65 43,0 84,9 112,24"/>
   <path class="fil0 str0" d="M6186 18352c1651,-231 1726,-1620 1737,-4781 0,34 43,55 100,57 89,2 104,-110 204,-109 35,1 100,6 102,59 11,3155 87,4543 1737,4774l26 0c15,0 28,12 28,27l0 0c0,16 -13,28 -28,28l-3932 0c-15,0 -28,-12 -28,-28l0 0c0,-15 13,-27 28,-27l26 0zm1804 -5922c-26,2 -64,-6 -64,-43 2,-379 5,-779 11,-1201 70,-4868 51,-7831 26,-9737l63 0 0 -310c-34,-29 -55,-71 -55,-119l0 -161 37 0c-92,0 -167,-75 -167,-166l0 -70c0,-17 14,-30 30,-30l494 0c25,0 46,20 46,45l0 55c0,91 -75,166 -167,166l37 0 0 161c0,84 -67,153 -151,156l5 0 0 0c34,0 65,-12 91,-30l0 303 63 0c-25,1906 -44,4869 26,9737 6,423 9,823 11,1203l0 0c0,-53 -45,-66 -100,-67 -93,-1 -90,96 -236,108z"/>
   <path class="fil4 str1" d="M8029 12424c31,14 80,23 132,23 91,0 165,-26 165,-58 0,0 0,0 0,0"/>
   <path class="fil0 str1" d="M7976 4303l300 0 0 -1159c0,-179 90,-343 208,-461 118,-118 280,-190 460,-190 179,0 342,72 459,190 118,118 191,280 191,460 0,179 -73,342 -191,459 -117,118 -280,191 -459,191 -180,0 -342,-73 -460,-191 -118,-117 -190,-280 -190,-459l0 693c170,159 398,257 650,257 262,0 499,-107 671,-279 172,-171 279,-409 279,-671 0,-263 -107,-500 -279,-672 -172,-172 -409,-278 -671,-278 -263,0 -500,106 -672,278 -172,172 -296,409 -296,672l0 1160z"/>
   <path class="fil0 str1" d="M7976 1453l300 0 0 1749c0,179 90,343 208,461 118,117 280,190 460,190 179,0 342,-73 459,-190 118,-118 191,-280 191,-460 0,-179 -73,-342 -191,-459 -117,-118 -280,-191 -459,-191 -180,0 -342,73 -460,191 -118,117 -190,280 -190,459l0 -693c170,-159 398,-257 650,-257 262,0 499,106 671,278 172,172 279,410 279,672 0,262 -107,500 -279,672 -172,172 -409,278 -671,278 -263,0 -500,-106 -672,-278 -172,-172 -296,-410 -296,-672l0 -1750z"/>
   <line class="fil4 str4" x1="8126" y1="12624" x2="8121" y2= "13330" />
   <path class="fil7 str1" d="M7501 7907l1932 0c23,0 43,9 58,24l0 0c15,15 24,35 24,58 0,23 -9,43 -24,58l0 0c-15,15 -35,24 -58,24l-1932 0 0 150 1932 0c64,0 122,-26 164,-68l0 0c42,-42 68,-100 68,-164 0,-64 -26,-122 -68,-164l0 0c-42,-42 -100,-68 -164,-68l-1932 0 0 150z"/>
   <path class="fil7 str1" d="M7501 7307l1798 0 2017 0c90,0 172,-35 231,-92 61,-58 98,-138 98,-226 0,-88 -37,-168 -98,-226 -59,-57 -141,-92 -231,-92l-1751 0 -832 0c-23,0 -43,-9 -58,-24l0 0c-15,-15 -24,-35 -24,-58 0,-23 9,-43 24,-58l0 0c15,-15 35,-24 58,-24l832 0 1751 0c133,0 253,54 341,141 87,88 141,208 141,341 0,133 -54,254 -141,341 -88,87 -208,141 -341,141l-2017 0 -1798 0 0 150 1798 0 2017 0c174,0 332,-71 447,-185 114,-114 185,-272 185,-447 0,-174 -71,-332 -185,-447 -115,-114 -273,-185 -447,-185l-1751 0 -832 0c-64,0 -122,26 -164,68l0 0c-42,42 -68,100 -68,164 0,64 26,122 68,164l0 0c42,42 100,68 164,68l832 0 1751 0c50,0 96,19 128,50 32,31 51,72 51,118 0,46 -19,88 -51,118 -32,31 -78,50 -128,50l-2017 0 -1798 0 0 150z"/>
   <path class="fil7 str1" d="M7501 8507l2166 0 0 0c96,0 186,-19 275,-50 86,-31 171,-75 261,-126 29,-17 62,-38 95,-58 123,-76 241,-149 372,-144 103,3 198,37 265,98 58,53 94,127 94,220l0 128 0 156c0,93 -36,167 -94,220 -67,61 -162,95 -265,98 -131,5 -249,-68 -372,-144 -33,-20 -66,-40 -95,-57 -90,-52 -175,-96 -261,-126 -89,-32 -179,-51 -275,-51l0 0 -2166 0 0 150 2166 0 0 0c76,0 150,15 225,42 77,28 154,67 236,114 34,20 63,38 91,55 144,89 280,173 455,167 138,-5 269,-53 362,-137 88,-80 143,-192 143,-331l0 -156 0 -128c0,-139 -55,-251 -143,-331 -93,-84 -223,-132 -362,-137 -175,-6 -311,78 -455,167 -28,17 -57,35 -91,55 -82,47 -159,87 -236,114 -75,27 -149,42 -225,43l0 -1 -2166 0 0 150z"/>
   <polygon class="fil0 str1" points="7972,7089 8282,7089 8292,8889 7962,8889 "/>
   <line class="fil4 str2" x1="7501" y1="7232" x2="7451" y2= "7231" />
   <line class="fil4 str2" x1="7501" y1="7546" x2="7451" y2= "7545" />
   <line class="fil4 str2" x1="7451" y1="7231" x2="7451" y2= "7545" />
   <line class="fil4 str2" x1="7501" y1="7832" x2="7451" y2= "7831" />
   <line class="fil4 str2" x1="7501" y1="8146" x2="7451" y2= "8145" />
   <line class="fil4 str2" x1="7451" y1="7831" x2="7451" y2= "8145" />
   <line class="fil4 str2" x1="7501" y1="8432" x2="7451" y2= "8431" />
   <line class="fil4 str2" x1="7501" y1="8746" x2="7451" y2= "8745" />
   <line class="fil4 str2" x1="7451" y1="8431" x2="7451" y2= "8745" />
   <path class="fil8 str2" d="M7391 7152l19 0c17,0 30,13 30,30l0 99c0,16 -13,30 -30,30l-19 0c-16,0 -30,-14 -30,-30l0 -99c0,-17 14,-30 30,-30z"/>
   <path class="fil8 str2" d="M7391 7446l20 0c16,0 30,13 30,30l0 98c0,17 -14,30 -30,30l-20 0c-16,0 -30,-13 -30,-30l0 -98c0,-17 14,-30 30,-30z"/>
   <path class="fil8 str2" d="M7391 7762l19 0c17,0 30,13 30,30l0 99c0,16 -13,30 -30,30l-19 0c-16,0 -30,-14 -30,-30l0 -99c0,-17 14,-30 30,-30z"/>
   <path class="fil8 str2" d="M7391 8056l20 0c16,0 30,13 30,30l0 98c0,17 -14,30 -30,30l-20 0c-16,0 -30,-13 -30,-30l0 -98c0,-17 14,-30 30,-30z"/>
   <path class="fil8 str2" d="M7391 8372l19 0c17,0 30,13 30,30l0 99c0,16 -13,30 -30,30l-19 0c-16,0 -30,-14 -30,-30l0 -99c0,-17 14,-30 30,-30z"/>
   <path class="fil8 str2" d="M7391 8666l20 0c16,0 30,13 30,30l0 98c0,17 -14,30 -30,30l-20 0c-16,0 -30,-13 -30,-30l0 -98c0,-17 14,-30 30,-30z"/>
  </g>
  <g id="_627819824">
   <path class="fil4 str1" d="M2237 13569c2,-36 67,-65 146,-65 44,0 85,9 113,24"/>
   <path class="fil0 str0" d="M500 18352c1651,-231 1726,-1620 1737,-4781 0,34 42,55 100,57 89,2 104,-110 203,-109 36,1 101,6 103,59 11,3155 87,4543 1737,4774l26 0c15,0 28,12 28,27l0 0c0,16 -13,28 -28,28l-3932 0c-16,0 -28,-12 -28,-28l0 0c0,-15 12,-27 28,-27l26 0zm1804 -5922c-26,2 -64,-6 -64,-43 2,-379 5,-779 11,-1201 69,-4868 51,-7831 26,-9737l63 0 0 -310c-34,-29 -55,-71 -55,-119l0 -161 37 0c-92,0 -167,-75 -167,-166l0 -70c0,-17 14,-30 30,-30l494 0c25,0 46,20 46,45l0 55c0,91 -75,166 -167,166l37 0 0 161c0,84 -67,153 -151,156l5 0 0 0c34,0 65,-12 91,-30l0 303 63 0c-25,1906 -44,4869 26,9737 6,423 9,823 10,1203l0 0c0,-53 -44,-66 -99,-67 -93,-1 -90,96 -236,108z"/>
   <path class="fil4 str1" d="M2343 12424c31,14 80,23 132,23 91,0 164,-26 164,-58 0,0 0,0 0,0"/>
   <line class="fil4 str4" x1="2440" y1="12624" x2="2435" y2= "13330" />
   <path class="fil0 str1" d="M2290 4303l300 0 0 -1159c0,-179 90,-343 208,-461 117,-118 280,-190 459,-190 180,0 342,72 460,190 118,118 190,280 190,460 0,179 -72,342 -190,459 -118,118 -280,191 -460,191 -179,0 -342,-73 -459,-191 -118,-117 -191,-280 -191,-459l0 693c170,159 399,257 650,257 263,0 500,-107 672,-279 172,-171 278,-409 278,-671 0,-263 -106,-500 -278,-672 -172,-172 -409,-278 -672,-278 -262,0 -499,106 -671,278 -172,172 -296,409 -296,672l0 1160z"/>
   <path class="fil0 str1" d="M2290 1453l300 0 0 1749c0,179 90,343 208,461 117,117 280,190 459,190 180,0 342,-73 460,-190 118,-118 190,-280 190,-460 0,-179 -72,-342 -190,-459 -118,-118 -280,-191 -460,-191 -179,0 -342,73 -459,191 -118,117 -191,280 -191,459l0 -693c170,-159 399,-257 650,-257 263,0 500,106 672,278 172,172 278,410 278,672 0,262 -106,500 -278,672 -172,172 -409,278 -672,278 -262,0 -499,-106 -671,-278 -172,-172 -296,-410 -296,-672l0 -1750z"/>
  </g>
  <polygon class="fil9" points="1643,17346 1037,17346 1037,17264 1513,16946 1037,16946 1037,16869 1643,16869 1643,16951 1167,17269 1643,17269 "/>
  <path id="1" class="fil9" d="M1643 16800l-606 -232 0 -89 606 -246 0 91 -184 70 0 255 184 66 0 85zm-249 -174l0 -207 -168 63c-51,20 -93,34 -127,44 40,8 79,19 117,33l178 67z"/>
  <polygon id="2" class="fil9" points="1643,16078 1108,16078 1108,16278 1037,16278 1037,15797 1108,15797 1108,15997 1643,15997 "/>
  <path id="3" class="fil9" d="M1037 15318l0 -81 350 0c61,0 109,7 145,21 36,14 65,38 87,74 23,36 34,83 34,142 0,56 -10,103 -29,139 -20,36 -48,61 -85,77 -37,15 -88,23 -152,23l-350 0 0 -80 350 0c52,0 91,-5 116,-15 25,-10 44,-27 58,-50 13,-24 20,-53 20,-87 0,-59 -13,-101 -40,-126 -27,-25 -78,-37 -154,-37l-350 0z"/>
  <path id="4" class="fil9" d="M1643 15102l-606 0 0 -269c0,-54 5,-95 16,-123 11,-28 30,-51 58,-68 27,-16 58,-25 91,-25 43,0 79,14 109,42 29,28 48,71 56,129 10,-21 20,-38 30,-49 22,-23 49,-45 81,-66l165 -105 0 100 -126 81c-37,23 -65,42 -84,57 -19,16 -33,29 -40,41 -8,12 -13,24 -16,37 -2,9 -3,24 -3,44l0 93 269 0 0 81zm-339 -81l0 -172c0,-37 -4,-65 -11,-86 -8,-20 -20,-36 -37,-47 -16,-10 -34,-16 -54,-16 -29,0 -52,11 -71,31 -18,21 -27,54 -27,98l0 192 200 0z"/>
  <polygon id="5" class="fil9" points="1643,14488 1037,14488 1037,14408 1286,14408 1286,14095 1037,14095 1037,14014 1643,14014 1643,14095 1358,14095 1358,14408 1643,14408 "/>
  <path id="6" class="fil9" d="M1348 13905c-101,0 -179,-27 -236,-81 -57,-54 -85,-124 -85,-210 0,-56 13,-106 40,-151 26,-45 64,-79 111,-103 48,-23 102,-35 163,-35 61,0 116,12 165,37 48,25 85,60 110,106 25,45 37,94 37,147 0,57 -14,108 -41,153 -28,45 -65,79 -113,102 -48,23 -98,35 -151,35zm1 -83c73,0 131,-20 173,-59 41,-39 63,-88 63,-148 0,-60 -22,-110 -64,-149 -42,-39 -102,-58 -180,-58 -50,0 -93,8 -129,25 -37,17 -65,41 -86,73 -20,32 -30,68 -30,108 0,57 19,106 58,147 39,40 104,61 195,61z"/>
  <path id="7" class="fil9" d="M1643 13220l-606 0 0 -269c0,-54 5,-95 16,-123 11,-28 30,-50 58,-67 27,-17 58,-25 91,-25 43,0 79,14 109,42 29,27 48,70 56,128 10,-21 20,-37 30,-48 22,-23 49,-46 81,-66l165 -105 0 100 -126 80c-37,23 -65,43 -84,58 -19,15 -33,29 -40,41 -8,12 -13,24 -16,36 -2,9 -3,24 -3,45l0 93 269 0 0 80zm-339 -80l0 -173c0,-36 -4,-65 -11,-85 -8,-21 -20,-37 -37,-47 -16,-11 -34,-16 -54,-16 -29,0 -52,10 -71,31 -18,21 -27,53 -27,98l0 192 200 0z"/>
  <polygon id="8" class="fil9" points="1643,12611 1037,12611 1037,12529 1513,12211 1037,12211 1037,12134 1643,12134 1643,12216 1167,12534 1643,12534 "/>
  <path class="fil9" d="M7243 17186l-606 160 0 -83 397 -91c42,-10 83,-19 124,-26 -65,-16 -102,-25 -112,-28l-409 -115 0 -96 307 -87c76,-22 147,-37 214,-48 -38,-8 -82,-18 -132,-30l-389 -95 0 -81 606 166 0 78 -462 127c-39,11 -62,18 -71,20 28,7 51,13 71,18l462 128 0 83z"/>
  <polygon id="1" class="fil9" points="7243,16478 6637,16478 6637,16398 7243,16398 "/>
  <polygon id="2" class="fil9" points="7243,16255 6637,16255 6637,15817 6708,15817 6708,16175 6894,16175 6894,15840 6965,15840 6965,16175 7172,16175 7172,15803 7243,15803 "/>
  <polygon id="3" class="fil9" points="7243,15693 6637,15693 6637,15610 7113,15292 6637,15292 6637,15215 7243,15215 7243,15298 6767,15616 7243,15616 "/>
  <polygon id="4" class="fil9" points="7243,15079 6637,15079 6637,14641 6708,14641 6708,14998 6894,14998 6894,14664 6965,14664 6965,14998 7172,14998 7172,14627 7243,14627 "/>
  <path id="5" class="fil9" d="M7243 14514l-606 0 0 -269c0,-54 5,-95 16,-123 11,-28 30,-50 58,-67 27,-17 58,-25 91,-25 43,0 79,14 109,42 29,27 48,70 56,128 10,-21 20,-37 30,-48 22,-23 49,-46 81,-66l165 -105 0 100 -126 80c-37,23 -65,43 -84,58 -19,15 -33,29 -40,41 -8,12 -13,24 -16,36 -2,9 -3,24 -3,45l0 93 269 0 0 80zm-339 -80l0 -173c0,-36 -4,-65 -11,-85 -8,-21 -20,-37 -37,-47 -16,-11 -34,-16 -54,-16 -29,0 -52,10 -71,31 -18,21 -27,53 -27,98l0 192 200 0z"/>
  <polygon id="6" class="fil9" points="7243,13665 6637,13665 6637,13256 6708,13256 6708,13584 6897,13584 6897,13300 6968,13300 6968,13584 7243,13584 "/>
  <polygon id="7" class="fil9" points="7061,13191 6986,13191 6986,12961 7061,12961 "/>
  <polygon id="8" class="fil9" points="7243,12867 6637,12867 6637,12786 6886,12786 6886,12473 6637,12473 6637,12392 7243,12392 7243,12473 6958,12473 6958,12786 7243,12786 "/>
  <path id="9" class="fil9" d="M6948 12283c-101,0 -179,-27 -236,-81 -57,-54 -85,-124 -85,-209 0,-56 13,-107 40,-152 26,-45 64,-79 111,-102 48,-24 102,-36 163,-36 61,0 116,13 165,37 48,25 85,60 110,106 25,45 37,94 37,147 0,57 -14,108 -41,153 -28,45 -65,79 -113,102 -48,24 -98,35 -151,35zm1 -83c73,0 131,-19 173,-59 41,-39 63,-88 63,-147 0,-61 -22,-110 -64,-149 -42,-39 -102,-59 -180,-59 -50,0 -93,8 -129,25 -37,17 -65,41 -86,73 -20,32 -30,68 -30,108 0,57 19,106 58,147 39,41 104,61 195,61z"/>
  <path id="10" class="fil9" d="M7243 11598l-606 0 0 -268c0,-54 5,-95 16,-124 11,-28 30,-50 58,-67 27,-17 58,-25 91,-25 43,0 79,14 109,42 29,28 48,70 56,129 10,-22 20,-38 30,-49 22,-23 49,-45 81,-66l165 -105 0 100 -126 80c-37,24 -65,43 -84,58 -19,15 -33,29 -40,41 -8,12 -13,24 -16,36 -2,9 -3,24 -3,45l0 93 269 0 0 80zm-339 -80l0 -172c0,-37 -4,-65 -11,-86 -8,-21 -20,-36 -37,-47 -16,-11 -34,-16 -54,-16 -29,0 -52,10 -71,31 -18,21 -27,53 -27,98l0 192 200 0z"/>
  <polygon id="11" class="fil9" points="7243,10989 6637,10989 6637,10907 7113,10589 6637,10589 6637,10512 7243,10512 7243,10594 6767,10912 7243,10912 "/>
  <polygon class="fil9" points="16981,17346 16375,17346 16375,16937 16446,16937 16446,17266 16635,17266 16635,16981 16706,16981 16706,17266 16981,17266 "/>
  <polygon id="1" class="fil9" points="16799,16872 16725,16872 16725,16642 16799,16642 "/>
  <path id="2" class="fil9" d="M16981 16555l-606 0 0 -228c0,-46 6,-83 18,-111 13,-28 31,-50 57,-66 25,-16 52,-24 80,-24 26,0 50,7 73,21 23,14 41,35 56,64 10,-37 29,-65 55,-85 25,-20 56,-29 91,-29 29,0 55,6 80,18 24,12 43,26 56,44 13,18 23,40 30,66 7,27 10,60 10,98l0 232zm-351 -81l0 -131c0,-36 -3,-61 -7,-76 -6,-21 -17,-36 -31,-47 -14,-10 -31,-15 -53,-15 -20,0 -38,5 -53,14 -15,10 -26,24 -31,42 -6,18 -9,48 -9,92l0 121 184 0zm280 0l0 -151c0,-26 -1,-44 -3,-55 -3,-18 -9,-33 -16,-46 -8,-12 -20,-22 -34,-31 -15,-8 -32,-12 -52,-12 -22,0 -42,6 -59,18 -16,12 -28,28 -35,48 -7,21 -10,50 -10,89l0 140 209 0z"/>
  <path id="3" class="fil9" d="M16981 15751l-606 0 0 -209c0,-47 3,-83 9,-108 8,-34 22,-64 43,-88 27,-33 62,-56 104,-72 42,-16 90,-24 144,-24 46,0 87,5 122,16 36,11 65,25 88,41 24,17 42,36 55,56 14,20 24,44 31,72 7,28 10,61 10,97l0 219zm-71 -80l0 -129c0,-40 -4,-72 -11,-94 -8,-23 -18,-41 -32,-55 -19,-19 -44,-34 -77,-44 -32,-11 -71,-16 -116,-16 -64,0 -113,10 -147,31 -34,21 -57,46 -69,76 -8,21 -12,56 -12,104l0 127 464 0z"/>
  <path id="4" class="fil9" d="M16686 15164c-100,0 -179,-27 -236,-81 -57,-54 -85,-124 -85,-209 0,-56 13,-106 40,-151 27,-45 64,-80 112,-103 47,-24 101,-36 162,-36 61,0 116,13 165,38 48,24 85,60 110,105 25,46 37,95 37,147 0,58 -14,108 -41,153 -28,45 -65,79 -113,103 -47,23 -98,34 -151,34zm1 -83c73,0 131,-19 173,-58 42,-40 63,-89 63,-148 0,-61 -21,-110 -64,-149 -42,-39 -102,-59 -180,-59 -49,0 -92,9 -129,25 -37,17 -65,41 -85,73 -21,33 -31,69 -31,109 0,56 20,105 59,146 39,41 103,61 194,61z"/>
  <path id="5" class="fil9" d="M16981 14481l-606 0 0 -229c0,-40 2,-71 6,-92 5,-30 14,-55 28,-75 14,-20 33,-36 58,-49 25,-12 53,-18 83,-18 51,0 95,16 130,49 36,33 54,92 54,178l0 156 247 0 0 80zm-318 -80l0 -157c0,-52 -10,-88 -29,-110 -19,-22 -47,-33 -82,-33 -25,0 -47,6 -65,19 -18,13 -30,30 -36,51 -3,13 -5,38 -5,75l0 155 217 0z"/>
  <path id="6" class="fil9" d="M16981 13916l-606 0 0 -228c0,-41 2,-71 6,-93 5,-29 14,-54 28,-75 14,-20 33,-36 58,-48 25,-13 53,-19 83,-19 51,0 95,17 130,50 36,32 54,92 54,178l0 155 247 0 0 80zm-318 -80l0 -157c0,-52 -10,-88 -29,-110 -19,-22 -47,-33 -82,-33 -25,0 -47,7 -65,20 -18,12 -30,29 -36,50 -3,14 -5,39 -5,75l0 155 217 0z"/>
  <polygon id="7" class="fil9" points="16981,13350 16375,13350 16375,12912 16446,12912 16446,13270 16632,13270 16632,12935 16703,12935 16703,13270 16910,13270 16910,12898 16981,12898 "/>
  <polygon id="8" class="fil9" points="16981,12790 16375,12790 16375,12710 16910,12710 16910,12412 16981,12412 "/>
  <polygon id="9" class="fil9" points="16981,12313 16375,12313 16375,12232 16625,12232 16625,11919 16375,11919 16375,11839 16981,11839 16981,11919 16696,11919 16696,12232 16981,12232 "/>
  <path id="10" class="fil9" d="M16686 11729c-100,0 -179,-27 -236,-81 -57,-54 -85,-124 -85,-209 0,-56 13,-107 40,-152 27,-44 64,-79 112,-102 47,-24 101,-36 162,-36 61,0 116,13 165,38 48,24 85,60 110,105 25,46 37,95 37,147 0,57 -14,108 -41,153 -28,45 -65,79 -113,103 -47,23 -98,34 -151,34zm1 -83c73,0 131,-19 173,-59 42,-39 63,-88 63,-147 0,-61 -21,-110 -64,-149 -42,-39 -102,-59 -180,-59 -49,0 -92,9 -129,25 -37,17 -65,41 -85,73 -21,32 -31,68 -31,108 0,57 20,106 59,147 39,41 103,61 194,61z"/>
  <path id="11" class="fil9" d="M16981 11044l-606 0 0 -268c0,-54 5,-95 16,-123 11,-29 30,-51 58,-68 28,-17 58,-25 91,-25 43,0 79,14 109,42 29,28 48,71 56,129 10,-22 20,-38 30,-49 22,-23 49,-45 81,-66l165 -105 0 100 -126 81c-37,23 -64,42 -84,57 -19,15 -32,29 -40,41 -8,12 -13,24 -16,37 -2,9 -3,23 -3,44l0 93 269 0 0 80zm-339 -80l0 -172c0,-37 -3,-65 -11,-86 -7,-21 -20,-36 -36,-47 -17,-11 -35,-16 -55,-16 -28,0 -52,10 -71,31 -18,21 -27,54 -27,98l0 192 200 0z"/>
  <polygon id="12" class="fil9" points="16981,10436 16375,10436 16375,10353 16851,10035 16375,10035 16375,9958 16981,9958 16981,10040 16505,10358 16981,10358 "/>
  <polygon class="fil9" points="26139,17346 25533,17346 25533,16937 25604,16937 25604,17266 25793,17266 25793,16981 25864,16981 25864,17266 26139,17266 "/>
  <polygon id="1" class="fil9" points="25957,16872 25883,16872 25883,16642 25957,16642 "/>
  <path id="2" class="fil9" d="M26139 16555l-606 0 0 -228c0,-46 6,-83 19,-111 12,-28 31,-50 56,-66 26,-16 52,-24 80,-24 26,0 50,7 73,21 23,14 42,35 56,64 11,-37 29,-65 55,-85 26,-20 56,-29 92,-29 28,0 54,6 79,18 24,12 43,26 56,44 13,18 23,40 30,66 7,27 10,60 10,98l0 232zm-351 -81l0 -131c0,-36 -2,-61 -7,-76 -6,-21 -16,-36 -30,-47 -14,-10 -32,-15 -53,-15 -21,0 -38,5 -54,14 -15,10 -26,24 -31,42 -6,18 -9,48 -9,92l0 121 184 0zm280 0l0 -151c0,-26 -1,-44 -3,-55 -3,-18 -8,-33 -16,-46 -8,-12 -19,-22 -34,-31 -15,-8 -32,-12 -51,-12 -23,0 -43,6 -59,18 -17,12 -29,28 -36,48 -6,21 -10,50 -10,89l0 140 209 0z"/>
  <polygon id="3" class="fil9" points="25957,16025 25883,16025 25883,15795 25957,15795 "/>
  <path id="4" class="fil9" d="M26139 15696l-381 0 0 66 -58 0 0 -66 -47 0c-29,0 -51,-2 -65,-8 -19,-7 -35,-19 -47,-37 -12,-18 -18,-44 -18,-76 0,-21 3,-44 7,-70l66 12c-3,15 -4,30 -4,43 0,23 4,39 14,48 10,10 28,14 54,14l40 0 0 -85 58 0 0 85 381 0 0 74z"/>
  <polygon id="5" class="fil9" points="26139,15095 25604,15095 25604,15295 25533,15295 25533,14815 25604,14815 25604,15015 26139,15015 "/>
  <path id="6" class="fil9" d="M26139 14730l-606 0 0 -268c0,-54 6,-95 17,-123 10,-29 30,-51 57,-68 28,-17 58,-25 91,-25 43,0 80,14 109,42 30,28 48,71 56,129 11,-22 21,-38 31,-49 21,-23 48,-45 80,-66l165 -105 0 100 -126 81c-36,23 -64,42 -83,57 -20,15 -33,29 -41,41 -8,12 -13,24 -16,37 -2,9 -3,23 -3,44l0 93 269 0 0 80zm-338 -80l0 -172c0,-37 -4,-65 -12,-86 -7,-21 -19,-36 -36,-47 -17,-11 -35,-16 -54,-16 -29,0 -53,10 -71,31 -19,21 -28,54 -28,98l0 192 201 0z"/>
  <polygon id="7" class="fil9" points="26139,14107 25533,14107 25533,14027 26139,14027 "/>
  <path id="8" class="fil9" d="M26139 13885l-606 0 0 -228c0,-41 2,-71 6,-93 5,-29 14,-54 28,-75 14,-20 34,-36 59,-48 25,-13 52,-19 82,-19 52,0 95,17 131,50 35,32 53,92 53,178l0 155 247 0 0 80zm-318 -80l0 -157c0,-52 -10,-88 -29,-110 -19,-22 -46,-33 -81,-33 -26,0 -47,7 -65,19 -19,13 -31,30 -36,51 -4,14 -6,39 -6,75l0 155 217 0z"/>
  <polygon id="9" class="fil9" points="26139,13319 25533,13319 25533,12881 25604,12881 25604,13239 25791,13239 25791,12904 25862,12904 25862,13239 26068,13239 26068,12867 26139,12867 "/>
  <polygon id="10" class="fil9" points="26139,12759 25533,12759 25533,12679 26068,12679 26068,12381 26139,12381 "/>
  <polygon id="11" class="fil9" points="26139,12282 25533,12282 25533,12201 25783,12201 25783,11888 25533,11888 25533,11808 26139,11808 26139,11888 25854,11888 25854,12201 26139,12201 "/>
  <path id="12" class="fil9" d="M25844 11698c-100,0 -179,-27 -236,-81 -57,-54 -85,-124 -85,-209 0,-56 13,-107 40,-152 27,-44 64,-79 112,-102 48,-24 102,-36 162,-36 62,0 117,13 165,37 49,25 85,60 110,106 25,45 38,95 38,147 0,57 -14,108 -42,153 -27,45 -65,79 -113,103 -47,23 -97,34 -151,34zm2 -83c73,0 130,-19 172,-59 42,-39 63,-88 63,-147 0,-61 -21,-110 -64,-149 -42,-39 -102,-59 -180,-59 -49,0 -92,9 -129,25 -37,17 -65,41 -85,73 -20,32 -31,68 -31,108 0,57 20,106 59,147 39,41 104,61 195,61z"/>
  <path id="13" class="fil9" d="M26139 11013l-606 0 0 -268c0,-54 6,-95 17,-123 10,-29 30,-51 57,-68 28,-17 58,-25 91,-25 43,0 80,14 109,42 30,28 48,71 56,129 11,-22 21,-38 31,-49 21,-23 48,-45 80,-66l165 -105 0 100 -126 80c-36,24 -64,43 -83,58 -20,15 -33,29 -41,41 -8,12 -13,24 -16,37 -2,9 -3,23 -3,44l0 93 269 0 0 80zm-338 -80l0 -172c0,-37 -4,-65 -12,-86 -7,-21 -19,-36 -36,-47 -17,-11 -35,-16 -54,-16 -29,0 -53,10 -71,31 -19,21 -28,54 -28,98l0 192 201 0z"/>
  <polygon id="14" class="fil9" points="26139,10404 25533,10404 25533,10322 26009,10004 25533,10004 25533,9927 26139,9927 26139,10009 25664,10327 26139,10327 "/>
  <rect class="fil0 str1" x="28364" y="11050" width="1000" height="300"/>
  <rect class="fil5" x="28364" y="11850" width="1000" height="300"/>
  <rect class="fil10" x="28364" y="12650" width="1000" height="300"/>
  <rect class="fil10" x="28364" y="13450" width="1000" height="300"/>
  <rect class="fil11" x="28364" y="14250" width="1000" height="300"/>
  <rect class="fil5" x="28489" y="13450" width="250" height="300"/>
  <rect class="fil5" x="28989" y="13450" width="250" height="300"/>
  <path class="fil9" d="M29767 11350l-97 -256 47 0 55 153c6,17 11,34 16,52 4,-14 9,-30 16,-49l57 -156 45 0 -97 256 -42 0z"/>
  <path id="1" class="fil9" d="M29928 11222c0,-47 13,-83 39,-105 22,-19 49,-29 81,-29 35,0 64,12 86,35 22,23 34,55 34,95 0,33 -5,59 -15,78 -10,19 -25,33 -43,44 -19,10 -40,15 -62,15 -36,0 -65,-11 -87,-34 -22,-23 -33,-56 -33,-99zm44 0c0,33 7,57 21,73 15,17 33,25 55,25 21,0 39,-8 54,-25 14,-16 21,-41 21,-74 0,-32 -7,-56 -22,-72 -14,-17 -32,-25 -53,-25 -22,0 -40,8 -55,25 -14,16 -21,40 -21,73z"/>
  <path id="2" class="fil9" d="M30219 11350l0 -256 39 0 0 36c18,-28 45,-42 81,-42 15,0 30,3 43,9 12,5 22,12 29,21 6,9 11,20 13,32 2,8 2,23 2,43l0 157 -43 0 0 -156c0,-17 -2,-31 -5,-39 -3,-9 -9,-16 -18,-21 -9,-6 -19,-8 -30,-8 -19,0 -34,6 -48,17 -13,12 -20,34 -20,67l0 140 -43 0z"/>
  <path id="3" class="fil9" d="M30798 11318c-16,14 -32,23 -47,29 -15,6 -31,8 -48,8 -28,0 -50,-6 -65,-20 -15,-14 -22,-31 -22,-53 0,-12 3,-24 8,-34 6,-10 13,-19 23,-25 9,-6 19,-11 31,-14 8,-2 21,-4 39,-7 35,-4 61,-9 77,-14 0,-6 0,-10 0,-12 0,-17 -4,-30 -12,-37 -11,-10 -28,-15 -49,-15 -21,0 -36,4 -46,11 -10,7 -17,20 -21,38l-43 -6c4,-18 10,-33 19,-44 9,-11 22,-20 39,-26 16,-6 36,-9 58,-9 22,0 40,3 53,8 14,5 24,12 31,19 6,8 11,18 13,30 2,7 2,21 2,40l0 58c0,40 1,65 3,76 2,11 5,21 11,31l-46 0c-4,-9 -7,-20 -8,-32zm-4 -96c-15,6 -39,11 -71,16 -18,2 -30,5 -38,9 -7,3 -13,7 -17,14 -4,6 -6,13 -6,20 0,12 4,21 13,29 9,7 22,11 39,11 16,0 31,-3 44,-11 13,-7 23,-17 29,-29 5,-10 7,-25 7,-44l0 -15z"/>
  <polygon id="4" class="fil9" points="30904,11350 30904,10996 30948,10996 30948,11350 "/>
  <polygon id="5" class="fil9" points="31014,11350 31014,10996 31057,10996 31057,11350 "/>
  <path id="6" class="fil9" d="M31299 11267l45 6c-7,26 -20,46 -39,61 -19,14 -43,21 -73,21 -37,0 -67,-11 -89,-34 -22,-23 -33,-55 -33,-97 0,-43 11,-76 33,-100 23,-24 51,-36 87,-36 34,0 62,12 83,35 22,23 33,56 33,98 0,3 0,7 0,12l-191 0c1,28 9,50 24,64 14,15 32,23 53,23 16,0 29,-4 41,-13 11,-8 20,-22 26,-40zm-142 -70l143 0c-2,-21 -8,-37 -16,-48 -14,-17 -32,-25 -54,-25 -20,0 -37,6 -50,20 -14,13 -21,31 -23,53z"/>
  <path id="7" class="fil9" d="M31399 11350l0 -256 39 0 0 36c19,-28 46,-42 82,-42 15,0 29,3 42,9 13,5 23,12 29,21 7,9 11,20 14,32 1,8 2,23 2,43l0 157 -43 0 0 -156c0,-17 -2,-31 -5,-39 -4,-9 -10,-16 -18,-21 -9,-6 -19,-8 -30,-8 -19,0 -35,6 -48,17 -14,12 -20,34 -20,67l0 140 -44 0z"/>
  <path id="8" class="fil9" d="M31851 11350l-40 0 0 -354 43 0 0 127c18,-23 42,-35 70,-35 16,0 31,3 45,10 14,6 26,15 35,26 9,12 16,26 21,42 5,16 8,34 8,52 0,44 -11,78 -33,102 -21,24 -47,35 -78,35 -30,0 -54,-12 -71,-37l0 32zm0 -130c0,31 4,53 12,66 14,23 32,34 56,34 19,0 35,-8 49,-25 14,-16 20,-41 20,-73 0,-34 -6,-58 -19,-74 -14,-16 -30,-24 -48,-24 -19,0 -36,8 -50,25 -13,16 -20,40 -20,71z"/>
  <path id="9" class="fil9" d="M32261 11267l45 6c-7,26 -20,46 -40,61 -19,14 -43,21 -73,21 -37,0 -67,-11 -89,-34 -22,-23 -33,-55 -33,-97 0,-43 12,-76 34,-100 22,-24 51,-36 86,-36 34,0 62,12 84,35 21,23 32,56 32,98 0,3 0,7 0,12l-191 0c2,28 9,50 24,64 14,15 32,23 53,23 16,0 30,-4 41,-13 11,-8 20,-22 27,-40zm-143 -70l143 0c-2,-21 -7,-37 -16,-48 -14,-17 -32,-25 -54,-25 -20,0 -37,6 -50,20 -14,13 -21,31 -23,53z"/>
  <path id="10" class="fil9" d="M32361 11350l0 -256 39 0 0 36c18,-28 45,-42 81,-42 15,0 30,3 42,9 13,5 23,12 30,21 6,9 10,20 13,32 2,8 2,23 2,43l0 157 -43 0 0 -156c0,-17 -2,-31 -5,-39 -3,-9 -9,-16 -18,-21 -9,-6 -19,-8 -30,-8 -19,0 -35,6 -48,17 -13,12 -20,34 -20,67l0 140 -43 0z"/>
  <path id="11" class="fil9" d="M32803 11350l0 -38c-20,29 -47,43 -81,43 -16,0 -30,-2 -43,-8 -13,-6 -22,-13 -29,-22 -6,-9 -11,-20 -13,-32 -2,-9 -3,-22 -3,-41l0 -158 44 0 0 142c0,22 1,37 2,45 3,12 9,21 18,27 8,7 19,10 32,10 13,0 26,-3 37,-10 11,-7 19,-16 24,-27 5,-12 7,-28 7,-50l0 -137 44 0 0 256 -39 0z"/>
  <path id="12" class="fil9" d="M33004 11311l6 39c-12,2 -23,3 -33,3 -15,0 -27,-2 -36,-7 -9,-5 -15,-12 -18,-20 -4,-8 -6,-25 -6,-51l0 -148 -32 0 0 -33 32 0 0 -64 44 -26 0 90 43 0 0 33 -43 0 0 150c0,13 0,21 2,24 2,4 4,7 7,9 4,2 9,3 15,3 5,0 11,-1 19,-2z"/>
  <path id="13" class="fil9" d="M33024 11350l0 -35 162 -188c-18,1 -34,2 -48,2l-104 0 0 -35 209 0 0 28 -139 163 -27 30c20,-2 38,-3 55,-3l119 0 0 38 -227 0z"/>
  <path id="14" class="fil9" d="M33388 11311l6 39c-12,2 -23,3 -32,3 -16,0 -28,-2 -37,-7 -9,-5 -15,-12 -18,-20 -4,-8 -6,-25 -6,-51l0 -148 -32 0 0 -33 32 0 0 -64 44 -26 0 90 43 0 0 33 -43 0 0 150c0,13 1,21 2,24 2,4 4,7 8,9 3,2 8,3 14,3 5,0 12,-1 19,-2z"/>
  <path id="15" class="fil9" d="M33606 11267l45 6c-7,26 -20,46 -39,61 -19,14 -44,21 -73,21 -38,0 -67,-11 -89,-34 -22,-23 -33,-55 -33,-97 0,-43 11,-76 33,-100 22,-24 51,-36 86,-36 34,0 62,12 84,35 22,23 32,56 32,98 0,3 0,7 0,12l-191 0c2,28 10,50 24,64 14,15 32,23 54,23 16,0 29,-4 40,-13 12,-8 20,-22 27,-40zm-142 -70l143 0c-2,-21 -8,-37 -17,-48 -14,-17 -32,-25 -53,-25 -20,0 -37,6 -51,20 -13,13 -21,31 -22,53z"/>
  <path id="16" class="fil9" d="M33705 11350l0 -256 39 0 0 39c10,-18 20,-30 28,-36 9,-6 18,-9 28,-9 15,0 30,5 45,14l-16 40c-10,-6 -21,-9 -31,-9 -10,0 -18,3 -26,9 -7,5 -13,13 -16,23 -5,16 -7,33 -7,51l0 134 -44 0z"/>
  <path id="17" class="fil9" d="M34014 11350l0 -354 157 0c31,0 55,4 72,10 16,6 29,17 39,34 10,16 15,33 15,53 0,25 -9,46 -25,63 -16,17 -41,28 -75,33 12,6 22,12 28,18 14,12 27,28 39,47l61 96 -58 0 -47 -74c-14,-21 -25,-37 -34,-48 -9,-12 -17,-19 -24,-24 -6,-4 -14,-8 -21,-9 -5,-1 -14,-2 -26,-2l-54 0 0 157 -47 0zm47 -198l100 0c22,0 38,-2 50,-6 12,-5 22,-12 28,-21 6,-10 9,-21 9,-32 0,-17 -6,-31 -18,-41 -12,-11 -31,-17 -57,-17l-112 0 0 117z"/>
  <path id="18" class="fil9" d="M34348 11222c0,-47 13,-83 40,-105 22,-19 48,-29 80,-29 35,0 64,12 86,35 23,23 34,55 34,95 0,33 -5,59 -15,78 -10,19 -24,33 -43,44 -19,10 -40,15 -62,15 -36,0 -65,-11 -87,-34 -22,-23 -33,-56 -33,-99zm44 0c0,33 8,57 22,73 14,17 32,25 54,25 22,0 40,-8 54,-25 14,-16 22,-41 22,-74 0,-32 -8,-56 -22,-72 -15,-17 -32,-25 -54,-25 -22,0 -40,8 -54,25 -14,16 -22,40 -22,73z"/>
  <path id="19" class="fil9" d="M34639 11350l0 -354 43 0 0 128c21,-24 46,-36 77,-36 19,0 35,4 49,11 14,8 24,18 30,31 6,14 9,33 9,58l0 162 -44 0 0 -162c0,-22 -4,-38 -14,-47 -9,-10 -22,-15 -39,-15 -13,0 -25,3 -36,10 -12,6 -20,15 -24,27 -5,11 -8,27 -8,47l0 140 -43 0z"/>
  <path id="20" class="fil9" d="M34913 11350l0 -256 39 0 0 39c10,-18 19,-30 28,-36 8,-6 18,-9 28,-9 14,0 29,5 44,14l-15 40c-11,-6 -21,-9 -32,-9 -9,0 -18,3 -25,9 -8,5 -13,13 -16,23 -5,16 -7,33 -7,51l0 134 -44 0z"/>
  <path id="21" class="fil9" d="M35172 11311l6 39c-12,2 -23,3 -32,3 -16,0 -28,-2 -37,-7 -9,-5 -15,-12 -18,-20 -4,-8 -6,-25 -6,-51l0 -148 -32 0 0 -33 32 0 0 -64 44 -26 0 90 43 0 0 33 -43 0 0 150c0,13 1,21 2,24 2,4 4,7 8,9 3,2 8,3 14,3 5,0 12,-1 19,-2z"/>
  <path id="22" class="fil9" d="M35390 11267l45 6c-7,26 -20,46 -39,61 -19,14 -44,21 -73,21 -38,0 -67,-11 -89,-34 -22,-23 -33,-55 -33,-97 0,-43 11,-76 33,-100 22,-24 51,-36 86,-36 34,0 62,12 84,35 22,23 33,56 33,98 0,3 -1,7 -1,12l-191 0c2,28 10,50 24,64 15,15 32,23 54,23 16,0 29,-4 40,-13 12,-8 21,-22 27,-40zm-142 -70l143 0c-2,-21 -8,-37 -17,-48 -13,-17 -31,-25 -53,-25 -20,0 -37,6 -51,20 -13,13 -21,31 -22,53z"/>
  <path id="23" class="fil9" d="M35490 11046l0 -50 43 0 0 50 -43 0zm0 304l0 -256 43 0 0 256 -43 0z"/>
  <polygon id="24" class="fil9" points="35599,11350 35599,10996 35642,10996 35642,11350 "/>
  <polygon class="fil9" points="29705,12200 29705,11846 29943,11846 29943,11888 29752,11888 29752,11998 29918,11998 29918,12039 29752,12039 29752,12200 "/>
  <polygon id="1" class="fil9" points="29981,12094 29981,12050 30116,12050 30116,12094 "/>
  <polygon id="2" class="fil9" points="30170,12200 30170,11846 30217,11846 30217,11992 30400,11992 30400,11846 30447,11846 30447,12200 30400,12200 30400,12034 30217,12034 30217,12200 "/>
  <path id="3" class="fil9" d="M30503 12072c0,-47 14,-83 40,-105 22,-19 49,-29 81,-29 35,0 64,12 86,35 22,23 33,55 33,95 0,33 -4,59 -14,78 -10,19 -25,33 -44,44 -18,10 -39,15 -61,15 -36,0 -65,-11 -87,-34 -23,-23 -34,-56 -34,-99zm45 0c0,33 7,57 21,73 15,17 33,25 55,25 21,0 39,-8 54,-25 14,-16 21,-41 21,-74 0,-32 -7,-56 -22,-72 -14,-17 -32,-25 -53,-25 -22,0 -40,8 -55,25 -14,16 -21,40 -21,73z"/>
  <path id="4" class="fil9" d="M30794 12200l0 -256 39 0 0 39c10,-18 19,-30 28,-36 8,-6 17,-9 27,-9 15,0 30,5 45,14l-15 40c-11,-6 -21,-9 -32,-9 -9,0 -18,3 -25,9 -8,5 -13,13 -16,23 -5,16 -8,33 -8,51l0 134 -43 0z"/>
  <path id="5" class="fil9" d="M30959 12200l0 -256 39 0 0 36c19,-28 46,-42 81,-42 16,0 30,3 43,9 13,5 22,12 29,21 6,9 11,20 13,32 2,8 3,23 3,43l0 157 -44 0 0 -156c0,-17 -1,-31 -5,-39 -3,-9 -9,-16 -18,-21 -8,-6 -18,-8 -30,-8 -18,0 -34,6 -48,17 -13,12 -20,34 -20,67l0 140 -43 0z"/>
  <path id="6" class="fil9" d="M31328 12161l6 39c-12,2 -23,3 -33,3 -16,0 -28,-2 -37,-7 -8,-5 -14,-12 -18,-20 -3,-8 -5,-25 -5,-51l0 -148 -32 0 0 -33 32 0 0 -64 43 -26 0 90 44 0 0 33 -44 0 0 150c0,13 1,21 3,24 1,4 4,7 7,9 4,2 9,3 15,3 5,0 11,-1 19,-2z"/>
  <path id="7" class="fil9" d="M31546 12117l45 6c-7,26 -21,46 -40,61 -19,14 -43,21 -73,21 -37,0 -67,-11 -89,-34 -22,-23 -33,-55 -33,-97 0,-43 11,-76 34,-100 22,-24 50,-36 86,-36 34,0 62,12 84,35 21,23 32,56 32,98 0,3 0,7 0,12l-191 0c2,28 9,50 24,64 14,15 32,23 53,23 16,0 30,-4 41,-13 11,-8 20,-22 27,-40zm-143 -70l143 0c-2,-21 -7,-37 -16,-48 -14,-17 -32,-25 -54,-25 -20,0 -37,6 -50,20 -14,13 -21,31 -23,53z"/>
  <path id="8" class="fil9" d="M31645 11896l0 -50 44 0 0 50 -44 0zm0 304l0 -256 44 0 0 256 -44 0z"/>
  <polygon id="9" class="fil9" points="31754,12200 31754,11846 31798,11846 31798,12200 "/>
  <path class="fil9" d="M29700 13000l0 -354 133 0c27,0 49,4 65,11 16,7 29,18 38,33 10,15 14,31 14,47 0,15 -4,29 -12,42 -8,14 -20,25 -37,33 21,6 38,17 49,32 12,15 18,33 18,53 0,17 -4,32 -11,47 -7,14 -16,25 -26,33 -10,7 -23,13 -39,17 -15,4 -34,6 -57,6l-135 0zm47 -205l77 0c21,0 35,-1 44,-4 12,-4 21,-10 27,-18 6,-8 9,-18 9,-31 0,-11 -2,-22 -8,-31 -6,-9 -14,-15 -24,-18 -11,-3 -29,-5 -54,-5l-71 0 0 107zm0 164l88 0c16,0 26,-1 32,-2 11,-2 20,-5 27,-10 8,-4 13,-11 18,-20 5,-8 7,-18 7,-29 0,-14 -3,-25 -10,-35 -7,-10 -16,-17 -28,-21 -12,-3 -29,-5 -52,-5l-82 0 0 122z"/>
  <polygon id="1" class="fil9" points="30009,12894 30009,12850 30143,12850 30143,12894 "/>
  <polygon id="2" class="fil9" points="30198,13000 30198,12646 30245,12646 30245,12792 30428,12792 30428,12646 30475,12646 30475,13000 30428,13000 30428,12834 30245,12834 30245,13000 "/>
  <path id="3" class="fil9" d="M30531 12872c0,-47 13,-83 40,-105 22,-19 49,-29 80,-29 35,0 64,12 87,35 22,23 33,55 33,95 0,33 -5,59 -15,78 -10,19 -24,33 -43,44 -19,10 -39,15 -62,15 -36,0 -65,-11 -87,-34 -22,-23 -33,-56 -33,-99zm45 0c0,33 7,57 21,73 15,17 33,25 54,25 22,0 40,-8 54,-25 15,-16 22,-41 22,-74 0,-32 -8,-56 -22,-72 -14,-17 -32,-25 -54,-25 -21,0 -39,8 -54,25 -14,16 -21,40 -21,73z"/>
  <path id="4" class="fil9" d="M30822 13000l0 -256 39 0 0 39c10,-18 19,-30 27,-36 9,-6 18,-9 28,-9 15,0 30,5 45,14l-16 40c-10,-6 -21,-9 -31,-9 -10,0 -18,3 -26,9 -7,5 -12,13 -16,23 -5,16 -7,33 -7,51l0 134 -43 0z"/>
  <path id="5" class="fil9" d="M30987 13000l0 -256 39 0 0 36c18,-28 46,-42 81,-42 16,0 30,3 43,9 13,5 22,12 29,21 6,9 11,20 13,32 2,8 3,23 3,43l0 157 -44 0 0 -156c0,-17 -2,-31 -5,-39 -3,-9 -9,-16 -18,-21 -8,-6 -19,-8 -30,-8 -19,0 -34,6 -48,17 -13,12 -20,34 -20,67l0 140 -43 0z"/>
  <path id="6" class="fil9" d="M31356 12961l6 39c-13,2 -24,3 -33,3 -16,0 -28,-2 -37,-7 -8,-5 -15,-12 -18,-20 -4,-8 -5,-25 -5,-51l0 -148 -32 0 0 -33 32 0 0 -64 43 -26 0 90 44 0 0 33 -44 0 0 150c0,13 1,21 2,24 2,4 4,7 8,9 3,2 8,3 15,3 4,0 11,-1 19,-2z"/>
  <path id="7" class="fil9" d="M31573 12917l45 6c-7,26 -20,46 -39,61 -19,14 -43,21 -73,21 -37,0 -67,-11 -89,-34 -22,-23 -33,-55 -33,-97 0,-43 11,-76 33,-100 22,-24 51,-36 87,-36 34,0 62,12 83,35 22,23 33,56 33,98 0,3 0,7 0,12l-191 0c1,28 9,50 23,64 15,15 33,23 54,23 16,0 29,-4 41,-13 11,-8 20,-22 26,-40zm-142 -70l143 0c-2,-21 -8,-37 -17,-48 -13,-17 -31,-25 -53,-25 -20,0 -37,6 -50,20 -14,13 -21,31 -23,53z"/>
  <path id="8" class="fil9" d="M31673 12696l0 -50 44 0 0 50 -44 0zm0 304l0 -256 44 0 0 256 -44 0z"/>
  <polygon id="9" class="fil9" points="31782,13000 31782,12646 31825,12646 31825,13000 "/>
  <path class="fil9" d="M29767 13800l-97 -256 47 0 55 153c6,17 11,34 16,52 4,-14 9,-30 16,-49l57 -156 45 0 -97 256 -42 0z"/>
  <path id="1" class="fil9" d="M29928 13672c0,-47 13,-83 39,-105 22,-19 49,-29 81,-29 35,0 64,12 86,35 22,23 34,55 34,95 0,33 -5,59 -15,78 -10,19 -25,33 -43,44 -19,10 -40,15 -62,15 -36,0 -65,-11 -87,-34 -22,-23 -33,-56 -33,-99zm44 0c0,33 7,57 21,73 15,17 33,25 55,25 21,0 39,-8 54,-25 14,-16 21,-41 21,-74 0,-32 -7,-56 -22,-72 -14,-17 -32,-25 -53,-25 -22,0 -40,8 -55,25 -14,16 -21,40 -21,73z"/>
  <path id="2" class="fil9" d="M30219 13800l0 -256 39 0 0 36c18,-28 45,-42 81,-42 15,0 30,3 43,9 12,5 22,12 29,21 6,9 11,20 13,32 2,8 2,23 2,43l0 157 -43 0 0 -156c0,-17 -2,-31 -5,-39 -3,-9 -9,-16 -18,-21 -9,-6 -19,-8 -30,-8 -19,0 -34,6 -48,17 -13,12 -20,34 -20,67l0 140 -43 0z"/>
  <polygon id="3" class="fil9" points="30638,13800 30638,13446 30877,13446 30877,13488 30685,13488 30685,13598 30851,13598 30851,13639 30685,13639 30685,13800 "/>
  <polygon id="4" class="fil9" points="30915,13694 30915,13650 31049,13650 31049,13694 "/>
  <polygon id="5" class="fil9" points="31104,13800 31104,13446 31151,13446 31151,13592 31334,13592 31334,13446 31381,13446 31381,13800 31334,13800 31334,13634 31151,13634 31151,13800 "/>
  <path id="6" class="fil9" d="M31437 13672c0,-47 13,-83 40,-105 22,-19 48,-29 80,-29 35,0 64,12 86,35 23,23 34,55 34,95 0,33 -5,59 -15,78 -10,19 -24,33 -43,44 -19,10 -40,15 -62,15 -36,0 -65,-11 -87,-34 -22,-23 -33,-56 -33,-99zm44 0c0,33 8,57 22,73 14,17 32,25 54,25 22,0 40,-8 54,-25 14,-16 22,-41 22,-74 0,-32 -8,-56 -22,-72 -15,-17 -32,-25 -54,-25 -22,0 -40,8 -54,25 -14,16 -22,40 -22,73z"/>
  <path id="7" class="fil9" d="M31727 13800l0 -256 39 0 0 39c10,-18 20,-30 28,-36 9,-6 18,-9 28,-9 15,0 30,5 45,14l-16 40c-10,-6 -21,-9 -31,-9 -10,0 -18,3 -26,9 -7,5 -13,13 -16,23 -5,16 -7,33 -7,51l0 134 -44 0z"/>
  <path id="8" class="fil9" d="M31892 13800l0 -256 39 0 0 36c19,-28 46,-42 82,-42 15,0 29,3 42,9 13,5 23,12 29,21 7,9 11,20 14,32 1,8 2,23 2,43l0 157 -43 0 0 -156c0,-17 -2,-31 -5,-39 -4,-9 -10,-16 -18,-21 -9,-6 -19,-8 -30,-8 -19,0 -35,6 -48,17 -13,12 -20,34 -20,67l0 140 -44 0z"/>
  <path id="9" class="fil9" d="M32472 13800l0 -38c-20,29 -47,43 -81,43 -15,0 -30,-2 -43,-8 -13,-6 -22,-13 -29,-22 -6,-9 -11,-20 -13,-32 -2,-9 -3,-22 -3,-41l0 -158 44 0 0 142c0,22 1,37 2,45 3,12 9,21 18,27 9,7 19,10 32,10 13,0 26,-3 37,-10 11,-7 19,-16 24,-27 5,-12 7,-28 7,-50l0 -137 44 0 0 256 -39 0z"/>
  <path id="10" class="fil9" d="M32579 13800l0 -256 39 0 0 36c19,-28 46,-42 81,-42 16,0 30,3 43,9 13,5 23,12 29,21 6,9 11,20 13,32 2,8 3,23 3,43l0 157 -44 0 0 -156c0,-17 -1,-31 -5,-39 -3,-9 -9,-16 -18,-21 -8,-6 -18,-8 -30,-8 -18,0 -34,6 -47,17 -14,12 -21,34 -21,67l0 140 -43 0z"/>
  <path id="11" class="fil9" d="M33019 13800l0 -33c-16,26 -40,38 -72,38 -20,0 -39,-5 -56,-16 -17,-12 -30,-27 -40,-47 -9,-21 -14,-44 -14,-70 0,-25 5,-49 13,-69 9,-21 21,-37 38,-48 17,-11 37,-17 58,-17 15,0 29,4 41,10 12,7 22,15 29,26l0 -128 44 0 0 354 -41 0zm-137 -128c0,33 7,57 21,74 13,16 30,24 49,24 19,0 35,-8 48,-23 13,-16 20,-39 20,-71 0,-35 -7,-61 -20,-77 -14,-17 -30,-25 -50,-25 -20,0 -36,8 -49,24 -13,16 -19,40 -19,74z"/>
  <path id="12" class="fil9" d="M33269 13800l0 -354 133 0c27,0 48,4 65,11 16,7 29,18 38,33 9,15 14,31 14,47 0,15 -4,29 -12,42 -9,14 -21,25 -37,33 21,6 37,17 49,32 11,15 17,33 17,53 0,17 -3,32 -10,47 -7,14 -16,25 -26,33 -11,7 -23,13 -39,17 -16,4 -35,6 -57,6l-135 0zm47 -205l76 0c21,0 36,-1 45,-4 12,-4 21,-10 27,-18 6,-8 9,-18 9,-31 0,-11 -3,-22 -9,-31 -5,-9 -13,-15 -24,-18 -10,-3 -28,-5 -53,-5l-71 0 0 107zm0 164l88 0c15,0 26,-1 32,-2 11,-2 20,-5 27,-10 7,-4 13,-11 18,-20 4,-8 7,-18 7,-29 0,-14 -4,-25 -10,-35 -7,-10 -17,-17 -29,-21 -12,-3 -29,-5 -51,-5l-82 0 0 122z"/>
  <polygon id="13" class="fil9" points="33578,13694 33578,13650 33712,13650 33712,13694 "/>
  <polygon id="14" class="fil9" points="33767,13800 33767,13446 33814,13446 33814,13592 33996,13592 33996,13446 34043,13446 34043,13800 33996,13800 33996,13634 33814,13634 33814,13800 "/>
  <path id="15" class="fil9" d="M34100 13672c0,-47 13,-83 39,-105 22,-19 49,-29 81,-29 35,0 64,12 86,35 23,23 34,55 34,95 0,33 -5,59 -15,78 -10,19 -24,33 -43,44 -19,10 -40,15 -62,15 -36,0 -65,-11 -87,-34 -22,-23 -33,-56 -33,-99zm44 0c0,33 7,57 22,73 14,17 32,25 54,25 22,0 39,-8 54,-25 14,-16 21,-41 21,-74 0,-32 -7,-56 -21,-72 -15,-17 -33,-25 -54,-25 -22,0 -40,8 -54,25 -15,16 -22,40 -22,73z"/>
  <path id="16" class="fil9" d="M34390 13800l0 -256 39 0 0 39c10,-18 19,-30 28,-36 8,-6 18,-9 28,-9 14,0 29,5 45,14l-16 40c-10,-6 -21,-9 -32,-9 -9,0 -17,3 -25,9 -7,5 -13,13 -16,23 -5,16 -7,33 -7,51l0 134 -44 0z"/>
  <path id="17" class="fil9" d="M34555 13800l0 -256 39 0 0 36c19,-28 46,-42 82,-42 15,0 29,3 42,9 13,5 23,12 29,21 7,9 11,20 14,32 1,8 2,23 2,43l0 157 -43 0 0 -156c0,-17 -2,-31 -5,-39 -4,-9 -10,-16 -18,-21 -9,-6 -19,-8 -30,-8 -19,0 -35,6 -48,17 -14,12 -20,34 -20,67l0 140 -44 0z"/>
  <path id="18" class="fil9" d="M34924 13761l6 39c-12,2 -23,3 -33,3 -15,0 -27,-2 -36,-7 -9,-5 -15,-12 -18,-20 -4,-8 -6,-25 -6,-51l0 -148 -32 0 0 -33 32 0 0 -64 44 -26 0 90 43 0 0 33 -43 0 0 150c0,13 1,21 2,24 2,4 4,7 7,9 4,2 9,3 15,3 5,0 11,-1 19,-2z"/>
  <path id="19" class="fil9" d="M35142 13717l45 6c-7,26 -20,46 -39,61 -19,14 -44,21 -73,21 -38,0 -67,-11 -89,-34 -22,-23 -33,-55 -33,-97 0,-43 11,-76 33,-100 22,-24 51,-36 86,-36 34,0 62,12 84,35 22,23 32,56 32,98 0,3 0,7 0,12l-191 0c2,28 10,50 24,64 14,15 32,23 54,23 15,0 29,-4 40,-13 11,-8 20,-22 27,-40zm-142 -70l142 0c-1,-21 -7,-37 -16,-48 -14,-17 -32,-25 -54,-25 -20,0 -36,6 -50,20 -13,13 -21,31 -22,53z"/>
  <path id="20" class="fil9" d="M35242 13496l0 -50 43 0 0 50 -43 0zm0 304l0 -256 43 0 0 256 -43 0z"/>
  <polygon id="21" class="fil9" points="35351,13800 35351,13446 35394,13446 35394,13800 "/>
  <path id="22" class="fil9" d="M35638 13800l-40 0 0 -354 43 0 0 127c19,-23 42,-35 71,-35 15,0 30,3 44,10 14,6 26,15 35,26 9,12 16,26 21,42 6,16 8,34 8,52 0,44 -11,78 -32,102 -22,24 -48,35 -78,35 -31,0 -54,-12 -72,-37l0 32zm0 -130c0,31 4,53 12,66 14,23 33,34 56,34 19,0 35,-8 49,-25 14,-16 21,-41 21,-73 0,-34 -7,-58 -20,-74 -13,-16 -29,-24 -48,-24 -19,0 -36,8 -49,25 -14,16 -21,40 -21,71z"/>
  <path id="23" class="fil9" d="M36048 13717l45 6c-7,26 -20,46 -39,61 -19,14 -44,21 -73,21 -38,0 -67,-11 -89,-34 -22,-23 -33,-55 -33,-97 0,-43 11,-76 33,-100 22,-24 51,-36 86,-36 34,0 62,12 84,35 22,23 32,56 32,98 0,3 0,7 0,12l-191 0c2,28 10,50 24,64 14,15 32,23 54,23 15,0 29,-4 40,-13 11,-8 20,-22 27,-40zm-142 -70l142 0c-1,-21 -7,-37 -16,-48 -14,-17 -32,-25 -54,-25 -19,0 -36,6 -50,20 -13,13 -21,31 -22,53z"/>
  <path id="24" class="fil9" d="M36148 13800l0 -256 39 0 0 36c19,-28 46,-42 81,-42 16,0 30,3 43,9 13,5 22,12 29,21 6,9 11,20 13,32 2,8 3,23 3,43l0 157 -44 0 0 -156c0,-17 -1,-31 -5,-39 -3,-9 -9,-16 -18,-21 -8,-6 -18,-8 -30,-8 -18,0 -34,6 -48,17 -13,12 -20,34 -20,67l0 140 -43 0z"/>
  <path id="25" class="fil9" d="M36590 13800l0 -38c-20,29 -47,43 -81,43 -15,0 -29,-2 -42,-8 -13,-6 -23,-13 -30,-22 -6,-9 -10,-20 -13,-32 -2,-9 -2,-22 -2,-41l0 -158 43 0 0 142c0,22 1,37 3,45 2,12 8,21 17,27 9,7 20,10 33,10 13,0 25,-3 36,-10 12,-7 20,-16 24,-27 5,-12 7,-28 7,-50l0 -137 44 0 0 256 -39 0z"/>
  <path id="26" class="fil9" d="M36792 13761l5 39c-12,2 -23,3 -32,3 -16,0 -28,-2 -37,-7 -9,-5 -15,-12 -18,-20 -4,-8 -5,-25 -5,-51l0 -148 -33 0 0 -33 33 0 0 -64 43 -26 0 90 44 0 0 33 -44 0 0 150c0,13 1,21 2,24 2,4 4,7 8,9 3,2 8,3 15,3 4,0 11,-1 19,-2z"/>
  <path id="27" class="fil9" d="M36811 13800l0 -35 163 -188c-19,1 -35,2 -49,2l-104 0 0 -35 209 0 0 28 -139 163 -26 30c19,-2 37,-3 55,-3l118 0 0 38 -227 0z"/>
  <path id="28" class="fil9" d="M37176 13761l6 39c-13,2 -24,3 -33,3 -16,0 -28,-2 -37,-7 -8,-5 -14,-12 -18,-20 -4,-8 -5,-25 -5,-51l0 -148 -32 0 0 -33 32 0 0 -64 43 -26 0 90 44 0 0 33 -44 0 0 150c0,13 1,21 3,24 1,4 3,7 7,9 3,2 8,3 15,3 5,0 11,-1 19,-2z"/>
  <path class="fil9" d="M29697 14500l0 -354 43 0 0 128c21,-24 46,-36 77,-36 19,0 35,4 49,11 14,8 24,18 30,31 6,14 9,33 9,58l0 162 -44 0 0 -162c0,-22 -4,-38 -14,-47 -9,-10 -22,-15 -39,-15 -13,0 -25,3 -36,10 -12,6 -20,15 -24,27 -5,11 -8,27 -8,47l0 140 -43 0z"/>
  <path id="1" class="fil9" d="M29955 14372c0,-47 13,-83 40,-105 22,-19 49,-29 80,-29 36,0 64,12 87,35 22,23 33,55 33,95 0,33 -5,59 -14,78 -10,19 -25,33 -44,44 -19,10 -39,15 -62,15 -35,0 -64,-11 -87,-34 -22,-23 -33,-56 -33,-99zm45 0c0,33 7,57 21,73 15,17 33,25 54,25 22,0 40,-8 54,-25 15,-16 22,-41 22,-74 0,-32 -7,-56 -22,-72 -14,-17 -32,-25 -54,-25 -21,0 -39,8 -54,25 -14,16 -21,40 -21,73z"/>
  <path id="2" class="fil9" d="M30414 14406l42 6c-5,29 -16,52 -36,69 -19,16 -42,24 -70,24 -35,0 -63,-11 -85,-34 -21,-23 -32,-56 -32,-98 0,-28 5,-52 14,-73 9,-20 23,-36 42,-46 19,-11 39,-16 61,-16 28,0 51,7 68,21 18,14 29,34 34,60l-42 7c-4,-18 -11,-30 -21,-39 -10,-9 -23,-13 -37,-13 -22,0 -40,8 -54,23 -13,16 -20,41 -20,75 0,34 6,59 20,75 13,15 30,23 51,23 17,0 32,-5 43,-16 11,-10 19,-26 22,-48z"/>
  <path id="3" class="fil9" d="M30493 14500l0 -354 44 0 0 128c20,-24 45,-36 76,-36 19,0 35,4 49,11 14,8 24,18 30,31 6,14 9,33 9,58l0 162 -43 0 0 -162c0,-22 -5,-38 -14,-47 -10,-10 -23,-15 -40,-15 -13,0 -25,3 -36,10 -11,6 -19,15 -24,27 -5,11 -7,27 -7,47l0 140 -44 0z"/>
  <path id="4" class="fil9" d="M30915 14500l0 -223 -38 0 0 -33 38 0 0 -27c0,-18 2,-30 5,-39 4,-11 11,-20 22,-27 10,-7 25,-11 44,-11 12,0 26,2 41,5l-7 38c-9,-2 -17,-3 -25,-3 -14,0 -23,3 -28,9 -6,5 -9,16 -9,31l0 24 50 0 0 33 -49 0 0 223 -44 0z"/>
  <polygon id="5" class="fil9" points="31025,14394 31025,14350 31159,14350 31159,14394 "/>
  <path id="6" class="fil9" d="M31207 14500l0 -354 43 0 0 128c20,-24 46,-36 77,-36 18,0 35,4 49,11 14,8 24,18 30,31 6,14 9,33 9,58l0 162 -44 0 0 -162c0,-22 -4,-38 -14,-47 -9,-10 -22,-15 -39,-15 -13,0 -25,3 -36,10 -12,6 -20,15 -25,27 -4,11 -7,27 -7,47l0 140 -43 0z"/>
  <path id="7" class="fil9" d="M31465 14372c0,-47 13,-83 40,-105 22,-19 49,-29 80,-29 36,0 64,12 87,35 22,23 33,55 33,95 0,33 -5,59 -15,78 -9,19 -24,33 -43,44 -19,10 -39,15 -62,15 -36,0 -65,-11 -87,-34 -22,-23 -33,-56 -33,-99zm45 0c0,33 7,57 21,73 15,17 33,25 54,25 22,0 40,-8 54,-25 15,-16 22,-41 22,-74 0,-32 -7,-56 -22,-72 -14,-17 -32,-25 -54,-25 -21,0 -39,8 -54,25 -14,16 -21,40 -21,73z"/>
  <path id="8" class="fil9" d="M31756 14500l0 -256 39 0 0 39c10,-18 19,-30 27,-36 9,-6 18,-9 28,-9 15,0 30,5 45,14l-16 40c-10,-6 -21,-9 -31,-9 -10,0 -18,3 -26,9 -7,5 -12,13 -16,23 -4,16 -7,33 -7,51l0 134 -43 0z"/>
  <path id="9" class="fil9" d="M31921 14500l0 -256 39 0 0 36c18,-28 46,-42 81,-42 16,0 30,3 43,9 13,5 22,12 29,21 6,9 11,20 13,32 2,8 3,23 3,43l0 157 -44 0 0 -156c0,-17 -2,-31 -5,-39 -3,-9 -9,-16 -18,-21 -8,-6 -19,-8 -30,-8 -19,0 -34,6 -48,17 -13,12 -20,34 -20,67l0 140 -43 0z"/>
  <path id="10" class="fil9" d="M32290 14461l6 39c-13,2 -24,3 -33,3 -16,0 -28,-2 -37,-7 -8,-5 -14,-12 -18,-20 -4,-8 -5,-25 -5,-51l0 -148 -32 0 0 -33 32 0 0 -64 43 -26 0 90 44 0 0 33 -44 0 0 150c0,13 1,21 2,24 2,4 4,7 8,9 3,2 8,3 15,3 4,0 11,-1 19,-2z"/>
  <path id="11" class="fil9" d="M32507 14417l45 6c-7,26 -20,46 -39,61 -19,14 -43,21 -73,21 -37,0 -67,-11 -89,-34 -22,-23 -33,-55 -33,-97 0,-43 11,-76 33,-100 23,-24 51,-36 87,-36 34,0 62,12 83,35 22,23 33,56 33,98 0,3 0,7 0,12l-191 0c1,28 9,50 24,64 14,15 32,23 53,23 16,0 29,-4 41,-13 11,-8 20,-22 26,-40zm-142 -70l143 0c-2,-21 -8,-37 -17,-48 -13,-17 -31,-25 -53,-25 -20,0 -37,6 -50,20 -14,13 -21,31 -23,53z"/>
  <path id="12" class="fil9" d="M32607 14196l0 -50 44 0 0 50 -44 0zm0 304l0 -256 44 0 0 256 -44 0z"/>
  <polygon id="13" class="fil9" points="32716,14500 32716,14146 32759,14146 32759,14500 "/>
  <path class="fil4 str2" d="M28464 10545l8680 0c226,0 410,185 410,410l0 3680c0,226 -184,410 -410,410l-8680 0c-225,0 -410,-184 -410,-410l0 -3680c0,-225 185,-410 410,-410z"/>
  <polygon class="fil9" points="28526,10145 28526,9539 28606,9539 28606,10074 28904,10074 28904,10145 "/>
  <path id="1" class="fil9" d="M29291 10003l77 10c-12,45 -35,80 -67,104 -33,25 -75,37 -126,37 -64,0 -115,-19 -152,-59 -38,-39 -57,-95 -57,-166 0,-74 19,-131 57,-171 38,-41 87,-62 148,-62 59,0 106,20 143,60 38,40 56,96 56,169 0,4 0,11 0,20l-327 0c2,48 16,85 40,110 25,26 56,39 92,39 27,0 51,-8 70,-22 19,-14 34,-37 46,-69zm-244 -119l244 0c-3,-37 -12,-65 -28,-84 -23,-28 -54,-43 -92,-43 -34,0 -62,12 -86,35 -23,23 -36,53 -38,92z"/>
  <path id="2" class="fil9" d="M29448 10182l72 10c3,22 12,38 25,49 19,13 44,20 76,20 35,0 61,-7 80,-20 19,-14 31,-33 38,-58 4,-15 6,-47 5,-95 -32,38 -73,57 -121,57 -61,0 -107,-22 -140,-65 -34,-44 -50,-96 -50,-157 0,-42 8,-80 23,-116 15,-35 37,-62 66,-82 28,-19 62,-29 101,-29 52,0 95,22 128,64l0 -54 69 0 0 379c0,69 -7,117 -21,146 -14,28 -36,51 -66,67 -30,17 -67,25 -111,25 -53,0 -95,-12 -127,-35 -32,-24 -48,-59 -47,-106zm61 -264c0,57 12,99 34,126 23,26 52,39 86,39 35,0 63,-13 87,-39 23,-26 34,-67 34,-124 0,-53 -12,-94 -35,-121 -24,-27 -53,-41 -87,-41 -33,0 -61,14 -84,40 -23,27 -35,67 -35,120z"/>
  <path id="3" class="fil9" d="M30232 10003l77 10c-12,45 -34,80 -67,104 -32,25 -74,37 -125,37 -64,0 -115,-19 -153,-59 -37,-39 -56,-95 -56,-166 0,-74 19,-131 57,-171 38,-41 87,-62 148,-62 58,0 106,20 143,60 37,40 56,96 56,169 0,4 0,11 0,20l-328 0c3,48 17,85 41,110 25,26 55,39 92,39 27,0 50,-8 70,-22 19,-14 34,-37 45,-69zm-243 -119l244 0c-3,-37 -12,-65 -28,-84 -23,-28 -54,-43 -92,-43 -34,0 -63,12 -86,35 -23,23 -36,53 -38,92z"/>
  <path id="4" class="fil9" d="M30404 10145l0 -439 66 0 0 62c33,-48 79,-72 140,-72 27,0 51,5 73,15 22,9 39,22 50,37 11,15 19,34 23,55 3,14 4,38 4,72l0 270 -74 0 0 -267c0,-30 -3,-53 -9,-68 -6,-15 -16,-27 -31,-36 -15,-9 -32,-13 -52,-13 -31,0 -58,10 -81,30 -23,20 -35,58 -35,114l0 240 -74 0z"/>
  <path id="5" class="fil9" d="M31158 10145l0 -56c-28,44 -69,65 -123,65 -35,0 -67,-9 -96,-28 -29,-20 -52,-47 -68,-81 -16,-35 -24,-74 -24,-119 0,-44 7,-83 21,-119 15,-36 37,-63 66,-82 29,-19 62,-29 98,-29 26,0 50,6 71,17 20,11 37,26 50,44l0 -218 75 0 0 606 -70 0zm-235 -219c0,56 12,98 35,126 24,28 52,42 85,42 32,0 60,-14 83,-40 22,-27 34,-67 34,-122 0,-60 -12,-104 -35,-132 -23,-28 -52,-42 -86,-42 -33,0 -61,14 -83,41 -22,27 -33,69 -33,127z"/>
  <path id="6" class="fil9" d="M31645 10003l77 10c-12,45 -34,80 -67,104 -33,25 -75,37 -125,37 -65,0 -115,-19 -153,-59 -37,-39 -56,-95 -56,-166 0,-74 19,-131 57,-171 38,-41 87,-62 147,-62 59,0 107,20 144,60 37,40 56,96 56,169 0,4 0,11 -1,20l-327 0c3,48 16,85 41,110 24,26 55,39 92,39 27,0 50,-8 69,-22 20,-14 35,-37 46,-69zm-244 -119l245 0c-3,-37 -13,-65 -28,-84 -24,-28 -54,-43 -92,-43 -34,0 -63,12 -86,35 -23,23 -36,53 -39,92z"/>
  <path class="fil9" d="M1531 19244l50 -6c6,28 15,48 29,60 14,13 30,19 50,19 24,0 44,-8 60,-24 16,-16 24,-36 24,-60 0,-23 -8,-42 -23,-57 -15,-14 -34,-22 -57,-22 -9,0 -21,2 -35,6l6 -44c3,1 6,1 8,1 21,0 40,-6 57,-17 17,-11 25,-28 25,-51 0,-18 -6,-33 -18,-45 -12,-12 -28,-18 -48,-18 -19,0 -35,6 -48,19 -13,12 -21,30 -25,55l-50 -9c6,-34 20,-59 42,-78 21,-18 48,-27 80,-27 22,0 42,4 61,14 19,9 33,22 42,38 10,17 15,34 15,53 0,17 -4,33 -14,47 -9,14 -23,26 -41,34 23,6 42,17 55,35 13,17 20,39 20,65 0,35 -13,65 -39,90 -25,24 -58,36 -97,36 -36,0 -65,-10 -89,-31 -23,-22 -36,-49 -40,-83z"/>
  <path id="1" class="fil9" d="M1872 19352l0 -57 56 0 0 57c0,20 -3,37 -11,50 -7,13 -19,23 -35,30l-14 -22c11,-4 19,-11 23,-20 5,-9 8,-22 9,-38l-28 0z"/>
  <path id="2" class="fil9" d="M2005 19000l0 -48 261 0 0 39c-25,27 -51,64 -76,109 -26,46 -45,92 -59,140 -10,34 -16,71 -19,112l-51 0c1,-32 7,-71 19,-116 12,-45 29,-88 51,-130 23,-42 46,-77 71,-106l-197 0z"/>
  <path id="3" class="fil9" d="M2329 19352l0 -293 45 0 0 41c9,-14 21,-26 37,-35 15,-8 32,-13 52,-13 21,0 39,5 53,14 14,9 24,21 29,38 24,-35 54,-52 91,-52 29,0 52,8 67,24 16,17 24,41 24,75l0 201 -50 0 0 -185c0,-20 -2,-34 -5,-43 -3,-8 -9,-15 -17,-21 -9,-5 -19,-8 -30,-8 -21,0 -38,7 -52,21 -13,14 -20,35 -20,66l0 170 -50 0 0 -191c0,-22 -4,-38 -12,-49 -8,-11 -21,-17 -39,-17 -14,0 -27,4 -39,11 -12,8 -21,18 -26,33 -5,14 -8,34 -8,61l0 152 -50 0z"/>
  <path class="fil9" d="M7231 19244l50 -6c6,28 15,48 29,60 14,13 30,19 50,19 24,0 44,-8 60,-24 16,-16 24,-36 24,-60 0,-23 -8,-42 -23,-57 -15,-14 -34,-22 -57,-22 -9,0 -21,2 -35,6l6 -44c3,1 6,1 8,1 21,0 40,-6 57,-17 17,-11 25,-28 25,-51 0,-18 -6,-33 -18,-45 -12,-12 -28,-18 -48,-18 -19,0 -35,6 -48,19 -13,12 -21,30 -25,55l-50 -9c6,-34 20,-59 42,-78 21,-18 48,-27 80,-27 22,0 42,4 61,14 19,9 33,22 42,38 10,17 15,34 15,53 0,17 -4,33 -14,47 -9,14 -23,26 -41,34 23,6 42,17 55,35 13,17 20,39 20,65 0,35 -13,65 -39,90 -25,24 -58,36 -97,36 -36,0 -65,-10 -89,-31 -23,-22 -36,-49 -40,-83z"/>
  <path id="1" class="fil9" d="M7572 19352l0 -57 56 0 0 57c0,20 -3,37 -11,50 -7,13 -19,23 -35,30l-14 -22c11,-4 19,-11 23,-20 5,-9 8,-22 9,-38l-28 0z"/>
  <path id="2" class="fil9" d="M7705 19000l0 -48 261 0 0 39c-25,27 -51,64 -76,109 -26,46 -45,92 -59,140 -10,34 -16,71 -19,112l-51 0c1,-32 7,-71 19,-116 12,-45 29,-88 51,-130 23,-42 46,-77 71,-106l-197 0z"/>
  <path id="3" class="fil9" d="M8029 19352l0 -293 45 0 0 41c9,-14 21,-26 37,-35 15,-8 32,-13 52,-13 21,0 39,5 53,14 14,9 24,21 29,38 24,-35 54,-52 91,-52 29,0 52,8 67,24 16,17 24,41 24,75l0 201 -50 0 0 -185c0,-20 -2,-34 -5,-43 -3,-8 -9,-15 -17,-21 -9,-5 -19,-8 -30,-8 -21,0 -38,7 -52,21 -13,14 -20,35 -20,66l0 170 -50 0 0 -191c0,-22 -4,-38 -12,-49 -8,-11 -21,-17 -39,-17 -14,0 -27,4 -39,11 -12,8 -21,18 -26,33 -5,14 -8,34 -8,61l0 152 -50 0z"/>
  <path class="fil9" d="M14414 19352l0 -405 152 0c31,0 55,4 74,13 19,8 33,20 44,37 11,17 16,35 16,54 0,17 -5,33 -14,49 -10,15 -24,27 -43,36 25,8 44,20 57,37 13,17 20,38 20,61 0,19 -4,37 -12,53 -8,16 -18,29 -30,38 -12,9 -27,15 -44,20 -18,4 -40,7 -66,7l-154 0zm54 -235l87 0c24,0 41,-1 51,-4 14,-4 24,-11 31,-21 7,-9 10,-21 10,-35 0,-13 -3,-25 -9,-35 -7,-11 -16,-18 -28,-22 -12,-3 -32,-5 -61,-5l-81 0 0 122zm0 187l100 0c18,0 30,-1 37,-2 12,-2 23,-6 31,-11 8,-5 15,-13 20,-22 6,-10 8,-22 8,-35 0,-15 -4,-28 -11,-39 -8,-11 -19,-19 -33,-24 -13,-4 -33,-6 -59,-6l-93 0 0 139z"/>
  <polygon id="1" class="fil9" points="14767,19230 14767,19181 14921,19181 14921,19230 "/>
  <polygon id="2" class="fil9" points="14983,19352 14983,18947 15037,18947 15037,19114 15246,19114 15246,18947 15299,18947 15299,19352 15246,19352 15246,19161 15037,19161 15037,19352 "/>
  <path id="3" class="fil9" d="M15364 19205c0,-54 15,-94 45,-120 25,-22 56,-33 92,-33 40,0 73,14 99,40 25,26 38,63 38,109 0,38 -6,67 -17,89 -11,21 -28,38 -49,50 -22,12 -45,18 -71,18 -41,0 -74,-13 -99,-40 -26,-26 -38,-64 -38,-113zm50 0c0,38 9,66 25,84 17,19 37,28 62,28 25,0 45,-9 62,-28 16,-19 24,-47 24,-85 0,-37 -8,-64 -25,-82 -16,-19 -37,-28 -61,-28 -25,0 -45,9 -62,27 -16,19 -25,47 -25,84z"/>
  <path id="4" class="fil9" d="M15696 19352l0 -293 44 0 0 44c12,-20 22,-34 32,-41 10,-6 20,-10 32,-10 17,0 34,6 51,16l-18 46c-12,-7 -24,-10 -36,-10 -11,0 -20,3 -29,10 -9,6 -15,15 -18,27 -6,17 -9,37 -9,57l0 154 -49 0z"/>
  <path id="5" class="fil9" d="M15884 19352l0 -293 45 0 0 41c21,-32 52,-48 93,-48 18,0 34,4 48,10 15,6 26,15 34,25 7,10 12,22 15,36 2,10 3,26 3,49l0 180 -50 0 0 -178c0,-21 -2,-36 -6,-46 -3,-10 -10,-18 -20,-24 -10,-6 -21,-9 -35,-9 -21,0 -39,7 -54,20 -16,14 -23,39 -23,77l0 160 -50 0z"/>
  <path id="6" class="fil9" d="M16212 19115l0 -56 56 0 0 56 -56 0zm0 237l0 -57 56 0 0 57 -56 0z"/>
  <path id="7" class="fil9" d="M16758 19304l0 48 -267 0c-1,-12 1,-24 6,-35 7,-18 18,-36 33,-54 15,-17 37,-38 65,-61 43,-36 73,-64 89,-85 15,-21 23,-41 23,-60 0,-20 -7,-36 -21,-50 -14,-13 -33,-20 -55,-20 -24,0 -44,7 -58,21 -14,15 -22,34 -22,60l-51 -5c4,-38 17,-67 40,-87 23,-20 53,-30 92,-30 39,0 69,10 92,32 23,22 34,48 34,80 0,16 -3,32 -10,48 -7,15 -18,32 -33,49 -15,17 -41,41 -77,71 -29,25 -49,42 -57,51 -8,9 -15,18 -21,27l198 0z"/>
  <path id="8" class="fil9" d="M16839 19352l0 -57 56 0 0 57c0,20 -4,37 -11,50 -7,13 -19,23 -35,30l-14 -22c11,-4 19,-11 23,-20 5,-9 8,-22 9,-38l-28 0z"/>
  <path id="9" class="fil9" d="M17045 19132c-20,-7 -35,-18 -45,-32 -10,-14 -15,-31 -15,-50 0,-29 10,-54 31,-74 22,-20 50,-30 85,-30 35,0 63,10 85,30 21,21 32,46 32,75 0,19 -5,35 -15,49 -10,14 -24,25 -44,32 24,9 43,22 56,40 13,18 19,39 19,64 0,35 -12,64 -36,87 -25,24 -57,35 -97,35 -39,0 -72,-11 -96,-35 -24,-24 -37,-53 -37,-88 0,-27 7,-49 20,-66 14,-18 33,-30 57,-37zm-9 -84c0,19 6,35 18,47 12,12 28,18 48,18 19,0 35,-6 47,-18 12,-12 18,-27 18,-44 0,-18 -6,-34 -19,-46 -12,-12 -28,-19 -47,-19 -19,0 -34,6 -47,19 -12,12 -18,26 -18,43zm-17 187c0,14 3,28 10,41 7,13 17,24 30,31 13,7 28,11 43,11 24,0 43,-8 58,-23 16,-15 23,-35 23,-58 0,-24 -7,-44 -23,-60 -16,-15 -36,-23 -60,-23 -23,0 -43,8 -58,23 -15,16 -23,35 -23,58z"/>
  <path id="10" class="fil9" d="M17296 19352l0 -293 45 0 0 41c9,-14 21,-26 37,-35 15,-8 32,-13 52,-13 21,0 39,5 53,14 14,9 23,21 29,38 23,-35 54,-52 91,-52 29,0 52,8 67,24 16,17 24,41 24,75l0 201 -50 0 0 -185c0,-20 -2,-34 -5,-43 -3,-8 -9,-15 -17,-21 -9,-5 -19,-8 -30,-8 -21,0 -38,7 -52,21 -13,14 -20,35 -20,66l0 170 -50 0 0 -191c0,-22 -4,-38 -12,-49 -8,-11 -21,-17 -40,-17 -13,0 -26,4 -38,11 -12,8 -21,18 -26,33 -5,14 -8,34 -8,61l0 152 -50 0z"/>
  <polygon id="11" class="fil9" points="17886,19358 18004,18941 18044,18941 17926,19358 "/>
  <polygon id="12" class="fil9" points="18246,19352 18246,18947 18519,18947 18519,18995 18300,18995 18300,19121 18489,19121 18489,19168 18300,19168 18300,19352 "/>
  <polygon id="13" class="fil9" points="18562,19230 18562,19181 18716,19181 18716,19230 "/>
  <polygon id="14" class="fil9" points="18778,19352 18778,18947 18832,18947 18832,19114 19041,19114 19041,18947 19094,18947 19094,19352 19041,19352 19041,19161 18832,19161 18832,19352 "/>
  <path id="15" class="fil9" d="M19159 19205c0,-54 15,-94 45,-120 25,-22 56,-33 92,-33 40,0 73,14 99,40 25,26 38,63 38,109 0,38 -6,67 -17,89 -11,21 -28,38 -49,50 -22,12 -45,18 -71,18 -41,0 -74,-13 -99,-40 -26,-26 -38,-64 -38,-113zm51 0c0,38 8,66 24,84 17,19 37,28 62,28 25,0 45,-9 62,-28 16,-19 24,-47 24,-85 0,-37 -8,-64 -24,-82 -17,-19 -37,-28 -62,-28 -25,0 -45,9 -62,27 -16,19 -24,47 -24,84z"/>
  <path id="16" class="fil9" d="M19491 19352l0 -293 44 0 0 44c12,-20 22,-34 32,-41 10,-6 20,-10 32,-10 17,0 34,6 51,16l-18 46c-12,-7 -24,-10 -36,-10 -11,0 -20,3 -29,10 -8,6 -15,15 -18,27 -6,17 -9,37 -9,57l0 154 -49 0z"/>
  <path id="17" class="fil9" d="M19679 19352l0 -293 45 0 0 41c21,-32 52,-48 93,-48 18,0 34,4 49,10 14,6 25,15 33,25 7,10 12,22 15,36 2,10 3,26 3,49l0 180 -50 0 0 -178c0,-21 -2,-36 -5,-46 -4,-10 -11,-18 -21,-24 -10,-6 -21,-9 -35,-9 -21,0 -39,7 -54,20 -15,14 -23,39 -23,77l0 160 -50 0z"/>
  <path id="18" class="fil9" d="M20007 19115l0 -56 56 0 0 56 -56 0zm0 237l0 -57 56 0 0 57 -56 0z"/>
  <path id="19" class="fil9" d="M20293 19244l50 -6c6,28 15,48 29,60 14,13 30,19 50,19 24,0 44,-8 60,-24 16,-16 24,-36 24,-60 0,-23 -8,-42 -23,-57 -15,-14 -34,-22 -57,-22 -9,0 -21,2 -35,6l6 -44c3,1 6,1 8,1 21,0 40,-6 57,-17 17,-11 25,-28 25,-51 0,-18 -6,-33 -18,-45 -12,-12 -28,-18 -48,-18 -19,0 -35,6 -48,19 -13,12 -21,30 -25,55l-50 -9c7,-34 20,-59 42,-78 21,-18 48,-27 80,-27 22,0 42,4 61,14 19,9 33,22 43,38 9,17 14,34 14,53 0,17 -4,33 -14,47 -9,14 -23,26 -41,34 23,6 42,17 55,35 13,17 20,39 20,65 0,35 -13,65 -39,90 -25,24 -58,36 -97,36 -36,0 -65,-10 -89,-31 -23,-22 -36,-49 -40,-83z"/>
  <path id="20" class="fil9" d="M20634 19352l0 -57 56 0 0 57c0,20 -3,37 -11,50 -7,13 -19,23 -35,30l-14 -22c11,-4 19,-11 24,-20 5,-9 7,-22 8,-38l-28 0z"/>
  <path id="21" class="fil9" d="M20767 19000l0 -48 261 0 0 39c-25,27 -51,64 -76,109 -26,46 -45,92 -59,140 -10,34 -16,71 -19,112l-51 0c1,-32 7,-71 19,-116 12,-45 29,-88 51,-130 23,-42 46,-77 71,-106l-197 0z"/>
  <path id="22" class="fil9" d="M21092 19352l0 -293 44 0 0 41c9,-14 21,-26 37,-35 15,-8 32,-13 52,-13 21,0 39,5 53,14 14,9 24,21 29,38 24,-35 54,-52 91,-52 29,0 52,8 67,24 16,17 24,41 24,75l0 201 -50 0 0 -185c0,-20 -1,-34 -5,-43 -3,-8 -9,-15 -17,-21 -9,-5 -19,-8 -30,-8 -21,0 -38,7 -52,21 -13,14 -20,35 -20,66l0 170 -50 0 0 -191c0,-22 -4,-38 -12,-49 -8,-11 -21,-17 -39,-17 -14,0 -27,4 -39,11 -12,8 -21,18 -26,33 -5,14 -8,34 -8,61l0 152 -49 0z"/>
  <path class="fil9" d="M22659 19352l0 -405 50 0 0 146c23,-27 52,-41 87,-41 22,0 41,5 57,13 15,9 27,21 34,36 7,15 10,37 10,65l0 186 -50 0 0 -186c0,-24 -5,-42 -16,-54 -10,-11 -25,-17 -45,-17 -15,0 -28,4 -41,12 -13,7 -22,18 -28,31 -5,13 -8,31 -8,54l0 160 -50 0z"/>
  <path id="1" class="fil9" d="M22955 19205c0,-54 15,-94 45,-120 25,-22 56,-33 92,-33 40,0 73,14 99,40 25,26 38,63 38,109 0,38 -6,67 -17,89 -11,21 -28,38 -49,50 -22,12 -46,18 -71,18 -41,0 -74,-13 -99,-40 -26,-26 -38,-64 -38,-113zm50 0c0,38 9,66 25,84 16,19 37,28 62,28 25,0 45,-9 62,-28 16,-19 24,-47 24,-85 0,-37 -8,-64 -25,-82 -16,-19 -37,-28 -61,-28 -25,0 -46,9 -62,27 -16,19 -25,47 -25,84z"/>
  <path id="2" class="fil9" d="M23479 19244l48 7c-5,33 -19,60 -41,78 -22,19 -49,29 -81,29 -40,0 -72,-13 -96,-39 -24,-27 -37,-64 -37,-113 0,-31 6,-59 16,-83 11,-23 27,-41 48,-53 21,-12 45,-18 70,-18 31,0 58,8 78,24 20,17 33,39 39,69l-48 7c-5,-19 -13,-34 -25,-44 -12,-10 -26,-15 -42,-15 -25,0 -46,9 -61,27 -16,18 -24,46 -24,85 0,39 8,68 23,85 15,18 35,27 59,27 19,0 36,-6 49,-18 13,-12 21,-30 25,-55z"/>
  <path id="3" class="fil9" d="M23569 19352l0 -405 50 0 0 146c23,-27 52,-41 87,-41 22,0 41,5 57,13 16,9 27,21 34,36 7,15 10,37 10,65l0 186 -50 0 0 -186c0,-24 -5,-42 -16,-54 -10,-11 -25,-17 -45,-17 -15,0 -28,4 -41,12 -13,7 -22,18 -28,31 -5,13 -8,31 -8,54l0 160 -50 0z"/>
  <path id="4" class="fil9" d="M24052 19352l0 -255 -44 0 0 -38 44 0 0 -31c0,-20 2,-35 5,-44 5,-13 13,-23 25,-31 12,-8 29,-12 51,-12 14,0 29,1 46,5l-7 43c-11,-2 -20,-3 -30,-3 -15,0 -25,4 -32,10 -6,6 -9,18 -9,36l0 27 57 0 0 38 -56 0 0 255 -50 0z"/>
  <polygon id="5" class="fil9" points="24177,19230 24177,19181 24331,19181 24331,19230 "/>
  <polygon id="6" class="fil9" points="24393,19352 24393,18947 24447,18947 24447,19114 24656,19114 24656,18947 24709,18947 24709,19352 24656,19352 24656,19161 24447,19161 24447,19352 "/>
  <path id="7" class="fil9" d="M24774 19205c0,-54 15,-94 45,-120 25,-22 56,-33 92,-33 40,0 73,14 99,40 25,26 38,63 38,109 0,38 -5,67 -17,89 -11,21 -27,38 -49,50 -22,12 -45,18 -71,18 -41,0 -74,-13 -99,-40 -25,-26 -38,-64 -38,-113zm51 0c0,38 8,66 24,84 17,19 37,28 62,28 25,0 45,-9 62,-28 16,-19 24,-47 24,-85 0,-37 -8,-64 -24,-82 -17,-19 -37,-28 -62,-28 -25,0 -45,9 -62,27 -16,19 -24,47 -24,84z"/>
  <path id="8" class="fil9" d="M25106 19352l0 -293 44 0 0 44c12,-20 22,-34 32,-41 10,-6 20,-10 32,-10 17,0 34,6 51,16l-18 46c-12,-7 -24,-10 -36,-10 -11,0 -20,3 -29,10 -8,6 -14,15 -18,27 -6,17 -8,37 -8,57l0 154 -50 0z"/>
  <path id="9" class="fil9" d="M25294 19352l0 -293 45 0 0 41c21,-32 52,-48 93,-48 18,0 34,4 49,10 14,6 26,15 33,25 7,10 12,22 15,36 2,10 3,26 3,49l0 180 -50 0 0 -178c0,-21 -2,-36 -5,-46 -4,-10 -11,-18 -21,-24 -10,-6 -21,-9 -34,-9 -21,0 -40,7 -55,20 -15,14 -23,39 -23,77l0 160 -50 0z"/>
  <path id="10" class="fil9" d="M25622 19115l0 -56 56 0 0 56 -56 0zm0 237l0 -57 56 0 0 57 -56 0z"/>
  <path id="11" class="fil9" d="M26095 19352l-50 0 0 -317c-12,12 -28,23 -47,35 -19,11 -37,19 -52,25l0 -48c27,-13 52,-29 72,-47 21,-19 36,-37 45,-54l32 0 0 406z"/>
  <path id="12" class="fil9" d="M26249 19352l0 -57 56 0 0 57c0,20 -3,37 -11,50 -7,13 -19,23 -35,30l-14 -22c11,-4 19,-11 24,-20 5,-9 7,-22 8,-38l-28 0z"/>
  <path id="13" class="fil9" d="M26456 19132c-21,-7 -36,-18 -46,-32 -10,-14 -15,-31 -15,-50 0,-29 11,-54 32,-74 21,-20 49,-30 84,-30 35,0 63,10 85,30 21,21 32,46 32,75 0,19 -5,35 -15,49 -9,14 -24,25 -44,32 24,9 43,22 56,40 13,18 19,39 19,64 0,35 -12,64 -36,87 -25,24 -57,35 -96,35 -40,0 -72,-11 -97,-35 -24,-24 -36,-53 -36,-88 0,-27 6,-49 20,-66 13,-18 32,-30 57,-37zm-10 -84c0,19 6,35 18,47 12,12 28,18 48,18 19,0 35,-6 47,-18 12,-12 18,-27 18,-44 0,-18 -6,-34 -18,-46 -13,-12 -29,-19 -47,-19 -20,0 -35,6 -48,19 -12,12 -18,26 -18,43zm-17 187c0,14 4,28 10,41 7,13 17,24 30,31 13,7 28,11 43,11 24,0 43,-8 59,-23 15,-15 23,-35 23,-58 0,-24 -8,-44 -24,-60 -16,-15 -36,-23 -60,-23 -23,0 -43,8 -58,23 -15,16 -23,35 -23,58z"/>
  <path id="14" class="fil9" d="M26693 19245l52 -4c4,26 13,45 27,58 14,12 31,19 51,19 24,0 44,-9 61,-27 16,-18 24,-42 24,-72 0,-28 -8,-51 -23,-67 -16,-16 -37,-25 -63,-25 -16,0 -30,4 -43,11 -13,8 -23,17 -30,29l-47 -7 39 -208 200 0 0 48 -160 0 -22 109c24,-17 50,-26 76,-26 35,0 65,13 89,37 24,25 37,56 37,94 0,37 -11,69 -32,95 -26,33 -62,49 -106,49 -37,0 -67,-10 -90,-31 -23,-20 -37,-48 -40,-82z"/>
  <path id="15" class="fil9" d="M27021 19352l0 -293 44 0 0 41c9,-14 21,-26 37,-35 15,-8 32,-13 52,-13 21,0 39,5 53,14 14,9 24,21 29,38 24,-35 54,-52 91,-52 29,0 52,8 67,24 16,17 24,41 24,75l0 201 -50 0 0 -185c0,-20 -1,-34 -5,-43 -3,-8 -9,-15 -17,-21 -9,-5 -19,-8 -30,-8 -21,0 -38,7 -52,21 -13,14 -20,35 -20,66l0 170 -50 0 0 -191c0,-22 -4,-38 -12,-49 -8,-11 -21,-17 -39,-17 -14,0 -27,4 -39,11 -12,8 -21,18 -26,33 -5,14 -8,34 -8,61l0 152 -49 0z"/>
  <polygon id="16" class="fil9" points="27610,19358 27728,18941 27768,18941 27650,19358 "/>
  <path id="17" class="fil9" d="M27965 19352l0 -405 152 0c31,0 55,4 74,13 19,8 33,20 44,37 10,17 16,35 16,54 0,17 -5,33 -14,49 -10,15 -24,27 -43,36 25,8 44,20 57,37 13,17 20,38 20,61 0,19 -5,37 -13,53 -8,16 -17,29 -29,38 -12,9 -27,15 -44,20 -18,4 -40,7 -66,7l-154 0zm54 -235l87 0c24,0 41,-1 51,-4 14,-4 24,-11 31,-21 7,-9 10,-21 10,-35 0,-13 -3,-25 -9,-35 -7,-11 -16,-18 -28,-22 -12,-3 -32,-5 -61,-5l-81 0 0 122zm0 187l100 0c18,0 30,-1 37,-2 12,-2 22,-6 31,-11 8,-5 15,-13 20,-22 6,-10 8,-22 8,-35 0,-15 -4,-28 -11,-39 -8,-11 -19,-19 -33,-24 -13,-4 -33,-6 -59,-6l-93 0 0 139z"/>
  <polygon id="18" class="fil9" points="28318,19230 28318,19181 28471,19181 28471,19230 "/>
  <polygon id="19" class="fil9" points="28534,19352 28534,18947 28588,18947 28588,19114 28797,19114 28797,18947 28850,18947 28850,19352 28797,19352 28797,19161 28588,19161 28588,19352 "/>
  <path id="20" class="fil9" d="M28915 19205c0,-54 15,-94 45,-120 25,-22 56,-33 92,-33 40,0 73,14 99,40 25,26 38,63 38,109 0,38 -6,67 -17,89 -11,21 -28,38 -49,50 -22,12 -46,18 -71,18 -41,0 -74,-13 -99,-40 -26,-26 -38,-64 -38,-113zm50 0c0,38 9,66 25,84 16,19 37,28 62,28 25,0 45,-9 62,-28 16,-19 24,-47 24,-85 0,-37 -8,-64 -25,-82 -16,-19 -37,-28 -61,-28 -25,0 -46,9 -62,27 -16,19 -25,47 -25,84z"/>
  <path id="21" class="fil9" d="M29247 19352l0 -293 44 0 0 44c12,-20 22,-34 32,-41 9,-6 20,-10 32,-10 16,0 33,6 51,16l-18 46c-12,-7 -24,-10 -36,-10 -11,0 -21,3 -29,10 -9,6 -15,15 -18,27 -6,17 -9,37 -9,57l0 154 -49 0z"/>
  <path id="22" class="fil9" d="M29435 19352l0 -293 45 0 0 41c21,-32 52,-48 93,-48 17,0 34,4 48,10 15,6 26,15 34,25 7,10 12,22 15,36 2,10 3,26 3,49l0 180 -50 0 0 -178c0,-21 -2,-36 -6,-46 -4,-10 -10,-18 -20,-24 -10,-6 -22,-9 -35,-9 -21,0 -39,7 -54,20 -16,14 -23,39 -23,77l0 160 -50 0z"/>
  <path id="23" class="fil9" d="M29763 19115l0 -56 56 0 0 56 -56 0zm0 237l0 -57 56 0 0 57 -56 0z"/>
  <path id="24" class="fil9" d="M30309 19304l0 48 -267 0c-1,-12 1,-24 6,-35 7,-18 18,-36 33,-54 15,-17 36,-38 65,-61 43,-36 73,-64 89,-85 15,-21 23,-41 23,-60 0,-20 -7,-36 -21,-50 -14,-13 -33,-20 -55,-20 -24,0 -44,7 -58,21 -14,15 -22,34 -22,60l-51 -5c4,-38 17,-67 40,-87 23,-20 53,-30 92,-30 38,0 69,10 92,32 22,22 34,48 34,80 0,16 -4,32 -10,48 -7,15 -18,32 -33,49 -16,17 -41,41 -77,71 -29,25 -49,42 -57,51 -9,9 -16,18 -21,27l198 0z"/>
  <path id="25" class="fil9" d="M30390 19352l0 -57 56 0 0 57c0,20 -4,37 -11,50 -7,13 -19,23 -35,30l-14 -22c11,-4 18,-11 23,-20 5,-9 8,-22 9,-38l-28 0z"/>
  <path id="26" class="fil9" d="M30596 19132c-20,-7 -35,-18 -45,-32 -10,-14 -15,-31 -15,-50 0,-29 10,-54 31,-74 21,-20 49,-30 85,-30 35,0 63,10 85,30 21,21 32,46 32,75 0,19 -5,35 -15,49 -10,14 -25,25 -45,32 25,9 44,22 57,40 13,18 19,39 19,64 0,35 -12,64 -36,87 -25,24 -57,35 -97,35 -40,0 -72,-11 -96,-35 -24,-24 -37,-53 -37,-88 0,-27 7,-49 20,-66 14,-18 33,-30 57,-37zm-10 -84c0,19 7,35 19,47 12,12 28,18 48,18 19,0 35,-6 47,-18 12,-12 18,-27 18,-44 0,-18 -6,-34 -19,-46 -12,-12 -28,-19 -47,-19 -19,0 -35,6 -47,19 -12,12 -19,26 -19,43zm-16 187c0,14 3,28 10,41 7,13 17,24 30,31 13,7 27,11 43,11 24,0 43,-8 58,-23 16,-15 23,-35 23,-58 0,-24 -8,-44 -23,-60 -16,-15 -36,-23 -60,-23 -23,0 -43,8 -58,23 -15,16 -23,35 -23,58z"/>
  <path id="27" class="fil9" d="M30847 19352l0 -293 45 0 0 41c9,-14 21,-26 37,-35 15,-8 32,-13 52,-13 21,0 39,5 53,14 14,9 23,21 29,38 23,-35 54,-52 91,-52 29,0 51,8 67,24 16,17 24,41 24,75l0 201 -50 0 0 -185c0,-20 -2,-34 -5,-43 -3,-8 -9,-15 -17,-21 -9,-5 -19,-8 -30,-8 -21,0 -38,7 -52,21 -13,14 -20,35 -20,66l0 170 -50 0 0 -191c0,-22 -4,-38 -12,-49 -8,-11 -21,-17 -40,-17 -14,0 -26,4 -38,11 -12,8 -21,18 -26,33 -5,14 -8,34 -8,61l0 152 -50 0z"/>
  <polygon id="28" class="fil9" points="31437,19358 31554,18941 31594,18941 31477,19358 "/>
  <polygon id="29" class="fil9" points="31797,19352 31797,18947 32070,18947 32070,18995 31851,18995 31851,19121 32040,19121 32040,19168 31851,19168 31851,19352 "/>
  <polygon id="30" class="fil9" points="32113,19230 32113,19181 32267,19181 32267,19230 "/>
  <polygon id="31" class="fil9" points="32329,19352 32329,18947 32383,18947 32383,19114 32592,19114 32592,18947 32645,18947 32645,19352 32592,19352 32592,19161 32383,19161 32383,19352 "/>
  <path id="32" class="fil9" d="M32710 19205c0,-54 15,-94 45,-120 25,-22 56,-33 92,-33 40,0 73,14 99,40 25,26 38,63 38,109 0,38 -6,67 -17,89 -11,21 -28,38 -49,50 -22,12 -45,18 -71,18 -41,0 -74,-13 -99,-40 -26,-26 -38,-64 -38,-113zm51 0c0,38 8,66 24,84 17,19 37,28 62,28 25,0 45,-9 62,-28 16,-19 24,-47 24,-85 0,-37 -8,-64 -25,-82 -16,-19 -36,-28 -61,-28 -25,0 -45,9 -62,27 -16,19 -24,47 -24,84z"/>
  <path id="33" class="fil9" d="M33042 19352l0 -293 44 0 0 44c12,-20 22,-34 32,-41 10,-6 20,-10 32,-10 17,0 34,6 51,16l-18 46c-12,-7 -24,-10 -36,-10 -11,0 -20,3 -29,10 -9,6 -15,15 -18,27 -6,17 -9,37 -9,57l0 154 -49 0z"/>
  <path id="34" class="fil9" d="M33230 19352l0 -293 45 0 0 41c21,-32 52,-48 93,-48 18,0 34,4 48,10 15,6 26,15 34,25 7,10 12,22 15,36 2,10 3,26 3,49l0 180 -50 0 0 -178c0,-21 -2,-36 -6,-46 -3,-10 -10,-18 -20,-24 -10,-6 -21,-9 -35,-9 -21,0 -39,7 -54,20 -15,14 -23,39 -23,77l0 160 -50 0z"/>
  <path id="35" class="fil9" d="M33558 19115l0 -56 56 0 0 56 -56 0zm0 237l0 -57 56 0 0 57 -56 0z"/>
  <path id="36" class="fil9" d="M33844 19244l50 -6c6,28 15,48 29,60 14,13 30,19 50,19 24,0 43,-8 59,-24 16,-16 24,-36 24,-60 0,-23 -7,-42 -22,-57 -15,-14 -34,-22 -57,-22 -9,0 -21,2 -35,6l6 -44c3,1 6,1 8,1 21,0 40,-6 57,-17 17,-11 25,-28 25,-51 0,-18 -6,-33 -18,-45 -12,-12 -28,-18 -48,-18 -19,0 -35,6 -48,19 -13,12 -21,30 -25,55l-50 -9c6,-34 20,-59 42,-78 21,-18 48,-27 80,-27 22,0 42,4 61,14 18,9 33,22 42,38 10,17 15,34 15,53 0,17 -4,33 -14,47 -9,14 -23,26 -41,34 23,6 42,17 55,35 13,17 20,39 20,65 0,35 -13,65 -39,90 -25,24 -58,36 -97,36 -36,0 -65,-10 -89,-31 -23,-22 -36,-49 -40,-83z"/>
  <path id="37" class="fil9" d="M34185 19352l0 -57 56 0 0 57c0,20 -4,37 -11,50 -7,13 -19,23 -35,30l-14 -22c11,-4 19,-11 23,-20 5,-9 8,-22 9,-38l-28 0z"/>
  <path id="38" class="fil9" d="M34318 19000l0 -48 261 0 0 39c-26,27 -51,64 -76,109 -26,46 -45,92 -59,140 -10,34 -16,71 -19,112l-51 0c1,-32 7,-71 19,-116 12,-45 29,-88 51,-130 23,-42 46,-77 71,-106l-197 0z"/>
  <path id="39" class="fil9" d="M34642 19352l0 -293 45 0 0 41c9,-14 21,-26 37,-35 15,-8 32,-13 52,-13 21,0 39,5 53,14 14,9 24,21 29,38 23,-35 54,-52 91,-52 29,0 52,8 67,24 16,17 24,41 24,75l0 201 -50 0 0 -185c0,-20 -2,-34 -5,-43 -3,-8 -9,-15 -17,-21 -9,-5 -19,-8 -30,-8 -21,0 -38,7 -52,21 -13,14 -20,35 -20,66l0 170 -50 0 0 -191c0,-22 -4,-38 -12,-49 -8,-11 -21,-17 -40,-17 -13,0 -26,4 -38,11 -12,8 -21,18 -26,33 -5,14 -8,34 -8,61l0 152 -50 0z"/>
 </g>
</svg>
