<?xml version="1.0" encoding="UTF-8" standalone="no"?>
<svg
   width="680.73651"
   height="201.16666"
   viewBox="0 0 2552.762 754.37498"
   version="1.2"
   id="svg47"
   xmlns="http://www.w3.org/2000/svg"
   xmlns:svg="http://www.w3.org/2000/svg"
   xmlns:rdf="http://www.w3.org/1999/02/22-rdf-syntax-ns#"
   xmlns:cc="http://creativecommons.org/ns#"
   xmlns:dc="http://purl.org/dc/elements/1.1/">
  <defs
     id="defs47" />
  <title
     id="title1">kl3_vertimmt</title>
  <desc
     id="desc1">Generated by MuseScore Studio 4.5.2</desc>
  <polyline
     class="StaffLines"
     fill="none"
     stroke="#000000"
     stroke-width="2.73"
     stroke-linejoin="bevel"
     points="212.598,386.199 2764.6,386.199"
     id="polyline1"
     transform="translate(-212.598,-310.025)" />
  <polyline
     class="StaffLines"
     fill="none"
     stroke="#000000"
     stroke-width="2.73"
     stroke-linejoin="bevel"
     points="212.598,410.999 2764.6,410.999"
     id="polyline2"
     transform="translate(-212.598,-310.025)" />
  <polyline
     class="StaffLines"
     fill="none"
     stroke="#000000"
     stroke-width="2.73"
     stroke-linejoin="bevel"
     points="212.598,435.799 2764.6,435.799"
     id="polyline3"
     transform="translate(-212.598,-310.025)" />
  <polyline
     class="StaffLines"
     fill="none"
     stroke="#000000"
     stroke-width="2.73"
     stroke-linejoin="bevel"
     points="212.598,460.599 2764.6,460.599"
     id="polyline4"
     transform="translate(-212.598,-310.025)" />
  <polyline
     class="StaffLines"
     fill="none"
     stroke="#000000"
     stroke-width="2.73"
     stroke-linejoin="bevel"
     points="212.598,485.399 2764.6,485.399"
     id="polyline5"
     transform="translate(-212.598,-310.025)" />
  <polyline
     class="StaffLines"
     fill="none"
     stroke="#000000"
     stroke-width="2.73"
     stroke-linejoin="bevel"
     points="212.598,993.799 2764.6,993.799"
     id="polyline6"
     transform="translate(-212.598,-482.525)" />
  <polyline
     class="StaffLines"
     fill="none"
     stroke="#000000"
     stroke-width="2.73"
     stroke-linejoin="bevel"
     points="212.598,1018.6 2764.6,1018.6"
     id="polyline7"
     transform="translate(-212.598,-482.525)" />
  <polyline
     class="StaffLines"
     fill="none"
     stroke="#000000"
     stroke-width="2.73"
     stroke-linejoin="bevel"
     points="212.598,1043.4 2764.6,1043.4"
     id="polyline8"
     transform="translate(-212.598,-482.525)" />
  <polyline
     class="StaffLines"
     fill="none"
     stroke="#000000"
     stroke-width="2.73"
     stroke-linejoin="bevel"
     points="212.598,1068.2 2764.6,1068.2"
     id="polyline9"
     transform="translate(-212.598,-482.525)" />
  <polyline
     class="StaffLines"
     fill="none"
     stroke="#000000"
     stroke-width="2.73"
     stroke-linejoin="bevel"
     points="212.598,1093 2764.6,1093"
     id="polyline10"
     transform="translate(-212.598,-482.525)" />
  <polyline
     class="BarLine"
     fill="none"
     stroke="#000000"
     stroke-width="4.46"
     stroke-linejoin="bevel"
     points="2748.73,992.435 2748.73,1094.36"
     id="polyline11"
     transform="translate(-212.598,-482.525)" />
  <polyline
     class="BarLine"
     fill="none"
     stroke="#000000"
     stroke-width="4.46"
     stroke-linejoin="bevel"
     points="2762.37,992.435 2762.37,1094.36"
     id="polyline12"
     transform="translate(-212.598,-482.525)" />
  <polyline
     class="BarLine"
     fill="none"
     stroke="#000000"
     stroke-dasharray="4.46401, 8.92801"
     stroke-dashoffset="0"
     stroke-width="4.46"
     stroke-linejoin="bevel"
     points="2155.52,384.835 2155.52,486.763"
     id="polyline13"
     transform="translate(-212.598,-310.025)" />
  <polyline
     class="BarLine"
     fill="none"
     stroke="#000000"
     stroke-width="4.46"
     stroke-linejoin="bevel"
     points="2748.73,384.835 2748.73,486.763"
     id="polyline14"
     transform="translate(-212.598,-310.025)" />
  <polyline
     class="BarLine"
     fill="none"
     stroke="#000000"
     stroke-width="4.46"
     stroke-linejoin="bevel"
     points="2762.37,384.835 2762.37,486.763"
     id="polyline15"
     transform="translate(-212.598,-310.025)" />
  <polyline
     class="BarLine"
     fill="none"
     stroke="#000000"
     stroke-dasharray="4.46401, 8.92801"
     stroke-dashoffset="0"
     stroke-width="4.46"
     stroke-linejoin="bevel"
     points="969.113,384.835 969.113,486.763"
     id="polyline16"
     transform="translate(-212.598,-310.025)" />
  <polyline
     class="BarLine"
     fill="none"
     stroke="#000000"
     stroke-dasharray="4.46401, 8.92801"
     stroke-dashoffset="0"
     stroke-width="4.46"
     stroke-linejoin="bevel"
     points="1562.32,384.835 1562.32,486.763"
     id="polyline17"
     transform="translate(-212.598,-310.025)" />
  <polyline
     class="BarLine"
     fill="none"
     stroke="#000000"
     stroke-dasharray="4.46401, 8.92801"
     stroke-dashoffset="0"
     stroke-width="4.46"
     stroke-linejoin="bevel"
     points="1531.12,992.435 1531.12,1094.36"
     id="polyline18"
     transform="translate(-212.598,-482.525)" />
  <path
     class="Accidental"
     d="m 1356.8151,553.03199 c -0.5891,-3.85953 -2.976,-7.53301 -8.0291,-7.53301 -4.96,0 -7.843,3.06896 -8.339,3.67348 l 0.403,-31.85255 c 0,-0.79043 -0.589,-1.37948 -1.395,-1.37948 h -1.178 c -0.806,0 -1.395,0.58905 -1.395,1.37948 l 0.496,59.62858 c 0,0.79053 0.589,1.37958 1.395,1.37958 0.186,0 0.589,-0.0931 0.7905,-0.186 0.3875,-0.20158 6.8355,-3.37906 12.1985,-9.42406 3.7665,-4.27801 5.2545,-9.12952 5.2545,-13.20602 0,-0.8835 -0.093,-1.674 -0.2014,-2.48 m -6.8356,3.87501 c 0,1.488 -0.403,6.045 -2.883,9.82701 -1.6895,2.573 -5.053,5.25448 -6.944,6.74248 l 0.2945,-19.344 c 0.2015,-0.899 1.6895,-3.76655 5.6575,-3.76655 3.5806,0 3.875,3.36355 3.875,5.45605 0,0.49601 0,0.7905 0,1.08501"
     id="path18"
     style="stroke-width:0.992001" />
  <path
     class="Accidental"
     d="m 466.93355,102.95799 c 0.60452,-0.093 1.10052,-0.79053 1.10052,-1.39505 v -5.84348 c 0,-0.79053 -0.60452,-1.39495 -1.39505,-1.39495 -0.093,0 -0.093,0 -0.20147,0 l -3.27053,0.69747 V 80.23492 h -2.77453 v 15.37601 l -8.83498,1.798 V 83.41249 h -2.7745 v 14.58549 l -3.87501,0.79053 c -0.589,0.10843 -1.085,0.79043 -1.085,1.39495 v 0.20148 5.75055 -0.2015 c 0,0.7905 0.589,1.395 1.395,1.395 0.093,0 0.186,0 0.29451,0 l 3.2705,-0.6975 v 16.36802 l -3.87501,0.7905 c -0.589,0.0931 -1.085,0.79053 -1.085,1.39505 v 5.75043 c 0,0.79053 0.589,1.37958 1.395,1.37958 0.093,0 0.186,0 0.29451,0 l 3.2705,-0.682 v 14.77149 h 2.7745 v -15.37602 l 8.83498,-1.78252 v 13.99653 h 2.77453 v -14.58548 l 3.76653,-0.69758 c 0.60452,-0.10843 1.10052,-0.79043 1.10052,-1.39495 v -5.84353 c 0,-0.806 -0.60452,-1.395 -1.39505,-1.395 -0.093,0 -0.093,0 -0.20147,0 l -3.27053,0.6975 v -16.36802 l 3.76653,-0.6975 m -15.37604,3.069 8.83498,-1.7825 v 16.36802 l -8.83498,1.891 v -16.47652"
     id="path19"
     style="stroke-width:0.992001" />
  <path
     class="Accidental"
     fill="#e01b24"
     d="m 722.47255,538.05899 c 0.60452,-0.093 1.10052,-0.79053 1.10052,-1.39505 v -5.84348 c 0,-0.79053 -0.60452,-1.39495 -1.39505,-1.39495 -0.0929,0 -0.0929,0 -0.20147,0 l -3.27053,0.69747 v -14.78706 h -2.77453 v 15.37601 l -8.83498,1.798 v -13.99644 h -2.7745 v 14.58549 l -3.87501,0.79053 c -0.589,0.10843 -1.085,0.79043 -1.085,1.39495 v 0.20148 5.75055 -0.2015 c 0,0.7905 0.589,1.395 1.395,1.395 0.093,0 0.186,0 0.29451,0 l 3.2705,-0.6975 v 16.36802 l -3.87501,0.7905 c -0.589,0.093 -1.085,0.79053 -1.085,1.39505 v 5.75043 c 0,0.79053 0.589,1.37958 1.395,1.37958 0.093,0 0.186,0 0.29451,0 l 3.2705,-0.682 v 14.77149 h 2.7745 v -15.37602 l 8.83498,-1.78252 v 13.99653 h 2.77453 v -14.58548 l 3.76653,-0.69758 c 0.60452,-0.10843 1.10052,-0.79043 1.10052,-1.39495 v -5.84353 c 0,-0.806 -0.60452,-1.395 -1.39505,-1.395 -0.0929,0 -0.0929,0 -0.20147,0 l -3.27053,0.6975 v -16.36802 l 3.76653,-0.6975 m -15.37604,3.069 8.83498,-1.7825 v 16.36802 l -8.83498,1.891 v -16.47652"
     id="path20"
     style="stroke-width:0.992001" />
  <path
     class="Accidental"
     d="m 2247.4351,117.93099 c -0.5891,-3.85953 -2.976,-7.53301 -8.0291,-7.53301 -4.96,0 -7.843,3.06896 -8.339,3.67348 l 0.403,-31.85255 c 0,-0.79043 -0.589,-1.37948 -1.395,-1.37948 h -1.178 c -0.806,0 -1.395,0.58905 -1.395,1.37948 l 0.496,59.62858 c 0,0.79053 0.589,1.37958 1.395,1.37958 0.186,0 0.589,-0.0931 0.7905,-0.186 0.3875,-0.20158 6.8355,-3.37906 12.1985,-9.42406 3.7665,-4.27801 5.2545,-9.12952 5.2545,-13.20602 0,-0.8835 -0.093,-1.674 -0.2014,-2.48 m -6.8356,3.87501 c 0,1.488 -0.403,6.045 -2.883,9.82701 -1.6895,2.573 -5.053,5.25448 -6.944,6.74248 l 0.2945,-19.344 c 0.2015,-0.899 1.6895,-3.76655 5.6575,-3.76655 3.5806,0 3.875,3.36355 3.875,5.45605 0,0.49601 0,0.7905 0,1.08501"
     id="path21"
     style="stroke-width:0.992001" />
  <path
     class="Accidental"
     d="m 1654.2251,117.93099 c -0.5891,-3.85953 -2.976,-7.53301 -8.0291,-7.53301 -4.96,0 -7.843,3.06896 -8.339,3.67348 l 0.403,-31.85255 c 0,-0.79043 -0.589,-1.37948 -1.395,-1.37948 h -1.178 c -0.806,0 -1.395,0.58905 -1.395,1.37948 l 0.496,59.62858 c 0,0.79053 0.589,1.37958 1.395,1.37958 0.186,0 0.589,-0.0931 0.7905,-0.186 0.3875,-0.20158 6.8355,-3.37906 12.1985,-9.42406 3.7665,-4.27801 5.2545,-9.12952 5.2545,-13.20602 0,-0.8835 -0.093,-1.674 -0.2014,-2.48 m -6.8356,3.87501 c 0,1.488 -0.403,6.045 -2.883,9.82701 -1.6895,2.573 -5.053,5.25448 -6.944,6.74248 l 0.2945,-19.344 c 0.2015,-0.899 1.6895,-3.76655 5.6575,-3.76655 3.5806,0 3.875,3.36355 3.875,5.45605 0,0.49601 0,0.7905 0,1.08501"
     id="path22"
     style="stroke-width:0.992001" />
  <path
     class="Accidental"
     d="m 139.20607,553.03199 c -0.58905,-3.85953 -2.976,-7.53301 -8.02906,-7.53301 -4.96,0 -7.84301,3.06896 -8.33901,3.67348 l 0.403,-31.85255 c 0,-0.79043 -0.589,-1.37948 -1.395,-1.37948 h -1.178 c -0.806,0 -1.395,0.58905 -1.395,1.37948 l 0.496,59.62858 c 0,0.79053 0.589,1.37958 1.395,1.37958 0.186,0 0.589,-0.0931 0.79051,-0.186 0.38749,-0.20158 6.8355,-3.37906 12.1985,-9.42406 3.76653,-4.27801 5.25454,-9.12952 5.25454,-13.20602 0,-0.8835 -0.093,-1.674 -0.20148,-2.48 m -6.83558,3.87501 c 0,1.488 -0.40295,6.045 -2.88295,9.82701 -1.68953,2.573 -5.05303,5.25448 -6.94403,6.74248 l 0.29449,-19.344 c 0.20151,-0.899 1.68951,-3.76655 5.65751,-3.76655 3.58055,0 3.87498,3.36355 3.87498,5.45605 0,0.49601 0,0.7905 0,1.08501"
     id="path23"
     style="stroke-width:0.992001" />
  <path
     class="Accidental"
     fill="#1a5fb4"
     d="m 1940.9651,528.23199 c -0.5891,-3.85953 -2.976,-7.53301 -8.0291,-7.53301 -4.96,0 -7.843,3.06896 -8.339,3.67348 L 1925,492.51991 c 0,-0.79043 -0.589,-1.37948 -1.395,-1.37948 h -1.178 c -0.806,0 -1.395,0.58905 -1.395,1.37948 l 0.496,59.62858 c 0,0.79053 0.589,1.37958 1.395,1.37958 0.186,0 0.589,-0.093 0.7905,-0.186 0.3875,-0.20158 6.8355,-3.37906 12.1985,-9.42406 3.7665,-4.27801 5.2545,-9.12952 5.2545,-13.20602 0,-0.8835 -0.093,-1.674 -0.2014,-2.48 m -6.8356,3.87501 c 0,1.488 -0.403,6.045 -2.883,9.82701 -1.6895,2.573 -5.053,5.25448 -6.944,6.74248 l 0.2945,-19.344 c 0.2015,-0.899 1.6895,-3.76655 5.6575,-3.76655 3.5806,0 3.875,3.36355 3.875,5.45605 0,0.49601 0,0.7905 0,1.08501"
     id="path24"
     style="stroke-width:0.992001" />
  <path
     class="Note"
     d="m 164.16149,547.38994 c -13.68649,0 -18.55349,6.94405 -18.55349,13.39206 0,6.44801 4.867,13.39206 18.55349,13.39206 13.68654,0 18.44507,-6.94405 18.44507,-13.39206 0,-6.44801 -4.75853,-13.39206 -18.44507,-13.39206 m 5.05306,23.00207 c -1.19348,0.403 -2.77453,0.60448 -4.26253,0.60448 -2.77453,0 -4.66548,-0.79048 -5.95201,-3.27048 -1.28652,-2.48001 -3.06895,-8.83501 -3.17747,-11.51652 -0.20148,-2.6815 0.79052,-4.2625 3.17747,-5.053 1.19348,-0.40298 2.77453,-0.60455 4.26253,-0.60455 2.77453,0 4.57253,0.60455 5.95201,3.28605 1.39495,2.66601 3.17748,9.02101 3.17748,11.50101 0,2.57301 -0.79053,4.37101 -3.17748,5.05301"
     id="path25"
     style="stroke-width:0.992001" />
  <path
     class="Note"
     d="m 2272.3855,112.28894 c -13.6865,0 -18.5535,6.94405 -18.5535,13.39206 0,6.44801 4.867,13.39206 18.5535,13.39206 13.6865,0 18.4451,-6.94405 18.4451,-13.39206 0,-6.44801 -4.7586,-13.39206 -18.4451,-13.39206 m 5.053,23.00207 c -1.1934,0.403 -2.7745,0.60448 -4.2625,0.60448 -2.7745,0 -4.6655,-0.79048 -5.952,-3.27048 -1.2865,-2.48001 -3.0689,-8.83501 -3.1775,-11.51652 -0.2014,-2.6815 0.7906,-4.2625 3.1775,-5.053 1.1935,-0.40298 2.7745,-0.60455 4.2625,-0.60455 2.7746,0 4.5726,0.60455 5.952,3.28605 1.395,2.66601 3.1775,9.02101 3.1775,11.50101 0,2.57301 -0.7905,4.37101 -3.1775,5.05301"
     id="path26"
     style="stroke-width:0.992001" />
  <path
     class="Note"
     fill="#e01b24"
     d="m 748.31149,534.98994 c -13.68649,0 -18.55349,6.94405 -18.55349,13.39206 0,6.44801 4.867,13.39206 18.55349,13.39206 13.68654,0 18.44507,-6.94405 18.44507,-13.39206 0,-6.44801 -4.75853,-13.39206 -18.44507,-13.39206 m 5.05306,23.00207 c -1.19348,0.403 -2.77453,0.60448 -4.26253,0.60448 -2.77453,0 -4.66548,-0.79048 -5.95201,-3.27048 -1.28652,-2.48001 -3.06895,-8.83501 -3.17747,-11.51652 -0.20148,-2.6815 0.79052,-4.2625 3.17747,-5.053 1.19348,-0.40298 2.77453,-0.60455 4.26253,-0.60455 2.77453,0 4.57253,0.60455 5.95201,3.28605 1.39495,2.66601 3.17748,9.02101 3.17748,11.50101 0,2.57301 -0.79053,4.37101 -3.17748,5.05301"
     id="path27"
     style="stroke-width:0.992001" />
  <path
     class="Note"
     d="m 1994.7155,124.68894 c -13.6865,0 -18.5535,6.94405 -18.5535,13.39206 0,6.44801 4.867,13.39206 18.5535,13.39206 13.6865,0 18.4451,-6.94405 18.4451,-13.39206 0,-6.44801 -4.7586,-13.39206 -18.4451,-13.39206 m 5.053,23.00207 c -1.1934,0.403 -2.7745,0.60448 -4.2625,0.60448 -2.7745,0 -4.6655,-0.79048 -5.952,-3.27048 -1.2865,-2.48001 -3.0689,-8.83501 -3.1775,-11.51652 -0.2014,-2.6815 0.7906,-4.2625 3.1775,-5.053 1.1935,-0.40298 2.7745,-0.60455 4.2625,-0.60455 2.7746,0 4.5726,0.60455 5.952,3.28605 1.395,2.66601 3.1775,9.02101 3.1775,11.50101 0,2.57301 -0.7905,4.37101 -3.1775,5.05301"
     id="path28"
     style="stroke-width:0.992001" />
  <path
     class="Note"
     d="m 1679.1855,112.28894 c -13.6865,0 -18.5535,6.94405 -18.5535,13.39206 0,6.44801 4.867,13.39206 18.5535,13.39206 13.6865,0 18.4451,-6.94405 18.4451,-13.39206 0,-6.44801 -4.7586,-13.39206 -18.4451,-13.39206 m 5.053,23.00207 c -1.1934,0.403 -2.7745,0.60448 -4.2625,0.60448 -2.7745,0 -4.6655,-0.79048 -5.952,-3.27048 -1.2865,-2.48001 -3.0689,-8.83501 -3.1775,-11.51652 -0.2014,-2.6815 0.7906,-4.2625 3.1775,-5.053 1.1935,-0.40298 2.7745,-0.60455 4.2625,-0.60455 2.7746,0 4.5726,0.60455 5.952,3.28605 1.395,2.66601 3.1775,9.02101 3.1775,11.50101 0,2.57301 -0.7905,4.37101 -3.1775,5.05301"
     id="path29"
     style="stroke-width:0.992001" />
  <path
     class="Note"
     d="m 1381.7655,547.38994 c -13.6865,0 -18.5535,6.94405 -18.5535,13.39206 0,6.44801 4.867,13.39206 18.5535,13.39206 13.6865,0 18.4451,-6.94405 18.4451,-13.39206 0,-6.44801 -4.7586,-13.39206 -18.4451,-13.39206 m 5.053,23.00207 c -1.1934,0.403 -2.7745,0.60448 -4.2625,0.60448 -2.7745,0 -4.6655,-0.79048 -5.952,-3.27048 -1.2865,-2.48001 -3.0689,-8.83501 -3.1775,-11.51652 -0.2014,-2.6815 0.7906,-4.2625 3.1775,-5.053 1.1935,-0.40298 2.7745,-0.60455 4.2625,-0.60455 2.7746,0 4.5726,0.60455 5.952,3.28605 1.395,2.66601 3.1775,9.02101 3.1775,11.50101 0,2.57301 -0.7905,4.37101 -3.1775,5.05301"
     id="path30"
     style="stroke-width:0.992001" />
  <path
     class="Note"
     d="m 1401.5055,87.48894 c -13.6865,0 -18.5535,6.94405 -18.5535,13.39206 0,6.44801 4.867,13.39206 18.5535,13.39206 13.6865,0 18.4451,-6.94405 18.4451,-13.39206 0,-6.44801 -4.7586,-13.39206 -18.4451,-13.39206 m 5.053,23.00207 c -1.1934,0.403 -2.7745,0.60448 -4.2625,0.60448 -2.7745,0 -4.6655,-0.79048 -5.952,-3.27048 -1.2865,-2.48001 -3.0689,-8.83501 -3.1775,-11.51652 -0.2014,-2.6815 0.7906,-4.2625 3.1775,-5.05301 1.1935,-0.40297 2.7745,-0.60454 4.2625,-0.60454 2.7746,0 4.5726,0.60454 5.952,3.28605 1.395,2.66601 3.1775,9.02101 3.1775,11.50101 0,2.57301 -0.7905,4.37101 -3.1775,5.05301"
     id="path31"
     style="stroke-width:0.992001" />
  <path
     class="Note"
     d="m 1085.9755,87.48894 c -13.6865,0 -18.5535,6.94405 -18.5535,13.39206 0,6.44801 4.867,13.39206 18.5535,13.39206 13.6865,0 18.4451,-6.94405 18.4451,-13.39206 0,-6.44801 -4.7586,-13.39206 -18.4451,-13.39206 m 5.053,23.00207 c -1.1934,0.403 -2.7745,0.60448 -4.2625,0.60448 -2.7745,0 -4.6655,-0.79048 -5.952,-3.27048 -1.2865,-2.48001 -3.0689,-8.83501 -3.1775,-11.51652 -0.2014,-2.6815 0.7906,-4.2625 3.1775,-5.05301 1.1935,-0.40297 2.7745,-0.60454 4.2625,-0.60454 2.7746,0 4.5726,0.60454 5.952,3.28605 1.395,2.66601 3.1775,9.02101 3.1775,11.50101 0,2.57301 -0.7905,4.37101 -3.1775,5.05301"
     id="path32"
     style="stroke-width:0.992001" />
  <path
     class="Note"
     d="m 808.29549,124.68894 c -13.68649,0 -18.55349,6.94405 -18.55349,13.39206 0,6.44801 4.867,13.39206 18.55349,13.39206 13.68654,0 18.44507,-6.94405 18.44507,-13.39206 0,-6.44801 -4.75853,-13.39206 -18.44507,-13.39206 m 5.05306,23.00207 c -1.19348,0.403 -2.77453,0.60448 -4.26253,0.60448 -2.77453,0 -4.66548,-0.79048 -5.95201,-3.27048 -1.28652,-2.48001 -3.06895,-8.83501 -3.17747,-11.51652 -0.20148,-2.6815 0.79052,-4.2625 3.17747,-5.053 1.19348,-0.40298 2.77453,-0.60455 4.26253,-0.60455 2.77453,0 4.57253,0.60455 5.95201,3.28605 1.39495,2.66601 3.17748,9.02101 3.17748,11.50101 0,2.57301 -0.79053,4.37101 -3.17748,5.05301"
     id="path33"
     style="stroke-width:0.992001" />
  <path
     class="Note"
     d="m 492.77149,99.88894 c -13.68649,0 -18.55349,6.94405 -18.55349,13.39206 0,6.44801 4.867,13.39206 18.55349,13.39206 13.68654,0 18.44507,-6.94405 18.44507,-13.39206 0,-6.44801 -4.75853,-13.39206 -18.44507,-13.39206 m 5.05306,23.00207 c -1.19348,0.403 -2.77453,0.60448 -4.26253,0.60448 -2.77453,0 -4.66548,-0.79048 -5.95201,-3.27048 -1.28652,-2.48001 -3.06895,-8.83501 -3.17747,-11.51652 -0.20148,-2.6815 0.79052,-4.2625 3.17747,-5.053 1.19348,-0.40298 2.77453,-0.60455 4.26253,-0.60455 2.77453,0 4.57253,0.60455 5.95201,3.28605 1.39495,2.66601 3.17748,9.02101 3.17748,11.50101 0,2.57301 -0.79053,4.37101 -3.17748,5.05301"
     id="path34"
     style="stroke-width:0.992001" />
  <path
     class="Note"
     fill="#1a5fb4"
     d="m 1965.9155,522.58994 c -13.6865,0 -18.5535,6.94405 -18.5535,13.39206 0,6.44801 4.867,13.39206 18.5535,13.39206 13.6865,0 18.4451,-6.94405 18.4451,-13.39206 0,-6.44801 -4.7586,-13.39206 -18.4451,-13.39206 m 5.053,23.00207 c -1.1934,0.403 -2.7745,0.60448 -4.2625,0.60448 -2.7745,0 -4.6655,-0.79048 -5.952,-3.27048 -1.2865,-2.48001 -3.0689,-8.83501 -3.1775,-11.51652 -0.2014,-2.6815 0.7906,-4.2625 3.1775,-5.053 1.1935,-0.40298 2.7745,-0.60455 4.2625,-0.60455 2.7746,0 4.5726,0.60455 5.952,3.28605 1.395,2.66601 3.1775,9.02101 3.1775,11.50101 0,2.57301 -0.7905,4.37101 -3.1775,5.05301"
     id="path35"
     style="stroke-width:0.992001" />
  <path
     class="Note"
     d="m 215.09449,124.68894 c -13.68649,0 -18.55349,6.94405 -18.55349,13.39206 0,6.44801 4.867,13.39206 18.55349,13.39206 13.68654,0 18.44507,-6.94405 18.44507,-13.39206 0,-6.44801 -4.75853,-13.39206 -18.44507,-13.39206 m 5.05306,23.00207 c -1.19348,0.403 -2.77453,0.60448 -4.26253,0.60448 -2.77453,0 -4.66548,-0.79048 -5.95201,-3.27048 -1.28652,-2.48001 -3.06895,-8.83501 -3.17747,-11.51652 -0.20148,-2.6815 0.79052,-4.2625 3.17747,-5.053 1.19348,-0.40298 2.77453,-0.60455 4.26253,-0.60455 2.77453,0 4.57253,0.60455 5.95201,3.28605 1.39495,2.66601 3.17748,9.02101 3.17748,11.50101 0,2.57301 -0.79053,4.37101 -3.17748,5.05301"
     id="path36"
     style="stroke-width:0.992001" />
  <path
     class="Clef"
     d="m 74.353531,152.651 c 0,7.05251 -2.882953,14.29102 -9.92001,17.17407 -2.076952,-11.90406 -4.75843,-27.68308 -5.456005,-32.05413 8.928009,0 15.376015,6.06055 15.376015,14.88006 m -14.089489,18.35207 c -1.984002,0.40295 -3.859479,0.60443 -5.750531,0.60443 -14.182439,0 -26.287996,-9.92001 -26.287996,-24.9085 0,-12.09007 8.525028,-22.90903 17.267037,-30.45756 1.674002,-1.488 3.270528,-2.86748 4.75853,-4.35548 0.883476,5.34748 1.580952,10.01296 2.278427,14.08949 -9.036434,2.68148 -15.17444,12.19854 -15.17444,21.52955 0,6.944 5.456005,16.46101 13.392013,16.46101 0.790426,0 1.689477,-0.40295 1.689477,-1.28652 0,-0.89895 -0.992001,-1.39495 -2.185477,-2.18548 -3.875054,-2.387 -6.060531,-4.96001 -6.060531,-9.82701 0,-6.04501 4.464004,-10.91206 10.32296,-12.29154 l 5.750531,32.62761 M 51.537508,69.02844 c 0.899051,-3.968 5.456006,-14.38401 10.617586,-14.38401 1.488001,0 3.859479,4.85148 3.859479,11.70243 0,10.32306 -7.626008,18.0576 -14.477065,24.80003 -0.588951,-3.968 -1.084951,-7.82748 -1.084951,-11.99696 0,-3.67348 0.294525,-7.05253 1.084951,-10.12149 M 30.705487,201.46058 c 0,6.55653 5.053055,15.19001 18.445069,15.19001 4.66548,0 8.742008,-1.19347 12.306962,-3.37905 5.363055,-3.76643 6.742532,-10.32296 6.742532,-16.56949 0,-3.85948 -0.588951,-8.32349 -1.580952,-13.98097 -0.294525,-1.984 -0.899051,-4.96 -1.488001,-8.83506 9.718435,-3.17747 16.956967,-13.29896 16.956967,-23.51352 0,-14.97304 -10.617486,-25.09453 -25.09455,-25.09453 -0.992001,-5.952 -1.984002,-11.81106 -2.882953,-17.36001 10.524535,-11.02054 17.762968,-23.42055 17.762968,-39.18404 0,-9.03654 -2.774428,-16.36802 -4.370955,-19.94815 -2.371477,-5.05325 -5.25453,-8.52526 -7.037057,-8.52526 -0.697475,0 -3.766429,1.19338 -7.036957,5.05326 -6.355056,7.54813 -8.137483,20.24267 -8.137483,28.56615 0,5.36296 0.496,10.23001 2.185477,21.3435 -0.108525,0.0931 -5.270005,5.34748 -7.347057,7.03706 C 31.093062,110.69248 18.6,122.68945 18.6,142.54499 c 0,18.53807 16.166541,33.12356 34.627085,33.12356 2.867478,0 5.548955,-0.29453 7.827483,-0.69748 1.890952,9.53244 2.976003,16.47645 2.976003,21.73098 0,10.32306 -5.254531,15.77906 -15.267491,15.77906 -2.387052,0 -4.464004,-0.496 -4.665579,-0.496 -0.09295,-0.10852 -0.294426,-0.20157 -0.294426,-0.29452 0,-0.20148 0.201475,-0.31 0.496001,-0.40305 4.665479,-0.69748 9.315484,-4.66548 9.315484,-11.00497 0,-5.36305 -4.061054,-11.02053 -11.501061,-11.02053 -6.944007,0 -11.408012,5.65748 -11.408012,12.19854"
     id="path37"
     style="stroke-width:0.992001" />
  <path
     class="Clef"
     d="m 74.353531,587.752 c 0,7.05251 -2.882953,14.29102 -9.92001,17.17407 -2.076952,-11.90406 -4.75843,-27.68308 -5.456005,-32.05413 8.928009,0 15.376015,6.06055 15.376015,14.88006 m -14.089489,18.35207 c -1.984002,0.40295 -3.859479,0.60443 -5.750531,0.60443 -14.182439,0 -26.287996,-9.92001 -26.287996,-24.9085 0,-12.09007 8.525028,-22.90903 17.267037,-30.45756 1.674002,-1.488 3.270528,-2.86748 4.75853,-4.35548 0.883476,5.34748 1.580952,10.01296 2.278427,14.08949 -9.036434,2.68148 -15.17444,12.19854 -15.17444,21.52955 0,6.944 5.456005,16.46101 13.392013,16.46101 0.790426,0 1.689477,-0.40295 1.689477,-1.28652 0,-0.89895 -0.992001,-1.39495 -2.185477,-2.18548 -3.875054,-2.387 -6.060531,-4.96001 -6.060531,-9.82701 0,-6.04501 4.464004,-10.91206 10.32296,-12.29154 l 5.750531,32.62761 M 51.537508,504.12944 c 0.899051,-3.968 5.456006,-14.38401 10.617586,-14.38401 1.488001,0 3.859479,4.85148 3.859479,11.70244 0,10.32306 -7.626008,18.05759 -14.477065,24.80002 -0.588951,-3.968 -1.084951,-7.82748 -1.084951,-11.99696 0,-3.67348 0.294525,-7.05253 1.084951,-10.12149 M 30.705487,636.56158 c 0,6.55653 5.053055,15.19001 18.445069,15.19001 4.66548,0 8.742008,-1.19347 12.306962,-3.37905 5.363055,-3.76643 6.742532,-10.32296 6.742532,-16.56949 0,-3.85948 -0.588951,-8.32349 -1.580952,-13.98097 -0.294525,-1.984 -0.899051,-4.96 -1.488001,-8.83506 9.718435,-3.17747 16.956967,-13.29896 16.956967,-23.51352 0,-14.97304 -10.617486,-25.09453 -25.09455,-25.09453 -0.992001,-5.952 -1.984002,-11.81106 -2.882953,-17.36001 10.524535,-11.02054 17.762968,-23.42055 17.762968,-39.18404 0,-9.03654 -2.774428,-16.36802 -4.370955,-19.94815 -2.371477,-5.05325 -5.25453,-8.52526 -7.037057,-8.52526 -0.697475,0 -3.766429,1.19338 -7.036957,5.05326 -6.355056,7.54813 -8.137483,20.24267 -8.137483,28.56615 0,5.36296 0.496,10.23001 2.185477,21.3435 -0.108525,0.093 -5.270005,5.34748 -7.347057,7.03706 C 31.093062,545.79348 18.6,557.79045 18.6,577.64599 c 0,18.53807 16.166541,33.12356 34.627085,33.12356 2.867478,0 5.548955,-0.29453 7.827483,-0.69748 1.890952,9.53244 2.976003,16.47645 2.976003,21.73098 0,10.32306 -5.254531,15.77906 -15.267491,15.77906 -2.387052,0 -4.464004,-0.496 -4.665579,-0.496 -0.09295,-0.10852 -0.294426,-0.20157 -0.294426,-0.29452 0,-0.20148 0.201475,-0.31 0.496001,-0.40305 4.665479,-0.69748 9.315484,-4.66548 9.315484,-11.00497 0,-5.36305 -4.061054,-11.02053 -11.501061,-11.02053 -6.944007,0 -11.408012,5.65748 -11.408012,12.19854"
     id="path38"
     style="stroke-width:0.992001" />
  <path
     class="TimeSig"
     d="m 126.12355,113.57549 v 7.33158 h -8.23054 c -0.69747,0 -1.39495,0.60443 -1.39495,1.39495 v 1.89105 c 0,0.79043 0.69748,1.37948 1.39495,1.37948 h 30.05456 c 0.806,0 1.39495,-0.58905 1.39495,-1.37948 v -1.89105 c 0,-0.79052 -0.58895,-1.39495 -1.39495,-1.39495 h -8.92801 v -7.33158 h 8.92801 c 0.806,0 1.39495,-0.69748 1.39495,-1.488 v -1.89098 c 0,-0.6975 -0.58895,-1.3795 -1.39495,-1.3795 h -8.92801 V 93.03799 c 0,-0.589 -0.29453,-1.085 -0.682,-1.2865 l -1.19348,-0.6045 c -0.20157,-0.093 -0.29452,-0.093 -0.496,-0.093 -0.10852,0 -0.10852,0 -0.20157,0 -0.29443,0 -0.69748,0.093 -0.89895,0.29449 L 126.5265,99.579 c -0.29443,0.31 -0.40295,0.6975 -0.40295,1.1005 v 8.13751 h -11.50104 c 0,0 11.11356,-11.90401 22.816,-27.59008 0.40305,-0.496 0.496,-0.992 0.496,-1.37948 0,-0.496 -0.20148,-0.89895 -0.29443,-0.992 l -2.18557,-2.18547 c -0.29443,-0.20148 -0.58896,-0.40306 -0.99201,-0.40306 -0.58895,0 -13.99644,0 -14.78696,0 -0.69748,0 -1.19348,0.60453 -1.28653,1.19358 0,0 -0.496,7.34696 -3.069,15.37599 -2.5885,8.04451 -5.5645,13.00451 -8.1375,16.66252 0,0 -0.29451,0.496 -0.29451,1.1005 0,0.2015 0,0.38755 0.093,0.58903 0.29451,0.69747 0.992,1.78252 0.992,1.78252 0,0 0.20151,0.60443 1.085,0.60443 h 17.06555"
     id="path39"
     style="stroke-width:0.992001" />
  <path
     class="TimeSig"
     d="m 142.69351,153.953 c -0.79043,2.17001 -2.77443,9.31554 -7.64148,9.31554 -6.44801,0 -7.84296,-3.96803 -13.19054,-3.96803 -0.79043,0 -1.59643,0.1085 -2.58843,0.2945 0,0 2.48,-3.7665 13.00444,-7.03701 10.50906,-3.2705 13.19054,-8.43201 13.19054,-14.38401 0,-4.16948 -1.87548,-12.40001 -16.86402,-12.40001 -14.97302,0 -17.76302,9.02095 -17.76302,13.59348 0,4.06103 3.37901,7.33154 7.44001,7.33154 4.07648,0 7.34701,-3.27051 7.34701,-7.33154 0,-2.77452 -1.984,-5.85895 -4.55696,-6.85095 -0.31,-0.0931 -0.69757,-0.58905 -0.69757,-1.08505 0,-0.60453 0.496,-1.28653 2.27852,-1.78253 0.496,-0.20148 1.89106,-0.496 3.37906,-0.496 1.37947,0 2.976,0.29452 4.154,1.08505 1.89095,1.19348 2.58843,2.976 2.58843,7.44001 0,11.60951 -13.79496,14.08952 -19.5455,22.72307 0,0 -2.976,4.154 -2.976,8.81948 0,4.66548 2.387,4.96001 3.56501,4.96001 1.5965,0 3.286,-1.28653 3.286,-3.06905 0,-0.40295 -0.1085,-0.79043 -0.31,-1.28643 -0.589,-1.39505 -0.7905,-2.48 -0.7905,-3.286 0,-0.29453 0,-0.58905 0.1085,-0.88358 0.093,-0.60443 0.8835,-1.59643 3.27048,-1.59643 2.86757,0 3.968,3.37896 5.75053,5.95201 1.78252,2.58843 4.55705,4.16948 7.73453,4.16948 3.17748,0 7.44001,-2.27853 9.23801,-5.95201 1.78253,-3.67348 4.06095,-11.11353 4.06095,-13.77954 0,-1.302 -0.79042,-1.891 -1.68947,-1.891 -0.69748,0 -1.37948,0.403 -1.78253,1.395"
     id="path40"
     style="stroke-width:0.992001" />
  <path
     class="StaffText"
     fill="#e01b24"
     d="m 285.021,678.625 h -2.203 l -0.5,2.54 c -0.64,3.25 -1.047,3.55 -4.14,3.55 h -11.203 c 3.453,-3.59 4.593,-4.64 7.796,-7.14 4.547,-3.5 6.5,-5.25 7.657,-6.75 1.593,-2.2 2.39,-4.41 2.39,-6.86 0,-5.7 -4.703,-9.75 -11.25,-9.75 -6.343,0 -11.203,4.05 -11.203,9.41 0,3.14 1.61,5.29 3.953,5.29 1.86,0 3.11,-1.25 3.11,-3.04 0,-1.25 -0.703,-2.41 -1.75,-2.86 -1.86,-0.75 -1.953,-0.85 -1.953,-1.5 0,-0.75 0.5,-1.89 1.203,-2.75 1.25,-1.55 3.297,-2.39 5.64,-2.39 4.157,0 6.61,2.54 6.61,6.75 0,3.7 -1.75,7.04 -5.907,11.45 -3.703,3.89 -6,6.34 -6.843,7.3 -1.813,2.09 -2.703,3.25 -4.907,6.14 v 1.4 h 22.547 l 0.953,-10.79 m 5.5,-12.3 2.204,0.34 0.89,-3.95 c 0.75,-3.3 1.11,-3.8 2.547,-3.8 0.25,0 0.656,0 1.109,0.05 6.141,0.3 6.141,0.3 8.454,0.3 0.64,0 1.796,0 3.187,-0.05 l -3.391,6.86 c -3.703,7.34 -4.156,8.25 -5.406,11.34 -1.547,3.75 -2.344,6.91 -2.344,9 0,2.3 1.204,3.71 3.141,3.71 2.406,0 3.359,-1.61 3.313,-5.96 -0.25,-7.2 0.64,-10.7 6,-22.4 0.89,-1.95 1.843,-3.95 2.75,-5.89 v -1.46 c -3,0.25 -4.61,0.35 -7.704,0.35 -4.359,0 -7.796,-0.14 -13.203,-0.55 l -1.547,12.11 m 43.25,-12.11 -17,23.66 v 2.79 h 14.047 v 2.6 c 0,2.56 0,2.65 -0.297,3.11 -0.406,0.54 -1.359,0.7 -4.203,0.7 h -0.547 v 2.34 h 14.594 v -2.34 h -0.203 c -2.844,0 -3.797,-0.16 -4.203,-0.7 -0.297,-0.46 -0.297,-0.5 -0.297,-3.11 v -2.6 h 6.063 v -2.79 h -6.063 v -13.66 c 0,-6.25 0,-6.4 0.25,-10 h -2.141 m -2.953,23.66 h -11 l 11,-15.16 v 15.16 m 40.188,-25.25 c -3.047,1.84 -4.61,3.14 -6.297,5.14 -3.813,4.5 -5.859,10.25 -5.859,16.31 0,5.69 1.796,11.05 5.156,15.5 1.89,2.39 3.594,3.89 7,6 v -1.86 c -5,-4.45 -7,-10 -7,-19.64 0,-9.66 2,-15.2 7,-19.61 v -1.84 m 19.984,18.39 c 4.547,-1.64 6.656,-4.19 6.656,-8.2 0,-5.25 -4,-8.6 -10.203,-8.6 -5.843,0 -10.297,3.45 -10.297,8 0,2.05 1.344,3.5 3.297,3.5 1.75,0 2.953,-1.2 2.953,-3 0,-1.09 -0.406,-1.75 -1.546,-2.55 -0.5,-0.35 -0.657,-0.54 -0.657,-0.9 0,-1.39 2.907,-2.89 5.75,-2.89 3.594,0 5.5,2.25 5.5,6.5 0,4.64 -1.906,7.09 -5.453,7.09 -0.453,0 -1.297,-0.05 -2.047,-0.09 -0.406,-0.05 -0.797,-0.05 -1.093,-0.05 -1.063,0 -1.61,0.44 -1.61,1.34 0,0.85 0.5,1.25 1.61,1.25 0.296,0 0.687,0 1.14,-0.04 1,-0.05 1.797,-0.05 2.36,-0.05 3.687,0 5.687,2.64 5.687,7.59 0,5.21 -2.5,8.1 -7,8.1 -3.141,0 -6.547,-1.69 -6.547,-3.25 0,-0.44 0.11,-0.55 1.047,-1.1 1.406,-0.84 1.953,-1.7 1.953,-2.95 0,-1.8 -1.344,-3.14 -3.14,-3.14 -2.157,0 -3.563,1.75 -3.563,4.39 0,4.86 4.453,8.2 10.859,8.2 7.25,0 11.954,-4 11.954,-10.15 0,-4.69 -2.407,-7.55 -7.61,-9 m 29.203,-1.1 c 3.703,-2 5.5,-4.5 5.5,-7.75 0,-4.6 -4.156,-7.95 -9.953,-7.95 -6.094,0 -10.547,4 -10.547,9.55 0,2.15 0.797,4.4 2.203,5.95 0.844,1 1.641,1.55 3.438,2.5 -4.094,1.61 -7.297,3.86 -7.297,8.8 0,2.75 1.359,5.45 3.453,7 1.953,1.4 4.656,2.15 7.844,2.15 3.703,0 6.812,-1 8.906,-2.79 2.094,-1.91 3.406,-4.96 3.406,-8 0,-2.86 -1.109,-5.41 -3.156,-7.21 -1,-0.9 -1.906,-1.4 -3.797,-2.25 m -5.359,-2 c -4.047,-1.45 -5.797,-3.34 -5.797,-6.25 0,-3.2 2.609,-5.29 6.547,-5.29 3.859,0 6.406,2.44 6.406,6.09 0,2.61 -1,4.3 -3.844,6.7 l -3.312,-1.25 m 2.906,6.96 c 3.797,1.34 5.406,3.29 5.406,6.59 0,4 -3.156,6.55 -8.062,6.55 -4.688,0 -7.391,-2.55 -7.391,-7 0,-3.75 1.547,-6 5.453,-7.8 l 4.594,1.66 m 19.203,-2.46 c 0.5,-6.25 0.75,-7.9 1.844,-10.45 1.453,-3.55 4.094,-5.59 7.25,-5.59 1.75,0 2.797,0.54 2.797,1.44 0,0.2 -0.047,0.35 -0.25,0.7 -0.5,0.95 -0.75,1.7 -0.75,2.4 0,1.65 1.297,2.9 3.047,2.9 1.953,0 3.312,-1.5 3.312,-3.6 0,-3.45 -3.453,-6 -8.203,-6 -10.406,0 -14.609,10.95 -14.609,19.8 0,9.81 4.812,16.15 12.203,16.15 6.703,0 11.5,-5.34 11.5,-11.95 0,-5.89 -4.203,-10.3 -9.891,-10.3 -3.406,0 -5.906,1.35 -8.25,4.5 m 6.844,-1.45 c 3.656,0 5.844,2.86 5.844,7.61 0,5.8 -2.297,9.44 -5.938,9.44 -4.453,0 -6.453,-4.94 -6.453,-8.75 0,-5.14 2.5,-8.3 6.547,-8.3 m 29.281,4.55 v 4.15 h 12.453 v -4.15 h -12.453 m 44.532,-21.3 c -1.688,2.05 -6.297,3.6 -10.891,3.7 v 2.15 h 4.391 c 2.906,0.06 3.203,0.35 3.109,3.15 v 20.05 c 0,2.56 0,2.65 -0.297,3.11 -0.406,0.5 -1.359,0.7 -4.156,0.7 h -3.25 v 2.34 h 19.797 v -2.34 h -2.75 c -2.797,0 -3.75,-0.2 -4.141,-0.7 -0.359,-0.46 -0.359,-0.5 -0.359,-3.11 v -20.64 c 0,-2.81 0.109,-5.16 0.359,-8.41 H 517.6 m 27.796,0 c -1.687,2.05 -6.296,3.6 -10.89,3.7 v 2.15 h 4.39 c 2.907,0.06 3.204,0.35 3.11,3.15 v 20.05 c 0,2.56 0,2.65 -0.297,3.11 -0.406,0.5 -1.359,0.7 -4.156,0.7 h -3.25 v 2.34 H 554.1 v -2.34 h -2.75 c -2.797,0 -3.75,-0.2 -4.141,-0.7 -0.359,-0.46 -0.359,-0.5 -0.359,-3.11 v -20.64 c 0,-2.81 0.109,-5.16 0.359,-8.41 h -1.813 m 36.954,24.41 h -2.204 l -0.5,2.54 c -0.64,3.25 -1.046,3.55 -4.14,3.55 h -11.203 c 3.453,-3.59 4.593,-4.64 7.797,-7.14 4.546,-3.5 6.5,-5.25 7.656,-6.75 1.594,-2.2 2.39,-4.41 2.39,-6.86 0,-5.7 -4.703,-9.75 -11.25,-9.75 -6.343,0 -11.203,4.05 -11.203,9.41 0,3.14 1.61,5.29 3.953,5.29 1.86,0 3.11,-1.25 3.11,-3.04 0,-1.25 -0.703,-2.41 -1.75,-2.86 -1.86,-0.75 -1.953,-0.85 -1.953,-1.5 0,-0.75 0.5,-1.89 1.203,-2.75 1.25,-1.55 3.297,-2.39 5.64,-2.39 4.157,0 6.61,2.54 6.61,6.75 0,3.7 -1.75,7.04 -5.906,11.45 -3.704,3.89 -6,6.34 -6.844,7.3 -1.813,2.09 -2.703,3.25 -4.906,6.14 v 1.4 h 22.546 l 0.954,-10.79 m 5.25,16.95 c 3.046,-1.86 4.593,-3.16 6.296,-5.2 3.797,-4.46 5.844,-10.21 5.844,-16.3 0,-5.7 -1.797,-11.06 -5.14,-15.45 -1.907,-2.46 -3.61,-3.91 -7,-6 v 1.84 c 5,4.41 7,9.95 7,19.61 0,9.64 -2,15.25 -7,19.64 v 1.86 m 47.171,-13.5 c -1.593,3.59 -3.296,5.05 -5.89,5.05 -4,0 -6.5,-3.66 -6.5,-9.5 0,-6.11 2.453,-10.11 6.14,-10.11 1.5,0 2.813,0.7 2.813,1.5 0,0.15 -0.063,0.31 -0.313,0.61 -0.796,0.95 -1,1.45 -1,2.29 0,1.66 1.25,2.8 3,2.8 1.813,0 3.063,-1.39 3.063,-3.39 0,-3.41 -3.359,-5.95 -7.813,-5.95 -6.5,0 -11.14,5.29 -11.14,12.79 0,7.1 4.25,12 10.453,12 4.437,0 7,-2.04 9.141,-7.34 l -1.954,-0.75 m 12.641,-15.95 v -9.91 h -2.047 c -0.5,6.5 -2.703,9.8 -6.75,10.11 v 1.94 h 4.094 v 12.75 c 0,3.5 0.094,4.75 0.594,5.9 0.812,2.1 2.812,3.25 5.703,3.25 4.5,0 7.406,-3.4 7.406,-8.7 0,-0.3 0,-0.64 -0.047,-1.14 h -2.109 c -0.141,4.5 -1.453,6.8 -3.891,6.8 -1.156,0 -2.156,-0.61 -2.5,-1.46 -0.312,-0.7 -0.453,-1.95 -0.453,-3.75 v -13.65 h 7.344 v -2.14 h -7.344"
     id="path41" />
  <path
     class="StaffText"
     d="m 1997.032,221.75 c -1.69,2.047 -6.29,3.594 -10.89,3.703 v 2.141 h 4.39 c 2.91,0.062 3.21,0.359 3.11,3.156 v 20.047 c 0,2.562 0,2.656 -0.3,3.109 -0.4,0.5 -1.35,0.703 -4.15,0.703 h -3.25 v 2.344 h 19.8 v -2.344 h -2.75 c -2.8,0 -3.75,-0.203 -4.15,-0.703 -0.35,-0.453 -0.35,-0.5 -0.35,-3.109 v -20.641 c 0,-2.812 0.1,-5.156 0.35,-8.406 h -1.81 m 27.8,0 c -1.69,2.047 -6.3,3.594 -10.89,3.703 v 2.141 h 4.39 c 2.91,0.062 3.2,0.359 3.11,3.156 v 20.047 c 0,2.562 0,2.656 -0.3,3.109 -0.4,0.5 -1.36,0.703 -4.15,0.703 h -3.25 v 2.344 h 19.79 v -2.344 h -2.75 c -2.79,0 -3.75,-0.203 -4.14,-0.703 -0.36,-0.453 -0.36,-0.5 -0.36,-3.109 v -20.641 c 0,-2.812 0.11,-5.156 0.36,-8.406 h -1.81 m 36.95,24.406 h -2.2 l -0.5,2.547 c -0.64,3.25 -1.05,3.547 -4.14,3.547 h -11.2 c 3.45,-3.594 4.59,-4.641 7.79,-7.141 4.55,-3.5 6.5,-5.25 7.66,-6.75 1.59,-2.203 2.39,-4.406 2.39,-6.859 0,-5.703 -4.7,-9.75 -11.25,-9.75 -6.34,0 -11.2,4.047 -11.2,9.406 0,3.141 1.61,5.297 3.95,5.297 1.86,0 3.11,-1.25 3.11,-3.047 0,-1.25 -0.7,-2.406 -1.75,-2.859 -1.86,-0.75 -1.95,-0.844 -1.95,-1.5 0,-0.75 0.5,-1.891 1.2,-2.75 1.25,-1.547 3.3,-2.391 5.64,-2.391 4.16,0 6.61,2.547 6.61,6.75 0,3.703 -1.75,7.047 -5.91,11.453 -3.7,3.891 -6,6.344 -6.84,7.297 -1.81,2.094 -2.7,3.25 -4.91,6.141 v 1.406 h 22.55 l 0.95,-10.797 m 30.39,-26 c -3.04,1.844 -4.61,3.141 -6.29,5.141 -3.82,4.5 -5.86,10.25 -5.86,16.312 0,5.688 1.79,11.047 5.15,15.5 1.89,2.391 3.6,3.891 7,6 v -1.859 c -5,-4.453 -7,-10 -7,-19.641 0,-9.656 2,-15.203 7,-19.609 v -1.844 m 21.1,1.594 -17,23.656 v 2.797 h 14.04 v 2.594 c 0,2.562 0,2.656 -0.29,3.109 -0.41,0.547 -1.36,0.703 -4.21,0.703 h -0.54 v 2.344 h 14.59 v -2.344 h -0.2 c -2.85,0 -3.8,-0.156 -4.21,-0.703 -0.29,-0.453 -0.29,-0.5 -0.29,-3.109 v -2.594 h 6.06 v -2.797 h -6.06 V 231.75 c 0,-6.25 0,-6.406 0.25,-10 h -2.14 m -2.96,23.656 h -11 l 11,-15.156 v 15.156 m 32.55,-5.797 c -0.61,5.844 -0.91,7.594 -1.8,10.094 -1.31,3.703 -4,5.844 -7.4,5.844 -1.66,0 -2.75,-0.5 -2.75,-1.25 0,-0.188 0.09,-0.438 0.29,-0.844 0.55,-1.156 0.66,-1.5 0.66,-2.203 0,-1.703 -1.25,-2.953 -2.95,-2.953 -1.91,0 -3.41,1.609 -3.41,3.609 0,3.297 3.5,5.797 8.11,5.797 10.5,0 14.7,-10.406 14.7,-19.453 0,-10.047 -4.75,-16.5 -12.25,-16.5 -6.45,0 -11.45,5.297 -11.45,12.047 0,6 4.14,10.359 9.89,10.359 3.56,0 5.66,-1.156 8.36,-4.547 m -6.61,-15.703 c 3.7,0 6.16,3.641 6.16,9.297 0,2.047 -0.41,3.906 -1.16,5.047 -1.14,1.797 -3.09,2.906 -5.25,2.906 -3.8,0 -5.94,-2.953 -5.94,-8.25 0,-3.953 1.39,-9 6.19,-9 m 28.41,-2.156 c -7,0 -12.11,7.594 -12.11,18.109 0,10.297 4.95,17.844 11.7,17.844 7,0 11.91,-7.297 11.91,-17.703 0,-5.297 -1.11,-9.703 -3.21,-13.156 -1.95,-3.141 -5.15,-5.094 -8.29,-5.094 m -0.36,2.156 c 1.65,0 3.25,1.094 4.45,3.094 1.36,2.344 1.8,5.203 1.8,12.047 0,7.062 -0.35,10.359 -1.35,12.562 -1.15,2.438 -2.95,3.938 -4.84,3.938 -1.7,0 -3.25,-1.094 -4.45,-3.094 -1.41,-2.344 -1.8,-5.453 -1.8,-13.656 0,-5.844 0.34,-8.75 1.34,-10.953 1.16,-2.5 2.96,-3.938 4.85,-3.938 m 29.94,19.141 v 4.156 h 12.45 v -4.156 h -12.45 m 45.73,-4.5 c 4.55,-1.641 6.66,-4.188 6.66,-8.203 0,-5.25 -4,-8.594 -10.21,-8.594 -5.84,0 -10.29,3.453 -10.29,8 0,2.047 1.34,3.5 3.29,3.5 1.75,0 2.96,-1.203 2.96,-3 0,-1.094 -0.41,-1.75 -1.55,-2.547 -0.5,-0.359 -0.66,-0.547 -0.66,-0.906 0,-1.391 2.91,-2.891 5.75,-2.891 3.6,0 5.5,2.25 5.5,6.5 0,4.641 -1.9,7.094 -5.45,7.094 -0.45,0 -1.3,-0.047 -2.05,-0.094 -0.4,-0.047 -0.79,-0.047 -1.09,-0.047 -1.06,0 -1.61,0.438 -1.61,1.344 0,0.844 0.5,1.25 1.61,1.25 0.3,0 0.69,0 1.14,-0.047 1,-0.047 1.8,-0.047 2.36,-0.047 3.69,0 5.69,2.641 5.69,7.594 0,5.203 -2.5,8.094 -7,8.094 -3.14,0 -6.55,-1.688 -6.55,-3.25 0,-0.438 0.11,-0.547 1.05,-1.094 1.4,-0.844 1.95,-1.703 1.95,-2.953 0,-1.797 -1.34,-3.141 -3.14,-3.141 -2.16,0 -3.56,1.75 -3.56,4.391 0,4.859 4.45,8.203 10.86,8.203 7.25,0 11.95,-4 11.95,-10.156 0,-4.688 -2.41,-7.547 -7.61,-9 m 29.2,-1.094 c 3.71,-2 5.5,-4.5 5.5,-7.75 0,-4.609 -4.15,-7.953 -9.95,-7.953 -6.09,0 -10.55,4 -10.55,9.547 0,2.156 0.8,4.406 2.21,5.953 0.84,1 1.64,1.547 3.43,2.5 -4.09,1.609 -7.29,3.859 -7.29,8.797 0,2.75 1.36,5.453 3.45,7 1.95,1.406 4.66,2.156 7.84,2.156 3.71,0 6.82,-1 8.91,-2.797 2.09,-1.906 3.41,-4.953 3.41,-8 0,-2.859 -1.11,-5.406 -3.16,-7.203 -1,-0.906 -1.91,-1.406 -3.8,-2.25 m -5.36,-2 c -4.04,-1.453 -5.79,-3.344 -5.79,-6.25 0,-3.203 2.61,-5.297 6.54,-5.297 3.86,0 6.41,2.438 6.41,6.094 0,2.609 -1,4.297 -3.84,6.703 l -3.32,-1.25 m 2.91,6.953 c 3.8,1.344 5.41,3.297 5.41,6.594 0,4 -3.16,6.547 -8.07,6.547 -4.68,0 -7.39,-2.547 -7.39,-7 0,-3.75 1.55,-6 5.46,-7.797 l 4.59,1.656 m 19.2,-2.453 c 0.5,-6.25 0.75,-7.906 1.85,-10.453 1.45,-3.547 4.09,-5.594 7.25,-5.594 1.75,0 2.79,0.547 2.79,1.438 0,0.203 -0.04,0.359 -0.25,0.703 -0.5,0.953 -0.75,1.703 -0.75,2.406 0,1.641 1.3,2.891 3.05,2.891 1.95,0 3.31,-1.5 3.31,-3.594 0,-3.453 -3.45,-6 -8.2,-6 -10.41,0 -14.61,10.953 -14.61,19.797 0,9.812 4.81,16.156 12.2,16.156 6.71,0 11.5,-5.344 11.5,-11.953 0,-5.891 -4.2,-10.297 -9.89,-10.297 -3.4,0 -5.9,1.344 -8.25,4.5 m 6.85,-1.453 c 3.65,0 5.84,2.859 5.84,7.609 0,5.797 -2.3,9.438 -5.94,9.438 -4.45,0 -6.45,-4.938 -6.45,-8.75 0,-5.141 2.5,-8.297 6.55,-8.297 m 16,24.609 c 3.04,-1.859 4.59,-3.156 6.29,-5.203 3.8,-4.453 5.85,-10.203 5.85,-16.297 0,-5.703 -1.8,-11.062 -5.14,-15.453 -1.91,-2.453 -3.61,-3.906 -7,-6 V 222 c 5,4.406 7,9.953 7,19.609 0,9.641 -2,15.25 -7,19.641 v 1.859 m 47.17,-13.5 c -1.6,3.594 -3.3,5.047 -5.89,5.047 -4,0 -6.5,-3.656 -6.5,-9.5 0,-6.109 2.45,-10.109 6.14,-10.109 1.5,0 2.81,0.703 2.81,1.5 0,0.156 -0.06,0.312 -0.31,0.609 -0.8,0.953 -1,1.453 -1,2.297 0,1.656 1.25,2.797 3,2.797 1.81,0 3.06,-1.391 3.06,-3.391 0,-3.406 -3.36,-5.953 -7.81,-5.953 -6.5,0 -11.14,5.297 -11.14,12.797 0,7.094 4.25,12 10.45,12 4.44,0 7,-2.047 9.14,-7.344 l -1.95,-0.75 m 12.64,-15.953 v -9.906 h -2.05 c -0.5,6.5 -2.7,9.797 -6.75,10.109 v 1.938 h 4.1 v 12.75 c 0,3.5 0.09,4.75 0.59,5.906 0.81,2.094 2.81,3.25 5.7,3.25 4.5,0 7.41,-3.406 7.41,-8.703 0,-0.297 0,-0.641 -0.05,-1.141 h -2.11 c -0.14,4.5 -1.45,6.797 -3.89,6.797 -1.15,0 -2.15,-0.609 -2.5,-1.453 -0.31,-0.703 -0.45,-1.953 -0.45,-3.75 v -13.656 h 7.34 v -2.141 h -7.34"
     id="path42" />
  <path
     class="StaffText"
     d="m 1328.992,235.912 c 4.55,-1.64 6.66,-4.187 6.66,-8.203 0,-5.25 -4,-8.593 -10.2,-8.593 -5.85,0 -10.3,3.453 -10.3,8 0,2.046 1.34,3.5 3.3,3.5 1.75,0 2.95,-1.204 2.95,-3 0,-1.094 -0.41,-1.75 -1.55,-2.547 -0.5,-0.36 -0.65,-0.547 -0.65,-0.907 0,-1.39 2.9,-2.89 5.75,-2.89 3.59,0 5.5,2.25 5.5,6.5 0,4.64 -1.91,7.094 -5.46,7.094 -0.45,0 -1.29,-0.047 -2.04,-0.094 -0.41,-0.047 -0.8,-0.047 -1.1,-0.047 -1.06,0 -1.61,0.437 -1.61,1.344 0,0.843 0.5,1.25 1.61,1.25 0.3,0 0.69,0 1.14,-0.047 1,-0.047 1.8,-0.047 2.36,-0.047 3.69,0 5.69,2.641 5.69,7.594 0,5.203 -2.5,8.093 -7,8.093 -3.14,0 -6.55,-1.687 -6.55,-3.25 0,-0.437 0.11,-0.546 1.05,-1.093 1.41,-0.844 1.95,-1.703 1.95,-2.953 0,-1.797 -1.34,-3.141 -3.14,-3.141 -2.15,0 -3.56,1.75 -3.56,4.391 0,4.859 4.45,8.203 10.86,8.203 7.25,0 11.95,-4 11.95,-10.157 0,-4.687 -2.4,-7.546 -7.61,-9 m 29.21,-1.093 c 3.7,-2 5.5,-4.5 5.5,-7.75 0,-4.61 -4.16,-7.953 -9.96,-7.953 -6.09,0 -10.54,4 -10.54,9.546 0,2.157 0.79,4.407 2.2,5.954 0.84,1 1.64,1.546 3.44,2.5 -4.1,1.609 -7.3,3.859 -7.3,8.796 0,2.75 1.36,5.454 3.45,7 1.96,1.407 4.66,2.157 7.85,2.157 3.7,0 6.81,-1 8.9,-2.797 2.1,-1.906 3.41,-4.953 3.41,-8 0,-2.86 -1.11,-5.406 -3.16,-7.203 -1,-0.907 -1.9,-1.407 -3.79,-2.25 m -5.36,-2 c -4.05,-1.453 -5.8,-3.344 -5.8,-6.25 0,-3.203 2.61,-5.297 6.55,-5.297 3.86,0 6.4,2.437 6.4,6.094 0,2.609 -1,4.296 -3.84,6.703 l -3.31,-1.25 m 2.9,6.953 c 3.8,1.344 5.41,3.297 5.41,6.594 0,4 -3.16,6.546 -8.06,6.546 -4.69,0 -7.39,-2.546 -7.39,-7 0,-3.75 1.54,-6 5.45,-7.796 l 4.59,1.656 m 19.21,-2.453 c 0.5,-6.25 0.75,-7.907 1.84,-10.453 1.45,-3.547 4.09,-5.594 7.25,-5.594 1.75,0 2.8,0.547 2.8,1.437 0,0.203 -0.05,0.36 -0.25,0.703 -0.5,0.954 -0.75,1.704 -0.75,2.407 0,1.64 1.29,2.89 3.04,2.89 1.96,0 3.32,-1.5 3.32,-3.593 0,-3.454 -3.46,-6 -8.21,-6 -10.4,0 -14.61,10.953 -14.61,19.796 0,9.813 4.82,16.157 12.21,16.157 6.7,0 11.5,-5.344 11.5,-11.953 0,-5.891 -4.21,-10.297 -9.89,-10.297 -3.41,0 -5.91,1.343 -8.25,4.5 m 6.84,-1.453 c 3.66,0 5.84,2.859 5.84,7.609 0,5.797 -2.29,9.437 -5.93,9.437 -4.46,0 -6.46,-4.937 -6.46,-8.75 0,-5.14 2.5,-8.296 6.55,-8.296 m 46.53,11.109 c -1.59,3.594 -3.3,5.047 -5.89,5.047 -4,0 -6.5,-3.656 -6.5,-9.5 0,-6.11 2.45,-10.11 6.14,-10.11 1.5,0 2.81,0.704 2.81,1.5 0,0.157 -0.06,0.313 -0.31,0.61 -0.8,0.953 -1,1.453 -1,2.297 0,1.656 1.25,2.797 3,2.797 1.81,0 3.06,-1.391 3.06,-3.391 0,-3.406 -3.36,-5.953 -7.81,-5.953 -6.5,0 -11.14,5.297 -11.14,12.797 0,7.093 4.25,12 10.45,12 4.44,0 7,-2.047 9.14,-7.344 l -1.95,-0.75 m 12.64,-15.953 v -9.906 h -2.05 c -0.5,6.5 -2.7,9.796 -6.75,10.109 v 1.937 h 4.1 v 12.75 c 0,3.5 0.09,4.75 0.59,5.907 0.81,2.093 2.81,3.25 5.71,3.25 4.5,0 7.4,-3.407 7.4,-8.703 0,-0.297 0,-0.641 -0.05,-1.141 h -2.1 c -0.15,4.5 -1.46,6.797 -3.9,6.797 -1.15,0 -2.15,-0.61 -2.5,-1.453 -0.31,-0.703 -0.45,-1.953 -0.45,-3.75 v -13.657 h 7.35 v -2.14 h -7.35 m 37.58,-13.5 c -3.05,1.844 -4.61,3.14 -6.3,5.14 -3.81,4.5 -5.86,10.25 -5.86,16.313 0,5.687 1.8,11.047 5.16,15.5 1.89,2.391 3.59,3.891 7,6 v -1.859 c -5,-4.454 -7,-10 -7,-19.641 0,-9.656 2,-15.203 7,-19.609 v -1.844 m 12.59,13.5 -8.86,0.547 v 2.156 h 2.05 c 1.91,0.047 2.16,0.344 2.16,2.5 v 14.297 c -0.05,0.75 -0.1,1.047 -0.3,1.297 -0.36,0.453 -1.36,0.656 -3.5,0.703 h -0.2 v 1.797 h 13.34 v -1.797 h -0.89 c -3.36,-0.11 -3.8,-0.36 -3.8,-2.156 v -2.704 c 0.05,-8.39 3.05,-14.796 6.94,-15 -0.69,0.813 -0.89,1.313 -0.89,2.25 0,1.61 1.14,2.75 2.75,2.75 1.84,0 3.05,-1.343 3.05,-3.343 0,-2.453 -1.71,-4.047 -4.35,-4.047 -3.15,0 -5.86,2.5 -7.5,6.953 v -6.203 m 35.22,12.047 c 0.05,-7.5 -4.2,-12.797 -10.29,-12.797 -6.41,0 -11.21,5.547 -11.21,13.047 0,7.047 4.55,11.75 11.3,11.75 4.8,0 8.16,-2.344 10.2,-7.094 l -1.75,-0.953 c -2.04,3.844 -4.15,5.344 -7.5,5.344 -2.54,0 -4.4,-1.047 -5.7,-3.297 -0.89,-1.5 -1.3,-3.25 -1.25,-6 h 16.2 m -16.15,-2.157 c 0,-3.5 1.61,-8.5 5.81,-8.5 3,0 5,2.657 5,6.704 0,1.406 -0.45,1.796 -2.06,1.796 h -8.75 m 25.84,-22.343 c -1.61,0 -2.91,1.297 -2.91,2.89 0,1.61 1.3,2.907 2.86,2.907 1.64,0 2.94,-1.297 2.94,-2.907 0,-1.593 -1.3,-2.89 -2.89,-2.89 m 2.34,12.453 -9.39,0.547 v 2.156 h 2.55 c 1.89,0.047 2.14,0.344 2.14,2.5 v 14.297 c -0.05,0.75 -0.09,1.047 -0.3,1.297 -0.34,0.453 -1.29,0.656 -3.45,0.703 h -0.34 v 1.797 h 12.95 v -1.797 h -0.36 c -3.34,-0.11 -3.8,-0.36 -3.8,-2.156 v -19.344 m 15.44,0 -8.66,0.547 v 2.156 h 1.82 c 1.89,0.047 2.14,0.344 2.14,2.5 v 14.297 c -0.05,0.75 -0.1,1.047 -0.3,1.297 -0.34,0.453 -1.3,0.656 -3.45,0.703 h -0.21 v 1.797 h 12.66 v -1.797 h -0.2 c -3.35,-0.11 -3.8,-0.36 -3.8,-2.156 v -7.391 c 0,-2.453 0.34,-4.703 0.91,-5.859 1.04,-2.25 3.29,-3.797 5.43,-3.797 1.32,0 2.82,0.703 3.57,1.75 0.75,1.093 1.09,2.593 1.09,5 v 10.453 c -0.05,0.75 -0.09,1.047 -0.3,1.297 -0.36,0.453 -1.36,0.656 -3.5,0.703 h -0.2 v 1.797 h 12.66 v -1.797 h -0.21 c -3.29,-0.11 -3.75,-0.36 -3.75,-2.156 v -10.047 c 0,-3.594 -0.15,-4.5 -1.04,-6.203 -1.25,-2.391 -3.75,-3.844 -6.75,-3.844 -3.25,0 -5.71,1.5 -7.91,4.797 v -4.047 m 43.8,12.047 c 0.04,-7.5 -4.21,-12.797 -10.3,-12.797 -6.41,0 -11.2,5.547 -11.2,13.047 0,7.047 4.54,11.75 11.29,11.75 4.8,0 8.16,-2.344 10.21,-7.094 l -1.75,-0.953 c -2.05,3.844 -4.16,5.344 -7.5,5.344 -2.55,0 -4.41,-1.047 -5.71,-3.297 -0.89,-1.5 -1.29,-3.25 -1.25,-6 h 16.21 m -16.16,-2.157 c 0,-3.5 1.61,-8.5 5.81,-8.5 3,0 5,2.657 5,6.704 0,1.406 -0.45,1.796 -2.06,1.796 h -8.75 m 41.58,9.704 c -2.75,-0.047 -2.89,-0.094 -3.5,-0.454 -0.34,-0.187 -0.59,-0.75 -0.59,-1.296 0,-1.5 1.34,-2.141 4.7,-2.25 4.69,-0.094 5.44,-0.204 7.14,-0.954 3,-1.343 4.66,-3.937 4.66,-7.25 0,-2 -0.46,-3.25 -1.8,-4.89 0.84,-0.906 1.3,-1.203 1.69,-1.203 0.25,0 0.4,0.156 0.5,0.703 0.2,1.203 1,1.844 2.25,1.844 1.31,0 2.26,-1.047 2.26,-2.391 0,-1.703 -1.36,-2.906 -3.31,-2.906 -1.59,0 -2.5,0.5 -4.8,2.593 -2.09,-1.39 -3.7,-1.89 -6.2,-1.89 -5.95,0 -9.84,3.297 -9.84,8.297 0,2.953 1.59,5.453 4.2,6.703 -3.36,0.75 -4.75,2.25 -4.75,5 0,2.203 1,3.5 3.34,4.297 -3.09,1.156 -4.59,2.703 -4.59,4.75 0,1.5 1,2.906 2.59,3.75 1.96,1 4.35,1.406 7.96,1.406 8.34,0 12.5,-2.656 12.5,-7.906 0,-2.5 -1.16,-4.5 -2.96,-5.25 -1.34,-0.5 -2.95,-0.703 -6.34,-0.703 h -5.11 m 2.95,-18.204 c 3.1,0 4.85,2.157 4.85,6.063 0,3.891 -1.89,6.25 -5.05,6.25 -3.09,0 -5.05,-2.359 -5.05,-6.109 0,-3.954 1.91,-6.204 5.25,-6.204 m -0.45,22.5 c 4.16,0 4.45,0 5.16,0.11 2.04,0.203 3.25,1.297 3.25,2.89 0,2.86 -3.25,4.5 -8.8,4.5 -4.25,0 -6.61,-1.25 -6.61,-3.5 0,-1.64 0.91,-2.75 3.3,-4 h 3.7 m 25.69,-23.89 -8.86,0.547 v 2.156 h 2.04 c 1.91,0.047 2.16,0.344 2.16,2.5 v 14.297 c -0.05,0.75 -0.09,1.047 -0.3,1.297 -0.36,0.453 -1.36,0.656 -3.5,0.703 h -0.2 v 1.797 h 13.34 v -1.797 h -0.89 c -3.36,-0.11 -3.79,-0.36 -3.79,-2.156 v -2.704 c 0.04,-8.39 3.04,-14.796 6.93,-15 -0.68,0.813 -0.89,1.313 -0.89,2.25 0,1.61 1.14,2.75 2.75,2.75 1.85,0 3.05,-1.343 3.05,-3.343 0,-2.453 -1.7,-4.047 -4.34,-4.047 -3.16,0 -5.86,2.5 -7.5,6.953 v -6.203 m 15.42,17.75 c -1.75,0 -3.14,1.39 -3.14,3.094 0,1.75 1.39,3.156 3.09,3.156 1.75,0 3.16,-1.406 3.16,-3.156 0,-1.704 -1.41,-3.094 -3.11,-3.094 m 52.59,-30.563 h -29.95 l -0.75,13.907 h 2.14 c 0.7,-5.047 2.06,-11.547 8.45,-11.547 1.66,0 2.36,0.547 2.36,1.797 v 25.796 c 0,2.563 0,2.657 -0.31,3.11 -0.39,0.5 -1.34,0.703 -4.19,0.703 h -1.31 v 2.344 h 17.16 v -2.344 h -1.3 c -2.8,0 -3.75,-0.203 -4.16,-0.703 -0.29,-0.453 -0.29,-0.547 -0.29,-3.11 v -25.796 c 0,-1.25 0.7,-1.797 2.34,-1.797 6.41,0 7.7,6.547 8.41,11.547 h 2.15 l -0.75,-13.907 m 23.53,24.86 c 0.05,-7.5 -4.2,-12.797 -10.29,-12.797 -6.41,0 -11.21,5.547 -11.21,13.047 0,7.047 4.55,11.75 11.3,11.75 4.8,0 8.16,-2.344 10.2,-7.094 l -1.75,-0.953 c -2.04,3.844 -4.15,5.344 -7.5,5.344 -2.54,0 -4.4,-1.047 -5.7,-3.297 -0.89,-1.5 -1.3,-3.25 -1.25,-6 h 16.2 m -16.15,-2.157 c 0,-3.5 1.61,-8.5 5.81,-8.5 3,0 5,2.657 5,6.704 0,1.406 -0.45,1.796 -2.06,1.796 h -8.75 m 27.79,-9.89 -8.85,0.547 v 2.156 h 2.04 c 1.91,0.047 2.16,0.344 2.16,2.5 v 14.297 c -0.05,0.75 -0.1,1.047 -0.3,1.297 -0.36,0.453 -1.36,0.656 -3.5,0.703 h -0.2 v 1.797 h 13.34 v -1.797 h -0.89 c -3.36,-0.11 -3.8,-0.36 -3.8,-2.156 v -2.704 c 0.05,-8.39 3.05,-14.796 6.94,-15 -0.69,0.813 -0.89,1.313 -0.89,2.25 0,1.61 1.14,2.75 2.75,2.75 1.85,0 3.05,-1.343 3.05,-3.343 0,-2.453 -1.7,-4.047 -4.35,-4.047 -3.15,0 -5.85,2.5 -7.5,6.953 v -6.203 m 33.58,0 h -18.06 l -0.44,8.453 h 2 c 0.39,-4.453 2.35,-6.359 6.35,-6.313 h 4.34 l -13.64,19.36 v 1.797 h 19.45 l 0.35,-8.953 h -2 c -0.5,4.906 -2.46,6.859 -6.91,6.796 h -5.09 l 13.65,-19.343 v -1.797 m 5.35,29.453 c 3.04,-1.859 4.59,-3.156 6.29,-5.203 3.8,-4.453 5.85,-10.203 5.85,-16.297 0,-5.703 -1.8,-11.063 -5.14,-15.453 -1.91,-2.453 -3.61,-3.906 -7,-6 v 1.844 c 5,4.406 7,9.953 7,19.609 0,9.641 -2,15.25 -7,19.641 v 1.859"
     id="path43" />
  <path
     class="StaffText"
     d="m 813.632,1.656 -17,23.656 v 2.797 h 14.05 v 2.594 c 0,2.563 0,2.656 -0.3,3.109 -0.41,0.547 -1.36,0.704 -4.2,0.704 h -0.55 v 2.343 h 14.59 v -2.343 h -0.2 c -2.84,0 -3.8,-0.157 -4.2,-0.704 -0.3,-0.453 -0.3,-0.5 -0.3,-3.109 v -2.594 h 6.06 v -2.797 h -6.06 V 11.656 c 0,-6.25 0,-6.406 0.25,-10 h -2.14 m -2.95,23.656 h -11 l 11,-15.156 v 15.156 m 32.54,-5.796 c -0.61,5.843 -0.9,7.593 -1.79,10.093 -1.32,3.703 -4,5.844 -7.41,5.844 -1.66,0 -2.75,-0.5 -2.75,-1.25 0,-0.187 0.09,-0.437 0.3,-0.844 0.54,-1.156 0.65,-1.5 0.65,-2.203 0,-1.703 -1.25,-2.953 -2.95,-2.953 -1.91,0 -3.41,1.609 -3.41,3.609 0,3.297 3.5,5.797 8.11,5.797 10.5,0 14.71,-10.406 14.71,-19.453 0,-10.047 -4.75,-16.5 -12.25,-16.5 -6.46,0 -11.46,5.297 -11.46,12.047 0,6 4.14,10.359 9.89,10.359 3.57,0 5.66,-1.156 8.36,-4.546 m -6.61,-15.704 c 3.71,0 6.16,3.641 6.16,9.297 0,2.047 -0.41,3.907 -1.16,5.047 -1.14,1.797 -3.09,2.906 -5.25,2.906 -3.79,0 -5.93,-2.953 -5.93,-8.25 0,-3.953 1.39,-9 6.18,-9 m 32.91,13.547 c 3.7,-2 5.5,-4.5 5.5,-7.75 0,-4.609 -4.16,-7.953 -9.95,-7.953 -6.1,0 -10.55,4 -10.55,9.547 0,2.156 0.8,4.406 2.2,5.953 0.85,1 1.64,1.547 3.44,2.5 -4.09,1.61 -7.3,3.86 -7.3,8.797 0,2.75 1.36,5.453 3.46,7 1.95,1.406 4.65,2.156 7.84,2.156 3.7,0 6.81,-1 8.91,-2.797 2.09,-1.906 3.4,-4.953 3.4,-8 0,-2.859 -1.11,-5.406 -3.15,-7.203 -1,-0.906 -1.91,-1.406 -3.8,-2.25 m -5.36,-2 c -4.05,-1.453 -5.8,-3.343 -5.8,-6.25 0,-3.203 2.61,-5.297 6.55,-5.297 3.86,0 6.41,2.438 6.41,6.094 0,2.61 -1,4.297 -3.85,6.703 l -3.31,-1.25 m 2.91,6.953 c 3.79,1.344 5.4,3.297 5.4,6.594 0,4 -3.15,6.547 -8.06,6.547 -4.69,0 -7.39,-2.547 -7.39,-7 0,-3.75 1.55,-6 5.45,-7.797 l 4.6,1.656 m 44.78,7.204 c -1.6,3.593 -3.3,5.046 -5.89,5.046 -4,0 -6.5,-3.656 -6.5,-9.5 0,-6.109 2.45,-10.109 6.14,-10.109 1.5,0 2.81,0.703 2.81,1.5 0,0.156 -0.06,0.313 -0.31,0.609 -0.8,0.954 -1,1.454 -1,2.297 0,1.657 1.25,2.797 3,2.797 1.81,0 3.06,-1.39 3.06,-3.39 0,-3.407 -3.36,-5.954 -7.81,-5.954 -6.5,0 -11.14,5.297 -11.14,12.797 0,7.094 4.25,12 10.45,12 4.44,0 7,-2.047 9.14,-7.343 l -1.95,-0.75 m 12.64,-15.954 V 3.656 h -2.05 c -0.5,6.5 -2.7,9.797 -6.75,10.11 v 1.937 h 4.1 v 12.75 c 0,3.5 0.09,4.75 0.59,5.906 0.81,2.094 2.81,3.25 5.7,3.25 4.5,0 7.41,-3.406 7.41,-8.703 0,-0.297 0,-0.64 -0.05,-1.14 h -2.11 c -0.14,4.5 -1.45,6.796 -3.89,6.796 -1.15,0 -2.15,-0.609 -2.5,-1.453 -0.31,-0.703 -0.45,-1.953 -0.45,-3.75 V 15.703 h 7.34 v -2.141 h -7.34 m 37.58,-13.5 c -3.05,1.844 -4.61,3.141 -6.3,5.141 -3.81,4.5 -5.86,10.25 -5.86,16.313 0,5.687 1.8,11.046 5.16,15.5 1.89,2.39 3.59,3.89 7,6 v -1.86 c -5,-4.453 -7,-10 -7,-19.64 0,-9.657 2,-15.204 7,-19.61 V 0.062 m 12.59,13.5 -8.86,0.547 v 2.157 h 2.05 c 1.9,0.046 2.15,0.343 2.15,2.5 v 14.296 c -0.04,0.75 -0.09,1.047 -0.29,1.297 -0.36,0.453 -1.36,0.657 -3.5,0.703 h -0.21 v 1.797 h 13.35 v -1.797 h -0.89 c -3.36,-0.109 -3.8,-0.359 -3.8,-2.156 v -2.703 c 0.05,-8.391 3.05,-14.797 6.94,-15 -0.69,0.813 -0.89,1.313 -0.89,2.25 0,1.609 1.14,2.75 2.75,2.75 1.84,0 3.04,-1.344 3.04,-3.344 0,-2.453 -1.7,-4.047 -4.34,-4.047 -3.16,0 -5.86,2.5 -7.5,6.954 v -6.204 m 15.42,17.75 c -1.75,0 -3.14,1.391 -3.14,3.094 0,1.75 1.39,3.156 3.1,3.156 1.75,0 3.15,-1.406 3.15,-3.156 0,-1.703 -1.4,-3.094 -3.11,-3.094 m 56.1,6.547 c -0.25,3.203 -0.75,4.407 -2,4.407 -1.46,0 -2.66,-2.11 -4.36,-7.563 5.2,-4.297 7.9,-9.891 7.9,-16.297 0,-10.297 -7.65,-18.406 -17.29,-18.406 -10.16,0 -17.16,9.156 -17.16,18.859 0,10.5 7.7,18.75 17.5,18.75 1.7,0 2.8,-0.156 4.45,-0.75 0.21,6 2.71,9.453 6.8,9.453 4,0 6.45,-3.203 6.41,-8.453 h -2.25 m -7.66,-6.953 c -1.3,-4.703 -4.34,-7.297 -8.55,-7.297 -4.2,0 -7.2,2.797 -7.2,6.797 0,0.156 0,0.5 0.05,0.906 -2,-2.656 -2.96,-6.656 -2.96,-12.453 0,-7.156 1.66,-16.5 10.61,-16.5 3.8,0 7.05,1.844 8.6,4.953 1.45,2.797 2.06,6.25 2.06,11.391 0,5.859 -0.7,9.109 -2.61,12.203 m -3.5,3.25 c -1.5,0.797 -2.75,1.11 -4.7,1.11 -3.3,0 -5.25,-1.61 -5.25,-4.36 0,-2.953 1.9,-4.953 4.65,-4.953 3.55,0 5.3,2.75 5.3,8.203 m 35.72,3.047 9.11,-0.344 v -2.156 h -1.25 c -2.91,-0.094 -3.16,-0.391 -3.16,-3.641 v -17.5 l -9.39,0.547 v 2.157 h 2.55 c 1.89,0.046 2.14,0.343 2.14,2.5 v 6.14 c 0,4.36 -1.05,9.656 -6.55,9.656 -1.55,0 -2.84,-0.546 -3.5,-1.546 -0.64,-0.954 -0.75,-1.454 -0.75,-4.204 v -15.25 l -8.75,0.547 v 2.157 h 1.91 c 1.89,0.046 2.14,0.343 2.14,2.5 v 10.796 c 0,2.547 0.2,3.704 0.95,4.844 1.36,2.047 3.75,3.203 6.75,3.203 3.3,0 5.61,-1.343 7.8,-4.547 v 4.141 m 32.55,-16.437 c 0,-3.157 -0.55,-4.75 -2,-5.954 -1.65,-1.359 -4.1,-2 -7.3,-2 -5.64,0 -9.75,2.641 -9.75,6.297 0,1.844 1.15,3.047 2.9,3.047 1.6,0 2.71,-1.047 2.71,-2.547 0,-0.656 -0.25,-1.343 -0.75,-2.047 -0.31,-0.359 -0.36,-0.453 -0.36,-0.703 0,-1 2,-1.906 4.4,-1.906 1.6,0 3.35,0.5 4.15,1.25 0.95,0.813 1.31,2 1.31,4.25 v 1.953 c -5.21,0.906 -6.86,1.297 -9.31,2.25 -4.35,1.61 -6.4,3.906 -6.4,7.11 0,3.593 2.8,5.843 7.25,5.843 3.46,0 6.55,-1.406 8.71,-3.953 0.79,2.547 2.04,3.547 4.39,3.547 2.25,0 4.61,-1.437 4.61,-2.891 0,-0.359 -0.21,-0.609 -0.5,-0.609 -0.21,0 -0.41,0.063 -0.75,0.203 -0.71,0.297 -1,0.36 -1.41,0.36 -1.4,0 -1.9,-0.907 -1.9,-3.454 V 20.766 m -4.69,6.093 c 0,3 -0.16,3.703 -1,5 -1.25,1.844 -3.5,3.094 -5.71,3.094 -2.29,0 -3.95,-1.641 -3.95,-3.891 0,-2.109 1.05,-3.609 3.25,-4.656 1.55,-0.703 3.5,-1.203 7.41,-1.844 v 2.297 m 19.79,-13.297 -8.85,0.547 v 2.157 h 2.04 c 1.91,0.046 2.16,0.343 2.16,2.5 v 14.296 c -0.05,0.75 -0.1,1.047 -0.3,1.297 -0.36,0.453 -1.36,0.657 -3.5,0.703 h -0.2 v 1.797 h 13.34 v -1.797 h -0.89 c -3.36,-0.109 -3.8,-0.359 -3.8,-2.156 v -2.703 c 0.05,-8.391 3.05,-14.797 6.94,-15 -0.69,0.813 -0.89,1.313 -0.89,2.25 0,1.609 1.14,2.75 2.75,2.75 1.85,0 3.05,-1.344 3.05,-3.344 0,-2.453 -1.7,-4.047 -4.35,-4.047 -3.15,0 -5.85,2.5 -7.5,6.954 v -6.204 m 22.93,0 V 3.656 h -2.05 c -0.5,6.5 -2.7,9.797 -6.75,10.11 v 1.937 h 4.09 v 12.75 c 0,3.5 0.1,4.75 0.6,5.906 0.81,2.094 2.81,3.25 5.7,3.25 4.5,0 7.41,-3.406 7.41,-8.703 0,-0.297 0,-0.64 -0.05,-1.14 h -2.11 c -0.14,4.5 -1.45,6.796 -3.89,6.796 -1.16,0 -2.16,-0.609 -2.5,-1.453 -0.31,-0.703 -0.45,-1.953 -0.45,-3.75 V 15.703 h 7.34 v -2.141 h -7.34 m 33.32,12.047 c 0.05,-7.5 -4.2,-12.797 -10.29,-12.797 -6.41,0 -11.21,5.547 -11.21,13.047 0,7.047 4.55,11.75 11.3,11.75 4.8,0 8.16,-2.343 10.2,-7.093 l -1.75,-0.954 c -2.04,3.844 -4.15,5.344 -7.5,5.344 -2.54,0 -4.4,-1.047 -5.7,-3.297 -0.89,-1.5 -1.3,-3.25 -1.25,-6 h 16.2 m -16.15,-2.156 c 0,-3.5 1.61,-8.5 5.81,-8.5 3,0 5,2.656 5,6.703 0,1.406 -0.45,1.797 -2.06,1.797 h -8.75 m 20.59,19.563 c 3.05,-1.86 4.6,-3.157 6.3,-5.204 3.8,-4.453 5.84,-10.203 5.84,-16.296 0,-5.704 -1.79,-11.063 -5.14,-15.454 -1.9,-2.453 -3.61,-3.906 -7,-6 v 1.844 c 5,4.406 7,9.953 7,19.61 0,9.64 -2,15.25 -7,19.64 v 1.86"
     id="path44" />
  <path
     class="StaffText"
     fill="#1c71d8"
     d="m 1317.632,671.015 c 4.55,-1.64 6.66,-4.19 6.66,-8.2 0,-5.25 -4,-8.6 -10.2,-8.6 -5.85,0 -10.3,3.45 -10.3,8 0,2.05 1.34,3.5 3.3,3.5 1.75,0 2.95,-1.2 2.95,-3 0,-1.09 -0.41,-1.75 -1.55,-2.55 -0.5,-0.35 -0.65,-0.54 -0.65,-0.9 0,-1.39 2.9,-2.89 5.75,-2.89 3.59,0 5.5,2.25 5.5,6.5 0,4.64 -1.91,7.09 -5.46,7.09 -0.45,0 -1.29,-0.05 -2.04,-0.09 -0.41,-0.05 -0.8,-0.05 -1.1,-0.05 -1.06,0 -1.61,0.44 -1.61,1.34 0,0.85 0.5,1.25 1.61,1.25 0.3,0 0.69,0 1.14,-0.04 1,-0.05 1.8,-0.05 2.36,-0.05 3.69,0 5.69,2.64 5.69,7.59 0,5.21 -2.5,8.1 -7,8.1 -3.14,0 -6.55,-1.69 -6.55,-3.25 0,-0.44 0.11,-0.55 1.05,-1.1 1.41,-0.84 1.95,-1.7 1.95,-2.95 0,-1.8 -1.34,-3.14 -3.14,-3.14 -2.15,0 -3.56,1.75 -3.56,4.39 0,4.86 4.45,8.2 10.86,8.2 7.25,0 11.95,-4 11.95,-10.15 0,-4.69 -2.4,-7.55 -7.61,-9 m 26.6,-16.8 c -1.69,2.05 -6.3,3.6 -10.89,3.7 v 2.15 h 4.39 c 2.9,0.06 3.2,0.35 3.11,3.15 v 20.05 c 0,2.56 0,2.65 -0.3,3.11 -0.41,0.5 -1.36,0.7 -4.16,0.7 h -3.25 v 2.34 h 19.8 v -2.34 h -2.75 c -2.8,0 -3.75,-0.2 -4.14,-0.7 -0.36,-0.46 -0.36,-0.5 -0.36,-3.11 v -20.64 c 0,-2.81 0.11,-5.16 0.36,-8.41 h -1.81 m 30.11,0 -17,23.66 v 2.79 h 14.04 v 2.6 c 0,2.56 0,2.65 -0.29,3.11 -0.41,0.54 -1.36,0.7 -4.21,0.7 h -0.54 v 2.34 h 14.59 v -2.34 h -0.2 c -2.85,0 -3.8,-0.16 -4.2,-0.7 -0.3,-0.46 -0.3,-0.5 -0.3,-3.11 v -2.6 h 6.06 v -2.79 h -6.06 v -13.66 c 0,-6.25 0,-6.4 0.25,-10 h -2.14 m -2.96,23.66 h -11 l 11,-15.16 v 15.16 m 45.58,4.2 c -1.59,3.59 -3.29,5.05 -5.89,5.05 -4,0 -6.5,-3.66 -6.5,-9.5 0,-6.11 2.46,-10.11 6.14,-10.11 1.5,0 2.82,0.7 2.82,1.5 0,0.15 -0.07,0.31 -0.32,0.61 -0.79,0.95 -1,1.45 -1,2.29 0,1.66 1.25,2.8 3,2.8 1.82,0 3.07,-1.39 3.07,-3.39 0,-3.41 -3.36,-5.95 -7.82,-5.95 -6.5,0 -11.14,5.29 -11.14,12.79 0,7.1 4.25,12 10.46,12 4.43,0 7,-2.04 9.14,-7.34 l -1.96,-0.75 m 12.64,-15.95 v -9.91 h -2.04 c -0.5,6.5 -2.71,9.8 -6.75,10.11 v 1.94 h 4.09 v 12.75 c 0,3.5 0.09,4.75 0.59,5.9 0.82,2.1 2.82,3.25 5.71,3.25 4.5,0 7.4,-3.4 7.4,-8.7 0,-0.3 0,-0.64 -0.04,-1.14 h -2.11 c -0.14,4.5 -1.46,6.8 -3.89,6.8 -1.16,0 -2.16,-0.61 -2.5,-1.46 -0.32,-0.7 -0.46,-1.95 -0.46,-3.75 v -13.65 h 7.35 v -2.14 h -7.35 m 37.58,-13.5 c -3.05,1.84 -4.61,3.14 -6.3,5.14 -3.81,4.5 -5.85,10.25 -5.85,16.31 0,5.69 1.79,11.05 5.15,15.5 1.89,2.39 3.6,3.89 7,6 v -1.86 c -5,-4.45 -7,-10 -7,-19.64 0,-9.66 2,-15.2 7,-19.61 v -1.84 m 12.6,13.5 -8.86,0.54 v 2.16 h 2.04 c 1.91,0.05 2.16,0.34 2.16,2.5 v 14.3 c -0.05,0.75 -0.09,1.04 -0.3,1.29 -0.36,0.46 -1.36,0.66 -3.5,0.71 h -0.2 v 1.79 h 13.34 v -1.79 h -0.89 c -3.36,-0.11 -3.79,-0.36 -3.79,-2.16 v -2.7 c 0.04,-8.39 3.04,-14.8 6.93,-15 -0.68,0.81 -0.89,1.31 -0.89,2.25 0,1.61 1.14,2.75 2.75,2.75 1.85,0 3.05,-1.35 3.05,-3.35 0,-2.45 -1.7,-4.04 -4.34,-4.04 -3.16,0 -5.86,2.5 -7.5,6.95 v -6.2 m 15.42,17.75 c -1.75,0 -3.14,1.39 -3.14,3.09 0,1.75 1.39,3.16 3.09,3.16 1.75,0 3.16,-1.41 3.16,-3.16 0,-1.7 -1.41,-3.09 -3.11,-3.09 m 30.89,-6.55 v -24.76 l -9.25,0.56 v 2.14 h 2.39 c 1.9,0.05 2.15,0.36 2.15,2.5 v 27.9 c -0.04,0.71 -0.09,1 -0.29,1.25 -0.36,0.46 -1.3,0.66 -3.46,0.71 h -0.2 v 1.79 h 12.66 v -1.79 h -0.21 c -3.34,-0.11 -3.79,-0.36 -3.79,-2.16 v -5.05 l 3.04,-2.9 5.96,8.36 c 0.25,0.39 0.34,0.64 0.34,0.84 0,0.7 -0.55,0.91 -2.2,0.91 h -0.94 v 1.79 h 13.2 v -1.79 c -2.81,-0.25 -3.81,-0.86 -5.86,-3.46 l -7.09,-9.7 2.25,-2.2 c 2.94,-2.85 5.05,-3.94 8.45,-4.35 v -1.79 h -13.15 v 1.79 h 1.54 c 1.6,0 2.35,0.3 2.35,0.96 0,0.54 -0.35,1.14 -1.14,1.95 l -6.75,6.5 m 30.69,-24.76 -9.25,0.56 v 2.14 h 2.45 c 1.84,0.05 2.09,0.36 2.09,2.5 v 27.86 c -0.04,0.75 -0.09,1.04 -0.29,1.29 -0.36,0.46 -1.3,0.66 -3.46,0.71 h -0.34 v 1.79 h 12.94 v -1.79 h -0.35 c -3.34,-0.11 -3.79,-0.36 -3.79,-2.16 v -32.9 m 11.76,31.31 c -1.75,0 -3.14,1.39 -3.14,3.09 0,1.75 1.39,3.16 3.09,3.16 1.75,0 3.16,-1.41 3.16,-3.16 0,-1.7 -1.41,-3.09 -3.11,-3.09 m 52.59,-30.56 h -29.95 l -0.75,13.9 h 2.14 c 0.71,-5.05 2.06,-11.55 8.46,-11.55 1.65,0 2.35,0.55 2.35,1.8 v 25.8 c 0,2.56 0,2.65 -0.31,3.11 -0.39,0.5 -1.34,0.7 -4.19,0.7 h -1.31 v 2.34 h 17.16 v -2.34 h -1.3 c -2.8,0 -3.75,-0.2 -4.15,-0.7 -0.3,-0.46 -0.3,-0.55 -0.3,-3.11 v -25.8 c 0,-1.25 0.7,-1.8 2.34,-1.8 6.41,0 7.71,6.55 8.41,11.55 h 2.15 l -0.75,-13.9 m 23.54,24.85 c 0.04,-7.5 -4.21,-12.79 -10.3,-12.79 -6.41,0 -11.2,5.54 -11.2,13.04 0,7.05 4.54,11.75 11.29,11.75 4.8,0 8.16,-2.34 10.21,-7.09 l -1.75,-0.95 c -2.05,3.84 -4.16,5.34 -7.5,5.34 -2.55,0 -4.41,-1.05 -5.71,-3.3 -0.89,-1.5 -1.29,-3.25 -1.25,-6 h 16.21 m -16.16,-2.15 c 0,-3.5 1.61,-8.5 5.81,-8.5 3,0 5,2.65 5,6.7 0,1.41 -0.45,1.8 -2.06,1.8 h -8.75 m 27.8,-9.89 -8.86,0.54 v 2.16 h 2.04 c 1.91,0.05 2.16,0.34 2.16,2.5 v 14.3 c -0.05,0.75 -0.09,1.04 -0.3,1.29 -0.36,0.46 -1.36,0.66 -3.5,0.71 h -0.2 v 1.79 h 13.34 v -1.79 h -0.89 c -3.36,-0.11 -3.79,-0.36 -3.79,-2.16 v -2.7 c 0.04,-8.39 3.04,-14.8 6.93,-15 -0.68,0.81 -0.89,1.31 -0.89,2.25 0,1.61 1.14,2.75 2.75,2.75 1.85,0 3.05,-1.35 3.05,-3.35 0,-2.45 -1.7,-4.04 -4.34,-4.04 -3.16,0 -5.86,2.5 -7.5,6.95 v -6.2 m 33.57,0 h -18.06 l -0.44,8.45 h 2 c 0.4,-4.45 2.35,-6.36 6.35,-6.31 h 4.34 l -13.64,19.36 v 1.79 h 19.45 l 0.35,-8.95 h -2 c -0.5,4.91 -2.45,6.86 -6.91,6.8 h -5.09 l 13.65,-19.35 v -1.79 m 7.04,32.5 c 4.5,-3.11 6.56,-6.16 6.56,-9.66 0,-3 -1.66,-4.95 -4.11,-4.95 -1.84,0 -3.25,1.31 -3.25,3 0,1.81 1.36,2.95 3.45,2.95 0.25,0 0.6,0 0.75,-0.05 h 0.16 c 0.25,0 0.34,0.16 0.34,0.46 0,2.09 -1.7,4.45 -5.04,6.79 l 1.14,1.46 m 38.18,-15.25 -5.7,-13.21 c -0.14,-0.4 -0.25,-0.79 -0.25,-1.09 0,-0.86 0.66,-1.16 2.7,-1.16 h 0.71 v -1.79 h -11.8 v 1.79 h 0.39 c 1.91,0 2.61,0.5 3.3,2.16 l 8.61,20.09 h 1.75 l 7.09,-17.54 c 1.41,-3.41 2.61,-4.55 4.66,-4.71 h 0.2 v -1.79 h -10 v 1.79 h 0.69 c 1.75,0 2.7,0.6 2.7,1.75 0,0.6 -0.14,1.35 -0.45,2.1 l -4.6,11.61 m 21.03,2.34 c -2.75,-0.05 -2.89,-0.09 -3.5,-0.45 -0.34,-0.19 -0.59,-0.75 -0.59,-1.3 0,-1.5 1.34,-2.14 4.7,-2.25 4.69,-0.09 5.44,-0.2 7.14,-0.95 3,-1.35 4.66,-3.94 4.66,-7.25 0,-2 -0.45,-3.25 -1.8,-4.89 0.85,-0.91 1.3,-1.21 1.69,-1.21 0.25,0 0.41,0.16 0.5,0.71 0.2,1.2 1,1.84 2.25,1.84 1.31,0 2.27,-1.05 2.27,-2.39 0,-1.7 -1.36,-2.91 -3.32,-2.91 -1.59,0 -2.5,0.5 -4.79,2.6 -2.1,-1.39 -3.71,-1.89 -6.21,-1.89 -5.95,0 -9.84,3.29 -9.84,8.29 0,2.96 1.59,5.46 4.2,6.71 -3.36,0.75 -4.75,2.25 -4.75,5 0,2.2 1,3.5 3.35,4.29 -3.1,1.16 -4.6,2.71 -4.6,4.75 0,1.5 1,2.91 2.6,3.75 1.95,1 4.34,1.41 7.95,1.41 8.34,0 12.5,-2.66 12.5,-7.91 0,-2.5 -1.16,-4.5 -2.95,-5.25 -1.35,-0.5 -2.96,-0.7 -6.35,-0.7 h -5.11 m 2.96,-18.2 c 3.09,0 4.84,2.15 4.84,6.06 0,3.89 -1.89,6.25 -5.05,6.25 -3.09,0 -5.04,-2.36 -5.04,-6.11 0,-3.95 1.9,-6.2 5.25,-6.2 m -0.46,22.5 c 4.16,0 4.46,0 5.16,0.11 2.05,0.2 3.25,1.29 3.25,2.89 0,2.86 -3.25,4.5 -8.8,4.5 -4.25,0 -6.61,-1.25 -6.61,-3.5 0,-1.64 0.91,-2.75 3.3,-4 h 3.7 m 24.19,-37.45 -9.25,0.56 v 2.14 h 2.46 c 1.84,0.05 2.09,0.36 2.09,2.5 v 27.86 c -0.05,0.75 -0.09,1.04 -0.3,1.29 -0.36,0.46 -1.29,0.66 -3.45,0.71 h -0.34 v 1.79 h 12.93 v -1.79 h -0.34 c -3.34,-0.11 -3.8,-0.36 -3.8,-2.16 v -32.9 m 11.77,31.31 c -1.75,0 -3.14,1.39 -3.14,3.09 0,1.75 1.39,3.16 3.09,3.16 1.75,0 3.16,-1.41 3.16,-3.16 0,-1.7 -1.41,-3.09 -3.11,-3.09 m 22.39,5.54 h 16.8 c 4.45,0 7.85,-0.7 10.5,-2.2 5.04,-2.84 7.85,-8.55 7.85,-16.05 0,-6.9 -2.5,-12.29 -7.1,-15.29 -2.75,-1.75 -6.46,-2.56 -12.16,-2.56 h -15.89 v 2.35 h 0.95 c 2.8,0.05 3.75,0.21 4.14,0.71 0.3,0.44 0.3,0.54 0.3,3.09 v 23.8 c 0,2.56 0,2.65 -0.3,3.11 -0.39,0.5 -1.34,0.64 -4.14,0.7 h -0.95 v 2.34 m 13.84,-2.34 c -2.54,0 -2.84,-0.31 -2.84,-2.75 v -25.86 c 0,-2.45 0.34,-2.8 2.84,-2.8 h 2.61 c 8.55,0 12.1,4.65 12.1,15.71 0,11.2 -3.21,15.7 -11.3,15.7 h -3.41 m 31.55,-33.41 c -1.61,0 -2.91,1.3 -2.91,2.9 0,1.6 1.3,2.9 2.86,2.9 1.64,0 2.94,-1.3 2.94,-2.9 0,-1.6 -1.3,-2.9 -2.89,-2.9 m 2.34,12.46 -9.39,0.54 v 2.16 h 2.55 c 1.89,0.05 2.14,0.34 2.14,2.5 v 14.3 c -0.05,0.75 -0.09,1.04 -0.3,1.29 -0.34,0.46 -1.29,0.66 -3.45,0.71 h -0.34 v 1.79 h 12.95 v -1.79 h -0.36 c -3.34,-0.11 -3.8,-0.36 -3.8,-2.16 v -19.34 m 28.69,12.04 c 0.05,-7.5 -4.2,-12.79 -10.3,-12.79 -6.4,0 -11.2,5.54 -11.2,13.04 0,7.05 4.55,11.75 11.3,11.75 4.79,0 8.15,-2.34 10.2,-7.09 l -1.75,-0.95 c -2.05,3.84 -4.16,5.34 -7.5,5.34 -2.55,0 -4.41,-1.05 -5.7,-3.3 -0.89,-1.5 -1.3,-3.25 -1.25,-6 h 16.2 m -16.16,-2.15 c 0,-3.5 1.61,-8.5 5.82,-8.5 3,0 5,2.65 5,6.7 0,1.41 -0.46,1.8 -2.07,1.8 h -8.75 m 63.44,-22.7 h -29.95 l -0.75,13.9 h 2.14 c 0.7,-5.05 2.06,-11.55 8.45,-11.55 1.66,0 2.36,0.55 2.36,1.8 v 25.8 c 0,2.56 0,2.65 -0.31,3.11 -0.39,0.5 -1.34,0.7 -4.19,0.7 h -1.31 v 2.34 h 17.16 v -2.34 h -1.3 c -2.8,0 -3.75,-0.2 -4.16,-0.7 -0.29,-0.46 -0.29,-0.55 -0.29,-3.11 v -25.8 c 0,-1.25 0.7,-1.8 2.34,-1.8 6.41,0 7.7,6.55 8.41,11.55 h 2.15 l -0.75,-13.9 m 23.53,24.85 c 0.05,-7.5 -4.2,-12.79 -10.29,-12.79 -6.41,0 -11.21,5.54 -11.21,13.04 0,7.05 4.55,11.75 11.3,11.75 4.8,0 8.16,-2.34 10.2,-7.09 l -1.75,-0.95 c -2.04,3.84 -4.15,5.34 -7.5,5.34 -2.54,0 -4.4,-1.05 -5.7,-3.3 -0.89,-1.5 -1.3,-3.25 -1.25,-6 h 16.2 m -16.15,-2.15 c 0,-3.5 1.61,-8.5 5.81,-8.5 3,0 5,2.65 5,6.7 0,1.41 -0.45,1.8 -2.06,1.8 h -8.75 m 25.84,-22.35 c -1.61,0 -2.91,1.3 -2.91,2.9 0,1.6 1.3,2.9 2.86,2.9 1.64,0 2.94,-1.3 2.94,-2.9 0,-1.6 -1.3,-2.9 -2.89,-2.9 m 2.34,12.46 -9.39,0.54 v 2.16 h 2.55 c 1.89,0.05 2.14,0.34 2.14,2.5 v 14.3 c -0.05,0.75 -0.09,1.04 -0.3,1.29 -0.34,0.46 -1.29,0.66 -3.45,0.71 h -0.34 v 1.79 h 12.95 v -1.79 h -0.36 c -3.34,-0.11 -3.8,-0.36 -3.8,-2.16 v -19.34 m 15.64,-13.56 -9.25,0.56 v 2.14 h 2.46 c 1.84,0.05 2.09,0.36 2.09,2.5 v 27.86 c -0.05,0.75 -0.09,1.04 -0.3,1.29 -0.35,0.46 -1.29,0.66 -3.45,0.71 h -0.34 v 1.79 h 12.94 v -1.79 h -0.35 c -3.34,-0.11 -3.8,-0.36 -3.8,-2.16 v -32.9 m 15.24,13.56 v -9.91 h -2.05 c -0.5,6.5 -2.7,9.8 -6.75,10.11 v 1.94 h 4.1 v 12.75 c 0,3.5 0.09,4.75 0.59,5.9 0.81,2.1 2.81,3.25 5.7,3.25 4.5,0 7.41,-3.4 7.41,-8.7 0,-0.3 0,-0.64 -0.05,-1.14 h -2.11 c -0.14,4.5 -1.45,6.8 -3.89,6.8 -1.15,0 -2.15,-0.61 -2.5,-1.46 -0.31,-0.7 -0.45,-1.95 -0.45,-3.75 v -13.65 h 7.34 v -2.14 h -7.34 m 22.62,-0.75 c -6.14,0 -10.89,5.45 -10.89,12.45 0,6.84 4.8,12.34 10.8,12.34 6,0 10.8,-5.5 10.8,-12.4 0,-6.85 -4.8,-12.39 -10.71,-12.39 m 0,2.14 c 3.5,0 5.46,3.65 5.46,10.25 0,6.65 -1.96,10.25 -5.55,10.25 -3.59,0 -5.55,-3.6 -5.55,-10.19 0,-6.81 1.89,-10.31 5.64,-10.31 m 22.39,-1.39 -8.65,0.54 v 2.16 h 1.81 c 1.89,0.05 2.14,0.34 2.14,2.5 v 14.3 c -0.05,0.75 -0.09,1.04 -0.3,1.29 -0.34,0.46 -1.29,0.66 -3.45,0.71 h -0.2 v 1.79 h 12.65 v -1.79 h -0.2 c -3.34,-0.11 -3.8,-0.36 -3.8,-2.16 v -7.39 c 0,-2.45 0.35,-4.7 0.91,-5.86 1.05,-2.25 3.3,-3.8 5.44,-3.8 1.31,0 2.81,0.71 3.56,1.75 0.75,1.1 1.09,2.6 1.09,5 v 10.46 c -0.04,0.75 -0.09,1.04 -0.29,1.29 -0.36,0.46 -1.36,0.66 -3.5,0.71 h -0.21 v 1.79 h 12.66 v -1.79 h -0.2 c -3.3,-0.11 -3.75,-0.36 -3.75,-2.16 v -10.05 c 0,-3.59 -0.16,-4.5 -1.05,-6.2 -1.25,-2.39 -3.75,-3.84 -6.75,-3.84 -3.25,0 -5.7,1.5 -7.91,4.79 v -4.04 m 30.46,0 -8.86,0.54 v 2.16 h 2.05 c 1.9,0.05 2.15,0.34 2.15,2.5 v 14.3 c -0.05,0.75 -0.09,1.04 -0.3,1.29 -0.35,0.46 -1.35,0.66 -3.5,0.71 h -0.2 v 1.79 h 13.35 v -1.79 h -0.9 c -3.35,-0.11 -3.79,-0.36 -3.79,-2.16 v -2.7 c 0.04,-8.39 3.04,-14.8 6.94,-15 -0.69,0.81 -0.9,1.31 -0.9,2.25 0,1.61 1.15,2.75 2.75,2.75 1.85,0 3.05,-1.35 3.05,-3.35 0,-2.45 -1.7,-4.04 -4.34,-4.04 -3.16,0 -5.86,2.5 -7.5,6.95 v -6.2 m 35.22,12.04 c 0.04,-7.5 -4.21,-12.79 -10.3,-12.79 -6.41,0 -11.2,5.54 -11.2,13.04 0,7.05 4.54,11.75 11.29,11.75 4.8,0 8.16,-2.34 10.21,-7.09 l -1.75,-0.95 c -2.05,3.84 -4.16,5.34 -7.5,5.34 -2.55,0 -4.41,-1.05 -5.71,-3.3 -0.89,-1.5 -1.29,-3.25 -1.25,-6 h 16.21 m -16.16,-2.15 c 0,-3.5 1.61,-8.5 5.81,-8.5 3,0 5,2.65 5,6.7 0,1.41 -0.45,1.8 -2.06,1.8 h -8.75 m 25.84,-22.35 c -1.61,0 -2.9,1.3 -2.9,2.9 0,1.6 1.29,2.9 2.86,2.9 1.64,0 2.93,-1.3 2.93,-2.9 0,-1.6 -1.29,-2.9 -2.89,-2.9 m 2.35,12.46 -9.39,0.54 v 2.16 h 2.54 c 1.89,0.05 2.14,0.34 2.14,2.5 v 14.3 c -0.04,0.75 -0.09,1.04 -0.29,1.29 -0.35,0.46 -1.3,0.66 -3.46,0.71 h -0.34 v 1.79 h 12.95 v -1.79 h -0.36 c -3.34,-0.11 -3.79,-0.36 -3.79,-2.16 v -19.34 m 15.44,-13.56 -9.25,0.56 v 2.14 h 2.4 c 1.89,0.05 2.14,0.36 2.14,2.5 v 27.9 c -0.04,0.71 -0.09,1 -0.29,1.25 -0.35,0.46 -1.3,0.66 -3.46,0.71 h -0.2 v 1.79 h 12.66 v -1.79 h -0.21 c -3.34,-0.11 -3.79,-0.36 -3.79,-2.16 v -7.39 c 0,-2.45 0.34,-4.7 0.9,-5.86 1.1,-2.25 3.3,-3.8 5.44,-3.8 1.31,0 2.81,0.75 3.5,1.75 0.81,1.1 1.16,2.6 1.16,5.05 v 10.45 c -0.05,0.71 -0.1,1 -0.3,1.25 -0.36,0.46 -1.36,0.66 -3.5,0.71 h -0.2 v 1.79 h 12.65 v -1.79 h -0.2 c -3.3,-0.11 -3.75,-0.36 -3.75,-2.16 v -10.05 c 0,-3.59 -0.16,-4.5 -1.05,-6.2 -1.25,-2.45 -3.75,-3.84 -6.75,-3.84 -3.25,0 -5.65,1.45 -7.9,4.79 v -17.6 m 43.79,25.6 c 0.05,-7.5 -4.2,-12.79 -10.29,-12.79 -6.41,0 -11.21,5.54 -11.21,13.04 0,7.05 4.55,11.75 11.3,11.75 4.8,0 8.16,-2.34 10.2,-7.09 l -1.75,-0.95 c -2.04,3.84 -4.15,5.34 -7.5,5.34 -2.54,0 -4.4,-1.05 -5.7,-3.3 -0.89,-1.5 -1.3,-3.25 -1.25,-6 h 16.2 m -16.15,-2.15 c 0,-3.5 1.61,-8.5 5.81,-8.5 3,0 5,2.65 5,6.7 0,1.41 -0.45,1.8 -2.06,1.8 h -8.75 m 41.82,-18.8 c -1.34,0 -2.5,1.16 -2.5,2.5 0,1.35 1.16,2.5 2.46,2.5 1.45,0 2.54,-1.09 2.54,-2.5 0,-1.34 -1.14,-2.5 -2.5,-2.5 m 9.96,0 c -1.35,0 -2.5,1.16 -2.5,2.5 0,1.35 1.15,2.5 2.45,2.5 1.45,0 2.55,-1.09 2.55,-2.5 0,-1.4 -1.1,-2.5 -2.5,-2.5 m 0.59,32.55 9.11,-0.35 v -2.15 h -1.25 c -2.91,-0.1 -3.16,-0.39 -3.16,-3.64 v -17.5 l -9.39,0.54 v 2.16 h 2.55 c 1.89,0.05 2.14,0.34 2.14,2.5 v 6.14 c 0,4.36 -1.05,9.66 -6.55,9.66 -1.54,0 -2.84,-0.55 -3.5,-1.55 -0.64,-0.95 -0.75,-1.45 -0.75,-4.2 v -15.25 l -8.75,0.54 v 2.16 h 1.91 c 1.89,0.05 2.14,0.34 2.14,2.5 v 10.8 c 0,2.54 0.2,3.7 0.95,4.84 1.36,2.05 3.75,3.2 6.75,3.2 3.3,0 5.61,-1.34 7.8,-4.54 v 4.14 m 18.95,-37.2 -8.59,0.56 v 2.14 h 1.75 c 1.89,0.05 2.14,0.36 2.14,2.5 v 19.45 c 0,6.95 -0.3,10.75 -0.89,12.91 h 1.89 l 2.45,-3.91 c 2.05,2.7 4.41,3.95 7.5,3.95 6.21,0 10.75,-5.29 10.75,-12.54 0,-7.21 -4.2,-12.25 -10.2,-12.25 -3.05,0 -4.89,1.04 -6.8,3.89 v -16.7 m 5.91,15.35 c 3.75,0 5.84,3.66 5.84,10.21 0,6.34 -2.04,9.89 -5.7,9.89 -3.95,0 -6.3,-3.64 -6.3,-9.8 0,-6.7 2.16,-10.3 6.16,-10.3 m 36.14,10.25 c 0.05,-7.5 -4.2,-12.79 -10.3,-12.79 -6.4,0 -11.2,5.54 -11.2,13.04 0,7.05 4.55,11.75 11.3,11.75 4.79,0 8.15,-2.34 10.2,-7.09 l -1.75,-0.95 c -2.05,3.84 -4.16,5.34 -7.5,5.34 -2.55,0 -4.41,-1.05 -5.7,-3.3 -0.89,-1.5 -1.3,-3.25 -1.25,-6 h 16.2 m -16.16,-2.15 c 0,-3.5 1.61,-8.5 5.82,-8.5 3,0 5,2.65 5,6.7 0,1.41 -0.46,1.8 -2.07,1.8 h -8.75 m 27.8,-9.89 -8.86,0.54 v 2.16 h 2.05 c 1.91,0.05 2.16,0.34 2.16,2.5 v 14.3 c -0.05,0.75 -0.1,1.04 -0.3,1.29 -0.36,0.46 -1.36,0.66 -3.5,0.71 h -0.2 v 1.79 h 13.34 v -1.79 h -0.89 c -3.36,-0.11 -3.8,-0.36 -3.8,-2.16 v -2.7 c 0.05,-8.39 3.05,-14.8 6.94,-15 -0.69,0.81 -0.89,1.31 -0.89,2.25 0,1.61 1.14,2.75 2.75,2.75 1.84,0 3.05,-1.35 3.05,-3.35 0,-2.45 -1.71,-4.04 -4.35,-4.04 -3.15,0 -5.86,2.5 -7.5,6.95 v -6.2 m 38.67,6.95 v -13.61 c 0,-2.55 0,-2.65 0.35,-3.09 0.36,-0.5 1.31,-0.66 4.15,-0.71 h 0.96 v -2.35 h -16.46 v 2.35 h 0.91 c 2.84,0.05 3.8,0.21 4.19,0.71 0.31,0.44 0.31,0.59 0.31,3.09 v 23.8 c 0,2.5 0,2.65 -0.31,3.11 -0.39,0.5 -1.35,0.7 -4.19,0.7 h -0.91 v 2.34 h 16.46 v -2.34 h -0.96 c -2.84,-0.06 -3.75,-0.2 -4.15,-0.7 -0.35,-0.46 -0.35,-0.55 -0.35,-3.11 v -6.35 l 5.8,-5.84 8.7,12.75 c 0.8,1.19 1,1.59 1,2.09 0,0.85 -0.95,1.16 -3.4,1.16 h -1.55 v 2.34 h 17.11 v -2.34 h -0.95 c -2.85,-0.06 -3.41,-0.31 -4.91,-2.5 l -12.09,-17.45 7.45,-7.46 c 2.39,-2.54 5.45,-4 8.45,-4 v -2.35 h -15.4 v 2.35 h 1.25 c 2.29,0 3.25,0.46 3.25,1.5 0,0.71 -1,2.1 -2.46,3.6 l -12.25,12.31 m 39.18,-7.7 c -6.15,0 -10.9,5.45 -10.9,12.45 0,6.84 4.8,12.34 10.8,12.34 6,0 10.8,-5.5 10.8,-12.4 0,-6.85 -4.8,-12.39 -10.7,-12.39 m 0,2.14 c 3.5,0 5.45,3.65 5.45,10.25 0,6.65 -1.95,10.25 -5.55,10.25 -3.59,0 -5.55,-3.6 -5.55,-10.19 0,-6.81 1.9,-10.31 5.65,-10.31 m 22.39,-1.39 -8.66,0.54 v 2.16 h 1.81 c 1.89,0.05 2.14,0.34 2.14,2.5 v 14.3 c -0.04,0.75 -0.09,1.04 -0.29,1.29 -0.35,0.46 -1.3,0.66 -3.46,0.71 h -0.2 v 1.79 h 12.66 v -1.79 h -0.21 c -3.34,-0.11 -3.79,-0.36 -3.79,-2.16 v -7.39 c 0,-2.45 0.34,-4.7 0.9,-5.86 1.05,-2.25 3.3,-3.8 5.44,-3.8 1.31,0 2.81,0.71 3.56,1.75 0.75,1.1 1.1,2.6 1.1,5 v 10.46 c -0.05,0.75 -0.1,1.04 -0.3,1.29 -0.36,0.46 -1.36,0.66 -3.5,0.71 h -0.2 v 1.79 h 12.65 v -1.79 h -0.2 c -3.3,-0.11 -3.75,-0.36 -3.75,-2.16 v -10.05 c 0,-3.59 -0.16,-4.5 -1.05,-6.2 -1.25,-2.39 -3.75,-3.84 -6.75,-3.84 -3.25,0 -5.7,1.5 -7.9,4.79 v -4.04 m 30.25,0 v -9.91 h -2.05 c -0.5,6.5 -2.7,9.8 -6.75,10.11 v 1.94 h 4.09 v 12.75 c 0,3.5 0.1,4.75 0.6,5.9 0.81,2.1 2.81,3.25 5.7,3.25 4.5,0 7.41,-3.4 7.41,-8.7 0,-0.3 0,-0.64 -0.05,-1.14 h -2.11 c -0.14,4.5 -1.45,6.8 -3.89,6.8 -1.16,0 -2.16,-0.61 -2.5,-1.46 -0.31,-0.7 -0.45,-1.95 -0.45,-3.75 v -13.65 h 7.34 v -2.14 h -7.34 m 19.64,0 -8.86,0.54 v 2.16 h 2.04 c 1.91,0.05 2.16,0.34 2.16,2.5 v 14.3 c -0.05,0.75 -0.09,1.04 -0.3,1.29 -0.36,0.46 -1.36,0.66 -3.5,0.71 h -0.2 v 1.79 h 13.34 v -1.79 h -0.89 c -3.36,-0.11 -3.79,-0.36 -3.79,-2.16 v -2.7 c 0.04,-8.39 3.04,-14.8 6.93,-15 -0.68,0.81 -0.89,1.31 -0.89,2.25 0,1.61 1.14,2.75 2.75,2.75 1.85,0 3.05,-1.35 3.05,-3.35 0,-2.45 -1.7,-4.04 -4.34,-4.04 -3.16,0 -5.86,2.5 -7.5,6.95 v -6.2 m 34.47,7.2 c 0,-3.16 -0.55,-4.75 -2,-5.95 -1.65,-1.36 -4.1,-2 -7.3,-2 -5.64,0 -9.75,2.64 -9.75,6.29 0,1.85 1.15,3.05 2.9,3.05 1.6,0 2.71,-1.05 2.71,-2.55 0,-0.65 -0.25,-1.34 -0.75,-2.04 -0.31,-0.36 -0.36,-0.46 -0.36,-0.71 0,-1 2,-1.9 4.4,-1.9 1.6,0 3.35,0.5 4.15,1.25 0.95,0.81 1.31,2 1.31,4.25 v 1.95 c -5.21,0.91 -6.86,1.3 -9.31,2.25 -4.35,1.61 -6.4,3.91 -6.4,7.11 0,3.59 2.8,5.84 7.25,5.84 3.46,0 6.55,-1.4 8.71,-3.95 0.79,2.55 2.04,3.55 4.39,3.55 2.25,0 4.61,-1.44 4.61,-2.89 0,-0.36 -0.21,-0.61 -0.5,-0.61 -0.21,0 -0.41,0.06 -0.75,0.2 -0.71,0.3 -1,0.36 -1.41,0.36 -1.4,0 -1.9,-0.91 -1.9,-3.45 v -10.05 m -4.69,6.09 c 0,3 -0.16,3.71 -1,5 -1.25,1.85 -3.5,3.1 -5.71,3.1 -2.29,0 -3.95,-1.64 -3.95,-3.89 0,-2.11 1.05,-3.61 3.25,-4.66 1.55,-0.7 3.5,-1.2 7.41,-1.84 v 2.29 m 11.98,-3.9 v 4.15 h 12.46 v -4.15 h -12.46 m 48.14,-22.55 h -1.9 l -2,2.95 c -3.64,-2.65 -5.5,-3.35 -8.96,-3.35 -4.75,0 -8.79,2 -12.14,6 -3.2,3.81 -4.7,8.01 -4.7,13.15 0,10.8 7.05,18.45 16.91,18.45 8,0 13.09,-4.7 14.25,-13.09 l -2.36,-0.41 c -1.35,7.46 -5.14,11.16 -11.3,11.16 -7.41,0 -10.91,-5.11 -10.91,-15.91 0,-5.7 0.75,-9.45 2.46,-12.45 1.54,-2.8 4.61,-4.55 7.86,-4.55 3.5,0 6.59,1.85 8.5,5.05 0.95,1.66 1.64,3.5 2.84,7.45 h 2.2 l -0.75,-14.45 m 8.24,45.66 c 4.5,-3.11 6.56,-6.16 6.56,-9.66 0,-3 -1.66,-4.95 -4.11,-4.95 -1.84,0 -3.25,1.31 -3.25,3 0,1.81 1.36,2.95 3.45,2.95 0.25,0 0.6,0 0.75,-0.05 h 0.16 c 0.25,0 0.34,0.16 0.34,0.46 0,2.09 -1.7,4.45 -5.04,6.79 l 1.14,1.46"
     id="path45" />
  <path
     class="StaffText"
     fill="#1c71d8"
     d="m 1308.542,718.675 c 2.7,0.64 4.05,0.84 6.05,0.84 4.25,0 7.34,-1.45 9,-4.25 0.54,-0.9 0.75,-1.4 0.75,-1.8 0,-0.29 -0.1,-0.45 -0.41,-0.45 -0.14,0 -0.34,0.05 -0.64,0.2 -2.45,1.05 -3.75,1.3 -6.66,1.3 -3.2,0 -5.2,-0.3 -10.29,-1.5 -0.21,4.2 -0.66,9.55 -1.35,15.75 -1.06,1.11 -1.4,1.75 -1.4,2.55 0,1.06 0.65,1.7 1.59,1.7 1.31,0 2.06,-1.05 2.25,-3.05 1.75,-1.25 3.41,-1.79 5.41,-1.79 4.5,0 7.15,3.39 7.15,9.14 0,5.2 -1.65,9.5 -7.45,9.5 -3,0 -6.11,-1.55 -6.11,-3.1 0,-0.34 0.31,-0.75 0.91,-1.09 1.54,-0.95 2,-1.61 2,-2.95 0,-1.75 -1.35,-3.11 -3.16,-3.11 -2,0 -3.59,1.86 -3.59,4.2 0,2.5 1.45,5 3.7,6.55 1.7,1.11 3.7,1.65 6.34,1.65 7.86,0 12.8,-4.59 12.8,-11.95 0,-6.8 -4.5,-11.34 -11.3,-11.34 -2.14,0 -3.7,0.34 -6.45,1.5 l 0.86,-8.5 m 26.44,24 c -1.75,0 -3.14,1.39 -3.14,3.09 0,1.75 1.39,3.16 3.09,3.16 1.75,0 3.16,-1.41 3.16,-3.16 0,-1.7 -1.41,-3.09 -3.11,-3.09 m 20.94,-7.8 v 3.05 h 27.79 v -3.05 h -27.79 m 49.34,-3.66 c 0.5,-6.25 0.75,-7.9 1.84,-10.45 1.46,-3.55 4.1,-5.59 7.25,-5.59 1.75,0 2.8,0.54 2.8,1.44 0,0.2 -0.05,0.35 -0.25,0.7 -0.5,0.95 -0.75,1.7 -0.75,2.4 0,1.65 1.3,2.9 3.05,2.9 1.95,0 3.31,-1.5 3.31,-3.6 0,-3.45 -3.45,-6 -8.2,-6 -10.41,0 -14.61,10.95 -14.61,19.8 0,9.81 4.81,16.15 12.2,16.15 6.7,0 11.5,-5.34 11.5,-11.95 0,-5.89 -4.2,-10.3 -9.89,-10.3 -3.41,0 -5.91,1.35 -8.25,4.5 m 6.84,-1.45 c 3.66,0 5.85,2.86 5.85,7.61 0,5.8 -2.3,9.44 -5.94,9.44 -4.45,0 -6.45,-4.94 -6.45,-8.75 0,-5.14 2.5,-8.3 6.54,-8.3 m 20.14,12.91 c -1.75,0 -3.14,1.39 -3.14,3.09 0,1.75 1.39,3.16 3.1,3.16 1.75,0 3.15,-1.41 3.15,-3.16 0,-1.7 -1.4,-3.09 -3.11,-3.09 m 52.6,-30.56 h -29.96 l -0.75,13.9 h 2.15 c 0.7,-5.05 2.06,-11.55 8.45,-11.55 1.65,0 2.36,0.55 2.36,1.8 v 25.8 c 0,2.56 0,2.65 -0.31,3.11 -0.4,0.5 -1.35,0.7 -4.19,0.7 h -1.31 v 2.34 h 17.15 v -2.34 h -1.3 c -2.79,0 -3.75,-0.2 -4.15,-0.7 -0.3,-0.46 -0.3,-0.55 -0.3,-3.11 v -25.8 c 0,-1.25 0.7,-1.8 2.35,-1.8 6.4,0 7.7,6.55 8.4,11.55 h 2.16 l -0.75,-13.9 m 23.53,24.85 c 0.05,-7.5 -4.2,-12.79 -10.3,-12.79 -6.4,0 -11.2,5.54 -11.2,13.04 0,7.05 4.55,11.75 11.3,11.75 4.79,0 8.15,-2.34 10.2,-7.09 l -1.75,-0.95 c -2.05,3.84 -4.16,5.34 -7.5,5.34 -2.55,0 -4.41,-1.05 -5.7,-3.3 -0.89,-1.5 -1.3,-3.25 -1.25,-6 h 16.2 m -16.16,-2.15 c 0,-3.5 1.61,-8.5 5.82,-8.5 3,0 5,2.65 5,6.7 0,1.41 -0.46,1.8 -2.07,1.8 h -8.75 m 25.85,-22.35 c -1.61,0 -2.91,1.3 -2.91,2.9 0,1.6 1.3,2.9 2.86,2.9 1.64,0 2.94,-1.3 2.94,-2.9 0,-1.6 -1.3,-2.9 -2.89,-2.9 m 2.34,12.46 -9.39,0.54 v 2.16 h 2.55 c 1.89,0.05 2.14,0.34 2.14,2.5 v 14.3 c -0.05,0.75 -0.1,1.04 -0.3,1.29 -0.34,0.46 -1.3,0.66 -3.45,0.71 h -0.35 v 1.79 h 12.96 v -1.79 h -0.36 c -3.35,-0.11 -3.8,-0.36 -3.8,-2.16 v -19.34 m 15.64,-13.56 -9.25,0.56 v 2.14 h 2.45 c 1.85,0.05 2.1,0.36 2.1,2.5 v 27.86 c -0.05,0.75 -0.1,1.04 -0.3,1.29 -0.36,0.46 -1.3,0.66 -3.45,0.71 h -0.35 v 1.79 h 12.94 v -1.79 h -0.34 c -3.35,-0.11 -3.8,-0.36 -3.8,-2.16 v -32.9 m 15.24,13.56 v -9.91 h -2.05 c -0.5,6.5 -2.7,9.8 -6.75,10.11 v 1.94 h 4.09 v 12.75 c 0,3.5 0.1,4.75 0.6,5.9 0.81,2.1 2.81,3.25 5.7,3.25 4.5,0 7.41,-3.4 7.41,-8.7 0,-0.3 0,-0.64 -0.05,-1.14 h -2.11 c -0.14,4.5 -1.45,6.8 -3.89,6.8 -1.16,0 -2.16,-0.61 -2.5,-1.46 -0.31,-0.7 -0.45,-1.95 -0.45,-3.75 v -13.65 h 7.34 v -2.14 h -7.34 m 22.62,-0.75 c -6.14,0 -10.89,5.45 -10.89,12.45 0,6.84 4.8,12.34 10.8,12.34 6,0 10.79,-5.5 10.79,-12.4 0,-6.85 -4.79,-12.39 -10.7,-12.39 m 0,2.14 c 3.5,0 5.45,3.65 5.45,10.25 0,6.65 -1.95,10.25 -5.54,10.25 -3.6,0 -5.55,-3.6 -5.55,-10.19 0,-6.81 1.89,-10.31 5.64,-10.31 m 22.39,-1.39 -8.66,0.54 v 2.16 h 1.82 c 1.89,0.05 2.14,0.34 2.14,2.5 v 14.3 c -0.05,0.75 -0.1,1.04 -0.3,1.29 -0.34,0.46 -1.3,0.66 -3.45,0.71 h -0.21 v 1.79 h 12.66 v -1.79 h -0.2 c -3.35,-0.11 -3.8,-0.36 -3.8,-2.16 v -7.39 c 0,-2.45 0.34,-4.7 0.91,-5.86 1.04,-2.25 3.29,-3.8 5.43,-3.8 1.32,0 2.82,0.71 3.57,1.75 0.75,1.1 1.09,2.6 1.09,5 v 10.46 c -0.05,0.75 -0.09,1.04 -0.3,1.29 -0.36,0.46 -1.36,0.66 -3.5,0.71 h -0.2 v 1.79 h 12.66 v -1.79 h -0.21 c -3.29,-0.11 -3.75,-0.36 -3.75,-2.16 v -10.05 c 0,-3.59 -0.15,-4.5 -1.04,-6.2 -1.25,-2.39 -3.75,-3.84 -6.75,-3.84 -3.25,0 -5.71,1.5 -7.91,4.79 v -4.04 m 23.25,29.45 c 3.05,-1.86 4.59,-3.16 6.3,-5.2 3.79,-4.46 5.84,-10.21 5.84,-16.3 0,-5.7 -1.8,-11.06 -5.14,-15.45 -1.91,-2.46 -3.61,-3.91 -7,-6 v 1.84 c 5,4.41 7,9.95 7,19.61 0,9.64 -2,15.25 -7,19.64 v 1.86"
     id="path46" />
  <path
     class="StaffText"
     d="m 142.583,235.912 c 4.547,-1.64 6.656,-4.187 6.656,-8.203 0,-5.25 -4,-8.593 -10.203,-8.593 -5.844,0 -10.297,3.453 -10.297,8 0,2.046 1.344,3.5 3.297,3.5 1.75,0 2.953,-1.204 2.953,-3 0,-1.094 -0.406,-1.75 -1.547,-2.547 -0.5,-0.36 -0.656,-0.547 -0.656,-0.907 0,-1.39 2.906,-2.89 5.75,-2.89 3.594,0 5.5,2.25 5.5,6.5 0,4.64 -1.906,7.094 -5.453,7.094 -0.453,0 -1.297,-0.047 -2.047,-0.094 -0.406,-0.047 -0.797,-0.047 -1.094,-0.047 -1.062,0 -1.609,0.437 -1.609,1.344 0,0.843 0.5,1.25 1.609,1.25 0.297,0 0.688,0 1.141,-0.047 1,-0.047 1.797,-0.047 2.359,-0.047 3.688,0 5.688,2.641 5.688,7.594 0,5.203 -2.5,8.093 -7,8.093 -3.141,0 -6.547,-1.687 -6.547,-3.25 0,-0.437 0.109,-0.546 1.047,-1.093 1.406,-0.844 1.953,-1.703 1.953,-2.953 0,-1.797 -1.344,-3.141 -3.141,-3.141 -2.156,0 -3.562,1.75 -3.562,4.391 0,4.859 4.453,8.203 10.859,8.203 7.25,0 11.953,-4 11.953,-10.157 0,-4.687 -2.406,-7.546 -7.609,-9 m 29.203,-1.093 c 3.703,-2 5.5,-4.5 5.5,-7.75 0,-4.61 -4.156,-7.953 -9.953,-7.953 -6.094,0 -10.547,4 -10.547,9.546 0,2.157 0.797,4.407 2.203,5.954 0.844,1 1.641,1.546 3.438,2.5 -4.094,1.609 -7.297,3.859 -7.297,8.796 0,2.75 1.359,5.454 3.453,7 1.953,1.407 4.656,2.157 7.844,2.157 3.703,0 6.812,-1 8.906,-2.797 2.094,-1.906 3.406,-4.953 3.406,-8 0,-2.86 -1.109,-5.406 -3.156,-7.203 -1,-0.907 -1.906,-1.407 -3.797,-2.25 m -5.359,-2 c -4.047,-1.453 -5.797,-3.344 -5.797,-6.25 0,-3.203 2.609,-5.297 6.547,-5.297 3.859,0 6.406,2.437 6.406,6.094 0,2.609 -1,4.296 -3.844,6.703 l -3.312,-1.25 m 2.906,6.953 c 3.797,1.344 5.406,3.297 5.406,6.594 0,4 -3.156,6.546 -8.062,6.546 -4.688,0 -7.391,-2.546 -7.391,-7 0,-3.75 1.547,-6 5.453,-7.796 l 4.594,1.656 m 19.203,-2.453 c 0.5,-6.25 0.75,-7.907 1.844,-10.453 1.453,-3.547 4.094,-5.594 7.25,-5.594 1.75,0 2.797,0.547 2.797,1.437 0,0.203 -0.047,0.36 -0.25,0.703 -0.5,0.954 -0.75,1.704 -0.75,2.407 0,1.64 1.297,2.89 3.047,2.89 1.953,0 3.312,-1.5 3.312,-3.593 0,-3.454 -3.453,-6 -8.203,-6 -10.406,0 -14.609,10.953 -14.609,19.796 0,9.813 4.812,16.157 12.203,16.157 6.703,0 11.5,-5.344 11.5,-11.953 0,-5.891 -4.203,-10.297 -9.891,-10.297 -3.406,0 -5.906,1.343 -8.25,4.5 m 6.844,-1.453 c 3.656,0 5.844,2.859 5.844,7.609 0,5.797 -2.297,9.437 -5.938,9.437 -4.453,0 -6.453,-4.937 -6.453,-8.75 0,-5.14 2.5,-8.296 6.547,-8.296 m 46.531,11.109 c -1.594,3.594 -3.297,5.047 -5.891,5.047 -4,0 -6.5,-3.656 -6.5,-9.5 0,-6.11 2.454,-10.11 6.141,-10.11 1.5,0 2.813,0.704 2.813,1.5 0,0.157 -0.063,0.313 -0.313,0.61 -0.797,0.953 -1,1.453 -1,2.297 0,1.656 1.25,2.797 3,2.797 1.813,0 3.063,-1.391 3.063,-3.391 0,-3.406 -3.36,-5.953 -7.813,-5.953 -6.5,0 -11.141,5.297 -11.141,12.797 0,7.093 4.25,12 10.454,12 4.437,0 7,-2.047 9.14,-7.344 l -1.953,-0.75 m 12.641,-15.953 v -9.906 h -2.047 c -0.5,6.5 -2.703,9.796 -6.75,10.109 v 1.937 h 4.094 v 12.75 c 0,3.5 0.093,4.75 0.593,5.907 0.813,2.093 2.813,3.25 5.703,3.25 4.5,0 7.407,-3.407 7.407,-8.703 0,-0.297 0,-0.641 -0.047,-1.141 h -2.11 c -0.14,4.5 -1.453,6.797 -3.89,6.797 -1.156,0 -2.156,-0.61 -2.5,-1.453 -0.313,-0.703 -0.453,-1.953 -0.453,-3.75 v -13.657 h 7.343 v -2.14 h -7.343 m 37.578,-13.5 c -3.047,1.844 -4.61,3.14 -6.297,5.14 -3.813,4.5 -5.859,10.25 -5.859,16.313 0,5.687 1.796,11.047 5.156,15.5 1.89,2.391 3.594,3.891 7,6 v -1.859 c -5,-4.454 -7,-10 -7,-19.641 0,-9.656 2,-15.203 7,-19.609 v -1.844 m 12.594,13.5 -8.86,0.547 v 2.156 h 2.047 c 1.906,0.047 2.156,0.344 2.156,2.5 v 14.297 c -0.047,0.75 -0.093,1.047 -0.297,1.297 -0.359,0.453 -1.359,0.656 -3.5,0.703 h -0.203 v 1.797 h 13.344 v -1.797 h -0.891 c -3.359,-0.11 -3.796,-0.36 -3.796,-2.156 v -2.704 c 0.046,-8.39 3.046,-14.796 6.937,-15 -0.687,0.813 -0.891,1.313 -0.891,2.25 0,1.61 1.141,2.75 2.75,2.75 1.844,0 3.047,-1.343 3.047,-3.343 0,-2.453 -1.703,-4.047 -4.343,-4.047 -3.157,0 -5.86,2.5 -7.5,6.953 v -6.203 m 35.218,12.047 c 0.047,-7.5 -4.203,-12.797 -10.297,-12.797 -6.406,0 -11.203,5.547 -11.203,13.047 0,7.047 4.547,11.75 11.297,11.75 4.797,0 8.156,-2.344 10.203,-7.094 l -1.75,-0.953 c -2.047,3.844 -4.156,5.344 -7.5,5.344 -2.547,0 -4.406,-1.047 -5.703,-3.297 -0.89,-1.5 -1.297,-3.25 -1.25,-6 h 16.203 m -16.156,-2.157 c 0,-3.5 1.609,-8.5 5.813,-8.5 3,0 5,2.657 5,6.704 0,1.406 -0.454,1.796 -2.063,1.796 h -8.75 m 25.844,-22.343 c -1.61,0 -2.906,1.297 -2.906,2.89 0,1.61 1.296,2.907 2.859,2.907 1.641,0 2.937,-1.297 2.937,-2.907 0,-1.593 -1.296,-2.89 -2.89,-2.89 m 2.344,12.453 -9.391,0.547 v 2.156 h 2.547 c 1.89,0.047 2.14,0.344 2.14,2.5 v 14.297 c -0.046,0.75 -0.093,1.047 -0.296,1.297 -0.344,0.453 -1.297,0.656 -3.454,0.703 h -0.343 v 1.797 h 12.953 v -1.797 h -0.36 c -3.343,-0.11 -3.796,-0.36 -3.796,-2.156 v -19.344 m 15.437,0 -8.656,0.547 v 2.156 h 1.812 c 1.891,0.047 2.141,0.344 2.141,2.5 v 14.297 c -0.047,0.75 -0.094,1.047 -0.297,1.297 -0.344,0.453 -1.297,0.656 -3.453,0.703 h -0.203 v 1.797 h 12.656 v -1.797 h -0.203 c -3.344,-0.11 -3.797,-0.36 -3.797,-2.156 v -7.391 c 0,-2.453 0.344,-4.703 0.906,-5.859 1.047,-2.25 3.297,-3.797 5.438,-3.797 1.312,0 2.812,0.703 3.562,1.75 0.75,1.093 1.094,2.593 1.094,5 v 10.453 c -0.047,0.75 -0.094,1.047 -0.297,1.297 -0.359,0.453 -1.359,0.656 -3.5,0.703 h -0.203 v 1.797 h 12.656 v -1.797 h -0.203 c -3.297,-0.11 -3.75,-0.36 -3.75,-2.156 v -10.047 c 0,-3.594 -0.156,-4.5 -1.047,-6.203 -1.25,-2.391 -3.75,-3.844 -6.75,-3.844 -3.25,0 -5.703,1.5 -7.906,4.797 v -4.047 m 43.797,12.047 c 0.047,-7.5 -4.203,-12.797 -10.297,-12.797 -6.406,0 -11.203,5.547 -11.203,13.047 0,7.047 4.547,11.75 11.297,11.75 4.797,0 8.156,-2.344 10.203,-7.094 l -1.75,-0.953 c -2.047,3.844 -4.156,5.344 -7.5,5.344 -2.547,0 -4.406,-1.047 -5.703,-3.297 -0.891,-1.5 -1.297,-3.25 -1.25,-6 h 16.203 m -16.156,-2.157 c 0,-3.5 1.609,-8.5 5.812,-8.5 3,0 5,2.657 5,6.704 0,1.406 -0.453,1.796 -2.062,1.796 h -8.75 m 41.578,9.704 c -2.75,-0.047 -2.891,-0.094 -3.5,-0.454 -0.344,-0.187 -0.594,-0.75 -0.594,-1.296 0,-1.5 1.344,-2.141 4.703,-2.25 4.688,-0.094 5.438,-0.204 7.141,-0.954 3,-1.343 4.656,-3.937 4.656,-7.25 0,-2 -0.453,-3.25 -1.797,-4.89 0.844,-0.906 1.297,-1.203 1.688,-1.203 0.25,0 0.406,0.156 0.5,0.703 0.203,1.203 1,1.844 2.25,1.844 1.312,0 2.265,-1.047 2.265,-2.391 0,-1.703 -1.359,-2.906 -3.312,-2.906 -1.594,0 -2.5,0.5 -4.797,2.593 -2.094,-1.39 -3.703,-1.89 -6.203,-1.89 -5.953,0 -9.844,3.297 -9.844,8.297 0,2.953 1.594,5.453 4.203,6.703 -3.359,0.75 -4.75,2.25 -4.75,5 0,2.203 1,3.5 3.344,4.297 -3.094,1.156 -4.594,2.703 -4.594,4.75 0,1.5 1,2.906 2.594,3.75 1.953,1 4.344,1.406 7.953,1.406 8.344,0 12.5,-2.656 12.5,-7.906 0,-2.5 -1.156,-4.5 -2.953,-5.25 -1.344,-0.5 -2.953,-0.703 -6.344,-0.703 h -5.109 m 2.953,-18.204 c 3.094,0 4.844,2.157 4.844,6.063 0,3.891 -1.891,6.25 -5.047,6.25 -3.094,0 -5.047,-2.359 -5.047,-6.109 0,-3.954 1.906,-6.204 5.25,-6.204 m -0.453,22.5 c 4.156,0 4.453,0 5.156,0.11 2.047,0.203 3.25,1.297 3.25,2.89 0,2.86 -3.25,4.5 -8.797,4.5 -4.25,0 -6.609,-1.25 -6.609,-3.5 0,-1.64 0.906,-2.75 3.297,-4 h 3.703 m 25.687,-23.89 -8.859,0.547 v 2.156 h 2.047 c 1.906,0.047 2.156,0.344 2.156,2.5 v 14.297 c -0.047,0.75 -0.094,1.047 -0.297,1.297 -0.359,0.453 -1.359,0.656 -3.5,0.703 h -0.203 v 1.797 h 13.344 v -1.797 h -0.891 c -3.359,-0.11 -3.797,-0.36 -3.797,-2.156 v -2.704 c 0.047,-8.39 3.047,-14.796 6.938,-15 -0.688,0.813 -0.891,1.313 -0.891,2.25 0,1.61 1.141,2.75 2.75,2.75 1.844,0 3.047,-1.343 3.047,-3.343 0,-2.453 -1.703,-4.047 -4.344,-4.047 -3.156,0 -5.859,2.5 -7.5,6.953 v -6.203 m 15.422,17.75 c -1.75,0 -3.14,1.39 -3.14,3.094 0,1.75 1.39,3.156 3.093,3.156 1.75,0 3.157,-1.406 3.157,-3.156 0,-1.704 -1.407,-3.094 -3.11,-3.094 m 52.594,-30.563 H 502.88 l -0.75,13.907 h 2.14 c 0.704,-5.047 2.063,-11.547 8.454,-11.547 1.656,0 2.359,0.547 2.359,1.797 v 25.796 c 0,2.563 0,2.657 -0.313,3.11 -0.39,0.5 -1.343,0.703 -4.187,0.703 h -1.313 v 2.344 h 17.157 v -2.344 h -1.297 c -2.797,0 -3.75,-0.203 -4.156,-0.703 -0.297,-0.453 -0.297,-0.547 -0.297,-3.11 v -25.796 c 0,-1.25 0.703,-1.797 2.343,-1.797 6.407,0 7.704,6.547 8.407,11.547 h 2.156 l -0.75,-13.907 m 23.531,24.86 c 0.047,-7.5 -4.203,-12.797 -10.297,-12.797 -6.406,0 -11.203,5.547 -11.203,13.047 0,7.047 4.547,11.75 11.297,11.75 4.797,0 8.156,-2.344 10.203,-7.094 l -1.75,-0.953 c -2.047,3.844 -4.156,5.344 -7.5,5.344 -2.547,0 -4.406,-1.047 -5.703,-3.297 -0.891,-1.5 -1.297,-3.25 -1.25,-6 h 16.203 m -16.156,-2.157 c 0,-3.5 1.609,-8.5 5.812,-8.5 3,0 5,2.657 5,6.704 0,1.406 -0.453,1.796 -2.062,1.796 h -8.75 m 27.797,-9.89 -8.86,0.547 v 2.156 h 2.047 c 1.907,0.047 2.157,0.344 2.157,2.5 v 14.297 c -0.047,0.75 -0.094,1.047 -0.297,1.297 -0.36,0.453 -1.36,0.656 -3.5,0.703 h -0.203 v 1.797 h 13.343 v -1.797 h -0.89 c -3.36,-0.11 -3.797,-0.36 -3.797,-2.156 v -2.704 c 0.047,-8.39 3.047,-14.796 6.937,-15 -0.687,0.813 -0.89,1.313 -0.89,2.25 0,1.61 1.14,2.75 2.75,2.75 1.843,0 3.047,-1.343 3.047,-3.343 0,-2.453 -1.704,-4.047 -4.344,-4.047 -3.156,0 -5.86,2.5 -7.5,6.953 v -6.203 m 33.578,0 H 583.52 l -0.437,8.453 h 2 c 0.391,-4.453 2.344,-6.359 6.344,-6.313 h 4.343 l -13.64,19.36 v 1.797 h 19.453 l 0.344,-8.953 h -2 c -0.5,4.906 -2.453,6.859 -6.907,6.796 h -5.093 l 13.656,-19.343 v -1.797 m 5.344,29.453 c 3.047,-1.859 4.593,-3.156 6.297,-5.203 3.796,-4.453 5.843,-10.203 5.843,-16.297 0,-5.703 -1.797,-11.063 -5.14,-15.453 -1.907,-2.453 -3.61,-3.906 -7,-6 v 1.844 c 5,4.406 7,9.953 7,19.609 0,9.641 -2,15.25 -7,19.641 v 1.859"
     id="path47" />
  <metadata
     id="metadata47">
    <rdf:RDF>
      <cc:Work
         rdf:about="">
        <dc:title>kl3_vertimmt</dc:title>
      </cc:Work>
    </rdf:RDF>
  </metadata>
</svg>
